<svg width="24" height="24" viewBox="0 0 24 24" fill="none" xmlns="http://www.w3.org/2000/svg">
    <path d="M9.42822 20L12.4282 17L15.4282 20" stroke="currentColor" stroke-width="2"
        stroke-linecap="round" stroke-linejoin="round" />
    <path d="M15.4282 4L12.4282 7L9.42822 4" stroke="currentColor" stroke-width="2"
        stroke-linecap="round" stroke-linejoin="round" />
    <path d="M12.4282 3V7V12V17V21" stroke="currentColor" stroke-width="2" stroke-linecap="round"
        stroke-linejoin="round" />
    <path d="M17.8564 18.598L16.7583 14.4999L20.8564 13.4019" stroke="currentColor" stroke-width="2"
        stroke-linecap="round" stroke-linejoin="round" />
    <path d="M7 5.40186L8.09807 9.49994L4 10.598" stroke="currentColor" stroke-width="2"
        stroke-linecap="round" stroke-linejoin="round" />
    <path d="M4.63379 7.5L8.09789 9.5L12.428 12L16.7581 14.5L20.2222 16.5" stroke="currentColor"
        stroke-width="2" stroke-linecap="round" stroke-linejoin="round" />
    <path d="M20.8564 10.598L16.7583 9.49994L17.8564 5.40186" stroke="currentColor" stroke-width="2"
        stroke-linecap="round" stroke-linejoin="round" />
    <path d="M4 13.4019L8.09807 14.4999L7 18.598" stroke="currentColor" stroke-width="2"
        stroke-linecap="round" stroke-linejoin="round" />
    <path d="M4.63379 16.5L8.09789 14.5L12.428 12L16.7581 9.5L20.2222 7.5" stroke="currentColor"
        stroke-width="2" stroke-linecap="round" stroke-linejoin="round" />
</svg>