<svg width="32" height="32" viewBox="0 0 32 32" fill="none" xmlns="http://www.w3.org/2000/svg">
<path d="M28.1411 32H24.8354H7.16463H3.85894C1.73113 32 0 30.2689 0 28.1411V24.8036V7.13275V3.85894C0 1.73112 1.73113 0 3.85894 0H8.84044C9.10406 0 9.31775 0.213688 9.31775 0.477312C9.31775 0.740936 9.10406 0.954624 8.84044 0.954624H7.64187V3.01937C7.64187 3.84294 8.31188 4.51294 9.1355 4.51294H22.8644C23.6881 4.51294 24.3581 3.84294 24.3581 3.01937V0.954624H10.9406C10.677 0.954624 10.4633 0.740936 10.4633 0.477312C10.4633 0.213688 10.677 0 10.9406 0H28.1411C30.2689 0 32 1.73112 32 3.85894V7.13275V24.8036V28.1411C32 30.2689 30.2689 32 28.1411 32ZM7.64187 31.0454H24.3581V28.9213C24.3581 28.0954 23.6861 27.4234 22.8602 27.4234H9.13981C8.31388 27.4234 7.64187 28.0953 7.64187 28.9213V31.0454ZM0.954625 24.3263H3.049C3.87375 24.3263 4.54475 23.6552 4.54475 22.8305V9.10581C4.54475 8.28106 3.87375 7.61006 3.049 7.61006H0.954625V24.3263ZM31.0454 25.2809H28.9511C27.5999 25.2809 26.5007 24.1816 26.5007 22.8305V9.10581C26.5007 7.75469 27.5999 6.65544 28.9511 6.65544H31.0454V3.85888C31.0454 2.2575 29.7425 0.954624 28.1411 0.954624H25.3127V3.01937C25.3127 4.36931 24.2144 5.46756 22.8644 5.46756H9.1355C7.78556 5.46756 6.68725 4.36931 6.68725 3.01937V0.954624H3.85894C2.2575 0.954624 0.954625 2.2575 0.954625 3.85894V6.6555H3.049C4.40013 6.6555 5.49937 7.75475 5.49937 9.10588V22.8305C5.49937 24.1816 4.40013 25.2809 3.049 25.2809H0.954625V28.1411C0.954625 29.7425 2.2575 31.0454 3.85894 31.0454H6.68731V28.9213C6.68731 27.569 7.78756 26.4688 9.13988 26.4688H22.8602C24.2125 26.4688 25.3127 27.569 25.3127 28.9213V31.0454H28.1411C29.7426 31.0454 31.0454 29.7425 31.0454 28.1411V25.2809ZM31.0454 24.3263V7.61006H28.951C28.1262 7.61006 27.4552 8.28106 27.4552 9.10581V22.8305C27.4552 23.6552 28.1262 24.3263 28.951 24.3263H31.0454Z" fill="#000"/>
<path d="M22.0551 24H13.5139C13.2892 24 13.1071 23.8179 13.1071 23.5932C13.1071 23.3685 13.2892 23.1864 13.5139 23.1864H22.0551C22.6788 23.1864 23.1862 22.679 23.1862 22.0554V9.94462C23.1862 9.32093 22.6788 8.81358 22.0551 8.81358H9.94437C9.32069 8.81358 8.81333 9.32098 8.81333 9.94462V22.0554C8.81333 22.6791 9.32074 23.1864 9.94437 23.1864H11.6607C11.8854 23.1864 12.0675 23.3685 12.0675 23.5932C12.0675 23.8179 11.8854 24 11.6607 24H9.94437C8.87209 24 7.99976 23.1277 7.99976 22.0554V9.94462C7.99976 8.87233 8.87209 8 9.94437 8H22.0551C23.1274 8 23.9998 8.87233 23.9998 9.94462V22.0554C23.9998 23.1277 23.1274 24 22.0551 24Z" fill="#000"/>
<path d="M2.68337 22.905C2.41974 22.905 2.20605 22.6913 2.20605 22.4277V9.74209C2.20605 9.47847 2.41974 9.26478 2.68337 9.26478C2.94699 9.26478 3.16068 9.47847 3.16068 9.74209V22.4277C3.16068 22.6913 2.94699 22.905 2.68337 22.905Z" fill="#000"/>
<path d="M22.3429 29.8762H9.65724C9.39362 29.8762 9.17993 29.6625 9.17993 29.3989C9.17993 29.1353 9.39362 28.9216 9.65724 28.9216H22.3429C22.6065 28.9216 22.8202 29.1353 22.8202 29.3989C22.8202 29.6625 22.6065 29.8762 22.3429 29.8762Z" fill="#000"/>
<path d="M22.3429 3.21118H9.65724C9.39362 3.21118 9.17993 2.99749 9.17993 2.73387C9.17993 2.47024 9.39362 2.25656 9.65724 2.25656H22.3429C22.6065 2.25656 22.8202 2.47031 22.8202 2.73387C22.8202 2.99749 22.6065 3.21118 22.3429 3.21118Z" fill="#000"/>
<path d="M29.2503 22.905C28.9867 22.905 28.7729 22.6913 28.7729 22.4277V9.74209C28.7729 9.47847 28.9866 9.26478 29.2503 9.26478C29.5139 9.26478 29.7276 9.47847 29.7276 9.74209V22.4277C29.7276 22.6913 29.5139 22.905 29.2503 22.905Z" fill="#000"/>
<path d="M8.5 11C14.7484 11 23.5 11 23.5 11" stroke="#000" stroke-linecap="round"/>
<path d="M8.5 14.3333C8.5 14.3333 17.2516 14.3333 23.5 14.3333" stroke="#000" stroke-linecap="round"/>
<path d="M8.5 17.6667C8.5 17.6667 17.2516 17.6667 23.5 17.6667" stroke="#000" stroke-linecap="round"/>
<path d="M8.5 21C15.1389 21 16.8611 21 23.5 21" stroke="#000" stroke-linecap="round"/>
<path d="M18.5 8.5L18.5 23.5" stroke="#000" stroke-linecap="round"/>
<path d="M13.5 8.5L13.5 23.5" stroke="#000" stroke-linecap="round"/>
</svg>
