<?xml version="1.0" encoding="UTF-8"?>
<svg id="Background" xmlns="http://www.w3.org/2000/svg" xmlns:xlink="http://www.w3.org/1999/xlink" viewBox="0 0 316.02 316.02">
  <defs>
    <style>
      .cls-1 {
        fill: url(#Degradado_sin_nombre_210);
      }

      .cls-2 {
        fill: url(#Degradado_sin_nombre_260);
      }

      .cls-3 {
        fill: url(#Degradado_sin_nombre_260-2);
      }

      .cls-4 {
        fill: url(#Degradado_sin_nombre_213);
      }
    </style>
    <linearGradient id="Degradado_sin_nombre_210" data-name="Degradado sin nombre 210" x1="68.01" y1="151.8" x2="170.44" y2="151.8" gradientUnits="userSpaceOnUse">
      <stop offset=".11" stop-color="#91d5ea"/>
      <stop offset=".36" stop-color="#79bdbc"/>
      <stop offset=".91" stop-color="#3e8349"/>
      <stop offset="1" stop-color="#357a37"/>
    </linearGradient>
    <linearGradient id="Degradado_sin_nombre_260" data-name="Degradado sin nombre 260" x1="165.64" y1="158.01" x2="26.97" y2="158.01" gradientUnits="userSpaceOnUse">
      <stop offset=".27" stop-color="#2d897a"/>
      <stop offset=".88" stop-color="#d9efa4"/>
    </linearGradient>
    <linearGradient id="Degradado_sin_nombre_213" data-name="Degradado sin nombre 213" x1="83.25" y1="233.5" x2="147.72" y2="165.88" gradientUnits="userSpaceOnUse">
      <stop offset=".04" stop-color="#2a9476"/>
      <stop offset=".88" stop-color="#195658"/>
    </linearGradient>
    <linearGradient id="Degradado_sin_nombre_260-2" data-name="Degradado sin nombre 260" x1="231.57" y1="82.56" x2="144.72" y2="175.17" xlink:href="#Degradado_sin_nombre_260"/>
  </defs>
  <path class="cls-1" d="M170.44,158.01c0,11.61-4.67,22.14-12.23,29.8-.06,.07-.13,.14-.19,.2-.07,.07-.14,.13-.21,.2l-29.8,29.8c4.84-4.84,8.52-10.85,10.58-17.57,.15-.48,.29-.95,.42-1.44,.94-3.5,1.44-7.18,1.44-10.99,0-11.71-4.76-22.32-12.43-30l-59.99-59.99c.05-.07,.1-.11,.16-.16,7.66-7.59,18.2-12.27,29.83-12.27,1.75,0,3.46,.11,5.16,.32,9.65,1.16,18.3,5.57,24.83,12.11h0l29.8,29.8c.07,.06,.14,.13,.21,.19,.06,.07,.13,.14,.19,.2,7.56,7.66,12.23,18.19,12.23,29.8Z"/>
  <path class="cls-2" d="M128.01,158.01c-6.54,6.54-15.2,10.95-24.85,12.11-1.69,.21-3.41,.31-5.15,.31-3.79,0-7.48-.5-10.99-1.44-7.15-1.9-13.55-5.64-18.69-10.66-.04-.04-.08-.07-.12-.11-.07-.07-.14-.14-.2-.21,.11-.12,.23-.24,.35-.35,5.13-5.01,11.52-8.73,18.66-10.64,3.51-.94,7.19-1.44,10.99-1.44,1.74,0,3.46,.1,5.15,.31,9.66,1.16,18.32,5.58,24.85,12.11Z"/>
  <path class="cls-4" d="M140.43,188.02c0,3.8-.5,7.49-1.44,10.99-.13,.49-.27,.96-.42,1.44-2.05,6.72-5.73,12.73-10.57,17.57-6.54,6.54-15.2,10.95-24.85,12.11-1.69,.21-3.41,.31-5.15,.31-11.63,0-22.18-4.68-29.84-12.27-.06-.05-.1-.09-.16-.16,.24-.25,.48-.48,.72-.71l16.85-16.86,12.43-12.43,5.15-5.15,24.85-24.85c7.67,7.68,12.43,18.29,12.43,30Z"/>
  <path class="cls-3" d="M248.01,98.02l-17.57,17.57-12.43,12.43-29.99,29.99h0l-29.8,29.8c7.56-7.66,12.23-18.19,12.23-29.8s-4.67-22.14-12.23-29.8c-.06-.06-.13-.13-.19-.2l12.42-12.42,17.57-17.57c7.68-7.68,18.29-12.43,30-12.43,4.32,0,8.49,.65,12.43,1.86,6.71,2.06,12.73,5.73,17.57,10.58Z"/>
</svg>