<svg width="28" height="30" viewBox="0 0 28 30" fill="none" xmlns="http://www.w3.org/2000/svg">
<g clip-path="url(#clip0_356_1586)">
<path d="M27.9785 27.3186L25.2788 9.55836C25.0882 8.42271 24.1036 7.57098 22.9602 7.57098H20.1652V6.08833C20.1652 2.74448 17.4337 0 14.0352 0C10.6367 0 7.90525 2.71293 7.90525 6.08833V7.57098H5.11024C3.93507 7.57098 2.95046 8.42271 2.79166 9.55836L0.0284094 27.3186C-0.193921 28.7382 0.91773 30 2.347 30H25.6281C27.0892 30 28.1691 28.7382 27.9785 27.3186ZM11.2402 6.11987C11.2402 4.60568 12.4789 3.37539 14.0035 3.37539C15.528 3.37539 16.7667 4.60568 16.7667 6.11987V7.60252H11.2402V6.11987ZM10.2874 13.1546C11.3673 13.1546 12.2566 14.0379 12.2566 15.1104C12.2566 16.183 11.3673 17.0662 10.2874 17.0662C9.20747 17.0662 8.31815 16.183 8.31815 15.1104C8.34991 14.0379 9.20747 13.1546 10.2874 13.1546ZM17.7195 24.4164C16.6397 24.4164 15.7503 23.5331 15.7503 22.4606C15.7503 21.388 16.6397 20.5047 17.7195 20.5047C18.7994 20.5047 19.6888 21.388 19.6888 22.4606C19.657 23.5647 18.7994 24.4164 17.7195 24.4164ZM19.2759 15.5521L10.7638 24.0379C10.4779 24.3218 10.1286 24.448 9.74742 24.448C9.36628 24.448 9.0169 24.3218 8.73105 24.0379C8.15934 23.47 8.15934 22.5868 8.73105 22.0189L17.2431 13.5647C17.8148 12.9968 18.7041 12.9968 19.2759 13.5647C19.8481 14.1009 19.8481 15.0158 19.2759 15.5521Z" fill="url(#paint0_linear_356_1586)"/>
</g>
<defs>
<linearGradient id="paint0_linear_356_1586" x1="0" y1="15" x2="28.0003" y2="15" gradientUnits="userSpaceOnUse">
<stop stop-color="#9BE15D"/>
<stop offset="1" stop-color="#00E3AE"/>
</linearGradient>
<clipPath id="clip0_356_1586">
<rect width="28" height="30" fill="white"/>
</clipPath>
</defs>
</svg>
