<svg width="22" height="19" viewBox="0 0 22 19" fill="none" xmlns="http://www.w3.org/2000/svg">
<path d="M8 1.75H5.912C5.43095 1.75009 4.96259 1.90435 4.57564 2.19015C4.1887 2.47595 3.90354 2.87824 3.762 3.338L1.35 11.177C1.28394 11.3911 1.25023 11.6139 1.25 11.838V16C1.25 16.5967 1.48705 17.169 1.90901 17.591C2.33097 18.0129 2.90326 18.25 3.5 18.25H18.5C19.0967 18.25 19.669 18.0129 20.091 17.591C20.5129 17.169 20.75 16.5967 20.75 16V11.838C20.75 11.614 20.716 11.391 20.65 11.177L18.24 3.338C18.0985 2.87824 17.8133 2.47595 17.4264 2.19015C17.0394 1.90435 16.5711 1.75009 16.09 1.75H14M1.25 11.5H5.11C5.5278 11.5001 5.93731 11.6165 6.29267 11.8363C6.64803 12.056 6.9352 12.3703 7.122 12.744L7.378 13.256C7.56488 13.6299 7.8522 13.9443 8.20775 14.164C8.5633 14.3837 8.97303 14.5001 9.391 14.5H12.609C13.027 14.5001 13.4367 14.3837 13.7922 14.164C14.1478 13.9443 14.4351 13.6299 14.622 13.256L14.878 12.744C15.0649 12.3701 15.3522 12.0557 15.7078 11.836C16.0633 11.6163 16.473 11.4999 16.891 11.5H20.75M11 1V9.25M11 9.25L8 6.25M11 9.25L14 6.25" stroke="#878A9C" stroke-width="1.5" stroke-linecap="round" stroke-linejoin="round"/>
</svg>
