<svg width="31" height="30" viewBox="0 0 31 30" fill="none" xmlns="http://www.w3.org/2000/svg">
<g clip-path="url(#clip0_356_1588)">
<path fill-rule="evenodd" clip-rule="evenodd" d="M24.4849 5.88478H28.2243C30.0277 5.88478 31.3656 7.62387 30.9103 9.37505L28.8249 17.3949C28.3368 19.2724 26.6412 20.5907 24.7072 20.5907H8.20537C8.20537 20.5907 7.74331 20.5967 7.29731 20.8206C6.85132 21.0444 6.44952 21.4592 6.44952 22.3533C6.44952 23.2474 6.85132 23.6621 7.29731 23.886C7.74331 24.1098 8.20537 24.1206 8.20537 24.1206H28.1292C28.4513 24.122 28.7118 24.3835 28.7131 24.7068C28.7118 25.0301 28.4513 25.2916 28.1292 25.293H24.0215C24.3429 25.7199 24.5518 26.2355 24.6014 26.7954C24.7654 28.6616 23.167 30.2198 21.2946 29.9738C19.9874 29.8024 18.9434 28.753 18.776 27.4408C18.6729 26.6341 18.9032 25.8792 19.3459 25.293H15.2315C15.5529 25.7199 15.7618 26.2355 15.8114 26.7954C15.9755 28.6616 14.377 30.2198 12.5046 29.9738C11.1974 29.8024 10.1534 28.753 9.98601 27.4408C9.88288 26.6341 10.1132 25.8792 10.5559 25.293H8.20537C8.20537 25.293 7.49486 25.3011 6.76895 24.9367C6.04371 24.5724 5.27694 23.8107 5.27694 22.3533C5.27694 20.8959 6.04304 20.1342 6.76895 19.7699C7.03949 19.6341 7.30736 19.5501 7.53705 19.4983L4.77135 1.17777H0.589308C0.265861 1.17911 0.00134438 0.916939 5.05098e-06 0.591575C-0.00133427 0.264867 0.263852 -0.00133941 0.589308 5.07042e-06H5.27828C5.56958 0.000677309 5.81602 0.215794 5.85754 0.504856L6.66917 5.88478H13.8426L13.4924 7.52505C13.414 7.89276 13.6939 8.23896 14.0683 8.23762H16.8447L15.2529 15.1644C15.1089 15.7694 15.8777 16.1552 16.2735 15.6766L24.4849 5.88478ZM17.5787 7.0612H15.1284V7.06052C14.9543 7.06052 14.8237 6.89919 14.8605 6.72777L16.2527 0.217805C16.2795 0.0914236 16.3913 0.000671387 16.5206 0.000671387H19.8528C20.0437 0.000671387 20.1763 0.192259 20.1093 0.372419L18.7901 3.9131C18.6461 4.29762 18.93 4.70769 19.3392 4.70769H23.3478C23.5808 4.70769 23.7074 4.98129 23.5574 5.1601L16.9894 12.9883C16.9766 13.0038 16.9519 12.991 16.9565 12.9715L18.1499 7.78184C18.2349 7.41345 17.9557 7.0612 17.5787 7.0612Z" fill="url(#paint0_linear_356_1588)"/>
</g>
<defs>
<linearGradient id="paint0_linear_356_1588" x1="0" y1="14.9997" x2="30.9999" y2="14.9997" gradientUnits="userSpaceOnUse">
<stop stop-color="#F78CA0"/>
<stop offset="0.19" stop-color="#F9748F"/>
<stop offset="0.6" stop-color="#FD868C"/>
</linearGradient>
<clipPath id="clip0_356_1588">
<rect width="31" height="30" fill="white"/>
</clipPath>
</defs>
</svg>
