<svg width="32" height="30" viewBox="0 0 32 30" fill="none" xmlns="http://www.w3.org/2000/svg">
<path d="M22.1304 28.6288L31.129 23.363C31.5623 23.0963 31.8955 22.6631 31.8955 22.1631C31.9289 21.5632 31.5623 20.8967 30.6957 20.83C30.0958 20.7967 28.8294 21.4633 28.4961 21.6299C27.2629 22.2631 25.5632 23.2296 24.4301 23.9962C24.3634 24.0628 24.2634 24.1295 24.1634 24.1628C23.6635 24.4961 23.1303 24.6961 22.5304 24.8294C19.2642 25.5293 14.4983 25.5959 14.4983 25.5959H14.2317C14.0317 25.5959 13.8317 25.4626 13.7984 25.2627C13.7651 25.0294 13.9317 24.8294 14.165 24.7961L21.2306 24.1295C21.9971 24.0295 22.6303 23.3296 22.5304 22.4964C22.4304 21.6632 21.6972 21.0633 20.8973 21.1633L14.5983 21.0967C14.165 21.0967 13.4985 20.9967 13.0652 20.8634C8.99918 19.6635 6.73287 20.7967 5.49973 21.2966C5.23311 20.8634 4.69986 20.5634 4.13328 20.5967L1.43371 20.7634C0.634431 20.8634 -0.03213 21.6299 0.00119806 22.4964L0.434463 28.5288C0.501119 29.3953 1.30099 30.0619 2.20085 29.9952L4.90042 29.8286C5.467 29.7953 5.93359 29.4287 6.13356 28.9621L18.0317 29.462C19.3648 29.5953 20.5979 29.4287 21.7644 28.8288L22.131 28.6288H22.1304ZM3.2001 28.5621C2.70017 28.5621 2.26691 28.1622 2.26691 27.6623C2.26691 27.1624 2.66685 26.7624 3.2001 26.7624C3.73334 26.7624 4.13328 27.1624 4.13328 27.6623C4.09995 28.1622 3.70002 28.5621 3.2001 28.5621ZM24.0301 22.8964V22.3964C23.9968 22.1965 23.9635 21.9965 23.8968 21.7965V21.7632C24.83 21.23 26.6964 20.3634 27.7295 19.9635C28.2295 19.7635 28.7294 19.7635 29.196 20.0968C28.8294 20.2301 28.4961 20.3968 28.1628 20.5634C27.0963 21.0967 25.2299 22.1298 24.2967 22.7631C24.2301 22.7631 24.1301 22.8297 24.0301 22.8958V22.8964ZM22.6637 20.2301C23.2969 19.8968 24.6967 19.4636 25.2966 19.197C25.7965 18.997 26.2964 18.997 26.763 19.2969C26.0298 19.6302 24.63 20.1301 23.9635 20.4967L23.4969 20.73C23.4635 20.7634 23.4302 20.7967 23.3636 20.7967C23.1636 20.6301 22.9303 20.3962 22.6637 20.2301ZM20.564 10.365C20.8973 10.6983 20.864 11.2649 20.564 11.5982C20.2307 11.9314 19.6641 11.8981 19.3309 11.5982C18.9976 11.2649 19.0309 10.6983 19.3309 10.365C19.6975 10.0317 20.2307 10.0317 20.564 10.365ZM13.8984 8.03206C13.5651 7.69878 13.5984 7.1322 13.8984 6.79892C14.2317 6.46564 14.7983 6.49897 15.1315 6.79892C15.4648 7.1322 15.4315 7.69878 15.1315 8.03206C14.7649 8.36534 14.1984 8.36534 13.8984 8.03206ZM8.76588 12.2314C8.46593 12.898 8.86586 13.6978 9.56575 13.8978L10.0323 14.0311C10.5323 14.1644 10.8989 14.631 10.9322 15.1643L10.9655 15.6309C10.9989 16.2974 11.5321 16.7973 12.1987 16.7973C12.2653 16.7973 12.332 16.7973 12.3986 16.764L12.8652 16.6973C12.9319 16.6973 12.9985 16.664 13.0652 16.664C13.4985 16.664 13.9317 16.8973 14.1317 17.2973L14.365 17.7305C14.5983 18.1305 14.9982 18.3638 15.4315 18.3638C15.6648 18.3638 15.9314 18.2971 16.1314 18.1305L16.5313 17.8638C16.7313 17.6972 16.9979 17.6305 17.2312 17.6305C17.4978 17.6305 17.7311 17.6972 17.9311 17.8638L18.331 18.1305C18.5643 18.2971 18.7976 18.3638 19.0309 18.3638C19.4642 18.3638 19.8641 18.1305 20.0974 17.7305L20.3307 17.2973C20.564 16.8973 20.9639 16.664 21.3972 16.664C21.4639 16.664 21.5305 16.664 21.5972 16.6973L22.0638 16.7973C22.1304 16.7973 22.1971 16.8307 22.2971 16.8307C22.9303 16.8307 23.4969 16.3307 23.5302 15.6642L23.5635 15.1976C23.5969 14.6643 23.9635 14.2311 24.4634 14.0978L24.93 13.9644C25.6299 13.7645 25.9965 12.9979 25.7299 12.3314L25.5299 11.8981C25.3299 11.3982 25.4632 10.8649 25.8632 10.4983L26.2298 10.1651C26.7964 9.66513 26.7964 8.83193 26.2298 8.33201L25.8632 7.99873C25.4632 7.66545 25.3299 7.09887 25.5632 6.59895L25.7632 6.16569C26.0631 5.49913 25.6632 4.69925 24.9633 4.49929L24.4967 4.36597C23.9968 4.23266 23.6302 3.76607 23.5969 3.23282L23.5635 2.76623C23.5302 2.09967 22.997 1.59975 22.3304 1.59975C22.2637 1.59975 22.1971 1.59975 22.1304 1.63307L21.6638 1.69973C21.5972 1.69973 21.5305 1.73306 21.4639 1.73306C21.0306 1.73306 20.5973 1.49976 20.3974 1.09983L20.1629 0.667156C19.9296 0.233891 19.4963 0.000595144 19.0964 0.000595144C18.8631 0.000595144 18.5965 0.0672512 18.3965 0.233891L17.9966 0.500516C17.7966 0.667156 17.53 0.733812 17.2967 0.733812C17.03 0.733812 16.7967 0.667156 16.5968 0.500516L16.1968 0.233891C15.932 0.0666561 15.6987 0 15.4654 0C15.0321 0 14.6322 0.233296 14.3989 0.633233L14.1656 1.0665C13.9323 1.46643 13.5324 1.69973 13.0991 1.69973C13.0325 1.69973 12.9658 1.69973 12.8992 1.6664L12.4326 1.56642C12.3659 1.56642 12.2992 1.53309 12.1993 1.53309C11.566 1.53309 10.9995 2.03301 10.9661 2.69957L10.9328 3.16616C10.8995 3.69941 10.5329 4.13268 10.0329 4.26599L9.56635 4.3993C8.86646 4.59927 8.49985 5.36581 8.76647 6.03238L8.96644 6.46564C9.16641 6.96556 9.0331 7.49881 8.63316 7.86542L8.26655 8.1987C7.69998 8.69862 7.69998 9.53182 8.26655 10.0317L8.63316 10.365C9.0331 10.6983 9.16641 11.2649 8.93311 11.7648L8.76707 12.2308L8.76588 12.2314ZM22.0638 10.9983C22.0638 12.1314 21.0973 13.0646 19.9641 13.0313C18.8309 13.0313 17.8978 12.0648 17.9311 10.9316C17.9311 9.79844 18.8976 8.86526 20.0308 8.89859C21.1306 8.89859 22.0638 9.8651 22.0638 10.9983ZM19.8641 5.13252L20.7973 5.93239L14.6316 13.2312L13.6984 12.4314L19.8641 5.13252ZM14.5316 5.36582C15.6648 5.36582 16.598 6.33233 16.5646 7.46548C16.5313 8.59864 15.5981 9.53182 14.465 9.49849C13.3318 9.49849 12.3986 8.53198 12.432 7.39883C12.432 6.26567 13.3985 5.33249 14.5316 5.36582Z" fill="url(#paint0_linear_356_1583)"/>
<defs>
<linearGradient id="paint0_linear_356_1583" x1="17.5" y1="-1.5" x2="17.5" y2="32.4999" gradientUnits="userSpaceOnUse">
<stop stop-color="#F6D365"/>
<stop offset="1" stop-color="#FDA085"/>
</linearGradient>
</defs>
</svg>
