<svg width="30" height="30" viewBox="0 0 30 30" fill="none" xmlns="http://www.w3.org/2000/svg">
<path fill-rule="evenodd" clip-rule="evenodd" d="M30 15.0158C30 15.4259 29.8421 15.8044 29.5579 16.0883L27.3158 18.2965V18.3281L28.1368 21.388C28.3579 22.2082 27.8842 23.0284 27.0632 23.2492L24.0316 24.0694L23.1789 27.0978C22.9579 27.918 22.1368 28.3912 21.3158 28.1703L18.2842 27.3502L16.0421 29.5584C15.7579 29.8423 15.3789 30 14.9684 30C14.5579 30 14.1789 29.8423 13.8947 29.5584L11.6842 27.3502L8.62105 28.1388C7.8 28.3596 6.97895 27.8864 6.75789 27.0662L5.93684 24.0379L2.90526 23.1861C2.08421 22.9653 1.61053 22.1451 1.83158 21.3249L2.65263 18.2965L0.442105 16.0568C0.157895 15.7729 0 15.3943 0 14.9842C0 14.5741 0.157895 14.1956 0.442105 13.9117L2.65263 11.7035L1.86316 8.64353C1.64211 7.82334 2.11579 7.00315 2.93684 6.78233L5.96842 5.9306L6.82105 2.90221C7.04211 2.08202 7.86316 1.60883 8.68421 1.82965L11.7158 2.64984L13.9579 0.44164C14.2421 0.157729 14.6211 0 15.0316 0C15.4421 0 15.8211 0.157729 16.1053 0.44164L18.3158 2.64984L21.3789 1.8612C21.7579 1.76656 22.1684 1.82965 22.5158 2.01893C22.8632 2.2082 23.1158 2.55521 23.2105 2.93375L24.0632 5.96215L27.0947 6.81388C27.9158 7.0347 28.3895 7.85489 28.1684 8.67508L27.3474 11.7035L29.5579 13.9432C29.8421 14.2271 30 14.6057 30 15.0158ZM5.11579 14.9842C5.11579 20.4416 9.53684 24.858 15 24.858C20.4632 24.858 24.8842 20.4416 24.8842 14.9842C24.8842 9.52681 20.4632 5.11041 15 5.11041C9.53684 5.11041 5.11579 9.52681 5.11579 14.9842ZM6.66321 14.9842C6.66321 10.4101 10.3895 6.65616 15 6.65616C19.6106 6.65616 23.3369 10.4101 23.3369 14.9842C23.3369 19.5584 19.6106 23.3123 15 23.3123C10.3895 23.3123 6.66321 19.5584 6.66321 14.9842ZM13.6422 12.1136C13.6422 11.2618 12.9474 10.5994 12.1264 10.5994C11.2737 10.5994 10.6106 11.2618 10.6106 12.1136C10.6106 12.9653 11.2737 13.6278 12.1264 13.6278C12.979 13.6278 13.6422 12.9653 13.6422 12.1136ZM11.5264 19.2114C11.7158 19.2114 11.9053 19.1483 12.0632 18.9905L19.0106 12.0505C19.2948 11.7666 19.2948 11.2618 19.0106 10.9779C18.7264 10.694 18.2211 10.694 17.9369 10.9779L10.9895 17.918C10.7053 18.2019 10.7053 18.7066 10.9895 18.9905C11.1474 19.1483 11.3369 19.2114 11.5264 19.2114ZM16.3579 17.8549C16.3579 18.7066 17.0527 19.3691 17.8737 19.3691C18.7264 19.3691 19.3895 18.7066 19.3895 17.8549C19.3895 17.0032 18.7264 16.3407 17.8737 16.3407C17.0211 16.3407 16.3579 17.0032 16.3579 17.8549Z" fill="url(#paint0_linear_356_1591)"/>
<defs>
<linearGradient id="paint0_linear_356_1591" x1="15" y1="31" x2="15" y2="0" gradientUnits="userSpaceOnUse">
<stop stop-color="#6BA3FF"/>
<stop offset="1" stop-color="#A2DFFB"/>
</linearGradient>
</defs>
</svg>
