<svg width="40" height="40" viewBox="0 0 40 40" fill="none" xmlns="http://www.w3.org/2000/svg">
<rect width="40" height="40" rx="20" fill="#E6F2FF"/>
<path d="M11 25H10" stroke="#89B05F" stroke-width="1.5" stroke-miterlimit="10" stroke-linecap="round"/>
<path d="M13.7071 29.2929L13 30" stroke="#89B05F" stroke-width="1.5" stroke-miterlimit="10" stroke-linecap="round"/>
<path d="M26.1213 29.1213L26.8284 29.8284" stroke="#89B05F" stroke-width="1.5" stroke-miterlimit="10" stroke-linecap="round"/>
<path d="M20 31V32" stroke="#89B05F" stroke-width="1.5" stroke-miterlimit="10" stroke-linecap="round"/>
<path d="M30 25H29" stroke="#89B05F" stroke-width="1.5" stroke-miterlimit="10" stroke-linecap="round"/>
<path d="M20.1219 27.7366C23.5029 27.7366 26.2437 24.9935 26.2437 21.6098C26.2437 18.2261 23.5029 15.483 20.1219 15.483C16.7409 15.483 14 18.2261 14 21.6098C14 24.9935 16.7409 27.7366 20.1219 27.7366Z" stroke="#89B05F" stroke-width="1.5" stroke-miterlimit="10"/>
<path d="M17.697 15.8399C17.5045 15.4693 17.3994 15.0596 17.3897 14.6421C17.3799 14.2245 17.4655 13.8103 17.6404 13.4311C17.8153 13.0519 18.0749 12.7179 18.3987 12.4545C18.7226 12.1911 19.1024 12.0054 19.5091 11.9116C19.9157 11.8179 20.3385 11.8185 20.7448 11.9135C21.1512 12.0085 21.5304 12.1953 21.8534 12.4596C22.1765 12.724 22.4348 13.0589 22.6086 13.4386C22.7823 13.8183 22.8668 14.2328 22.8558 14.6503C22.8546 15.1254 22.732 15.5923 22.4995 16.0065" stroke="#89B05F" stroke-width="1.5" stroke-miterlimit="10"/>
<path d="M20.1221 8V11.8783" stroke="#89B05F" stroke-width="1.5" stroke-miterlimit="10" stroke-linecap="round"/>
</svg>
