<?xml version="1.0" encoding="iso-8859-1"?>
<!-- Uploaded to: SVG Repo, www.svgrepo.com, Generator: SVG Repo Mixer Tools -->
<svg fill="#89B05F" height="800px" width="800px" version="1.1" id="Layer_1" xmlns="http://www.w3.org/2000/svg" xmlns:xlink="http://www.w3.org/1999/xlink" 
	 viewBox="0 0 512 512" xml:space="preserve">
<g>
	<g>
		<path d="M105.739,100.174v311.652h133.565V100.174H105.739z M189.217,166.957h-33.391c-9.217,0-16.696-7.473-16.696-16.696
			s7.479-16.696,16.696-16.696h33.391c9.217,0,16.696,7.473,16.696,16.696C205.913,159.484,198.435,166.957,189.217,166.957z"/>
	</g>
</g>
<g>
	<g>
		<path d="M272.696,100.174v311.652h133.565V100.174H272.696z M356.174,166.957h-33.391c-9.217,0-16.696-7.473-16.696-16.696
			s7.479-16.696,16.696-16.696h33.391c9.217,0,16.696,7.473,16.696,16.696C372.87,159.484,365.391,166.957,356.174,166.957z"/>
	</g>
</g>
<g>
	<g>
		<path d="M449.391,0H62.609C31.152,0,5.565,25.587,5.565,57.044v397.913C5.565,486.413,31.152,512,62.609,512h386.783
			c31.457,0,57.043-25.587,57.043-57.043V57.044C506.435,25.587,480.848,0,449.391,0z M439.652,428.522
			c0,9.223-7.479,16.696-16.696,16.696c-120.83,0-213.083,0-333.913,0c-9.217,0-16.696-7.473-16.696-16.696V83.478
			c0-9.223,7.479-16.696,16.696-16.696c120.83,0,213.083,0,333.913,0c9.217,0,16.696,7.473,16.696,16.696V428.522z"/>
	</g>
</g>
</svg>