<svg width="24" height="22" viewBox="0 0 24 22" fill="none" xmlns="http://www.w3.org/2000/svg">
<path d="M23.6571 9.24509L23.6331 9.22609L12.6331 0.226092C12.4545 0.0800359 12.2308 0.000244141 12.0001 0.000244141C11.7694 0.000244141 11.5457 0.0800359 11.3671 0.226092L0.367099 9.22609C0.166425 9.39541 0.0403921 9.63686 0.0162144 9.8983C-0.00796332 10.1597 0.0716538 10.4202 0.237875 10.6235C0.404096 10.8267 0.643583 10.9564 0.904628 10.9846C1.16567 11.0128 1.42733 10.9372 1.6331 10.7741L3.0001 9.65609V21.0001C3.0001 21.2653 3.10546 21.5197 3.29299 21.7072C3.48053 21.8947 3.73488 22.0001 4.0001 22.0001H20.0001C20.2653 22.0001 20.5197 21.8947 20.7072 21.7072C20.8947 21.5197 21.0001 21.2653 21.0001 21.0001V9.65609L22.3671 10.7741C22.5699 10.9452 22.8323 11.0287 23.0966 11.0063C23.3609 10.9838 23.6055 10.8574 23.7766 10.6546C23.9477 10.4518 24.0312 10.1894 24.0088 9.92509C23.9864 9.66076 23.8599 9.41616 23.6571 9.24509ZM16.2001 13.7311L12.0001 18.0001L7.8001 13.7311C7.28706 13.2077 6.9997 12.504 6.9997 11.7711C6.9997 11.0382 7.28706 10.3345 7.8001 9.81109C8.08392 9.52131 8.42938 9.2992 8.81082 9.16126C9.19226 9.02331 9.59988 8.97308 10.0034 9.0143C10.4069 9.05552 10.796 9.18712 11.1416 9.39933C11.4873 9.61154 11.7807 9.89891 12.0001 10.2401C12.2195 9.89891 12.5129 9.61154 12.8586 9.39933C13.2042 9.18712 13.5933 9.05552 13.9968 9.0143C14.4003 8.97308 14.8079 9.02331 15.1894 9.16126C15.5708 9.2992 15.9163 9.52131 16.2001 9.81109C16.7131 10.3345 17.0005 11.0382 17.0005 11.7711C17.0005 12.504 16.7131 13.2077 16.2001 13.7311Z" fill="currentColor"/>
</svg>
