<svg width="24" height="24" viewBox="0 0 24 24" fill="none" xmlns="http://www.w3.org/2000/svg">
<path d="M13 2C13 1.448 12.552 1 12 1C11.448 1 11 1.448 11 2V7H13V2Z" fill="#000"/>
<path d="M18 9H6C2.691 9 0 11.691 0 15C0 18.309 2.691 21 6 21C8.155 21 10.127 19.842 11.191 18H12.808C13.872 19.842 15.844 21 17.999 21C21.308 21 23.999 18.309 23.999 15C23.999 11.691 21.309 9 18 9ZM9 16H7V18H5V16H3V14H5V12H7V14H9V16ZM17 18C16.448 18 16 17.552 16 17C16 16.448 16.448 16 17 16C17.552 16 18 16.448 18 17C18 17.552 17.552 18 17 18ZM20 15C19.448 15 19 14.552 19 14C19 13.448 19.448 13 20 13C20.552 13 21 13.448 21 14C21 14.552 20.552 15 20 15Z" fill="#000"/>
</svg>
