<svg width="24" height="24" viewBox="0 0 24 24" fill="none" xmlns="http://www.w3.org/2000/svg">
<path d="M14.952 17.366L20 22.414L21.414 21L16.8 16.39C16.2116 16.765 15.5935 17.0914 14.952 17.366Z" fill="#000"/>
<path d="M22.9801 2.8C22.9445 2.62265 22.8615 2.45827 22.7399 2.32437C22.6183 2.19047 22.4626 2.09206 22.2895 2.03962C22.1164 1.98718 21.9323 1.98268 21.7568 2.0266C21.5813 2.07051 21.4211 2.1612 21.2931 2.289L12.0001 11.586L10.4141 10L11.7071 8.707C11.8945 8.51947 11.9998 8.26516 11.9998 8C11.9998 7.73483 11.8945 7.48053 11.7071 7.293L6.00006 1.586L4.58606 3L9.58606 8L9.00006 8.586L4.00006 3.586L2.58606 5L7.58606 10L7.00006 10.586L2.00006 5.586L0.58606 7L6.29306 12.707C6.48059 12.8945 6.7349 12.9998 7.00006 12.9998C7.26522 12.9998 7.51953 12.8945 7.70706 12.707L9.00006 11.414L10.5861 13L2.29306 21.293L3.70706 22.707L10.2621 16.152C12.0001 16.312 14.7451 16.252 19.0001 12C23.3291 7.672 23.0261 3.029 22.9801 2.8Z" fill="#000"/>
</svg>
