<svg width="24" height="24" viewBox="0 0 24 24" fill="none" xmlns="http://www.w3.org/2000/svg">
<!-- <g clip-path="url(#clip0_229_208)"> -->
<path d="M21 21H17V19H20V5H17V3H21C21.2652 3 21.5196 3.10536 21.7071 3.29289C21.8946 3.48043 22 3.73478 22 4V20C22 20.2652 21.8946 20.5196 21.7071 20.7071C21.5196 20.8946 21.2652 21 21 21Z" fill="#000"/>
<path d="M14.641 0.232C14.5291 0.137065 14.3974 0.0684611 14.2555 0.0312493C14.1135 -0.00596252 13.9651 -0.010832 13.821 0.0170002L2.821 2.017C2.59076 2.05889 2.3825 2.1802 2.23248 2.35982C2.08247 2.53944 2.0002 2.76598 2 3V20C1.99996 20.2194 2.07208 20.4328 2.20527 20.6072C2.33845 20.7816 2.5253 20.9073 2.737 20.965L13.737 23.965C13.8228 23.988 13.9112 23.9997 14 24C14.2652 24 14.5196 23.8946 14.7071 23.7071C14.8946 23.5196 15 23.2652 15 23V1C15.0001 0.853506 14.9679 0.708786 14.9059 0.576075C14.8439 0.443364 14.7534 0.325903 14.641 0.232ZM12 15C12 15.2652 11.8946 15.5196 11.7071 15.7071C11.5196 15.8946 11.2652 16 11 16C10.7348 16 10.4804 15.8946 10.2929 15.7071C10.1054 15.5196 10 15.2652 10 15V13C10 12.7348 10.1054 12.4804 10.2929 12.2929C10.4804 12.1054 10.7348 12 11 12C11.2652 12 11.5196 12.1054 11.7071 12.2929C11.8946 12.4804 12 12.7348 12 13V15Z" fill="#000"/>
<!-- </g> -->
<defs>
<!-- <clipPath id="clip0_229_208"> -->
<rect width="24" height="24" fill="#000"/>
<!-- </clipPath> -->
</defs>
</svg>
