<svg width="24" height="24" viewBox="0 0 24 24" fill="none" xmlns="http://www.w3.org/2000/svg">
    <!-- <g clip-path="url(#clip0_185_115)"> -->
    <path
        d="M12 0C9.62663 0 7.30655 0.703788 5.33316 2.02236C3.35977 3.34094 1.8217 5.21509 0.913451 7.4078C0.00519943 9.60051 -0.232441 12.0133 0.230582 14.3411C0.693605 16.6689 1.83649 18.8071 3.51472 20.4853C5.19295 22.1635 7.33115 23.3064 9.65892 23.7694C11.9867 24.2324 14.3995 23.9948 16.5922 23.0866C18.7849 22.1783 20.6591 20.6402 21.9776 18.6668C23.2962 16.6935 24 14.3734 24 12C23.9966 8.81846 22.7312 5.76821 20.4815 3.51852C18.2318 1.26883 15.1815 0.00344108 12 0V0ZM11 4H13V12H11V4ZM12 19C10.6487 19 9.32626 18.6088 8.19237 17.8737C7.05848 17.1386 6.16159 16.0911 5.60997 14.8574C5.05835 13.6238 4.87559 12.2569 5.08374 10.9218C5.29189 9.58656 5.88206 8.34016 6.78301 7.333L7.45001 6.588L8.94001 7.922L8.27301 8.667C7.62915 9.3863 7.20728 10.2766 7.05836 11.2304C6.90943 12.1843 7.03981 13.1608 7.43376 14.0421C7.8277 14.9235 8.46836 15.6719 9.27838 16.1971C10.0884 16.7223 11.0331 17.0018 11.9985 17.0018C12.9639 17.0018 13.9086 16.7223 14.7186 16.1971C15.5286 15.6719 16.1693 14.9235 16.5633 14.0421C16.9572 13.1608 17.0876 12.1843 16.9387 11.2304C16.7897 10.2766 16.3679 9.3863 15.724 8.667L15.057 7.923L16.546 6.588L17.213 7.333C18.1137 8.3399 18.7038 9.58594 18.9121 10.9208C19.1204 12.2556 18.938 13.6222 18.3869 14.8556C17.8357 16.0891 16.9395 17.1367 15.8062 17.8721C14.6729 18.6075 13.351 18.9992 12 19Z"
        fill="currentColor" />
    <!-- </g> -->
    <defs>
        <!-- <clipPath id="clip0_185_115"> -->
        <rect width="24" height="24" fill="#000" />
        <!-- </clipPath> -->
    </defs>
</svg>