<svg width="36" height="36" viewBox="0 0 36 36" fill="none" xmlns="http://www.w3.org/2000/svg">
<path d="M21.7105 0C24.2578 0 26.4474 2.03543 26.4474 4.73684V24.7292C27.4821 25.816 28.3421 27.343 28.3421 29.3684C28.3421 33.0309 25.373 36 21.7105 36C18.048 36 15.0789 33.0309 15.0789 29.3684C15.0789 27.7353 15.7192 26.0197 16.9737 24.7292V4.73684C16.9737 2.08321 19.1633 0 21.7105 0ZM21.7105 1.89474C20.1969 1.89474 18.8684 3.11801 18.8684 4.74322V25.555C17.61 26.535 16.9737 28.0019 16.9737 29.3684C16.9737 31.9845 19.0944 34.1053 21.7105 34.1053C24.3266 34.1053 26.4474 31.9845 26.4474 29.3684C26.4474 28.0827 25.903 26.6014 24.5526 25.5789V4.73684C24.5526 3.16719 23.2802 1.89474 21.7105 1.89474ZM21.7105 11.3684C22.1964 11.3684 22.6579 11.7384 22.6587 12.3222V26.6883C23.7622 27.0787 24.5526 28.1313 24.5526 29.3684C24.5526 30.9381 23.2802 32.2105 21.7105 32.2105C20.1409 32.2105 18.8684 30.9381 18.8684 29.3684C18.8684 28.1309 19.6593 27.0781 20.7632 26.688L20.7632 12.3158C20.7632 11.7926 21.1873 11.3684 21.7105 11.3684ZM21.7105 28.4211C21.1873 28.4211 20.7632 28.8452 20.7632 29.3684C20.7632 29.8916 21.1873 30.3158 21.7105 30.3158C22.2337 30.3158 22.6579 29.8916 22.6579 29.3684C22.6579 28.8452 22.2337 28.4211 21.7105 28.4211ZM14.1316 22.7368C14.6548 22.7368 15.0789 23.161 15.0789 23.6842C15.0789 24.1701 14.7106 24.6316 14.1316 24.6316H9.39474C8.87152 24.6316 8.44737 24.2074 8.44737 23.6842C8.44737 23.1984 8.83973 22.7368 9.39474 22.7368H14.1316ZM14.1316 19.8947C14.6548 19.8947 15.0789 20.3189 15.0789 20.8421C15.0789 21.3279 14.7149 21.7895 14.1316 21.7895H13.1842C12.661 21.7895 12.2368 21.3653 12.2368 20.8421C12.2368 20.3563 12.6411 19.8947 13.1842 19.8947H14.1316ZM14.1316 16.1053C14.6548 16.1053 15.0789 16.5294 15.0789 17.0526C15.0789 17.5385 14.6822 18 14.1316 18H11.2895C10.7663 18 10.3421 17.5758 10.3421 17.0526C10.3421 16.5668 10.7439 16.1053 11.2895 16.1053H14.1316ZM14.1316 12.3158C14.6548 12.3158 15.0789 12.7399 15.0789 13.2632C15.0789 13.749 14.7041 14.2105 14.1316 14.2105H10.3421C9.81889 14.2105 9.39474 13.7864 9.39474 13.2632C9.39474 12.7773 9.77504 12.3158 10.3421 12.3222L14.1316 12.3158ZM14.1316 8.52632C14.6548 8.52632 15.0789 8.95047 15.0789 9.47368C15.0789 9.95953 14.6815 10.4211 14.1316 10.4211H12.2368C11.7136 10.4211 11.2895 9.9969 11.2895 9.47368C11.2895 8.98784 11.6588 8.52632 12.2368 8.52632H14.1316ZM14.1316 4.73684C14.6548 4.73684 15.0789 5.16099 15.0789 5.68421C15.0789 6.17005 14.7073 6.63158 14.1316 6.63158H8.44737C7.92415 6.63158 7.5 6.20743 7.5 5.68421C7.5 5.19837 7.88307 4.73684 8.44737 4.73684H14.1316Z" fill="currentColor"/>
</svg>
