<svg width="24" height="24" viewBox="0 0 24 24" fill="none" xmlns="http://www.w3.org/2000/svg">
<g clip-path="url(#clip0_229_104)">
<path d="M9.68408 4.948C9.93564 5.03192 10.2102 5.01248 10.4475 4.89396C10.6847 4.77544 10.8651 4.56754 10.9491 4.316L11.9491 1.316C12.0329 1.06404 12.0132 0.789115 11.8943 0.551694C11.7754 0.314273 11.567 0.133808 11.3151 0.0499995C11.0631 -0.0338089 10.7882 -0.0140958 10.5508 0.104802C10.3134 0.2237 10.1329 0.432044 10.0491 0.683999L9.04908 3.684C9.00775 3.80869 8.99139 3.9403 9.00093 4.07131C9.01048 4.20233 9.04574 4.33017 9.10471 4.44756C9.16368 4.56494 9.2452 4.66955 9.34461 4.75542C9.44402 4.84128 9.55937 4.90672 9.68408 4.948Z" fill="#000"/>
<path d="M22.6842 12.052L19.6842 13.052C19.5594 13.0935 19.4441 13.1592 19.3447 13.2452C19.2453 13.3313 19.1639 13.4361 19.105 13.5537C19.0461 13.6713 19.011 13.7993 19.0016 13.9304C18.9922 14.0615 19.0087 14.1932 19.0502 14.318C19.0917 14.4428 19.1574 14.5581 19.2434 14.6575C19.3295 14.7569 19.4343 14.8383 19.5519 14.8972C19.6695 14.9561 19.7975 14.9912 19.9286 15.0006C20.0597 15.01 20.1914 14.9935 20.3162 14.952L23.3162 13.952C23.441 13.9105 23.5563 13.8448 23.6557 13.7588C23.7551 13.6727 23.8365 13.5679 23.8954 13.4503C23.9543 13.3327 23.9894 13.2047 23.9988 13.0736C24.0082 12.9425 23.9917 12.8108 23.9502 12.686C23.9087 12.5612 23.843 12.4459 23.757 12.3465C23.6709 12.2471 23.5661 12.1657 23.4485 12.1068C23.3309 12.0479 23.2029 12.0128 23.0718 12.0034C22.9407 11.994 22.809 12.0105 22.6842 12.052Z" fill="#000"/>
<path d="M16 6.5C17.3807 6.5 18.5 5.38071 18.5 4C18.5 2.61929 17.3807 1.5 16 1.5C14.6193 1.5 13.5 2.61929 13.5 4C13.5 5.38071 14.6193 6.5 16 6.5Z" fill="#000"/>
<path d="M15 10C15 10.2652 15.1054 10.5196 15.2929 10.7071C15.4804 10.8946 15.7348 11 16 11C17.8559 10.9979 19.6351 10.2597 20.9474 8.94741C22.2597 7.63511 22.9979 5.85587 23 4C23 3.73478 22.8946 3.48043 22.7071 3.29289C22.5196 3.10536 22.2652 3 22 3C21.7348 3 21.4804 3.10536 21.2929 3.29289C21.1054 3.48043 21 3.73478 21 4C20.9984 5.32559 20.4711 6.59644 19.5338 7.53378C18.5964 8.47112 17.3256 8.99841 16 9C15.7348 9 15.4804 9.10536 15.2929 9.29289C15.1054 9.48043 15 9.73478 15 10Z" fill="#000"/>
<path d="M7.70711 5.293C7.58765 5.17354 7.43987 5.08629 7.27756 5.03939C7.11525 4.9925 6.94371 4.9875 6.77894 5.02484C6.61418 5.06219 6.46156 5.14067 6.33533 5.25297C6.20911 5.36526 6.11339 5.5077 6.05711 5.667L0.0571133 22.667C-0.00576051 22.845 -0.0169844 23.0371 0.0247391 23.2212C0.0664626 23.4052 0.15943 23.5738 0.292893 23.7072C0.426357 23.8407 0.594867 23.9337 0.778944 23.9754C0.963021 24.0171 1.15515 24.0059 1.33311 23.943L18.3331 17.943C18.4924 17.8867 18.6349 17.791 18.7471 17.6648C18.8594 17.5386 18.9379 17.3859 18.9753 17.2212C19.0126 17.0564 19.0076 16.8849 18.9607 16.7226C18.9138 16.5602 18.8266 16.4125 18.7071 16.293L7.70711 5.293ZM2.63911 21.361L3.84411 17.946L4.73611 20.621L2.63911 21.361ZM8.01711 19.461L5.73011 12.6L6.83011 9.485L9.93011 18.785L8.01711 19.461ZM12.9171 17.733L10.7171 11.119L14.2171 14.619L15.0001 17L12.9171 17.733Z" fill="#000"/>
</g>
<defs>
<clipPath id="clip0_229_104">
<rect width="24" height="24" fill="#000"/>
</clipPath>
</defs>
</svg>
