<svg width="24" height="24" viewBox="0 0 24 24" fill="none" xmlns="http://www.w3.org/2000/svg">
<path d="M23.2261 16.4608L17.6864 14.2279C17.4934 14.1501 17.2841 14.1224 17.0775 14.1471L13.021 14.6331L11.6616 12.0322C11.3706 12.1055 11.0592 12.084 10.7787 11.9633L7.00322 10.3322L10.9325 10.9016C11.2668 10.9501 11.6124 10.8317 11.8472 10.5696L14.5919 7.5055C14.9713 7.08196 14.9355 6.43099 14.5119 6.05157C14.0884 5.6721 13.4375 5.7079 13.0579 6.13149L10.6815 8.78451L7.29853 8.29417L9.56506 8.02101L9.40285 7.71068C9.01009 6.95922 8.08255 6.66846 7.33114 7.06123L5.01599 8.27125C4.63662 8.46952 4.35723 8.81722 4.24532 9.2304C4.13336 9.64358 4.19905 10.0848 4.42647 10.4474L8.46406 16.8864C8.76958 17.3736 9.30984 17.5663 9.8924 17.4967L17.0565 16.6384L22.3021 18.7528C22.935 19.0079 23.655 18.7017 23.9101 18.0688C24.1652 17.4358 23.859 16.716 23.2261 16.4608Z" fill="currentColor"/>
<path d="M5.891 6.02152C7.14612 6.02152 8.1636 5.00404 8.1636 3.74892C8.1636 2.4938 7.14612 1.47632 5.891 1.47632C4.63588 1.47632 3.61841 2.4938 3.61841 3.74892C3.61841 5.00404 4.63588 6.02152 5.891 6.02152Z" fill="currentColor"/>
<path d="M15.1197 5.16281L16.3388 2.69283C16.4038 2.56109 16.4076 2.40742 16.349 2.27269C16.2904 2.13796 16.1755 2.03579 16.0349 1.99345L14.0558 1.39765C13.9257 1.3585 13.7852 1.37405 13.6668 1.44068C13.5483 1.50731 13.4622 1.61942 13.4282 1.75101L12.551 5.14632C13.3012 4.57355 14.3604 4.5679 15.1197 5.16281Z" fill="currentColor"/>
<path d="M23.1492 21.0106L17.332 18.0641C17.2126 18.0037 17.0807 17.9722 16.9469 17.9722H7.96445L1.57533 7.74086C1.32608 7.3416 0.800267 7.21996 0.400957 7.46937C0.0016994 7.71872 -0.119837 8.24449 0.129516 8.64374L6.22311 18.4019L0.930701 21.0063C0.508361 21.2141 0.334484 21.725 0.542278 22.1473C0.750124 22.5697 1.26108 22.7435 1.68336 22.5357L7.49301 19.6768H16.7434L22.379 22.5313C22.7992 22.7442 23.3118 22.5757 23.5244 22.1561C23.7371 21.7362 23.5691 21.2233 23.1492 21.0106Z" fill="currentColor"/>
</svg>
