<svg width="24" height="24" viewBox="0 0 24 24" fill="none" xmlns="http://www.w3.org/2000/svg">
<g clip-path="url(#clip0_229_220)">
<path d="M23 20H1C0.734784 20 0.48043 19.8946 0.292893 19.7071C0.105357 19.5196 0 19.2652 0 19C0 18.7348 0.105357 18.4804 0.292893 18.2929C0.48043 18.1054 0.734784 18 1 18H23C23.2652 18 23.5196 18.1054 23.7071 18.2929C23.8946 18.4804 24 18.7348 24 19C24 19.2652 23.8946 19.5196 23.7071 19.7071C23.5196 19.8946 23.2652 20 23 20Z" fill="#000"/>
<path d="M9.464 15.535C8.52634 14.5973 7.99957 13.3256 7.99957 11.9995C7.99957 10.6734 8.52634 9.40168 9.464 8.464C10.5237 7.51824 11.6999 6.71172 12.964 6.064C12.641 6.039 12.324 6 12 6C6.486 6 2 10.037 2 15V16H10.03C9.8302 15.8591 9.64102 15.7037 9.464 15.535Z" fill="#000"/>
<path d="M19.986 9.59204C19.7865 10.2242 19.537 10.8394 19.24 11.432C18.5371 12.9188 17.6281 14.299 16.54 15.532C16.3618 15.7019 16.1713 15.8584 15.97 16H22V15C21.985 13.0167 21.272 11.102 19.986 9.59204Z" fill="#000"/>
<path d="M22 3.00002C22.0007 2.65314 21.9112 2.31204 21.7403 2.01021C21.5693 1.70839 21.3228 1.45621 21.025 1.27844C20.7271 1.10068 20.3881 1.00344 20.0413 0.996276C19.6945 0.989113 19.3518 1.07227 19.0469 1.23758C18.7419 1.4029 18.4852 1.64468 18.3019 1.93919C18.1187 2.2337 18.0151 2.57082 18.0015 2.91743C17.9879 3.26404 18.0647 3.60822 18.2243 3.91619C18.384 4.22416 18.6209 4.48532 18.912 4.67402L16.832 6.75402C14.959 6.98002 11.802 8.95402 10.879 9.87902C10.3325 10.4448 10.0301 11.2026 10.037 11.9892C10.0438 12.7758 10.3593 13.5282 10.9155 14.0845C11.4718 14.6407 12.2242 14.9562 13.0108 14.963C13.7974 14.9699 14.5552 14.6675 15.121 14.121C16.045 13.198 18.021 10.041 18.246 8.16802L20.326 6.08802C20.5147 6.37908 20.7759 6.61605 21.0838 6.77567C21.3918 6.9353 21.736 7.01208 22.0826 6.99847C22.4292 6.98487 22.7663 6.88136 23.0608 6.69809C23.3553 6.51483 23.5971 6.25812 23.7624 5.95317C23.9277 5.64822 24.0109 5.30551 24.0037 4.95871C23.9966 4.61191 23.8993 4.27293 23.7216 3.97507C23.5438 3.6772 23.2916 3.4307 22.9898 3.25975C22.688 3.0888 22.3469 2.99929 22 3.00002Z" fill="#000"/>
</g>
<defs>
<clipPath id="clip0_229_220">
<rect width="24" height="24" fill="#000"/>
</clipPath>
</defs>
</svg>
