<svg width="24" height="24" viewBox="0 0 24 24" fill="none" xmlns="http://www.w3.org/2000/svg">
<path d="M3 24C4.65685 24 6 22.6569 6 21C6 19.3431 4.65685 18 3 18C1.34315 18 0 19.3431 0 21C0 22.6569 1.34315 24 3 24Z" fill="#000"/>
<path d="M19 6C18.4 2.6 15.5 0 12 0C9.7 0 7.6 1.1 6.3 3C6.2 3 6.1 3 6 3C2.7 3 0 5.7 0 9C0 11.7 1.8 14 4.4 14.8C5.4 17.9 8.3 20 11.5 20C14.3 20 16.9 18.4 18.2 15.9C18.5 15.9 18.8 16 19 16C21.8 16 24 13.8 24 11C24 8.2 21.8 6 19 6ZM14 13H10C9.6 13 9.3 12.8 9.1 12.5C8.9 12.2 8.9 11.8 9.1 11.5L11.2 8H10C9.4 8 9 7.6 9 7C9 6.4 9.4 6 10 6H13C13.4 6 13.7 6.2 13.9 6.5C14.1 6.8 14.1 7.2 13.9 7.5L11.8 11H14C14.6 11 15 11.4 15 12C15 12.6 14.6 13 14 13Z" fill="#000"/>
</svg>
