<svg width="24" height="24" viewBox="0 0 24 24" fill="none" xmlns="http://www.w3.org/2000/svg">
<g clip-path="url(#clip0_229_243)">
<path d="M3.32392 12.314C3.54924 12.1131 3.84056 12.0021 4.14242 12.0021C4.44428 12.0021 4.7356 12.1131 4.96092 12.314L5.94592 13.164C6.53469 13.6785 7.29005 13.962 8.07192 13.962C8.8538 13.962 9.60916 13.6785 10.1979 13.164L11.1809 12.314C11.4064 12.1131 11.6979 12.002 11.9999 12.002C12.302 12.002 12.5934 12.1131 12.8189 12.314L13.8029 13.164C14.3917 13.6785 15.147 13.962 15.9289 13.962C16.7108 13.962 17.4662 13.6785 18.0549 13.164L19.0379 12.314C19.2634 12.1131 19.5549 12.002 19.8569 12.002C20.159 12.002 20.4504 12.1131 20.6759 12.314L22.3469 13.757L23.6529 12.243L21.9829 10.8C21.3943 10.2851 20.6389 10.0013 19.8569 10.0013C19.0749 10.0013 18.3195 10.2851 17.7309 10.8L16.7479 11.649C16.5224 11.8499 16.231 11.961 15.9289 11.961C15.6269 11.961 15.3354 11.8499 15.1099 11.649L14.1259 10.8C13.5373 10.2851 12.7819 10.0013 11.9999 10.0013C11.2179 10.0013 10.4625 10.2851 9.87392 10.8L8.89092 11.649C8.66544 11.8499 8.37395 11.961 8.07192 11.961C7.7699 11.961 7.47841 11.8499 7.25292 11.649L6.26892 10.8C5.68035 10.2851 4.92492 10.0013 4.14292 10.0013C3.36093 10.0013 2.6055 10.2851 2.01692 10.8L0.346924 12.243L1.65292 13.757L3.32392 12.314Z" fill="#000"/>
<path d="M23 16H1C0.734784 16 0.48043 16.1054 0.292893 16.2929C0.105357 16.4804 0 16.7348 0 17L0 18C0 18.7956 0.31607 19.5587 0.87868 20.1213C1.44129 20.6839 2.20435 21 3 21H21C21.7956 21 22.5587 20.6839 23.1213 20.1213C23.6839 19.5587 24 18.7956 24 18V17C24 16.7348 23.8946 16.4804 23.7071 16.2929C23.5196 16.1054 23.2652 16 23 16Z" fill="#000"/>
<path d="M21 3H3C2.20435 3 1.44129 3.31607 0.87868 3.87868C0.31607 4.44129 0 5.20435 0 6L0 7C0 7.26522 0.105357 7.51957 0.292893 7.70711C0.48043 7.89464 0.734784 8 1 8H23C23.2652 8 23.5196 7.89464 23.7071 7.70711C23.8946 7.51957 24 7.26522 24 7V6C24 5.20435 23.6839 4.44129 23.1213 3.87868C22.5587 3.31607 21.7956 3 21 3Z" fill="#000"/>
</g>
<defs>
<clipPath id="clip0_229_243">
<rect width="24" height="24" fill="#000"/>
</clipPath>
</defs>
</svg>
