<svg width="24" height="24" viewBox="0 0 24 24" fill="none" xmlns="http://www.w3.org/2000/svg">
<path d="M12 6.5625C13.8122 6.5625 15.2812 5.09343 15.2812 3.28125C15.2812 1.46907 13.8122 0 12 0C10.1878 0 8.71875 1.46907 8.71875 3.28125C8.71875 5.09343 10.1878 6.5625 12 6.5625Z" fill="currentColor"/>
<path d="M22.5938 11.4844H20.2074L17.8614 8.25865C17.247 7.41391 16.3697 6.80749 15.387 6.5186C14.533 7.41171 13.3304 7.96882 12 7.96882C10.6696 7.96882 9.46702 7.41171 8.613 6.51855C7.63027 6.80745 6.75295 7.41387 6.13856 8.2586L3.79256 11.4844H1.40625C0.629578 11.4844 0 12.114 0 12.8907C0 13.6674 0.629578 14.2969 1.40625 14.2969H4.94133C5.69822 14.2969 6.40856 13.9314 6.84853 13.3155L7.78125 12.0097V17.1074C7.80727 17.1131 12 18.0656 12 18.0656C12 18.0656 16.1927 17.1131 16.2188 17.1074V12.0097L17.1515 13.3155C17.5914 13.9314 18.3017 14.2969 19.0587 14.2969H22.5938C23.3704 14.2969 24 13.6674 24 12.8907C24 12.114 23.3704 11.4844 22.5938 11.4844Z" fill="currentColor"/>
<path d="M15.4615 20.2943L7.54767 18.4957C6.51084 18.2601 5.44603 18.1406 4.38281 18.1406C2.76741 18.1406 1.45312 19.4549 1.45312 21.0703C1.45312 22.6858 2.76741 24 4.38281 24H15.0458C16.0802 24 16.9219 23.1584 16.9219 22.1239C16.9219 21.2421 16.3213 20.4897 15.4615 20.2943Z" fill="currentColor"/>
<path d="M19.6172 18.1406C18.5539 18.1406 17.4891 18.2601 16.4523 18.4957L15.1726 18.7866L15.7731 18.9231C17.2774 19.2649 18.3281 20.5811 18.3281 22.1239C18.3281 22.8211 18.1089 23.4678 17.7367 24H19.6172C21.2326 24 22.5468 22.6858 22.5468 21.0703C22.5468 19.4549 21.2326 18.1406 19.6172 18.1406Z" fill="currentColor"/>
</svg>
