<svg width="24" height="24" viewBox="0 0 24 24" fill="none" xmlns="http://www.w3.org/2000/svg">
<g clip-path="url(#clip0_229_190)">
<path d="M15.334 1.278C10.5919 -0.418982 5.40809 -0.418982 0.666 1.278C0.471126 1.34706 0.302446 1.47481 0.183176 1.64369C0.0639067 1.81256 -8.81677e-05 2.01426 9.11691e-08 2.221V12C9.11691e-08 14.1217 0.842855 16.1566 2.34315 17.6569C3.84344 19.1572 5.87827 20 8 20C10.1217 20 12.1566 19.1572 13.6569 17.6569C15.1571 16.1566 16 14.1217 16 12V2.221C16.0001 2.01426 15.9361 1.81256 15.8168 1.64369C15.6976 1.47481 15.5289 1.34706 15.334 1.278ZM3 8C3 7.73479 3.10536 7.48043 3.29289 7.2929C3.48043 7.10536 3.73478 7 4 7H5C5.26522 7 5.51957 7.10536 5.70711 7.2929C5.89464 7.48043 6 7.73479 6 8C6 8.26522 5.89464 8.51957 5.70711 8.70711C5.51957 8.89465 5.26522 9 5 9H4C3.73478 9 3.48043 8.89465 3.29289 8.70711C3.10536 8.51957 3 8.26522 3 8ZM8 17C7.20435 17 6.44129 16.6839 5.87868 16.1213C5.31607 15.5587 5 14.7957 5 14H11C11 14.7957 10.6839 15.5587 10.1213 16.1213C9.55871 16.6839 8.79565 17 8 17ZM12 9H11C10.7348 9 10.4804 8.89465 10.2929 8.70711C10.1054 8.51957 10 8.26522 10 8C10 7.73479 10.1054 7.48043 10.2929 7.2929C10.4804 7.10536 10.7348 7 11 7H12C12.2652 7 12.5196 7.10536 12.7071 7.2929C12.8946 7.48043 13 7.73479 13 8C13 8.26522 12.8946 8.51957 12.7071 8.70711C12.5196 8.89465 12.2652 9 12 9Z" fill="#000"/>
<path d="M23.3339 5.27301C21.6113 4.6627 19.8196 4.26869 17.9999 4.10001V12C17.9999 11.7348 18.1053 11.4804 18.2928 11.2929C18.4804 11.1054 18.7347 11 18.9999 11H19.9999C20.2651 11 20.5195 11.1054 20.707 11.2929C20.8946 11.4804 20.9999 11.7348 20.9999 12C20.9999 12.2652 20.8946 12.5196 20.707 12.7071C20.5195 12.8946 20.2651 13 19.9999 13H18.9999C18.7347 13 18.4804 12.8946 18.2928 12.7071C18.1053 12.5196 17.9999 12.2652 17.9999 12C17.9998 14.1663 17.2919 16.2732 15.9839 18H15.9999C16.7956 18 17.5586 18.3161 18.1212 18.8787C18.6839 19.4413 18.9999 20.2044 18.9999 21H14.9999H12.2759C11.6756 21.2964 11.0467 21.531 10.3989 21.7C11.5219 22.8057 12.9467 23.5548 14.4942 23.8531C16.0417 24.1513 17.6429 23.9855 19.0964 23.3763C20.5499 22.7672 21.7908 21.742 22.6633 20.4295C23.5358 19.1171 24.0008 17.576 23.9999 16V6.21501C23.9998 6.00843 23.9357 5.80696 23.8165 5.63828C23.6972 5.46961 23.5286 5.342 23.3339 5.27301Z" fill="#000"/>
</g>
<defs>
<clipPath id="clip0_229_190">
<rect width="24" height="24" fill="#000"/>
</clipPath>
</defs>
</svg>
