<svg width="24" height="24" viewBox="0 0 24 24" fill="none" xmlns="http://www.w3.org/2000/svg">
<path d="M12 4C11.7348 4 11.4804 3.89464 11.2929 3.70711C11.1054 3.51957 11 3.26522 11 3V1C11 0.734784 11.1054 0.48043 11.2929 0.292893C11.4804 0.105357 11.7348 0 12 0C12.2652 0 12.5196 0.105357 12.7071 0.292893C12.8946 0.48043 13 0.734784 13 1V3C13 3.26522 12.8946 3.51957 12.7071 3.70711C12.5196 3.89464 12.2652 4 12 4Z" fill="#000"/>
<path d="M7.99992 4.99998C7.73472 4.99992 7.48041 4.89453 7.29292 4.70698L6.29292 3.70698C6.11076 3.51838 6.00997 3.26578 6.01224 3.00358C6.01452 2.74138 6.11969 2.49057 6.3051 2.30516C6.49051 2.11975 6.74132 2.01458 7.00352 2.01231C7.26571 2.01003 7.51832 2.11082 7.70692 2.29298L8.70692 3.29298C8.84673 3.43283 8.94193 3.611 8.9805 3.80495C9.01907 3.9989 8.99927 4.19993 8.9236 4.38263C8.84793 4.56533 8.71979 4.7215 8.55538 4.83138C8.39097 4.94127 8.19767 4.99994 7.99992 4.99998Z" fill="#000"/>
<path d="M16 5.00002C15.8023 4.99998 15.609 4.94131 15.4446 4.83142C15.2802 4.72154 15.152 4.56537 15.0764 4.38267C15.0007 4.19998 14.9809 3.99894 15.0194 3.80499C15.058 3.61104 15.1532 3.43287 15.293 3.29302L16.293 2.29302C16.3853 2.19751 16.4956 2.12133 16.6176 2.06892C16.7396 2.01651 16.8709 1.98892 17.0036 1.98777C17.1364 1.98662 17.2681 2.01192 17.391 2.0622C17.5139 2.11248 17.6255 2.18673 17.7194 2.28063C17.8133 2.37452 17.8876 2.48617 17.9379 2.60907C17.9881 2.73196 18.0134 2.86364 18.0123 2.99642C18.0111 3.1292 17.9835 3.26042 17.9311 3.38242C17.8787 3.50443 17.8025 3.61477 17.707 3.70702L16.707 4.70702C16.5195 4.89457 16.2652 4.99996 16 5.00002Z" fill="#000"/>
<path d="M10 6H2C1.73478 6 1.48043 6.10536 1.29289 6.29289C1.10536 6.48043 1 6.73478 1 7V13C1.00145 14.1522 1.40009 15.2687 2.12872 16.1613C2.85735 17.0538 3.87141 17.6679 5 17.9V22H3C2.73478 22 2.48043 22.1054 2.29289 22.2929C2.10536 22.4804 2 22.7348 2 23C2 23.2652 2.10536 23.5196 2.29289 23.7071C2.48043 23.8946 2.73478 24 3 24H9C9.26522 24 9.51957 23.8946 9.70711 23.7071C9.89464 23.5196 10 23.2652 10 23C10 22.7348 9.89464 22.4804 9.70711 22.2929C9.51957 22.1054 9.26522 22 9 22H7V17.9C8.12859 17.6679 9.14265 17.0538 9.87128 16.1613C10.5999 15.2687 10.9985 14.1522 11 13V7C11 6.73478 10.8946 6.48043 10.7071 6.29289C10.5196 6.10536 10.2652 6 10 6ZM9 8V11H3V8H9Z" fill="#000"/>
<path d="M22 6H14C13.7348 6 13.4804 6.10536 13.2929 6.29289C13.1054 6.48043 13 6.73478 13 7V13C13.0015 14.1522 13.4001 15.2687 14.1287 16.1613C14.8573 17.0538 15.8714 17.6679 17 17.9V22H15C14.7348 22 14.4804 22.1054 14.2929 22.2929C14.1054 22.4804 14 22.7348 14 23C14 23.2652 14.1054 23.5196 14.2929 23.7071C14.4804 23.8946 14.7348 24 15 24H21C21.2652 24 21.5196 23.8946 21.7071 23.7071C21.8946 23.5196 22 23.2652 22 23C22 22.7348 21.8946 22.4804 21.7071 22.2929C21.5196 22.1054 21.2652 22 21 22H19V17.9C20.1286 17.6679 21.1427 17.0538 21.8713 16.1613C22.5999 15.2687 22.9985 14.1522 23 13V7C23 6.73478 22.8946 6.48043 22.7071 6.29289C22.5196 6.10536 22.2652 6 22 6ZM21 8V11H15V8H21Z" fill="#000"/>
</svg>
