<svg width="30" height="30" viewBox="0 0 30 30" fill="none" xmlns="http://www.w3.org/2000/svg">
    <path
        d="M23.1985 24.436C21.9568 21.1147 18.7545 18.75 15 18.75C11.2455 18.75 8.04325 21.1147 6.80146 24.436M23.1985 24.436C25.8339 22.1443 27.5 18.7667 27.5 15C27.5 8.09644 21.9036 2.5 15 2.5C8.09644 2.5 2.5 8.09644 2.5 15C2.5 18.7667 4.16606 22.1443 6.80146 24.436M23.1985 24.436C21.0038 26.3445 18.1368 27.5 15 27.5C11.8632 27.5 8.99617 26.3445 6.80146 24.436M18.75 11.25C18.75 13.3211 17.0711 15 15 15C12.9289 15 11.25 13.3211 11.25 11.25C11.25 9.17893 12.9289 7.5 15 7.5C17.0711 7.5 18.75 9.17893 18.75 11.25Z"
        stroke="#696969" stroke-width="1.5" stroke-linejoin="round" />
</svg>
    