<svg width="30" height="30" viewBox="0 0 30 30" fill="none" xmlns="http://www.w3.org/2000/svg">
    <path fill-rule="evenodd" clip-rule="evenodd"
        d="M27.5 15C27.5 18.7667 25.8339 22.1443 23.1985 24.436C21.0038 26.3445 18.1368 27.5 15 27.5C11.8631 27.5 8.99617 26.3445 6.80146 24.436C4.16606 22.1443 2.5 18.7667 2.5 15C2.5 8.09644 8.09644 2.5 15 2.5C21.9036 2.5 27.5 8.09644 27.5 15ZM15 23.75C17.1958 23.75 19.2027 22.9412 20.739 21.6052C20.9159 21.4514 21.0865 21.2906 21.2504 21.1233C19.8993 18.9379 17.6041 17.5 15 17.5C12.3959 17.5 10.1008 18.9379 8.74962 21.1233C8.91357 21.2906 9.08419 21.4514 9.26105 21.6052C10.7973 22.9412 12.8042 23.75 15 23.75ZM15 15C17.0711 15 18.75 13.3211 18.75 11.25C18.75 9.17893 17.0711 7.5 15 7.5C12.9289 7.5 11.25 9.17893 11.25 11.25C11.25 13.3211 12.9289 15 15 15Z"
        fill="url(#paint0_linear_22_1465)" />
    <defs>
        <linearGradient id="paint0_linear_22_1465" x1="27.486" y1="27.5" x2="2.47216" y2="27.5"
            gradientUnits="userSpaceOnUse">
            <stop stop-color="#9CC76F" />
            <stop offset="1" stop-color="#C5DA8B" />
        </linearGradient>
    </defs>
</svg>
    