<svg width="202" height="201" viewBox="0 0 202 201" fill="none" xmlns="http://www.w3.org/2000/svg">
    <path d="M201 101C201 45.7715 156.228 1 101 1C45.7715 1 1 45.7715 1 101"
        stroke="url(#paint0_linear_116_9276)" stroke-width="2" stroke-linecap="round" />
    <path d="M201 101C201 45.7715 156.228 1 101 1C45.7715 1 1 45.7715 1 101"
        stroke="url(#paint1_linear_116_9276)" stroke-width="2" stroke-linecap="round" />
    <path d="M178 101C178 59.5786 144.421 26 103 26C61.5786 26 28 59.5786 28 101"
        stroke="url(#paint2_linear_116_9276)" stroke-width="2" stroke-linecap="round" />
    <path d="M178 101C178 59.5786 144.421 26 103 26C61.5786 26 28 59.5786 28 101"
        stroke="url(#paint3_linear_116_9276)" stroke-width="2" stroke-linecap="round" />
    <path d="M153 101C153 73.3858 130.614 51 103 51C75.3858 51 53 73.3858 53 101"
        stroke="url(#paint4_linear_116_9276)" stroke-width="2" stroke-linecap="round" />
    <path d="M153 101C153 73.3858 130.614 51 103 51C75.3858 51 53 73.3858 53 101"
        stroke="url(#paint5_linear_116_9276)" stroke-width="2" stroke-linecap="round" />
    <circle cx="101" cy="101" r="25" fill="url(#paint6_linear_116_9276)" />
    <g clip-path="url(#clip0_116_9276)">
        <path
            d="M109.939 110.567C109.939 111.499 109.23 112.577 107.563 113.485C105.937 114.37 103.618 114.95 100.999 114.95C98.3796 114.95 96.0608 114.37 94.4347 113.485C92.768 112.577 92.059 111.499 92.059 110.567C92.059 109.635 92.768 108.557 94.4347 107.65C96.0608 106.765 98.3796 106.185 100.999 106.185C103.618 106.185 105.937 106.765 107.563 107.65C109.23 108.557 109.939 109.635 109.939 110.567Z"
            stroke="white" stroke-width="2.12" />
        <path
            d="M101 112.243C102.705 112.243 104.088 111.492 104.088 110.567C104.088 109.641 102.705 108.891 101 108.891C99.2938 108.891 97.9111 109.641 97.9111 110.567C97.9111 111.492 99.2938 112.243 101 112.243Z"
            fill="white" />
        <path d="M100.998 95.124L98.8311 110.567H103.166L100.998 95.124Z" fill="white" />
        <path
            d="M100.998 98.2125C101.841 98.2125 102.524 97.5211 102.524 96.6683C102.524 95.8154 101.841 95.124 100.998 95.124C100.156 95.124 99.4727 95.8154 99.4727 96.6683C99.4727 97.5211 100.156 98.2125 100.998 98.2125Z"
            fill="white" />
        <path
            d="M110.535 89.239C107.809 87.9208 104.46 87.158 100.86 87.1957C97.3346 87.2334 94.0881 88.0338 91.4648 89.3614C93.8276 87.3181 97.1486 86.0375 100.86 85.9999C104.618 85.9622 108.051 87.2051 110.535 89.239Z"
            fill="white" />
        <path
            d="M108.749 91.6785C106.535 90.605 103.809 89.9836 100.888 90.0212C98.0231 90.0495 95.3812 90.6992 93.251 91.7821C95.1673 90.1248 97.8742 89.089 100.888 89.0514C103.949 89.0231 106.739 90.0306 108.749 91.6879V91.6785Z"
            fill="white" />
        <path
            d="M106.358 94.013C104.823 93.2691 102.944 92.8454 100.925 92.8642C98.9439 92.8831 97.1207 93.335 95.6416 94.0789C96.9718 92.9301 98.8323 92.2145 100.925 92.1957C103.037 92.1769 104.972 92.8737 106.358 94.013Z"
            fill="white" />
    </g>
    <defs>
        <linearGradient id="paint0_linear_116_9276" x1="200.888" y1="101" x2="0.777289" y2="101"
            gradientUnits="userSpaceOnUse">
            <stop stop-color="#9CC76F" />
            <stop offset="1" stop-color="#C5DA8B" />
        </linearGradient>
        <linearGradient id="paint1_linear_116_9276" x1="101" y1="1" x2="101" y2="101"
            gradientUnits="userSpaceOnUse">
            <stop offset="0.249394" stop-color="white" stop-opacity="0" />
            <stop offset="1" stop-color="white" />
        </linearGradient>
        <linearGradient id="paint2_linear_116_9276" x1="177.916" y1="101" x2="27.833" y2="101"
            gradientUnits="userSpaceOnUse">
            <stop stop-color="#9CC76F" />
            <stop offset="1" stop-color="#C5DA8B" />
        </linearGradient>
        <linearGradient id="paint3_linear_116_9276" x1="103" y1="26" x2="103" y2="101"
            gradientUnits="userSpaceOnUse">
            <stop offset="0.25" stop-color="white" stop-opacity="0" />
            <stop offset="1" stop-color="white" />
        </linearGradient>
        <linearGradient id="paint4_linear_116_9276" x1="152.944" y1="101" x2="52.8886" y2="101"
            gradientUnits="userSpaceOnUse">
            <stop stop-color="#9CC76F" />
            <stop offset="1" stop-color="#C5DA8B" />
        </linearGradient>
        <linearGradient id="paint5_linear_116_9276" x1="103" y1="51" x2="103" y2="101"
            gradientUnits="userSpaceOnUse">
            <stop stop-color="white" stop-opacity="0" />
            <stop offset="1" stop-color="white" />
        </linearGradient>
        <linearGradient id="paint6_linear_116_9276" x1="125.972" y1="126" x2="75.9443" y2="126"
            gradientUnits="userSpaceOnUse">
            <stop stop-color="#9CC76F" />
            <stop offset="1" stop-color="#C5DA8B" />
        </linearGradient>
        <clipPath id="clip0_116_9276">
            <rect width="20" height="30" fill="white" transform="translate(91 86)" />
        </clipPath>
    </defs>
</svg>
    