<svg width="100" height="101" viewBox="0 0 100 101" fill="none" xmlns="http://www.w3.org/2000/svg">
<circle cx="50" cy="51" r="49.7" stroke="#D9D9D9" stroke-width="0.6"/>
<circle cx="50" cy="51" r="19.7" stroke="#D9D9D9" stroke-width="0.6"/>
<circle cx="50.0001" cy="51.0001" r="28.2714" stroke="#D9D9D9" stroke-width="0.6"/>
<circle cx="50.0001" cy="51.0001" r="38.2714" stroke="#D9D9D9" stroke-width="0.6"/>
<path d="M85.7 15.9982C76.6255 6.74244 63.9807 1 49.9946 1C36.3701 1 24.0183 6.44943 15 15.2876" stroke="url(#paint0_linear_93_1302)" stroke-width="1.42857" stroke-linecap="round"/>
<path d="M64.4831 37.214C60.8399 33.386 55.6954 31 49.9936 31C44.6533 31 39.8019 33.093 36.2148 36.5035" stroke="url(#paint1_linear_93_1302)" stroke-width="1.42857" stroke-linecap="round"/>
<path d="M70.5461 31.1519C65.3506 25.7734 58.063 22.4287 49.9943 22.4287C42.2871 22.4287 35.2926 25.4804 30.1533 30.4414" stroke="url(#paint2_linear_93_1302)" stroke-width="1.42857" stroke-linecap="round"/>
<path d="M77.6186 24.0801C70.6127 16.8922 60.8251 12.4287 49.9949 12.4287C39.5263 12.4287 30.0317 16.5992 23.082 23.3695" stroke="url(#paint3_linear_93_1302)" stroke-width="1.42857" stroke-linecap="round"/>
<path fill-rule="evenodd" clip-rule="evenodd" d="M59.9284 50.9999C59.9284 56.4833 55.4833 60.9284 49.9999 60.9284C44.5165 60.9284 40.0713 56.4833 40.0713 50.9999C40.0713 45.5165 44.5165 41.0713 49.9999 41.0713C55.4833 41.0713 59.9284 45.5165 59.9284 50.9999ZM61.4284 50.9999C61.4284 57.3117 56.3117 62.4284 49.9999 62.4284C43.688 62.4284 38.5713 57.3117 38.5713 50.9999C38.5713 44.688 43.688 39.5713 49.9999 39.5713C56.3117 39.5713 61.4284 44.688 61.4284 50.9999ZM50 54C52.2091 54 54 52.2091 54 50C54 47.7909 52.2091 46 50 46C47.7909 46 46 47.7909 46 50C46 52.2091 47.7909 54 50 54Z" fill="url(#paint4_linear_93_1302)"/>
<defs>
<linearGradient id="paint0_linear_93_1302" x1="85.6605" y1="15.9982" x2="14.9213" y2="15.9982" gradientUnits="userSpaceOnUse">
<stop stop-color="#9CC76F"/>
<stop offset="1" stop-color="#C5DA8B"/>
</linearGradient>
<linearGradient id="paint1_linear_93_1302" x1="64.4673" y1="37.214" x2="36.1834" y2="37.214" gradientUnits="userSpaceOnUse">
<stop stop-color="#9CC76F"/>
<stop offset="1" stop-color="#C5DA8B"/>
</linearGradient>
<linearGradient id="paint2_linear_93_1302" x1="70.5235" y1="31.1519" x2="30.1083" y2="31.1519" gradientUnits="userSpaceOnUse">
<stop stop-color="#9CC76F"/>
<stop offset="1" stop-color="#C5DA8B"/>
</linearGradient>
<linearGradient id="paint3_linear_93_1302" x1="77.5881" y1="24.0801" x2="23.0213" y2="24.0801" gradientUnits="userSpaceOnUse">
<stop stop-color="#9CC76F"/>
<stop offset="1" stop-color="#C5DA8B"/>
</linearGradient>
<linearGradient id="paint4_linear_93_1302" x1="61.4157" y1="62.4285" x2="38.5458" y2="62.4285" gradientUnits="userSpaceOnUse">
<stop stop-color="#9CC76F"/>
<stop offset="1" stop-color="#C5DA8B"/>
</linearGradient>
</defs>
</svg>
