<svg width="30" height="30" viewBox="0 0 30 30" fill="none" xmlns="http://www.w3.org/2000/svg">
    <path fill-rule="evenodd" clip-rule="evenodd"
        d="M26.25 12.6879V22.4586C26.25 25.2429 24.0114 27.5 21.25 27.5H8.75C5.98858 27.5 3.75 25.2429 3.75 22.4586V12.6879C3.75 11.1742 4.42456 9.74062 5.58733 8.78316L11.8373 3.63668C13.6779 2.12111 16.3221 2.1211 18.1627 3.63668L24.4127 8.78315C25.5754 9.74062 26.25 11.1742 26.25 12.6879ZM15 18C12.7909 18 11 19.7909 11 22V24C11 24.5523 11.4477 25 12 25H18C18.5523 25 19 24.5523 19 24V22C19 19.7909 17.2091 18 15 18Z"
        fill="url(#paint0_linear_22_1446)" />
    <defs>
        <linearGradient id="paint0_linear_22_1446" x1="26.2374" y1="27.5" x2="3.72495" y2="27.5"
            gradientUnits="userSpaceOnUse">
            <stop stop-color="#9CC76F" />
            <stop offset="1" stop-color="#C5DA8B" />
        </linearGradient>
    </defs>
</svg>
    