<svg width="30" height="30" viewBox="0 0 30 30" fill="none" xmlns="http://www.w3.org/2000/svg">
    <path fill-rule="evenodd" clip-rule="evenodd"
        d="M25 6.25C25 8.32107 23.3211 10 21.25 10C19.1789 10 17.5 8.32107 17.5 6.25C17.5 4.17893 19.1789 2.5 21.25 2.5C23.3211 2.5 25 4.17893 25 6.25ZM22.9045 12.2787C22.3776 12.423 21.8228 12.5 21.25 12.5C17.7982 12.5 15 9.70178 15 6.25C15 5.82227 15.043 5.40457 15.1248 5.00099C15.0833 5.00033 15.0417 5 15 5C10.9637 5 7.56728 8.11357 7.09955 12.2425L6.66845 16.0481C6.56133 16.9937 6.17808 17.8836 5.56937 18.6001C4.27761 20.1205 5.32602 22.5 7.28767 22.5H22.7123C24.674 22.5 25.7224 20.1205 24.4306 18.6001C23.8219 17.8836 23.4387 16.9937 23.3316 16.0481L22.9045 12.2787ZM18.7151 25.0894C18.1434 26.499 16.6957 27.5 15 27.5C13.3043 27.5 11.8566 26.499 11.2849 25.0894C11.261 25.0306 11.25 24.9675 11.25 24.9041C11.25 24.6119 11.4869 24.375 11.7791 24.375H18.2209C18.5131 24.375 18.75 24.6119 18.75 24.9041C18.75 24.9675 18.739 25.0306 18.7151 25.0894Z"
        fill="url(#paint0_linear_22_1476)" />
    <defs>
        <linearGradient id="paint0_linear_22_1476" x1="24.9888" y1="27.5" x2="4.97773" y2="27.5"
            gradientUnits="userSpaceOnUse">
            <stop stop-color="#9CC76F" />
            <stop offset="1" stop-color="#C5DA8B" />
        </linearGradient>
    </defs>
</svg>
    