<svg width="30" height="30" viewBox="0 0 30 30" fill="none" xmlns="http://www.w3.org/2000/svg">
    <path
        d="M13.8396 5.08686C10.3292 5.61685 7.52167 8.51617 7.09955 12.2425L6.66845 16.0481C6.56133 16.9937 6.17808 17.8836 5.56937 18.6001C4.27761 20.1205 5.32602 22.5 7.28767 22.5H22.7123C24.674 22.5 25.7224 20.1205 24.4306 18.6001C23.8219 17.8836 23.4387 16.9937 23.3316 16.0481L23.0467 13.5334M18.75 25C18.2041 26.4565 16.7313 27.5 15 27.5C13.2687 27.5 11.7959 26.4565 11.25 25M25 6.25C25 8.32107 23.3211 10 21.25 10C19.1789 10 17.5 8.32107 17.5 6.25C17.5 4.17893 19.1789 2.5 21.25 2.5C23.3211 2.5 25 4.17893 25 6.25Z"
        stroke="#696969" stroke-width="1.5" stroke-linecap="round" />
</svg>
    