<svg width="41" height="41" viewBox="0 0 41 41" fill="none" xmlns="http://www.w3.org/2000/svg">
    <circle cx="20.5" cy="20.5" r="19.25" fill="url(#paint0_linear_299_4376)"
        stroke="url(#paint1_linear_299_4376)" stroke-width="2.5" />
    <path d="M20.501 10.2495V19.5679" stroke="#AAAAAA" stroke-width="2.46" stroke-linecap="round"
        stroke-linejoin="round" />
    <path
        d="M26.0922 11.9082C27.9442 13.1135 29.3572 14.8849 30.1205 16.9586C30.8837 19.0322 30.9565 21.297 30.3279 23.4153C29.6993 25.5337 28.403 27.3922 26.6322 28.7138C24.8613 30.0355 22.7109 30.7496 20.5012 30.7496C18.2915 30.7496 16.1411 30.0355 14.3702 28.7138C12.5994 27.3922 11.3031 25.5337 10.6745 23.4153C10.0459 21.297 10.1187 19.0322 10.8819 16.9586C11.6452 14.8849 13.0582 13.1135 14.9102 11.9082"
        stroke="#AAAAAA" stroke-width="2.46" stroke-linecap="round" stroke-linejoin="round" />
    <defs>
        <linearGradient id="paint0_linear_299_4376" x1="20.5" y1="1.2219e-06" x2="20.5" y2="41"
            gradientUnits="userSpaceOnUse">
            <stop stop-color="#FDFBFB" />
            <stop offset="1" stop-color="#F0F0F0" />
        </linearGradient>
        <linearGradient id="paint1_linear_299_4376" x1="20.5" y1="1.2219e-06" x2="20.5" y2="41"
            gradientUnits="userSpaceOnUse">
            <stop stop-color="#EFEFEF" />
            <stop offset="1" stop-color="#E4E4E4" />
        </linearGradient>
    </defs>
</svg>
    