<svg width="28" height="28" viewBox="0 0 28 28" fill="none" xmlns="http://www.w3.org/2000/svg">
    <circle cx="13.9995" cy="14.0005" r="13.2505" fill="url(#paint0_linear_911_1865)"
        stroke="#D9D9D9" stroke-width="1.5" />
    <path d="M14.001 7V13.364" stroke="#515151" stroke-width="1.68005" stroke-linecap="round"
        stroke-linejoin="round" />
    <path
        d="M17.8198 8.13379C19.0846 8.95693 20.0496 10.1667 20.5709 11.5829C21.0921 12.9991 21.1418 14.5459 20.7125 15.9926C20.2832 17.4393 19.3979 18.7086 18.1885 19.6112C16.9791 20.5138 15.5105 21.0015 14.0014 21.0015C12.4923 21.0015 11.0236 20.5138 9.81423 19.6112C8.60485 18.7086 7.71953 17.4393 7.29022 15.9926C6.86092 14.5459 6.91061 12.9991 7.4319 11.5829C7.95318 10.1667 8.91815 8.95693 10.183 8.13379"
        stroke="#515151" stroke-width="1.68005" stroke-linecap="round" stroke-linejoin="round" />
    <defs>
        <linearGradient id="paint0_linear_911_1865" x1="13.9995" y1="8.34494e-07" x2="13.9995"
            y2="28.001" gradientUnits="userSpaceOnUse">
            <stop stop-color="#FDFBFB" />
            <stop offset="1" stop-color="#F0F0F0" />
        </linearGradient>
    </defs>
</svg>
    