<svg width="30" height="30" viewBox="0 0 30 30" fill="none" xmlns="http://www.w3.org/2000/svg">
    <path fill-rule="evenodd" clip-rule="evenodd"
        d="M12.5 1.5625C13.0178 1.5625 13.4375 1.98223 13.4375 2.5V5H16.5625V2.5C16.5625 1.98223 16.9822 1.5625 17.5 1.5625C18.0178 1.5625 18.4375 1.98223 18.4375 2.5V5H20C22.7614 5 25 7.23858 25 10V11.5625H27.5C28.0178 11.5625 28.4375 11.9822 28.4375 12.5C28.4375 13.0178 28.0178 13.4375 27.5 13.4375H25V16.5625H27.5C28.0178 16.5625 28.4375 16.9822 28.4375 17.5C28.4375 18.0178 28.0178 18.4375 27.5 18.4375H25V20C25 22.7614 22.7614 25 20 25H18.4375V27.5C18.4375 28.0178 18.0178 28.4375 17.5 28.4375C16.9822 28.4375 16.5625 28.0178 16.5625 27.5V25H13.4375V27.5C13.4375 28.0178 13.0178 28.4375 12.5 28.4375C11.9822 28.4375 11.5625 28.0178 11.5625 27.5V25H10C7.23858 25 5 22.7614 5 20V18.4375H2.5C1.98223 18.4375 1.5625 18.0178 1.5625 17.5C1.5625 16.9822 1.98223 16.5625 2.5 16.5625H5V13.4375H2.5C1.98223 13.4375 1.5625 13.0178 1.5625 12.5C1.5625 11.9822 1.98223 11.5625 2.5 11.5625H5V10C5 7.23858 7.23858 5 10 5H11.5625V2.5C11.5625 1.98223 11.9822 1.5625 12.5 1.5625ZM13.75 11.25C12.3693 11.25 11.25 12.3693 11.25 13.75V16.25C11.25 17.6307 12.3693 18.75 13.75 18.75H16.25C17.6307 18.75 18.75 17.6307 18.75 16.25V13.75C18.75 12.3693 17.6307 11.25 16.25 11.25H13.75Z"
        fill="url(#paint0_linear_22_1455)" />
    <defs>
        <linearGradient id="paint0_linear_22_1455" x1="28.4225" y1="28.4375" x2="1.53257"
            y2="28.4375" gradientUnits="userSpaceOnUse">
            <stop stop-color="#9CC76F" />
            <stop offset="1" stop-color="#C5DA8B" />
        </linearGradient>
    </defs>
</svg>
    