<svg width="30" height="30" viewBox="0 0 30 30" fill="none" xmlns="http://www.w3.org/2000/svg">
    <path
        d="M12.5 5V2.5M17.5 5V2.5M17.5 25V27.5M12.5 25V27.5M25 12.5H27.5M25 17.5H27.5M5 12.5H2.5M5 17.5H2.5M10 25H20C22.7614 25 25 22.7614 25 20V10C25 7.23858 22.7614 5 20 5H10C7.23858 5 5 7.23858 5 10V20C5 22.7614 7.23858 25 10 25ZM13.75 18.75H16.25C17.6307 18.75 18.75 17.6307 18.75 16.25V13.75C18.75 12.3693 17.6307 11.25 16.25 11.25H13.75C12.3693 11.25 11.25 12.3693 11.25 13.75V16.25C11.25 17.6307 12.3693 18.75 13.75 18.75Z"
        stroke="#696969" stroke-width="1.5" stroke-linecap="round" stroke-linejoin="round" />
</svg>
    