<svg width="20" height="20" viewBox="0 0 20 20" fill="none" xmlns="http://www.w3.org/2000/svg">
    <circle cx="10" cy="10" r="10" fill="white" />
    <g clip-path="url(#clip0_306_4460)">
        <path
            d="M10.0003 6.6665C8.16033 6.6665 6.66699 8.15984 6.66699 9.99984C6.66699 11.8398 8.16033 13.3332 10.0003 13.3332C11.8403 13.3332 13.3337 11.8398 13.3337 9.99984C13.3337 8.15984 11.8403 6.6665 10.0003 6.6665ZM3.33366 10.6665H4.66699C5.03366 10.6665 5.33366 10.3665 5.33366 9.99984C5.33366 9.63317 5.03366 9.33317 4.66699 9.33317H3.33366C2.96699 9.33317 2.66699 9.63317 2.66699 9.99984C2.66699 10.3665 2.96699 10.6665 3.33366 10.6665ZM15.3337 10.6665H16.667C17.0337 10.6665 17.3337 10.3665 17.3337 9.99984C17.3337 9.63317 17.0337 9.33317 16.667 9.33317H15.3337C14.967 9.33317 14.667 9.63317 14.667 9.99984C14.667 10.3665 14.967 10.6665 15.3337 10.6665ZM9.33366 3.33317V4.6665C9.33366 5.03317 9.63366 5.33317 10.0003 5.33317C10.367 5.33317 10.667 5.03317 10.667 4.6665V3.33317C10.667 2.9665 10.367 2.6665 10.0003 2.6665C9.63366 2.6665 9.33366 2.9665 9.33366 3.33317ZM9.33366 15.3332V16.6665C9.33366 17.0332 9.63366 17.3332 10.0003 17.3332C10.367 17.3332 10.667 17.0332 10.667 16.6665V15.3332C10.667 14.9665 10.367 14.6665 10.0003 14.6665C9.63366 14.6665 9.33366 14.9665 9.33366 15.3332ZM5.99366 5.05317C5.93198 4.99137 5.85872 4.94234 5.77808 4.90888C5.69743 4.87543 5.61097 4.85821 5.52366 4.85821C5.43635 4.85821 5.34989 4.87543 5.26924 4.90888C5.18859 4.94234 5.11533 4.99137 5.05366 5.05317C4.99186 5.11485 4.94282 5.18811 4.90937 5.26875C4.87592 5.3494 4.8587 5.43586 4.8587 5.52317C4.8587 5.61048 4.87592 5.69694 4.90937 5.77759C4.94282 5.85824 4.99186 5.93149 5.05366 5.99317L5.76033 6.69984C6.02033 6.95984 6.44699 6.95984 6.70033 6.69984C6.95366 6.43984 6.96033 6.01317 6.70033 5.75984L5.99366 5.05317ZM14.2403 13.2998C14.1787 13.238 14.1054 13.189 14.0247 13.1556C13.9441 13.1221 13.8576 13.1049 13.7703 13.1049C13.683 13.1049 13.5966 13.1221 13.5159 13.1556C13.4353 13.189 13.362 13.238 13.3003 13.2998C13.2385 13.3615 13.1895 13.4348 13.156 13.5154C13.1226 13.5961 13.1054 13.6825 13.1054 13.7698C13.1054 13.8572 13.1226 13.9436 13.156 14.0243C13.1895 14.1049 13.2385 14.1782 13.3003 14.2398L14.007 14.9465C14.267 15.2065 14.6937 15.2065 14.947 14.9465C15.0088 14.8848 15.0578 14.8116 15.0913 14.7309C15.1247 14.6503 15.142 14.5638 15.142 14.4765C15.142 14.3892 15.1247 14.3027 15.0913 14.2221C15.0578 14.1414 15.0088 14.0682 14.947 14.0065L14.2403 13.2998ZM14.947 5.99317C15.0088 5.93149 15.0578 5.85824 15.0913 5.77759C15.1247 5.69694 15.142 5.61048 15.142 5.52317C15.142 5.43586 15.1247 5.3494 15.0913 5.26875C15.0578 5.18811 15.0088 5.11485 14.947 5.05317C14.8853 4.99137 14.8121 4.94234 14.7314 4.90888C14.6508 4.87543 14.5643 4.85821 14.477 4.85821C14.3897 4.85821 14.3032 4.87543 14.2226 4.90888C14.1419 4.94234 14.0687 4.99137 14.007 5.05317L13.3003 5.75984C13.0403 6.01984 13.0403 6.4465 13.3003 6.69984C13.5603 6.95317 13.987 6.95984 14.2403 6.69984L14.947 5.99317ZM6.70033 14.2398C6.76213 14.1782 6.81116 14.1049 6.84461 14.0243C6.87807 13.9436 6.89529 13.8572 6.89529 13.7698C6.89529 13.6825 6.87807 13.5961 6.84461 13.5154C6.81116 13.4348 6.76213 13.3615 6.70033 13.2998C6.63865 13.238 6.56539 13.189 6.48474 13.1556C6.40409 13.1221 6.31764 13.1049 6.23033 13.1049C6.14301 13.1049 6.05656 13.1221 5.97591 13.1556C5.89526 13.189 5.822 13.238 5.76033 13.2998L5.05366 14.0065C4.79366 14.2665 4.79366 14.6932 5.05366 14.9465C5.31366 15.1998 5.74033 15.2065 5.99366 14.9465L6.70033 14.2398Z"
            fill="url(#paint0_linear_306_4460)" />
    </g>
    <defs>
        <linearGradient id="paint0_linear_306_4460" x1="17.3255" y1="17.3332" x2="2.65066"
            y2="17.3332" gradientUnits="userSpaceOnUse">
            <stop stop-color="#9CC76F" />
            <stop offset="1" stop-color="#C5DA8B" />
        </linearGradient>
        <clipPath id="clip0_306_4460">
            <rect width="16" height="16" fill="white" transform="translate(2 2)" />
        </clipPath>
    </defs>
</svg>
    