<svg width="25" height="24" viewBox="0 0 25 24" fill="none" xmlns="http://www.w3.org/2000/svg">
<g clip-path="url(#clip0_2892_2806)">
<path d="M14.5284 8.85388H17.9006L19.1881 10.1414L20.1812 9.14818L19.1846 8.15159L20.1812 7.155L19.1881 6.16183L17.9006 7.44931H14.5284C14.4745 7.26142 14.3999 7.08224 14.3066 6.91473L15.8071 5.41422H17.196V4.00965H16.2185V3.03211H14.8139V4.42105L13.3134 5.92155C13.1458 5.82824 12.9667 5.75361 12.7788 5.69968V2.32753L13.5697 1.53664C13.844 1.26238 13.844 0.81772 13.5697 0.543462C13.2954 0.269205 12.8499 0.270058 12.5757 0.544315C12.3005 0.819516 11.8526 0.819516 11.5774 0.544315C11.3031 0.270058 10.8576 0.269205 10.5833 0.543462C10.3091 0.81772 10.3091 1.26238 10.5833 1.53664L11.3742 2.32753V5.69968C11.1863 5.75361 11.0072 5.82824 10.8397 5.92155L9.33915 4.42105V3.03211H7.93457V4.00965H6.95704V5.41422H8.34597L9.84648 6.91473C9.75317 7.08229 9.67854 7.26142 9.6246 7.44931H6.25246L4.96498 6.16183L3.9718 7.155L4.96839 8.15159L3.9718 9.14818L4.96498 10.1414L6.25246 8.85388H9.6246C9.67854 9.04177 9.75317 9.22094 9.84648 9.38846L8.34597 10.889H6.95704V12.2935H7.93457V13.2711H9.33915V11.8821L10.8397 10.3816C11.0072 10.4749 11.1863 10.5496 11.3742 10.6035V13.9757L10.0868 15.2631L11.0799 16.2563L12.0765 15.2597L13.0731 16.2563L14.0663 15.2631L12.7788 13.9757V10.6035C12.9667 10.5496 13.1459 10.4749 13.3134 10.3816L14.8139 11.8821V13.2711H16.2185V12.2935H17.196V10.889H15.8071L14.3066 9.38846C14.3999 9.22089 14.4745 9.04177 14.5284 8.85388ZM10.9301 8.15159C10.9301 7.51944 11.4444 7.00518 12.0765 7.00518C13.5974 7.06815 13.597 9.23532 12.0765 9.29805C11.4444 9.29801 10.9301 8.78374 10.9301 8.15159Z" fill="currentColor"/>
<path d="M12.6558 18.3949L12.2171 18.0439C11.7023 18.4754 9.92101 19.7321 9.83655 21.5725C9.83659 22.8851 10.9044 23.953 12.2171 23.953C13.5297 23.953 14.5975 22.8851 14.5975 21.5725C14.5975 19.994 12.8546 18.5539 12.6558 18.3949ZM12.2171 22.5484C11.679 22.5484 11.2412 22.1106 11.2412 21.5725C11.211 21.1376 11.7546 20.3421 12.2171 19.8976C12.6799 20.3426 13.223 21.1373 13.1929 21.5726C13.193 22.1106 12.7552 22.5484 12.2171 22.5484Z" fill="currentColor"/>
<path d="M2.87785 14.6024L2.43916 14.2515C1.92434 14.6828 0.143009 15.9395 0.0585938 17.78C0.0586406 19.0926 1.12649 20.1605 2.43916 20.1605C3.75173 20.1605 4.81963 19.0926 4.81963 17.78C4.81958 16.2014 3.0766 14.7614 2.87785 14.6024ZM2.43916 18.7559C1.90102 18.7559 1.46321 18.3181 1.46321 17.78C1.43306 17.3451 1.97668 16.5494 2.43916 16.105C2.90201 16.5501 3.44507 17.3448 3.41501 17.78C3.41501 18.3181 2.97725 18.7559 2.43916 18.7559Z" fill="currentColor"/>
<path d="M22.1169 14.6459L21.6782 14.2949C21.1634 14.7263 19.3821 15.9829 19.2976 17.8234C19.2977 19.1361 20.3655 20.2039 21.6782 20.2039C22.9907 20.2039 24.0586 19.136 24.0586 17.8234C24.0586 16.2449 22.3156 14.8049 22.1169 14.6459ZM21.6781 18.7993C21.14 18.7993 20.7022 18.3615 20.7022 17.8234C20.672 17.3885 21.2156 16.5929 21.6781 16.1485C22.141 16.5936 22.684 17.3883 22.654 17.8235C22.654 18.3615 22.2163 18.7993 21.6781 18.7993Z" fill="currentColor"/>
</g>
<defs>
<clipPath id="clip0_2892_2806">
<rect width="24" height="24" fill="white" transform="translate(0.0585938)"/>
</clipPath>
</defs>
</svg>
