<svg width="32" height="32" viewBox="0 0 32 32" fill="none" xmlns="http://www.w3.org/2000/svg">
<!-- <g clip-path="url(#clip0_420_2856)"> -->
<path d="M23.8201 10.4301V13.7901" stroke="#000" stroke-miterlimit="10" stroke-linecap="round"/>
<path d="M7.73999 13.79V2.13C7.73999 1.6977 7.91172 1.2831 8.21741 0.977417C8.52309 0.671733 8.93769 0.5 9.37 0.5H22.15C22.5823 0.5 22.9969 0.671733 23.3026 0.977417C23.6083 1.2831 23.78 1.6977 23.78 2.13V8.67999" stroke="#000" stroke-miterlimit="10" stroke-linecap="round"/>
<path d="M7.10008 19.41C6.6333 19.41 6.18564 19.2246 5.85558 18.8946C5.52551 18.5645 5.34009 18.1168 5.34009 17.6501V15.92" stroke="#000" stroke-miterlimit="10" stroke-linecap="round"/>
<path d="M26.24 15.54V17.6501C26.24 18.1168 26.0545 18.5645 25.7245 18.8946C25.3944 19.2246 24.9467 19.41 24.4799 19.41H8.93994" stroke="#000" stroke-miterlimit="10" stroke-linecap="round"/>
<path d="M11.88 22.39C12.0994 24.0434 12.001 25.7235 11.5901 27.34C10.9901 29.16 12.32 31.48 12.32 31.48" stroke="#000" stroke-miterlimit="10" stroke-linecap="round"/>
<path d="M15.9101 22.39C16.1294 24.0434 16.031 25.7235 15.6201 27.34C15.0201 29.16 16.3501 31.48 16.3501 31.48" stroke="#000" stroke-miterlimit="10" stroke-linecap="round"/>
<path d="M19.9101 22.37C20.1294 24.0234 20.031 25.7035 19.6201 27.32C19.0201 29.14 20.3501 31.46 20.3501 31.46" stroke="#000" stroke-miterlimit="10" stroke-linecap="round"/>
<path d="M2.5 17.8199C6.19058 14.3992 11.0167 12.4656 16.0482 12.3917C21.0798 12.3179 25.9606 14.109 29.75 17.42" stroke="#000" stroke-miterlimit="10" stroke-linecap="round"/>
<path d="M10.74 17.42H11.82" stroke="#000" stroke-miterlimit="10" stroke-linecap="round"/>
<path d="M19.78 17.42H20.86" stroke="#000" stroke-miterlimit="10" stroke-linecap="round"/>
<path d="M15.26 17.42H16.34" stroke="#000" stroke-miterlimit="10" stroke-linecap="round"/>
<path d="M10 2.5V9M10 11.5V11" stroke="#000" stroke-linecap="round"/>
<!-- </g> -->
<defs>
<clipPath id="clip0_420_2856">
<rect width="28.25" height="31.99" fill="white" transform="translate(2)"/>
</clipPath>
</defs>
</svg>
