<svg width="25" height="24" viewBox="0 0 25 24" fill="none" xmlns="http://www.w3.org/2000/svg">
<g clip-path="url(#clip0_2892_2798)">
<path d="M5.27512 10.3956C5.13038 11.5753 4.0413 12.2842 4.01383 12.3016C3.65482 12.525 3.54378 12.9964 3.76549 13.3562C3.91066 13.5916 4.16233 13.7218 4.42028 13.7218C4.55757 13.7218 4.69651 13.6848 4.82255 13.6078C4.89287 13.5641 6.55015 12.5238 6.79727 10.6048C6.97863 9.19674 6.36546 7.7449 4.97485 6.28937C4.08747 5.36215 3.6665 4.44159 3.72471 3.55304C3.80918 2.25889 4.88658 1.37869 4.89404 1.37283C5.22764 1.11033 5.28506 0.627812 5.02299 0.294161C4.76091 -0.0390674 4.27755 -0.0968632 3.94474 0.16521C3.87902 0.216772 2.33279 1.45434 2.19301 3.43154C2.09818 4.77435 2.66058 6.09343 3.86402 7.35098C4.91363 8.44919 5.38828 9.47377 5.27512 10.3956Z" fill="currentColor"/>
<path d="M11.163 10.3955C11.0179 11.5774 9.92547 12.2866 9.90133 12.3016C9.54274 12.525 9.4317 12.9963 9.65341 13.3561C9.79858 13.5915 10.0502 13.7218 10.3082 13.7218C10.4455 13.7218 10.5844 13.6847 10.7101 13.6078C10.7804 13.5641 12.4376 12.5237 12.6848 10.6044C12.8661 9.19667 12.2534 7.74484 10.8623 6.2893C9.97544 5.36208 9.55488 4.44148 9.61273 3.55293C9.69719 2.25878 10.7746 1.37858 10.782 1.37234C11.1153 1.10985 11.1727 0.627323 10.9106 0.293673C10.6485 -0.0395557 10.1656 -0.0973515 9.83233 0.164722C9.76661 0.216705 8.2208 1.45428 8.08144 3.43148C7.98661 4.77428 8.54859 6.09295 9.75204 7.35091C10.8015 8.44912 11.2761 9.47328 11.163 10.3955Z" fill="currentColor"/>
<path d="M17.0508 10.3956C16.9061 11.5749 15.8158 12.2838 15.7883 12.3017C15.4297 12.5246 15.3187 12.996 15.54 13.3562C15.6847 13.5916 15.9368 13.7219 16.1948 13.7219C16.3317 13.7219 16.471 13.6848 16.5962 13.6079C16.6665 13.5642 18.3246 12.5238 18.5721 10.6044C18.7531 9.19635 18.1399 7.74494 16.7489 6.28982C15.862 5.36218 15.4418 4.44157 15.5001 3.5526C15.5849 2.25845 16.6611 1.37867 16.6686 1.37202C17.0022 1.10952 17.0597 0.626998 16.7972 0.29377C16.5351 -0.0394587 16.0526 -0.0976764 15.7189 0.165241C15.6532 0.216802 14.1086 1.45437 13.9689 3.43115C13.8748 4.77396 14.436 6.09304 15.6386 7.35101C16.6894 8.44922 17.164 9.47338 17.0508 10.3956Z" fill="currentColor"/>
<path d="M23.2903 22.4653H2.19053C1.65264 22.4653 1.59443 22.0718 1.59443 21.9025C1.59443 21.7331 1.65264 21.3401 2.19053 21.3401H18.5871C19.9715 21.3401 20.719 20.2593 20.719 19.2426C20.719 18.2256 19.9715 17.1444 18.5871 17.1444H2.19053C1.65264 17.1444 1.59443 16.7513 1.59443 16.582C1.59443 16.4127 1.65264 16.0192 2.19053 16.0192H23.2902C23.7145 16.0192 24.0585 15.6756 24.0585 15.2513C24.0585 14.827 23.7145 14.4834 23.2902 14.4834H2.19053C0.805721 14.4833 0.0585938 15.564 0.0585938 16.5815C0.0585938 17.599 0.805721 18.6793 2.19053 18.6789H18.5871C19.125 18.6789 19.1832 19.0724 19.1832 19.2417C19.1832 19.411 19.125 19.8038 18.5871 19.8038H2.19053C0.805721 19.8038 0.0585938 20.8841 0.0585938 21.9016C0.0585938 22.9191 0.805721 23.9998 2.19053 23.9998H23.2902C23.7141 23.9998 24.0585 23.6575 24.0585 23.2332C24.0586 22.8089 23.7146 22.4653 23.2903 22.4653Z" fill="currentColor"/>
</g>
<defs>
<clipPath id="clip0_2892_2798">
<rect width="24" height="24" fill="currentColor" transform="translate(0.0585938)"/>
</clipPath>
</defs>
</svg>
