<svg width="20" height="20" viewBox="0 0 20 20" fill="none" xmlns="http://www.w3.org/2000/svg">
<path d="M9.2 1H11.6C13.5096 1 15.3409 1.75857 16.6912 3.10883C18.0414 4.45909 18.8 6.29044 18.8 8.2H2C2 6.29044 2.75857 4.45909 4.10883 3.10883C5.45909 1.75857 7.29044 1 9.2 1V1Z" stroke="currentColor" stroke-width="2" stroke-linecap="round" stroke-linejoin="round"/>
<path d="M14.6 10.5254C14.1849 11.2756 13.5764 11.901 12.8378 12.3365C12.0992 12.7719 11.2574 13.0016 10.4 13.0016C9.54259 13.0016 8.70082 12.7719 7.9622 12.3365C7.22359 11.901 6.61511 11.2756 6.20001 10.5254" stroke="currentColor" stroke-width="2" stroke-linecap="round" stroke-linejoin="round"/>
<path d="M10.4 16.5996V18.9996" stroke="currentColor" stroke-width="2" stroke-linecap="round" stroke-linejoin="round"/>
<path d="M16.34 14.1396L18.0368 15.8364" stroke="currentColor" stroke-width="2" stroke-linecap="round" stroke-linejoin="round"/>
<path d="M4.45998 14.1396L2.76318 15.8364" stroke="currentColor" stroke-width="2" stroke-linecap="round" stroke-linejoin="round"/>
</svg>
