<svg width="32" height="32" viewBox="0 0 32 32" fill="none" xmlns="http://www.w3.org/2000/svg">
<path d="M12.6338 11.6284L10.0288 14.2334C9.83153 14.4307 9.83153 14.7506 10.0288 14.9479C10.1275 15.0465 10.2568 15.0959 10.3861 15.0959C10.5153 15.0959 10.6447 15.0465 10.7433 14.9479L13.3483 12.3429C13.5457 12.1455 13.5457 11.8257 13.3483 11.6284C13.151 11.4312 12.8311 11.4312 12.6338 11.6284Z" fill="currentColor"/>
<path d="M16.4591 11.2163L11.0472 16.6281C10.8498 16.8255 10.8498 17.1454 11.0472 17.3427C11.1458 17.4413 11.2752 17.4906 11.4044 17.4906C11.5337 17.4906 11.663 17.4413 11.7617 17.3427L17.1737 11.9309C17.371 11.7335 17.371 11.4136 17.1737 11.2163C16.9764 11.0191 16.6565 11.0189 16.4591 11.2163Z" fill="currentColor"/>
<path d="M9.74897 18.6409C9.8476 18.7396 9.97697 18.7889 10.1063 18.7889C10.2355 18.7889 10.3648 18.7396 10.4635 18.641L10.6433 18.4612C10.8407 18.2639 10.8407 17.944 10.6434 17.7467C10.4462 17.5494 10.1262 17.5492 9.92891 17.7466L9.7491 17.9263C9.55179 18.1236 9.55172 18.4435 9.74897 18.6409Z" fill="currentColor"/>
<path d="M16.7779 14.311L13.3196 17.7693C13.1223 17.9667 13.1223 18.2866 13.3196 18.4839C13.4182 18.5825 13.5476 18.6318 13.6769 18.6318C13.8061 18.6318 13.9355 18.5825 14.0341 18.4839L17.4924 15.0256C17.6897 14.8282 17.6897 14.5083 17.4924 14.311C17.2951 14.1138 16.9753 14.1138 16.7779 14.311Z" fill="currentColor"/>
<path d="M29.1731 4.39111H23.9963C23.7172 4.39111 23.4911 4.61724 23.4911 4.89636C23.4911 5.17549 23.7173 5.40161 23.9963 5.40161H29.1731C30.1746 5.40161 30.9894 6.21643 30.9894 7.21793V22.6211C30.9894 23.6227 30.1746 24.4375 29.1731 24.4375H28.8331H24.1847H7.81512H3.16694H2.82694C1.82537 24.4375 1.01056 23.6226 1.01056 22.621V7.21793C1.01056 6.21643 1.82537 5.40161 2.82694 5.40161H22.3346C22.6138 5.40161 22.8399 5.17549 22.8399 4.89636C22.8399 4.61724 22.6138 4.39111 22.3346 4.39111H2.82694C1.26812 4.39111 0 5.65918 0 7.21793V22.6211C0 24.1244 1.17956 25.3569 2.66169 25.4429V26.2949C2.66169 27.0193 3.25094 27.6086 3.97537 27.6086H7.00675C7.73119 27.6086 8.32044 27.0193 8.32044 26.2949V25.4481H23.6796V26.2949C23.6796 27.0193 24.2689 27.6086 24.9932 27.6086H28.0247C28.7491 27.6086 29.3384 27.0193 29.3384 26.2949V25.4429C30.8204 25.357 32 24.1244 32 22.621V7.21793C32 5.65918 30.7319 4.39111 29.1731 4.39111ZM7.30988 26.2949C7.30988 26.462 7.17394 26.5981 7.00669 26.5981H3.97537C3.80825 26.5981 3.67219 26.462 3.67219 26.2949V25.448H7.30988V26.2949ZM28.0247 26.5981H24.9932C24.8261 26.5981 24.6901 26.462 24.6901 26.2949V25.448H28.3278V26.2949C28.3278 26.462 28.1919 26.5981 28.0247 26.5981Z" fill="currentColor"/>
<path d="M8.64748 22.489C8.64748 22.7681 8.87373 22.9942 9.15273 22.9942H23.2415C23.9659 22.9942 24.5552 22.4049 24.5552 21.6805V8.14035C24.5552 7.41603 23.9659 6.82666 23.2415 6.82666H3.84054C3.11611 6.82666 2.52686 7.41597 2.52686 8.14035V21.6806C2.52686 22.405 3.11611 22.9943 3.84054 22.9943H7.53592C7.81498 22.9943 8.04117 22.7681 8.04117 22.489C8.04117 22.21 7.81492 21.9838 7.53592 21.9838H3.84054C3.67342 21.9838 3.53736 21.8478 3.53736 21.6806V8.14035C3.53736 7.97322 3.67336 7.83716 3.84054 7.83716H23.2415C23.4087 7.83716 23.5447 7.97316 23.5447 8.14035V21.6806C23.5447 21.8477 23.4087 21.9838 23.2415 21.9838H9.15273C8.87367 21.9837 8.64748 22.21 8.64748 22.489Z" fill="currentColor"/>
<path d="M27.7594 10.9099C28.8853 10.9099 29.8013 9.99392 29.8013 8.86805C29.8013 7.74217 28.8853 6.82617 27.7594 6.82617C26.6335 6.82617 25.7175 7.74217 25.7175 8.86805C25.7175 9.99392 26.6335 10.9099 27.7594 10.9099ZM27.7594 7.8368C28.3281 7.8368 28.7907 8.29942 28.7907 8.86817C28.7907 9.43692 28.3281 9.89948 27.7594 9.89948C27.1907 9.89948 26.7281 9.43686 26.7281 8.86817C26.728 8.29942 27.1907 7.8368 27.7594 7.8368Z" fill="currentColor"/>
<path d="M27.7594 15.8381C28.8853 15.8381 29.8013 14.9221 29.8013 13.7963C29.8013 12.6704 28.8853 11.7544 27.7594 11.7544C26.6335 11.7544 25.7175 12.6704 25.7175 13.7963C25.7175 14.9221 26.6335 15.8381 27.7594 15.8381ZM27.7594 12.7649C28.3281 12.7649 28.7907 13.2275 28.7907 13.7962C28.7907 14.365 28.3281 14.8276 27.7594 14.8276C27.1907 14.8276 26.7281 14.365 26.7281 13.7962C26.728 13.2275 27.1907 12.7649 27.7594 12.7649Z" fill="currentColor"/>
<path d="M26.0751 22.2532H29.4435C29.7226 22.2532 29.9488 22.0271 29.9488 21.7479C29.9488 21.4688 29.7226 21.2427 29.4435 21.2427H26.0751C25.796 21.2427 25.5698 21.4688 25.5698 21.7479C25.5698 22.027 25.796 22.2532 26.0751 22.2532Z" fill="currentColor"/>
<path d="M26.0751 20.1858H29.4435C29.7226 20.1858 29.9488 19.9596 29.9488 19.6805C29.9488 19.4015 29.7226 19.1753 29.4435 19.1753H26.0751C25.796 19.1753 25.5698 19.4015 25.5698 19.6805C25.5698 19.9596 25.796 20.1858 26.0751 20.1858Z" fill="currentColor"/>
<path d="M26.0751 18.1184H29.4435C29.7226 18.1184 29.9488 17.8923 29.9488 17.6132C29.9488 17.334 29.7226 17.1079 29.4435 17.1079H26.0751C25.796 17.1079 25.5698 17.334 25.5698 17.6132C25.5698 17.8923 25.796 18.1184 26.0751 18.1184Z" fill="currentColor"/>
</svg>
