<svg width="32" height="32" viewBox="0 0 32 32" fill="none" xmlns="http://www.w3.org/2000/svg">
<path d="M7.01974 22.5065C5.19124 22.5065 3.70361 23.9941 3.70361 25.8227C3.70361 27.6512 5.19124 29.1388 7.01974 29.1388C8.8483 29.1388 10.3359 27.6512 10.3359 25.8227C10.3359 23.994 8.8483 22.5065 7.01974 22.5065ZM7.01974 28.2012C5.70818 28.2012 4.64111 27.1342 4.64111 25.8226C4.64111 24.511 5.70818 23.4439 7.01974 23.4439C8.33136 23.4439 9.39843 24.511 9.39843 25.8226C9.39843 27.1342 8.33136 28.2012 7.01974 28.2012Z" fill="#000"/>
<path d="M26.2977 10.3647L25.9121 10.7503L17.8492 2.6875C16.1162 0.9545 13.8087 6.25e-05 11.3515 0C11.3513 0 11.3513 0 11.3512 0C8.89403 0 6.58647 0.954437 4.85378 2.6875C3.11803 4.42325 2.1621 6.73081 2.1621 9.18519C2.1621 11.6396 3.11803 13.9472 4.85372 15.6829L5.12872 15.9579C4.60722 16.3774 4.13403 16.8617 3.71803 17.4051C2.64354 18.8084 2.0491 20.4768 1.99103 22.2386C1.26816 23.25 0.842285 24.4874 0.842285 25.8226C0.842285 29.2288 3.61347 32 7.01972 32C7.58235 32 8.12747 31.9239 8.64585 31.7824H24.1545C25.644 31.7824 26.8068 30.4846 26.642 28.9965C26.3418 26.2951 25.4925 23.8659 24.1178 21.7764C20.9854 17.0151 15.794 15.037 12.9783 14.2817C12.4474 14.1393 11.9018 14.0487 11.3565 14.0126C11.3565 14.0126 11.3564 14.0126 11.3564 14.0126C10.5638 13.9599 9.77466 14.0188 9.00353 14.1875L7.67641 12.8604C6.69491 11.8789 6.15435 10.5737 6.15435 9.18525C6.15435 7.79681 6.69485 6.49163 7.67635 5.51019C9.70297 3.48413 13 3.48413 15.026 5.51013L20.0071 10.4911C20.1902 10.6741 20.487 10.6741 20.67 10.4911C20.853 10.308 20.853 10.0112 20.67 9.82812L19.6831 8.84131L21.1804 7.3445L25.2492 11.4133L23.7523 12.9102L21.9843 11.1423C21.8012 10.9592 21.5044 10.9593 21.3214 11.1423C21.1383 11.3253 21.1383 11.6221 21.3214 11.8052L23.0895 13.5731L22.7037 13.9589C22.1029 14.5596 21.772 15.3583 21.772 16.2079C21.772 17.0574 22.1028 17.8562 22.7037 18.4569C23.1865 18.9398 23.9721 18.9398 24.4549 18.4569L30.7958 12.116C31.2787 11.6332 31.2787 10.8476 30.7958 10.3647C29.5556 9.12456 27.5378 9.12463 26.2977 10.3647ZM11.794 14.9983C12.1108 15.0409 12.4259 15.1041 12.7354 15.1871C15.3589 15.8909 20.1396 17.7011 23.121 21.9762L22.6958 22.4014C21.873 23.2243 20.5247 23.2289 19.6876 22.3776C17.8895 20.5459 15.6019 19.2441 13.1973 18.3782C12.3585 18.0759 11.794 17.2765 11.794 16.3901V14.9983H11.794ZM10.8565 14.9316V16.39C10.8565 17.6776 11.6763 18.8266 12.8795 19.2601C15.1719 20.0857 17.3331 21.3176 19.0188 23.0346C20.2116 24.2477 22.157 24.2659 23.3587 23.0643L23.6422 22.7808C24.7547 24.6333 25.4497 26.7561 25.7102 29.0998C25.811 30.0094 25.1109 30.8448 24.1545 30.8448H10.6139C12.0483 29.8119 13.0055 28.2045 13.1711 26.3874C13.1711 26.3871 13.1712 26.3867 13.1712 26.3862C13.3225 24.7222 12.7947 23.1052 11.7708 21.8744C11.605 21.6751 11.3095 21.6483 11.1106 21.8137C10.9122 21.9788 10.884 22.2742 11.05 22.4739C11.8138 23.3924 12.2597 24.5753 12.2597 25.8225C12.2597 28.6875 9.92978 31.0624 7.01972 31.0624C4.13041 31.0624 1.77979 28.7118 1.77979 25.8225C1.77979 21.734 6.30016 19.2159 9.77135 21.3627C9.99153 21.4988 10.2805 21.4307 10.4166 21.2106C10.5528 20.9904 10.4847 20.7015 10.2645 20.5653C8.04497 19.1927 5.11553 19.3522 3.06103 21.0763C3.27978 19.9544 3.7541 18.9 4.46235 17.9751C6.22597 15.6719 8.53447 15.3117 8.74335 15.2192C9.40153 15.0309 10.1195 14.9264 10.8565 14.9316ZM7.01341 4.84719C5.85485 6.00575 5.21678 7.54637 5.21678 9.18519C5.21678 10.824 5.85485 12.3647 7.01341 13.5232L7.95928 14.4691C7.92316 14.4801 7.73666 14.5386 7.54953 14.6058C6.96835 14.8138 6.41703 15.0816 5.9026 15.4061L5.51666 15.0201C3.95797 13.4614 3.09953 11.3892 3.09953 9.18525C3.09953 6.98131 3.95791 4.90912 5.51666 3.35044C7.07241 1.79431 9.1446 0.937437 11.3515 0.9375C13.5582 0.937563 15.6304 1.79444 17.1863 3.35037L20.5174 6.6815L19.0201 8.17838L15.6889 4.84719C13.2974 2.45569 9.40566 2.45569 7.01341 4.84719ZM30.1329 11.4531L23.7919 17.794C23.6747 17.9113 23.4837 17.9113 23.3665 17.794C22.9428 17.3703 22.7095 16.807 22.7095 16.2079C22.7095 15.6087 22.9428 15.0454 23.3665 14.6217L26.9606 11.0276C27.398 10.5903 27.9723 10.3717 28.5467 10.3717C29.121 10.3717 29.6956 10.5904 30.1328 11.0276C30.2502 11.1449 30.2502 11.3357 30.1329 11.4531Z" fill="#000"/>
</svg>
