<svg width="25" height="24" viewBox="0 0 25 24" fill="none" xmlns="http://www.w3.org/2000/svg">
<g clip-path="url(#clip0_2892_2812)">
<path d="M0.385745 12.7117C1.80549 13.9295 3.41462 15.3098 6.52717 15.3098C9.63981 15.3097 11.249 13.9295 12.6688 12.7117C14.0115 11.5601 15.1711 10.5654 17.5898 10.5654C20.0085 10.5654 21.1681 11.5601 22.5107 12.7117C22.9037 13.0488 23.4956 13.0035 23.8327 12.6105C24.1697 12.2174 24.1245 11.6256 23.7314 11.2885C22.3116 10.0708 20.7024 8.69043 17.5898 8.69043C14.4771 8.69043 12.8679 10.0707 11.4481 11.2885C10.1054 12.4401 8.94582 13.4348 6.52717 13.4348C4.10856 13.4348 2.9491 12.4402 1.60651 11.2885C1.21351 10.9514 0.621667 10.9967 0.284542 11.3897C-0.0525833 11.7827 -0.0072552 12.3746 0.385745 12.7117Z" fill="currentColor"/>
<path d="M0.385745 7.58377C1.80545 8.80158 3.41457 10.1819 6.52717 10.1819C9.63981 10.1819 11.249 8.80158 12.6688 7.58377C14.0115 6.43214 15.1711 5.4375 17.5898 5.4375C20.0084 5.4375 21.168 6.43209 22.5107 7.58377C22.9037 7.92094 23.4955 7.87552 23.8326 7.48247C24.1697 7.08947 24.1243 6.49753 23.7313 6.1605C22.3115 4.94269 20.7023 3.5625 17.5898 3.5625C14.4771 3.5625 12.8679 4.94278 11.4481 6.16059C10.1054 7.31222 8.94582 8.30686 6.52717 8.30686C4.1086 8.30686 2.9491 7.31227 1.60651 6.16059C1.21351 5.82347 0.62162 5.86875 0.284542 6.2618C-0.0525833 6.6548 -0.00725519 7.24669 0.385745 7.58377Z" fill="currentColor"/>
<path d="M23.7314 16.4165C22.3116 15.1987 20.7024 13.8184 17.5897 13.8184C14.4771 13.8184 12.8679 15.1986 11.4481 16.4165C10.1054 17.5681 8.94578 18.5627 6.52713 18.5627C4.10866 18.5627 2.94911 17.5681 1.60652 16.4165L1.60642 16.4165C1.21342 16.0795 0.621628 16.1247 0.284503 16.5177C-0.0525755 16.9107 -0.0072474 17.5026 0.385753 17.8397C1.8055 19.0575 3.41467 20.4377 6.52713 20.4377C9.63977 20.4377 11.249 19.0574 12.6688 17.8396C14.0115 16.688 15.1711 15.6934 17.5897 15.6934C20.0084 15.6934 21.168 16.688 22.5107 17.8396C22.9037 18.1767 23.4956 18.1314 23.8326 17.7384C24.1697 17.3454 24.1244 16.7535 23.7314 16.4165Z" fill="currentColor"/>
</g>
<defs>
<clipPath id="clip0_2892_2812">
<rect width="24" height="24" fill="white" transform="translate(0.0585938)"/>
</clipPath>
</defs>
</svg>
