<svg width="20" height="21" viewBox="0 0 20 21" fill="none" xmlns="http://www.w3.org/2000/svg">
<path d="M12.0611 0.794922C13.4762 0.794922 14.6927 1.92572 14.6927 3.4265V14.5333C15.2675 15.1372 15.7453 15.9855 15.7453 17.1107C15.7453 19.1454 14.0958 20.7949 12.0611 20.7949C10.0263 20.7949 8.37686 19.1454 8.37686 17.1107C8.37686 16.2034 8.73256 15.2503 9.42949 14.5333V3.4265C9.42949 1.95226 10.6459 0.794922 12.0611 0.794922ZM12.0611 1.84755C11.2202 1.84755 10.4821 2.52715 10.4821 3.43004V14.9921C9.78299 15.5366 9.42949 16.3516 9.42949 17.1107C9.42949 18.5641 10.6077 19.7423 12.0611 19.7423C13.5145 19.7423 14.6927 18.5641 14.6927 17.1107C14.6927 16.3964 14.3902 15.5735 13.64 15.0054V3.4265C13.64 2.55447 12.9331 1.84755 12.0611 1.84755ZM12.0611 7.11071C12.331 7.11071 12.5874 7.31626 12.5879 7.64057V15.6218C13.2009 15.8387 13.64 16.4234 13.64 17.1107C13.64 17.9827 12.9331 18.6897 12.0611 18.6897C11.189 18.6897 10.4821 17.9827 10.4821 17.1107C10.4821 16.4232 10.9215 15.8383 11.5348 15.6216L11.5348 7.63703C11.5348 7.34635 11.7704 7.11071 12.0611 7.11071ZM12.0611 16.5844C11.7704 16.5844 11.5348 16.82 11.5348 17.1107C11.5348 17.4014 11.7704 17.637 12.0611 17.637C12.3517 17.637 12.5874 17.4014 12.5874 17.1107C12.5874 16.82 12.3517 16.5844 12.0611 16.5844ZM7.85055 13.4265C8.14122 13.4265 8.37686 13.6621 8.37686 13.9528C8.37686 14.2227 8.17221 14.4791 7.85055 14.4791H5.21897C4.92829 14.4791 4.69265 14.2435 4.69265 13.9528C4.69265 13.6829 4.91063 13.4265 5.21897 13.4265H7.85055ZM7.85055 11.8476C8.14122 11.8476 8.37686 12.0832 8.37686 12.3739C8.37686 12.6438 8.17461 12.9002 7.85055 12.9002H7.32423C7.03355 12.9002 6.79791 12.6645 6.79791 12.3739C6.79791 12.104 7.0225 11.8476 7.32423 11.8476H7.85055ZM7.85055 9.74229C8.14122 9.74229 8.37686 9.97793 8.37686 10.2686C8.37686 10.5385 8.15643 10.7949 7.85055 10.7949H6.2716C5.98092 10.7949 5.74528 10.5593 5.74528 10.2686C5.74528 9.99869 5.9685 9.74229 6.2716 9.74229H7.85055ZM7.85055 7.63703C8.14122 7.63703 8.37686 7.87267 8.37686 8.16334C8.37686 8.43326 8.16862 8.68966 7.85055 8.68966H5.74528C5.45461 8.68966 5.21897 8.45402 5.21897 8.16334C5.21897 7.89343 5.43025 7.63703 5.74528 7.64057L7.85055 7.63703ZM7.85055 5.53176C8.14122 5.53176 8.37686 5.7674 8.37686 6.05808C8.37686 6.32799 8.15608 6.5844 7.85055 6.5844H6.79791C6.50724 6.5844 6.2716 6.34876 6.2716 6.05808C6.2716 5.78817 6.47681 5.53176 6.79791 5.53176H7.85055ZM7.85055 3.4265C8.14122 3.4265 8.37686 3.66214 8.37686 3.95282C8.37686 4.22273 8.17039 4.47913 7.85055 4.47913H4.69265C4.40198 4.47913 4.16634 4.24349 4.16634 3.95282C4.16634 3.6829 4.37915 3.4265 4.69265 3.4265H7.85055Z" fill="#339FD9"/>
</svg>
