<svg width="32" height="32" viewBox="0 0 32 32" fill="none" xmlns="http://www.w3.org/2000/svg">
<!-- <g clip-path="url(#clip0_420_2787)"> -->
<path d="M20.6271 4.85768C20.5262 5.13427 20.2203 5.27672 19.9436 5.17578C15.081 3.40192 9.49318 5.08403 6.46658 9.51674C6.30081 9.75961 5.96932 9.82264 5.72578 9.6564C5.48264 9.49042 5.42014 9.15873 5.58612 8.91566C8.8903 4.07643 14.9926 2.23501 20.309 4.17424C20.5855 4.27512 20.7279 4.58109 20.6271 4.85768ZM4.70692 11.3687H13.3299C13.5784 10.1253 14.6781 9.18538 15.9935 9.18538C17.4913 9.18538 18.7098 10.4039 18.7098 11.9017C18.7098 13.3995 17.4913 14.6182 15.9935 14.6182C14.6781 14.6182 13.5783 13.6783 13.3299 12.4348H5.03148C2.60364 19.8847 8.18774 27.5357 15.9935 27.5357C23.3341 27.5357 28.8775 20.7032 27.2365 13.4529C27.1715 13.1657 27.3516 12.8804 27.6387 12.8154C27.9258 12.7502 28.2113 12.9305 28.2763 13.2176C30.0679 21.134 24.0166 28.6019 15.9934 28.6019C7.29781 28.6019 1.17353 19.9301 4.15048 11.7168C4.23577 11.4817 4.46898 11.3438 4.70692 11.3687ZM14.3432 11.9017C14.3432 12.8117 15.0835 13.5521 15.9935 13.5521C16.9034 13.5521 17.6437 12.8118 17.6437 11.9017C17.6437 10.9918 16.9034 10.2515 15.9935 10.2515C15.0835 10.2515 14.3432 10.9918 14.3432 11.9017ZM19.1777 22.2041C19.1777 23.1859 18.3789 23.9848 17.397 23.9848H14.5899C13.6081 23.9848 12.8093 23.186 12.8093 22.2041C12.8093 21.2223 13.6081 20.4234 14.5899 20.4234H17.397C18.3789 20.4234 19.1777 21.2222 19.1777 22.2041ZM18.1116 22.2041C18.1116 21.8101 17.791 21.4895 17.397 21.4895H14.5899C14.1959 21.4895 13.8754 21.8101 13.8754 22.2041C13.8754 22.5981 14.1959 22.9187 14.5899 22.9187H17.397C17.791 22.9186 18.1116 22.5981 18.1116 22.2041ZM20.035 11.9017C20.035 12.1961 20.2737 12.4348 20.5681 12.4348H24.1892C24.4835 12.4348 24.7222 12.1961 24.7222 11.9017C24.7222 11.6074 24.4835 11.3687 24.1892 11.3687H20.5681C20.2736 11.3687 20.035 11.6074 20.035 11.9017ZM30.6252 10.9794C30.3436 11.0653 30.185 11.3632 30.271 11.6448C33.2017 21.2459 25.9781 30.9339 15.9935 30.9339C7.76356 30.9339 1.06805 24.2384 1.06805 16.0085C1.06805 4.99141 12.6767 -2.25454 22.5659 2.60428C22.8302 2.73401 23.1495 2.62513 23.2794 2.36087C23.4092 2.09668 23.3002 1.77718 23.036 1.64738C12.4911 -3.53313 0.00195312 4.12034 0.00195312 16.0085C0.00195312 24.8468 7.15422 32 15.9935 32C26.7365 32 34.4276 21.6103 31.2907 11.3335C31.2047 11.052 30.9067 10.8936 30.6252 10.9794ZM26.7037 10.3384C26.3131 9.94784 26.313 9.31551 26.7037 8.92485C27.0942 8.53426 27.7264 8.53419 28.1171 8.92485C28.1171 8.92492 28.1173 8.92519 28.1171 8.92492C28.5077 9.31551 28.5077 9.94771 28.1171 10.3384C27.7274 10.728 27.0934 10.728 26.7037 10.3384ZM29.8604 7.93545C30.0685 7.72729 30.0686 7.3898 29.8604 7.18158C28.5063 5.8275 26.3146 5.8273 24.9604 7.18164C24.7522 7.3898 24.7522 7.72729 24.9604 7.93545C25.1685 8.14353 25.506 8.1436 25.7142 7.93538C26.6517 6.99794 28.1689 6.99788 29.1065 7.93545C29.3148 8.1436 29.6522 8.14353 29.8604 7.93545ZM22.9815 5.95663C23.1897 6.16472 23.5272 6.16472 23.7353 5.95663C25.7664 3.92544 29.054 3.92511 31.0854 5.95663C31.2936 6.16479 31.631 6.16472 31.8392 5.95663C32.0474 5.74841 32.0474 5.41099 31.8392 5.20276C29.3913 2.75493 25.4295 2.75473 22.9815 5.20276C22.7733 5.41092 22.7733 5.74847 22.9815 5.95663Z" fill="#000"/>
<!-- </g> -->
<defs>
<clipPath id="clip0_420_2787">
<rect width="32" height="32" fill="white"/>
</clipPath>
</defs>
</svg>
