<svg width="38" height="38" viewBox="0 0 38 38" fill="none" xmlns="http://www.w3.org/2000/svg">
<g clip-path="url(#clip0_225_8878)">
<path d="M30.8178 0H7.18068C6.11717 0 5.25195 0.865218 5.25195 1.92873V36.0713C5.25195 37.1348 6.11717 38 7.18068 38H30.8178C31.8813 38 32.7466 37.1348 32.7466 36.0713V1.92873C32.7466 0.865218 31.8813 0 30.8178 0ZM31.5155 36.0713C31.5155 36.456 31.2025 36.7689 30.8178 36.7689H7.18068C6.796 36.7689 6.48305 36.456 6.48305 36.0713V1.92873C6.48305 1.54405 6.796 1.2311 7.18068 1.2311H30.8178C31.2025 1.2311 31.5155 1.54405 31.5155 1.92873V36.0713Z" fill="#89B05F"/>
<path d="M26.8782 3.93945H11.1201C10.0566 3.93945 9.19141 4.80467 9.19141 5.86818V32.1317C9.19141 33.1952 10.0566 34.0604 11.1201 34.0604H26.8782C27.9417 34.0604 28.807 33.1952 28.807 32.1317V5.86818C28.807 4.80467 27.9417 3.93945 26.8782 3.93945ZM11.1201 5.17055H26.8782C27.2629 5.17055 27.5759 5.4835 27.5759 5.86818V18.3844H10.4225V5.86818C10.4225 5.4835 10.7355 5.17055 11.1201 5.17055ZM26.8782 32.8293H11.1201C10.7355 32.8293 10.4225 32.5164 10.4225 32.1317V19.6155H27.5759V32.1317C27.5759 32.5164 27.2629 32.8293 26.8782 32.8293Z" fill="#89B05F"/>
<path d="M18.9996 22.3237C16.85 22.3237 15.1011 24.0726 15.1011 26.2222C15.1011 28.3718 16.85 30.1207 18.9996 30.1207C21.1491 30.1207 22.8981 28.3718 22.8981 26.2222C22.8981 24.0726 21.1491 22.3237 18.9996 22.3237ZM18.9996 28.8896C17.5288 28.8896 16.3322 27.693 16.3322 26.2222C16.3322 24.7515 17.5288 23.5548 18.9996 23.5548C20.4703 23.5548 21.6669 24.7515 21.6669 26.2222C21.6669 27.693 20.4703 28.8896 18.9996 28.8896Z" fill="#89B05F"/>
<path d="M18.9993 15.6764C19.3393 15.6764 19.6149 15.4008 19.6149 15.0608V8.49495C19.6149 8.155 19.3393 7.87939 18.9993 7.87939C18.6594 7.87939 18.3838 8.155 18.3838 8.49495V15.0608C18.3838 15.4008 18.6594 15.6764 18.9993 15.6764Z" fill="#89B05F"/>
</g>
<defs>
<clipPath id="clip0_225_8878">
<rect width="38" height="38" fill="white"/>
</clipPath>
</defs>
</svg>
