<svg width="38" height="38" viewBox="0 0 38 38" fill="none" xmlns="http://www.w3.org/2000/svg">
<rect x="0.678571" y="0.678571" width="36.6429" height="36.6429" rx="6.10714" stroke="#89B05F" stroke-width="1.35714"/>
<rect x="11.536" y="7.46422" width="14.9286" height="23.0714" stroke="#89B05F" stroke-width="1.35714"/>
<line x1="10.8574" y1="18.3214" x2="27.1431" y2="18.3214" stroke="#89B05F" stroke-width="1.35714"/>
<circle cx="5.42843" cy="5.42843" r="0.678571" fill="#D9D9D9" stroke="#89B05F" stroke-width="1.35714"/>
<circle cx="5.42843" cy="32.5715" r="0.678571" fill="#D9D9D9" stroke="#89B05F" stroke-width="1.35714"/>
<circle cx="32.571" cy="32.5715" r="0.678571" fill="#D9D9D9" stroke="#89B05F" stroke-width="1.35714"/>
<circle cx="32.571" cy="5.42843" r="0.678571" fill="#D9D9D9" stroke="#89B05F" stroke-width="1.35714"/>
<rect x="12.5532" y="20.6962" width="0.678571" height="0.678571" fill="#D9D9D9" stroke="#89B05F" stroke-width="0.678571"/>
<rect x="13.9106" y="23.4106" width="0.678571" height="0.678571" fill="#D9D9D9" stroke="#89B05F" stroke-width="0.678571"/>
<rect x="12.5532" y="26.1249" width="0.678571" height="0.678571" fill="#D9D9D9" stroke="#89B05F" stroke-width="0.678571"/>
<rect x="13.9106" y="28.8393" width="0.678571" height="0.678571" fill="#D9D9D9" stroke="#89B05F" stroke-width="0.678571"/>
<rect x="15.268" y="20.6962" width="0.678571" height="0.678571" fill="#D9D9D9" stroke="#89B05F" stroke-width="0.678571"/>
<rect x="16.6254" y="23.4106" width="0.678571" height="0.678571" fill="#D9D9D9" stroke="#89B05F" stroke-width="0.678571"/>
<rect x="15.268" y="26.1249" width="0.678571" height="0.678571" fill="#D9D9D9" stroke="#89B05F" stroke-width="0.678571"/>
<rect x="16.6254" y="28.8393" width="0.678571" height="0.678571" fill="#D9D9D9" stroke="#89B05F" stroke-width="0.678571"/>
<rect x="17.9819" y="20.6962" width="0.678571" height="0.678571" fill="#D9D9D9" stroke="#89B05F" stroke-width="0.678571"/>
<rect x="19.3393" y="23.4106" width="0.678571" height="0.678571" fill="#D9D9D9" stroke="#89B05F" stroke-width="0.678571"/>
<rect x="17.9819" y="26.1249" width="0.678571" height="0.678571" fill="#D9D9D9" stroke="#89B05F" stroke-width="0.678571"/>
<rect x="19.3393" y="28.8393" width="0.678571" height="0.678571" fill="#D9D9D9" stroke="#89B05F" stroke-width="0.678571"/>
<rect x="20.6967" y="20.6962" width="0.678571" height="0.678571" fill="#D9D9D9" stroke="#89B05F" stroke-width="0.678571"/>
<rect x="22.0532" y="23.4106" width="0.678571" height="0.678571" fill="#D9D9D9" stroke="#89B05F" stroke-width="0.678571"/>
<rect x="20.6967" y="26.1249" width="0.678571" height="0.678571" fill="#D9D9D9" stroke="#89B05F" stroke-width="0.678571"/>
<rect x="22.0532" y="28.8393" width="0.678571" height="0.678571" fill="#D9D9D9" stroke="#89B05F" stroke-width="0.678571"/>
<rect x="23.4106" y="20.6962" width="0.678571" height="0.678571" fill="#D9D9D9" stroke="#89B05F" stroke-width="0.678571"/>
<rect x="24.768" y="23.4106" width="0.678571" height="0.678571" fill="#D9D9D9" stroke="#89B05F" stroke-width="0.678571"/>
<rect x="23.4106" y="26.1249" width="0.678571" height="0.678571" fill="#D9D9D9" stroke="#89B05F" stroke-width="0.678571"/>
<rect x="24.768" y="28.8393" width="0.678571" height="0.678571" fill="#D9D9D9" stroke="#89B05F" stroke-width="0.678571"/>
<circle cx="19.0003" cy="12.8929" r="2.71429" stroke="#89B05F" stroke-width="1.35714"/>
</svg>
