<svg width="38" height="38" viewBox="0 0 38 38" fill="none" xmlns="http://www.w3.org/2000/svg">
<path d="M33.9286 0H4.07143C2.99198 0.00118006 1.95708 0.430512 1.1938 1.1938C0.430512 1.95708 0.00118006 2.99198 0 4.07143V33.9286C0.00118006 35.008 0.430512 36.0429 1.1938 36.8062C1.95708 37.5695 2.99198 37.9988 4.07143 38H33.9286C35.008 37.9988 36.0429 37.5695 36.8062 36.8062C37.5695 36.0429 37.9988 35.008 38 33.9286V4.07143C37.9988 2.99198 37.5695 1.95708 36.8062 1.1938C36.0429 0.430512 35.008 0.00118006 33.9286 0ZM36.6429 33.9286C36.6421 34.6482 36.3559 35.3382 35.8471 35.8471C35.3382 36.3559 34.6482 36.6421 33.9286 36.6429H4.07143C3.35178 36.6421 2.6618 36.3559 2.15293 35.8471C1.64406 35.3382 1.35786 34.6482 1.35714 33.9286V4.07143C1.35786 3.35178 1.64406 2.6618 2.15293 2.15293C2.6618 1.64406 3.35178 1.35786 4.07143 1.35714H33.9286C34.6482 1.35786 35.3382 1.64406 35.8471 2.15293C36.3559 2.6618 36.6421 3.35178 36.6429 4.07143V33.9286Z" fill="#89B05F"/>
<path d="M30.0459 4.56104H7.95389C7.05437 4.56209 6.192 4.91989 5.55595 5.55595C4.91989 6.192 4.56209 7.05437 4.56104 7.95389V30.0459C4.56209 30.9454 4.91989 31.8078 5.55595 32.4438C6.192 33.0799 7.05437 33.4377 7.95389 33.4388H30.0459C30.9454 33.4377 31.8078 33.0799 32.4438 32.4438C33.0799 31.8078 33.4377 30.9454 33.4388 30.0459V7.95389C33.4377 7.05437 33.0799 6.192 32.4438 5.55595C31.8078 4.91989 30.9454 4.56209 30.0459 4.56104ZM32.0816 30.0459C32.081 30.5856 31.8664 31.1031 31.4847 31.4847C31.1031 31.8664 30.5856 32.081 30.0459 32.0816H7.95389C7.41417 32.081 6.89672 31.8664 6.51508 31.4847C6.13343 31.1031 5.91877 30.5856 5.91818 30.0459V7.95389C5.91877 7.41417 6.13343 6.89672 6.51508 6.51508C6.89672 6.13343 7.41417 5.91877 7.95389 5.91818H30.0459C30.5856 5.91877 31.1031 6.13343 31.4847 6.51508C31.8664 6.89672 32.081 7.41417 32.0816 7.95389V30.0459Z" fill="#89B05F"/>
<path d="M28.7579 7.88525H9.2424C8.8826 7.88572 8.53768 8.02886 8.28327 8.28327C8.02886 8.53768 7.88572 8.8826 7.88525 9.2424V28.7579C7.88572 29.1177 8.02886 29.4627 8.28327 29.7171C8.53768 29.9715 8.8826 30.1146 9.2424 30.1151H28.7579C29.1177 30.1146 29.4627 29.9715 29.7171 29.7171C29.9715 29.4627 30.1146 29.1177 30.1151 28.7579V9.2424C30.1146 8.8826 29.9715 8.53768 29.7171 8.28327C29.4627 8.02886 29.1177 7.88572 28.7579 7.88525ZM9.2424 9.2424H18.3216V28.7579H9.2424V9.2424ZM28.7579 28.7579H19.6787V9.2424H28.7579V28.7579Z" fill="#89B05F"/>
<path d="M15.4206 26.0366H12.1444C11.9644 26.0366 11.7918 26.1081 11.6646 26.2354C11.5373 26.3626 11.4658 26.5352 11.4658 26.7152C11.4658 26.8952 11.5373 27.0678 11.6646 27.195C11.7918 27.3223 11.9644 27.3938 12.1444 27.3938H15.4206C15.6006 27.3938 15.7732 27.3223 15.9004 27.195C16.0277 27.0678 16.0992 26.8952 16.0992 26.7152C16.0992 26.5352 16.0277 26.3626 15.9004 26.2354C15.7732 26.1081 15.6006 26.0366 15.4206 26.0366Z" fill="#89B05F"/>
<path d="M22.5804 27.3938H25.8567C26.0366 27.3938 26.2092 27.3223 26.3365 27.195C26.4637 27.0678 26.5352 26.8952 26.5352 26.7152C26.5352 26.5352 26.4637 26.3626 26.3365 26.2354C26.2092 26.1081 26.0366 26.0366 25.8567 26.0366H22.5804C22.4005 26.0366 22.2279 26.1081 22.1006 26.2354C21.9733 26.3626 21.9019 26.5352 21.9019 26.7152C21.9019 26.8952 21.9733 27.0678 22.1006 27.195C22.2279 27.3223 22.4005 27.3938 22.5804 27.3938Z" fill="#89B05F"/>
</svg>
