<svg width="24" height="24" viewBox="0 0 24 24" fill="none" xmlns="http://www.w3.org/2000/svg">
<path d="M2.625 10.125V5.625C2.625 4.3875 3.6375 3.375 4.875 3.375H19.125C20.3625 3.375 21.375 4.3875 21.375 5.625V10.125" stroke="white" stroke-width="1.5" stroke-linecap="round" stroke-linejoin="round"/>
<path d="M3 20.625V19.125" stroke="white" stroke-width="1.5" stroke-linecap="round" stroke-linejoin="round"/>
<path d="M21 20.625V19.125" stroke="white" stroke-width="1.5" stroke-linecap="round" stroke-linejoin="round"/>
<path d="M19.5 15V14.625C19.5 13.3875 18.4875 12.375 17.25 12.375H6.75C5.5125 12.375 4.5 13.3875 4.5 14.625V15" stroke="white" stroke-width="1.5" stroke-linecap="round" stroke-linejoin="round"/>
<path d="M23.25 19.125V12C23.25 10.95 22.425 10.125 21.375 10.125C20.325 10.125 19.5 10.95 19.5 12V15H4.5V12C4.5 10.95 3.675 10.125 2.625 10.125C1.575 10.125 0.75 10.95 0.75 12V19.125H23.25Z" stroke="white" stroke-width="1.5" stroke-linecap="round" stroke-linejoin="round"/>
</svg>
