<svg width="24" height="24" viewBox="0 0 24 24" fill="none" xmlns="http://www.w3.org/2000/svg">
<g clip-path="url(#clip0_455_5095)">
<path d="M23.3353 6.50634C23.2828 3.40209 20.6593 0.823734 17.5555 0.823734C15.8996 0.823734 14.356 1.53469 13.2792 2.71322C13.2784 2.71397 13.2776 2.71453 13.2769 2.71528C13.2632 2.72902 13.2508 2.74359 13.2392 2.7585C12.9691 3.06038 12.7293 3.39197 12.5256 3.74963L10.8732 0.907734C10.5427 0.339281 9.9529 0 9.29543 0C8.63801 0 8.04823 0.339328 7.71776 0.907688L1.81414 11.0613C1.81391 11.0618 1.81152 11.0658 1.81123 11.0662L1.80481 11.0772C1.80219 11.0817 1.79966 11.0862 1.79717 11.0907C1.01389 12.461 0.623235 14.0249 0.667438 15.6143C0.793954 20.163 4.62312 23.9362 9.17328 23.9991C13.1015 24.0551 16.6682 21.3423 17.6525 17.5349C17.7174 17.2843 17.5667 17.0285 17.316 16.9636C17.0654 16.8991 16.8096 17.0496 16.7448 17.3002C15.867 20.6956 12.6877 23.109 9.18626 23.0616C5.13275 23.0055 1.71748 19.6413 1.60475 15.5881C1.56523 14.1676 1.91497 12.7703 2.61617 11.5475C2.61734 11.5455 2.61847 11.5434 2.61959 11.5414C2.61992 11.5408 2.62025 11.5403 2.62039 11.5401L8.52837 1.37897C8.68906 1.10259 8.97584 0.937594 9.29548 0.937594C9.61512 0.937594 9.9019 1.10259 10.0626 1.37897L12.1624 4.99027C12.1632 4.99172 12.1638 4.99322 12.1647 4.99467L14.5946 9.1733C14.5947 9.17353 14.5949 9.17377 14.595 9.174L15.9344 11.4776C15.9377 11.4838 15.9411 11.49 15.9447 11.4961C16.298 12.1014 16.5667 12.754 16.7433 13.4356C16.8082 13.6863 17.064 13.8371 17.3146 13.772C17.5653 13.707 17.7159 13.4513 17.6509 13.2006C17.4546 12.4424 17.1566 11.716 16.765 11.0415C16.7619 11.0356 16.7586 11.0297 16.7553 11.0239L15.8148 9.4065H21.7668C22.3234 9.4065 22.8213 9.05747 23.0056 8.53795C23.0056 8.53786 23.0056 8.53781 23.0056 8.53772C23.2363 7.88639 23.3472 7.20295 23.3353 6.50634V6.50634ZM16.9702 7.55048C17.0246 7.45584 17.0981 7.39383 17.1841 7.32984L18.6735 6.28734L18.0751 8.00348C17.9192 8.40975 17.4336 8.61398 17.0798 8.28319C16.8797 8.09616 16.8336 7.788 16.9702 7.55048ZM21.7667 8.46877H18.8999C18.9204 8.4218 18.9389 8.37413 18.9557 8.3258L19.9085 5.59313C19.9938 5.34863 19.9123 5.07933 19.7058 4.92309C19.4994 4.76691 19.2182 4.76161 19.0059 4.91011L16.6351 6.56967C16.0293 6.99234 15.7883 7.78491 16.0875 8.46881H15.2696L13.0897 4.71975C13.2376 4.36997 13.4246 4.04391 13.6438 3.74517L14.0131 4.1145C14.1047 4.206 14.2247 4.2518 14.3446 4.2518C14.4646 4.2518 14.5846 4.206 14.6761 4.1145C14.8592 3.93141 14.8592 3.63455 14.6761 3.45145L14.2702 3.04552C15.0535 2.32467 16.0658 1.86759 17.1577 1.77825V2.53116C17.1577 2.79005 17.3676 2.99995 17.6265 2.99995C17.8855 2.99995 18.0953 2.79005 18.0953 2.53116V1.79156C19.1137 1.9057 20.0658 2.34117 20.8298 3.04594L20.4243 3.4515C20.2412 3.63459 20.2412 3.93145 20.4243 4.11455C20.5158 4.20605 20.6358 4.25184 20.7558 4.25184C20.8758 4.25184 20.9957 4.20605 21.0873 4.11455L21.4569 3.74494C22.0308 4.52236 22.358 5.44805 22.3947 6.42056H21.9056C21.6466 6.42056 21.4368 6.63047 21.4368 6.88936C21.4368 7.14825 21.6467 7.35816 21.9056 7.35816H22.34C22.2941 7.65281 22.2216 7.94245 22.1217 8.22459C22.0698 8.37061 21.9272 8.46877 21.7667 8.46877V8.46877Z" fill="white"/>
<path d="M17.891 15.1894C17.7294 14.7953 17.148 14.8196 17.0135 15.2216C16.8792 15.6231 17.3292 15.9832 17.6925 15.7743C17.8934 15.6587 17.9801 15.4034 17.891 15.1894Z" fill="white"/>
<path d="M4 17C4.16667 18 5.2 20.2 8 21" stroke="white" stroke-linecap="round"/>
</g>
<defs>
<clipPath id="clip0_455_5095">
<rect width="24" height="24" fill="white"/>
</clipPath>
</defs>
</svg>
