<svg width="24" height="24" viewBox="0 0 24 24" fill="none" xmlns="http://www.w3.org/2000/svg">
<g clip-path="url(#clip0_458_5113)">
<path d="M8.77003 21.7325C8.57358 21.7325 8.39358 21.8596 8.32805 22.0449C8.26177 22.2322 8.32388 22.4462 8.4796 22.5692C8.63377 22.6911 8.85455 22.7027 9.02058 22.5975C9.1823 22.4951 9.26667 22.2993 9.2302 22.1114C9.18797 21.8939 8.99138 21.7325 8.77003 21.7325Z" fill="white"/>
<path d="M17.3677 17.0757C18.9048 15.5374 18.9048 13.0343 17.3677 11.496C16.623 10.7506 15.6328 10.3402 14.5796 10.3402C13.5263 10.3402 12.5361 10.7506 11.7915 11.4959C10.2544 13.0343 10.2544 15.5374 11.7915 17.0757C12.5362 17.821 13.5264 18.2315 14.5796 18.2315C15.6328 18.2315 16.623 17.821 17.3677 17.0757ZM12.4547 12.1586C13.0222 11.5905 13.7768 11.2777 14.5795 11.2777C15.3822 11.2777 16.1369 11.5906 16.7045 12.1587C17.8765 13.3316 17.8765 15.2401 16.7045 16.413C16.1368 16.9811 15.3822 17.294 14.5795 17.294C13.7769 17.294 13.0222 16.9811 12.4547 16.413C11.2826 15.2401 11.2827 13.3315 12.4547 12.1586Z" fill="white"/>
<path d="M23.4755 20.6486L21.208 18.3792C21.12 18.2912 21.0007 18.2417 20.8764 18.2417C20.752 18.2417 20.6327 18.2912 20.5448 18.3792L19.9384 18.9861L19.2702 18.3172C21.3568 15.889 21.2507 12.2118 18.9516 9.91082C18.054 9.01252 16.929 8.4244 15.7065 8.20037C13.2583 4.00606 9.24629 0.545699 9.075 0.398927C8.89949 0.248593 8.64064 0.24864 8.46513 0.398927C8.37911 0.472571 6.33457 2.23228 4.25694 4.76603C3.03101 6.26112 2.05265 7.71346 1.34893 9.08269C0.453862 10.8243 0 12.4428 0 13.8932C0 17.8812 2.68872 21.3725 6.53844 22.3833C6.57838 22.3938 6.61841 22.3988 6.65784 22.3988C6.86574 22.3988 7.05563 22.2595 7.1109 22.0489C7.17667 21.7985 7.02699 21.5422 6.77658 21.4765C3.33867 20.5738 0.937539 17.4554 0.937539 13.8932C0.937539 8.79374 7.29091 2.7259 8.77034 1.3825C9.70071 2.22591 12.5574 4.93385 14.5483 8.09856C12.9085 8.10666 11.368 8.74954 10.2077 9.91086C7.79727 12.3232 7.79727 16.2485 10.2077 18.6609C11.0536 19.5075 12.1014 20.0786 13.2425 20.329C12.4919 20.8517 11.6515 21.2424 10.7711 21.4746C10.5208 21.5406 10.3714 21.797 10.4374 22.0473C10.4929 22.2576 10.6826 22.3967 10.8904 22.3967C10.9299 22.3967 10.9701 22.3917 11.0102 22.3811C12.3213 22.0354 13.5528 21.376 14.5741 20.4732H14.5797C16.0739 20.4732 17.4872 19.9464 18.6077 18.9805L19.2757 19.6493L18.6687 20.2567C18.4859 20.4398 18.4859 20.7364 18.6687 20.9194L20.9348 23.1873C21.274 23.5268 21.7252 23.7138 22.2052 23.7138C22.6852 23.7138 23.1363 23.5268 23.4755 23.1873C24.1749 22.4874 24.1749 21.3485 23.4755 20.6486ZM10.8709 10.5735C11.8616 9.58202 13.1787 9.03595 14.5796 9.03595C15.9806 9.03595 17.2977 9.58202 18.2883 10.5735C20.3337 12.6204 20.3337 15.9511 18.2883 17.9982C17.2977 18.9897 15.9806 19.5357 14.5796 19.5357C13.1787 19.5357 11.8616 18.9897 10.8709 17.9982C8.82552 15.9512 8.82552 12.6205 10.8709 10.5735ZM22.8123 22.5246C22.6501 22.6869 22.4345 22.7763 22.2051 22.7763C21.9757 22.7763 21.7601 22.6869 21.598 22.5246L19.663 20.5881L20.8764 19.3737L22.8123 21.3112C23.1465 21.6458 23.1465 22.1901 22.8123 22.5246Z" fill="white"/>
<path d="M14.9349 15.353L15.9184 13.9943C16.0702 13.7845 16.0232 13.4915 15.8135 13.3397C15.6039 13.1879 15.3108 13.2348 15.159 13.4445L14.4904 14.3682L14.1729 14.0651C13.9856 13.8864 13.6889 13.8932 13.5101 14.0806C13.3313 14.2678 13.3382 14.5646 13.5254 14.7433L14.2315 15.4173C14.3191 15.5009 14.4351 15.547 14.5551 15.547C14.5693 15.547 14.5835 15.5463 14.5977 15.545C14.7326 15.5327 14.8555 15.4627 14.9349 15.353Z" fill="white"/>
</g>
<defs>
<clipPath id="clip0_458_5113">
<rect width="24" height="24" fill="white"/>
</clipPath>
</defs>
</svg>
