<svg width="48" height="48" viewBox="0 0 48 48" fill="none" xmlns="http://www.w3.org/2000/svg">
<rect width="48" height="48" rx="24" fill="#E6F2FF"/>
<path d="M23.04 15.8274C23.04 15.5623 23.2549 15.3474 23.52 15.3474H24.48C24.7451 15.3474 24.96 15.5623 24.96 15.8274C24.96 16.0924 24.7451 16.3074 24.48 16.3074H23.52C23.2549 16.3074 23.04 16.0924 23.04 15.8274Z" fill="#339FD9"/>
<path d="M25.4404 15.8274C25.4404 15.5623 25.6553 15.3474 25.9204 15.3474C26.1855 15.3474 26.4004 15.5623 26.4004 15.8274C26.4004 16.0924 26.1855 16.3074 25.9204 16.3074C25.6553 16.3074 25.4404 16.0924 25.4404 15.8274Z" fill="#339FD9"/>
<path d="M21.6001 15.8274C21.6001 15.5623 21.815 15.3474 22.0801 15.3474C22.3452 15.3474 22.5601 15.5623 22.5601 15.8274C22.5601 16.0924 22.3452 16.3074 22.0801 16.3074C21.815 16.3074 21.6001 16.0924 21.6001 15.8274Z" fill="#339FD9"/>
<path d="M18.7203 12.2686C18.5329 12.456 18.5329 12.7599 18.7203 12.9474C18.9078 13.1348 19.2116 13.1348 19.3991 12.9474L20.4997 11.8467L20.4964 11.8432C20.589 11.7556 20.6417 11.6337 20.6422 11.5059C20.6427 11.3782 20.5911 11.2561 20.4992 11.1675L19.3988 10.0671C19.2113 9.8796 18.9073 9.8797 18.7199 10.0674C18.5326 10.2548 18.5328 10.5585 18.7201 10.7459L19.0016 11.0274H16.3203C16.0552 11.0274 15.8403 11.2423 15.8403 11.5074C15.8403 11.7725 16.0552 11.9874 16.3203 11.9874H19.0016L18.7203 12.2686Z" fill="#339FD9"/>
<path d="M18.7203 16.1086C18.5329 16.296 18.5329 16.5999 18.7203 16.7873C18.9078 16.9748 19.2116 16.9748 19.3991 16.7873L20.4997 15.6867L20.4964 15.6832C20.589 15.5956 20.6417 15.4737 20.6422 15.3459C20.6427 15.2182 20.5911 15.0961 20.4992 15.0075L19.3986 13.9069C19.2112 13.7194 18.9073 13.7194 18.7199 13.9069C18.5324 14.0943 18.5324 14.3982 18.7199 14.5856L19.0016 14.8673H16.3203C16.0552 14.8673 15.8403 15.0823 15.8403 15.3473C15.8403 15.6124 16.0552 15.8273 16.3203 15.8273H19.0016L18.7203 16.1086Z" fill="#339FD9"/>
<path d="M30.2399 14.1886C30.0524 14.376 30.0524 14.6799 30.2399 14.8673C30.4273 15.0548 30.7312 15.0548 30.9186 14.8673L32.0192 13.7667L32.0159 13.7632C32.1085 13.6756 32.1613 13.5537 32.1617 13.4259C32.1622 13.2982 32.1106 13.1761 32.0188 13.0875L30.9184 11.9871C30.7308 11.7996 30.4268 11.7997 30.2394 11.9874C30.0522 12.1748 30.0523 12.4785 30.2396 12.6659L30.5211 12.9474H27.8399C27.5748 12.9474 27.3599 13.1623 27.3599 13.4274C27.3599 13.6924 27.5748 13.9074 27.8399 13.9074H30.5211L30.2399 14.1886Z" fill="#339FD9"/>
<path d="M34.0801 37.4273V35.5073H36.9601C37.2252 35.5073 37.4401 35.2924 37.4401 35.0273V34.0673C37.4375 33.4591 37.0534 32.9182 36.4801 32.7155V20.1473C36.4801 18.5566 35.1906 17.2673 33.6001 17.2673C32.0096 17.2673 30.7201 18.5566 30.7201 20.1473V32.7155C30.1468 32.9182 29.7627 33.4591 29.7601 34.0673V35.0273C29.7601 35.2924 29.975 35.5073 30.2401 35.5073H33.1201V37.4273H24.4801V35.5073H27.3601C27.6252 35.5073 27.8401 35.2924 27.8401 35.0273V34.0673C27.8375 33.4591 27.4534 32.9182 26.8801 32.7155V20.1473C26.8801 18.5566 25.5906 17.2673 24.0001 17.2673C22.4096 17.2673 21.1201 18.5566 21.1201 20.1473V32.7155C20.5468 32.9182 20.1627 33.4591 20.1601 34.0673V35.0273C20.1601 35.2924 20.375 35.5073 20.6401 35.5073H23.5201V37.4273H14.8801V35.5073H17.7601C18.0252 35.5073 18.2401 35.2924 18.2401 35.0273V34.0673C18.2375 33.4591 17.8534 32.9182 17.2801 32.7155V20.1473C17.2801 18.5566 15.9906 17.2673 14.4001 17.2673C12.8096 17.2673 11.5201 18.5566 11.5201 20.1473V32.7155C10.9468 32.9182 10.5627 33.4591 10.5601 34.0673V35.0273C10.5601 35.2924 10.775 35.5073 11.0401 35.5073H13.9201V37.4273H10.0801C9.815 37.4273 9.6001 37.6423 9.6001 37.9073C9.6001 38.1724 9.815 38.3873 10.0801 38.3873H37.9201C38.1852 38.3873 38.4001 38.1724 38.4001 37.9073C38.4001 37.6423 38.1852 37.4273 37.9201 37.4273H34.0801ZM31.6801 20.1473C31.6801 19.0868 32.5398 18.2273 33.6001 18.2273C34.6604 18.2273 35.5201 19.0868 35.5201 20.1473V32.6273H31.6801V20.1473ZM30.7201 34.5473V34.0673C30.7201 33.8023 30.935 33.5873 31.2001 33.5873H36.0001C36.2652 33.5873 36.4801 33.8023 36.4801 34.0673V34.5473H30.7201ZM22.0801 20.1473C22.0801 19.0868 22.9398 18.2273 24.0001 18.2273C25.0604 18.2273 25.9201 19.0868 25.9201 20.1473V32.6273H22.0801V20.1473ZM21.1201 34.5473V34.0673C21.1201 33.8023 21.335 33.5873 21.6001 33.5873H26.4001C26.6652 33.5873 26.8801 33.8023 26.8801 34.0673V34.5473H21.1201ZM12.4801 20.1473C12.4801 19.0868 13.3398 18.2273 14.4001 18.2273C15.4604 18.2273 16.3201 19.0868 16.3201 20.1473V32.6273H12.4801V20.1473ZM11.5201 34.5473V34.0673C11.5201 33.8023 11.735 33.5873 12.0001 33.5873H16.8001C17.0652 33.5873 17.2801 33.8023 17.2801 34.0673V34.5473H11.5201Z" fill="#339FD9"/>
<path d="M34.0801 31.6673C34.0801 31.4023 34.295 31.1873 34.5601 31.1873C34.8252 31.1873 35.0401 31.4023 35.0401 31.6673C35.0401 31.9324 34.8252 32.1473 34.5601 32.1473C34.295 32.1473 34.0801 31.9324 34.0801 31.6673Z" fill="#339FD9"/>
<path d="M32.6401 31.6673C32.6401 31.4023 32.855 31.1873 33.1201 31.1873C33.3852 31.1873 33.6001 31.4023 33.6001 31.6673C33.6001 31.9324 33.3852 32.1473 33.1201 32.1473C32.855 32.1473 32.6401 31.9324 32.6401 31.6673Z" fill="#339FD9"/>
<path d="M34.0801 30.2273C34.0801 29.9622 34.295 29.7473 34.5601 29.7473C34.8252 29.7473 35.0401 29.9622 35.0401 30.2273C35.0401 30.4924 34.8252 30.7073 34.5601 30.7073C34.295 30.7073 34.0801 30.4924 34.0801 30.2273Z" fill="#339FD9"/>
<path d="M24.48 31.6673C24.48 31.4023 24.6949 31.1873 24.96 31.1873C25.2251 31.1873 25.44 31.4023 25.44 31.6673C25.44 31.9324 25.2251 32.1473 24.96 32.1473C24.6949 32.1473 24.48 31.9324 24.48 31.6673Z" fill="#339FD9"/>
<path d="M23.04 31.6673C23.04 31.4023 23.2549 31.1873 23.52 31.1873C23.7851 31.1873 24 31.4023 24 31.6673C24 31.9324 23.7851 32.1473 23.52 32.1473C23.2549 32.1473 23.04 31.9324 23.04 31.6673Z" fill="#339FD9"/>
<path d="M24.48 30.2273C24.48 29.9622 24.6949 29.7473 24.96 29.7473C25.2251 29.7473 25.44 29.9622 25.44 30.2273C25.44 30.4924 25.2251 30.7073 24.96 30.7073C24.6949 30.7073 24.48 30.4924 24.48 30.2273Z" fill="#339FD9"/>
<path d="M14.8799 31.6673C14.8799 31.4023 15.0948 31.1873 15.3599 31.1873C15.625 31.1873 15.8399 31.4023 15.8399 31.6673C15.8399 31.9324 15.625 32.1473 15.3599 32.1473C15.0948 32.1473 14.8799 31.9324 14.8799 31.6673Z" fill="#339FD9"/>
<path d="M13.4404 31.6673C13.4404 31.4023 13.6553 31.1873 13.9204 31.1873C14.1855 31.1873 14.4004 31.4023 14.4004 31.6673C14.4004 31.9324 14.1855 32.1473 13.9204 32.1473C13.6553 32.1473 13.4404 31.9324 13.4404 31.6673Z" fill="#339FD9"/>
<path d="M14.8799 30.2273C14.8799 29.9622 15.0948 29.7473 15.3599 29.7473C15.625 29.7473 15.8399 29.9622 15.8399 30.2273C15.8399 30.4924 15.625 30.7073 15.3599 30.7073C15.0948 30.7073 14.8799 30.4924 14.8799 30.2273Z" fill="#339FD9"/>
<path d="M24.0001 14.8674C25.0604 14.8674 25.9201 14.0077 25.9201 12.9474C25.9201 12.0478 24.65 10.1632 24.3952 9.79454C24.3008 9.67196 24.1548 9.60001 24.0001 9.60001C23.8454 9.60001 23.6994 9.67196 23.6049 9.79454C23.3502 10.1632 22.0801 12.0478 22.0801 12.9474C22.0801 14.0077 22.9398 14.8674 24.0001 14.8674ZM24.0001 10.9413C24.5122 11.7574 24.9601 12.6291 24.9601 12.9474C24.9601 13.4775 24.5302 13.9074 24.0001 13.9074C23.4699 13.9074 23.0401 13.4775 23.0401 12.9474C23.0401 12.6295 23.488 11.7598 24.0001 10.9413Z" fill="#339FD9"/>
</svg>
