<svg width="48" height="48" viewBox="0 0 48 48" fill="none" xmlns="http://www.w3.org/2000/svg">
<rect width="48" height="48" rx="24" fill="#E6F2FF"/>
<path d="M13.4399 15.2273C13.4399 14.9622 13.6548 14.7473 13.9199 14.7473H14.8799C15.145 14.7473 15.3599 14.9622 15.3599 15.2273C15.3599 15.4924 15.145 15.7073 14.8799 15.7073H13.9199C13.6548 15.7073 13.4399 15.4924 13.4399 15.2273Z" fill="#339FD9"/>
<path d="M15.8403 15.2273C15.8403 14.9622 16.0552 14.7473 16.3203 14.7473C16.5854 14.7473 16.8003 14.9622 16.8003 15.2273C16.8003 15.4924 16.5854 15.7073 16.3203 15.7073C16.0552 15.7073 15.8403 15.4924 15.8403 15.2273Z" fill="#339FD9"/>
<path d="M12 15.2273C12 14.9622 12.2149 14.7473 12.48 14.7473C12.7451 14.7473 12.96 14.9622 12.96 15.2273C12.96 15.4924 12.7451 15.7073 12.48 15.7073C12.2149 15.7073 12 15.4924 12 15.2273Z" fill="#339FD9"/>
<path d="M20.6398 13.5886C20.4523 13.776 20.4523 14.0799 20.6398 14.2673C20.8272 14.4548 21.1311 14.4548 21.3185 14.2673L22.4191 13.1667L22.4159 13.1632C22.5084 13.0755 22.5612 12.9537 22.5616 12.8259C22.5621 12.6982 22.5105 12.5761 22.4187 12.4875L21.3183 11.3871C21.1308 11.1996 20.8267 11.1997 20.6393 11.3873C20.4521 11.5748 20.4522 11.8785 20.6395 12.0659L20.921 12.3473H18.2398C17.9747 12.3473 17.7598 12.5622 17.7598 12.8273C17.7598 13.0924 17.9747 13.3073 18.2398 13.3073H20.921L20.6398 13.5886Z" fill="#339FD9"/>
<path d="M34.0801 37.4273V35.5073H36.9601C37.2252 35.5073 37.4401 35.2924 37.4401 35.0273V34.0673C37.4375 33.4591 37.0534 32.9182 36.4801 32.7155V20.1473C36.4801 18.5566 35.1906 17.2673 33.6001 17.2673C32.0096 17.2673 30.7201 18.5566 30.7201 20.1473V32.7155C30.1468 32.9182 29.7627 33.4591 29.7601 34.0673V35.0273C29.7601 35.2924 29.975 35.5073 30.2401 35.5073H33.1201V37.4273H24.4801V35.5073H27.3601C27.6252 35.5073 27.8401 35.2924 27.8401 35.0273V34.0673C27.8375 33.4591 27.4534 32.9182 26.8801 32.7155V20.1473C26.8801 18.5566 25.5906 17.2673 24.0001 17.2673C22.4096 17.2673 21.1201 18.5566 21.1201 20.1473V32.7155C20.5468 32.9182 20.1627 33.4591 20.1601 34.0673V35.0273C20.1601 35.2924 20.375 35.5073 20.6401 35.5073H23.5201V37.4273H14.8801V35.5073H17.7601C18.0252 35.5073 18.2401 35.2924 18.2401 35.0273V34.0673C18.2375 33.4591 17.8534 32.9182 17.2801 32.7155V20.1473C17.2801 18.5566 15.9906 17.2673 14.4001 17.2673C12.8096 17.2673 11.5201 18.5566 11.5201 20.1473V32.7155C10.9468 32.9182 10.5627 33.4591 10.5601 34.0673V35.0273C10.5601 35.2924 10.775 35.5073 11.0401 35.5073H13.9201V37.4273H10.0801C9.815 37.4273 9.6001 37.6422 9.6001 37.9073C9.6001 38.1724 9.815 38.3873 10.0801 38.3873H37.9201C38.1852 38.3873 38.4001 38.1724 38.4001 37.9073C38.4001 37.6422 38.1852 37.4273 37.9201 37.4273H34.0801ZM31.6801 20.1473C31.6801 19.0868 32.5398 18.2273 33.6001 18.2273C34.6604 18.2273 35.5201 19.0868 35.5201 20.1473V32.6273H31.6801V20.1473ZM30.7201 34.5473V34.0673C30.7201 33.8023 30.935 33.5873 31.2001 33.5873H36.0001C36.2652 33.5873 36.4801 33.8023 36.4801 34.0673V34.5473H30.7201ZM22.0801 20.1473C22.0801 19.0868 22.9398 18.2273 24.0001 18.2273C25.0604 18.2273 25.9201 19.0868 25.9201 20.1473V32.6273H22.0801V20.1473ZM21.1201 34.5473V34.0673C21.1201 33.8023 21.335 33.5873 21.6001 33.5873H26.4001C26.6652 33.5873 26.8801 33.8023 26.8801 34.0673V34.5473H21.1201ZM12.4801 20.1473C12.4801 19.0868 13.3398 18.2273 14.4001 18.2273C15.4604 18.2273 16.3201 19.0868 16.3201 20.1473V32.6273H12.4801V20.1473ZM11.5201 34.5473V34.0673C11.5201 33.8023 11.735 33.5873 12.0001 33.5873H16.8001C17.0652 33.5873 17.2801 33.8023 17.2801 34.0673V34.5473H11.5201Z" fill="#339FD9"/>
<path d="M34.0801 31.6673C34.0801 31.4023 34.295 31.1873 34.5601 31.1873C34.8252 31.1873 35.0401 31.4023 35.0401 31.6673C35.0401 31.9324 34.8252 32.1473 34.5601 32.1473C34.295 32.1473 34.0801 31.9324 34.0801 31.6673Z" fill="#339FD9"/>
<path d="M32.6401 31.6673C32.6401 31.4023 32.855 31.1873 33.1201 31.1873C33.3852 31.1873 33.6001 31.4023 33.6001 31.6673C33.6001 31.9324 33.3852 32.1473 33.1201 32.1473C32.855 32.1473 32.6401 31.9324 32.6401 31.6673Z" fill="#339FD9"/>
<path d="M34.0801 30.2273C34.0801 29.9622 34.295 29.7473 34.5601 29.7473C34.8252 29.7473 35.0401 29.9622 35.0401 30.2273C35.0401 30.4924 34.8252 30.7073 34.5601 30.7073C34.295 30.7073 34.0801 30.4924 34.0801 30.2273Z" fill="#339FD9"/>
<path d="M24.48 31.6673C24.48 31.4023 24.6949 31.1873 24.96 31.1873C25.2251 31.1873 25.44 31.4023 25.44 31.6673C25.44 31.9324 25.2251 32.1473 24.96 32.1473C24.6949 32.1473 24.48 31.9324 24.48 31.6673Z" fill="#339FD9"/>
<path d="M23.0405 31.6673C23.0405 31.4023 23.2554 31.1873 23.5205 31.1873C23.7856 31.1873 24.0005 31.4023 24.0005 31.6673C24.0005 31.9324 23.7856 32.1473 23.5205 32.1473C23.2554 32.1473 23.0405 31.9324 23.0405 31.6673Z" fill="#339FD9"/>
<path d="M24.48 30.2273C24.48 29.9622 24.6949 29.7473 24.96 29.7473C25.2251 29.7473 25.44 29.9622 25.44 30.2273C25.44 30.4924 25.2251 30.7073 24.96 30.7073C24.6949 30.7073 24.48 30.4924 24.48 30.2273Z" fill="#339FD9"/>
<path d="M14.8799 31.6673C14.8799 31.4023 15.0948 31.1873 15.3599 31.1873C15.625 31.1873 15.8399 31.4023 15.8399 31.6673C15.8399 31.9324 15.625 32.1473 15.3599 32.1473C15.0948 32.1473 14.8799 31.9324 14.8799 31.6673Z" fill="#339FD9"/>
<path d="M13.4404 31.6673C13.4404 31.4023 13.6553 31.1873 13.9204 31.1873C14.1855 31.1873 14.4004 31.4023 14.4004 31.6673C14.4004 31.9324 14.1855 32.1473 13.9204 32.1473C13.6553 32.1473 13.4404 31.9324 13.4404 31.6673Z" fill="#339FD9"/>
<path d="M14.8799 30.2273C14.8799 29.9622 15.0948 29.7473 15.3599 29.7473C15.625 29.7473 15.8399 29.9622 15.8399 30.2273C15.8399 30.4924 15.625 30.7073 15.3599 30.7073C15.0948 30.7073 14.8799 30.4924 14.8799 30.2273Z" fill="#339FD9"/>
<path d="M14.4 14.2673C15.4603 14.2673 16.32 13.4077 16.32 12.3473C16.32 11.4478 15.0499 9.5632 14.7951 9.19453C14.7007 9.07195 14.5547 9 14.4 9C14.2453 9 14.0993 9.07195 14.0048 9.19453C13.7501 9.5632 12.48 11.4478 12.48 12.3473C12.48 13.4077 13.3397 14.2673 14.4 14.2673ZM14.4 10.3413C14.9121 11.1574 15.36 12.0291 15.36 12.3473C15.36 12.8775 14.9301 13.3073 14.4 13.3073C13.8698 13.3073 13.44 12.8775 13.44 12.3473C13.44 12.0295 13.8879 11.1598 14.4 10.3413Z" fill="#339FD9"/>
</svg>
