<svg width="48" height="48" viewBox="0 0 48 48" fill="none" xmlns="http://www.w3.org/2000/svg">
<rect width="48" height="48" rx="24" fill="#E6F2FF"/>
<path d="M32.1997 15.2273C32.1997 14.9622 32.4146 14.7473 32.6797 14.7473H33.6397C33.9048 14.7473 34.1197 14.9622 34.1197 15.2273C34.1197 15.4924 33.9048 15.7073 33.6397 15.7073H32.6797C32.4146 15.7073 32.1997 15.4924 32.1997 15.2273Z" fill="#339FD9"/>
<path d="M34.6001 15.2273C34.6001 14.9622 34.815 14.7473 35.0801 14.7473C35.3452 14.7473 35.5601 14.9622 35.5601 15.2273C35.5601 15.4924 35.3452 15.7073 35.0801 15.7073C34.815 15.7073 34.6001 15.4924 34.6001 15.2273Z" fill="#339FD9"/>
<path d="M30.7598 15.2273C30.7598 14.9622 30.9747 14.7473 31.2398 14.7473C31.5049 14.7473 31.7198 14.9622 31.7198 15.2273C31.7198 15.4924 31.5049 15.7073 31.2398 15.7073C30.9747 15.7073 30.7598 15.4924 30.7598 15.2273Z" fill="#339FD9"/>
<path d="M27.88 11.6686C27.6926 11.856 27.6926 12.1599 27.88 12.3473C28.0674 12.5348 28.3713 12.5348 28.5587 12.3473L29.6594 11.2467L29.6561 11.2432C29.7487 11.1556 29.8014 11.0337 29.8019 10.9059C29.8023 10.7782 29.7508 10.6561 29.6589 10.5675L28.5585 9.46711C28.371 9.27959 28.0669 9.27969 27.8795 9.46735C27.6923 9.65482 27.6924 9.95852 27.8798 10.1459L28.1612 10.4273H25.48C25.2149 10.4273 25 10.6423 25 10.9073C25 11.1724 25.2149 11.3873 25.48 11.3873H28.1612L27.88 11.6686Z" fill="#339FD9"/>
<path d="M27.88 15.5086C27.6926 15.696 27.6926 15.9999 27.88 16.1873C28.0674 16.3748 28.3713 16.3748 28.5587 16.1873L29.6594 15.0867L29.6561 15.0832C29.7487 14.9955 29.8014 14.8737 29.8019 14.7459C29.8023 14.6182 29.7508 14.4961 29.6589 14.4075L28.5583 13.3069C28.3708 13.1194 28.067 13.1194 27.8795 13.3069C27.6921 13.4943 27.6921 13.7982 27.8795 13.9856L28.1612 14.2673H25.48C25.2149 14.2673 25 14.4822 25 14.7473C25 15.0124 25.2149 15.2273 25.48 15.2273H28.1612L27.88 15.5086Z" fill="#339FD9"/>
<path d="M34.0801 37.4273V35.5073H36.9601C37.2252 35.5073 37.4401 35.2924 37.4401 35.0273V34.0673C37.4375 33.4591 37.0534 32.9182 36.4801 32.7155V20.1473C36.4801 18.5566 35.1906 17.2673 33.6001 17.2673C32.0096 17.2673 30.7201 18.5566 30.7201 20.1473V32.7155C30.1468 32.9182 29.7627 33.4591 29.7601 34.0673V35.0273C29.7601 35.2924 29.975 35.5073 30.2401 35.5073H33.1201V37.4273H24.4801V35.5073H27.3601C27.6252 35.5073 27.8401 35.2924 27.8401 35.0273V34.0673C27.8375 33.4591 27.4534 32.9182 26.8801 32.7155V20.1473C26.8801 18.5566 25.5906 17.2673 24.0001 17.2673C22.4096 17.2673 21.1201 18.5566 21.1201 20.1473V32.7155C20.5468 32.9182 20.1627 33.4591 20.1601 34.0673V35.0273C20.1601 35.2924 20.375 35.5073 20.6401 35.5073H23.5201V37.4273H14.8801V35.5073H17.7601C18.0252 35.5073 18.2401 35.2924 18.2401 35.0273V34.0673C18.2375 33.4591 17.8534 32.9182 17.2801 32.7155V20.1473C17.2801 18.5566 15.9906 17.2673 14.4001 17.2673C12.8096 17.2673 11.5201 18.5566 11.5201 20.1473V32.7155C10.9468 32.9182 10.5627 33.4591 10.5601 34.0673V35.0273C10.5601 35.2924 10.775 35.5073 11.0401 35.5073H13.9201V37.4273H10.0801C9.815 37.4273 9.6001 37.6422 9.6001 37.9073C9.6001 38.1724 9.815 38.3873 10.0801 38.3873H37.9201C38.1852 38.3873 38.4001 38.1724 38.4001 37.9073C38.4001 37.6422 38.1852 37.4273 37.9201 37.4273H34.0801ZM31.6801 20.1473C31.6801 19.0868 32.5398 18.2273 33.6001 18.2273C34.6604 18.2273 35.5201 19.0868 35.5201 20.1473V32.6273H31.6801V20.1473ZM30.7201 34.5473V34.0673C30.7201 33.8023 30.935 33.5873 31.2001 33.5873H36.0001C36.2652 33.5873 36.4801 33.8023 36.4801 34.0673V34.5473H30.7201ZM22.0801 20.1473C22.0801 19.0868 22.9398 18.2273 24.0001 18.2273C25.0604 18.2273 25.9201 19.0868 25.9201 20.1473V32.6273H22.0801V20.1473ZM21.1201 34.5473V34.0673C21.1201 33.8023 21.335 33.5873 21.6001 33.5873H26.4001C26.6652 33.5873 26.8801 33.8023 26.8801 34.0673V34.5473H21.1201ZM12.4801 20.1473C12.4801 19.0868 13.3398 18.2273 14.4001 18.2273C15.4604 18.2273 16.3201 19.0868 16.3201 20.1473V32.6273H12.4801V20.1473ZM11.5201 34.5473V34.0673C11.5201 33.8023 11.735 33.5873 12.0001 33.5873H16.8001C17.0652 33.5873 17.2801 33.8023 17.2801 34.0673V34.5473H11.5201Z" fill="#339FD9"/>
<path d="M34.0801 31.6673C34.0801 31.4023 34.295 31.1873 34.5601 31.1873C34.8252 31.1873 35.0401 31.4023 35.0401 31.6673C35.0401 31.9324 34.8252 32.1473 34.5601 32.1473C34.295 32.1473 34.0801 31.9324 34.0801 31.6673Z" fill="#339FD9"/>
<path d="M32.6401 31.6673C32.6401 31.4023 32.855 31.1873 33.1201 31.1873C33.3852 31.1873 33.6001 31.4023 33.6001 31.6673C33.6001 31.9324 33.3852 32.1473 33.1201 32.1473C32.855 32.1473 32.6401 31.9324 32.6401 31.6673Z" fill="#339FD9"/>
<path d="M34.0801 30.2273C34.0801 29.9622 34.295 29.7473 34.5601 29.7473C34.8252 29.7473 35.0401 29.9622 35.0401 30.2273C35.0401 30.4924 34.8252 30.7073 34.5601 30.7073C34.295 30.7073 34.0801 30.4924 34.0801 30.2273Z" fill="#339FD9"/>
<path d="M24.48 31.6673C24.48 31.4023 24.6949 31.1873 24.96 31.1873C25.2251 31.1873 25.44 31.4023 25.44 31.6673C25.44 31.9324 25.2251 32.1473 24.96 32.1473C24.6949 32.1473 24.48 31.9324 24.48 31.6673Z" fill="#339FD9"/>
<path d="M23.0405 31.6673C23.0405 31.4023 23.2554 31.1873 23.5205 31.1873C23.7856 31.1873 24.0005 31.4023 24.0005 31.6673C24.0005 31.9324 23.7856 32.1473 23.5205 32.1473C23.2554 32.1473 23.0405 31.9324 23.0405 31.6673Z" fill="#339FD9"/>
<path d="M24.48 30.2273C24.48 29.9622 24.6949 29.7473 24.96 29.7473C25.2251 29.7473 25.44 29.9622 25.44 30.2273C25.44 30.4924 25.2251 30.7073 24.96 30.7073C24.6949 30.7073 24.48 30.4924 24.48 30.2273Z" fill="#339FD9"/>
<path d="M14.8799 31.6673C14.8799 31.4023 15.0948 31.1873 15.3599 31.1873C15.625 31.1873 15.8399 31.4023 15.8399 31.6673C15.8399 31.9324 15.625 32.1473 15.3599 32.1473C15.0948 32.1473 14.8799 31.9324 14.8799 31.6673Z" fill="#339FD9"/>
<path d="M13.4404 31.6673C13.4404 31.4023 13.6553 31.1873 13.9204 31.1873C14.1855 31.1873 14.4004 31.4023 14.4004 31.6673C14.4004 31.9324 14.1855 32.1473 13.9204 32.1473C13.6553 32.1473 13.4404 31.9324 13.4404 31.6673Z" fill="#339FD9"/>
<path d="M14.8799 30.2273C14.8799 29.9622 15.0948 29.7473 15.3599 29.7473C15.625 29.7473 15.8399 29.9622 15.8399 30.2273C15.8399 30.4924 15.625 30.7073 15.3599 30.7073C15.0948 30.7073 14.8799 30.4924 14.8799 30.2273Z" fill="#339FD9"/>
<path d="M33.1597 14.2673C34.2201 14.2673 35.0797 13.4077 35.0797 12.3473C35.0797 11.4478 33.8097 9.5632 33.5549 9.19453C33.4604 9.07195 33.3144 9 33.1597 9C33.0051 9 32.859 9.07195 32.7646 9.19453C32.5098 9.5632 31.2397 11.4478 31.2397 12.3473C31.2397 13.4077 32.0994 14.2673 33.1597 14.2673ZM33.1597 10.3413C33.6719 11.1574 34.1197 12.0291 34.1197 12.3473C34.1197 12.8775 33.6899 13.3073 33.1597 13.3073C32.6296 13.3073 32.1997 12.8775 32.1997 12.3473C32.1997 12.0295 32.6476 11.1598 33.1597 10.3413Z" fill="#339FD9"/>
</svg>
