<svg width="24" height="24" viewBox="0 0 24 24" fill="none" xmlns="http://www.w3.org/2000/svg">
<path d="M8.55566 17.5555V18.6667C8.55566 19.1044 8.64189 19.5379 8.8094 19.9423C8.97692 20.3467 9.22244 20.7141 9.53198 21.0237C9.84155 21.3332 10.209 21.5788 10.6133 21.7462C11.0178 21.9138 11.4512 22 11.889 22C12.3268 22 12.7602 21.9138 13.1647 21.7462C13.569 21.5788 13.9364 21.3332 14.246 21.0237C14.5556 20.7141 14.8011 20.3467 14.9686 19.9423C15.1361 19.5379 15.2223 19.1044 15.2223 18.6667V17.5555" stroke="white" stroke-width="2" stroke-linecap="round" stroke-linejoin="round"/>
<path d="M20.7778 17.5556C20.7778 17.5556 18.5556 12 18.5556 8.66667C18.5556 5.03556 15.52 2 11.8889 2C8.25778 2 5.22222 5.03556 5.22222 8.66667C5.22222 13.1111 3 17.5556 3 17.5556H20.7778Z" stroke="white" stroke-width="2" stroke-linecap="round" stroke-linejoin="round"/>
</svg>
