<svg width="24" height="24" viewBox="0 0 24 24" fill="none" xmlns="http://www.w3.org/2000/svg">
<path d="M16.8698 16.3214C16.9944 16.3214 17.114 16.2719 17.2021 16.1838C17.2902 16.0956 17.3398 15.9761 17.3398 15.8515V11.3114C17.3398 11.1868 17.2902 11.0673 17.2021 10.9791C17.114 10.891 16.9944 10.8414 16.8698 10.8414C16.7451 10.8414 16.6256 10.891 16.5374 10.9791C16.4493 11.0673 16.3998 11.1868 16.3998 11.3114V13.0414H14.1998V11.3114C14.1998 11.1868 14.1502 11.0673 14.0621 10.9791C13.974 10.891 13.8544 10.8414 13.7298 10.8414C13.6051 10.8414 13.4856 10.891 13.3974 10.9791C13.3093 11.0673 13.2598 11.1868 13.2598 11.3114V15.8615C13.2598 15.9861 13.3093 16.1056 13.3974 16.1938C13.4856 16.2819 13.6051 16.3315 13.7298 16.3315C13.8544 16.3315 13.974 16.2819 14.0621 16.1938C14.1502 16.1056 14.1998 15.9861 14.1998 15.8615V13.9814H16.3998V15.8615C16.4024 15.9844 16.453 16.1014 16.5409 16.1873C16.6288 16.2733 16.7468 16.3215 16.8698 16.3214Z" fill="white"/>
<path d="M10.17 12.3414C9.77558 12.3396 9.38939 12.4544 9.06002 12.6714C9.0335 12.5755 8.97591 12.4911 8.8963 12.4314C8.81668 12.3717 8.71953 12.3401 8.62002 12.3414C8.49708 12.3414 8.37902 12.3896 8.29116 12.4756C8.2033 12.5615 8.15264 12.6785 8.15002 12.8015V17.8615C8.1402 17.9282 8.14488 17.9963 8.16374 18.0612C8.1826 18.126 8.21521 18.1859 8.25933 18.237C8.30346 18.2881 8.35805 18.3291 8.41943 18.3572C8.48081 18.3853 8.54752 18.3998 8.61502 18.3998C8.68252 18.3998 8.74923 18.3853 8.8106 18.3572C8.87198 18.3291 8.92659 18.2881 8.97071 18.237C9.01484 18.1859 9.04743 18.126 9.0663 18.0612C9.08516 17.9963 9.08985 17.9282 9.08003 17.8615V16.0515C9.34241 16.2029 9.63579 16.2928 9.938 16.3144C10.2402 16.3359 10.5434 16.2885 10.8246 16.1757C11.1058 16.0629 11.3577 15.8877 11.5613 15.6633C11.7648 15.4389 11.9148 15.1712 11.9998 14.8804C12.0848 14.5896 12.1026 14.2833 12.0518 13.9846C12.0011 13.6859 11.8832 13.4026 11.707 13.1561C11.5307 12.9097 11.3008 12.7065 11.0346 12.5619C10.7683 12.4173 10.4727 12.3351 10.17 12.3215V12.3414ZM10.17 15.4514C9.95444 15.4514 9.7437 15.3875 9.56445 15.2677C9.3852 15.148 9.24549 14.9778 9.16299 14.7786C9.08049 14.5794 9.05891 14.3602 9.10096 14.1488C9.14302 13.9374 9.24683 13.7431 9.39927 13.5907C9.55171 13.4383 9.74594 13.3344 9.95738 13.2924C10.1688 13.2503 10.388 13.2719 10.5872 13.3544C10.7863 13.4369 10.9566 13.5766 11.0763 13.7559C11.1961 13.9351 11.26 14.1459 11.26 14.3615C11.26 14.5046 11.2318 14.6463 11.177 14.7786C11.1223 14.9108 11.042 15.031 10.9408 15.1322C10.8395 15.2334 10.7194 15.3137 10.5872 15.3685C10.4549 15.4233 10.3132 15.4514 10.17 15.4514Z" fill="white"/>
<path d="M18.67 8.47895C18.24 7.77948 15.57 3.93727 13.97 1.63194C13.8318 1.43683 13.6478 1.2775 13.4336 1.16748C13.2195 1.05746 12.9815 1 12.74 1C12.4985 1 12.2605 1.05746 12.0464 1.16748C11.8323 1.2775 11.6482 1.43683 11.51 1.63194C10.9771 2.37667 10.3243 3.28972 9.66119 4.22226M6.29 9.09962C5.17793 10.6855 4.51831 12.5363 4.38 14.459C4.34115 15.5665 4.52902 16.6704 4.93241 17.7049C5.33581 18.7393 5.94647 19.6832 6.72799 20.4802C7.50952 21.2772 8.44592 21.9111 9.48138 22.344C10.5168 22.7769 11.6302 23 12.755 23C13.8798 23 14.9932 22.7769 16.0286 22.344C17.0641 21.9111 18.0005 21.2772 18.782 20.4802C19.5635 19.6832 20.1742 18.7393 20.5776 17.7049C20.981 16.6704 21.1689 15.5665 21.13 14.459C21.1161 13.5149 20.9086 12.5833 20.52 11.7202" stroke="white" stroke-miterlimit="10" stroke-linecap="round"/>
<path d="M19.6401 10.7715C19.9163 10.7715 20.1401 10.5476 20.1401 10.2715C20.1401 9.99531 19.9163 9.77145 19.6401 9.77145C19.364 9.77145 19.1401 9.99531 19.1401 10.2715C19.1401 10.5476 19.364 10.7715 19.6401 10.7715Z" fill="white"/>
<path d="M7 0.61145C7 3.37287 9.23856 5.61145 12 5.61145C9.23856 5.61145 7 7.85001 7 10.6114C7 7.85001 4.76142 5.61145 2 5.61145C4.76142 5.61145 7 3.37287 7 0.61145Z" stroke="white" stroke-linecap="round" stroke-linejoin="round"/>
</svg>
