<svg width="18" height="18" viewBox="0 0 18 18" fill="none" xmlns="http://www.w3.org/2000/svg">
    <path
        d="M12.1249 7.75V4C12.1249 3.1712 11.7956 2.37634 11.2096 1.79029C10.6235 1.20424 9.82867 0.875 8.99987 0.875C8.17106 0.875 7.37621 1.20424 6.79016 1.79029C6.20411 2.37634 5.87487 3.1712 5.87487 4V7.75M15.3382 6.08917L16.3907 16.0892C16.449 16.6433 16.0157 17.125 15.4582 17.125H2.54153C2.41004 17.1251 2.27999 17.0976 2.15982 17.0442C2.03966 16.9908 1.93207 16.9127 1.84405 16.8151C1.75603 16.7174 1.68954 16.6023 1.64891 16.4772C1.60828 16.3521 1.59441 16.2199 1.6082 16.0892L2.66153 6.08917C2.68583 5.8588 2.79455 5.64558 2.96674 5.49063C3.13893 5.33568 3.36239 5.24996 3.59403 5.25H14.4057C14.8857 5.25 15.2882 5.6125 15.3382 6.08917ZM6.18737 7.75C6.18737 7.83288 6.15444 7.91237 6.09584 7.97097C6.03723 8.02958 5.95775 8.0625 5.87487 8.0625C5.79198 8.0625 5.7125 8.02958 5.65389 7.97097C5.59529 7.91237 5.56237 7.83288 5.56237 7.75C5.56237 7.66712 5.59529 7.58763 5.65389 7.52903C5.7125 7.47042 5.79198 7.4375 5.87487 7.4375C5.95775 7.4375 6.03723 7.47042 6.09584 7.52903C6.15444 7.58763 6.18737 7.66712 6.18737 7.75ZM12.4374 7.75C12.4374 7.83288 12.4044 7.91237 12.3458 7.97097C12.2872 8.02958 12.2077 8.0625 12.1249 8.0625C12.042 8.0625 11.9625 8.02958 11.9039 7.97097C11.8453 7.91237 11.8124 7.83288 11.8124 7.75C11.8124 7.66712 11.8453 7.58763 11.9039 7.52903C11.9625 7.47042 12.042 7.4375 12.1249 7.4375C12.2077 7.4375 12.2872 7.47042 12.3458 7.52903C12.4044 7.58763 12.4374 7.66712 12.4374 7.75Z"
        stroke="#75A3C7" stroke-width="1.25" stroke-linecap="round" stroke-linejoin="round" />
</svg>