<svg width="22" height="21" viewBox="0 0 22 21" fill="none" xmlns="http://www.w3.org/2000/svg">
    <path fill-rule="evenodd" clip-rule="evenodd"
        d="M1.15901 0.83874C0.737053 1.37578 0.5 2.10415 0.5 2.86364V18.1364C0.5 18.8958 0.737053 19.6242 1.15901 20.1613C1.58097 20.6983 2.15326 21 2.75 21H19.25C19.8467 21 20.419 20.6983 20.841 20.1613C21.2629 19.6242 21.5 18.8958 21.5 18.1364V2.86364C21.5 2.10415 21.2629 1.37578 20.841 0.83874C20.419 0.301704 19.8467 0 19.25 0H2.75C2.15326 0 1.58097 0.301704 1.15901 0.83874ZM2 18.1364V15.6685L6.94 9.38127C7.22125 9.02376 7.6025 8.82295 8 8.82295C8.3975 8.82295 8.77875 9.02376 9.06 9.38127L14.22 15.9473C14.2887 16.0411 14.3715 16.1163 14.4635 16.1684C14.5555 16.2206 14.6548 16.2487 14.7555 16.2509C14.8562 16.2532 14.9562 16.2296 15.0496 16.1816C15.143 16.1336 15.2278 16.0621 15.299 15.9715C15.3703 15.8809 15.4264 15.7729 15.4641 15.654C15.5018 15.5352 15.5204 15.4079 15.5186 15.2797C15.5168 15.1515 15.4948 15.0251 15.4538 14.908C15.4128 14.791 15.3537 14.6856 15.28 14.5982L14.31 13.3636L15.19 12.2449C15.4713 11.8874 15.8525 11.6866 16.25 11.6866C16.6475 11.6866 17.0287 11.8874 17.31 12.2449L20 15.6673V18.1364C20 18.3895 19.921 18.6323 19.7803 18.8113C19.6397 18.9903 19.4489 19.0909 19.25 19.0909H2.75C2.336 19.0909 2 18.6633 2 18.1364ZM14 7.625C15.1046 7.625 16 6.72957 16 5.625C16 4.52043 15.1046 3.625 14 3.625C12.8954 3.625 12 4.52043 12 5.625C12 6.72957 12.8954 7.625 14 7.625Z"
        fill="#75A3C7" />
</svg>