<svg width="22" height="20" viewBox="0 0 22 20" fill="none" xmlns="http://www.w3.org/2000/svg">
    <path
        d="M12.5001 19V11.5C12.5001 11.3011 12.5791 11.1103 12.7198 10.9697C12.8604 10.829 13.0512 10.75 13.2501 10.75H16.2501C16.449 10.75 16.6398 10.829 16.7804 10.9697C16.9211 11.1103 17.0001 11.3011 17.0001 11.5V19M12.5001 19H1.36011M12.5001 19H17.0001M17.0001 19H20.6401M19.2501 19V7.349C19.6487 7.11891 19.989 6.80019 20.2447 6.41751C20.5004 6.03484 20.6646 5.59846 20.7247 5.14215C20.7847 4.68584 20.7389 4.22184 20.5909 3.78605C20.4429 3.35026 20.1966 2.95436 19.8711 2.629L18.6811 1.44C18.4001 1.15862 18.0188 1.00035 17.6211 1H4.37811C3.98042 1.00035 3.59915 1.15862 3.31811 1.44L2.12911 2.628C1.80435 2.95374 1.55873 3.3497 1.41118 3.78537C1.26364 4.22104 1.21811 4.68477 1.27811 5.14082C1.33811 5.59686 1.50204 6.03304 1.75725 6.41571C2.01246 6.79839 2.35215 7.11735 2.75011 7.348M2.75011 18.999V7.35C3.35013 7.69598 4.05136 7.82376 4.73486 7.71167C5.41835 7.59958 6.04203 7.25451 6.50011 6.735C6.78141 7.05445 7.12761 7.31022 7.51561 7.48525C7.9036 7.66028 8.32447 7.75054 8.75011 7.75C9.64611 7.75 10.4501 7.357 11.0001 6.734C11.2813 7.05363 11.6275 7.30959 12.0155 7.48479C12.4035 7.66 12.8244 7.75041 13.2501 7.75C14.1461 7.75 14.9501 7.357 15.5001 6.734C15.9583 7.25335 16.5821 7.59822 17.2656 7.71013C17.949 7.82204 18.6502 7.6941 19.2501 7.348M5.75011 15.999H9.50011C9.69902 15.999 9.88979 15.92 10.0304 15.7793C10.1711 15.6387 10.2501 15.4479 10.2501 15.249V11.5C10.2501 11.3011 10.1711 11.1103 10.0304 10.9697C9.88979 10.829 9.69902 10.75 9.50011 10.75H5.75011C5.5512 10.75 5.36043 10.829 5.21978 10.9697C5.07913 11.1103 5.00011 11.3011 5.00011 11.5V15.25C5.00011 15.665 5.33611 15.999 5.75011 15.999Z"
        stroke="#75A3C7" stroke-width="1.5" stroke-linecap="round" stroke-linejoin="round" />
</svg>