<svg width="17" height="17" viewBox="0 0 17 17" fill="none" xmlns="http://www.w3.org/2000/svg">
<path fill-rule="evenodd" clip-rule="evenodd" d="M9.15962 12.943L12.9396 9.163C13.0293 9.07837 13.1013 8.97677 13.1516 8.86409C13.2026 8.74961 13.23 8.62603 13.2322 8.50073C13.2344 8.37543 13.2114 8.25096 13.1644 8.13475C13.1175 8.01855 13.0476 7.91299 12.959 7.82437C12.8704 7.73575 12.7648 7.66589 12.6486 7.61896C12.5324 7.57202 12.408 7.54897 12.2826 7.55118C12.1573 7.55339 12.0338 7.58082 11.9193 7.63182C11.8066 7.68204 11.705 7.75409 11.6204 7.84378L9.43323 10.0309V0.933234C9.43323 0.685724 9.33491 0.448353 9.15989 0.273338C8.98488 0.0983226 8.74751 0 8.5 0C8.25249 0 8.01512 0.0983224 7.8401 0.273338C7.66509 0.448353 7.56676 0.685725 7.56676 0.933234V10.0309L5.37965 7.84379C5.295 7.75409 5.1934 7.68204 5.08071 7.63182C4.96623 7.58082 4.84266 7.55339 4.71735 7.55118C4.59204 7.54897 4.46758 7.57202 4.35137 7.61896C4.23517 7.66589 4.12961 7.73575 4.04099 7.82437C3.95237 7.91299 3.88251 8.01855 3.83557 8.13475C3.78864 8.25096 3.76559 8.37542 3.7678 8.50073C3.77001 8.62603 3.79743 8.74961 3.84844 8.86409C3.89865 8.97678 3.9707 9.07838 4.0604 9.16302L7.84051 12.9431C8.01549 13.1179 8.25269 13.2161 8.5 13.2161C8.7473 13.2161 8.98463 13.1178 9.15962 12.943ZM1.59313 11.6235C1.41812 11.4485 1.18074 11.3501 0.933234 11.3501C0.685724 11.3501 0.448353 11.4485 0.273338 11.6235C0.0983226 11.7985 0 12.0359 0 12.2834V14.1751C0 14.9243 0.297625 15.6428 0.827401 16.1726C1.35718 16.7024 2.07571 17 2.82492 17H14.1751C14.9243 17 15.6428 16.7024 16.1726 16.1726C16.7024 15.6428 17 14.9243 17 14.1751V12.2834C17 12.0359 16.9017 11.7985 16.7267 11.6235C16.5516 11.4485 16.3143 11.3501 16.0668 11.3501C15.8193 11.3501 15.5819 11.4485 15.4069 11.6235C15.2318 11.7985 15.1335 12.0359 15.1335 12.2834V14.1751C15.1335 14.4293 15.0325 14.6731 14.8528 14.8528C14.6731 15.0325 14.4293 15.1335 14.1751 15.1335H2.82492C2.57073 15.1335 2.32694 15.0325 2.14719 14.8528C1.96745 14.6731 1.86647 14.4293 1.86647 14.1751V12.2834C1.86647 12.0359 1.76815 11.7985 1.59313 11.6235Z" fill="white"/>
</svg>
