<svg width="22" height="21" viewBox="0 0 22 21" fill="none" xmlns="http://www.w3.org/2000/svg">
    <path
        d="M0.5 3C0.5 1.34531 1.67715 0 3.125 0H18.875C20.3229 0 21.5 1.34531 21.5 3V18C21.5 19.6547 20.3229 21 18.875 21H3.125C1.67715 21 0.5 19.6547 0.5 18V3ZM2.46875 15.75V17.25C2.46875 17.6625 2.76406 18 3.125 18H4.4375C4.79844 18 5.09375 17.6625 5.09375 17.25V15.75C5.09375 15.3375 4.79844 15 4.4375 15H3.125C2.76406 15 2.46875 15.3375 2.46875 15.75ZM17.5625 15C17.2016 15 16.9062 15.3375 16.9062 15.75V17.25C16.9062 17.6625 17.2016 18 17.5625 18H18.875C19.2359 18 19.5312 17.6625 19.5312 17.25V15.75C19.5312 15.3375 19.2359 15 18.875 15H17.5625ZM2.46875 9.75V11.25C2.46875 11.6625 2.76406 12 3.125 12H4.4375C4.79844 12 5.09375 11.6625 5.09375 11.25V9.75C5.09375 9.3375 4.79844 9 4.4375 9H3.125C2.76406 9 2.46875 9.3375 2.46875 9.75ZM17.5625 9C17.2016 9 16.9062 9.3375 16.9062 9.75V11.25C16.9062 11.6625 17.2016 12 17.5625 12H18.875C19.2359 12 19.5312 11.6625 19.5312 11.25V9.75C19.5312 9.3375 19.2359 9 18.875 9H17.5625ZM2.46875 3.75V5.25C2.46875 5.6625 2.76406 6 3.125 6H4.4375C4.79844 6 5.09375 5.6625 5.09375 5.25V3.75C5.09375 3.3375 4.79844 3 4.4375 3H3.125C2.76406 3 2.46875 3.3375 2.46875 3.75ZM17.5625 3C17.2016 3 16.9062 3.3375 16.9062 3.75V5.25C16.9062 5.6625 17.2016 6 17.5625 6H18.875C19.2359 6 19.5312 5.6625 19.5312 5.25V3.75C19.5312 3.3375 19.2359 3 18.875 3H17.5625ZM7.0625 4.5V7.5C7.0625 8.32969 7.64902 9 8.375 9H13.625C14.351 9 14.9375 8.32969 14.9375 7.5V4.5C14.9375 3.67031 14.351 3 13.625 3H8.375C7.64902 3 7.0625 3.67031 7.0625 4.5ZM8.375 12C7.64902 12 7.0625 12.6703 7.0625 13.5V16.5C7.0625 17.3297 7.64902 18 8.375 18H13.625C14.351 18 14.9375 17.3297 14.9375 16.5V13.5C14.9375 12.6703 14.351 12 13.625 12H8.375Z"
        fill="#75A3C7" />
</svg>