<?xml version="1.0" standalone="no"?>
<!DOCTYPE svg PUBLIC "-//W3C//DTD SVG 20010904//EN"
 "http://www.w3.org/TR/2001/REC-SVG-20010904/DTD/svg10.dtd">
<svg version="1.0" xmlns="http://www.w3.org/2000/svg"
 width="1280.000000pt" height="822.000000pt" viewBox="0 0 1280.000000 822.000000"
 preserveAspectRatio="xMidYMid meet">
<metadata>
Created by potrace 1.15, written by Peter Selinger 2001-2017
</metadata>
<g transform="translate(0.000000,822.000000) scale(0.100000,-0.100000)"
fill="#000000" stroke="none">
<path d="M7428 8209 c-114 -16 -638 -166 -3103 -884 -2305 -672 -2743 -795
-2885 -811 l-65 -8 90 -28 c111 -35 197 -38 315 -10 94 23 147 38 1615 472
561 166 1218 360 1460 431 242 72 598 177 790 234 193 57 692 205 1110 328
l760 225 320 -29 c467 -41 1240 -106 1466 -123 169 -13 205 -13 263 -1 75 16
176 58 176 74 0 15 -34 19 -450 46 -1445 94 -1712 106 -1862 84z"/>
<path d="M9769 7870 c-150 -26 -1308 -372 -4229 -1265 -1971 -603 -2148 -655
-2279 -675 -83 -12 -136 -33 -146 -58 -19 -49 -35 -564 -19 -606 10 -26 47
-19 233 43 97 33 604 197 1126 366 523 168 1090 352 1260 409 315 106 422 132
485 118 90 -20 151 3 -1820 -688 l-1235 -432 3 -69 c1 -38 6 -82 11 -98 7 -26
12 -30 37 -27 35 4 156 44 339 112 216 81 709 248 1925 655 613 205 1248 418
1410 474 346 118 412 129 323 51 -62 -55 -171 -99 -858 -352 -269 -99 -816
-300 -1215 -448 -821 -304 -1280 -473 -1585 -585 -115 -43 -231 -88 -256 -101
-73 -36 -75 -40 -60 -157 24 -201 216 -1461 237 -1559 l5 -27 102 36 c118 40
481 175 1277 473 1078 403 1616 595 1644 584 18 -7 29 -41 24 -75 -5 -34 -43
-53 -413 -199 -181 -72 -375 -149 -430 -171 -55 -23 -300 -119 -545 -214 -789
-306 -1342 -525 -1450 -572 -158 -69 -202 -109 -147 -134 26 -12 71 5 2088
774 1418 541 1516 576 1577 557 15 -5 39 -11 55 -14 32 -7 37 -26 6 -26 -39 0
-658 -242 -2079 -813 -1709 -687 -1625 -651 -1623 -684 8 -133 8 -154 -7 -163
-26 -17 -96 -11 -178 15 -203 64 -320 132 -415 239 l-58 66 3 302 c3 297 3
303 -17 303 -18 0 -21 9 -27 85 -13 166 -78 398 -147 527 -40 73 -67 89 -101
58 -29 -26 -40 -93 -55 -344 -17 -267 -28 -359 -55 -467 -39 -153 -120 -255
-254 -325 -36 -19 -66 -37 -66 -40 0 -8 744 -369 931 -452 202 -90 289 -118
384 -124 134 -9 242 26 935 299 894 353 1193 468 1400 540 125 43 430 166 915
370 2596 1090 3306 1393 3516 1498 144 73 199 146 199 264 0 100 -89 587 -291
1586 -157 782 -179 917 -179 1117 0 8 -12 13 -30 13 -17 0 -39 9 -50 20 -21
21 -51 23 -131 10z"/>
<path d="M11615 6952 c-117 -10 -972 -186 -1080 -221 -80 -27 -269 -133 -273
-153 -8 -43 110 -65 257 -48 70 9 106 9 113 2 15 -15 -23 -37 -143 -82 -151
-58 -145 -43 -99 -240 21 -91 46 -205 56 -254 l18 -89 120 6 c67 4 146 14 176
23 89 26 281 114 677 310 392 194 384 188 498 317 47 53 94 70 202 71 93 1
106 -10 68 -61 -16 -21 -205 -213 -420 -428 -346 -345 -1295 -1330 -1888
-1962 -193 -205 -266 -273 -294 -273 -6 0 -23 -19 -37 -42 -14 -24 -77 -101
-140 -172 -175 -196 -242 -294 -381 -557 -135 -257 -130 -237 -130 -504 0
-263 4 -279 94 -417 168 -258 487 -443 986 -573 245 -64 306 -74 1360 -210
356 -46 1197 -133 1345 -138 64 -3 75 23 61 146 -19 155 -7 139 -124 166 -444
100 -899 173 -1642 261 -704 84 -1149 172 -1391 276 -45 19 -99 38 -119 41
-25 4 -39 12 -43 25 -2 10 -21 28 -42 38 -78 40 -174 187 -198 304 -38 182
145 586 423 936 256 323 464 542 1504 1580 554 553 1045 1048 1092 1100 257
285 357 484 335 664 -6 49 -14 66 -40 92 -46 46 -91 56 -270 61 -135 4 -176 2
-282 -18 -121 -22 -125 -22 -181 -5 -74 22 -130 32 -168 28z"/>
<path d="M1127 6370 c-65 -11 -120 -46 -199 -127 l-68 -68 59 -345 c33 -190
62 -357 66 -372 11 -43 37 -60 86 -56 41 3 44 5 47 35 2 18 -11 86 -29 150
-50 186 -58 232 -59 329 0 144 31 224 124 314 l46 44 713 -177 c838 -208 858
-213 889 -196 32 16 98 81 98 96 0 7 -18 17 -40 23 -62 17 -1112 265 -1240
294 -235 52 -406 71 -493 56z"/>
<path d="M2419 5685 c-48 -26 -64 -77 -64 -206 0 -116 0 -117 40 -194 83 -161
186 -150 231 26 40 156 -22 338 -129 378 -36 14 -46 13 -78 -4z"/>
<path d="M636 5329 c-190 -28 -490 -144 -535 -208 -152 -213 -125 -819 60
-1391 44 -135 129 -350 139 -350 23 0 271 82 470 155 270 100 314 112 335 95
52 -43 123 -389 128 -621 l2 -108 -35 -36 c-19 -20 -59 -48 -88 -62 -44 -21
-62 -25 -106 -20 -93 9 -197 80 -301 205 -143 169 -232 244 -294 246 -30 1
-37 -3 -39 -21 -6 -42 97 -211 262 -428 126 -167 244 -283 334 -328 l71 -35
109 24 c168 36 386 92 446 115 61 22 141 89 187 155 39 57 91 86 222 123 181
52 291 110 322 171 114 221 1 920 -240 1484 -131 307 -313 603 -458 744 l-55
54 -173 -58 c-154 -51 -184 -58 -255 -59 l-82 0 -101 69 c-79 55 -114 72 -163
82 -70 15 -78 15 -162 3z"/>
<path d="M5600 2810 c-54 -17 -629 -253 -689 -283 -96 -48 -93 -57 22 -72 70
-9 124 -75 174 -212 31 -85 31 -140 1 -152 -28 -11 -98 -84 -127 -132 -58 -99
-91 -252 -91 -429 0 -137 15 -235 49 -311 44 -99 95 -128 359 -203 103 -30
322 -95 487 -144 491 -148 592 -170 741 -158 127 9 182 24 202 52 9 14 24 34
32 45 l16 21 399 -61 c345 -52 926 -137 2540 -371 187 -27 684 -99 1105 -160
902 -131 1493 -214 1643 -231 102 -11 110 -11 135 8 48 35 154 267 140 305 -7
18 -77 28 -973 149 -368 49 -843 114 -1055 145 -1464 209 -3505 542 -3683 600
-90 30 -132 142 -109 294 15 108 56 192 132 273 36 39 60 73 57 81 -3 7 -31
28 -62 46 -67 38 -87 65 -93 130 -8 82 -21 89 -213 105 -90 8 -342 23 -559 35
-217 12 -447 24 -510 28 l-114 7 -24 90 c-30 118 -28 268 5 331 25 47 83 102
125 116 32 11 36 28 10 51 -20 18 -33 20 -72 7z"/>
<path d="M7175 1718 c-32 -17 -76 -61 -91 -90 -12 -23 -12 -27 3 -32 30 -12
283 -51 3578 -555 539 -83 1160 -178 1380 -211 220 -33 458 -70 529 -80 152
-24 159 -22 200 61 36 72 34 95 -6 108 -60 19 -389 69 -2023 306 -2956 430
-3477 505 -3514 505 -20 0 -45 -6 -56 -12z"/>
</g>
</svg>
