<?xml version="1.0" encoding="UTF-8"?>
<svg xmlns="http://www.w3.org/2000/svg" xmlns:xlink="http://www.w3.org/1999/xlink" width="934.23pt" height="714.31pt" viewBox="0 0 934.23 714.31" version="1.1">
<defs>
<clipPath id="clip1">
  <path d="M 0 0 L 701 0 L 701 714.308594 L 0 714.308594 Z M 0 0 "/>
</clipPath>
<clipPath id="clip2">
  <path d="M 724 78 L 934.230469 78 L 934.230469 328 L 724 328 Z M 724 78 "/>
</clipPath>
</defs>
<g id="surface1">
<g clip-path="url(#clip1)" clip-rule="nonzero">
<path style=" stroke:none;fill-rule:nonzero;fill:rgb(92.89856%,12.199402%,16.899109%);fill-opacity:1;" d="M 632.164063 230.941406 C 629.570313 238.035156 626.875 245.09375 624.398438 252.222656 C 609.121094 296.191406 591.765625 339.269531 565.171875 377.78125 C 556.847656 389.835938 546.898438 401.359375 535.660156 410.671875 C 515.9375 427.007813 471.855469 420.820313 456.398438 400.4375 C 452.71875 395.585938 449.9375 388.738281 449.8125 382.746094 C 449.457031 365.433594 448.164063 347.554688 451.734375 330.859375 C 462.375 281.089844 475.480469 231.847656 486.867188 182.226563 C 489.394531 171.230469 494.199219 165.0625 505.4375 163.667969 C 515.632813 162.402344 525.730469 159.429688 535.90625 159.257813 C 543.753906 159.121094 551.65625 162.15625 561.53125 164.195313 C 559.261719 174.210938 557.601563 181.570313 555.921875 188.925781 C 543.152344 244.820313 530.113281 300.65625 517.769531 356.640625 C 513.886719 374.257813 514.820313 378.308594 519.105469 394.902344 C 525.023438 389.570313 530.707031 385.628906 534.851563 380.453125 C 541.679688 371.921875 548.058594 362.921875 553.675781 353.550781 C 587.066406 297.8125 610.785156 238.085938 625.816406 174.941406 C 629.6875 158.679688 632.808594 142.03125 621.683594 127.101563 C 644.882813 112.570313 670.230469 119.015625 685.066406 142.648438 C 696.761719 161.273438 701.273438 182.367188 700.644531 203.714844 C 699.8125 231.972656 698.890625 260.671875 693.402344 288.265625 C 654.609375 483.304688 540.1875 616.503906 357.878906 692.296875 C 320.238281 707.945313 280.164063 715.316406 238.890625 714.199219 C 179.6875 712.601563 131.539063 688.914063 95.613281 641.933594 C 60.53125 596.054688 42.996094 543.410156 39.054688 486.039063 C 31.980469 383.023438 43.808594 281.339844 60.679688 180.015625 C 62.355469 169.953125 64.15625 159.910156 66.464844 146.617188 C 54.8125 149.820313 45.253906 152.386719 35.738281 155.09375 C 31.398438 156.324219 27.15625 157.882813 22.839844 159.195313 C 8.675781 163.5 4.773438 162.65625 1.691406 154.726563 C -2.589844 143.71875 1.386719 132.382813 12.183594 127.441406 C 29.765625 119.398438 47.503906 111.664063 65.417969 104.398438 C 73.339844 101.183594 77.625 96.425781 79.613281 87.902344 C 83.855469 69.710938 88.859375 51.671875 94.386719 33.828125 C 95.945313 28.796875 99.558594 21.78125 103.660156 20.585938 C 128.800781 13.265625 154.351563 7.359375 183.683594 -0.00390625 C 176.921875 22.308594 171.289063 40.90625 164.453125 63.464844 C 179.523438 58.074219 191.222656 53.90625 202.90625 49.703125 C 229.703125 40.0625 254.855469 48.226563 270.046875 71.515625 C 279.226563 85.597656 276.617188 94.285156 260.273438 98.765625 C 247.925781 102.148438 234.972656 103.289063 222.308594 105.554688 C 203.925781 108.847656 185.628906 112.703125 167.171875 115.464844 C 153.171875 117.554688 146.246094 124.316406 143.78125 138.761719 C 137.175781 177.503906 128.023438 215.824219 121.960938 254.640625 C 112.3125 316.40625 103.546875 378.335938 95.921875 440.382813 C 89.011719 496.566406 90.527344 552.464844 110.363281 606.492188 C 131.335938 663.605469 171.742188 697.625 232.039063 706.703125 C 280.507813 714.003906 325.476563 702.632813 367.3125 678.039063 C 400.992188 658.242188 430.261719 632.78125 455.390625 603.183594 C 478.71875 575.707031 501.589844 547.523438 521.5625 517.585938 C 564.246094 453.605469 602.292969 387.027344 621.507813 311.484375 C 628.164063 285.304688 634.34375 259.074219 636.042969 232.074219 C 634.75 231.699219 633.457031 231.320313 632.164063 230.941406 "/>
</g>
<path style=" stroke:none;fill-rule:nonzero;fill:rgb(92.89856%,12.199402%,16.899109%);fill-opacity:1;" d="M 310.441406 225.136719 C 284.757813 305.441406 259.367188 386.152344 254.132813 471.761719 C 257.453125 464.316406 260.832031 456.902344 264.085938 449.429688 C 293.414063 382.09375 322.65625 314.714844 352.09375 247.421875 C 358.285156 233.261719 364.851563 219.238281 371.824219 205.449219 C 381.980469 185.359375 385.277344 183.566406 406.625 188.246094 C 420.929688 191.386719 435.628906 194.320313 447.667969 205.496094 C 419.234375 275.730469 383.925781 344.550781 407.003906 423.703125 C 390.460938 432.164063 379.941406 430.375 373.46875 415.574219 C 368.679688 404.628906 365.609375 392.179688 365.109375 380.257813 C 363.925781 352.007813 364.730469 323.671875 364.730469 292.308594 C 361.609375 299.078125 359.175781 304.054688 356.992188 309.140625 C 331.863281 367.757813 306.914063 426.449219 281.535156 484.957031 C 277.203125 494.953125 271.167969 504.21875 265.773438 513.738281 C 260.777344 522.554688 252.949219 525.824219 243.042969 525.171875 C 224.601563 523.957031 207.75 518.289063 192.566406 507.722656 C 179.605469 498.703125 174.902344 485.308594 175.699219 470.644531 C 177.128906 444.3125 177.851563 417.636719 182.804688 391.863281 C 192.632813 340.691406 205.421875 290.09375 216.335938 239.117188 C 219.089844 226.257813 226.253906 220.386719 238.496094 219.113281 C 252.5625 217.652344 266.605469 215.507813 280.710938 215.011719 C 290.910156 214.652344 301.238281 216.367188 310.441406 225.136719 "/>
<g clip-path="url(#clip2)" clip-rule="nonzero">
<path style=" stroke:none;fill-rule:nonzero;fill:rgb(92.89856%,12.199402%,16.899109%);fill-opacity:1;" d="M 784.84375 273.019531 C 788.296875 265.421875 791.90625 259.535156 793.722656 253.140625 C 804.585938 214.871094 815.054688 176.488281 825.59375 138.128906 C 826.4375 135.054688 828.3125 131.042969 827.132813 128.875 C 824.269531 123.636719 820.792969 117.53125 815.886719 114.90625 C 809.660156 111.578125 805.566406 117.550781 802.636719 122.796875 C 801.386719 125.03125 800.1875 127.339844 799.304688 129.738281 C 785.277344 168.007813 777.277344 207.507813 775.796875 248.242188 C 775.5 256.371094 776.015625 264.746094 784.84375 273.019531 Z M 877.96875 220.679688 C 891.445313 217.519531 895.214844 207.992188 898.148438 199.285156 C 904.503906 180.421875 909.488281 161.089844 914.945313 141.921875 C 916.355469 136.972656 917.132813 131.828125 918.75 126.957031 C 921.433594 118.875 926.84375 120.859375 934.226563 123.527344 C 931.210938 146.28125 926.535156 168.160156 918.8125 189.140625 C 913.746094 202.898438 907.699219 216.789063 899.410156 228.757813 C 886.160156 247.886719 867.992188 250.761719 849.125 237.492188 C 842.859375 233.085938 838.089844 225.203125 835.039063 217.90625 C 831.402344 209.191406 830.34375 199.398438 827.257813 186.167969 C 822.113281 207.90625 818.824219 226.097656 813.402344 243.632813 C 806.578125 265.699219 799.425781 287.875 789.804688 308.808594 C 779.808594 330.558594 765.21875 332.777344 746.507813 318.117188 C 733.167969 307.667969 724.824219 294.167969 724.558594 276.914063 C 723.65625 218.128906 734.578125 161.542969 759.023438 108.050781 C 771.289063 81.203125 792.945313 73.175781 821.339844 82.265625 C 846.34375 90.269531 861.710938 109.132813 874.214844 130.621094 C 876.859375 135.171875 876.4375 141.859375 876.410156 147.554688 C 876.316406 165.585938 875.503906 183.613281 875.484375 201.640625 C 875.476563 207.691406 877.015625 213.746094 877.96875 220.679688 "/>
</g>
</g>
</svg>
