<svg width="38" height="38" viewBox="0 0 38 38" fill="none" xmlns="http://www.w3.org/2000/svg">
<g clip-path="url(#clip0_227_9397)">
<path d="M36.286 4.56126H36.7099C37.4213 4.56126 38 3.98259 38 3.27113V1.36406C38 0.652893 37.4213 0.0742188 36.7099 0.0742188H1.29013C0.578674 0.0742188 0 0.652893 0 1.36406V3.27113C0 3.9823 0.578674 4.56097 1.29013 4.56097H1.74269V33.5043H1.29013C0.578674 33.5043 0 34.0829 0 34.7941V36.7012C0 37.4123 0.578674 37.991 1.29013 37.991H36.7099C37.4213 37.991 38 37.4123 38 36.7012V34.7941C38 34.0829 37.4213 33.5043 36.7099 33.5043H36.286V4.56126ZM19.5708 33.5043V27.1797C20.6027 26.9289 21.3709 25.9971 21.3709 24.8894C21.3709 23.7816 20.6027 22.8501 19.5708 22.5993V21.4791H32.7313V33.5043H19.5708ZM19.0142 23.6462C19.6999 23.6462 20.2577 24.2037 20.2577 24.8894C20.2577 25.575 19.6999 26.1328 19.0142 26.1328C18.3288 26.1328 17.771 25.575 17.771 24.8894C17.771 24.204 18.3288 23.6462 19.0142 23.6462ZM2.85597 20.3658V18.6596H35.1727V20.3658H2.85597ZM2.85597 13.0202H35.1727V14.7266H2.85597V13.0202ZM2.85597 15.8399H35.1727V17.5464H2.85597V15.8399ZM35.1727 11.9069H2.85597V10.2004H35.1727V11.9069ZM1.11328 3.27113V1.36406C1.11328 1.26665 1.19243 1.1875 1.29013 1.1875H36.7099C36.8076 1.1875 36.8867 1.26665 36.8867 1.36406V3.27113C36.8867 3.36855 36.8076 3.44769 36.7099 3.44769H1.29013C1.19243 3.44798 1.11328 3.36855 1.11328 3.27113ZM35.1727 4.56126V6.26743H31.7308C31.4232 6.26743 31.1742 6.51675 31.1742 6.82407C31.1742 7.13167 31.4232 7.38071 31.7308 7.38071H35.1727V9.08716H2.85597V7.38071H29.504C29.8113 7.38071 30.0606 7.13167 30.0606 6.82407C30.0606 6.51675 29.8113 6.26743 29.504 6.26743H2.85597V4.56126H35.1727ZM2.85597 21.4791H4.18408V24.1159C4.18408 24.4235 4.43341 24.6725 4.74072 24.6725C5.04832 24.6725 5.29736 24.4235 5.29736 24.1159V21.4791H18.4576V22.5993C17.426 22.8501 16.6578 23.7816 16.6578 24.8894C16.6578 25.9971 17.426 26.9289 18.4576 27.1797V33.5043H5.29736V26.3427C5.29736 26.0351 5.04832 25.7861 4.74072 25.7861C4.43341 25.7861 4.18408 26.0351 4.18408 26.3427V33.5043H2.85597V21.4791ZM36.8867 34.7941V36.7012C36.8867 36.7986 36.8076 36.8777 36.7099 36.8777H1.29013C1.19243 36.8777 1.11328 36.7986 1.11328 36.7012V34.7941C1.11328 34.6967 1.19243 34.6175 1.29013 34.6175H36.7099C36.8076 34.6175 36.8867 34.6967 36.8867 34.7941ZM33.8446 33.5043V21.4791H35.1727V33.5043H33.8446Z" fill="#89B05F"/>
</g>
<defs>
<clipPath id="clip0_227_9397">
<rect width="38" height="38" fill="white"/>
</clipPath>
</defs>
</svg>
