<svg width="38" height="38" viewBox="0 0 38 38" fill="none" xmlns="http://www.w3.org/2000/svg">
<g clip-path="url(#clip0_227_9398)">
<path d="M37.9816 1.74625C37.8637 0.865229 37.1557 0.15834 36.2746 0.0415052C35.2518 -0.0941572 34.352 0.55037 34.086 1.46228H3.91389C3.65641 0.579392 2.80493 -0.0527813 1.82277 0.0308636C0.865764 0.112425 0.091826 0.884205 0.00788348 1.84106C-0.0806729 2.85031 0.586849 3.72314 1.50657 3.95629V16.8961C1.50657 17.2017 1.74203 17.4682 2.04751 17.4774C2.36356 17.4868 2.62283 17.2334 2.62283 16.9195V5.89508H5.04094V36.4426C4.26469 36.1361 3.39915 36.1361 2.62283 36.4426V19.1754C2.62283 18.8698 2.3873 18.6033 2.08189 18.5941C1.76584 18.5846 1.50657 18.8381 1.50657 19.1521V37.4022C1.50657 37.5765 1.57957 37.7467 1.7165 37.8547C1.93105 38.0239 2.22507 38.0128 2.42428 37.845C3.23989 37.1581 4.42394 37.1581 5.23956 37.845C5.34218 37.9314 5.47003 37.9763 5.59922 37.9762C5.67899 37.9762 5.75936 37.9591 5.83452 37.9241C5.87925 37.9033 5.9198 37.8764 5.95657 37.8456C5.95724 37.8452 5.95798 37.8456 5.95865 37.845C6.77426 37.158 7.95831 37.158 8.77392 37.845C8.774 37.845 8.77415 37.8443 8.77422 37.8443C8.81143 37.8756 8.85258 37.903 8.89805 37.9241C9.09496 38.0158 9.32699 37.9848 9.49302 37.845C10.3086 37.158 11.4927 37.158 12.3084 37.845C12.411 37.9314 12.5388 37.9762 12.668 37.9762C12.7478 37.9762 12.8282 37.959 12.9033 37.9241C12.9487 37.903 12.9897 37.8758 13.0269 37.8444C13.0271 37.8444 13.0272 37.845 13.0275 37.8449C13.8431 37.158 15.0271 37.158 15.8427 37.8449C15.9454 37.9313 16.0732 37.9761 16.2024 37.9761C16.3151 37.9761 16.4289 37.9419 16.5277 37.8716C16.6789 37.764 16.7604 37.5829 16.7604 37.3974V28.2411H21.3074V37.402C21.3074 37.5763 21.3804 37.7465 21.5173 37.8545C21.7319 38.0236 22.026 38.0126 22.225 37.8448C23.0407 37.1579 25.2709 37.9761 25.4001 37.9761C25.4798 37.9761 25.5602 37.959 25.6354 37.924C25.6807 37.9029 25.7218 37.8757 25.7589 37.8444C25.7591 37.8443 25.7593 37.845 25.7595 37.8448C26.5751 37.1579 27.7591 37.1579 28.5748 37.8448C28.6795 37.933 28.8071 37.9761 28.934 37.9761C29.0606 37.9761 29.186 37.9326 29.2877 37.8491C29.2897 37.8476 29.2921 37.8464 29.2939 37.8448C30.1095 37.1579 31.2936 37.1579 32.1092 37.8448C32.2118 37.9312 32.3397 37.9761 32.4689 37.976C32.5486 37.976 32.629 37.9589 32.7042 37.9239C32.7495 37.9029 32.7906 37.8756 32.8277 37.8443C32.8279 37.8442 32.8281 37.8449 32.8283 37.8447C33.6439 37.1578 34.828 37.1578 35.6436 37.8447C35.7463 37.9311 35.8741 37.9759 36.0033 37.9759C36.0831 37.9759 36.1634 37.9588 36.2386 37.9239C36.4354 37.8323 36.5613 37.6349 36.5613 37.4178L36.5708 3.93441C37.4784 3.66502 38.1182 2.76659 37.9816 1.74625ZM35.4545 4.77883H33.0339V2.57853H34.086C34.2774 3.23474 34.7969 3.75194 35.4544 3.94015V4.77883H35.4545ZM22.4236 2.57853H24.8442V4.77883H22.4236V2.57853ZM25.9604 2.57853H28.3809V4.77883H25.9604V2.57853ZM29.4972 2.57853H31.9177V4.77883H29.4972V2.57853ZM15.6441 4.77883H13.226V2.57853H15.6441V4.77883ZM6.15719 2.57853H8.57538V4.77883H6.15719V2.57853ZM9.69156 2.57853H12.1097V4.77883H9.69156V2.57853ZM1.12355 2.13516C1.05047 1.55991 1.53649 1.07389 2.1118 1.14705C2.50391 1.19691 2.82055 1.51355 2.87034 1.90573C2.94342 2.48097 2.4574 2.96699 1.88208 2.89384C1.48998 2.84391 1.17333 2.52726 1.12355 2.13516ZM2.62283 4.77883V3.91633C3.24361 3.71087 3.73015 3.20877 3.91396 2.57853H5.04094V4.77883H2.62283ZM6.15719 36.4426V5.89508H8.57538V36.4426C7.79906 36.1362 6.93344 36.1361 6.15719 36.4426ZM12.1097 36.4426C11.3335 36.1361 10.4679 36.1361 9.69156 36.4426V5.89508H12.1097V36.4426ZM15.6441 36.4426C14.8679 36.1361 14.0023 36.1361 13.226 36.4426V5.89508H15.6441V36.4426ZM16.7604 27.125V5.33696V2.57853H21.3073V27.125H16.7604ZM24.8417 36.4426C24.0654 36.1361 23.1998 36.1361 22.4235 36.4426V5.89508H24.8417V36.4426ZM31.9105 36.4426C31.1342 36.1361 30.2686 36.1361 29.4923 36.4426V19.8208C29.4923 19.5126 29.2424 19.2627 28.9342 19.2627C28.626 19.2627 28.3761 19.5126 28.3761 19.8208V36.4442C27.5997 36.1375 26.7344 36.136 25.9579 36.4426V5.89508H28.376V17.4533C28.376 17.759 28.6115 18.0254 28.9169 18.0346C29.233 18.0441 29.4923 17.7907 29.4923 17.4767V5.89508H31.9104V36.4426H31.9105ZM35.445 36.4426C34.6686 36.1361 33.8031 36.1361 33.0268 36.4426V5.89508H35.445V36.4426ZM36.1179 2.89377C35.5427 2.96692 35.0566 2.48097 35.1296 1.90565C35.1794 1.51355 35.4961 1.19691 35.8882 1.14697C36.4634 1.07382 36.9495 1.55976 36.8764 2.13508C36.8267 2.52726 36.51 2.84391 36.1179 2.89377Z" fill="#89B05F"/>
</g>
<defs>
<clipPath id="clip0_227_9398">
<rect width="38" height="38" fill="white"/>
</clipPath>
</defs>
</svg>
