<svg width="38" height="38" viewBox="0 0 38 38" fill="none" xmlns="http://www.w3.org/2000/svg">
<path d="M35.2372 1.35303H2.76318C2.38931 1.35342 2.03086 1.50212 1.76649 1.76649C1.50212 2.03086 1.35342 2.38931 1.35303 2.76318V4.6335C1.35299 4.70173 1.3664 4.76931 1.39249 4.83236C1.41859 4.89541 1.45686 4.9527 1.50511 5.00095C1.55336 5.0492 1.61065 5.08746 1.6737 5.11356C1.73675 5.13965 1.80432 5.15307 1.87256 5.15303H3.34268V35.352C3.34262 35.4269 3.35875 35.5008 3.38995 35.5688C3.42116 35.6368 3.46671 35.6973 3.52348 35.746C4.34932 36.359 5.3573 36.6764 6.38536 36.6473C6.92634 36.6495 7.4643 36.5666 7.97957 36.4018C8.30467 36.298 8.61668 36.1569 8.90939 35.9814C9.67462 36.4279 10.5469 36.6578 11.4328 36.6464C12.3177 36.6575 13.189 36.4276 13.9533 35.9814C14.7184 36.4282 15.5908 36.6583 16.4767 36.647C17.4318 36.6635 18.37 36.3933 19.17 35.8713H34.1375C34.2058 35.8713 34.2733 35.8579 34.3364 35.8318C34.3994 35.8057 34.4567 35.7674 34.505 35.7192C34.5532 35.6709 34.5915 35.6137 34.6176 35.5506C34.6437 35.4876 34.6571 35.42 34.6571 35.3517V5.15303H36.1272C36.1954 5.15307 36.263 5.13965 36.326 5.11356C36.3891 5.08746 36.4464 5.0492 36.4946 5.00095C36.5429 4.9527 36.5812 4.89541 36.6073 4.83236C36.6333 4.76931 36.6468 4.70173 36.6467 4.6335V2.76318C36.6462 2.38943 36.4976 2.03112 36.2334 1.76678C35.9692 1.50245 35.6109 1.35366 35.2372 1.35303ZM7.65954 35.4132C7.24767 35.5446 6.81768 35.6104 6.38536 35.6082C5.68186 35.6221 4.9883 35.4406 4.38175 35.084V5.15303H8.38956V35.0813C8.16037 35.2207 7.91528 35.3322 7.65954 35.4132ZM9.42773 35.0834V5.15303H13.4355V14.5833C12.488 15.8099 11.974 17.3162 11.974 18.8663C11.974 20.4163 12.488 21.9226 13.4355 23.1493V35.0837C12.8294 35.4412 12.1358 35.6231 11.4322 35.6088C10.7283 35.6231 10.0342 35.4411 9.42773 35.0834ZM18.4806 5.15303V11.8603C17.0052 11.9682 15.602 12.5412 14.4728 13.497V5.15303H18.4806ZM31.365 5.15303V32.5792H19.5197V25.8722C21.2894 25.7428 22.9446 24.9485 24.1527 23.6488C25.3609 22.3492 26.0324 20.6404 26.0324 18.866C26.0324 17.0915 25.3609 15.3828 24.1527 14.0831C22.9446 12.7835 21.2894 11.9891 19.5197 11.8597V5.15303H31.365ZM13.0119 18.8663C13.0119 17.6819 13.3631 16.5241 14.0211 15.5394C14.6791 14.5546 15.6143 13.7871 16.7086 13.3338C17.8028 12.8806 19.0068 12.762 20.1684 12.9931C21.33 13.2241 22.397 13.7945 23.2345 14.6319C24.072 15.4694 24.6423 16.5364 24.8734 17.698C25.1044 18.8596 24.9858 20.0637 24.5326 21.1579C24.0794 22.2521 23.3118 23.1873 22.3271 23.8453C21.3423 24.5033 20.1845 24.8545 19.0002 24.8545C17.4125 24.8527 15.8904 24.2213 14.7678 23.0986C13.6452 21.976 13.0137 20.4539 13.0119 18.8663ZM14.4737 35.0834V24.2356C15.6029 25.1912 17.0061 25.7643 18.4815 25.8722V35.0837C17.8697 35.4278 17.1796 35.6086 16.4776 35.6086C15.7757 35.6086 15.0855 35.4278 14.4737 35.0837V35.0834ZM33.6186 34.8325H19.5197V33.6183H31.8845C31.9528 33.6183 32.0204 33.6049 32.0834 33.5788C32.1465 33.5527 32.2037 33.5145 32.252 33.4662C32.3002 33.418 32.3385 33.3607 32.3646 33.2976C32.3907 33.2346 32.4041 33.167 32.4041 33.0988V5.15303H33.6183L33.6186 34.8325ZM35.6077 4.11396H2.39209V2.76318C2.39209 2.66476 2.43119 2.57037 2.50078 2.50078C2.57037 2.43119 2.66476 2.39209 2.76318 2.39209H35.2372C35.3356 2.39209 35.43 2.43119 35.4996 2.50078C35.5691 2.57037 35.6082 2.66476 35.6082 2.76318L35.6077 4.11396Z" fill="#89B05F"/>
<path d="M22.563 19C22.563 18.7541 22.3636 18.5547 22.1177 18.5547H17.1435L19.3167 16.3816C19.4911 16.2071 19.4906 15.9242 19.3155 15.7503C19.1414 15.5774 18.8601 15.5779 18.6865 15.7514L16.1451 18.2929C15.7546 18.6834 15.7546 19.3166 16.1451 19.7071L18.6864 22.2484C18.8599 22.4219 19.1411 22.4219 19.3146 22.2484C19.4879 22.0751 19.4881 21.794 19.3149 21.6205L17.1435 19.4453H22.1177C22.3636 19.4453 22.563 19.2459 22.563 19Z" fill="#89B05F"/>
</svg>
