<svg width="38" height="38" viewBox="0 0 38 38" fill="none" xmlns="http://www.w3.org/2000/svg">
<path d="M35.2376 1.35303H2.76367C2.3898 1.35342 2.03135 1.50212 1.76697 1.76649C1.5026 2.03086 1.35391 2.38931 1.35352 2.76318V4.6335C1.35348 4.70173 1.36689 4.76931 1.39298 4.83236C1.41908 4.89541 1.45735 4.9527 1.5056 5.00095C1.55385 5.0492 1.61113 5.08746 1.67418 5.11356C1.73723 5.13965 1.80481 5.15307 1.87305 5.15303H3.34317V35.352C3.34311 35.4269 3.35923 35.5008 3.39044 35.5688C3.42165 35.6368 3.4672 35.6973 3.52397 35.746C4.34981 36.359 5.35779 36.6764 6.38584 36.6473C6.92683 36.6495 7.46479 36.5666 7.98006 36.4018C8.30516 36.298 8.61717 36.1569 8.90988 35.9814C9.67511 36.4279 10.5474 36.6578 11.4333 36.6464C12.3182 36.6575 13.1895 36.4276 13.9538 35.9814C14.7189 36.4282 15.5913 36.6583 16.4772 36.647C17.4323 36.6635 18.3705 36.3933 19.1705 35.8713H34.138C34.2063 35.8713 34.2738 35.8579 34.3369 35.8318C34.3999 35.8057 34.4572 35.7674 34.5055 35.7192C34.5537 35.6709 34.592 35.6137 34.6181 35.5506C34.6442 35.4876 34.6576 35.42 34.6575 35.3517V5.15303H36.1277C36.1959 5.15307 36.2635 5.13965 36.3265 5.11356C36.3896 5.08746 36.4469 5.0492 36.4951 5.00095C36.5434 4.9527 36.5816 4.89541 36.6077 4.83236C36.6338 4.76931 36.6472 4.70173 36.6472 4.6335V2.76318C36.6467 2.38943 36.4981 2.03112 36.2339 1.76678C35.9696 1.50245 35.6114 1.35366 35.2376 1.35303ZM7.66003 35.4132C7.24816 35.5446 6.81817 35.6104 6.38584 35.6082C5.68235 35.6221 4.98879 35.4406 4.38223 35.084V5.15303H8.39005V35.0813C8.16086 35.2207 7.91577 35.3322 7.66003 35.4132ZM9.42822 35.0834V5.15303H13.436V14.5833C12.4885 15.8099 11.9744 17.3162 11.9744 18.8663C11.9744 20.4163 12.4885 21.9226 13.436 23.1493V35.0837C12.8299 35.4412 12.1363 35.6231 11.4327 35.6088C10.7287 35.6231 10.0347 35.4411 9.42822 35.0834ZM18.4811 5.15303V11.8603C17.0057 11.9682 15.6025 12.5412 14.4733 13.497V5.15303H18.4811ZM31.3655 5.15303V32.5792H19.5202V25.8722C21.2899 25.7428 22.9451 24.9485 24.1532 23.6488C25.3613 22.3492 26.0329 20.6404 26.0329 18.866C26.0329 17.0915 25.3613 15.3828 24.1532 14.0831C22.9451 12.7835 21.2899 11.9891 19.5202 11.8597V5.15303H31.3655ZM13.0124 18.8663C13.0124 17.6819 13.3636 16.5241 14.0216 15.5394C14.6796 14.5546 15.6148 13.7871 16.709 13.3338C17.8033 12.8806 19.0073 12.762 20.1689 12.9931C21.3305 13.2241 22.3975 13.7945 23.235 14.6319C24.0725 15.4694 24.6428 16.5364 24.8739 17.698C25.1049 18.8596 24.9863 20.0637 24.5331 21.1579C24.0799 22.2521 23.3123 23.1873 22.3276 23.8453C21.3428 24.5033 20.185 24.8545 19.0007 24.8545C17.413 24.8527 15.8909 24.2213 14.7683 23.0986C13.6457 21.976 13.0142 20.4539 13.0124 18.8663ZM14.4742 35.0834V24.2356C15.6034 25.1912 17.0066 25.7643 18.482 25.8722V35.0837C17.8702 35.4278 17.1801 35.6086 16.4781 35.6086C15.7761 35.6086 15.086 35.4278 14.4742 35.0837V35.0834ZM33.6191 34.8325H19.5202V33.6183H31.885C31.9533 33.6183 32.0208 33.6049 32.0839 33.5788C32.1469 33.5527 32.2042 33.5145 32.2525 33.4662C32.3007 33.418 32.339 33.3607 32.3651 33.2976C32.3912 33.2346 32.4046 33.167 32.4046 33.0988V5.15303H33.6188L33.6191 34.8325ZM35.6081 4.11396H2.39258V2.76318C2.39258 2.66476 2.43168 2.57037 2.50127 2.50078C2.57086 2.43119 2.66525 2.39209 2.76367 2.39209H35.2376C35.3361 2.39209 35.4305 2.43119 35.5 2.50078C35.5696 2.57037 35.6087 2.66476 35.6087 2.76318L35.6081 4.11396Z" fill="#89B05F"/>
<path d="M22.5635 19C22.5635 18.7541 22.3641 18.5547 22.1182 18.5547H17.144L19.3171 16.3816C19.4916 16.2071 19.4911 15.9242 19.316 15.7503C19.1419 15.5774 18.8606 15.5779 18.687 15.7514L16.1456 18.2929C15.7551 18.6834 15.7551 19.3166 16.1456 19.7071L18.6869 22.2484C18.8604 22.4219 19.1416 22.4219 19.3151 22.2484C19.4884 22.0751 19.4885 21.794 19.3153 21.6205L17.144 19.4453H22.1182C22.3641 19.4453 22.5635 19.2459 22.5635 19Z" fill="#89B05F"/>
</svg>
