<svg width="33" height="33" viewBox="0 0 33 33" fill="none" xmlns="http://www.w3.org/2000/svg">
    <path
        d="M2.61278 2.03564H29.784C30.0968 2.03597 30.3967 2.16039 30.6179 2.38159C30.8391 2.60279 30.9635 2.90271 30.9639 3.21553V4.78044C30.9639 4.83753 30.9527 4.89407 30.9308 4.94683C30.909 4.99958 30.877 5.04751 30.8366 5.08789C30.7962 5.12826 30.7483 5.16027 30.6956 5.18211C30.6428 5.20394 30.5863 5.21516 30.5292 5.21513H29.2991V30.4829C29.2992 30.5455 29.2857 30.6073 29.2596 30.6642C29.2334 30.7211 29.1953 30.7717 29.1478 30.8125C28.4568 31.3254 27.6135 31.591 26.7533 31.5666C26.3006 31.5684 25.8505 31.4991 25.4194 31.3612C25.1474 31.2743 24.8863 31.1563 24.6414 31.0095C24.0011 31.3831 23.2713 31.5754 22.53 31.5659C21.7896 31.5751 21.0606 31.3828 20.4211 31.0095C19.7809 31.3833 19.0511 31.5758 18.3098 31.5664C17.5106 31.5802 16.7257 31.3541 16.0563 30.9173H3.53284C3.47575 30.9173 3.41921 30.9061 3.36645 30.8843C3.3137 30.8625 3.26576 30.8304 3.22539 30.7901C3.18502 30.7497 3.153 30.7018 3.13117 30.649C3.10933 30.5963 3.09811 30.5397 3.09815 30.4826V5.21513H1.86808C1.81099 5.21516 1.75445 5.20394 1.70169 5.18211C1.64894 5.16027 1.601 5.12826 1.56063 5.08789C1.52026 5.04751 1.48824 4.99958 1.46641 4.94683C1.44457 4.89407 1.43335 4.83753 1.43339 4.78044V3.21553C1.43378 2.90281 1.55815 2.60301 1.77923 2.38184C2.00031 2.16066 2.30006 2.03617 2.61278 2.03564ZM25.6872 30.534C26.0318 30.644 26.3915 30.6991 26.7533 30.6972C27.3419 30.7088 27.9222 30.557 28.4297 30.2586V5.21513H25.0764V30.2563C25.2681 30.373 25.4732 30.4662 25.6872 30.534ZM24.2077 30.2581V5.21513H20.8543V13.1055C21.6472 14.1319 22.0773 15.3922 22.0773 16.6891C22.0773 17.986 21.6472 19.2464 20.8543 20.2727V30.2583C21.3615 30.5575 21.9418 30.7096 22.5305 30.6977C23.1195 30.7096 23.7003 30.5574 24.2077 30.2581ZM16.6331 5.21513V10.8272C17.8676 10.9174 19.0417 11.3969 19.9864 12.1966V5.21513H16.6331ZM5.85262 5.21513V28.1628H15.7637V22.551C14.2829 22.4428 12.898 21.7781 11.8872 20.6907C10.8763 19.6033 10.3145 18.1736 10.3145 16.6889C10.3145 15.2042 10.8763 13.7745 11.8872 12.687C12.898 11.5996 14.2829 10.9349 15.7637 10.8267V5.21513H5.85262ZM21.2088 16.6891C21.2088 15.6981 20.9149 14.7294 20.3644 13.9055C19.8138 13.0815 19.0313 12.4393 18.1158 12.0601C17.2002 11.6809 16.1928 11.5816 15.2209 11.775C14.249 11.9683 13.3562 12.4455 12.6555 13.1462C11.9548 13.8469 11.4776 14.7397 11.2842 15.7116C11.0909 16.6835 11.1901 17.691 11.5693 18.6065C11.9486 19.522 12.5908 20.3046 13.4147 20.8551C14.2387 21.4057 15.2074 21.6995 16.1984 21.6995C17.5268 21.698 18.8003 21.1697 19.7396 20.2303C20.6789 19.291 21.2073 18.0175 21.2088 16.6891ZM19.9857 30.2581V21.1816C19.0409 21.9813 17.8668 22.4607 16.6323 22.551V30.2583C17.1442 30.5463 17.7217 30.6976 18.309 30.6976C18.8964 30.6976 19.4738 30.5463 19.9857 30.2583V30.2581ZM3.96704 30.0482H15.7637V29.0322H5.41793C5.36083 29.0323 5.30429 29.021 5.25154 28.9992C5.19878 28.9774 5.15085 28.9453 5.11048 28.905C5.07011 28.8646 5.03809 28.8167 5.01626 28.7639C4.99442 28.7112 4.9832 28.6546 4.98323 28.5975V5.21513H3.96729L3.96704 30.0482ZM2.30278 4.34574H30.0945V3.21553C30.0945 3.13318 30.0618 3.05421 30.0035 2.99598C29.9453 2.93775 29.8663 2.90504 29.784 2.90504H2.61278C2.53043 2.90504 2.45145 2.93775 2.39322 2.99598C2.33499 3.05421 2.30228 3.13318 2.30228 3.21553L2.30278 4.34574Z"
        fill="url(#paint0_linear_324_5335)" />
    <path
        d="M13.2172 16.8011C13.2172 16.5953 13.384 16.4285 13.5898 16.4285H17.7517L15.9334 14.6102C15.7874 14.4643 15.7879 14.2275 15.9343 14.0821C16.0801 13.9374 16.3154 13.9378 16.4606 14.083L18.4716 16.094C18.8621 16.4845 18.8621 17.1177 18.4716 17.5082L16.4607 19.5191C16.3156 19.6642 16.0803 19.6642 15.9351 19.5191C15.7901 19.374 15.79 19.1389 15.9349 18.9937L17.7517 17.1737H13.5898C13.384 17.1737 13.2172 17.0069 13.2172 16.8011Z"
        fill="url(#paint1_linear_324_5335)" />
    <defs>
        <linearGradient id="paint0_linear_324_5335" x1="1.4499" y1="31.5682" x2="30.9968"
            y2="31.5682" gradientUnits="userSpaceOnUse">
            <stop stop-color="#fff" />
            <stop offset="1" stop-color="#fff" />
        </linearGradient>
        <linearGradient id="paint1_linear_324_5335" x1="13.2205" y1="19.7819" x2="19.1853"
            y2="19.7819" gradientUnits="userSpaceOnUse">
            <stop stop-color="#fff" />
            <stop offset="1" stop-color="#fff" />
        </linearGradient>
    </defs>
</svg>
    