<svg width="30" height="30" viewBox="0 0 30 30" fill="none" xmlns="http://www.w3.org/2000/svg">
    <path
        d="M28.3872 0.0356445H1.21602C0.903196 0.0359733 0.603278 0.160388 0.382077 0.381589C0.160876 0.602789 0.0364617 0.902708 0.0361329 1.21553V2.78044C0.0361002 2.83753 0.0473217 2.89407 0.0691556 2.94683C0.0909896 2.99958 0.123008 3.04751 0.163379 3.08789C0.203751 3.12826 0.251685 3.16027 0.304439 3.18211C0.357193 3.20394 0.413734 3.21516 0.470828 3.21513H1.70089V28.4829C1.70084 28.5455 1.71433 28.6073 1.74044 28.6642C1.76655 28.7211 1.80467 28.7717 1.85217 28.8125C2.54315 29.3254 3.38654 29.591 4.24672 29.5666C4.69936 29.5684 5.14948 29.4991 5.58061 29.3612C5.85262 29.2743 6.11368 29.1563 6.35859 29.0095C6.99887 29.3831 7.72873 29.5754 8.46997 29.5659C9.21039 29.5751 9.93938 29.3828 10.5789 29.0095C11.2191 29.3833 11.9489 29.5758 12.6902 29.5664C13.4894 29.5802 14.2743 29.3541 14.9437 28.9173H27.4672C27.5243 28.9173 27.5808 28.9061 27.6335 28.8843C27.6863 28.8625 27.7342 28.8304 27.7746 28.7901C27.815 28.7497 27.847 28.7018 27.8688 28.649C27.8907 28.5963 27.9019 28.5397 27.9019 28.4826V3.21513H29.1319C29.189 3.21516 29.2456 3.20394 29.2983 3.18211C29.3511 3.16027 29.399 3.12826 29.4394 3.08789C29.4797 3.04751 29.5118 2.99958 29.5336 2.94683C29.5554 2.89407 29.5666 2.83753 29.5666 2.78044V1.21553C29.5662 0.902814 29.4419 0.603009 29.2208 0.381836C28.9997 0.160664 28.6999 0.0361703 28.3872 0.0356445ZM5.31284 28.534C4.96822 28.644 4.60845 28.6991 4.24672 28.6972C3.6581 28.7088 3.07779 28.557 2.57028 28.2586V3.21513H5.92365V28.2563C5.73188 28.373 5.52681 28.4662 5.31284 28.534ZM6.79229 28.2581V3.21513H10.1457V11.1055C9.35283 12.1319 8.92274 13.3922 8.92274 14.6891C8.92274 15.986 9.35283 17.2464 10.1457 18.2727V28.2583C9.63853 28.5575 9.05815 28.7096 8.46947 28.6977C7.88045 28.7096 7.29974 28.5574 6.79229 28.2581ZM14.3669 3.21513V8.82718C13.1324 8.9174 11.9583 9.39686 11.0136 10.1966V3.21513H14.3669ZM25.1474 3.21513V26.1628H15.2363V20.551C16.7171 20.4428 18.102 19.7781 19.1128 18.6907C20.1237 17.6033 20.6855 16.1736 20.6855 14.6889C20.6855 13.2042 20.1237 11.7745 19.1128 10.687C18.102 9.59957 16.7171 8.93495 15.2363 8.82668V3.21513H25.1474ZM9.7912 14.6891C9.7912 13.6981 10.0851 12.7294 10.6356 11.9055C11.1862 11.0815 11.9687 10.4393 12.8842 10.0601C13.7998 9.68085 14.8072 9.58163 15.7791 9.77496C16.751 9.96828 17.6438 10.4455 18.3445 11.1462C19.0452 11.8469 19.5224 12.7397 19.7158 13.7116C19.9091 14.6835 19.8099 15.691 19.4307 16.6065C19.0514 17.522 18.4092 18.3046 17.5853 18.8551C16.7613 19.4057 15.7926 19.6995 14.8016 19.6995C13.4732 19.698 12.1997 19.1697 11.2604 18.2303C10.3211 17.291 9.79271 16.0175 9.7912 14.6891ZM11.0143 28.2581V19.1816C11.9591 19.9813 13.1332 20.4607 14.3677 20.551V28.2583C13.8558 28.5463 13.2783 28.6976 12.691 28.6976C12.1036 28.6976 11.5262 28.5463 11.0143 28.2583V28.2581ZM27.033 28.0482H15.2363V27.0322H25.5821C25.6392 27.0323 25.6957 27.021 25.7485 26.9992C25.8012 26.9774 25.8491 26.9453 25.8895 26.905C25.9299 26.8646 25.9619 26.8167 25.9837 26.7639C26.0056 26.7112 26.0168 26.6546 26.0168 26.5975V3.21513H27.0327L27.033 28.0482ZM28.6972 2.34574H0.905524V1.21553C0.905524 1.13318 0.938237 1.05421 0.996466 0.995978C1.0547 0.937749 1.13367 0.905036 1.21602 0.905036H28.3872C28.4696 0.905036 28.5485 0.937749 28.6068 0.995978C28.665 1.05421 28.6977 1.13318 28.6977 1.21553L28.6972 2.34574Z"
        fill="url(#paint0_linear_324_5326)" />
    <path
        d="M17.7828 14.8011C17.7828 14.5953 17.616 14.4285 17.4102 14.4285H13.2483L15.0666 12.6102C15.2126 12.4643 15.2121 12.2275 15.0657 12.0821C14.9199 11.9374 14.6846 11.9378 14.5394 12.083L12.5284 14.094C12.1379 14.4845 12.1379 15.1177 12.5284 15.5082L14.5393 17.5191C14.6844 17.6642 14.9197 17.6642 15.0649 17.5191C15.2099 17.374 15.21 17.1389 15.0651 16.9937L13.2483 15.1737H17.4102C17.616 15.1737 17.7828 15.0069 17.7828 14.8011Z"
        fill="url(#paint1_linear_324_5326)" />
    <defs>
        <linearGradient id="paint0_linear_324_5326" x1="29.5501" y1="29.5682" x2="0.00324899"
            y2="29.5682" gradientUnits="userSpaceOnUse">
            <stop stop-color="#9CC76F" />
            <stop offset="1" stop-color="#C5DA8B" />
        </linearGradient>
        <linearGradient id="paint1_linear_324_5326" x1="17.7795" y1="17.7819" x2="11.8147"
            y2="17.7819" gradientUnits="userSpaceOnUse">
            <stop stop-color="#9CC76F" />
            <stop offset="1" stop-color="#C5DA8B" />
        </linearGradient>
    </defs>
</svg>
    