<svg width="38" height="38" viewBox="0 0 38 38" fill="none" xmlns="http://www.w3.org/2000/svg">
<path d="M34.598 17.2876H32.7354C32.3255 17.2876 31.9932 16.9553 31.9932 16.5454C31.9932 16.1355 32.3255 15.8032 32.7354 15.8032H34.598C35.0079 15.8032 35.3402 16.1355 35.3402 16.5454C35.3402 16.9553 35.0079 17.2876 34.598 17.2876Z" fill="#89B05F"/>
<path d="M30.7148 12.4128C30.5248 12.4128 30.335 12.3404 30.19 12.1955C29.9002 11.9056 29.9002 11.4357 30.19 11.1458L31.5071 9.8287C31.797 9.53887 32.2668 9.53887 32.5568 9.8287C32.8466 10.1185 32.8466 10.5885 32.5568 10.8783L31.2397 12.1954C31.0948 12.3404 30.9048 12.4128 30.7148 12.4128Z" fill="#89B05F"/>
<path d="M32.0319 23.4802C31.8419 23.4802 31.6521 23.4077 31.5071 23.2628L30.19 21.9457C29.9002 21.6559 29.9002 21.1859 30.19 20.8961C30.4799 20.6063 30.9497 20.6062 31.2397 20.8961L32.5568 22.2132C32.8466 22.503 32.8466 22.973 32.5568 23.2628C32.4118 23.4077 32.2218 23.4802 32.0319 23.4802Z" fill="#89B05F"/>
<path d="M5.26501 17.2876H3.40234C2.99243 17.2876 2.66016 16.9553 2.66016 16.5454C2.66016 16.1355 2.99243 15.8032 3.40234 15.8032H5.26501C5.67492 15.8032 6.0072 16.1355 6.0072 16.5454C6.0072 16.9553 5.67492 17.2876 5.26501 17.2876Z" fill="#89B05F"/>
<path d="M5.96775 23.4806C5.77775 23.4806 5.58789 23.4082 5.44294 23.2632C5.15312 22.9734 5.15312 22.5034 5.44302 22.2136L6.76011 20.8965C7.04993 20.6068 7.51981 20.6067 7.80971 20.8965C8.09953 21.1864 8.09953 21.6563 7.80963 21.9461L6.49255 23.2632C6.34767 23.4081 6.15775 23.4806 5.96775 23.4806Z" fill="#89B05F"/>
<path d="M7.28484 12.4128C7.09492 12.4128 6.90492 12.3403 6.76004 12.1954L5.44295 10.8783C5.15313 10.5885 5.15313 10.1185 5.44295 9.8287C5.73278 9.53887 6.20273 9.53887 6.49263 9.8287L7.80972 11.1458C8.09954 11.4356 8.09954 11.9056 7.80972 12.1955C7.66469 12.3403 7.47477 12.4128 7.28484 12.4128Z" fill="#89B05F"/>
<path d="M20.7434 29.2272C20.4335 29.2272 20.1492 29.0271 20.0453 28.735C19.9431 28.4479 20.0295 28.1165 20.2635 27.9193C20.5076 27.7136 20.8635 27.6873 21.135 27.8552C21.395 28.0159 21.5314 28.3306 21.4714 28.6305C21.4029 28.9733 21.0926 29.2272 20.7434 29.2272Z" fill="#89B05F"/>
<path d="M28.8567 8.18536L24.858 4.18735C24.2543 3.58365 23.4515 3.25123 22.5977 3.25123H22.481C22.3587 1.43784 20.8444 0 19.0007 0C17.157 0 15.6427 1.43784 15.5204 3.25115H15.4037C14.5499 3.25115 13.7471 3.58358 13.1433 4.18727L9.14467 8.18529C8.93241 8.39756 8.86887 8.71677 8.98376 8.99412C9.09858 9.27148 9.36926 9.45228 9.66947 9.45228H10.744L12.4706 20.2272H12.137C11.8729 20.2272 11.6286 20.3676 11.4957 20.5959C11.3627 20.8242 11.3611 21.1059 11.4915 21.3356L13.335 24.5851C13.7816 25.3723 14.6214 25.8615 15.5265 25.8615H16.5149V37.2578C16.5149 37.6677 16.8472 38 17.2571 38H20.7445C21.1543 38 21.4867 37.6677 21.4867 37.2578V31.8269C21.4867 31.417 21.1543 31.0847 20.7445 31.0847C20.3346 31.0847 20.0023 31.417 20.0023 31.8269V36.5156H17.9993V25.8616H22.4751C23.3802 25.8616 24.22 25.3726 24.6666 24.5853L26.5102 21.3357C26.6405 21.106 26.6388 20.8242 26.5059 20.596C26.3729 20.3677 26.1287 20.2274 25.8645 20.2274H25.5308L27.2575 9.45243H28.332C28.6322 9.45243 28.9028 9.27163 29.0177 8.99427C29.1325 8.71684 29.069 8.39763 28.8567 8.18536ZM19.0007 1.48438C20.0255 1.48438 20.873 2.25751 20.9907 3.25115H17.0107C17.1284 2.25751 17.9759 1.48438 19.0007 1.48438ZM14.1928 5.23702C14.5163 4.91365 14.9463 4.73553 15.4037 4.73553H22.5977C23.0551 4.73553 23.4851 4.91358 23.8085 5.23702L26.54 7.96798H11.4614L14.1928 5.23702ZM12.2472 9.45235H18.2585V20.2273H13.9739L12.2472 9.45235ZM23.3755 23.8528C23.1919 24.1762 22.8469 24.3772 22.475 24.3772H15.5264C15.1545 24.3772 14.8094 24.1762 14.6259 23.8528L13.4113 21.7117H24.5901L23.3755 23.8528ZM24.0275 20.2274H19.7429V9.45235H25.7541L24.0275 20.2274Z" fill="#89B05F"/>
</svg>
