<svg width="38" height="38" viewBox="0 0 38 38" fill="none" xmlns="http://www.w3.org/2000/svg">
<g clip-path="url(#clip0_208_1620)">
<path d="M37.9005 14.6849C37.6955 14.33 37.2417 14.2083 36.8866 14.4133L25.8764 20.7701C26.0128 18.4634 25.1607 16.1551 23.5028 14.4972C21.8449 12.8393 19.5369 11.9864 17.23 12.1236L23.5867 1.11337C23.7916 0.758388 23.67 0.304537 23.315 0.0995579C22.9599 -0.105422 22.5061 0.0162991 22.3012 0.371205L15.6235 11.9373C15.2591 11.7187 14.8161 11.64 14.3775 11.7264C13.7771 11.8446 13.2786 12.2495 13.044 12.8096L11.8537 15.6502L5.13452 22.3693C2.24075 25.2631 2.24075 29.9717 5.13452 32.8654C5.84425 33.5752 6.77956 34.1098 7.4138 34.4048V36.5155H0.742164C0.332356 36.5155 0 36.8478 0 37.2576C0 37.6674 0.332356 37.9998 0.742164 37.9998H20.0228C20.4326 37.9998 20.765 37.6674 20.765 37.2576C20.765 36.8478 20.4326 36.5155 20.0228 36.5155H13.3513V34.4165C14.2024 34.0482 14.9676 33.5282 15.6305 32.8653L22.3497 26.1461L25.1904 24.9558C25.7504 24.7211 26.1554 24.2226 26.2734 23.6221C26.3598 23.1834 26.2811 22.7406 26.0626 22.3763L37.6287 15.6985C37.9838 15.4938 38.1054 15.0399 37.9005 14.6849ZM22.4531 15.5468C23.8001 16.8938 24.4962 18.7654 24.3967 20.6394L17.3604 13.6032C19.2345 13.5037 21.1062 14.1999 22.4531 15.5468ZM8.89828 36.5155V28.3595C8.89828 27.541 9.5642 26.8752 10.3826 26.8752C11.201 26.8752 11.8669 27.5411 11.8669 28.3595V36.5155L8.89828 36.5155ZM14.581 31.8158C14.2099 32.1869 13.798 32.5007 13.3513 32.7574V28.3595C13.3513 26.7225 12.0196 25.3908 10.3826 25.3908C8.74564 25.3908 7.41388 26.7225 7.41388 28.3595V32.7307C6.99102 32.484 6.53679 32.1684 6.18422 31.8158C5.068 30.6996 4.45329 29.2086 4.45329 27.6174C4.45329 26.0262 5.068 24.5352 6.18422 23.419L9.3329 20.2703L17.7297 28.6672L14.581 31.8158ZM24.8171 23.3357C24.8063 23.3905 24.7653 23.5248 24.6168 23.587L22.1009 24.6412L20.0913 22.6316C19.8014 22.3419 19.3316 22.3419 19.0417 22.6316C18.7518 22.9214 18.7518 23.3913 19.0417 23.6812L20.8786 25.5182L18.7794 27.6175L10.3825 19.2206L12.4818 17.1214L14.3184 18.958C14.4633 19.1028 14.6532 19.1753 14.8432 19.1753C15.0331 19.1753 15.2231 19.1028 15.368 18.9579C15.6578 18.6681 15.6578 18.1982 15.368 17.9083L13.3588 15.899L14.4131 13.383C14.4753 13.2346 14.6094 13.1935 14.6642 13.1827C14.7086 13.174 14.8201 13.1618 14.8958 13.2376L24.7622 23.104C24.838 23.1799 24.8258 23.2913 24.8171 23.3357Z" fill="#89B05F"/>
<path d="M27.9653 10.7764C28.1553 10.7764 28.3452 10.704 28.4901 10.5591L32.1099 6.93931C32.3998 6.64948 32.3998 6.17957 32.1099 5.88967C31.82 5.59993 31.3503 5.59993 31.0603 5.88967L27.4405 9.50947C27.1507 9.79929 27.1507 10.2692 27.4405 10.5591C27.5855 10.7041 27.7753 10.7764 27.9653 10.7764Z" fill="#89B05F"/>
<path d="M17.7749 20.3192C17.5124 20.0042 17.0446 19.9621 16.7298 20.2243C16.415 20.4868 16.3726 20.955 16.635 21.2698C16.7819 21.446 16.9928 21.5369 17.2056 21.5369C17.3731 21.5369 17.5415 21.4805 17.6802 21.365C17.9952 21.1025 18.0377 20.6345 17.7753 20.3197L17.7749 20.3192Z" fill="#89B05F"/>
</g>
<defs>
<clipPath id="clip0_208_1620">
<rect width="38" height="38" fill="white"/>
</clipPath>
</defs>
</svg>
