<svg width="38" height="38" viewBox="0 0 38 38" fill="none" xmlns="http://www.w3.org/2000/svg">
<path d="M24.0962 38.0002H13.9628C13.6131 38.0002 13.3296 37.7164 13.3296 37.3667V36.1001C13.3296 34.3542 14.7502 32.9336 16.4961 32.9336H21.5629C23.3088 32.9336 24.7294 34.3542 24.7294 36.1001V37.3667C24.7294 37.7164 24.4459 38.0002 24.0962 38.0002ZM14.5962 36.7335H23.4628V36.1001C23.4628 35.0526 22.6104 34.2002 21.5629 34.2002H16.4961C15.4486 34.2002 14.5962 35.0526 14.5962 36.1001V36.7335Z" fill="#89B05F"/>
<path d="M21.5633 34.1998H16.4965C16.1468 34.1998 15.8633 33.916 15.8633 33.5664V31.0331C15.8633 30.6834 16.1468 30.3999 16.4965 30.3999H21.5633C21.9127 30.3999 22.1965 30.6834 22.1965 31.0331V33.5664C22.1965 33.916 21.9127 34.1998 21.5633 34.1998ZM17.1299 32.9332H20.9299V31.6666H17.1299V32.9332Z" fill="#89B05F"/>
<path d="M20.9296 31.6666H17.1296C16.8217 31.6666 16.5582 31.4448 16.5057 31.1416C16.0288 28.4056 15.2295 23.7643 15.2295 23.4332C15.2295 21.3374 16.9345 19.6333 19.0294 19.6333C21.1247 19.6333 22.8297 21.3374 22.8297 23.4332C22.8297 23.7643 22.0304 28.4056 21.5535 31.1416C21.5007 31.4448 21.2374 31.6666 20.9296 31.6666ZM17.6622 30.3999H20.397C20.8649 27.7017 21.5268 23.822 21.563 23.4173C21.554 22.0277 20.421 20.8999 19.0294 20.8999C17.6323 20.8999 16.4961 22.0361 16.4961 23.4332C16.5217 23.7588 17.1905 27.6797 17.6622 30.3999ZM22.1962 23.4332H22.2026H22.1962Z" fill="#89B05F"/>
<path d="M35.4963 38H2.56316C2.21352 38 1.92969 37.7162 1.92969 37.3666C1.92969 37.0172 2.21352 36.7334 2.56316 36.7334H35.4963C35.8459 36.7334 36.1297 37.0172 36.1297 37.3666C36.1297 37.7162 35.8459 38 35.4963 38Z" fill="#89B05F"/>
<path d="M19.0297 20.9002C18.6803 20.9002 18.3965 20.6164 18.3965 20.2667V17.1C18.3965 16.7506 18.6803 16.4668 19.0297 16.4668C19.3793 16.4668 19.6631 16.7506 19.6631 17.1V20.2667C19.6631 20.6164 19.3793 20.9002 19.0297 20.9002Z" fill="#89B05F"/>
<path d="M29.2549 17.7334H8.80439C7.69807 17.7334 6.6593 17.2443 5.95451 16.3907C5.24943 15.5375 4.96502 14.4254 5.17405 13.3385L7.24522 2.56808C7.53195 1.08052 8.83976 0 10.3555 0H27.7038C29.2192 0 30.527 1.08052 30.8134 2.56866L32.8843 13.3394C33.0934 14.426 32.8089 15.5381 32.1042 16.3913C31.3999 17.2443 30.3612 17.7334 29.2549 17.7334ZM10.3555 1.26665C9.44598 1.26665 8.66118 1.91461 8.48954 2.80814L6.41867 13.5786C6.28125 14.2923 6.46795 15.0238 6.93153 15.5845C7.39453 16.1449 8.07728 16.4667 8.80439 16.4667H29.2549C29.982 16.4667 30.6644 16.1449 31.1283 15.5845C31.591 15.0238 31.778 14.2923 31.6412 13.5786L29.5703 2.80814C29.3978 1.91461 28.6133 1.26665 27.7038 1.26665H10.3555Z" fill="#89B05F"/>
<path d="M9.53044 8.26176C9.49304 8.26176 9.45564 8.25858 9.41766 8.25162C9.07382 8.18958 8.8445 7.86023 8.90596 7.51639L9.35794 4.99643C9.63365 3.56569 10.8838 2.53271 12.3328 2.53271L16.4963 2.53329C16.8459 2.53329 17.1297 2.81712 17.1297 3.16676C17.1297 3.5164 16.8459 3.79994 16.4963 3.79994L12.3334 3.79936C11.4911 3.79936 10.7635 4.39978 10.6046 5.22749L10.1535 7.73991C10.0978 8.04723 9.83108 8.26176 9.53044 8.26176Z" fill="#89B05F"/>
<path d="M10.7963 24.0667C10.4469 24.0667 10.1631 23.7831 10.1631 23.4335V17.1C10.1631 16.7506 10.4469 16.4668 10.7963 16.4668C11.1459 16.4668 11.4297 16.7506 11.4297 17.1V23.4335C11.4297 23.7831 11.1459 24.0667 10.7963 24.0667Z" fill="#89B05F"/>
<path d="M12.0632 24.0665H9.52966C9.18031 24.0665 8.89648 23.7829 8.89648 23.4333C8.89648 23.0836 9.18031 22.7998 9.52966 22.7998H12.0632C12.4126 22.7998 12.6964 23.0836 12.6964 23.4333C12.6964 23.7829 12.4126 24.0665 12.0632 24.0665Z" fill="#89B05F"/>
</svg>
