<svg width="38" height="38" viewBox="0 0 38 38" fill="none" xmlns="http://www.w3.org/2000/svg">
<path d="M35.4665 2.52837H2.53308C2.18344 2.52837 1.8999 2.24454 1.8999 1.89519C1.8999 1.54555 2.18344 1.26172 2.53308 1.26172H35.4665C35.8161 1.26172 36.0997 1.54555 36.0997 1.89519C36.0997 2.24454 35.8161 2.52837 35.4665 2.52837Z" fill="#89B05F"/>
<path d="M19.0002 8.38672C18.6505 8.38672 18.3667 8.1209 18.3667 7.79311V1.8556C18.3667 1.52781 18.6505 1.26172 19.0002 1.26172C19.3498 1.26172 19.6336 1.52781 19.6336 1.8556V7.79311C19.6336 8.1209 19.3498 8.38672 19.0002 8.38672Z" fill="#89B05F"/>
<path d="M4.0376 28.5C3.77537 28.5 3.5625 28.2871 3.5625 28.0249C3.5625 24.358 6.54553 21.375 10.2126 21.375C10.4746 21.375 10.6875 21.5879 10.6875 21.8501C10.6875 22.1121 10.4746 22.325 10.2126 22.325C7.06955 22.325 4.51249 24.8818 4.51249 28.0249C4.51249 28.2871 4.29983 28.5 4.0376 28.5Z" fill="#89B05F"/>
<path d="M24.0665 36.7287H13.9334C12.1872 36.7287 10.7666 35.3081 10.7666 33.5619C10.7666 33.2122 11.0504 32.9287 11.4001 32.9287H26.5998C26.9495 32.9287 27.2333 33.2122 27.2333 33.5619C27.2333 35.3081 25.8127 36.7287 24.0665 36.7287ZM12.1417 34.1954C12.4032 34.9326 13.1074 35.462 13.9334 35.462H24.0665C24.8925 35.462 25.5967 34.9326 25.8582 34.1954H12.1417Z" fill="#89B05F"/>
<path d="M19.2227 19H10.1875C5.21694 19 1.1875 23.0294 1.1875 28V29.25C1.1875 31.4591 2.97836 33.25 5.1875 33.25H5.9375M22.8965 19H27.8125C32.7831 19 36.8125 23.0294 36.8125 28V29.25C36.8125 31.4591 35.0216 33.25 32.8125 33.25H9.5" stroke="#89B05F" stroke-linecap="round"/>
<path d="M27.3125 19V18.25C27.3125 16.0409 25.5216 14.25 23.3125 14.25H14.6875C12.4784 14.25 10.6875 16.0409 10.6875 18.25V19" stroke="#89B05F"/>
<path d="M23.75 14.25V13.0625C23.75 10.4391 21.6234 8.3125 19 8.3125V8.3125C16.3766 8.3125 14.25 10.4391 14.25 13.0625V14.25" stroke="#89B05F"/>
</svg>
