<svg width="38" height="38" viewBox="0 0 38 38" fill="none" xmlns="http://www.w3.org/2000/svg">
<g clip-path="url(#clip0_184_1031)">
<path d="M32.2156 33.6566L30.6323 30.9142C30.4595 30.6102 30.0728 30.5038 29.7687 30.6766C29.4646 30.8494 29.3582 31.236 29.5311 31.5401C29.5325 31.5426 29.5339 31.545 29.5353 31.5475L31.1187 34.2898C31.2956 34.5915 31.6836 34.6927 31.9854 34.5158C32.2842 34.3406 32.3868 33.9578 32.2156 33.6566Z" fill="#89B05F"/>
<path d="M3.7575 27.2603C3.51209 27.0232 3.1229 27.0232 2.87749 27.2603L0.638654 29.4992C0.387062 29.7422 0.380096 30.1431 0.623137 30.3947C0.866179 30.6463 1.26708 30.6533 1.51867 30.4102C1.52397 30.4052 1.52912 30.3999 1.53419 30.3947L3.77302 28.1559C4.01606 27.9043 4.00909 27.5034 3.7575 27.2603Z" fill="#89B05F"/>
<path d="M18.9986 33.5674C18.6488 33.5674 18.3652 33.851 18.3652 34.2007V37.3674C18.3652 37.7171 18.6488 38.0007 18.9986 38.0007C19.3483 38.0007 19.6319 37.7171 19.6319 37.3674V34.2007C19.6319 33.851 19.3483 33.5674 18.9986 33.5674Z" fill="#89B05F"/>
<path d="M13.4259 32.8336C13.0882 32.7434 12.7412 32.9438 12.6507 33.2814L11.8311 36.3398C11.7314 36.675 11.9224 37.0277 12.2577 37.1274C12.593 37.2272 12.9456 37.0361 13.0453 36.7009C13.0486 36.6899 13.0515 36.6789 13.0542 36.6678L13.8737 33.6088C13.9639 33.2711 13.7634 32.9242 13.4259 32.8336Z" fill="#89B05F"/>
<path d="M37.3601 29.4992L35.1212 27.2603C34.8696 27.0173 34.4687 27.0243 34.2257 27.2759C33.9886 27.5213 33.9886 27.9105 34.2257 28.1559L36.4645 30.3947C36.7161 30.6377 37.117 30.6308 37.3601 30.3792C37.5972 30.1338 37.5972 29.7446 37.3601 29.4992Z" fill="#89B05F"/>
<path d="M8.23447 30.6819C8.23423 30.6817 8.23399 30.6816 8.23376 30.6815C7.93079 30.5068 7.54342 30.6107 7.3687 30.9137C7.3687 30.9138 7.36862 30.9138 7.36862 30.9139L5.78529 33.6562C5.60843 33.958 5.70961 34.346 6.01139 34.5229C6.31317 34.6997 6.70117 34.5986 6.87803 34.2968C6.87945 34.2944 6.8808 34.2919 6.88222 34.2895L8.46556 31.5472C8.64067 31.2445 8.53728 30.8571 8.23447 30.6819Z" fill="#89B05F"/>
<path d="M26.1766 36.373C26.1739 36.3619 26.171 36.3509 26.1677 36.34L25.3482 33.2816C25.2472 32.9467 24.8938 32.7572 24.5589 32.8582C24.2388 32.9548 24.0489 33.2835 24.1252 33.609L24.9448 36.668C25.0262 37.0082 25.3681 37.2179 25.7082 37.1365C26.0484 37.0549 26.2581 36.7132 26.1766 36.373Z" fill="#89B05F"/>
<path d="M34.4375 21.375C34.4375 22.5343 34.0461 23.6414 33.3348 24.6554M3.5625 21.375C3.5625 26.2469 10.4741 30.1964 19 30.1964C23.8744 30.1964 28.2211 28.9055 31.0503 26.8893" stroke="#89B05F" stroke-width="1.5" stroke-linecap="round"/>
<path d="M5.64062 15.4375H2.375C1.71916 15.4375 1.1875 15.9692 1.1875 16.625V20.1875C1.1875 20.8433 1.71916 21.375 2.375 21.375H35.625C36.2808 21.375 36.8125 20.8433 36.8125 20.1875V16.625C36.8125 15.9692 36.2808 15.4375 35.625 15.4375H9.94531" stroke="#89B05F" stroke-width="1.5" stroke-linecap="round"/>
<path d="M15.4375 15.4375C15.9561 14.0538 17.3553 13.0625 19 13.0625C20.6447 13.0625 22.0439 14.0538 22.5625 15.4375" stroke="#89B05F" stroke-width="1.5"/>
<line x1="18.5625" y1="4.75" x2="18.5625" y2="13.0625" stroke="#89B05F" stroke-width="1.5"/>
<path d="M22.8766 2.17795C22.4361 3.90845 20.8665 5.1875 19 5.1875C17.1335 5.1875 15.5639 3.90845 15.1234 2.17795C15.115 2.14511 15.1178 2.12497 15.1215 2.11133C15.1259 2.0955 15.1365 2.07265 15.1608 2.04637C15.2127 1.99032 15.3116 1.9375 15.4375 1.9375H22.5625C22.6884 1.9375 22.7873 1.99032 22.8392 2.04637C22.8635 2.07265 22.8741 2.0955 22.8785 2.11133C22.8822 2.12497 22.885 2.14511 22.8766 2.17795Z" stroke="#89B05F" stroke-width="1.5"/>
</g>
<defs>
<clipPath id="clip0_184_1031">
<rect width="38" height="38" fill="white"/>
</clipPath>
</defs>
</svg>
