<svg width="13" height="14" viewBox="0 0 13 14" fill="none" xmlns="http://www.w3.org/2000/svg">
<g clip-path="url(#clip0_433_3379)">
<path d="M6.1152 13.1103C9.49241 13.1103 12.2304 10.3723 12.2304 6.99508C12.2304 3.61787 9.49241 0.879883 6.1152 0.879883C2.73799 0.879883 0 3.61787 0 6.99508C0.00358313 10.3709 2.73942 13.1067 6.1152 13.1103ZM6.1152 3.42796C6.53729 3.42796 6.8796 3.77027 6.8796 4.19236C6.8796 4.61445 6.53729 4.95676 6.1152 4.95676C5.69311 4.95676 5.3508 4.61445 5.3508 4.19236C5.3508 3.77027 5.69311 3.42796 6.1152 3.42796ZM5.60568 5.9758H6.1152C6.67799 5.9758 7.13448 6.43205 7.13448 6.99508V10.0527C7.13448 10.3341 6.90635 10.5622 6.62496 10.5622C6.34356 10.5622 6.1152 10.3341 6.1152 10.0527V6.99508H5.60568C5.32429 6.99508 5.09616 6.76696 5.09616 6.48556C5.09616 6.20417 5.32405 5.9758 5.60568 5.9758Z" fill="#2B5783"/>
</g>
<defs>
<clipPath id="clip0_433_3379">
<rect width="12.2304" height="12.2304" fill="white" transform="translate(0 0.879883)"/>
</clipPath>
</defs>
</svg>
