<svg width="11" height="13" viewBox="0 0 11 13" fill="none" xmlns="http://www.w3.org/2000/svg">
<g clip-path="url(#clip0_433_3395)">
<path d="M9.92255 2.79833H8.34287C8.09898 1.61279 7.05629 0.761443 5.84591 0.76001H4.82663C3.61625 0.761443 2.57333 1.61279 2.32967 2.79833H0.749755C0.46836 2.79833 0.240234 3.02646 0.240234 3.30809C0.240234 3.58972 0.46836 3.81761 0.749755 3.81761H1.25928V10.4423C1.26095 11.8488 2.40086 12.9887 3.80735 12.9904H6.86495C8.27145 12.9887 9.41136 11.8488 9.41303 10.4423V3.81761H9.92255C10.2039 3.81761 10.4321 3.58948 10.4321 3.30809C10.4321 3.02669 10.2042 2.79833 9.92255 2.79833ZM4.82663 9.42329C4.82663 9.70468 4.59851 9.93281 4.31711 9.93281C4.03572 9.93281 3.80759 9.70468 3.80759 9.42329V6.36569C3.80759 6.08429 4.03572 5.85617 4.31711 5.85617C4.59851 5.85617 4.82663 6.08429 4.82663 6.36569V9.42329ZM6.86495 9.42329C6.86495 9.70468 6.63683 9.93281 6.35543 9.93281C6.07404 9.93281 5.84591 9.70468 5.84591 9.42329V6.36569C5.84591 6.08429 6.07404 5.85617 6.35543 5.85617C6.63683 5.85617 6.86495 6.08429 6.86495 6.36569V9.42329ZM3.38502 2.79833C3.60168 2.188 4.17904 1.78001 4.82663 1.77905H5.84591C6.4935 1.77977 7.07086 2.188 7.28752 2.79833H3.38502Z" fill="#2B5783"/>
</g>
<defs>
<clipPath id="clip0_433_3395">
<rect width="10.1921" height="12.2304" fill="white" transform="translate(0.240234 0.76001)"/>
</clipPath>
</defs>
</svg>
