<svg width="12" height="13" viewBox="0 0 12 13" fill="none" xmlns="http://www.w3.org/2000/svg">
<g clip-path="url(#clip0_433_3362)">
<path d="M5.71699 0.639893C5.82867 0.639893 5.94036 0.639893 6.05204 0.639893C6.06576 0.646913 6.07853 0.657762 6.09289 0.660315C6.38805 0.713604 6.6261 0.860709 6.81245 1.09429C6.96658 1.28734 7.12581 1.47593 7.2777 1.67058C7.40342 1.83172 7.55755 1.87959 7.75315 1.82375C7.98641 1.75706 8.22255 1.69866 8.45645 1.6342C9.18335 1.43413 9.87484 1.89076 9.95844 2.63745C9.98844 2.90581 9.99322 3.17736 10.0031 3.44764C10.0108 3.6541 10.1027 3.79099 10.3002 3.86183C10.5325 3.94543 10.7623 4.03478 10.9917 4.12572C11.7333 4.41929 11.9905 5.22438 11.5581 5.89608C11.4225 6.107 11.2856 6.31697 11.1477 6.5263C11.0469 6.67947 11.0472 6.83008 11.1484 6.98325C11.2843 7.18907 11.4186 7.39616 11.5523 7.60357C11.9959 8.29155 11.7345 9.0944 10.9693 9.39404C10.7508 9.47955 10.5325 9.56699 10.3107 9.64357C10.1017 9.71601 10.0076 9.858 10.0025 10.0744C9.99705 10.3051 9.98493 10.5358 9.97121 10.7662C9.92175 11.5882 9.22771 12.0847 8.4322 11.8686C8.20181 11.8061 7.97078 11.7458 7.74039 11.6823C7.55468 11.6309 7.40534 11.6778 7.28504 11.8307C7.12485 12.0339 6.96147 12.2346 6.79618 12.4338C6.31243 13.0161 5.45501 13.0158 4.97189 12.4331C4.80915 12.2369 4.64769 12.0397 4.49069 11.839C4.36497 11.6781 4.21148 11.63 4.01556 11.6852C3.74751 11.7608 3.47915 11.8377 3.2076 11.8986C2.55153 12.0457 1.88845 11.576 1.8141 10.9078C1.78282 10.6277 1.77644 10.3443 1.76527 10.0619C1.75698 9.85577 1.66667 9.71792 1.46883 9.64676C1.23685 9.56316 1.00742 9.47221 0.777027 9.38382C0.0504398 9.10525 -0.220794 8.28836 0.197225 7.63389C0.334118 7.41914 0.473883 7.2063 0.614925 6.9941C0.721823 6.83359 0.721504 6.67659 0.614925 6.51577C0.469735 6.29687 0.324226 6.07797 0.185099 5.85555C-0.21505 5.21544 0.0596936 4.40142 0.765539 4.12955C0.995928 4.04084 1.22472 3.94862 1.45766 3.86725C1.66635 3.79418 1.76049 3.65186 1.76591 3.43583C1.77166 3.20512 1.7841 2.97442 1.79718 2.74403C1.84313 1.92905 2.53271 1.42998 3.32375 1.63835C3.55478 1.6993 3.78612 1.75833 4.01587 1.82407C4.21148 1.87991 4.36529 1.83172 4.49101 1.6709C4.65024 1.467 4.81585 1.26788 4.97955 1.06717C5.1056 0.912722 5.26132 0.797208 5.44703 0.725411C5.53446 0.691267 5.62668 0.667973 5.71699 0.639893ZM3.871 9.1244C4.01173 9.12887 4.10937 9.05164 4.20223 8.95879C5.41065 7.75164 6.61972 6.54544 7.82846 5.33861C7.85941 5.30766 7.891 5.27671 7.91717 5.24193C8.08151 5.02462 7.98705 4.71446 7.7289 4.62671C7.54861 4.56544 7.40534 4.6299 7.27642 4.75881C6.06002 5.9749 4.84234 7.18939 3.6253 8.40451C3.59722 8.43259 3.56786 8.46067 3.54552 8.4929C3.45362 8.62469 3.43863 8.76541 3.51329 8.90932C3.58733 9.05292 3.70954 9.12312 3.871 9.1244ZM4.2686 4.60469C3.82729 4.60405 3.4683 4.9608 3.46766 5.4002C3.46703 5.838 3.82729 6.20018 4.26509 6.20178C4.70098 6.20337 5.06667 5.8396 5.06794 5.40371C5.0689 4.96655 4.70736 4.60501 4.2686 4.60469ZM7.99663 8.33208C7.9979 7.88885 7.64626 7.53465 7.20271 7.53273C6.76012 7.53082 6.40401 7.88342 6.40209 8.32569C6.39986 8.76765 6.7531 9.1228 7.19665 9.1244C7.64019 9.12599 7.99503 8.77467 7.99663 8.33208Z" fill="#2B5783"/>
</g>
<defs>
<clipPath id="clip0_433_3362">
<rect width="11.7683" height="12.2304" fill="white" transform="translate(0 0.639893)"/>
</clipPath>
</defs>
</svg>
