<svg width="24" height="22" viewBox="0 0 24 22" fill="none" xmlns="http://www.w3.org/2000/svg">
<g filter="url(#filter0_b_433_3412)">
<rect x="0.0512695" width="23.2701" height="22" rx="6.3506" fill="white" fill-opacity="0.5"/>
<g clip-path="url(#clip0_433_3412)">
<path d="M11.0345 5.78345H6.47013C6.12426 5.78345 5.79255 5.92084 5.54798 6.16541C5.30341 6.40998 5.16602 6.74169 5.16602 7.08756V16.2164C5.16602 16.5623 5.30341 16.894 5.54798 17.1385C5.79255 17.3831 6.12426 17.5205 6.47013 17.5205H15.599C15.9448 17.5205 16.2765 17.3831 16.5211 17.1385C16.7657 16.894 16.9031 16.5623 16.9031 16.2164V11.652" stroke="#707386" stroke-width="1.30412" stroke-linecap="round" stroke-linejoin="round"/>
<path d="M15.9247 4.80553C16.1841 4.54612 16.536 4.40039 16.9028 4.40039C17.2697 4.40039 17.6215 4.54612 17.8809 4.80553C18.1403 5.06493 18.2861 5.41676 18.2861 5.78362C18.2861 6.15047 18.1403 6.5023 17.8809 6.7617L11.6864 12.9563L9.07812 13.6083L9.73018 11.0001L15.9247 4.80553Z" stroke="#707386" stroke-width="1.30412" stroke-linecap="round" stroke-linejoin="round"/>
</g>
<rect x="0.559317" y="0.508048" width="22.254" height="20.9839" rx="5.84255" stroke="#878A9C" stroke-width="1.0161"/>
</g>
<defs>
<filter id="filter0_b_433_3412" x="-5.02921" y="-5.08048" width="33.431" height="32.161" filterUnits="userSpaceOnUse" color-interpolation-filters="sRGB">
<feFlood flood-opacity="0" result="BackgroundImageFix"/>
<feGaussianBlur in="BackgroundImageFix" stdDeviation="2.54024"/>
<feComposite in2="SourceAlpha" operator="in" result="effect1_backgroundBlur_433_3412"/>
<feBlend mode="normal" in="SourceGraphic" in2="effect1_backgroundBlur_433_3412" result="shape"/>
</filter>
<clipPath id="clip0_433_3412">
<rect width="15.6494" height="15.6494" fill="white" transform="translate(3.86182 3.17529)"/>
</clipPath>
</defs>
</svg>
