<svg width="12" height="13" viewBox="0 0 12 13" fill="none" xmlns="http://www.w3.org/2000/svg">
<g clip-path="url(#clip0_433_3326)">
<path d="M5.67694 6.34225C7.3926 6.34225 8.78308 4.9735 8.78308 3.28465C8.78308 1.5958 7.3926 0.227051 5.67694 0.227051C3.96129 0.227051 2.57081 1.5958 2.57081 3.28465C2.57081 4.9735 3.96129 6.34225 5.67694 6.34225ZM4.56796 7.48885C2.17769 7.48885 0.241211 9.39507 0.241211 11.748C0.241211 12.1397 0.563958 12.4574 0.961931 12.4574H10.392C10.7899 12.4574 11.1127 12.1397 11.1127 11.748C11.1127 9.39507 9.1762 7.48885 6.78593 7.48885H4.56796Z" fill="#2B5783"/>
</g>
<defs>
<clipPath id="clip0_433_3326">
<rect width="10.8715" height="12.2304" fill="white" transform="translate(0.241211 0.227051)"/>
</clipPath>
</defs>
</svg>
