<svg width="13" height="13" viewBox="0 0 13 13" fill="none" xmlns="http://www.w3.org/2000/svg">
<g clip-path="url(#clip0_433_3332)">
<path d="M8.4084 6.35543C8.4084 6.88574 8.37973 7.39693 8.32957 7.88423H3.90083C3.84828 7.39693 3.822 6.88574 3.822 6.35543C3.822 5.82513 3.85066 5.31394 3.90083 4.82663H8.32957C8.38212 5.31394 8.4084 5.82513 8.4084 6.35543ZM9.09636 4.82663H12.0369C12.1635 5.31633 12.2304 5.82752 12.2304 6.35543C12.2304 6.88335 12.1635 7.39454 12.0369 7.88423H9.09636C9.14652 7.39215 9.1728 6.88096 9.1728 6.35543C9.1728 5.82991 9.14652 5.31872 9.09636 4.82663ZM11.7861 4.06223H8.99842C8.75955 2.53582 8.28657 1.25784 7.67744 0.440889C9.54783 0.935361 11.0695 2.29217 11.7837 4.06223H11.7861ZM8.22447 4.06223H4.00593C4.15165 3.19273 4.37619 2.42355 4.6509 1.80009C4.90171 1.23634 5.1812 0.827867 5.45113 0.569882C5.71867 0.316674 5.94082 0.240234 6.1152 0.240234C6.28958 0.240234 6.51173 0.316674 6.77927 0.569882C7.0492 0.827867 7.32868 1.23634 7.5795 1.80009C7.8566 2.42116 8.08114 3.19034 8.22447 4.06223ZM3.23198 4.06223H0.444307C1.16093 2.29217 2.68018 0.935361 4.55296 0.440889C3.94383 1.25784 3.47085 2.53582 3.23198 4.06223ZM0.193489 4.82663H3.13404C3.08388 5.31872 3.0576 5.82991 3.0576 6.35543C3.0576 6.88096 3.08388 7.39215 3.13404 7.88423H0.193489C0.066885 7.39454 0 6.88335 0 6.35543C0 5.82752 0.066885 5.31633 0.193489 4.82663ZM4.6509 10.9084C4.3738 10.2873 4.15165 9.51814 4.00593 8.64863H8.22447C8.07875 9.51814 7.85421 10.2873 7.5795 10.9084C7.32868 11.4721 7.0492 11.8806 6.77927 12.1386C6.51173 12.3942 6.28958 12.4706 6.1152 12.4706C5.94082 12.4706 5.71867 12.3942 5.45113 12.141C5.1812 11.883 4.90171 11.4745 4.6509 10.9108V10.9084ZM3.23198 8.64863C3.47085 10.175 3.94383 11.453 4.55296 12.27C2.68018 11.7755 1.16093 10.4187 0.444307 8.64863H3.23198ZM11.7861 8.64863C11.0695 10.4187 9.55022 11.7755 7.67983 12.27C8.28896 11.453 8.75955 10.175 9.00081 8.64863H11.7861Z" fill="#2B5783"/>
</g>
<defs>
<clipPath id="clip0_433_3332">
<rect width="12.2304" height="12.2304" fill="white" transform="translate(0 0.240234)"/>
</clipPath>
</defs>
</svg>
