<svg width="14" height="15" viewBox="0 0 14 15" fill="none" xmlns="http://www.w3.org/2000/svg">
<g clip-path="url(#clip0_433_3402)">
<path d="M6.93864 0.560059C7.40844 0.560059 7.78938 0.938196 7.78938 1.40453V4.2197C7.78938 4.68603 7.40844 5.06417 6.93864 5.06417C6.46884 5.06417 6.08789 4.68603 6.08789 4.2197V1.40453C6.08789 0.938196 6.46884 0.560059 6.93864 0.560059Z" fill="#CD1C1C"/>
<path d="M8.92346 3.34139C8.9192 3.62499 9.06339 3.89037 9.30414 4.043C11.4427 5.34008 12.1171 8.11221 10.8104 10.2347C9.50366 12.3573 6.71094 13.0267 4.57263 11.7299C2.43433 10.433 1.75969 7.66066 3.0664 5.53786C3.43964 4.93131 3.95253 4.42114 4.56252 4.04881C4.80753 3.89618 4.95518 3.62869 4.95331 3.34165C4.95464 2.87532 4.57476 2.49612 4.10496 2.4948C3.94349 2.49428 3.78547 2.53943 3.64873 2.62499C0.721665 4.42985 -0.177497 8.2482 1.64078 11.1537C3.45906 14.0592 7.30577 14.9514 10.2328 13.1468C13.1599 11.3422 14.0591 7.52361 12.2408 4.61813C11.7348 3.80931 11.0477 3.12723 10.2328 2.62499C9.83406 2.37518 9.30707 2.49375 9.05541 2.88958C8.96922 3.02478 8.92373 3.18137 8.92346 3.34139Z" fill="#CD1C1C"/>
</g>
<defs>
<clipPath id="clip0_433_3402">
<rect width="12.48" height="13.52" fill="white" transform="translate(0.700684 0.560059)"/>
</clipPath>
</defs>
</svg>
