<svg width="13" height="13" viewBox="0 0 13 13" fill="none" xmlns="http://www.w3.org/2000/svg">
<path d="M5.82332 1.18444C5.9995 0.789199 6.5605 0.789198 6.73668 1.18444L8.17375 4.40838C8.24642 4.57139 8.40047 4.68332 8.57796 4.70205L12.0882 5.07253C12.5185 5.11795 12.6919 5.6515 12.3704 5.9412L9.74836 8.30418C9.61578 8.42367 9.55694 8.60476 9.59397 8.77935L10.3263 12.2323C10.4161 12.6556 9.96226 12.9853 9.58741 12.7691L6.52981 11.0056C6.37521 10.9164 6.18479 10.9164 6.03019 11.0056L2.97259 12.7691C2.59774 12.9853 2.14388 12.6556 2.23366 12.2323L2.96603 8.77935C3.00306 8.60476 2.94422 8.42367 2.81164 8.30418L0.189572 5.9412C-0.131885 5.6515 0.0414751 5.11795 0.471817 5.07253L3.98204 4.70205C4.15953 4.68332 4.31358 4.57139 4.38625 4.40838L5.82332 1.18444Z" fill="#2B5783"/>
</svg>
