<svg width="11" height="13" viewBox="0 0 11 13" fill="none" xmlns="http://www.w3.org/2000/svg">
<g clip-path="url(#clip0_433_3346)">
<path d="M8.77894 4.34067V3.61497C8.77894 1.64497 7.18183 0.0478516 5.2116 0.0478516C3.24138 0.0478516 1.64451 1.64497 1.64451 3.61497V4.34067C0.716966 4.74533 0.117156 5.6607 0.115723 6.67257V9.73017C0.117395 11.1367 1.2573 12.2766 2.66378 12.2783H7.75966C9.16615 12.2766 10.3061 11.1367 10.3077 9.73017V6.67257C10.3063 5.6607 9.70624 4.74557 8.77894 4.34067ZM5.72136 8.71113C5.72136 8.99253 5.49323 9.22065 5.21184 9.22065C4.93045 9.22065 4.70209 8.99253 4.70209 8.71113V7.69185C4.70209 7.41046 4.93021 7.18233 5.2116 7.18233C5.493 7.18233 5.72112 7.41046 5.72112 7.69185V8.71113H5.72136ZM7.75966 4.12473H2.66378V3.61521C2.66378 2.208 3.80464 1.06713 5.21184 1.06713C6.61904 1.06713 7.75966 2.20776 7.75966 3.61497V4.12473Z" fill="#2B5783"/>
</g>
<defs>
<clipPath id="clip0_433_3346">
<rect width="10.192" height="12.2304" fill="white" transform="translate(0.115234 0.0478516)"/>
</clipPath>
</defs>
</svg>
