<svg width="12" height="13" viewBox="0 0 12 13" fill="none" xmlns="http://www.w3.org/2000/svg">
<g clip-path="url(#clip0_433_3353)">
<path d="M0.357998 4.50045C0.280584 4.70832 0.345902 4.94007 0.512826 5.0882L1.56033 6.02955C1.53372 6.22786 1.5192 6.43094 1.5192 6.63641C1.5192 6.84189 1.53372 7.04497 1.56033 7.24327L0.512826 8.18463C0.345902 8.33276 0.280584 8.56451 0.357998 8.77237C0.464442 9.05669 0.592658 9.32906 0.740229 9.59188L0.85393 9.7854C1.0136 10.0482 1.19261 10.2967 1.38857 10.5308C1.5313 10.7029 1.76838 10.7602 1.98127 10.6933L3.32875 10.2704C3.65292 10.5165 4.01096 10.722 4.39319 10.8773L4.69559 12.2415C4.74397 12.4589 4.91331 12.631 5.13588 12.6668C5.46972 12.7217 5.81325 12.7504 6.16403 12.7504C6.51481 12.7504 6.85833 12.7217 7.19218 12.6668C7.41474 12.631 7.58409 12.4589 7.63247 12.2415L7.93487 10.8773C8.3171 10.722 8.67513 10.5165 8.99931 10.2704L10.3444 10.6957C10.5573 10.7626 10.7943 10.7029 10.9371 10.5332C11.133 10.2991 11.312 10.0506 11.4717 9.78779L11.5854 9.59426C11.733 9.33145 11.8612 9.05908 11.9676 8.77476C12.0451 8.5669 11.9797 8.33515 11.8128 8.18702L10.7653 7.24566C10.7919 7.04497 10.8064 6.84189 10.8064 6.63641C10.8064 6.43094 10.7919 6.22786 10.7653 6.02955L11.8128 5.0882C11.9797 4.94007 12.0451 4.70832 11.9676 4.50045C11.8612 4.21614 11.733 3.94377 11.5854 3.68095L11.4717 3.48743C11.312 3.22461 11.133 2.97613 10.9371 2.74199C10.7943 2.56997 10.5573 2.51263 10.3444 2.57952L8.99689 3.00242C8.67272 2.75633 8.31468 2.55085 7.93245 2.39555L7.63005 1.03131C7.58167 0.813893 7.41232 0.64187 7.18976 0.606031C6.85591 0.54869 6.51239 0.52002 6.16161 0.52002C5.81083 0.52002 5.4673 0.54869 5.13346 0.603642C4.91089 0.63948 4.74155 0.811504 4.69317 1.02892L4.39077 2.39317C4.00854 2.54846 3.6505 2.75394 3.32633 3.00003L1.97885 2.57714C1.76596 2.51024 1.52888 2.56997 1.38615 2.7396C1.1902 2.97375 1.01118 3.22222 0.851511 3.48504L0.737809 3.67856C0.59024 3.94138 0.462023 4.21375 0.355579 4.49807L0.357998 4.50045ZM6.16161 8.54779C5.09233 8.54779 4.22626 7.69245 4.22626 6.63641C4.22626 5.58038 5.09233 4.72504 6.16161 4.72504C7.23089 4.72504 8.09695 5.58038 8.09695 6.63641C8.09695 7.69245 7.23089 8.54779 6.16161 8.54779Z" fill="#2B5783"/>
</g>
<defs>
<clipPath id="clip0_433_3353">
<rect width="11.6745" height="12.2304" fill="white" transform="matrix(-1 0 0 1 12 0.52002)"/>
</clipPath>
</defs>
</svg>
