<svg width="13" height="13" viewBox="0 0 13 13" fill="none" xmlns="http://www.w3.org/2000/svg">
<g clip-path="url(#clip0_433_3385)">
<path d="M1.95464e-05 6.34762C-0.0052357 7.6545 1.04988 8.71797 2.35676 8.72323C2.95873 8.72562 3.53871 8.49869 3.9792 8.0883L7.50547 9.6804C7.48087 9.81226 7.46749 9.94579 7.46534 10.08C7.46128 11.3958 8.52451 12.4659 9.84024 12.47C11.156 12.474 12.2261 11.4108 12.2302 10.0951C12.2342 8.77936 11.171 7.7092 9.85529 7.70514C9.06915 7.70276 8.33246 8.08806 7.88624 8.73541L4.57328 7.23958C4.80857 6.67129 4.80953 6.03326 4.57591 5.46426L7.88433 3.96078C8.62938 5.03834 10.1066 5.30779 11.1841 4.56274C12.2617 3.81769 12.5312 2.34049 11.7861 1.26292C11.0411 0.185359 9.56386 -0.0840924 8.48629 0.660959C7.84467 1.10455 7.46224 1.83551 7.46343 2.61543C7.46558 2.74968 7.4792 2.88345 7.50404 3.01555L3.98708 4.61362C3.03421 3.7188 1.53646 3.76609 0.641638 4.71897C0.227429 5.15969 -0.00213033 5.74255 1.95464e-05 6.34762Z" fill="#2B5783"/>
</g>
<defs>
<clipPath id="clip0_433_3385">
<rect width="12.2302" height="12.2304" fill="white" transform="translate(0 0.239746)"/>
</clipPath>
</defs>
</svg>
