<svg width="10" height="13" viewBox="0 0 10 13" fill="none" xmlns="http://www.w3.org/2000/svg">
<g clip-path="url(#clip0_433_3373)">
<path d="M3.48506 1.98695C3.00185 1.98695 2.61146 2.37734 2.61146 2.86055C2.61146 3.34376 2.22107 3.73415 1.73786 3.73415C1.25465 3.73415 0.864258 3.34376 0.864258 2.86055C0.864258 1.41365 2.03816 0.239746 3.48506 0.239746H6.13316C8.04689 0.239746 9.60026 1.79312 9.60026 3.70685C9.60026 5.13737 8.7212 6.42047 7.38896 6.93917L5.66906 7.60802V8.10215C5.66906 8.58536 5.27867 8.97575 4.79546 8.97575C4.31225 8.97575 3.92186 8.58536 3.92186 8.10215V7.60802C3.92186 6.8873 4.36412 6.24029 5.0357 5.98094L6.7556 5.31209C7.41626 5.05274 7.85306 4.41665 7.85306 3.70685C7.85306 2.75681 7.0832 1.98695 6.13316 1.98695H3.48506ZM4.79546 12.4701C4.19213 12.4701 3.70346 11.9815 3.70346 11.3781C3.70346 10.7748 4.19213 10.2861 4.79546 10.2861C5.39879 10.2861 5.88746 10.7748 5.88746 11.3781C5.88746 11.9815 5.39879 12.4701 4.79546 12.4701Z" fill="#2B5783"/>
</g>
<defs>
<clipPath id="clip0_433_3373">
<rect width="8.736" height="12.2304" fill="white" transform="translate(0.864258 0.239746)"/>
</clipPath>
</defs>
</svg>
