<svg width="33" height="33" viewBox="0 0 33 33" fill="none" xmlns="http://www.w3.org/2000/svg">
<g clip-path="url(#clip0_461_5954)">
<path d="M2.1001 18.08V1.89999C2.1001 1.52869 2.2476 1.1726 2.51015 0.910049C2.7727 0.647499 3.12879 0.5 3.50009 0.5H29.5001C29.8714 0.5 30.2275 0.647499 30.4901 0.910049C30.7526 1.1726 30.9001 1.52869 30.9001 1.89999V31.97H2.1001V20.97" stroke="white" stroke-miterlimit="10" stroke-linecap="round"/>
<path d="M14.28 10.52V31.22" stroke="white" stroke-miterlimit="10" stroke-linecap="round"/>
<path d="M4.62012 31.2199V4.2999C4.62012 3.99225 4.74234 3.69719 4.95988 3.47964C5.17743 3.2621 5.47247 3.13989 5.78012 3.13989H13.1201C13.4278 3.13989 13.7228 3.2621 13.9404 3.47964C14.1579 3.69719 14.2801 3.99225 14.2801 4.2999V8.2399" stroke="white" stroke-miterlimit="10" stroke-linecap="round"/>
<path d="M18.8301 22.9099V4.29994C18.8301 3.99229 18.9523 3.69723 19.1699 3.47969C19.3874 3.26215 19.6824 3.13994 19.9901 3.13994H27.3301C27.4833 3.13862 27.6352 3.16765 27.7771 3.22535C27.919 3.28306 28.048 3.36828 28.1568 3.47613C28.2656 3.58398 28.3519 3.7123 28.4109 3.8537C28.4698 3.99509 28.5001 4.14676 28.5001 4.29994V31.2199" stroke="white" stroke-miterlimit="10" stroke-linecap="round"/>
<path d="M18.8301 31.22V25.24" stroke="white" stroke-miterlimit="10" stroke-linecap="round"/>
<path d="M16.5 0.5V31.43" stroke="white" stroke-miterlimit="10" stroke-linecap="round"/>
<path d="M0.5 31.97H32.5" stroke="white" stroke-miterlimit="10" stroke-linecap="round"/>
<path d="M26.3201 13.8301V20.7701" stroke="white" stroke-miterlimit="10" stroke-linecap="round"/>
<path d="M6.66992 13.8301V20.7701" stroke="white" stroke-miterlimit="10" stroke-linecap="round"/>
</g>
<defs>
<clipPath id="clip0_461_5954">
<rect width="33" height="32.47" fill="white"/>
</clipPath>
</defs>
</svg>
