<svg width="32" height="32" viewBox="0 0 32 32" fill="none" xmlns="http://www.w3.org/2000/svg">
<g clip-path="url(#clip0_461_6381)">
<path d="M22.7275 4.25278C20.5942 3.34231 18.2999 2.87305 15.9818 2.87305C13.6637 2.87305 11.3694 3.34231 9.23615 4.25278C8.25274 4.70286 7.42017 5.42904 6.83897 6.34366C6.25776 7.25829 5.95278 8.32223 5.96085 9.40702V10.9096C5.96085 11.0231 6.00578 11.132 6.08575 11.2122C6.16572 11.2925 6.27418 11.3376 6.38728 11.3376C6.50037 11.3376 6.60883 11.2925 6.6888 11.2122C6.76877 11.132 6.8137 11.0231 6.8137 10.9096V9.40702C6.80531 8.48691 7.06317 7.58411 7.55598 6.80821C8.04879 6.03231 8.75538 5.41665 9.59 5.03594C11.6137 4.17636 13.7889 3.73344 15.9864 3.73344C18.1839 3.73344 20.359 4.17636 22.3827 5.03594C23.2057 5.42154 23.9004 6.03739 24.3832 6.80953C24.866 7.58167 25.1165 8.47727 25.1046 9.38881V18.9415C25.1046 19.055 25.1495 19.1638 25.2295 19.2441C25.3095 19.3244 25.4179 19.3695 25.531 19.3695C25.6441 19.3695 25.7526 19.3244 25.8326 19.2441C25.9125 19.1638 25.9574 19.055 25.9574 18.9415V9.37971C25.9687 8.30357 25.6699 7.24709 25.0968 6.33748C24.5238 5.42787 23.701 4.70392 22.7275 4.25278Z" fill="white"/>
<path d="M25.5309 20.2163C25.4749 20.2163 25.4195 20.2274 25.3678 20.2489C25.316 20.2704 25.269 20.3019 25.2294 20.3417C25.1898 20.3814 25.1584 20.4286 25.137 20.4805C25.1155 20.5324 25.1045 20.5881 25.1045 20.6443V24.2869C22.2633 25.7064 19.1328 26.4452 15.9591 26.4452C12.7853 26.4452 9.65481 25.7064 6.81361 24.2869V12.6306C6.81361 12.5171 6.76868 12.4083 6.68871 12.328C6.60874 12.2477 6.50028 12.2026 6.38718 12.2026C6.27409 12.2026 6.16563 12.2477 6.08566 12.328C6.00569 12.4083 5.96076 12.5171 5.96076 12.6306V25.5162C5.94946 26.5924 6.24833 27.6489 6.82138 28.5585C7.39442 29.4681 8.21722 30.192 9.1907 30.6432C11.3303 31.56 13.6326 32.0326 15.9591 32.0326C18.2855 32.0326 20.5878 31.56 22.7274 30.6432C23.7009 30.192 24.5237 29.4681 25.0967 28.5585C25.6698 27.6489 25.9686 26.5924 25.9573 25.5162V20.6807C25.9624 20.6215 25.9551 20.5619 25.9359 20.5057C25.9168 20.4495 25.8862 20.3979 25.846 20.3543C25.8059 20.3106 25.7572 20.2757 25.7029 20.252C25.6487 20.2282 25.5901 20.2161 25.5309 20.2163ZM22.3826 29.8327C20.3508 30.6978 18.1662 31.1436 15.9591 31.1436C13.7519 31.1436 11.5674 30.6978 9.53547 29.8327C8.71247 29.4471 8.01786 28.8312 7.53504 28.0591C7.05222 27.287 6.80171 26.3914 6.81361 25.4798V25.2248C9.67663 26.5683 12.7986 27.2647 15.9591 27.2647C19.1195 27.2647 22.2415 26.5683 25.1045 25.2248V25.4798C25.1164 26.3914 24.8659 27.287 24.3831 28.0591C23.9003 28.8312 23.2056 29.4471 22.3826 29.8327Z" fill="white"/>
<path d="M21.675 6.02835C21.675 5.91483 21.6301 5.80597 21.5502 5.72571C21.4702 5.64544 21.3617 5.60034 21.2486 5.60034C21.1355 5.60034 21.0271 5.64544 20.9471 5.72571C20.8671 5.80597 20.8222 5.91483 20.8222 6.02835C20.8222 6.09209 20.6045 6.41082 19.5792 6.70223C17.195 7.28813 14.7052 7.28813 12.3209 6.70223C11.2957 6.41082 11.0779 6.09209 11.0779 6.02835C11.0779 5.91483 11.033 5.80597 10.9531 5.72571C10.8731 5.64544 10.7646 5.60034 10.6515 5.60034C10.5384 5.60034 10.43 5.64544 10.35 5.72571C10.27 5.80597 10.2251 5.91483 10.2251 6.02835C10.2251 7.3761 13.1829 7.99534 15.941 7.99534C18.6992 7.99534 21.675 7.41252 21.675 6.02835Z" fill="white"/>
<path d="M14.5891 28.6033H14.2806V28.2937C14.2806 28.1802 14.2357 28.0714 14.1557 27.9911C14.0758 27.9108 13.9673 27.8657 13.8542 27.8657C13.7411 27.8657 13.6326 27.9108 13.5527 27.9911C13.4727 28.0714 13.4278 28.1802 13.4278 28.2937V28.6033H13.1193C13.0062 28.6033 12.8977 28.6484 12.8178 28.7287C12.7378 28.809 12.6929 28.9178 12.6929 29.0313C12.6929 29.1449 12.7378 29.2537 12.8178 29.334C12.8977 29.4143 13.0062 29.4593 13.1193 29.4593H13.4278V29.769C13.4278 29.8825 13.4727 29.9914 13.5527 30.0716C13.6326 30.1519 13.7411 30.197 13.8542 30.197C13.9673 30.197 14.0758 30.1519 14.1557 30.0716C14.2357 29.9914 14.2806 29.8825 14.2806 29.769V29.4593H14.5891C14.7022 29.4593 14.8107 29.4143 14.8906 29.334C14.9706 29.2537 15.0155 29.1449 15.0155 29.0313C15.0155 28.9178 14.9706 28.809 14.8906 28.7287C14.8107 28.6484 14.7022 28.6033 14.5891 28.6033Z" fill="white"/>
<path d="M18.7991 28.6033H17.3293C17.2162 28.6033 17.1077 28.6484 17.0277 28.7286C16.9478 28.8089 16.9028 28.9178 16.9028 29.0313C16.9028 29.1448 16.9478 29.2536 17.0277 29.3339C17.1077 29.4142 17.2162 29.4593 17.3293 29.4593H18.7991C18.9122 29.4593 19.0206 29.4142 19.1006 29.3339C19.1806 29.2536 19.2255 29.1448 19.2255 29.0313C19.2255 28.9178 19.1806 28.8089 19.1006 28.7286C19.0206 28.6484 18.9122 28.6033 18.7991 28.6033Z" fill="white"/>
<path d="M15.8321 21.1542L18.2999 19.3329C18.3673 19.2891 18.4227 19.2291 18.4611 19.1583C18.4994 19.0875 18.5195 19.0082 18.5195 18.9276C18.5195 18.847 18.4994 18.7678 18.4611 18.697C18.4227 18.6262 18.3673 18.5662 18.2999 18.5224L16.4853 17.4569L18.2999 16.4188C18.3654 16.3736 18.4189 16.3131 18.4559 16.2425C18.4929 16.1719 18.5123 16.0934 18.5123 16.0136C18.5123 15.9338 18.4929 15.8552 18.4559 15.7846C18.4189 15.714 18.3654 15.6535 18.2999 15.6083L15.8321 13.7871C15.7594 13.7334 15.6734 13.7009 15.5835 13.6932C15.4936 13.6855 15.4033 13.7028 15.3226 13.7433C15.2419 13.7838 15.1739 13.8459 15.1261 13.9227C15.0784 13.9995 15.0526 14.0881 15.0518 14.1786V16.6374L14.1445 16.0819C14.0352 16.0334 13.9119 16.0267 13.798 16.0631C13.6841 16.0994 13.5873 16.1764 13.526 16.2793C13.4647 16.3823 13.4429 16.5043 13.465 16.6222C13.487 16.7402 13.5512 16.846 13.6455 16.9197L14.5528 17.4843L13.6455 18.0398C13.536 18.1061 13.4567 18.2127 13.4245 18.3369C13.3923 18.4611 13.4097 18.5931 13.4731 18.7045C13.505 18.7598 13.5475 18.8083 13.5981 18.847C13.6488 18.8857 13.7066 18.9139 13.7683 18.93C13.8299 18.9461 13.8941 18.9497 13.9571 18.9407C14.0201 18.9317 14.0807 18.9102 14.1354 18.8776L15.0427 18.3403V20.7808C15.0414 20.8712 15.0655 20.9602 15.1121 21.0375C15.1587 21.1149 15.2261 21.1775 15.3065 21.2183C15.3869 21.2591 15.477 21.2765 15.5668 21.2683C15.6565 21.2602 15.7421 21.227 15.8139 21.1724L15.8321 21.1542ZM16.0317 15.1348L17.1476 15.9726L16.0317 16.6283V15.1348ZM16.0317 18.3312L17.1385 18.9959L16.0317 19.8064V18.3312Z" fill="white"/>
<path d="M28.0532 8.32324C28.0234 7.3538 27.7603 6.40601 27.2863 5.56081C26.8123 4.7156 26.1416 3.99808 25.3314 3.4695C25.2253 3.40019 25.0962 3.37566 24.9722 3.40124C24.8483 3.42681 24.7393 3.50043 24.6691 3.60611C24.6337 3.65846 24.6091 3.71739 24.5968 3.77943C24.5844 3.84147 24.5846 3.90535 24.5973 3.96732C24.61 4.02929 24.6349 4.08807 24.6706 4.1402C24.7063 4.19234 24.7521 4.23678 24.8051 4.27088C25.486 4.7188 26.0487 5.32546 26.4453 6.03905C26.8418 6.75265 27.0605 7.55198 27.0824 8.36877C27.0885 8.49677 27.1449 8.61714 27.2393 8.70338C27.3338 8.78963 27.4584 8.83467 27.586 8.82864C27.7135 8.8226 27.8334 8.76597 27.9193 8.67119C28.0053 8.57641 28.0502 8.45124 28.0442 8.32324H28.0532Z" fill="white"/>
<path d="M31.0382 8.32337V8.39622C31.0406 8.45962 31.0553 8.52192 31.0817 8.57959C31.108 8.63725 31.1455 8.68913 31.1918 8.73227C31.2381 8.7754 31.2925 8.80895 31.3518 8.83098C31.4111 8.85301 31.4741 8.86308 31.5372 8.86065C31.6632 8.85358 31.7813 8.79711 31.8662 8.70342C31.9511 8.60973 31.9958 8.48631 31.9909 8.35979V8.32337C31.9838 8.19695 31.9276 8.07836 31.8342 7.99319C31.7409 7.90802 31.6179 7.86307 31.4919 7.86805C31.3659 7.87512 31.2478 7.93158 31.1629 8.02527C31.078 8.11897 31.0333 8.24238 31.0382 8.36891V8.32337Z" fill="white"/>
<path d="M26.8467 0.874198C28.8394 2.17989 30.2557 4.20459 30.8024 6.52928C30.8082 6.59718 30.8286 6.66302 30.8621 6.72229C30.8956 6.78156 30.9415 6.83287 30.9966 6.87272C31.0517 6.91257 31.1147 6.94003 31.1813 6.9532C31.2479 6.96638 31.3165 6.96496 31.3826 6.94906C31.4486 6.93316 31.5104 6.90313 31.5638 6.86105C31.6172 6.81896 31.661 6.7658 31.692 6.7052C31.7231 6.6446 31.7407 6.57799 31.7438 6.50991C31.7468 6.44183 31.7352 6.37388 31.7097 6.31072C31.1109 3.75174 29.555 1.5217 27.3638 0.0819289C27.2595 0.029153 27.1396 0.0162985 27.0265 0.0457594C26.9135 0.0752203 26.815 0.144978 26.7494 0.242017C26.6838 0.339056 26.6557 0.456738 26.6703 0.573073C26.6848 0.689407 26.7411 0.796451 26.8285 0.874198H26.8467Z" fill="white"/>
<path d="M3.93758 8.32321C3.93515 8.3866 3.94521 8.44986 3.96715 8.50935C3.9891 8.56884 4.02251 8.6234 4.06549 8.66992C4.10846 8.71644 4.16016 8.754 4.21761 8.78045C4.27506 8.80689 4.33713 8.82172 4.40029 8.82406C4.46226 8.8265 4.5241 8.81665 4.58227 8.79508C4.64045 8.77351 4.69382 8.74064 4.73932 8.69835C4.78483 8.65606 4.82158 8.60519 4.84747 8.54863C4.87337 8.49207 4.8879 8.43094 4.89024 8.36874C4.91397 7.55129 5.13429 6.75171 5.5324 6.03818C5.9305 5.32464 6.4946 4.71831 7.1766 4.27085C7.2819 4.20032 7.35523 4.09098 7.38071 3.96652C7.40618 3.84207 7.38175 3.71256 7.31269 3.60608C7.24075 3.49978 7.13021 3.42596 7.00473 3.40043C6.87925 3.3749 6.7488 3.39968 6.64129 3.46948C5.83162 3.99861 5.1613 4.71627 4.68739 5.56136C4.21349 6.40645 3.95003 7.35394 3.91943 8.32321H3.93758Z" fill="white"/>
<path d="M0.952482 8.32326C0.942979 8.2064 0.891412 8.09701 0.807423 8.01552C0.723435 7.93403 0.612768 7.88601 0.496084 7.88043C0.379399 7.87485 0.264673 7.9121 0.17335 7.98521C0.0820268 8.05833 0.0203512 8.1623 -0.000171859 8.27772V8.35968C-0.00383826 8.42262 0.00504892 8.48567 0.0259796 8.54511C0.0469103 8.60456 0.0794575 8.6592 0.121712 8.70585C0.163966 8.7525 0.215076 8.79022 0.272045 8.81678C0.329013 8.84334 0.390699 8.85822 0.453471 8.86054C0.51663 8.86297 0.579641 8.8529 0.638913 8.83087C0.698186 8.80884 0.752549 8.77529 0.798895 8.73216C0.845242 8.68902 0.882659 8.63714 0.909011 8.57947C0.935363 8.52181 0.950143 8.45951 0.952482 8.39611V8.32326Z" fill="white"/>
<path d="M5.16256 0.874198C5.25 0.796451 5.30625 0.689407 5.32081 0.573073C5.33537 0.456738 5.30724 0.339056 5.24168 0.242017C5.17611 0.144978 5.07759 0.0752203 4.96452 0.0457594C4.85145 0.0162985 4.73156 0.029153 4.62725 0.0819289C2.43662 1.52409 0.878522 3.7526 0.272284 6.31072C0.244966 6.4362 0.267635 6.56743 0.335454 6.67634C0.403273 6.78525 0.510853 6.8632 0.635193 6.89354C0.75907 6.92073 0.888642 6.89773 0.995693 6.82951C1.10274 6.76129 1.17861 6.65338 1.20679 6.52928C1.75351 4.20459 3.16981 2.17989 5.16256 0.874198Z" fill="white"/>
</g>
<defs>
<clipPath id="clip0_461_6381">
<rect width="32" height="32" fill="white"/>
</clipPath>
</defs>
</svg>
