<svg width="32" height="32" viewBox="0 0 32 32" fill="none" xmlns="http://www.w3.org/2000/svg">
<g clip-path="url(#clip0_461_5645)">
<path d="M25.1332 12.8495C25.4278 12.8495 25.6666 12.6107 25.6666 12.3161V2.20513C25.6666 0.9892 24.6774 0 23.4614 0H8.53838C7.32245 0 6.33325 0.9892 6.33325 2.20513V29.7949C6.33325 31.0108 7.32245 32 8.53838 32H23.4614C24.6774 32 25.6666 31.0108 25.6666 29.7949V15.3333C25.6666 15.0388 25.4278 14.8 25.1332 14.8H9.94185C9.64732 14.8 9.40852 15.0388 9.40852 15.3333C9.40852 15.6279 9.64732 15.8667 9.94185 15.8667H24.5999V29.7949C24.5999 30.4227 24.0892 30.9333 23.4614 30.9333H8.53838C7.91058 30.9333 7.39992 30.4226 7.39992 29.7949V2.20513C7.39992 1.5774 7.91065 1.06667 8.53838 1.06667H23.4614C24.0892 1.06667 24.5999 1.5774 24.5999 2.20513V12.3161C24.5999 12.6107 24.8387 12.8495 25.1332 12.8495Z" fill="white"/>
<path d="M16 10.1333C15.7055 10.1333 15.4667 10.3721 15.4667 10.6667C15.4667 10.9612 15.7055 11.2 16 11.2C17.6909 11.2 19.0667 9.82425 19.0667 8.13332C19.0667 6.44238 17.6909 5.06665 16 5.06665C13.7609 5.06665 12.2787 7.40065 13.217 9.42292C13.341 9.69005 13.658 9.80612 13.9253 9.68218C14.1925 9.55818 14.3086 9.24105 14.1846 8.97385C13.574 7.65812 14.5373 6.13332 16 6.13332C17.1028 6.13332 18 7.03052 18 8.13332C18 9.23612 17.1028 10.1333 16 10.1333Z" fill="white"/>
<path d="M15.9999 19.0667C16.2944 19.0667 16.5332 18.8279 16.5332 18.5334V18.4C16.5332 18.1055 16.2944 17.8667 15.9999 17.8667C15.7054 17.8667 15.4666 18.1055 15.4666 18.4V18.5334C15.4666 18.8279 15.7054 19.0667 15.9999 19.0667Z" fill="white"/>
<path d="M12.8666 19.0667C13.1611 19.0667 13.3999 18.8279 13.3999 18.5334V18.4C13.3999 18.1055 13.1611 17.8667 12.8666 17.8667C12.5721 17.8667 12.3333 18.1055 12.3333 18.4V18.5334C12.3333 18.8279 12.5721 19.0667 12.8666 19.0667Z" fill="white"/>
<path d="M9.66664 17.8667C9.3721 17.8667 9.1333 18.1055 9.1333 18.4V18.5334C9.1333 18.8279 9.3721 19.0667 9.66664 19.0667C9.96117 19.0667 10.2 18.8279 10.2 18.5334V18.4C10.2 18.1055 9.96117 17.8667 9.66664 17.8667Z" fill="white"/>
<path d="M19.1332 19.0667C19.4277 19.0667 19.6665 18.8279 19.6665 18.5334V18.4C19.6665 18.1055 19.4277 17.8667 19.1332 17.8667C18.8387 17.8667 18.5999 18.1055 18.5999 18.4V18.5334C18.5999 18.8279 18.8387 19.0667 19.1332 19.0667Z" fill="white"/>
<path d="M22.3331 19.0667C22.6277 19.0667 22.8665 18.8279 22.8665 18.5334V18.4C22.8665 18.1055 22.6277 17.8667 22.3331 17.8667C22.0386 17.8667 21.7998 18.1055 21.7998 18.4V18.5334C21.7998 18.8279 22.0386 19.0667 22.3331 19.0667Z" fill="white"/>
<path d="M15.4666 25.2C15.4666 25.4945 15.7054 25.7333 15.9999 25.7333C16.2944 25.7333 16.5332 25.4945 16.5332 25.2V25.0667C16.5332 24.7721 16.2944 24.5333 15.9999 24.5333C15.7054 24.5333 15.4666 24.7721 15.4666 25.0667V25.2Z" fill="white"/>
<path d="M12.3333 25.2C12.3333 25.4945 12.5721 25.7333 12.8666 25.7333C13.1611 25.7333 13.3999 25.4945 13.3999 25.2V25.0667C13.3999 24.7721 13.1611 24.5333 12.8666 24.5333C12.5721 24.5333 12.3333 24.7721 12.3333 25.0667V25.2Z" fill="white"/>
<path d="M10.2 25.0667C10.2 24.7721 9.96117 24.5333 9.66664 24.5333C9.3721 24.5333 9.1333 24.7721 9.1333 25.0667V25.2C9.1333 25.4945 9.3721 25.7333 9.66664 25.7333C9.96117 25.7333 10.2 25.4945 10.2 25.2V25.0667Z" fill="white"/>
<path d="M18.5999 25.2C18.5999 25.4945 18.8387 25.7333 19.1332 25.7333C19.4277 25.7333 19.6665 25.4945 19.6665 25.2V25.0667C19.6665 24.7721 19.4277 24.5333 19.1332 24.5333C18.8387 24.5333 18.5999 24.7721 18.5999 25.0667V25.2Z" fill="white"/>
<path d="M21.7998 25.2C21.7998 25.4945 22.0386 25.7333 22.3331 25.7333C22.6277 25.7333 22.8665 25.4945 22.8665 25.2V25.0667C22.8665 24.7721 22.6277 24.5333 22.3331 24.5333C22.0386 24.5333 21.7998 24.7721 21.7998 25.0667V25.2Z" fill="white"/>
<path d="M14.2196 22.4C14.5141 22.4 14.7529 22.1612 14.7529 21.8666V21.7333C14.7529 21.4388 14.5141 21.2 14.2196 21.2C13.9251 21.2 13.6863 21.4388 13.6863 21.7333V21.8666C13.6863 22.1612 13.925 22.4 14.2196 22.4Z" fill="white"/>
<path d="M11.2666 21.7333C11.2666 21.4388 11.0278 21.2 10.7333 21.2C10.4388 21.2 10.2 21.4388 10.2 21.7333V21.8666C10.2 22.1612 10.4388 22.4 10.7333 22.4C11.0278 22.4 11.2666 22.1612 11.2666 21.8666V21.7333Z" fill="white"/>
<path d="M17.7059 22.4C18.0005 22.4 18.2393 22.1612 18.2393 21.8666V21.7333C18.2393 21.4388 18.0005 21.2 17.7059 21.2C17.4114 21.2 17.1726 21.4388 17.1726 21.7333V21.8666C17.1726 22.1612 17.4114 22.4 17.7059 22.4Z" fill="white"/>
<path d="M21.2665 21.2C20.972 21.2 20.7332 21.4388 20.7332 21.7333V21.8666C20.7332 22.1612 20.972 22.4 21.2665 22.4C21.561 22.4 21.7998 22.1612 21.7998 21.8666V21.7333C21.7998 21.4388 21.561 21.2 21.2665 21.2Z" fill="white"/>
<path d="M13.6863 28.5334C13.6863 28.8279 13.9251 29.0667 14.2196 29.0667C14.5141 29.0667 14.7529 28.8279 14.7529 28.5334V28.4C14.7529 28.1055 14.5141 27.8667 14.2196 27.8667C13.9251 27.8667 13.6863 28.1055 13.6863 28.4V28.5334Z" fill="white"/>
<path d="M10.7333 29.0667C11.0278 29.0667 11.2666 28.8279 11.2666 28.5334V28.4C11.2666 28.1055 11.0278 27.8667 10.7333 27.8667C10.4388 27.8667 10.2 28.1055 10.2 28.4V28.5334C10.2 28.8279 10.4388 29.0667 10.7333 29.0667Z" fill="white"/>
<path d="M17.1726 28.5334C17.1726 28.8279 17.4114 29.0667 17.7059 29.0667C18.0005 29.0667 18.2393 28.8279 18.2393 28.5334V28.4C18.2393 28.1055 18.0005 27.8667 17.7059 27.8667C17.4114 27.8667 17.1726 28.1055 17.1726 28.4V28.5334Z" fill="white"/>
<path d="M20.7332 28.5334C20.7332 28.8279 20.972 29.0667 21.2665 29.0667C21.561 29.0667 21.7998 28.8279 21.7998 28.5334V28.4C21.7998 28.1055 21.561 27.8667 21.2665 27.8667C20.972 27.8667 20.7332 28.1055 20.7332 28.4V28.5334Z" fill="white"/>
</g>
<defs>
<clipPath id="clip0_461_5645">
<rect width="32" height="32" fill="white"/>
</clipPath>
</defs>
</svg>
