<svg width="32" height="32" viewBox="0 0 32 32" fill="none" xmlns="http://www.w3.org/2000/svg">
<path d="M24.45 20.05C24.45 20.35 24.5 20.7 24.5 21C24.5 21.3 24.7 21.5 25 21.5C25.3 21.5 25.5 21.3 25.5 21C25.5 20.65 25.5 20.3 25.45 19.95C25.45 19.7 25.2 19.45 24.9 19.5C24.65 19.5 24.45 19.75 24.45 20.05Z" fill="white"/>
<path d="M11.9999 10.35C13.0499 9.1 14.1499 8.15 14.8999 7.5H17.1499C19.3499 9.35 23.0999 13.1 24.1999 18.1C24.2499 18.35 24.5499 18.55 24.7999 18.5C25.0499 18.45 25.2499 18.15 25.1999 17.9C23.9499 12.5 19.8999 8.5 17.6499 6.6C17.6499 6.6 17.5499 6.5 17.3499 6.5H14.7499C14.5499 6.5 14.4499 6.6 14.4499 6.6C13.6499 7.25 12.4999 8.3 11.2999 9.65C11.0999 9.85 11.1499 10.15 11.3499 10.35C11.5499 10.6 11.8999 10.45 11.9999 10.35Z" fill="white"/>
<path d="M23 30.5H22.15C23.85 28.6 25 25.95 25.35 23.05C25.4 22.8 25.2 22.55 24.9 22.5C24.65 22.45 24.4 22.65 24.35 22.95C24.3 23.5 24.2 24 24.05 24.5H15.25C14.95 24.5 14.75 24.7 14.75 25C14.75 25.3 14.95 25.5 15.25 25.5H23.85C23.2 27.5 22.15 29.25 20.8 30.5H19.9C19.6 30.5 19.4 30.7 19.4 31C19.4 31.3 19.6 31.5 19.9 31.5H23C23.3 31.5 23.5 31.3 23.5 31C23.5 30.7 23.3 30.5 23 30.5Z" fill="white"/>
<path d="M17.95 30.5H11.2C9.85 29.25 8.8 27.5 8.15 25.5H12.75C13.05 25.5 13.25 25.3 13.25 25C13.25 24.7 13.05 24.5 12.75 24.5H7.85C7.6 23.4 7.45 22.2 7.45 21C7.45 18 8.5 15 10.5 12.15C10.65 11.9 10.6 11.6 10.4 11.45C10.15 11.3 9.85 11.35 9.7 11.55C7.6 14.6 6.5 17.8 6.5 21C6.5 24.7 7.75 28.15 9.8 30.5H1C0.7 30.5 0.5 30.7 0.5 31C0.5 31.3 0.7 31.5 1 31.5H17.95C18.25 31.5 18.45 31.3 18.45 31C18.45 30.7 18.2 30.5 17.95 30.5Z" fill="white"/>
<path d="M31 30.5H25C24.7 30.5 24.5 30.7 24.5 31C24.5 31.3 24.7 31.5 25 31.5H31C31.3 31.5 31.5 31.3 31.5 31C31.5 30.7 31.3 30.5 31 30.5Z" fill="white"/>
<path d="M15 9.5C14.7 9.5 14.5 9.7 14.5 10C14.5 10.3 14.7 10.5 15 10.5H17C17.3 10.5 17.5 10.3 17.5 10C17.5 9.7 17.3 9.5 17 9.5H15Z" fill="white"/>
<path d="M9.50003 20.2C9.60003 19.95 9.50003 19.65 9.20003 19.55C8.95004 19.45 8.65004 19.55 8.55004 19.85C8.15004 20.7999 8.20004 22.3499 8.65004 23.2499C8.75004 23.3999 8.90004 23.5499 9.10004 23.5499H11C11.3 23.5499 11.5 23.3499 11.5 23.0499C11.5 22.7499 11.3 22.5499 11 22.5499H9.45003C9.25003 21.7999 9.25003 20.8 9.50003 20.2Z" fill="white"/>
<path d="M16 28.5C16.2761 28.5 16.5 28.2761 16.5 28C16.5 27.7239 16.2761 27.5 16 27.5C15.7239 27.5 15.5 27.7239 15.5 28C15.5 28.2761 15.7239 28.5 16 28.5Z" fill="white"/>
<path d="M16 5.5C16.2761 5.5 16.5 5.27614 16.5 5C16.5 4.72386 16.2761 4.5 16 4.5C15.7239 4.5 15.5 4.72386 15.5 5C15.5 5.27614 15.7239 5.5 16 5.5Z" fill="white"/>
<path d="M16 3.5C16.2761 3.5 16.5 3.27614 16.5 3C16.5 2.72386 16.2761 2.5 16 2.5C15.7239 2.5 15.5 2.72386 15.5 3C15.5 3.27614 15.7239 3.5 16 3.5Z" fill="white"/>
<path d="M14 4.5C14.2761 4.5 14.5 4.27614 14.5 4C14.5 3.72386 14.2761 3.5 14 3.5C13.7239 3.5 13.5 3.72386 13.5 4C13.5 4.27614 13.7239 4.5 14 4.5Z" fill="white"/>
<path d="M14 2.5C14.2761 2.5 14.5 2.27614 14.5 2C14.5 1.72386 14.2761 1.5 14 1.5C13.7239 1.5 13.5 1.72386 13.5 2C13.5 2.27614 13.7239 2.5 14 2.5Z" fill="white"/>
<path d="M12 3.5C12.2761 3.5 12.5 3.27614 12.5 3C12.5 2.72386 12.2761 2.5 12 2.5C11.7239 2.5 11.5 2.72386 11.5 3C11.5 3.27614 11.7239 3.5 12 3.5Z" fill="white"/>
<path d="M16 1.5C16.2761 1.5 16.5 1.27614 16.5 1C16.5 0.723858 16.2761 0.5 16 0.5C15.7239 0.5 15.5 0.723858 15.5 1C15.5 1.27614 15.7239 1.5 16 1.5Z" fill="white"/>
<path d="M18 2.5C18.2761 2.5 18.5 2.27614 18.5 2C18.5 1.72386 18.2761 1.5 18 1.5C17.7239 1.5 17.5 1.72386 17.5 2C17.5 2.27614 17.7239 2.5 18 2.5Z" fill="white"/>
<path d="M18 4.5C18.2761 4.5 18.5 4.27614 18.5 4C18.5 3.72386 18.2761 3.5 18 3.5C17.7239 3.5 17.5 3.72386 17.5 4C17.5 4.27614 17.7239 4.5 18 4.5Z" fill="white"/>
<path d="M20 3.5C20.2761 3.5 20.5 3.27614 20.5 3C20.5 2.72386 20.2761 2.5 20 2.5C19.7239 2.5 19.5 2.72386 19.5 3C19.5 3.27614 19.7239 3.5 20 3.5Z" fill="white"/>
<path d="M22 2.5C22.2761 2.5 22.5 2.27614 22.5 2C22.5 1.72386 22.2761 1.5 22 1.5C21.7239 1.5 21.5 1.72386 21.5 2C21.5 2.27614 21.7239 2.5 22 2.5Z" fill="white"/>
<path d="M24 1.5C24.2761 1.5 24.5 1.27614 24.5 1C24.5 0.723858 24.2761 0.5 24 0.5C23.7239 0.5 23.5 0.723858 23.5 1C23.5 1.27614 23.7239 1.5 24 1.5Z" fill="white"/>
<path d="M20 1.5C20.2761 1.5 20.5 1.27614 20.5 1C20.5 0.723858 20.2761 0.5 20 0.5C19.7239 0.5 19.5 0.723858 19.5 1C19.5 1.27614 19.7239 1.5 20 1.5Z" fill="white"/>
<path d="M12 1.5C12.2761 1.5 12.5 1.27614 12.5 1C12.5 0.723858 12.2761 0.5 12 0.5C11.7239 0.5 11.5 0.723858 11.5 1C11.5 1.27614 11.7239 1.5 12 1.5Z" fill="white"/>
<path d="M9.94995 2.5C10.2261 2.5 10.45 2.27614 10.45 2C10.45 1.72386 10.2261 1.5 9.94995 1.5C9.67381 1.5 9.44995 1.72386 9.44995 2C9.44995 2.27614 9.67381 2.5 9.94995 2.5Z" fill="white"/>
<path d="M8 1.5C8.27614 1.5 8.5 1.27614 8.5 1C8.5 0.723858 8.27614 0.5 8 0.5C7.72386 0.5 7.5 0.723858 7.5 1C7.5 1.27614 7.72386 1.5 8 1.5Z" fill="white"/>
<path d="M18.95 28.5C19.2261 28.5 19.45 28.2761 19.45 28C19.45 27.7239 19.2261 27.5 18.95 27.5C18.6738 27.5 18.45 27.7239 18.45 28C18.45 28.2761 18.6738 28.5 18.95 28.5Z" fill="white"/>
<path d="M13.05 28.5C13.3262 28.5 13.55 28.2761 13.55 28C13.55 27.7239 13.3262 27.5 13.05 27.5C12.7739 27.5 12.55 27.7239 12.55 28C12.55 28.2761 12.7739 28.5 13.05 28.5Z" fill="white"/>
</svg>
