<svg width="32" height="32" viewBox="0 0 32 32" fill="none" xmlns="http://www.w3.org/2000/svg">
<g clip-path="url(#clip0_455_4473)">
<path d="M31.4155 21.184C31.1628 21.1279 30.9126 21.2878 30.8568 21.5405C30.6322 22.557 30.2263 23.4415 29.7404 23.976C29.6551 24.0522 29.4408 24.4034 28.9356 24.7495C26.7245 26.2646 23.6874 24.5932 23.8489 21.8728C23.8544 21.7789 23.8183 20.6185 23.239 19.412C22.6838 18.2555 21.5042 16.8 19.0377 16.4328C18.8077 16.3988 18.5877 16.5379 18.5202 16.7602C18.317 17.4293 17.8429 18.0004 17.2193 18.3268C17.1063 18.3859 17.0224 18.4885 16.9867 18.6109C16.9511 18.7333 16.9668 18.865 17.0303 18.9755C17.8785 20.4512 19.1556 23.472 18.1784 27.1232C16.5459 33.2235 5.76946 31.6358 6.73114 26.4901C7.03095 24.8851 8.46882 23.7443 10.1221 23.8413C10.8152 23.882 14.9109 23.4066 15.5622 19.0302C15.5965 18.8003 15.4571 18.5802 15.2349 18.5127C14.5657 18.3095 13.9947 17.8353 13.6684 17.2118C13.5451 16.9763 13.2503 16.8902 13.0196 17.0229C11.5439 17.871 8.52301 19.1482 4.87196 18.1709C2.56146 17.5526 1.61847 15.8179 1.23422 14.4715C0.548844 12.0699 1.0394 8.62705 3.06684 7.23817C4.54783 6.22336 6.57827 6.60274 7.59301 8.08386C8.29095 9.10248 8.13901 10.0689 8.15708 10.204C8.16664 10.4562 8.23764 11.4802 8.76351 12.5756C9.3187 13.732 10.4983 15.1876 12.9648 15.5547C13.1948 15.5893 13.4148 15.4496 13.4822 15.2274C13.6856 14.5581 14.1597 13.9872 14.7831 13.6609C15.0186 13.5377 15.1046 13.2429 14.9721 13.0122C14.1239 11.5364 12.8469 8.51536 13.8241 4.86455C14.4342 2.58456 16.1349 1.63906 17.4543 1.24744C17.7025 1.17375 17.8439 0.912936 17.7702 0.664874C17.6966 0.41675 17.4357 0.275062 17.1877 0.348937C15.6388 0.808686 13.6409 1.92325 12.9187 4.62224C11.9363 8.29274 13.0409 11.3698 13.9404 13.0807C13.4127 13.4555 12.9922 13.9699 12.7318 14.5608C10.4798 14.0813 9.21957 12.3564 9.0922 10.1178C9.25607 6.66424 5.38264 4.51512 2.53709 6.46486C1.94603 6.8698 1.66847 7.27805 1.60597 7.34055C-0.757653 9.86086 -1.0659 17.5523 4.62965 19.0764C7.53733 19.8546 10.4989 19.4162 13.0881 18.0547C13.4629 18.5824 13.9775 19.003 14.5683 19.2634C14.0888 21.5155 12.3638 22.7756 10.1253 22.903C8.03701 22.8033 6.19558 24.2531 5.80971 26.318C5.60402 27.419 5.83933 28.5341 6.47233 29.4579C8.90614 33.0109 17.4974 33.2941 19.0839 27.3656C20.0663 23.6948 18.9616 20.618 18.062 18.9072C18.5899 18.5323 19.0104 18.0178 19.2708 17.427C21.5546 17.9133 22.8015 19.6932 22.9104 21.8693C22.7464 25.3255 26.6203 27.4725 29.4655 25.5229C30.057 25.1176 30.3341 24.7096 30.3966 24.6471C31.0156 23.9871 31.5041 22.9558 31.7721 21.7428C31.8278 21.49 31.6681 21.2398 31.4155 21.184Z" fill="white"/>
<path d="M27.373 12.911C23.7023 11.9287 20.6252 13.0334 18.9144 13.933C18.5396 13.4053 18.0251 12.9847 17.4343 12.7241C17.9151 10.4666 19.6445 9.2128 21.8773 9.08474C25.3589 9.2498 27.4671 5.35649 25.5303 2.52969C24.2705 0.690565 21.7462 -0.0408714 19.4991 0.00175351C19.2403 0.0067535 19.0346 0.220566 19.0396 0.479378C19.0446 0.738127 19.2605 0.943565 19.5172 0.938877C21.2926 0.904065 23.0801 1.43225 23.9835 2.25463C24.0029 2.27631 24.0246 2.2965 24.0484 2.31469C25.819 3.66856 25.7285 6.34037 23.9112 7.58549C22.8921 8.28424 21.9242 8.13155 21.7912 8.14962C21.539 8.15918 20.515 8.23018 19.4196 8.75599C18.2632 9.31118 16.8077 10.4907 16.4405 12.9571C16.4062 13.1868 16.5455 13.4069 16.7676 13.4745C17.437 13.678 18.008 14.1524 18.3342 14.7757C18.4575 15.0112 18.7523 15.0974 18.983 14.9646C20.4587 14.1164 23.4795 12.8392 27.1308 13.8164C30.5714 14.7372 31.0216 18.074 31.0554 19.4658C31.0617 19.7207 31.2702 19.923 31.5237 19.923C31.7881 19.923 31.9988 19.7054 31.9924 19.443C31.9112 16.1054 30.1844 13.6635 27.373 12.911Z" fill="white"/>
<path d="M16.0013 14.2286C15.028 14.2286 14.2361 15.0205 14.2361 15.9938C14.2361 16.9672 15.028 17.7591 16.0013 17.7591C16.9747 17.7591 17.7666 16.9672 17.7666 15.9938C17.7666 15.0205 16.9747 14.2286 16.0013 14.2286ZM16.0013 16.8218C15.5448 16.8218 15.1734 16.4503 15.1734 15.9938C15.1734 15.5373 15.5448 15.1659 16.0013 15.1659C16.4579 15.1659 16.8293 15.5373 16.8293 15.9938C16.8293 16.4504 16.4579 16.8218 16.0013 16.8218Z" fill="white"/>
</g>
<defs>
<clipPath id="clip0_455_4473">
<rect width="32" height="32" fill="white"/>
</clipPath>
</defs>
</svg>
