<?xml version="1.0" encoding="utf-8"?>
<!-- Generator: Adobe Illustrator 27.0.0, SVG Export Plug-In . SVG Version: 6.00 Build 0)  -->
<svg version="1.0" id="Layer_1" xmlns="http://www.w3.org/2000/svg"
    xmlns:xlink="http://www.w3.org/1999/xlink" x="0px" y="0px"
    viewBox="0 0 500 500" style="enable-background:new 0 0 500 500;" xml:space="preserve">
<style type="text/css">
	.st0{fill:url(#SVGID_1_);}
	.st1{fill:url(#SVGID_00000117672209916957904420000002206316657564388225_);}
	.st2{fill:url(#SVGID_00000104683999101104277410000008527754360640610957_);}
	.st3{fill:url(#SVGID_00000028284901157542760890000013281335197979162002_);}
	.st4{fill:url(#SVGID_00000065076782921762761140000011786252477254135450_);}
	.st5{fill:#ABC880;}
	.st6{fill:#24836F;}
</style>
<g>
	<linearGradient id="SVGID_1_" gradientUnits="userSpaceOnUse" x1="65.8014" y1="160.9965" x2="275.6476" y2="160.9965">
		<stop  offset="0.1099" style="stop-color:#90D4E9"/>
		<stop  offset="0.3647" style="stop-color:#78BCBB"/>
		<stop  offset="0.9406" style="stop-color:#3B8148"/>
		<stop  offset="1" style="stop-color:#347B3C"/>
	</linearGradient>
	<path class="st0" d="M275.6,173.7c0,23.8-9.6,45.4-25.1,61.1c-0.1,0.1-0.3,0.3-0.4,0.4c-0.1,0.1-0.3,0.3-0.4,0.4l-61.1,61.1
		c9.9-9.9,17.5-22.2,21.7-36c0.3-1,0.6-1.9,0.9-2.9c1.9-7.2,2.9-14.7,2.9-22.5c0-24-9.8-45.7-25.5-61.5L65.8,50.8
		c0.1-0.1,0.2-0.2,0.3-0.3c15.7-15.6,37.3-25.1,61.1-25.1c3.6,0,7.1,0.2,10.6,0.7c19.8,2.4,37.5,11.4,50.9,24.8h0l61.1,61.1
		c0.1,0.1,0.3,0.3,0.4,0.4c0.1,0.1,0.3,0.3,0.4,0.4C266.1,128.4,275.6,149.9,275.6,173.7z"/>
	
		<linearGradient id="SVGID_00000057869897088247649210000014673072320132248463_" gradientUnits="userSpaceOnUse" x1="265.8189" y1="173.7264" x2="-18.2807" y2="173.7264">
		<stop  offset="0.2655" style="stop-color:#2E887A"/>
		<stop  offset="0.8761" style="stop-color:#D8E6A4"/>
	</linearGradient>
	<path style="fill:url(#SVGID_00000057869897088247649210000014673072320132248463_);" d="M188.7,173.7
		c-13.4,13.4-31.1,22.4-50.9,24.8c-3.5,0.4-7,0.6-10.6,0.6c-7.8,0-15.3-1-22.5-3c-14.6-3.9-27.8-11.6-38.3-21.8
		c-0.1-0.1-0.2-0.2-0.2-0.2c-0.2-0.2-0.3-0.3-0.4-0.4c0.2-0.2,0.5-0.5,0.7-0.7c10.5-10.3,23.6-17.9,38.2-21.8c7.2-1.9,14.7-3,22.5-3
		c3.6,0,7.1,0.2,10.6,0.6C157.6,151.3,175.3,160.3,188.7,173.7z"/>
	
		<linearGradient id="SVGID_00000114768372697380336270000006564001350357225879_" gradientUnits="userSpaceOnUse" x1="97.0169" y1="328.3846" x2="229.1143" y2="189.8434">
		<stop  offset="3.952320e-02" style="stop-color:#299376"/>
		<stop  offset="0.8761" style="stop-color:#195659"/>
	</linearGradient>
	<path style="fill:url(#SVGID_00000114768372697380336270000006564001350357225879_);" d="M214.2,235.2c0,7.8-1,15.3-3,22.5
		c-0.3,1-0.5,2-0.9,3c-4.2,13.8-11.7,26.1-21.7,36c-13.4,13.4-31.1,22.4-50.9,24.8c-3.5,0.4-7,0.6-10.6,0.6
		c-23.8,0-45.4-9.6-61.1-25.1c-0.1-0.1-0.2-0.2-0.3-0.3c0.5-0.5,1-1,1.5-1.5l34.5-34.5l25.5-25.5l10.6-10.6l50.9-50.9
		C204.4,189.5,214.2,211.2,214.2,235.2z"/>
	
		<linearGradient id="SVGID_00000154420579376165318530000001248399206051883145_" gradientUnits="userSpaceOnUse" x1="400.8875" y1="19.1521" x2="222.9658" y2="208.8747">
		<stop  offset="0.2655" style="stop-color:#2E887A"/>
		<stop  offset="0.8761" style="stop-color:#D8E6A4"/>
	</linearGradient>
	<path style="fill:url(#SVGID_00000154420579376165318530000001248399206051883145_);" d="M434.6,50.8l-36,36l-25.5,25.5l-61.4,61.4
		h0l-61.1,61.1c15.5-15.7,25.1-37.3,25.1-61.1c0-23.8-9.6-45.4-25.1-61.1c-0.1-0.1-0.3-0.3-0.4-0.4l25.4-25.4l36-36
		c15.7-15.7,37.5-25.5,61.5-25.5c8.9,0,17.4,1.3,25.5,3.8C412.3,33.4,424.7,40.9,434.6,50.8z"/>
</g>
<linearGradient id="SVGID_00000000933921443495308960000012420826759694556549_" gradientUnits="userSpaceOnUse" x1="250.1878" y1="240.8247" x2="250.1878" y2="240.8247">
	<stop  offset="0" style="stop-color:#2AA4DC"/>
	<stop  offset="0.3117" style="stop-color:#34ABE1"/>
	<stop  offset="0.8458" style="stop-color:#50BFEE"/>
	<stop  offset="1" style="stop-color:#59C6F2"/>
</linearGradient>
<path style="fill:url(#SVGID_00000000933921443495308960000012420826759694556549_);" d="M250.2,240.8"/>
<g>
	<path class="st5" d="M305.2,362.8c2.5-2.6,5.7-3.8,9.6-3.8c3.9,0,7.1,1.3,9.6,3.8c2.5,2.6,3.8,5.7,3.8,9.5c0,3.7-1.3,6.8-3.8,9.4
		c-2.6,2.6-5.7,3.9-9.5,3.9c-3.8,0-7-1.3-9.6-3.9c-2.6-2.6-3.9-5.8-3.9-9.4C301.4,368.6,302.6,365.4,305.2,362.8z"/>
	<g>
		<path class="st6" d="M67.1,402.5l24.5-43.3c0.1-0.2,0.3-0.3,0.5-0.3h26.6c0.4,0,0.7,0.5,0.5,0.8l-40.5,69.3
			c-0.1,0.1-0.1,0.2-0.1,0.3v39.7c0,0.3-0.3,0.6-0.6,0.6h-23c-0.3,0-0.6-0.3-0.6-0.6v-40.7c0-0.1,0-0.2-0.1-0.3l-40-68.3
			c-0.2-0.4,0.1-0.8,0.5-0.8h26.8c0.2,0,0.4,0.1,0.5,0.3l24.4,43.3H67.1z"/>
		<g>
			<path class="st6" d="M162.3,437.1l5.4-3.8l28.1-19.6c9-6.3,21.5-4.1,27.8,4.9c6.3,9,4.1,21.5-4.9,27.8
				c-6.9,4.8-15.7,4.7-22.3,0.4l-16.8,11.7c13.4,13,34.5,15.1,50.3,4c17.9-12.6,22.3-37.3,9.8-55.2c-12.6-17.9-37.3-22.3-55.2-9.8
				l-49.6,34.7C141.1,441.1,153.4,443.3,162.3,437.1z"/>
			<path class="st6" d="M189.2,423l-5.4,3.8l-28.1,19.6c-9,6.3-21.5,4.1-27.8-4.9c-6.3-9-4.1-21.5,4.9-27.8
				c6.9-4.8,15.7-4.7,22.3-0.4l16.8-11.7c-13.4-13-34.5-15.1-50.3-4c-17.9,12.6-22.3,37.3-9.8,55.2c12.6,17.9,37.3,22.3,55.2,9.8
				l49.6-34.7C210.4,418.9,198.1,416.8,189.2,423z"/>
		</g>
		<path class="st5" d="M263,469.7V359h21.4v110.7H263z"/>
		<rect x="304.1" y="390.3" class="st5" width="21.4" height="79.4"/>
		<path class="st5" d="M387.4,378.7c-9,0-13.5,4.5-13.6,13.5v2.7h28v18.4h-28v56.4h-21.4v-56.4h-16.6v-18.4h16.6v-6.5
			c0-8.6,3-15.6,9.1-21c6.1-5.4,13.9-8.1,23.5-8.1c4.1,0,9.7,0.8,16.8,2.4l-1.7,19.2C396.2,379.4,392,378.7,387.4,378.7z"/>
		<path class="st5" d="M446.6,390.3c11.9,0,21.5,3.7,28.6,11c7.2,7.3,10.7,16.9,10.7,28.8c0,0.4,0,0.9-0.1,1.6s-0.1,1.6-0.2,2.6
			c-0.1,1-0.1,1.9-0.1,2.4H429c3.1,8.6,10.9,12.8,23.7,12.8c9.1,0,17.1-2,23.9-6l4.1,18.8c-7.7,4.8-17,7.2-28.1,7.2
			c-14.2,0-25.4-3.7-33.8-11c-8.3-7.3-12.5-16.9-12.5-28.7c0-11.6,3.8-21.1,11.4-28.6C425.2,394,434.8,390.3,446.6,390.3z
			 M428.7,423.5h35.7c-0.2-3.9-2-7-5.3-9.4c-3.4-2.4-7.5-3.6-12.3-3.6c-4.6,0-8.4,1.2-11.5,3.5C432.1,416.3,429.9,419.5,428.7,423.5
			z"/>
	</g>
</g>
</svg>