<svg width="30" height="30" viewBox="0 0 30 30" fill="none" xmlns="http://www.w3.org/2000/svg">
    <rect width="30" height="30" rx="15" fill="url(#paint0_linear_815_3998)" />
    <g clip-path="url(#clip0_815_3998)">
        <path
            d="M6 20.5C6 18.567 7.567 17 9.5 17H11.2632C11.6701 17 12 17.3299 12 17.7368V23.2632C12 23.6701 11.6701 24 11.2632 24H9.5C7.567 24 6 22.433 6 20.5Z"
            fill="white" />
        <path
            d="M24 20.5C24 18.567 22.433 17 20.5 17H18.7368C18.3299 17 18 17.3299 18 17.7368V23.2632C18 23.6701 18.3299 24 18.7368 24H20.5C22.433 24 24 22.433 24 20.5Z"
            fill="white" />
        <path d="M8 20V16V14V14C8 10.134 11.134 7 15 7V7C18.866 7 22 10.134 22 14V14V16V21"
            stroke="white" stroke-width="2" />
    </g>
    <path
        d="M15 24.5C14.7239 24.5 14.5 24.7239 14.5 25C14.5 25.2761 14.7239 25.5 15 25.5V24.5ZM17 24.5H15V25.5H17V24.5ZM18.5 23C18.5 23.8284 17.8284 24.5 17 24.5V25.5C18.3807 25.5 19.5 24.3807 19.5 23H18.5Z"
        fill="white" />
    <defs>
        <linearGradient id="paint0_linear_815_3998" x1="29.9832" y1="30" x2="-0.0334067" y2="30"
            gradientUnits="userSpaceOnUse">
            <stop stop-color="#9CC76F" />
            <stop offset="1" stop-color="#C5DA8B" />
        </linearGradient>
        <clipPath id="clip0_815_3998">
            <rect width="18" height="18" fill="white" transform="translate(6 6)" />
        </clipPath>
    </defs>
</svg>
    