<svg width="30" height="30" viewBox="0 0 30 30" fill="none" xmlns="http://www.w3.org/2000/svg">
    <rect width="30" height="30" rx="15" fill="url(#paint0_linear_815_3874)" />
    <g clip-path="url(#clip0_815_3874)">
        <path
            d="M21.5 8C21.5 7.17157 20.8284 6.5 20 6.5C19.1716 6.5 18.5 7.17157 18.5 8H21.5ZM18.5 8V14H21.5V8H18.5Z"
            fill="white" />
        <path fill-rule="evenodd" clip-rule="evenodd"
            d="M7.3874 13.661L14.3411 7.57652C14.7181 7.24663 15.2811 7.24663 15.6581 7.57653L22.6118 13.661C22.8551 13.8739 22.9805 14.1914 22.9483 14.5131L22.0896 23.0998C22.0385 23.611 21.6084 24.0003 21.0946 24.0003H8.90458C8.39083 24.0003 7.96066 23.611 7.90954 23.0998L7.05087 14.5131C7.0187 14.1914 7.14407 13.8739 7.3874 13.661ZM14.9996 17.0003C13.895 17.0003 12.9996 17.8958 12.9996 19.0003V23.0003H16.9996V19.0003C16.9996 17.8958 16.1042 17.0003 14.9996 17.0003Z"
            fill="white" />
        <path d="M23 15L15.0707 7.07071C15.0317 7.03166 14.9683 7.03166 14.9293 7.07071L7 15"
            stroke="white" stroke-width="2" stroke-linecap="round" />
    </g>
    <defs>
        <linearGradient id="paint0_linear_815_3874" x1="29.9832" y1="30" x2="-0.0334067" y2="30"
            gradientUnits="userSpaceOnUse">
            <stop stop-color="#9CC76F" />
            <stop offset="1" stop-color="#C5DA8B" />
        </linearGradient>
        <clipPath id="clip0_815_3874">
            <rect width="18" height="18" fill="white" transform="translate(6 6)" />
        </clipPath>
    </defs>
</svg>
    