<svg width="96" height="57" viewBox="0 0 96 57" fill="none" xmlns="http://www.w3.org/2000/svg">
    <g clip-path="url(#clip0_832_3975)">
        <rect x="0.868164" y="16.9844" width="30.882" height="41.4271"
            transform="rotate(-15 0.868164 16.9844)" fill="#EEEEEE" />
        <path opacity="0.2" fill-rule="evenodd" clip-rule="evenodd"
            d="M22.7327 43.2864L25.3931 53.2151L11.5695 56.9191L7.60437 42.121L9.32624 39.1386C10.1854 37.6506 12.0881 37.1407 13.5761 37.9999L22.7327 43.2864Z"
            fill="#D9D9D9" />
        <path fill-rule="evenodd" clip-rule="evenodd"
            d="M38.2134 37.0386L41.4203 49.0072L11.5906 57.0001L10.3135 52.2339L21.9852 32.018C23.0251 30.2167 25.3284 29.5995 27.1297 30.6395L38.2134 37.0386Z"
            fill="#D9D9D9" />
        <circle cx="10.4638" cy="28.0598" r="3.38949" transform="rotate(-15 10.4638 28.0598)"
            fill="#D9D9D9" />
    </g>
    <g clip-path="url(#clip1_832_3975)">
        <rect x="65.333" y="9" width="30.882" height="41.4271" transform="rotate(15 65.333 9)"
            fill="#EEEEEE" />
        <path opacity="0.2" fill-rule="evenodd" clip-rule="evenodd"
            d="M71.1157 42.7104L68.4553 52.6393L54.6318 48.9353L58.5966 34.1382L61.5798 32.4159C63.0678 31.5567 64.9705 32.0666 65.8296 33.5546L71.1157 42.7104Z"
            fill="#D9D9D9" />
        <path fill-rule="evenodd" clip-rule="evenodd"
            d="M87.6475 45.0393L84.4404 57.0085L54.6106 49.0157L55.8875 44.2502L76.1043 32.578C77.9056 31.538 80.2089 32.1552 81.2489 33.9565L87.6475 45.0393Z"
            fill="#D9D9D9" />
        <circle cx="68.1067" cy="23.3895" r="3.38949" transform="rotate(15 68.1067 23.3895)"
            fill="#D9D9D9" />
    </g>
    <g clip-path="url(#clip2_832_3975)">
        <rect x="27.5" y="2" width="41" height="55" fill="url(#paint0_linear_832_3975)" />
        <path opacity="0.2" fill-rule="evenodd" clip-rule="evenodd"
            d="M46.5 43.2433V56.8904H27.5V36.5517L30.7335 33.3182C32.3465 31.7051 34.9618 31.7051 36.5748 33.3182L46.5 43.2433Z"
            fill="url(#paint1_linear_832_3975)" />
        <path fill-rule="evenodd" clip-rule="evenodd"
            d="M68.5 40.5498V56.9999H27.5V50.4502L49.4147 28.5355C51.3673 26.5829 54.5331 26.5829 56.4857 28.5355L68.5 40.5498Z"
            fill="url(#paint2_linear_832_3975)" />
        <circle cx="36" cy="19.5" r="4.5" fill="url(#paint3_linear_832_3975)" />
    </g>
    <defs>
        <linearGradient id="paint0_linear_832_3975" x1="48.0102" y1="57" x2="48.0102" y2="3"
            gradientUnits="userSpaceOnUse">
            <stop stop-color="#E2F1B5" />
            <stop offset="1" stop-color="white" />
        </linearGradient>
        <linearGradient id="paint1_linear_832_3975" x1="46.4894" y1="56.8904" x2="27.4788"
            y2="56.8904" gradientUnits="userSpaceOnUse">
            <stop stop-color="#9CC76F" />
            <stop offset="1" stop-color="#C5DA8B" />
        </linearGradient>
        <linearGradient id="paint2_linear_832_3975" x1="68.4771" y1="56.9999" x2="27.4543"
            y2="56.9999" gradientUnits="userSpaceOnUse">
            <stop stop-color="#9CC76F" />
            <stop offset="1" stop-color="#C5DA8B" />
        </linearGradient>
        <linearGradient id="paint3_linear_832_3975" x1="40.495" y1="24" x2="31.49" y2="24"
            gradientUnits="userSpaceOnUse">
            <stop stop-color="#9CC76F" />
            <stop offset="1" stop-color="#C5DA8B" />
        </linearGradient>
        <clipPath id="clip0_832_3975">
            <rect x="0.868164" y="16.9844" width="30.85" height="41.4271" rx="2.64428"
                transform="rotate(-15 0.868164 16.9844)" fill="white" />
        </clipPath>
        <clipPath id="clip1_832_3975">
            <rect x="65.333" y="9" width="30.85" height="41.4271" rx="2.64428"
                transform="rotate(15 65.333 9)" fill="white" />
        </clipPath>
        <clipPath id="clip2_832_3975">
            <rect x="27.5" y="2" width="41" height="55.0001" rx="3" fill="white" />
        </clipPath>
    </defs>
</svg>
    