<svg width="22" height="22" viewBox="0 0 22 22" fill="none" xmlns="http://www.w3.org/2000/svg">
    <path
        d="M11.2955 8.01453C10.68 7.95374 10.0607 8.08469 9.52249 8.38945C8.98426 8.69421 8.55339 9.15788 8.28886 9.71698C8.02434 10.2761 7.93909 10.9033 8.04479 11.5127C8.1505 12.1221 8.44198 12.684 8.87934 13.1213C9.3167 13.5587 9.87855 13.8502 10.488 13.9559C11.0974 14.0616 11.7246 13.9763 12.2837 13.7118C12.8428 13.4473 13.3065 13.0164 13.6112 12.4782C13.916 11.94 14.0469 11.3207 13.9861 10.7052C13.9168 10.0151 13.6111 9.37031 13.1207 8.87995C12.6304 8.38958 11.9855 8.08384 11.2955 8.01453ZM18.5189 11C18.517 11.3261 18.4931 11.6517 18.4472 11.9745L20.5664 13.6367C20.6587 13.7132 20.7209 13.8199 20.7419 13.9379C20.763 14.056 20.7415 14.1776 20.6813 14.2812L18.6764 17.75C18.6156 17.8527 18.5204 17.9305 18.4077 17.9699C18.295 18.0093 18.1721 18.0076 18.0605 17.9652L15.9558 17.1177C15.8398 17.0714 15.714 17.0547 15.5899 17.0691C15.4658 17.0834 15.3472 17.1283 15.2447 17.1997C14.9235 17.4209 14.586 17.6174 14.235 17.7875C14.1247 17.8411 14.0293 17.9211 13.9572 18.0203C13.8851 18.1196 13.8385 18.2351 13.8216 18.3566L13.5061 20.6014C13.4854 20.72 13.4242 20.8276 13.3329 20.906C13.2415 20.9844 13.1258 21.0287 13.0055 21.0312H8.99582C8.87748 21.0292 8.76337 20.9869 8.67228 20.9113C8.5812 20.8357 8.51857 20.7314 8.49473 20.6155L8.17973 18.3739C8.16204 18.2511 8.11427 18.1345 8.04067 18.0346C7.96707 17.9346 7.86992 17.8544 7.75785 17.8011C7.40733 17.6319 7.07094 17.4349 6.75192 17.2119C6.64977 17.1408 6.53155 17.0963 6.40791 17.0823C6.28426 17.0683 6.15908 17.0853 6.04364 17.1317L3.93942 17.9788C3.82791 18.0212 3.70499 18.023 3.59231 17.9837C3.47964 17.9444 3.38444 17.8666 3.32348 17.7641L1.31864 14.2953C1.25836 14.1917 1.23682 14.07 1.25785 13.952C1.27888 13.834 1.34112 13.7272 1.43348 13.6508L3.22457 12.2445C3.3227 12.1666 3.39982 12.0655 3.44893 11.9502C3.49805 11.835 3.5176 11.7093 3.50582 11.5845C3.48895 11.3891 3.47864 11.1941 3.47864 10.9986C3.47864 10.8031 3.48848 10.6109 3.50582 10.4197C3.51632 10.2957 3.4958 10.1711 3.44613 10.057C3.39646 9.94294 3.3192 9.84302 3.22129 9.76625L1.43114 8.36C1.34027 8.28317 1.27935 8.17681 1.25904 8.05957C1.23872 7.94232 1.26032 7.82167 1.32004 7.71875L3.32489 4.25C3.38577 4.14734 3.48094 4.06946 3.59362 4.0301C3.7063 3.99074 3.82926 3.99242 3.94082 4.03484L6.04551 4.88234C6.16157 4.92856 6.28729 4.94525 6.41139 4.93094C6.5355 4.91662 6.65411 4.87174 6.7566 4.80031C7.07782 4.57912 7.41535 4.38262 7.76629 4.2125C7.87662 4.15887 7.97206 4.07891 8.04416 3.97966C8.11627 3.88042 8.16283 3.76494 8.17973 3.64344L8.4952 1.39859C8.51592 1.28004 8.57717 1.17236 8.66848 1.09396C8.75979 1.01555 8.8755 0.971298 8.99582 0.96875H13.0055C13.1238 0.970797 13.238 1.01309 13.329 1.08867C13.4201 1.16425 13.4828 1.2686 13.5066 1.38453L13.8216 3.62609C13.8393 3.74894 13.8871 3.86551 13.9607 3.96544C14.0343 4.06537 14.1314 4.14557 14.2435 4.19891C14.594 4.3681 14.9304 4.56514 15.2494 4.78813C15.3516 4.85919 15.4698 4.90373 15.5934 4.91772C15.7171 4.93172 15.8423 4.91473 15.9577 4.86828L18.0619 4.02125C18.1734 3.97879 18.2963 3.97704 18.409 4.01631C18.5217 4.05558 18.6169 4.13336 18.6779 4.23594L20.6827 7.70469C20.743 7.80832 20.7645 7.92999 20.7435 8.04802C20.7225 8.16604 20.6602 8.27278 20.5679 8.34922L18.7768 9.75547C18.6782 9.83311 18.6006 9.93416 18.5511 10.0494C18.5016 10.1647 18.4817 10.2905 18.4932 10.4155C18.5086 10.6095 18.5189 10.8045 18.5189 11Z"
        stroke="#515151" stroke-width="1.5" stroke-linecap="round" stroke-linejoin="round" />
</svg>
    