<svg width="30" height="30" viewBox="0 0 30 30" fill="none" xmlns="http://www.w3.org/2000/svg">
    <rect width="30" height="30" rx="15" fill="url(#paint0_linear_815_3977)" />
    <g clip-path="url(#clip0_815_3977)">
        <path fill-rule="evenodd" clip-rule="evenodd"
            d="M13.0004 7C13.0004 6.44772 13.4481 6 14.0004 6H16.0004C16.5526 6 17.0004 6.44772 17.0004 7V7.54415C17.0004 7.98656 17.2943 8.36963 17.7023 8.54053C18.2554 8.77213 18.7723 9.07267 19.2425 9.43141C19.5942 9.69971 20.0728 9.76256 20.4559 9.5414L20.9288 9.26832C21.4071 8.99218 22.0187 9.15605 22.2949 9.63435L23.2949 11.3664C23.571 11.8447 23.4071 12.4563 22.9288 12.7324L22.4563 13.0052C22.0736 13.2262 21.8887 13.6716 21.9443 14.11C21.9813 14.4014 22.0004 14.6985 22.0004 15C22.0004 15.3017 21.9813 15.599 21.9442 15.8906C21.8886 16.3291 22.0735 16.7745 22.4562 16.9955L22.9288 17.2683C23.4071 17.5445 23.571 18.1561 23.2949 18.6343L22.2949 20.3664C22.0187 20.8447 21.4071 21.0086 20.9288 20.7324L20.4553 20.459C20.0723 20.2379 19.5937 20.3007 19.242 20.569C18.772 20.9275 18.2552 21.228 17.7023 21.4595C17.2943 21.6304 17.0004 22.0134 17.0004 22.4559V23C17.0004 23.5523 16.5526 24 16.0004 24H14.0004C13.4481 24 13.0004 23.5523 13.0004 23V22.4559C13.0004 22.0134 12.7064 21.6304 12.2984 21.4595C11.7456 21.228 11.2289 20.9276 10.7589 20.5691C10.4072 20.3009 9.92867 20.2381 9.54564 20.4592L9.07243 20.7324C8.59414 21.0086 7.98255 20.8447 7.70641 20.3664L6.70641 18.6343C6.43026 18.1561 6.59414 17.5445 7.07243 17.2683L7.54453 16.9958C7.92729 16.7748 8.1122 16.3293 8.05651 15.8909C8.01945 15.5991 8.00035 15.3018 8.00035 15C8.00035 14.6984 8.01943 14.4013 8.05643 14.1097C8.11208 13.6713 7.92717 13.2259 7.54444 13.0049L7.07243 12.7324C6.59414 12.4563 6.43026 11.8447 6.70641 11.3664L7.70641 9.63435C7.98255 9.15605 8.59414 8.99218 9.07243 9.26832L9.54509 9.54121C9.92815 9.76237 10.4067 9.69953 10.7584 9.43125C11.2285 9.07258 11.7454 8.77209 12.2984 8.54053C12.7064 8.36963 13.0004 7.98656 13.0004 7.54415V7ZM15 20C17.7614 20 20 17.7614 20 15C20 12.2386 17.7614 10 15 10C12.2386 10 10 12.2386 10 15C10 17.7614 12.2386 20 15 20Z"
            fill="white" />
        <circle cx="15" cy="15" r="3" fill="white" />
    </g>
    <defs>
        <linearGradient id="paint0_linear_815_3977" x1="29.9832" y1="30" x2="-0.0334067" y2="30"
            gradientUnits="userSpaceOnUse">
            <stop stop-color="#9CC76F" />
            <stop offset="1" stop-color="#C5DA8B" />
        </linearGradient>
        <clipPath id="clip0_815_3977">
            <rect width="18" height="18" fill="white" transform="translate(6 6)" />
        </clipPath>
    </defs>
</svg>
    