<svg width="15" height="18" viewBox="0 0 15 18" fill="none" xmlns="http://www.w3.org/2000/svg">
    <path
        d="M2 3.55553V12.3762C1.99987 13.2489 2.3317 14.089 2.92818 14.7261C3.52466 15.3632 4.34114 15.7495 5.212 15.8068L5.4375 15.8137H11.5067C11.3646 16.2157 11.1013 16.5639 10.7531 16.8101C10.4049 17.0563 9.98896 17.1886 9.5625 17.1887H4.75C3.65598 17.1887 2.60677 16.7541 1.83318 15.9805C1.0596 15.2069 0.625 14.1577 0.625 13.0637V5.50116C0.624777 5.07446 0.756901 4.6582 1.00316 4.30973C1.24943 3.96127 1.59771 3.69777 2 3.55553ZM12.3125 0.68866C12.8595 0.68866 13.3841 0.905958 13.7709 1.29275C14.1577 1.67955 14.375 2.20415 14.375 2.75116V12.3762C14.375 12.9232 14.1577 13.4478 13.7709 13.8346C13.3841 14.2214 12.8595 14.4387 12.3125 14.4387H5.4375C4.89049 14.4387 4.36589 14.2214 3.97909 13.8346C3.5923 13.4478 3.375 12.9232 3.375 12.3762V2.75116C3.375 2.20415 3.5923 1.67955 3.97909 1.29275C4.36589 0.905958 4.89049 0.68866 5.4375 0.68866H12.3125Z"
        fill="#75A3C7" />
</svg>