<svg width="12" height="15" viewBox="0 0 12 15" fill="none" xmlns="http://www.w3.org/2000/svg">
    <path fill-rule="evenodd" clip-rule="evenodd"
        d="M5.96913 14.5038C5.96913 14.5038 11.5076 10.8115 11.5076 6.50382C11.5076 5.03493 10.9241 3.6262 9.88541 2.58754C8.84675 1.54888 7.43802 0.965363 5.96913 0.965363C4.50023 0.965363 3.0915 1.54888 2.05284 2.58754C1.01418 3.6262 0.430664 5.03493 0.430664 6.50382C0.430664 10.8115 5.96913 14.5038 5.96913 14.5038ZM7.81528 6.50381C7.81528 7.52341 6.98873 8.34997 5.96913 8.34997C4.94952 8.34997 4.12297 7.52341 4.12297 6.50381C4.12297 5.48421 4.94952 4.65766 5.96913 4.65766C6.98873 4.65766 7.81528 5.48421 7.81528 6.50381Z"
        fill="#75A3C7" />
</svg>