<svg width="32" height="32" viewBox="0 0 32 32" fill="none" xmlns="http://www.w3.org/2000/svg">
    <path d="M28 17.3334C28 13.7778 27.3333 10.6667 26.6667 10.2223C26.2395 9.93745 24.1691 9.65262 21.3333 9.48478C19.7444 9.39072 22.6667 6.66675 16 6.66675C9.33333 6.66675 12.2556 9.39072 10.6667 9.48478C7.83088 9.65262 5.7606 9.93745 5.33333 10.2223C4.66667 10.6667 4 13.7778 4 17.3334C4 20.889 4.66667 24.0001 5.33333 24.4445C6 24.889 10.6667 25.3334 16 25.3334C21.3333 25.3334 26 24.889 26.6667 24.4445C27.3333 24.0001 28 20.889 28 17.3334Z" fill="#000" stroke="#000" stroke-width="1.5" stroke-linecap="round" stroke-linejoin="round"/>
    <path d="M16 21.3335C18.2092 21.3335 20 19.5427 20 17.3335C20 15.1243 18.2092 13.3335 16 13.3335C13.7908 13.3335 12 15.1243 12 17.3335C12 19.5427 13.7908 21.3335 16 21.3335Z" fill="white" stroke="white" stroke-width="1.5" stroke-linecap="round" stroke-linejoin="round"/>
    </svg>