<svg width="32" height="32" viewBox="0 0 32 32" fill="none" xmlns="http://www.w3.org/2000/svg">
<path d="M21.4445 14.0809V9.88889C21.4445 7.18883 19.2556 5 16.5556 5C13.8556 5 11.6667 7.18883 11.6667 9.88889V14.0809" fill="white"/>
<path d="M21.4445 14.0809V9.88889C21.4445 7.18883 19.2556 5 16.5556 5C13.8556 5 11.6667 7.18883 11.6667 9.88889V14.0809" stroke="#000" stroke-width="2" stroke-linecap="round" stroke-linejoin="round"/>
<path d="M16.5556 13.5557C14.508 13.5557 12.9041 13.7106 11.6667 14.081C8.9502 14.8942 8 16.7462 8 20.2779C8 25.4184 10.0131 27.0001 16.5556 27.0001C23.098 27.0001 25.1111 25.4184 25.1111 20.2779C25.1111 16.7462 24.161 14.8942 21.4444 14.081C20.2071 13.7106 18.6031 13.5557 16.5556 13.5557Z" fill="#000" stroke="#000" stroke-width="2" stroke-linecap="round" stroke-linejoin="round"/>
<circle cx="16.5" cy="22.5" r="2.5" fill="white"/>
<path d="M15 18.5C15 17.6716 15.6716 17 16.5 17C17.3284 17 18 17.6716 18 18.5V21H15V18.5Z" fill="white"/>
</svg>
