<svg width="32" height="32" viewBox="0 0 32 32" fill="none" xmlns="http://www.w3.org/2000/svg">
<path d="M18.8071 4.91211C20.5804 5.10911 22.1763 5.96703 23.4387 7.2279C24.7012 8.48876 25.5552 10.0864 25.7545 11.8595" stroke="#000" stroke-width="2" stroke-linecap="round" stroke-linejoin="round"/>
<path d="M18.2283 8.96484C19.0819 9.13137 19.9291 9.5078 20.5441 10.1227C21.159 10.7377 21.5354 11.585 21.702 12.4385" stroke="#000" stroke-width="2" stroke-linecap="round" stroke-linejoin="round"/>
<path fill-rule="evenodd" clip-rule="evenodd" d="M10.9341 19.7321C2.94692 11.744 4.08267 8.08616 4.92466 6.90743C5.03282 6.71691 7.69888 2.72596 10.5567 5.06744C17.6502 10.9094 8.96507 10.7017 14.6265 16.0411C20.2879 21.3805 19.7583 13.0174 25.5992 20.1094C27.9409 22.9684 23.9497 25.6343 23.7604 25.7413C22.5817 26.5845 18.9224 27.7201 10.9341 19.7321Z" fill="#000" stroke="#000" stroke-width="2" stroke-linecap="round" stroke-linejoin="round"/>
</svg>
