<svg width="296" height="296" viewBox="0 0 296 296" fill="none" xmlns="http://www.w3.org/2000/svg">
    <circle cx="148" cy="148" r="95" fill="url(#paint0_linear_546_1943)" />
    <circle cx="148" cy="148" r="95" fill="url(#paint1_linear_546_1943)" />
    <circle cx="148" cy="148" r="95" fill="url(#paint2_linear_546_1943)" />
    <path
        d="M193.903 175.651C193.632 174.835 193.36 174.019 193.179 173.203C193.179 173.022 193.089 172.841 192.998 172.659C192.817 171.843 192.545 171.118 192.364 170.393C192.364 170.302 192.364 170.121 192.274 170.03C192.092 169.396 191.911 168.67 191.73 168.036C191.73 168.036 191.73 167.854 191.73 167.764C191.549 167.038 191.368 166.404 191.187 165.769C191.187 165.679 191.187 165.497 191.096 165.407C190.915 164.772 190.825 164.137 190.644 163.503C190.644 163.503 190.644 163.412 190.644 163.321C190.553 162.777 190.372 162.143 190.282 161.599C190.282 161.508 190.282 161.418 190.282 161.327C190.191 160.783 190.1 160.239 190.01 159.695C190.01 159.604 190.01 159.514 190.01 159.423C189.919 158.879 189.829 158.335 189.738 157.882C188.833 151.264 189.738 147.275 192.092 143.376C192.092 143.376 176.518 151.989 179.053 172.841C179.053 172.841 174.888 157.066 182.766 144.192C186.388 138.118 180.683 131.137 180.683 131.137C182.313 137.302 177.786 147.093 177.424 136.486C176.971 125.879 170.089 114.184 170.089 114.184C178.691 143.467 169.636 146.005 169.636 146.005C173.892 136.577 163.388 111.011 163.388 111.011C164.566 122.978 162.121 124.791 162.121 124.791C155.963 120.53 161.125 106.569 160.31 99.2253C159.495 91.8819 155.511 82 155.511 82C156.688 101.038 142.834 102.489 145.731 122.525C145.731 122.525 140.842 110.648 145.731 98.4093C145.731 98.4093 126.897 124.157 140.389 154.89C140.389 154.89 126.082 143.014 130.61 120.893C130.61 120.893 117.118 139.297 125.72 155.706C134.322 172.115 108.968 174.563 114.673 137.302C114.673 137.302 107.429 144.192 103.354 157.247C103.173 157.791 102.992 158.426 102.811 159.06C102.811 159.151 102.811 159.332 102.72 159.423C102.63 159.967 102.449 160.42 102.358 160.964C102.358 161.146 102.358 161.327 102.268 161.508C102.177 161.962 102.087 162.415 101.996 162.959C101.996 163.231 101.996 163.412 101.905 163.684C101.905 164.137 101.724 164.591 101.634 165.044C101.634 165.316 101.634 165.588 101.543 165.86C101.543 166.313 101.453 166.766 101.362 167.22C101.362 167.492 101.362 167.764 101.272 168.036C101.272 168.489 101.181 168.942 101.091 169.486C101.091 169.758 101.091 170.03 101.091 170.302C101.091 170.846 101.091 171.39 101 171.843C101 172.115 101 172.297 101 172.569C101 173.385 101 174.201 101 174.926C101 197.591 115.307 211.915 145.279 214C144.373 214 143.558 213.819 142.743 213.637C142.653 213.637 142.562 213.637 142.381 213.637C141.566 213.547 140.842 213.365 140.117 213.184C140.027 213.184 139.846 213.184 139.755 213.184C139.031 213.003 138.306 212.821 137.672 212.64C137.582 212.64 137.491 212.64 137.31 212.549C136.676 212.368 135.952 212.096 135.318 211.824C135.318 211.824 135.228 211.824 135.137 211.824C134.503 211.552 133.96 211.28 133.326 211.008C133.326 211.008 133.236 211.008 133.145 211.008C132.602 210.736 132.058 210.374 131.515 210.102C131.515 210.102 131.334 210.011 131.243 209.92C130.7 209.648 130.247 209.286 129.795 208.923C129.795 208.923 129.614 208.832 129.523 208.742C129.07 208.379 128.618 208.016 128.255 207.654C128.255 207.654 128.165 207.563 128.074 207.473C127.621 207.11 127.259 206.657 126.897 206.203C124.09 202.758 122.641 198.407 122.641 193.239C122.641 179.912 130.157 172.841 130.157 172.841C127.078 192.967 140.751 191.698 136.133 182.813C131.515 173.929 138.759 163.956 138.759 163.956C136.314 175.923 144.101 182.36 144.101 182.36C136.767 165.769 146.999 151.808 146.999 151.808C144.373 158.426 146.999 164.863 146.999 164.863C145.46 153.984 152.885 153.258 152.341 142.923C152.341 142.923 154.515 148.272 154.967 152.261C155.42 156.25 152.613 163.775 155.963 166.132C155.963 166.132 157.322 165.135 156.688 158.698C156.688 158.698 162.392 172.478 160.129 177.646C160.129 177.646 165.018 176.286 160.31 160.42C160.31 160.42 164.113 166.766 164.294 172.478C164.475 178.28 166.92 172.931 166.105 169.577C166.105 169.577 169.274 173.385 167.282 176.648C163.026 183.629 165.29 192.151 165.29 192.151C163.932 180.819 172.353 176.195 172.353 176.195C170.18 179.731 170.361 183.538 173.439 193.692C174.979 198.769 174.073 203.937 170.542 207.835C170.361 208.016 170.089 208.288 169.908 208.47C169.636 208.651 169.455 208.923 169.184 209.104C168.912 209.286 168.64 209.558 168.369 209.739C168.097 209.92 167.825 210.102 167.554 210.374C167.282 210.555 166.92 210.736 166.648 210.918C166.377 211.099 166.014 211.28 165.652 211.462C165.29 211.643 165.018 211.824 164.656 211.915C164.656 211.915 164.656 211.915 164.566 211.915C164.203 212.096 163.841 212.187 163.479 212.368C163.479 212.368 163.388 212.368 163.298 212.368C162.936 212.459 162.573 212.64 162.211 212.731C162.211 212.731 162.121 212.731 162.03 212.731C161.668 212.821 161.306 212.912 160.944 213.093H160.762C160.4 213.184 160.038 213.275 159.676 213.365C159.585 213.365 159.495 213.365 159.314 213.365C158.951 213.365 158.589 213.547 158.227 213.547C158.046 213.547 157.955 213.547 157.774 213.547C157.412 213.547 157.05 213.637 156.688 213.728C156.507 213.728 156.326 213.728 156.144 213.728C155.782 213.728 155.511 213.728 155.148 213.819C154.877 213.819 154.605 213.819 154.243 213.819C153.971 213.819 153.79 213.819 153.519 213.819C152.975 213.819 152.432 213.819 151.798 213.819C152.16 213.819 152.522 213.819 152.975 213.819C188.108 213.819 200.423 194.146 194.628 175.379L193.903 175.651Z"
        fill="url(#paint3_linear_546_1943)" />
    <defs>
        <linearGradient id="paint0_linear_546_1943" x1="243" y1="148" x2="53" y2="148"
            gradientUnits="userSpaceOnUse">
            <stop stop-color="#F4501F" />
            <stop offset="1" stop-color="#FAB783" />
        </linearGradient>
        <linearGradient id="paint1_linear_546_1943" x1="243" y1="148" x2="53" y2="148"
            gradientUnits="userSpaceOnUse">
            <stop stop-color="#F4501F" />
            <stop offset="1" stop-color="#FAB783" />
        </linearGradient>
        <linearGradient id="paint2_linear_546_1943" x1="243" y1="148" x2="53" y2="148"
            gradientUnits="userSpaceOnUse">
            <stop stop-color="#F4501F" />
            <stop offset="1" stop-color="#FAB783" />
        </linearGradient>
        <linearGradient id="paint3_linear_546_1943" x1="101" y1="148" x2="196" y2="148"
            gradientUnits="userSpaceOnUse">
            <stop stop-color="#F6D365" />
            <stop offset="1" stop-color="#FDA085" />
        </linearGradient>
    </defs>
</svg>
    