<svg width="48" height="48" viewBox="0 0 48 48" fill="none" xmlns="http://www.w3.org/2000/svg">
<path d="M14.9 28.9L10.2 36.9C9.60001 37.9 10.5 39.2 11.7 39L24 36L36.4 39C37.6 39.2 38.5 37.9 37.9 36.9L33.2 28.9" stroke="#2B5783" stroke-width="2" stroke-linecap="round" stroke-linejoin="round"/>
<path d="M24 33C30.6274 33 36 27.6274 36 21C36 14.3726 30.6274 9 24 9C17.3726 9 12 14.3726 12 21C12 27.6274 17.3726 33 24 33Z" stroke="#2B5783" stroke-width="2" stroke-linecap="round" stroke-linejoin="round"/>
<path d="M24 29C27.866 29 31 25.866 31 22C31 18.134 27.866 15 24 15C20.134 15 17 18.134 17 22C17 25.866 20.134 29 24 29Z" stroke="#339FD9" stroke-width="2" stroke-linecap="round" stroke-linejoin="round"/>
<path d="M24 23C24.5523 23 25 22.5523 25 22C25 21.4477 24.5523 21 24 21C23.4477 21 23 21.4477 23 22C23 22.5523 23.4477 23 24 23Z" stroke="#2B5783" stroke-width="2" stroke-linecap="round" stroke-linejoin="round"/>
</svg>
