<svg width="48" height="48" viewBox="0 0 48 48" fill="none" xmlns="http://www.w3.org/2000/svg">
<path d="M17.5 34V31.5" stroke="#339FD9" stroke-width="2" stroke-linecap="round" stroke-linejoin="round"/>
<path d="M23 16V15.5C23 12.4624 20.5376 10 17.5 10V10C14.4624 10 12 12.4624 12 15.5V32.5C12 35.5376 14.4624 38 17.5 38V38C20.5376 38 23 35.5376 23 32.5V24" stroke="#2B5783" stroke-width="2" stroke-linecap="round" stroke-linejoin="round"/>
<path d="M17.5 31.5C18.3284 31.5 19 30.8284 19 30C19 29.1716 18.3284 28.5 17.5 28.5C16.6716 28.5 16 29.1716 16 30C16 30.8284 16.6716 31.5 17.5 31.5Z" stroke="#339FD9" stroke-width="2" stroke-linecap="round" stroke-linejoin="round"/>
<path d="M38.4999 16H18.7319C17.3512 16 16.2319 17.1193 16.2319 18.5C16.2319 19.8807 17.3512 21 18.7319 21H38.4999C39.8806 21 40.9999 19.8807 40.9999 18.5C40.9999 17.1193 39.8806 16 38.4999 16Z" stroke="#339FD9" stroke-width="2" stroke-linecap="round" stroke-linejoin="round"/>
</svg>
