<svg width="48" height="48" viewBox="0 0 48 48" fill="none" xmlns="http://www.w3.org/2000/svg">
<path d="M34.875 30C35.3805 30.0908 35.8839 30.1925 36.3848 30.3052C37.6972 30.6005 39 29.6386 39 28.2934V14.508C39 13.6153 38.4094 12.8268 37.5444 12.6063C33.1219 11.4786 28.5679 10.9379 24 11C19.4321 10.9379 14.8781 11.4786 10.4556 12.6063C9.59064 12.8268 9 13.6153 9 14.508V28.2999C9 29.6432 10.2991 30.6047 11.6088 30.306C12.4004 30.1254 13.1979 29.9703 14 29.841" stroke="#2B5783" stroke-width="2" stroke-linecap="round" stroke-linejoin="round"/>
<path d="M17.9999 37C21.9999 33 17.9999 29 17.9999 29C17.9999 29 13.9999 25 17.9999 21" stroke="#339FD9" stroke-width="2" stroke-linecap="round" stroke-linejoin="round"/>
<path d="M23.9999 37C27.9999 33 23.9999 29 23.9999 29C23.9999 29 19.9999 25 23.9999 21" stroke="#339FD9" stroke-width="2" stroke-linecap="round" stroke-linejoin="round"/>
<path d="M29.9999 37C33.9999 33 29.9999 29 29.9999 29C29.9999 29 25.9999 25 29.9999 21" stroke="#339FD9" stroke-width="2" stroke-linecap="round" stroke-linejoin="round"/>
</svg>
