<svg width="48" height="48" viewBox="0 0 48 48" fill="none" xmlns="http://www.w3.org/2000/svg">
<path d="M32.8301 20.5601H36.7101C37.0515 20.5601 37.3896 20.4928 37.705 20.3622C38.0205 20.2315 38.3071 20.04 38.5486 19.7986C38.79 19.5572 38.9815 19.2705 39.1122 18.9551C39.2428 18.6396 39.3101 18.3015 39.3101 17.9601V16.2001C39.3101 15.8586 39.2428 15.5205 39.1122 15.2051C38.9815 14.8896 38.79 14.603 38.5486 14.3616C38.3071 14.1201 38.0205 13.9286 37.705 13.798C37.3896 13.6673 37.0515 13.6001 36.7101 13.6001H33.8301" stroke="#339FD9" stroke-width="2" stroke-linecap="round" stroke-linejoin="round"/>
<path d="M16.57 34.88L22.05 25.79L8.05005 35.79H14.91C15.242 35.7957 15.5696 35.7146 15.8607 35.5551C16.1518 35.3955 16.3963 35.1629 16.57 34.88V34.88Z" stroke="#2B5783" stroke-width="2" stroke-linecap="round" stroke-linejoin="round"/>
<path d="M8.04004 31.5901V35.8201V40.0401" stroke="#339FD9" stroke-width="2" stroke-linecap="round" stroke-linejoin="round"/>
<path d="M32.2 18.4199H10C9.46957 18.4199 8.96086 18.2093 8.58578 17.8342C8.21071 17.4592 8 16.9504 8 16.4199V10.53C8 9.85903 8.26656 9.21543 8.74103 8.74097C9.21549 8.2665 9.859 8 10.53 8H35.53L32.2 18.4199Z" stroke="#2B5783" stroke-width="2" stroke-linecap="round" stroke-linejoin="round"/>
<path d="M30.3 25.79H13.67C13.1679 25.7874 12.6871 25.586 12.333 25.23C11.9788 24.8739 11.78 24.3922 11.78 23.89V19.08C11.78 18.42 12.63 18.4199 13.67 18.4199H30.3C31.35 18.4199 32.2 18.42 32.2 19.26V23.89C32.2 24.3939 31.9998 24.8772 31.6435 25.2335C31.2872 25.5898 30.804 25.79 30.3 25.79Z" stroke="#2B5783" stroke-width="2" stroke-linecap="round" stroke-linejoin="round"/>
</svg>
