<svg width="48" height="48" viewBox="0 0 48 48" fill="none" xmlns="http://www.w3.org/2000/svg">
<path d="M36.35 11H12.58C10.6028 11 9 12.6028 9 14.58V25.3C9 27.2772 10.6028 28.88 12.58 28.88H36.35C38.3272 28.88 39.93 27.2772 39.93 25.3V14.58C39.93 12.6028 38.3272 11 36.35 11Z" stroke="#2B5783" stroke-width="2" stroke-linecap="round" stroke-linejoin="round"/>
<path d="M25.79 18.49H33.64" stroke="#339FD9" stroke-width="2" stroke-linecap="round" stroke-linejoin="round"/>
<path d="M14.4399 34.3201V39.9901" stroke="#339FD9" stroke-width="2" stroke-linecap="round" stroke-linejoin="round"/>
<path d="M21.0801 34.3201V39.9901" stroke="#339FD9" stroke-width="2" stroke-linecap="round" stroke-linejoin="round"/>
<path d="M28.0901 34.3201V39.9901" stroke="#339FD9" stroke-width="2" stroke-linecap="round" stroke-linejoin="round"/>
<path d="M34.73 34.3201V39.9901" stroke="#339FD9" stroke-width="2" stroke-linecap="round" stroke-linejoin="round"/>
<path d="M15.53 28.46V25.9399C15.53 25.566 15.6786 25.2074 15.9431 24.943C16.2075 24.6786 16.5661 24.53 16.9401 24.53H32.23C32.6049 24.53 32.9646 24.6782 33.2307 24.9424C33.4967 25.2065 33.6474 25.5651 33.65 25.9399V28.46" stroke="#2B5783" stroke-width="2" stroke-linecap="round" stroke-linejoin="round"/>
</svg>
