<svg width="48" height="48" viewBox="0 0 48 48" fill="none" xmlns="http://www.w3.org/2000/svg">
<path d="M9 22L24 10L39 22" stroke="#2B5783" stroke-width="2" stroke-linecap="round" stroke-linejoin="round"/>
<path d="M13 24V34C13 36.2091 14.7909 38 17 38H31C33.2091 38 35 36.2091 35 34V24" stroke="#2B5783" stroke-width="2" stroke-linecap="round" stroke-linejoin="round"/>
<path d="M20.4641 29.464C20.9284 28.9996 21.4797 28.6311 22.0864 28.3798C22.6931 28.1284 23.3434 27.9991 24.0001 27.9991C24.6568 27.9991 25.3071 28.1284 25.9138 28.3798C26.5205 28.6311 27.0718 28.9996 27.5361 29.464" stroke="#339FD9" stroke-width="2" stroke-linecap="round" stroke-linejoin="round"/>
<path d="M17.636 26.636C18.4717 25.8002 19.4639 25.1373 20.5558 24.685C21.6477 24.2327 22.8181 23.9999 24 23.9999C25.1819 23.9999 26.3522 24.2327 27.4442 24.685C28.5361 25.1373 29.5283 25.8002 30.364 26.636" stroke="#339FD9" stroke-width="2" stroke-linecap="round" stroke-linejoin="round"/>
<path d="M24.707 32.293L24 33L23.293 32.293C23.4805 32.1055 23.7348 32.0002 24 32.0002C24.2651 32.0002 24.5194 32.1055 24.707 32.293Z" stroke="#339FD9" stroke-width="2" stroke-linecap="round" stroke-linejoin="round"/>
</svg>
