<svg width="48" height="48" viewBox="0 0 48 48" fill="none" xmlns="http://www.w3.org/2000/svg">
<path d="M35 11H13C10.7909 11 9 12.7909 9 15V33C9 35.2091 10.7909 37 13 37H35C37.2091 37 39 35.2091 39 33V15C39 12.7909 37.2091 11 35 11Z" stroke="#2B5783" stroke-width="2" stroke-linecap="round" stroke-linejoin="round"/>
<path d="M21 20L28 24L21 28V20Z" stroke="#339FD9" stroke-width="2" stroke-linecap="round" stroke-linejoin="round"/>
<path d="M9 16H39" stroke="#2B5783" stroke-width="2" stroke-linecap="round" stroke-linejoin="round"/>
<path d="M14 11V16" stroke="#2B5783" stroke-width="2" stroke-linecap="round" stroke-linejoin="round"/>
<path d="M19 11V16" stroke="#2B5783" stroke-width="2" stroke-linecap="round" stroke-linejoin="round"/>
<path d="M24 11V16" stroke="#2B5783" stroke-width="2" stroke-linecap="round" stroke-linejoin="round"/>
<path d="M29 11V16" stroke="#2B5783" stroke-width="2" stroke-linecap="round" stroke-linejoin="round"/>
<path d="M34 11V16" stroke="#2B5783" stroke-width="2" stroke-linecap="round" stroke-linejoin="round"/>
<path d="M39 32H9" stroke="#2B5783" stroke-width="2" stroke-linecap="round" stroke-linejoin="round"/>
<path d="M14 32V37" stroke="#2B5783" stroke-width="2" stroke-linecap="round" stroke-linejoin="round"/>
<path d="M19 32V37" stroke="#2B5783" stroke-width="2" stroke-linecap="round" stroke-linejoin="round"/>
<path d="M24 32V37" stroke="#2B5783" stroke-width="2" stroke-linecap="round" stroke-linejoin="round"/>
<path d="M29 32V37" stroke="#2B5783" stroke-width="2" stroke-linecap="round" stroke-linejoin="round"/>
<path d="M34 32V37" stroke="#2B5783" stroke-width="2" stroke-linecap="round" stroke-linejoin="round"/>
</svg>
