<svg width="48" height="48" viewBox="0 0 48 48" fill="none" xmlns="http://www.w3.org/2000/svg">
<path d="M24 40C19.7565 40 15.6869 38.3143 12.6863 35.3137C9.68571 32.3131 8 28.2435 8 24C8 19.7565 9.68571 15.6869 12.6863 12.6863C15.6869 9.68571 19.7565 8 24 8V10C21.2311 10 18.5243 10.8211 16.222 12.3594C13.9197 13.8978 12.1253 16.0843 11.0657 18.6424C10.0061 21.2006 9.72881 24.0155 10.269 26.7313C10.8092 29.447 12.1426 31.9416 14.1005 33.8995C16.0584 35.8574 18.553 37.1908 21.2687 37.731C23.9845 38.2712 26.7994 37.9939 29.3576 36.9343C31.9157 35.8747 34.1022 34.0803 35.6406 31.778C37.1789 29.4757 38 26.7689 38 24H40C39.9952 28.242 38.308 32.3089 35.3084 35.3084C32.3089 38.308 28.242 39.9952 24 40Z" fill="#2B5783"/>
<path d="M24 27C25.6569 27 27 25.6569 27 24C27 22.3431 25.6569 21 24 21C22.3431 21 21 22.3431 21 24C21 25.6569 22.3431 27 24 27Z" fill="#2B5783"/>
<path d="M24 34V32C25.5823 32 27.129 31.5308 28.4446 30.6518C29.7602 29.7727 30.7855 28.5233 31.391 27.0615C31.9965 25.5997 32.155 23.9911 31.8463 22.4393C31.5376 20.8874 30.7757 19.462 29.6569 18.3431C28.538 17.2243 27.1126 16.4624 25.5607 16.1537C24.0089 15.845 22.4003 16.0035 20.9385 16.609C19.4767 17.2145 18.2273 18.2398 17.3482 19.5554C16.4692 20.871 16 22.4178 16 24H14C14 22.0222 14.5865 20.0888 15.6853 18.4443C16.7841 16.7998 18.3459 15.5181 20.1732 14.7612C22.0004 14.0043 24.0111 13.8063 25.9509 14.1922C27.8907 14.578 29.6725 15.5304 31.0711 16.9289C32.4696 18.3275 33.422 20.1093 33.8079 22.0491C34.1937 23.9889 33.9957 25.9996 33.2388 27.8268C32.4819 29.6541 31.2002 31.2159 29.5557 32.3147C27.9112 33.4135 25.9778 34 24 34V34Z" fill="#339FD9"/>
<path d="M20.6659 33.431C19.2569 32.9365 17.9771 32.1316 16.9212 31.0757C15.8653 30.0198 15.0604 28.74 14.5659 27.331L16.4519 26.665C16.8544 27.7874 17.5005 28.8068 18.3437 29.6498C19.1869 30.4929 20.2064 31.1388 21.3289 31.541L20.6659 33.431Z" fill="#2B5783"/>
<path d="M37.72 21.2C37.1769 18.507 35.851 16.0342 33.9084 14.0916C31.9658 12.1491 29.4931 10.8231 26.8 10.28L27.2001 8.319C30.2776 8.94044 33.1034 10.4562 35.3233 12.6764C37.5433 14.8965 39.0589 17.7224 39.68 20.8L37.72 21.2Z" fill="#2B5783"/>
</svg>
