<svg width="48" height="48" viewBox="0 0 48 48" fill="none" xmlns="http://www.w3.org/2000/svg">
<path d="M22.6 13.5C23.2 11.9 24.7 10.8 26.5 10.8C28.8 10.8 30.6 12.6 30.6 14.9C30.6 17.2 28.8 19 26.5 19H9" stroke="#2B5783" stroke-width="2" stroke-linecap="round" stroke-linejoin="round"/>
<path d="M14.5 34.5C15.1 36.1 16.6 37.2 18.4 37.2C20.7 37.2 22.5 35.4 22.5 33.1C22.5 30.8 20.6 29 18.3 29H9" stroke="#2B5783" stroke-width="2" stroke-linecap="round" stroke-linejoin="round"/>
<path d="M31.1 29.5C31.7 31.1 33.2 32.2 35 32.2C37.3 32.2 39.1 30.4 39.1 28.1C39.1 25.8 37.2 24 34.9 24H9" stroke="#339FD9" stroke-width="2" stroke-linecap="round" stroke-linejoin="round"/>
</svg>
