<svg width="48" height="48" viewBox="0 0 48 48" fill="none" xmlns="http://www.w3.org/2000/svg">
<path d="M23 39V35C23 32.7909 21.2091 31 19 31V31C16.7909 31 15 32.7909 15 35V39" stroke="#339FD9" stroke-width="2"/>
<path d="M35 26L35 40" stroke="#2B5783" stroke-width="2" stroke-linecap="round"/>
<path d="M42 19V26C42 29.866 38.866 33 35 33C31.1343 33 28 29.8647 28 25.9985V23.8406V23.816V23.8037V23.7977V23.7916V23.7676V23.7616V23.7557V23.7438V23.7321V23.7263V23.7205V23.6974V23.6917V23.686V23.6747V23.6691V23.6635V23.6523V23.6413V23.6358V23.6303V23.6194V23.614V23.6086V23.5979V23.5925V23.5872V23.5767V23.5714V23.5662V23.561V23.5558V23.5507V23.5456V23.5354V23.5303V23.5252V23.5152V23.5102V23.5053V23.5003V23.4954V23.4857V23.4808V23.476V23.4664V23.4475V23.4382V23.4336V23.429V23.4244V23.4198V23.4108V23.4063V23.4018V23.3974V23.393V23.3886V23.3842V23.3755V23.3712V23.3669V23.3627V23.3584V23.3542V23.35V23.3459V23.3417V23.3376V23.3335V23.3294V23.3254V23.3213V23.3173V23.3134V23.3094V23.3055V23.3016V23.2977V23.2938V23.2861V23.2824V23.2786V23.2748V23.2711V23.2674V23.2637V23.2601V23.2565V23.2529V23.2493V23.2457V23.2422V23.2387V23.2352V23.2318V23.2283V23.2249V23.2215V23.2182V23.2148V23.2115V23.2082V23.205V23.2017V23.1985V23.1953V23.1922V23.189V23.1859V23.1828V23.1798V23.1767V23.1737V23.1707V23.1648V23.1619V23.159V23.1561V23.1533V23.1505V23.1477V23.1449V23.1421V23.1394V23.1367V23.1314V23.1288V23.1262V23.1236V23.1211V23.1186V23.1161V23.1136V23.1112V23.1088V23.1064V23.104V23.1017V23.0971V23.0948V23.0926V23.0904V23.0882V23.0839V23.0818V23.0797V23.0777V23.0756V23.0717V23.0697V23.0678V23.064V23.0622V23.0604V23.0568V23.0144V23.0126V23.011V23.0103V23.0095V23.0081V23.0068V23.0056V23.0046V23.0036V23.0032V23.0028V23.002V23.0014V23.0009V23.0005V23.0004V23.0002V23.0001V23V19.0003C28 15.1342 31.134 12 35 12C38.866 12 42 15.134 42 19Z" stroke="#2B5783" stroke-width="2"/>
<path d="M7 40H24H41" stroke="#2B5783" stroke-width="2" stroke-linecap="round"/>
<path d="M10 40V28.1481L15 24" stroke="#2B5783" stroke-width="2" stroke-linecap="round" stroke-linejoin="round"/>
<rect x="26" y="24" width="5" height="10" fill="white"/>
<path d="M19 20L28.6 28.2353V40H22.6" stroke="#2B5783" stroke-width="2" stroke-linecap="round" stroke-linejoin="round"/>
</svg>
