<svg width="58" height="58" viewBox="0 0 58 58" fill="none" xmlns="http://www.w3.org/2000/svg">
<g clip-path="url(#clip0_1280_13656)">
<path d="M16.1042 28.1976L1.69971 15.0957L7.67605 9.00439L18.7476 19.3864L16.1042 28.1976Z" fill="#359FD9"/>
<path d="M30.2021 42.1802L43.419 56.4698L49.4337 50.4168L38.9751 39.4219L30.2021 42.1802Z" fill="#359FD9"/>
<path d="M36.5988 57.4284C33.1892 57.3901 28.9368 55.7044 25.4889 52.2949C18.8613 45.7439 12.272 39.1163 5.72104 32.4887C1.77512 28.4661 0.089489 23.6008 0.587517 18.0075C0.855686 14.9811 1.96667 12.2228 3.76724 9.77092C5.45287 7.51064 8.90076 7.12754 10.9312 9.04304C13.5362 11.5332 16.0647 14.0999 18.5931 16.705C20.2788 18.4673 20.2022 21.3405 18.5165 23.2943C17.3289 24.6735 17.3672 25.7461 18.6315 27.0487C22.6923 31.1095 26.7531 35.1704 30.814 39.2695C32.1165 40.572 33.1892 40.6104 34.53 39.4228C36.6371 37.6222 39.472 37.6988 41.4258 39.6526C43.801 41.9895 46.1379 44.3264 48.4748 46.7016C50.7734 49.0002 50.3903 52.563 47.7469 54.4019C44.7971 56.4323 41.5791 57.4667 36.5222 57.4667L36.5988 57.4284ZM37.9396 54.785C41.0044 54.7084 43.801 53.9039 46.2529 52.1799C47.5554 51.2605 47.7469 49.7281 46.5976 48.5788C44.2991 46.2419 41.9622 43.905 39.5869 41.5681C38.5526 40.5337 37.3267 40.5337 36.254 41.5298C34.0703 43.4836 31.2354 43.4836 29.1667 41.4149C24.9143 37.2008 20.7002 32.9484 16.4861 28.7343C14.4174 26.6656 14.4174 23.8306 16.3712 21.647C17.3672 20.5743 17.3672 19.3484 16.3712 18.314C14.0726 15.9771 11.774 13.6785 9.43709 11.3799C8.21118 10.154 6.67878 10.3456 5.68273 11.8013C1.81343 17.5478 2.4647 25.4013 7.40667 30.3816C14.0726 37.1625 20.8151 43.8667 27.5577 50.5709C30.4309 53.4059 33.9937 54.7084 37.9396 54.8233V54.785Z" fill="#2B5884"/>
<path d="M57.0563 28.0057C57.0563 28.3504 57.0563 28.6952 57.0563 29.04C57.0563 29.9595 56.5583 30.4958 55.7538 30.4958C54.911 30.4958 54.413 29.9595 54.413 29.0017C54.3363 24.8643 53.4552 20.9566 51.5014 17.3172C47.3256 9.65524 40.9662 5.09637 32.3465 3.71721C31.2355 3.52566 30.1245 3.48735 28.9752 3.41073C27.9409 3.37242 27.3662 2.95102 27.3662 2.06989C27.3662 1.26538 27.9409 0.805664 29.0135 0.805664C33.6107 0.805664 37.978 1.91665 42.0006 4.10031C50.0456 8.50594 54.911 15.2868 56.6732 24.3279C56.7882 24.9409 56.8265 25.5538 56.9031 26.1668C56.9797 26.7797 57.018 27.3927 57.0563 28.044V28.0057Z" fill="#2B5884"/>
<path d="M48.8593 28.734C48.8976 29.8067 48.4762 30.458 47.6334 30.4963C46.7139 30.5729 46.1393 29.9983 46.1393 28.9256C46.101 25.1329 44.9517 21.685 42.6148 18.6968C39.2052 14.2912 34.6846 11.916 29.0914 11.7628C28.0953 11.7628 27.5207 11.3797 27.4058 10.6518C27.2142 9.65572 27.9038 8.96614 29.0914 9.00445C33.0373 9.11938 36.7151 10.2304 40.0097 12.4906C44.99 15.9385 47.8632 20.7273 48.7444 26.7419C48.821 27.3549 48.8593 28.0061 48.8976 28.734H48.8593Z" fill="#359FD9"/>
<path d="M29.0906 17.7392C34.3774 17.8541 39.1661 22.0299 39.9706 27.0485C40.0856 27.7381 40.1239 28.4277 40.1239 29.1172C40.1239 29.9984 39.6641 30.4964 38.8596 30.5347C38.0168 30.5347 37.5188 30.075 37.4805 29.1555C37.3272 25.8226 35.8715 23.2558 32.9599 21.5319C31.734 20.804 30.3548 20.4975 28.9757 20.3826C27.8264 20.306 27.3284 19.8846 27.3284 19.0034C27.3284 18.1223 27.903 17.7009 29.0906 17.7392C29.1289 17.7392 29.2056 17.7392 29.0523 17.7392H29.0906Z" fill="#2B5884"/>
</g>
<defs>
<clipPath id="clip0_1280_13656">
<rect width="56.5454" height="56.622" fill="white" transform="translate(0.511719 0.805664)"/>
</clipPath>
</defs>
</svg>
