<svg id="Layer_1" data-name="Layer 1" xmlns="http://www.w3.org/2000/svg" viewBox="0 0 512 512"><defs><style>.cls-1{fill:#495875;}.cls-2{fill:#2686ef;}</style></defs><title>gesture-12-filled</title><path class="cls-1" d="M415.14,498.16V457.71a139.06,139.06,0,0,1,8.52-48l4.41-12a127.92,127.92,0,0,0,7.83-44.14V298.7c0-21.83-16.47-40.5-37.49-42.51a41.88,41.88,0,0,0-21.77,3.8c-6.08-13.35-18.69-23.14-33.58-24.56a41.62,41.62,0,0,0-19.56,2.84c-4.72-16.32-18.76-28.89-35.79-30.52a41.71,41.71,0,0,0-17.86,2.2V153.41c0-21.83-16.47-40.5-37.49-42.51a41.52,41.52,0,0,0-45.54,41.32V284.5c-20.47,2.58-35,11.25-43.25,25.85-22.74,40.17,16.56,107.88,21.11,115.47.19.31.39.62.6.91,16.69,23.41,21.54,32.83,21.54,50.19v21.25A13.84,13.84,0,0,0,200.65,512H401.3A13.84,13.84,0,0,0,415.14,498.16Zm-27.68-40.46v26.62h-173v-7.41c0-25.83-8.44-40.64-26.36-65.79-13.94-23.48-31.64-67.49-20.48-87.16,3.32-5.85,9.74-9.69,19.16-11.46v12.69a13.84,13.84,0,1,0,27.68,0v-173a13.85,13.85,0,0,1,15.24-13.77c7,.67,12.44,7.24,12.44,15V262.92a13.84,13.84,0,0,0,27.68,0V249.08a13.68,13.68,0,0,1,4.53-10.24,13.82,13.82,0,0,1,10.7-3.53c7,.67,12.44,7.24,12.44,15v40.32a13.84,13.84,0,0,0,27.68,0V276.76A13.85,13.85,0,0,1,340.43,263c7,.67,12.44,7.24,12.44,15v33.41a13.84,13.84,0,1,0,27.68,0V297.51a13.85,13.85,0,0,1,15.24-13.77c7,.67,12.44,7.24,12.44,15v54.82a100.35,100.35,0,0,1-6.14,34.62l-4.41,12A166.65,166.65,0,0,0,387.46,457.71Z"/><path class="cls-2" d="M159.14,152.22a69.19,69.19,0,0,1,138.38,0,13.84,13.84,0,0,0,27.68,0,96.86,96.86,0,0,0-193.73,0,13.84,13.84,0,0,0,27.68,0Z"/><path class="cls-2" d="M89.95,166.05a13.84,13.84,0,0,0,13.84-13.84,124.54,124.54,0,0,1,249.08,0,13.84,13.84,0,0,0,27.68,0C380.54,68.28,312.26,0,228.32,0S76.11,68.28,76.11,152.22A13.84,13.84,0,0,0,89.95,166.05Z"/></svg>