<svg width="32" height="32" viewBox="0 0 32 32" fill="none" xmlns="http://www.w3.org/2000/svg">
<path d="M2.32684 1.13922H29.6733C29.9882 1.13955 30.29 1.26477 30.5127 1.4874C30.7353 1.71003 30.8605 2.01188 30.8608 2.32672V3.90172C30.8609 3.95918 30.8496 4.01609 30.8276 4.06918C30.8056 4.12228 30.7734 4.17052 30.7328 4.21115C30.6921 4.25179 30.6439 4.28401 30.5908 4.30599C30.5377 4.32796 30.4808 4.33925 30.4233 4.33922H29.1853V29.77C29.1854 29.833 29.1718 29.8953 29.1455 29.9525C29.1193 30.0098 29.0809 30.0607 29.0331 30.1017C28.3376 30.6179 27.4888 30.8852 26.6231 30.8607C26.1675 30.8625 25.7145 30.7928 25.2806 30.654C25.0068 30.5665 24.7441 30.4477 24.4976 30.3C23.8532 30.676 23.1186 30.8696 22.3726 30.86C21.6274 30.8693 20.8937 30.6757 20.2501 30.3C19.6058 30.6762 18.8712 30.87 18.1251 30.8605C17.3208 30.8744 16.5308 30.6468 15.8571 30.2072H3.25284C3.19537 30.2073 3.13847 30.196 3.08537 30.174C3.03228 30.152 2.98404 30.1198 2.9434 30.0792C2.90277 30.0385 2.87055 29.9903 2.84857 29.9372C2.8266 29.8841 2.8153 29.8272 2.81534 29.7697V4.33922H1.57734C1.51987 4.33925 1.46297 4.32796 1.40987 4.30599C1.35678 4.28401 1.30853 4.25179 1.2679 4.21115C1.22727 4.17052 1.19505 4.12228 1.17307 4.06918C1.1511 4.01609 1.1398 3.95918 1.13984 3.90172V2.32672C1.14023 2.01199 1.2654 1.71025 1.48791 1.48765C1.71041 1.26505 2.0121 1.13975 2.32684 1.13922ZM25.5501 29.8215C25.8969 29.9322 26.259 29.9876 26.6231 29.9857C27.2155 29.9974 27.7996 29.8446 28.3103 29.5442V4.33922H24.9353V29.542C25.1283 29.6594 25.3347 29.7532 25.5501 29.8215ZM24.0611 29.5437V4.33922H20.6861V12.2805C21.484 13.3135 21.9169 14.5819 21.9169 15.8872C21.9169 17.1925 21.484 18.461 20.6861 19.494V29.544C21.1965 29.8451 21.7806 29.9982 22.3731 29.9862C22.9659 29.9982 23.5504 29.845 24.0611 29.5437ZM16.4376 4.33922V9.98747C17.6801 10.0783 18.8617 10.5608 19.8126 11.3657V4.33922H16.4376ZM5.58759 4.33922V27.435H15.5626V21.787C14.0723 21.678 12.6784 21.0091 11.6611 19.9146C10.6437 18.8202 10.0782 17.3813 10.0782 15.887C10.0782 14.3927 10.6437 12.9538 11.6611 11.8593C12.6784 10.7649 14.0723 10.0959 15.5626 9.98697V4.33922H5.58759ZM21.0428 15.8872C21.0428 14.8899 20.7471 13.9149 20.193 13.0856C19.6389 12.2563 18.8513 11.61 17.9299 11.2283C17.0084 10.8467 15.9945 10.7468 15.0163 10.9414C14.0381 11.1359 13.1396 11.6162 12.4343 12.3215C11.7291 13.0267 11.2488 13.9252 11.0542 14.9034C10.8597 15.8816 10.9595 16.8956 11.3412 17.817C11.7229 18.7384 12.3692 19.526 13.1985 20.0801C14.0278 20.6342 15.0027 20.93 16.0001 20.93C17.337 20.9285 18.6188 20.3967 19.5642 19.4513C20.5095 18.5059 21.0413 17.2242 21.0428 15.8872ZM19.8118 29.5437V20.4087C18.8609 21.2135 17.6793 21.6961 16.4368 21.787V29.544C16.952 29.8338 17.5332 29.9861 18.1243 29.9861C18.7155 29.9861 19.2966 29.8338 19.8118 29.544V29.5437ZM3.68984 29.3325H15.5626V28.31H5.15009C5.09262 28.31 5.03572 28.2987 4.98262 28.2767C4.92953 28.2548 4.88128 28.2225 4.84065 28.1819C4.80002 28.1413 4.7678 28.093 4.74582 28.0399C4.72385 27.9868 4.71255 27.9299 4.71259 27.8725V4.33922H3.69009L3.68984 29.3325ZM2.01484 3.46422H29.9858V2.32672C29.9858 2.24384 29.9529 2.16436 29.8943 2.10575C29.8357 2.04715 29.7562 2.01422 29.6733 2.01422H2.32684C2.24396 2.01422 2.16447 2.04715 2.10587 2.10575C2.04726 2.16436 2.01434 2.24384 2.01434 2.32672L2.01484 3.46422Z" fill="#000"/>
<path d="M13 16C13 15.7929 13.1679 15.625 13.375 15.625H17.5638L15.7338 13.795C15.5869 13.6481 15.5873 13.4098 15.7347 13.2634C15.8814 13.1178 16.1182 13.1182 16.2644 13.2644L18.2929 15.2929C18.6834 15.6834 18.6834 16.3166 18.2929 16.7071L16.2645 18.7355C16.1184 18.8816 15.8816 18.8816 15.7355 18.7355C15.5895 18.5895 15.5894 18.3529 15.7353 18.2068L17.5638 16.375H13.375C13.1679 16.375 13 16.2071 13 16Z" fill="#000"/>
</svg>
