<svg width="32" height="32" viewBox="0 0 32 32" fill="none" xmlns="http://www.w3.org/2000/svg">
<path d="M29.6732 1.13922H2.32666C2.01182 1.13955 1.70996 1.26477 1.48734 1.4874C1.26471 1.71003 1.13949 2.01188 1.13916 2.32672V3.90172C1.13913 3.95918 1.15042 4.01609 1.1724 4.06918C1.19437 4.12228 1.2266 4.17052 1.26723 4.21115C1.30786 4.25179 1.3561 4.28401 1.4092 4.30599C1.46229 4.32796 1.5192 4.33925 1.57666 4.33922H2.81466V29.77C2.81461 29.833 2.82819 29.8953 2.85447 29.9525C2.88075 30.0098 2.91911 30.0607 2.96691 30.1017C3.66235 30.6179 4.51118 30.8852 5.37691 30.8607C5.83248 30.8625 6.2855 30.7928 6.71941 30.654C6.99318 30.5665 7.25592 30.4477 7.50241 30.3C8.14681 30.676 8.88139 30.8696 9.62741 30.86C10.3726 30.8693 11.1063 30.6757 11.7499 30.3C12.3942 30.6762 13.1288 30.87 13.8749 30.8605C14.6792 30.8744 15.4692 30.6468 16.1429 30.2072H28.7472C28.8046 30.2073 28.8615 30.196 28.9146 30.174C28.9677 30.152 29.016 30.1198 29.0566 30.0792C29.0972 30.0385 29.1295 29.9903 29.1514 29.9372C29.1734 29.8841 29.1847 29.8272 29.1847 29.7697V4.33922H30.4227C30.4801 4.33925 30.537 4.32796 30.5901 4.30599C30.6432 4.28401 30.6915 4.25179 30.7321 4.21115C30.7727 4.17052 30.805 4.12228 30.8269 4.06918C30.8489 4.01609 30.8602 3.95918 30.8602 3.90172V2.32672C30.8598 2.01199 30.7346 1.71025 30.5121 1.48765C30.2896 1.26505 29.9879 1.13975 29.6732 1.13922ZM6.44991 29.8215C6.10307 29.9322 5.74098 29.9876 5.37691 29.9857C4.78449 29.9974 4.20044 29.8446 3.68966 29.5442V4.33922H7.06466V29.542C6.87166 29.6594 6.66527 29.7532 6.44991 29.8215ZM7.93891 29.5437V4.33922H11.3139V12.2805C10.516 13.3135 10.0831 14.5819 10.0831 15.8872C10.0831 17.1925 10.516 18.461 11.3139 19.494V29.544C10.8035 29.8451 10.2194 29.9982 9.62691 29.9862C9.03409 29.9982 8.44963 29.845 7.93891 29.5437ZM15.5624 4.33922V9.98747C14.3199 10.0783 13.1383 10.5608 12.1874 11.3657V4.33922H15.5624ZM26.4124 4.33922V27.435H16.4374V21.787C17.9277 21.678 19.3216 21.0091 20.3389 19.9146C21.3563 18.8202 21.9218 17.3813 21.9218 15.887C21.9218 14.3927 21.3563 12.9538 20.3389 11.8593C19.3216 10.7649 17.9277 10.0959 16.4374 9.98697V4.33922H26.4124ZM10.9572 15.8872C10.9572 14.8899 11.2529 13.9149 11.807 13.0856C12.3611 12.2563 13.1487 11.61 14.0701 11.2283C14.9916 10.8467 16.0055 10.7468 16.9837 10.9414C17.9619 11.1359 18.8604 11.6162 19.5657 12.3215C20.2709 13.0267 20.7512 13.9252 20.9458 14.9034C21.1403 15.8816 21.0405 16.8956 20.6588 17.817C20.2771 18.7384 19.6308 19.526 18.8015 20.0801C17.9722 20.6342 16.9973 20.93 15.9999 20.93C14.663 20.9285 13.3812 20.3967 12.4358 19.4513C11.4905 18.5059 10.9587 17.2242 10.9572 15.8872ZM12.1882 29.5437V20.4087C13.1391 21.2135 14.3207 21.6961 15.5632 21.787V29.544C15.048 29.8338 14.4668 29.9861 13.8757 29.9861C13.2845 29.9861 12.7034 29.8338 12.1882 29.544V29.5437ZM28.3102 29.3325H16.4374V28.31H26.8499C26.9074 28.31 26.9643 28.2987 27.0174 28.2767C27.0705 28.2548 27.1187 28.2225 27.1593 28.1819C27.2 28.1413 27.2322 28.093 27.2542 28.0399C27.2762 27.9868 27.2874 27.9299 27.2874 27.8725V4.33922H28.3099L28.3102 29.3325ZM29.9852 3.46422H2.01416V2.32672C2.01416 2.24384 2.04708 2.16436 2.10569 2.10575C2.16429 2.04715 2.24378 2.01422 2.32666 2.01422H29.6732C29.756 2.01422 29.8355 2.04715 29.8941 2.10575C29.9527 2.16436 29.9857 2.24384 29.9857 2.32672L29.9852 3.46422Z" fill="#000"/>
<path d="M19 16C19 15.7929 18.8321 15.625 18.625 15.625H14.4362L16.2662 13.795C16.4131 13.6481 16.4127 13.4098 16.2653 13.2634C16.1186 13.1178 15.8818 13.1182 15.7356 13.2644L13.7071 15.2929C13.3166 15.6834 13.3166 16.3166 13.7071 16.7071L15.7355 18.7355C15.8816 18.8816 16.1184 18.8816 16.2645 18.7355C16.4105 18.5895 16.4106 18.3529 16.2647 18.2068L14.4362 16.375H18.625C18.8321 16.375 19 16.2071 19 16Z" fill="#000"/>
</svg>
