<svg width="33" height="33" viewBox="0 0 33 33" fill="none" xmlns="http://www.w3.org/2000/svg">
<g clip-path="url(#clip0_152_539)">
<path d="M17.0361 15.9589H22.7171C25.8556 15.9589 28.3989 13.4156 28.3989 10.2779C28.3989 7.13935 25.8556 4.59607 22.7171 4.59607C19.5793 4.59607 17.0352 7.13935 17.0352 10.2779V15.9589H17.0361Z" fill="white"/>
<path d="M15.7618 15.9589H10.0799C6.94223 15.9589 4.39807 13.4157 4.39807 10.2771C4.39896 7.13935 6.94312 4.59607 10.0808 4.59607C13.2185 4.59607 15.7627 7.13935 15.7627 10.2779V15.9589H15.7618Z" fill="white"/>
<path d="M17.0361 17.2333H22.7171C25.8556 17.2333 28.3989 19.7766 28.3989 22.9143C28.3989 26.052 25.8556 28.5961 22.7171 28.5961C19.5793 28.5961 17.0352 26.0529 17.0352 22.9143V17.2333H17.0361Z" fill="white"/>
<path d="M15.7617 17.2333H10.0798C6.94214 17.2333 4.39798 19.7766 4.39798 22.9151C4.39798 26.0529 6.94126 28.597 10.0798 28.597C13.2176 28.597 15.7617 26.0537 15.7617 22.9151V17.2333Z" fill="white"/>
</g>
<defs>
<clipPath id="clip0_152_539">
<rect width="24" height="24" fill="white" transform="matrix(-1 0 0 1 28.3989 4.59607)"/>
</clipPath>
</defs>
</svg>
