<svg width="34" height="34" viewBox="0 0 34 34" fill="none" xmlns="http://www.w3.org/2000/svg">
<g clip-path="url(#clip0_747_3313)">
<path d="M23.3201 15.36H18.6401V10.68C18.6401 8.09228 20.7324 6 23.3201 6C25.9079 6 28.0001 8.09228 28.0001 10.68C28.0001 13.2677 25.9079 15.36 23.3201 15.36Z" stroke="#878A9C" stroke-width="2"/>
<path d="M15.36 15.36H10.68C8.09228 15.36 6 13.2677 6 10.68C6 8.09343 8.10114 6 10.68 6C13.2589 6 15.36 8.09343 15.36 10.68V15.36Z" stroke="#878A9C" stroke-width="2"/>
<path d="M18.6401 18.6399H23.3201C25.9079 18.6399 28.0001 20.7322 28.0001 23.3199C28.0001 25.9076 25.9079 27.9999 23.3201 27.9999C20.7324 27.9999 18.6401 25.9076 18.6401 23.3199V18.6399Z" stroke="#878A9C" stroke-width="2"/>
<path d="M10.68 18.6399H15.36V23.3199C15.36 25.9076 13.2677 27.9999 10.68 27.9999C8.09228 27.9999 6 25.9076 6 23.3199C6 20.7322 8.09228 18.6399 10.68 18.6399Z" stroke="#878A9C" stroke-width="2"/>
</g>
<defs>
<clipPath id="clip0_747_3313">
<rect width="24" height="24" fill="white" transform="translate(5 5)"/>
</clipPath>
</defs>
</svg>
