<svg width="33" height="33" viewBox="0 0 33 33" fill="none" xmlns="http://www.w3.org/2000/svg">
<g clip-path="url(#clip0_152_276)">
<path fill-rule="evenodd" clip-rule="evenodd" d="M16.2074 26.1774C22.8546 26.1774 28.2432 21.3462 28.2432 15.3867C28.2432 9.42721 22.8546 4.59607 16.2074 4.59607C9.5603 4.59607 4.17172 9.42721 4.17172 15.3867C4.17172 21.3462 9.5603 26.1774 16.2074 26.1774ZM9.15223 17.0468C10.0691 17.0468 10.8123 16.3035 10.8123 15.3867C10.8123 14.4698 10.0691 13.7266 9.15223 13.7266C8.23539 13.7266 7.49213 14.4698 7.49213 15.3867C7.49213 16.3035 8.23539 17.0468 9.15223 17.0468ZM17.4523 15.3867C17.4523 16.3035 16.709 17.0468 15.7922 17.0468C14.8753 17.0468 14.1321 16.3035 14.1321 15.3867C14.1321 14.4698 14.8753 13.7266 15.7922 13.7266C16.709 13.7266 17.4523 14.4698 17.4523 15.3867ZM22.4328 17.0468C23.3497 17.0468 24.0929 16.3035 24.0929 15.3867C24.0929 14.4698 23.3497 13.7266 22.4328 13.7266C21.516 13.7266 20.7727 14.4698 20.7727 15.3867C20.7727 16.3035 21.516 17.0468 22.4328 17.0468Z" fill="white"/>
<path d="M28.2433 28.6675L18.2827 25.3473L24.9231 21.197L28.2433 28.6675Z" fill="white"/>
</g>
<defs>
<clipPath id="clip0_152_276">
<rect width="24" height="24" fill="white" transform="matrix(-1 0 0 1 28.2432 4.59607)"/>
</clipPath>
</defs>
</svg>
