<svg width="34" height="33" viewBox="0 0 34 33" fill="none" xmlns="http://www.w3.org/2000/svg">

<circle cx="22.8325" cy="15.1898" r="1.6601" fill="#878A9C"/>
<circle cx="16.5121" cy="15.1898" r="1.6601" fill="#878A9C"/>
<circle cx="10.1923" cy="15.1898" r="1.6601" fill="#878A9C"/>
<mask id="path-4-inside-1_152_390" fill="white">
<path fill-rule="evenodd" clip-rule="evenodd" d="M25.8246 22.1287C27.5833 20.2527 28.6427 17.8321 28.6427 15.1897C28.6427 9.23019 23.2542 4.39905 16.607 4.39905C9.95987 4.39905 4.57129 9.23019 4.57129 15.1897C4.57129 21.1492 9.95987 25.9803 16.607 25.9803C17.7583 25.9803 18.8717 25.8354 19.926 25.5648L28.6432 28.4706L25.8246 22.1287Z"/>
</mask>
<path d="M25.8244 22.1287L23.9968 22.9409L23.458 21.7286L24.3654 20.7608L25.8244 22.1287ZM19.9259 25.5648L19.4287 23.6276L19.9994 23.4812L20.5583 23.6675L19.9259 25.5648ZM28.6431 28.4706L30.4707 27.6583L32.3123 31.8018L28.0106 30.3679L28.6431 28.4706ZM30.6426 15.1897C30.6426 18.3857 29.3574 21.2844 27.2835 23.4966L24.3654 20.7608C25.809 19.2209 26.6426 17.2785 26.6426 15.1897H30.6426ZM16.6069 2.39905C24.1476 2.39905 30.6426 7.92582 30.6426 15.1897H26.6426C26.6426 10.5346 22.3604 6.39905 16.6069 6.39905V2.39905ZM2.57114 15.1897C2.57114 7.92582 9.06614 2.39905 16.6069 2.39905V6.39905C10.8533 6.39905 6.57114 10.5346 6.57114 15.1897H2.57114ZM16.6069 27.9803C9.06614 27.9803 2.57114 22.4536 2.57114 15.1897H6.57114C6.57114 19.8448 10.8533 23.9803 16.6069 23.9803V27.9803ZM20.4231 27.5021C19.2067 27.8142 17.9262 27.9803 16.6069 27.9803V23.9803C17.59 23.9803 18.5364 23.8566 19.4287 23.6276L20.4231 27.5021ZM28.0106 30.3679L19.2934 27.4622L20.5583 23.6675L29.2755 26.5732L28.0106 30.3679ZM27.6521 21.3164L30.4707 27.6583L26.8154 29.2828L23.9968 22.9409L27.6521 21.3164Z" fill="#878A9C" mask="url(#path-4-inside-1_152_390)"/>

<defs>
<clipPath id="clip0_152_390">
<rect width="24" height="24" fill="white" transform="matrix(-1 0 0 1 28.6431 4.39905)"/>
</clipPath>
</defs>
</svg>
