<svg width="34" height="33" viewBox="0 0 34 33" fill="none" xmlns="http://www.w3.org/2000/svg">
<path fill-rule="evenodd" clip-rule="evenodd" d="M14.8206 18.5332C14.8437 18.4584 14.863 18.3826 14.8803 18.3078H25.6208C26.6989 18.3078 27.6545 17.5998 27.9881 16.5531L30.2099 9.59373C30.4413 8.87002 29.9129 8.12563 29.1665 8.12563H11.9595L11.2951 6.15045C10.8621 4.86451 9.67697 4 8.3443 4H5.71271C5.15342 4 4.7002 4.46278 4.7002 5.03387C4.7002 5.60496 5.15342 6.06774 5.71271 6.06774H8.3443C8.81199 6.06774 9.2276 6.37101 9.37996 6.82296L12.8775 17.2237C12.9537 17.4501 12.9575 17.6904 12.8871 17.9188L12.621 18.7912C12.4011 19.512 12.4397 20.2918 12.729 20.987C13.2198 22.1636 14.3461 22.9237 15.5997 22.9237H27.4279C27.9872 22.9237 28.4404 22.461 28.4404 21.8899C28.4404 21.3188 27.9872 20.856 27.4279 20.856H15.5997C15.16 20.856 14.7646 20.5892 14.592 20.1766C14.4908 19.9324 14.4773 19.6597 14.5544 19.4056L14.8206 18.5332ZM14.3038 27.9441C15.3954 27.681 16.0715 26.5642 15.8138 25.4495C15.5562 24.3349 14.4624 23.6446 13.3708 23.9077C12.2792 24.1708 11.6032 25.2876 11.8608 26.4022C12.1185 27.5168 13.2122 28.2072 14.3038 27.9441ZM28.3505 25.9249C28.3505 27.0702 27.4413 27.9986 26.3197 27.9986C25.1981 27.9986 24.2889 27.0702 24.2889 25.9249C24.2889 24.7797 25.1981 23.8513 26.3197 23.8513C27.4413 23.8513 28.3505 24.7797 28.3505 25.9249Z" fill="white"/>
</svg>
