<svg width="33" height="33" viewBox="0 0 33 33" fill="none" xmlns="http://www.w3.org/2000/svg">
<mask id="path-1-inside-1_152_360" fill="white">
<path fill-rule="evenodd" clip-rule="evenodd" d="M14.1204 18.5332C14.1435 18.4584 14.1628 18.3826 14.1802 18.3078H24.9206C25.9987 18.3078 26.9543 17.5998 27.2879 16.5531L29.5097 9.59373C29.7411 8.87002 29.2127 8.12563 28.4663 8.12563H11.2593L10.5949 6.15045C10.1619 4.86451 8.97677 4 7.6441 4H5.01252C4.45322 4 4 4.46278 4 5.03387C4 5.60496 4.45322 6.06774 5.01252 6.06774H7.6441C8.11179 6.06774 8.52741 6.37101 8.67977 6.82296L12.1773 17.2237C12.2535 17.4501 12.2573 17.6904 12.1869 17.9188L11.9208 18.7912C11.7009 19.512 11.7395 20.2918 12.0288 20.987C12.5196 22.1636 13.6459 22.9237 14.8995 22.9237H26.7277C27.287 22.9237 27.7402 22.461 27.7402 21.8899C27.7402 21.3188 27.287 20.856 26.7277 20.856H14.8995C14.4598 20.856 14.0644 20.5892 13.8918 20.1766C13.7906 19.9324 13.7771 19.6597 13.8542 19.4056L14.1204 18.5332ZM13.6036 27.9441C14.6952 27.681 15.3713 26.5642 15.1137 25.4495C14.856 24.3349 13.7622 23.6446 12.6706 23.9077C11.579 24.1708 10.903 25.2876 11.1606 26.4022C11.4183 27.5168 12.512 28.2072 13.6036 27.9441ZM27.6503 25.9249C27.6503 27.0702 26.7411 27.9986 25.6195 27.9986C24.4979 27.9986 23.5887 27.0702 23.5887 25.9249C23.5887 24.7797 24.4979 23.8513 25.6195 23.8513C26.7411 23.8513 27.6503 24.7797 27.6503 25.9249Z"/>
</mask>
<path d="M14.1802 18.3078V16.3078H12.591L12.2319 17.8559L14.1802 18.3078ZM14.1204 18.5332L12.2096 17.9423L12.2074 17.9496L14.1204 18.5332ZM27.2879 16.5531L25.3827 15.9449L25.3824 15.9457L27.2879 16.5531ZM29.5097 9.59373L27.6047 8.98454L27.6044 8.98548L29.5097 9.59373ZM11.2593 8.12563L9.36365 8.76328L9.82191 10.1256H11.2593V8.12563ZM10.5949 6.15045L12.4905 5.5128L12.4903 5.51226L10.5949 6.15045ZM8.67977 6.82296L10.5755 6.18548L10.575 6.18405L8.67977 6.82296ZM12.1773 17.2237L10.2816 17.8612L10.2817 17.8613L12.1773 17.2237ZM12.1869 17.9188L10.2756 17.3298L10.274 17.3352L12.1869 17.9188ZM11.9208 18.7912L10.0078 18.2076L10.0078 18.2077L11.9208 18.7912ZM12.0288 20.987L10.1823 21.7554L10.183 21.757L12.0288 20.987ZM13.8918 20.1766L12.0443 20.9427L12.0468 20.9485L13.8918 20.1766ZM13.8542 19.4056L11.9413 18.822L11.9405 18.8245L13.8542 19.4056ZM15.1137 25.4495L13.165 25.9V25.9L15.1137 25.4495ZM13.6036 27.9441L13.1351 25.9997L13.1351 25.9997L13.6036 27.9441ZM12.6706 23.9077L13.1392 25.852L13.1392 25.852L12.6706 23.9077ZM11.1606 26.4022L13.1092 25.9518L11.1606 26.4022ZM12.2319 17.8559C12.2205 17.9047 12.2135 17.93 12.2097 17.9423L16.0311 19.1242C16.0736 18.9868 16.1051 18.8605 16.1284 18.7597L12.2319 17.8559ZM24.9206 16.3078H14.1802V20.3078H24.9206V16.3078ZM25.3824 15.9457C25.3064 16.184 25.1062 16.3078 24.9206 16.3078V20.3078C26.8911 20.3078 28.6021 19.0156 29.1935 17.1606L25.3824 15.9457ZM27.6044 8.98548L25.3827 15.9449L29.1932 17.1614L31.415 10.202L27.6044 8.98548ZM28.4663 10.1256C27.7996 10.1256 27.4414 9.49524 27.6047 8.98454L31.4147 10.2029C32.0408 8.24479 30.6258 6.12563 28.4663 6.12563V10.1256ZM11.2593 10.1256H28.4663V6.12563H11.2593V10.1256ZM8.69924 6.78809L9.36365 8.76328L13.1549 7.48799L12.4905 5.5128L8.69924 6.78809ZM7.6441 6C8.0956 6 8.53318 6.29488 8.69943 6.78864L12.4903 5.51226C11.7906 3.43414 9.85794 2 7.6441 2V6ZM5.01252 6H7.6441V2H5.01252V6ZM6 5.03387C6 5.5278 5.59693 6 5.01252 6V2C3.30951 2 2 3.39776 2 5.03387H6ZM5.01252 4.06774C5.59693 4.06774 6 4.53994 6 5.03387H2C2 6.66998 3.30951 8.06774 5.01252 8.06774V4.06774ZM7.6441 4.06774H5.01252V8.06774H7.6441V4.06774ZM10.575 6.18405C10.1561 4.94164 8.99409 4.06774 7.6441 4.06774V8.06774C7.22949 8.06774 6.89868 7.80037 6.78456 7.46186L10.575 6.18405ZM14.073 16.5862L10.5755 6.18548L6.78408 7.46043L10.2816 17.8612L14.073 16.5862ZM14.0982 18.5078C14.2934 17.8746 14.2812 17.2052 14.0729 16.586L10.2817 17.8613C10.2257 17.695 10.2213 17.5062 10.2756 17.3298L14.0982 18.5078ZM13.8337 19.3748L14.0999 18.5024L10.274 17.3352L10.0078 18.2076L13.8337 19.3748ZM13.8753 20.2185C13.7645 19.9524 13.7496 19.6506 13.8338 19.3748L10.0078 18.2077C9.65224 19.3733 9.71447 20.6312 10.1823 21.7554L13.8753 20.2185ZM14.8995 20.9237C14.4714 20.9237 14.0619 20.6659 13.8746 20.217L10.183 21.757C10.9774 23.6614 12.8204 24.9237 14.8995 24.9237V20.9237ZM26.7277 20.9237H14.8995V24.9237H26.7277V20.9237ZM25.7402 21.8899C25.7402 21.3959 26.1433 20.9237 26.7277 20.9237V24.9237C28.4307 24.9237 29.7402 23.526 29.7402 21.8899H25.7402ZM26.7277 22.856C26.1433 22.856 25.7402 22.3838 25.7402 21.8899H29.7402C29.7402 20.2538 28.4307 18.856 26.7277 18.856V22.856ZM14.8995 22.856H26.7277V18.856H14.8995V22.856ZM12.0468 20.9485C12.5231 22.0869 13.6341 22.856 14.8995 22.856V18.856C15.2855 18.856 15.6058 19.0914 15.7369 19.4047L12.0468 20.9485ZM11.9405 18.8245C11.7289 19.5212 11.7655 20.2701 12.0443 20.9427L15.7393 19.4106C15.8157 19.5947 15.8252 19.7982 15.7679 19.9868L11.9405 18.8245ZM12.2074 17.9496L11.9413 18.822L15.7672 19.9892L16.0333 19.1169L12.2074 17.9496ZM13.165 25.9C13.1725 25.9321 13.1668 25.9588 13.1537 25.9805C13.1472 25.9912 13.1411 25.9965 13.1389 25.9982C13.1379 25.9989 13.1379 25.9991 13.1351 25.9997L14.0722 29.8884C16.2641 29.3602 17.5592 27.1489 17.0623 24.9991L13.165 25.9ZM13.1392 25.852C13.1415 25.8515 13.1414 25.8517 13.1396 25.8518C13.1379 25.8518 13.1361 25.8517 13.1346 25.8514C13.1318 25.8509 13.1332 25.8506 13.1374 25.8533C13.1417 25.856 13.1468 25.8604 13.1513 25.8667C13.1551 25.872 13.1608 25.8816 13.165 25.9L17.0623 24.9991C16.5623 22.8361 14.4091 21.4315 12.2021 21.9634L13.1392 25.852ZM13.1092 25.9518C13.1018 25.9196 13.1075 25.893 13.1206 25.8713C13.1271 25.8606 13.1331 25.8553 13.1354 25.8536C13.1364 25.8529 13.1364 25.8527 13.1392 25.852L12.2021 21.9634C10.0101 22.4916 8.71509 24.7029 9.212 26.8526L13.1092 25.9518ZM13.1351 25.9997C13.1328 26.0003 13.1329 26.0001 13.1347 26C13.1364 26 13.1382 26.0001 13.1396 26.0004C13.1424 26.0008 13.1411 26.0012 13.1368 25.9985C13.1325 25.9958 13.1275 25.9913 13.1229 25.985C13.1192 25.9798 13.1135 25.9701 13.1092 25.9518L9.212 26.8526C9.71197 29.0156 11.8652 30.4203 14.0722 29.8884L13.1351 25.9997ZM25.6195 29.9986C27.8848 29.9986 29.6503 28.1352 29.6503 25.9249H25.6503C25.6503 25.9447 25.6467 25.9576 25.643 25.9667C25.6388 25.9769 25.6328 25.9855 25.6266 25.9918C25.6205 25.9981 25.6165 25.9998 25.617 25.9995C25.6191 25.9986 25.6214 25.9986 25.6195 25.9986V29.9986ZM21.5887 25.9249C21.5887 28.1352 23.3542 29.9986 25.6195 29.9986V25.9986C25.6177 25.9986 25.62 25.9986 25.622 25.9995C25.6226 25.9998 25.6186 25.9981 25.6124 25.9918C25.6062 25.9855 25.6003 25.9769 25.596 25.9667C25.5923 25.9576 25.5887 25.9447 25.5887 25.9249H21.5887ZM25.6195 21.8513C23.3542 21.8513 21.5887 23.7146 21.5887 25.9249H25.5887C25.5887 25.9051 25.5923 25.8922 25.596 25.8831C25.6003 25.8729 25.6062 25.8643 25.6124 25.858C25.6186 25.8517 25.6226 25.8501 25.622 25.8503C25.62 25.8512 25.6177 25.8513 25.6195 25.8513V21.8513ZM29.6503 25.9249C29.6503 23.7146 27.8848 21.8513 25.6195 21.8513V25.8513C25.6214 25.8513 25.6191 25.8512 25.617 25.8503C25.6165 25.8501 25.6205 25.8517 25.6266 25.858C25.6328 25.8643 25.6388 25.8729 25.643 25.8831C25.6467 25.8922 25.6503 25.9051 25.6503 25.9249H29.6503Z" fill="#878A9C" mask="url(#path-1-inside-1_152_360)"/>
</svg>
