<svg width="34" height="33" viewBox="0 0 34 33" fill="none" xmlns="http://www.w3.org/2000/svg">
<g clip-path="url(#clip0_152_408)">
<g clip-path="url(#clip1_152_408)">
<path d="M16.6685 16.6318C18.2645 16.6318 19.7952 15.9978 20.9237 14.8692C22.0523 13.7406 22.6863 12.21 22.6863 10.6139C22.6863 9.01789 22.0523 7.48723 20.9237 6.35866C19.7952 5.23009 18.2645 4.59607 16.6685 4.59607C15.0724 4.59607 13.5418 5.23009 12.4132 6.35866C11.2846 7.48723 10.6506 9.01789 10.6506 10.6139C10.6506 12.21 11.2846 13.7406 12.4132 14.8692C13.5418 15.9978 15.0724 16.6318 16.6685 16.6318ZM14.5199 18.8885C9.88897 18.8885 6.13721 22.6402 6.13721 27.2712C6.13721 28.0422 6.7625 28.6675 7.53354 28.6675H25.8034C26.5744 28.6675 27.1997 28.0422 27.1997 27.2712C27.1997 22.6402 23.448 18.8885 18.817 18.8885H14.5199Z" fill="white"/>
</g>
</g>
<defs>
<clipPath id="clip0_152_408">
<rect width="24" height="24" fill="white" transform="matrix(-1 0 0 1 28.5483 4.59607)"/>
</clipPath>
<clipPath id="clip1_152_408">
<rect width="21.0625" height="24.0714" fill="white" transform="translate(6.13721 4.59607)"/>
</clipPath>
</defs>
</svg>
