<svg width="33" height="33" viewBox="0 0 33 33" fill="none" xmlns="http://www.w3.org/2000/svg">
<g clip-path="url(#clip0_152_383)">
<g clip-path="url(#clip1_152_383)">
<path d="M20.1165 13.9651C19.1755 14.9061 17.8992 15.4348 16.5684 15.4348C15.2375 15.4348 13.9612 14.9061 13.0202 13.9651C12.0792 13.024 11.5505 11.7477 11.5505 10.4169C11.5505 9.08609 12.0792 7.80978 13.0202 6.86875C13.9612 5.92771 15.2375 5.39905 16.5684 5.39905C17.8992 5.39905 19.1755 5.92771 20.1165 6.86875C21.0576 7.80978 21.5862 9.08609 21.5862 10.4169C21.5862 11.7477 21.0576 13.024 20.1165 13.9651ZM7.03711 27.0742C7.03711 22.9955 10.3412 19.6915 14.4198 19.6915H18.7169C22.7956 19.6915 26.0996 22.9955 26.0996 27.0742C26.0996 27.2929 25.922 27.4705 25.7033 27.4705H7.43344C7.21469 27.4705 7.03711 27.2929 7.03711 27.0742Z" stroke="#878A9C" stroke-width="2"/>
</g>
</g>
<defs>
<clipPath id="clip0_152_383">
<rect width="24" height="24" fill="white" transform="matrix(-1 0 0 1 28.4482 4.39905)"/>
</clipPath>
<clipPath id="clip1_152_383">
<rect width="21.0625" height="24.0714" fill="white" transform="translate(6.03711 4.39905)"/>
</clipPath>
</defs>
</svg>
