<svg width="25" height="14" viewBox="0 0 25 14" fill="none" xmlns="http://www.w3.org/2000/svg">
<path d="M0.5057 12.2971C0.232705 12.5701 0.232705 13.0127 0.5057 13.2857C0.778694 13.5587 1.22131 13.5587 1.4943 13.2857L0.5057 12.2971ZM24.7676 0.208557L16.9707 2.29772L22.6784 8.00541L24.7676 0.208557ZM1.4943 13.2857L7.90566 6.87434L6.91706 5.88573L0.5057 12.2971L1.4943 13.2857ZM10.8715 6.87434L12.5094 8.51231L13.498 7.52371L11.8601 5.88574L10.8715 6.87434ZM17.4524 8.51231L20.8132 5.15156L19.8246 4.16296L16.4638 7.5237L17.4524 8.51231ZM12.5094 8.51231C13.8744 9.87728 16.0875 9.87728 17.4524 8.51231L16.4638 7.5237C15.6448 8.34269 14.317 8.34269 13.498 7.52371L12.5094 8.51231ZM7.90566 6.87434C8.72464 6.05535 10.0525 6.05535 10.8715 6.87434L11.8601 5.88574C10.4951 4.52076 8.28203 4.52076 6.91706 5.88573L7.90566 6.87434Z" fill="#37B8FE"/>
</svg>
