<svg width="20" height="20" viewBox="0 0 20 20" fill="none" xmlns="http://www.w3.org/2000/svg">
<path d="M19.403 0.721886C18.8652 0.184098 17.9962 0.184098 17.4584 0.721886L16.8751 1.30525C14.2074 -0.463071 10.5735 -0.171389 8.22185 2.18029L7.65064 2.7515C6.22262 4.17953 4.31757 5.0333 2.30011 5.15484L1.82309 5.18218C1.28226 5.21257 0.811317 5.56198 0.616863 6.06634C0.422408 6.57071 0.546981 7.14496 0.929813 7.52779L12.5971 19.1951C12.9799 19.5779 13.5511 19.6994 14.0585 19.508C14.5659 19.3166 14.9123 18.8426 14.9427 18.3018L14.97 17.8248C15.0916 15.8073 15.9423 13.9053 17.3734 12.4742L17.9446 11.903C20.2963 9.55133 20.5879 5.91746 18.8196 3.24979L19.403 2.66643C19.9408 2.12864 19.9408 1.25967 19.403 0.721886ZM5.79117 17.0864C6.52038 17.0864 7.2192 16.7948 7.73572 16.2782L5.79117 14.3337L3.84663 12.3891C3.33011 12.9057 3.03843 13.6045 3.03843 14.3337C3.03843 15.0629 3.33011 15.7617 3.84663 16.2782C4.36315 16.7948 5.06197 17.0864 5.79117 17.0864Z" fill="#FFB800"/>
</svg>
