<svg width="36" height="29" viewBox="0 0 36 29" fill="none" xmlns="http://www.w3.org/2000/svg">
<g clip-path="url(#clip0_67_4372)">
<path d="M34.8057 14.1314H25.7869C23.8485 14.1314 22.2749 15.6885 22.2749 17.6111C22.2749 19.5316 23.8465 21.0907 25.7869 21.0907H34.8057C35.4664 21.0907 36 20.56 36 19.9054V15.3147C36 14.6601 35.4643 14.1293 34.8057 14.1293V14.1314ZM25.6827 19.5295C24.6135 19.5295 23.7464 18.6705 23.7464 17.6111C23.7464 16.5517 24.6135 15.6926 25.6827 15.6926C26.752 15.6926 27.619 16.5517 27.619 17.6111C27.619 18.6705 26.752 19.5295 25.6827 19.5295Z" fill="white"/>
<path fill-rule="evenodd" clip-rule="evenodd" d="M33.4196 12.7331H25.7432C23.0232 12.7331 20.8201 14.918 20.8201 17.6109C20.8201 20.3058 23.0252 22.4886 25.7432 22.4886H33.4196V25.6957C33.4196 27.5212 31.9273 28.9998 30.0848 28.9998H3.33488C1.49236 28.9998 0 27.5212 0 25.6957V2.32096V2.08348C0 0.933226 0.942103 -0.000193215 2.10306 -0.0022583H29.2427C30.4037 -0.0022583 31.3458 0.931161 31.3458 2.08141C31.3458 3.23167 30.4037 4.16509 29.2427 4.16509H8.06207C7.48888 4.16509 7.02409 4.6256 7.02409 5.1935C7.02409 5.7614 7.48888 6.22191 8.06207 6.22191H30.0848C31.9273 6.22191 33.4196 7.70051 33.4196 9.52605V12.7331ZM15.6324 17.037C15.3802 17.3798 15.3802 17.8424 15.6324 18.1852H15.6303C15.9447 18.6125 16.3916 19.2203 16.8704 19.8712C18.0296 21.4475 19.375 23.2768 19.4738 23.4098H18.9069C18.7214 23.4098 18.54 23.3561 18.3858 23.257C17.377 22.5996 13.3845 19.9987 11.3606 18.6802L10.5405 18.1459C10.3008 17.9869 10.0152 17.9043 9.72552 17.9043H8.48328C8.21858 17.9043 7.96846 18.0117 7.78713 18.1976L3.01408 23.1249C2.839 23.3087 2.59306 23.4119 2.3346 23.4119H1.91357C1.93442 23.383 4.88162 19.3767 5.75702 18.1872C6.00922 17.8444 6.00922 17.3819 5.75702 17.039C5.4424 16.6113 4.9949 16.0028 4.51569 15.3512C3.35676 13.7754 2.01237 11.9473 1.91357 11.8144H2.4805C2.66601 11.8144 2.84526 11.8681 2.99949 11.9672C4.00509 12.6226 7.9757 15.2092 10.0056 16.5316L10.8448 17.0783C11.0845 17.2373 11.37 17.3199 11.6598 17.3199H12.902C13.1667 17.3199 13.4189 17.2125 13.6002 17.0267C14.5257 16.0705 17.4562 13.0452 18.3733 12.0994C18.5484 11.9156 18.7943 11.8123 19.0528 11.8123H19.4759C19.3362 12.0023 16.71 15.5749 15.6324 17.037Z" fill="white"/>
</g>
<defs>
<clipPath id="clip0_67_4372">
<rect width="36" height="29" fill="white"/>
</clipPath>
</defs>
</svg>
