<svg width="121" height="121" viewBox="0 0 121 121" fill="none" xmlns="http://www.w3.org/2000/svg">
<g filter="url(#filter0_di_257_2404)">
<path d="M60.5 115C91.7041 115 117 89.7041 117 58.5C117 27.2959 91.7041 2 60.5 2C29.2959 2 4 27.2959 4 58.5C4 89.7041 29.2959 115 60.5 115Z" fill="#FDFDFD"/>
<path d="M116.479 58.5C116.479 89.4162 91.4162 114.479 60.5 114.479C29.5838 114.479 4.52134 89.4162 4.52134 58.5C4.52134 27.5838 29.5838 2.52134 60.5 2.52134C91.4162 2.52134 116.479 27.5838 116.479 58.5Z" stroke="white" stroke-width="1.04268"/>
</g>
<path d="M92.3679 46.1477C90.625 42.028 88.1295 38.3309 84.9539 35.1553C81.7783 31.9798 78.0812 29.4842 73.9615 27.7413C69.6966 25.9389 65.1677 25.0212 60.5 25.0212C55.8324 25.0212 51.3034 25.9389 47.0385 27.7413C42.9189 29.4842 39.2218 31.9798 36.0462 35.1553C32.8706 38.3309 30.3751 42.028 28.6321 46.1477C26.8298 50.4126 25.9121 54.9415 25.9121 59.6092C25.9121 64.2768 26.8298 68.8058 28.6321 73.0707C30.3751 77.1903 32.8706 80.8875 36.0462 84.063C39.2218 87.2386 42.9189 89.7341 47.0385 91.4771C51.3034 93.2794 55.8324 94.1971 60.5 94.1971C65.1677 94.1971 69.6966 93.2794 73.9615 91.4771C78.0812 89.7341 81.7783 87.2386 84.9539 84.063C88.1295 80.8875 90.625 77.1903 92.3679 73.0707C94.1703 68.8058 95.088 64.2768 95.088 59.6092C95.088 54.9415 94.1703 50.4126 92.3679 46.1477ZM76.2788 69.0897V76.6159C76.2788 76.913 76.0346 77.1573 75.7375 77.1573H64.9234C64.6263 77.1573 64.382 76.913 64.382 76.6159V66.1716C64.382 65.8745 64.1377 65.6302 63.8407 65.6302H57.133C56.8359 65.6302 56.5917 65.8745 56.5917 66.1716V76.6159C56.5917 76.913 56.3474 77.1573 56.0503 77.1573H45.2362C44.9391 77.1573 44.6948 76.913 44.6948 76.6159V61.2861C44.6948 61.121 44.7741 60.9626 44.8995 60.8636L59.6418 49.2902C60.1303 48.9073 60.8169 48.9073 61.3055 49.2902L76.0478 60.8636C76.1798 60.9626 76.2524 61.121 76.2524 61.2861V69.0897H76.2788ZM80.9465 60.1505C80.5503 60.6589 79.9562 60.923 79.3554 60.923C78.9196 60.923 78.4773 60.7843 78.1076 60.4938L61.3187 47.3096C60.8301 46.9267 60.1435 46.9267 59.655 47.3096L42.8661 60.4938C41.9748 61.1937 40.6742 61.022 39.9942 60.1043C39.3406 59.213 39.5717 57.9455 40.4365 57.2655L59.2391 42.5034C59.9719 41.929 61.0018 41.929 61.7346 42.5034L68.2442 47.6133V45.2762C68.2442 44.9791 68.4885 44.7348 68.7856 44.7348H72.892C73.1891 44.7348 73.4334 44.9791 73.4334 45.2762V51.6802L80.6098 57.3117C81.4878 57.9983 81.6397 59.2725 80.9531 60.1505H80.9465Z" fill="#C4C8D9"/>
<defs>
<filter id="filter0_di_257_2404" x="0.871951" y="0.957317" width="119.256" height="119.256" filterUnits="userSpaceOnUse" color-interpolation-filters="sRGB">
<feFlood flood-opacity="0" result="BackgroundImageFix"/>
<feColorMatrix in="SourceAlpha" type="matrix" values="0 0 0 0 0 0 0 0 0 0 0 0 0 0 0 0 0 0 127 0" result="hardAlpha"/>
<feOffset dy="2.08537"/>
<feGaussianBlur stdDeviation="1.56402"/>
<feComposite in2="hardAlpha" operator="out"/>
<feColorMatrix type="matrix" values="0 0 0 0 0 0 0 0 0 0 0 0 0 0 0 0 0 0 0.1 0"/>
<feBlend mode="normal" in2="BackgroundImageFix" result="effect1_dropShadow_257_2404"/>
<feBlend mode="normal" in="SourceGraphic" in2="effect1_dropShadow_257_2404" result="shape"/>
<feColorMatrix in="SourceAlpha" type="matrix" values="0 0 0 0 0 0 0 0 0 0 0 0 0 0 0 0 0 0 127 0" result="hardAlpha"/>
<feOffset dy="3.12805"/>
<feGaussianBlur stdDeviation="2.08537"/>
<feComposite in2="hardAlpha" operator="arithmetic" k2="-1" k3="1"/>
<feColorMatrix type="matrix" values="0 0 0 0 0.783333 0 0 0 0 0.783333 0 0 0 0 0.783333 0 0 0 0.25 0"/>
<feBlend mode="normal" in2="shape" result="effect2_innerShadow_257_2404"/>
</filter>
</defs>
</svg>
