<svg width="24" height="24" viewBox="0 0 24 24" fill="none" xmlns="http://www.w3.org/2000/svg">
<path fill-rule="evenodd" clip-rule="evenodd" d="M13 1C13 0.447715 12.5523 0 12 0C11.4477 0 11 0.447715 11 1V3.05493C6.82838 3.51608 3.51608 6.82838 3.05493 11H1C0.447715 11 0 11.4477 0 12C0 12.5523 0.447715 13 1 13H3.05493C3.51608 17.1716 6.82838 20.4839 11 20.9451V23C11 23.5523 11.4477 24 12 24C12.5523 24 13 23.5523 13 23V20.9451C17.1716 20.4839 20.4839 17.1716 20.9451 13H23C23.5523 13 24 12.5523 24 12C24 11.4477 23.5523 11 23 11H20.9451C20.4839 6.82838 17.1716 3.51608 13 3.05493V1ZM19 12C19 15.866 15.866 19 12 19C8.13401 19 5 15.866 5 12C5 8.13401 8.13401 5 12 5C15.866 5 19 8.13401 19 12ZM12 15C13.6569 15 15 13.6569 15 12C15 10.3431 13.6569 9 12 9C10.3431 9 9 10.3431 9 12C9 13.6569 10.3431 15 12 15Z" fill="#707386"/>
</svg>
