<svg width="35" height="28" viewBox="0 0 35 28" fill="none" xmlns="http://www.w3.org/2000/svg">
<g clip-path="url(#clip0_65_4352)">
<path d="M12.8981 22.2617H20.8926C21.1037 22.2617 21.2749 22.4328 21.2749 22.6439V23.6189C21.2749 26.0366 19.3122 27.9992 16.8945 27.9992C14.4768 27.9992 12.5142 26.0366 12.5142 23.6189V22.6439C12.5142 22.4328 12.6853 22.2617 12.8965 22.2617H12.8981Z" fill="white"/>
<path d="M31.9063 11.8494C31.2305 11.8166 30.5506 11.8214 29.8812 11.7414C29.2678 11.6679 28.8831 11.1592 28.8727 10.5418C28.8631 9.95154 29.2694 9.4133 29.8388 9.28693C30.0444 9.24135 30.2587 9.21655 30.4691 9.21495C31.4664 9.20776 32.4645 9.19976 33.4618 9.21655C33.9649 9.22455 34.4495 9.33572 34.7295 9.82038C35.2821 10.7777 34.6927 11.7734 33.5442 11.815C32.9995 11.835 32.4541 11.8182 31.9087 11.8182C31.9087 11.8286 31.9079 11.839 31.9071 11.8494H31.9063Z" fill="white"/>
<path d="M3.01914 11.8478C2.35693 11.8166 1.68992 11.8246 1.03411 11.7438C0.405489 11.667 -0.00159485 11.1328 4.69674e-06 10.517C0.00160424 9.90355 0.410287 9.3677 1.03251 9.28773C1.60835 9.21335 2.19618 9.22454 2.77921 9.21415C3.39104 9.20295 4.00286 9.20295 4.61389 9.21415C5.49364 9.23094 6.07587 9.76119 6.07027 10.5218C6.06387 11.2952 5.49923 11.803 4.61629 11.8174C4.08444 11.8262 3.55259 11.819 3.02074 11.819C3.02074 11.8286 3.01994 11.839 3.01914 11.8486V11.8478Z" fill="white"/>
<path d="M29.2774 4.86502C28.7895 4.80663 28.2969 4.46833 28.1057 4.01646C27.8858 3.49901 27.945 3.03114 28.3577 2.67204C28.7464 2.33454 29.1782 2.04422 29.6077 1.7571C30.2027 1.35882 30.7954 0.951735 31.4208 0.606234C31.9646 0.30552 32.5909 0.51506 32.9603 1.04131C33.2986 1.52197 33.2683 2.15059 32.8748 2.58167C32.75 2.71763 32.6108 2.84639 32.4589 2.94956C31.6783 3.47821 30.8985 4.00926 30.1028 4.51392C29.854 4.67147 29.5541 4.74985 29.2782 4.86422L29.2774 4.86502Z" fill="white"/>
<path d="M1.75068 19.2609C1.74188 18.7267 2.0354 18.3963 2.4009 18.1412C3.20547 17.5798 4.01963 17.0311 4.8498 16.5081C5.80952 15.9043 6.9444 16.4337 6.9316 17.4934C6.9276 17.8021 6.77325 18.2244 6.54131 18.3955C5.57359 19.1113 4.56268 19.7712 3.54297 20.4134C2.7512 20.9124 1.71549 20.0983 1.75148 19.2601L1.75068 19.2609Z" fill="white"/>
<path d="M5.63855 4.83144C5.40262 4.74826 5.14109 4.70587 4.93555 4.57391C4.0614 4.01327 3.18885 3.44783 2.34669 2.8416C1.90362 2.5233 1.65969 2.06583 1.80445 1.48119C1.93721 0.945347 2.29391 0.590248 2.81456 0.539063C3.15526 0.505473 3.56314 0.613442 3.86226 0.790991C4.70602 1.29325 5.51619 1.85389 6.32635 2.41053C6.84141 2.76483 7.04375 3.37585 6.867 3.9165C6.70065 4.42515 6.18879 4.79305 5.63935 4.83064L5.63855 4.83144Z" fill="white"/>
<path d="M29.4205 16.241C29.5605 16.297 29.8516 16.3665 30.0915 16.5177C30.8897 17.0223 31.6766 17.5462 32.4532 18.0836C33.2978 18.6675 33.4249 19.5648 32.7731 20.1822C32.3285 20.6037 31.7438 20.6709 31.1576 20.303C30.2906 19.7584 29.4389 19.1889 28.5975 18.6059C28.0833 18.2492 27.8969 17.6326 28.0857 17.0943C28.2584 16.6025 28.7583 16.2426 29.4213 16.241H29.4205Z" fill="white"/>
<path d="M16.895 0C11.5749 0 7.26172 4.31317 7.26172 9.63325C7.26172 12.0078 8.12147 14.1807 9.54507 15.8603C9.54507 15.8603 11.5157 18.4075 12.4274 20.6941C12.4994 20.874 12.673 20.9924 12.8665 20.9924H16.9238H20.9234C21.117 20.9924 21.2905 20.874 21.3625 20.6941C22.2742 18.4067 24.2449 15.8611 24.2449 15.8611C25.6693 14.1807 26.5282 12.0078 26.5282 9.63325C26.5282 4.31317 22.215 0 16.895 0ZM16.2791 4.44353C15.8913 4.5339 15.4922 4.57789 15.1003 4.65227C13.2568 5.00337 11.9804 6.34219 11.71 8.20326C11.6701 8.47678 11.6453 8.7527 11.5957 9.02462C11.5069 9.51568 11.2046 9.77801 10.7399 9.786C10.3144 9.7932 10.0105 9.51888 9.91136 9.03342C9.88897 8.92305 9.87697 8.81108 9.87057 8.76949C9.91776 5.81354 12.2387 3.21348 15.1267 2.82959C15.489 2.78161 15.8649 2.78001 16.2288 2.81759C16.643 2.85998 16.8774 3.1615 16.8942 3.57338C16.9134 4.02685 16.7054 4.34436 16.2791 4.44353Z" fill="white"/>
</g>
<defs>
<clipPath id="clip0_65_4352">
<rect width="34.938" height="28" fill="white"/>
</clipPath>
</defs>
</svg>
