<svg width="32" height="32" viewBox="0 0 32 32" fill="none" xmlns="http://www.w3.org/2000/svg">
<g clip-path="url(#clip0_47_81)">
<path fill-rule="evenodd" clip-rule="evenodd" d="M15.7698 8.83425L16.1666 8.83401H16.1673L16.617 8.83377C17.0669 8.83342 17.517 8.83306 17.9672 8.83589C18.0566 8.83652 18.1103 8.81015 18.1629 8.73481L18.3377 8.48337C18.713 7.94347 19.0883 7.40356 19.4757 6.87258C19.8959 6.29621 20.2128 5.6784 20.3322 4.96766C20.4229 4.4277 20.4148 3.88524 20.3029 3.35344C20.1691 2.71742 19.9115 2.12661 19.4914 1.62307C18.3804 0.292636 16.9738 -0.239159 15.2689 0.100512C14.2811 0.297031 13.4896 0.831338 12.8738 1.62432C12.4543 2.16365 12.1992 2.7777 12.0536 3.44887C11.8285 4.48358 11.9717 5.46053 12.5287 6.34518C12.9139 6.9566 13.3355 7.54484 13.7571 8.13301L13.7571 8.13303C13.9035 8.33729 14.0499 8.54153 14.1948 8.74673C14.2292 8.79571 14.318 8.82961 14.3817 8.83024C14.844 8.83512 15.3067 8.83469 15.7695 8.83425H15.7695H15.7695H15.7695H15.7698ZM16.1735 6.87823C14.7837 6.87949 13.6372 5.71732 13.6815 4.35676C13.649 2.99179 14.7762 1.84533 16.1698 1.84784C17.5633 1.85035 18.6799 2.92085 18.6824 4.36115C18.6849 5.8272 17.5183 6.87635 16.1735 6.87823ZM0.00477398 19.6556L0.00477976 19.6557H0.00352939L0.00477398 19.6556ZM0.00477398 19.6556C-0.00584858 19.4447 -0.00645655 19.2689 0.0873039 19.0856C0.488711 18.3002 0.884477 17.5121 1.28029 16.7239L1.28049 16.7235C1.51649 16.2535 1.7525 15.7835 1.98974 15.3141C2.448 14.4087 2.91001 13.5052 3.37577 12.6036C3.5033 12.3569 3.75338 12.2928 3.99845 12.2413C4.44725 12.1468 4.89695 12.0573 5.34679 11.9677L5.34699 11.9677L5.58391 11.9205C5.89975 11.8577 6.21558 11.7952 6.53138 11.7327L6.53217 11.7326L6.53288 11.7324L6.53358 11.7323L6.53428 11.7321L6.53498 11.732L6.53568 11.7319C7.10238 11.6197 7.66897 11.5076 8.23532 11.3937C8.50032 11.3404 8.76475 11.2845 9.02916 11.2286L9.02935 11.2286L9.02954 11.2285C9.32204 11.1667 9.61452 11.1049 9.90768 11.0465C10.2954 10.9691 10.6835 10.8944 11.0715 10.8197L11.0716 10.8196L11.0717 10.8196L11.0719 10.8196L11.072 10.8196L11.0721 10.8195L11.0723 10.8195L11.0724 10.8195C11.3793 10.7604 11.6861 10.7013 11.9927 10.6409C12.1777 10.6047 12.3622 10.5661 12.5467 10.5275C12.7012 10.4951 12.8557 10.4628 13.0105 10.4318C13.4129 10.3513 13.8155 10.2716 14.218 10.1919L14.2195 10.1916C14.5257 10.1309 14.8319 10.0703 15.138 10.0093C15.2986 9.97712 15.459 9.94404 15.6277 9.90921L15.8582 9.86176C15.8522 9.88263 15.8473 9.90272 15.8425 9.92208L15.8425 9.92209L15.8425 9.92211C15.8333 9.95979 15.8247 9.99475 15.8107 10.0275C15.4406 10.8902 15.0698 11.7522 14.6972 12.6137L14.6969 12.6144L14.6968 12.6146L14.6967 12.6148C14.2392 13.6718 13.7818 14.7287 13.3193 15.7837C13.0361 16.4304 12.7516 17.0765 12.4534 17.7162C12.2484 18.1558 11.8964 18.3987 11.4081 18.449C11.1304 18.4773 10.8533 18.5126 10.5762 18.5479L10.5759 18.548C10.3747 18.5736 10.1735 18.5993 9.97207 18.6222C9.64978 18.6587 9.32721 18.6916 9.00456 18.7246C8.83214 18.7422 8.6597 18.7598 8.48726 18.778C8.27411 18.8007 8.06106 18.8238 7.84803 18.8469C7.53121 18.8813 7.21443 18.9157 6.89742 18.9487C6.69377 18.9697 6.48999 18.9892 6.28625 19.0087C6.04405 19.0318 5.80192 19.055 5.56016 19.0806C5.2925 19.1086 5.02517 19.1389 4.75783 19.1692C4.51064 19.1971 4.26344 19.2251 4.01595 19.2514C3.78822 19.2753 3.56014 19.2974 3.33208 19.3195C3.12439 19.3397 2.91672 19.3598 2.70932 19.3813C2.45899 19.4074 2.20894 19.4348 1.95891 19.4623L1.95816 19.4624C1.68392 19.4925 1.40968 19.5226 1.13511 19.5508C0.88267 19.5769 0.629941 19.5994 0.372013 19.6225L0.370836 19.6226L0.364562 19.6231L0.362791 19.6233C0.24471 19.6338 0.125527 19.6445 0.00477398 19.6556ZM15.9305 29.6097C16.0288 29.5923 16.122 29.5761 16.2122 29.5604L16.2146 29.56L16.2148 29.5599L16.216 29.5597C16.3494 29.5365 16.4761 29.5144 16.6026 29.4917L16.9167 29.435L16.9169 29.435L16.9172 29.4349L16.9175 29.4349L16.9178 29.4348L16.918 29.4348L16.9183 29.4347C17.3934 29.349 17.8687 29.2632 18.3431 29.1753C18.5767 29.1322 18.8103 29.088 19.0438 29.0438L19.044 29.0437L19.0443 29.0437L19.0446 29.0436L19.0449 29.0436L19.0452 29.0435L19.0455 29.0435C19.3081 28.9937 19.5707 28.944 19.8335 28.8959C20.1268 28.8422 20.4205 28.7899 20.7142 28.7377C20.9664 28.6928 21.2187 28.6479 21.4709 28.6021C21.6562 28.5682 21.8412 28.5328 22.0263 28.4975L22.027 28.4974C22.2118 28.4621 22.3967 28.4268 22.5818 28.393C22.8218 28.3487 23.0619 28.3052 23.3021 28.2617L23.3029 28.2615L23.3038 28.2614L23.3047 28.2612L23.3056 28.2611L23.3064 28.2609L23.3073 28.2607C23.6165 28.2047 23.9258 28.1488 24.2348 28.091C24.4761 28.046 24.7168 27.9992 24.9574 27.9524L24.9579 27.9523L24.9584 27.9522L24.9589 27.9521L24.9594 27.952L24.9599 27.9519L24.9604 27.9518L24.9608 27.9517L24.9612 27.9517L24.9616 27.9516L24.962 27.9515L24.9624 27.9514C25.1134 27.922 25.2645 27.8926 25.4158 27.8637C25.4506 27.857 25.4853 27.8497 25.5201 27.8423C25.6167 27.8219 25.7135 27.8014 25.8109 27.7959C25.9241 27.789 25.9422 27.7312 25.9422 27.6408C25.9427 27.464 25.9436 27.2873 25.9445 27.1106C25.9458 26.8455 25.9472 26.5806 25.9472 26.3154C25.9472 24.6685 25.9472 23.021 25.9459 21.3742C25.9459 21.3574 25.9432 21.34 25.9405 21.3228C25.9358 21.2936 25.9313 21.2649 25.9403 21.2404C25.9547 21.2015 26.0022 21.1444 26.031 21.1462C26.4315 21.1785 26.8316 21.2132 27.2318 21.2478L27.2318 21.2478L27.2319 21.2479L27.232 21.2479L27.232 21.2479L27.2321 21.2479L27.2321 21.2479C27.5714 21.2773 27.9108 21.3067 28.2504 21.3346C28.3517 21.3428 28.3579 21.393 28.3579 21.4721C28.3573 22.0934 28.3573 22.7146 28.3573 23.3358C28.3573 24.5778 28.3573 25.8197 28.3523 27.0619C28.3503 27.5429 28.3314 28.0239 28.3124 28.5048C28.3072 28.636 28.3021 28.7672 28.2973 28.8984C28.2879 29.1516 28.1133 29.3016 27.9424 29.4485L27.9096 29.4767C27.5227 29.8119 27.0438 29.9187 26.5611 30.0198C26.2628 30.0822 25.9654 30.1498 25.668 30.2174L25.6677 30.2175L25.6674 30.2175L25.6671 30.2176C25.4383 30.2696 25.2094 30.3217 24.98 30.3714C23.9835 30.5861 22.9863 30.7989 21.9892 31.0086L21.8703 31.0336L21.8698 31.0337C21.3138 31.1503 20.7576 31.2671 20.1986 31.369C19.4184 31.5109 18.6363 31.6415 17.8529 31.7671L17.7904 31.7771L17.7903 31.7771H17.7902H17.7902H17.7902H17.7902H17.7902C17.2814 31.8586 16.7709 31.9404 16.2587 31.9868C15.9436 32.0157 15.6179 31.9994 15.3041 31.9542C14.7056 31.868 14.1106 31.7596 13.5155 31.6511L13.5154 31.6511L13.311 31.6139C13.1241 31.5798 12.9381 31.5393 12.7522 31.4988L12.7521 31.4987L12.7519 31.4987C12.5989 31.4654 12.446 31.432 12.2926 31.4023C12.052 31.3555 11.811 31.3116 11.57 31.2677L11.5695 31.2676L11.5691 31.2675C11.3281 31.2236 11.0871 31.1797 10.8465 31.1329C10.4825 31.0626 10.1194 30.9867 9.75645 30.9109L9.58115 30.8743C9.38452 30.8334 9.18781 30.7929 8.99109 30.7523L8.9906 30.7522L8.99011 30.7521L8.98963 30.752L8.98917 30.7519L8.98873 30.7518C8.40566 30.6315 7.8225 30.5112 7.24109 30.3845L6.92743 30.3165C6.27275 30.1749 5.61795 30.0332 4.97105 29.8622C4.50278 29.7385 4.12768 29.439 3.85322 29.0353C3.78507 28.9348 3.75006 28.7942 3.74506 28.6705L3.7311 28.3374C3.70126 27.6308 3.67141 26.9238 3.66817 26.2168C3.66327 25.1414 3.67009 24.0657 3.67691 22.9901L3.67691 22.9899C3.67967 22.5541 3.68244 22.1182 3.68442 21.6824V21.3553C3.8232 21.3402 3.96061 21.3254 4.097 21.3107L4.09752 21.3107L4.09836 21.3106L4.09917 21.3105L4.09988 21.3104L4.10044 21.3104C4.46727 21.2709 4.82671 21.2322 5.18548 21.1902C5.40338 21.1646 5.62084 21.1364 5.83829 21.1083L5.83861 21.1083C6.07963 21.0771 6.32063 21.0459 6.56214 21.0182C6.91091 20.978 7.26054 20.9444 7.60997 20.9108L7.61015 20.9108L7.61036 20.9107L7.61059 20.9107L7.82438 20.8901C7.92059 20.8807 8.0168 20.8711 8.11303 20.8615L8.11481 20.8614L8.1166 20.8612L8.1184 20.861C8.4712 20.8258 8.82417 20.7907 9.17791 20.7651C9.42536 20.7474 9.67312 20.7352 9.92089 20.723H9.92093C10.1821 20.7101 10.4432 20.6972 10.704 20.6779C11.6943 20.6044 12.6358 20.3771 13.4385 19.7474C13.9993 19.3073 14.3701 18.7296 14.6157 18.066C14.944 17.1788 15.2909 16.3011 15.9305 15.542V29.6097ZM16.1558 9.88184L16.3 9.91058C16.4258 9.93566 16.5373 9.95787 16.649 9.98041L18.5858 10.3722L19.4004 10.5367L19.4022 10.5371L19.404 10.5375C20.1264 10.6834 20.8486 10.8294 21.5711 10.9743C21.7002 11.0003 21.8292 11.0267 21.9583 11.0532L21.9584 11.0532L21.9584 11.0532L21.9584 11.0532L21.9585 11.0532L21.9585 11.0532C22.3288 11.1292 22.6993 11.2052 23.0715 11.2694C23.7805 11.3912 24.492 11.5005 25.2034 11.6078C25.978 11.7246 26.7489 11.8508 27.4716 12.1798C28.5694 12.6796 29.2971 13.5209 29.7998 14.6052C30.2043 15.4776 30.6216 16.3438 31.0389 17.2102L31.039 17.2103L31.0391 17.2105L31.0391 17.2107L31.0392 17.2108L31.0393 17.211C31.3307 17.8159 31.6221 18.4208 31.9091 19.0278C31.9616 19.1391 31.9752 19.2698 31.9886 19.3982C31.9923 19.4335 31.996 19.4686 32.0004 19.5031C32.0029 19.5245 31.931 19.5797 31.896 19.5772C31.4234 19.5464 30.9507 19.5125 30.4787 19.4711C30.176 19.4444 29.8739 19.4139 29.5717 19.3834C29.3833 19.3644 29.1949 19.3454 29.0064 19.3273C28.8603 19.3133 28.7142 19.3002 28.568 19.2871L28.5675 19.287C28.3668 19.269 28.1662 19.251 27.9655 19.2306C27.7426 19.208 27.5198 19.184 27.297 19.16C27.074 19.136 26.8511 19.112 26.6282 19.0894C26.4445 19.0707 26.2608 19.0537 26.0771 19.0367C25.9138 19.0215 25.7506 19.0064 25.5873 18.9902C25.3277 18.9639 25.0682 18.9364 24.8087 18.9089L24.8075 18.9088C24.6517 18.8923 24.4958 18.8758 24.34 18.8596C24.2139 18.8463 24.0876 18.8334 23.9613 18.8205C23.736 18.7974 23.5105 18.7744 23.2854 18.7491C23.0193 18.719 22.7535 18.6868 22.4877 18.6545C22.3039 18.6322 22.12 18.6099 21.9362 18.5883L21.8157 18.5741L21.8156 18.5741L21.8154 18.5741L21.8153 18.5741L21.8151 18.5741L21.8149 18.574C21.5296 18.5404 21.2442 18.5067 20.9578 18.4797C20.5589 18.442 20.1994 18.3058 19.8712 18.0754C19.6799 17.9411 19.5916 17.7403 19.503 17.5391L19.4917 17.5134L19.4915 17.5128L19.4913 17.5125C19.0126 16.4317 18.5338 15.3508 18.0588 14.268C17.7702 13.6098 17.4849 12.9502 17.1996 12.2904L17.0154 11.8646C16.8533 11.4901 16.6916 11.1153 16.53 10.7405L16.529 10.7382L16.2427 10.0746C16.2273 10.0393 16.2114 10.0043 16.1875 9.95198L16.1872 9.95148L16.1872 9.95138L16.1558 9.88246V9.88184ZM21.7344 4.27756C22.9041 2.86174 24.9822 2.54844 26.5177 3.63024C28.1037 4.74782 28.5439 6.89698 27.4479 8.55703C26.4258 10.1047 24.422 10.5555 22.9391 9.7914C22.9562 9.76426 22.9732 9.73712 22.9901 9.71004L22.9901 9.70998L22.9901 9.70991C23.033 9.64122 23.0756 9.57298 23.1204 9.50635C23.2248 9.35173 23.3295 9.19731 23.4342 9.0429L23.4343 9.04275L23.4345 9.04244L23.4347 9.04229C23.644 8.73355 23.8534 8.42481 24.0601 8.1144C24.1082 8.04219 24.1563 8.01268 24.242 8.02022C24.6446 8.05412 25.0291 8.0064 25.3579 7.74333C25.8231 7.37101 26.0313 6.87877 25.9156 6.29738C25.7943 5.68773 25.4042 5.28213 24.7965 5.13835C24.3364 5.0291 23.9056 5.14212 23.5355 5.44537C23.4749 5.49497 23.433 5.50753 23.3674 5.46044C23.0583 5.23932 22.7485 5.01888 22.4388 4.79844C22.2323 4.65146 22.0257 4.50448 21.8194 4.3573C21.7975 4.34146 21.7781 4.32162 21.7589 4.30209C21.7507 4.29375 21.7426 4.28545 21.7344 4.27756ZM21.6695 4.90088L21.4167 4.72272V4.72335C20.4145 6.39407 20.9672 8.57023 22.4664 9.5208C22.4697 9.51765 22.4733 9.51462 22.4769 9.51158C22.4848 9.50493 22.4927 9.49822 22.4983 9.49004L22.7974 9.04609C23.0593 8.65711 23.3213 8.26817 23.5848 7.88021C23.6392 7.80047 23.623 7.75652 23.553 7.69311C23.0528 7.24294 22.9084 6.69293 23.121 6.05377C23.1535 5.95583 23.1103 5.92004 23.0434 5.87358C22.8964 5.77114 22.7505 5.66695 22.6047 5.56274L22.6046 5.56269L22.6043 5.56248L22.6043 5.56243C22.5196 5.50196 22.435 5.44148 22.3501 5.38134C22.1258 5.22245 21.9008 5.0639 21.6725 4.903L21.67 4.90125L21.6695 4.90088ZM18 25.8081V22.2958C18 21.7664 18.4127 21.3287 18.9413 21.2976L22.9413 21.0623C23.5157 21.0285 24 21.4852 24 22.0606V25.1022C24 25.5874 23.6516 26.0027 23.1738 26.087L19.1738 26.7929C18.5614 26.9009 18 26.4299 18 25.8081ZM7 7.5C8.38071 7.5 9.5 6.38071 9.5 5C9.5 3.61929 8.38071 2.5 7 2.5C5.61929 2.5 4.5 3.61929 4.5 5C4.5 6.38071 5.61929 7.5 7 7.5ZM7 9C7.83356 9 8.60757 8.74503 9.24829 8.30883L10.4698 9.53032C10.7627 9.82321 11.2375 9.82321 11.5304 9.53032C11.8233 9.23743 11.8233 8.76255 11.5304 8.46966L10.3089 7.24814C10.7451 6.60745 11 5.8335 11 5C11 2.79086 9.20914 1 7 1C4.79086 1 3 2.79086 3 5C3 7.20914 4.79086 9 7 9Z" fill="white"/>
</g>
<defs>
<clipPath id="clip0_47_81">
<rect width="32" height="32" fill="white"/>
</clipPath>
</defs>
</svg>
