<svg width="32" height="32" viewBox="0 0 32 32" fill="none" xmlns="http://www.w3.org/2000/svg">
<path d="M21.1523 20.6156C20.6242 20.0863 19.8074 19.8519 18.7241 19.919C18.3701 19.9408 18.0471 19.9922 17.8002 20.0418C17.7676 19.9464 17.7247 19.8549 17.6718 19.7686C18.0731 18.9853 18.5656 18.9231 19.176 18.8461C19.6698 18.7837 20.2295 18.7131 20.7035 18.2396C20.9246 18.0188 21.0514 17.6896 21.0514 17.3365C21.0514 16.9735 20.9223 16.412 20.3076 15.7979C19.8179 15.3086 19.2 15.0259 18.5676 15.0017C17.86 14.9748 17.1807 15.2655 16.6029 15.8427C16.0748 16.3702 15.8409 17.1862 15.9077 18.2683C15.9296 18.6225 15.9811 18.9458 16.0306 19.1925C15.9336 19.2274 15.8398 19.2736 15.7512 19.3311C14.9759 18.9294 14.9139 18.437 14.8373 17.8269C14.7751 17.3319 14.7046 16.7709 14.2322 16.2958C14.0119 16.0743 13.6834 15.9472 13.3311 15.9472C12.969 15.9472 12.4087 16.0765 11.796 16.6927C11.3079 17.1836 11.0258 17.8029 11.0017 18.4367C10.9747 19.1459 11.2648 19.8268 11.8407 20.4059C12.3085 20.8763 13.0036 21.1138 13.9106 21.1138C14.024 21.1138 14.1408 21.11 14.2608 21.1026C14.6272 21.0799 14.9602 21.0252 15.2095 20.974C15.2415 21.0595 15.282 21.1416 15.3307 21.2194C14.9282 22.0141 14.4339 22.0765 13.8204 22.154C13.3266 22.2163 12.7668 22.2869 12.2928 22.7604C12.0718 22.9812 11.9449 23.3104 11.9449 23.6636C11.9449 24.0265 12.074 24.5881 12.6888 25.2022C13.1785 25.6914 13.7965 25.9741 14.4288 25.9982C14.459 25.9994 14.4891 26 14.5191 26C15.194 25.9999 15.8404 25.7099 16.3936 25.1573C16.9216 24.6299 17.1555 23.8137 17.0887 22.7317C17.0662 22.3677 17.0125 22.0367 16.9617 21.7875C17.0435 21.7583 17.123 21.7214 17.1991 21.6763C18.0101 22.082 18.0766 22.5765 18.159 23.1909C18.2248 23.6817 18.2994 24.2381 18.7717 24.7115C18.8556 24.7955 18.9655 24.8375 19.0754 24.8375C19.1855 24.8375 19.2953 24.7955 19.3792 24.7115C19.547 24.5433 19.547 24.2707 19.3792 24.1025C19.1122 23.8349 19.0673 23.5001 19.0104 23.0762C18.9607 22.7059 18.9045 22.2861 18.6739 21.8796C18.4771 21.5323 18.1804 21.2449 17.7734 21.0088C17.7851 20.98 17.7956 20.9507 17.8053 20.9211C18.0265 20.8705 18.3801 20.8028 18.777 20.7783C19.3454 20.7432 20.1134 20.7921 20.5448 21.2244C21.4892 22.1709 21.1633 23.1693 20.5973 23.7367C20.4295 23.9048 20.4295 24.1773 20.5973 24.3455C20.6812 24.4295 20.7911 24.4716 20.901 24.4716C21.011 24.4716 21.1209 24.4295 21.2048 24.3455C21.6946 23.8545 21.9765 23.2317 21.9986 22.5917C22.0232 21.8785 21.7305 21.1951 21.1523 20.6156V20.6156ZM16.5686 19.9767C16.6766 19.9915 16.7809 20.0398 16.8638 20.1228C16.9614 20.2208 17.0152 20.3509 17.0152 20.4892C17.0152 20.6277 16.9614 20.7577 16.8638 20.8557C16.6622 21.0577 16.3342 21.0577 16.1326 20.8557C16.035 20.7577 15.9812 20.6277 15.9812 20.4892C15.9812 20.3509 16.035 20.2208 16.1326 20.1228C16.2315 20.0238 16.3607 19.9736 16.4905 19.9717C16.5161 19.9757 16.5422 19.9775 16.5686 19.9767ZM17.2093 16.4525C17.6348 16.0276 18.0715 15.8631 18.4745 15.8631C18.9582 15.8631 19.3932 16.1002 19.7012 16.4077C20.1285 16.8346 20.1923 17.1729 20.1923 17.3365C20.1923 17.5203 20.1194 17.6074 20.0971 17.6297C19.831 17.8956 19.4945 17.938 19.0686 17.9917C18.6972 18.0387 18.2761 18.0917 17.8685 18.3193C17.5224 18.5125 17.2362 18.8048 17.0011 19.2058C16.9693 19.1933 16.9371 19.1821 16.9047 19.1721C16.8545 18.9508 16.7891 18.6037 16.7652 18.2152C16.7302 17.6485 16.7789 16.8826 17.2093 16.4525V16.4525ZM14.2079 20.2432C13.6424 20.2782 12.8783 20.2294 12.4492 19.798C11.5161 18.8597 11.842 17.8662 12.4044 17.3006C12.8304 16.8722 13.1679 16.8082 13.3311 16.8082C13.5146 16.8082 13.6014 16.8812 13.6238 16.9036C13.889 17.1703 13.9313 17.5076 13.985 17.9345C14.0317 18.3068 14.0847 18.7288 14.3118 19.1373C14.5061 19.4872 14.8009 19.776 15.2064 20.0127C15.1959 20.0415 15.1863 20.0705 15.1778 20.1C14.9578 20.1506 14.6044 20.2187 14.2079 20.2432ZM15.7871 24.5474C14.851 25.4826 13.8597 25.1561 13.2953 24.5923C12.8679 24.1654 12.8041 23.8272 12.8041 23.6636C12.8041 23.4797 12.877 23.3926 12.8993 23.3702C13.1654 23.1044 13.5018 23.062 13.9278 23.0082C14.2993 22.9614 14.7203 22.9082 15.1278 22.6808C15.4791 22.4847 15.7688 22.1868 16.0058 21.7766C16.0324 21.7868 16.0594 21.7962 16.0865 21.8047C16.1373 22.0244 16.2064 22.3824 16.2313 22.7848C16.2663 23.3516 16.2176 24.1174 15.7871 24.5474V24.5474Z" stroke="#000" stroke-width="0.1" fill="#000"/>
<path d="M8 20.4965C7.99914 22.603 8.78052 24.6349 10.1926 26.198C11.6048 27.7611 13.547 28.7442 15.6428 28.9566C17.7386 29.1691 19.8386 28.5957 21.5357 27.3478C23.2327 26.0998 24.4059 24.2661 24.8278 22.2022C25.2496 20.1384 24.8901 17.9914 23.8189 16.1776C22.7477 14.3637 21.0411 13.0123 19.03 12.3853C17.019 11.7583 14.8468 11.9003 12.9345 12.784C11.0223 13.6676 9.50625 15.2298 8.68041 17.1677" stroke="#000" stroke-width="0.75" stroke-linecap="round" stroke-linejoin="round" fill="none"/>
<path d="M15.7652 6.45641C15.5317 6.60829 15.342 6.80106 15.2097 7.02081C15.0774 7.24056 15.0058 7.48182 15 7.72719C15 7.79954 15.0348 7.86893 15.0968 7.92009C15.1588 7.97126 15.2428 8 15.3304 8C15.4189 8.00002 15.5039 7.97152 15.5672 7.92055C15.6306 7.86959 15.6673 7.8002 15.6696 7.72719C15.6739 7.55481 15.7273 7.3857 15.8255 7.23353C15.9237 7.08137 16.0639 6.95042 16.2348 6.85129C16.4726 6.70193 16.6654 6.50919 16.7982 6.28813C16.9309 6.06707 17 5.82366 17 5.57692C17 5.33018 16.9309 5.08678 16.7982 4.86572C16.6654 4.64466 16.4726 4.45193 16.2348 4.30257C16.0608 4.20602 15.9183 4.07563 15.8197 3.92289C15.7212 3.77015 15.6696 3.59974 15.6696 3.42667C15.6696 3.2536 15.7212 3.08319 15.8197 2.93045C15.9183 2.77771 16.0608 2.64732 16.2348 2.55077C16.4675 2.39678 16.6567 2.20259 16.7888 1.98181C16.921 1.76104 16.9931 1.51904 16.9999 1.27282C16.9999 1.20047 16.9651 1.13108 16.9031 1.07992C16.8412 1.02875 16.7571 1 16.6695 1C16.5811 0.999976 16.4961 1.02849 16.4327 1.07946C16.3694 1.13042 16.3327 1.19981 16.3304 1.27282C16.3247 1.44598 16.2707 1.61573 16.1727 1.76888C16.0747 1.92203 15.9353 2.05446 15.7652 2.1559C15.5274 2.30452 15.3346 2.4966 15.2019 2.71708C15.0691 2.93756 15 3.18044 15 3.42667C15 3.6729 15.0691 3.91578 15.2019 4.13626C15.3346 4.35674 15.5274 4.54882 15.7652 4.69744C15.9392 4.79482 16.0816 4.92589 16.18 5.0792C16.2785 5.23252 16.3299 5.4034 16.3299 5.57692C16.3299 5.75045 16.2785 5.92134 16.18 6.07465C16.0816 6.22797 15.9392 6.35904 15.7652 6.45641V6.45641Z" stroke="#000" stroke-width="0.15" fill="#000"/>
<path d="M10.7636 6.46621C10.5306 6.61712 10.3413 6.80866 10.2092 7.02702C10.0772 7.24538 10.0058 7.4851 10 7.72891C10 7.8008 10.0348 7.86976 10.0966 7.9206C10.1584 7.97144 10.2423 8 10.3298 8C10.418 8.00002 10.5028 7.97169 10.566 7.92105C10.6292 7.8704 10.6659 7.80145 10.6681 7.72891C10.6725 7.55762 10.7258 7.38958 10.8238 7.23838C10.9217 7.08718 11.0616 6.95707 11.2321 6.85857C11.4695 6.71015 11.6619 6.51864 11.7943 6.29899C11.9268 6.07933 11.9957 5.83747 11.9957 5.5923C11.9957 5.34712 11.9268 5.10527 11.7943 4.88561C11.6619 4.66595 11.4695 4.47444 11.2321 4.32603C11.0585 4.23009 10.9163 4.10053 10.818 3.94876C10.7196 3.79698 10.6682 3.62765 10.6682 3.45569C10.6682 3.28372 10.7196 3.11439 10.818 2.96262C10.9163 2.81084 11.0585 2.68128 11.2321 2.58535C11.4637 2.43343 11.6521 2.24167 11.784 2.02353C11.9159 1.8054 11.9882 1.56617 11.9957 1.32264C12.0035 1.28286 12.0007 1.24216 11.9875 1.20335C11.9743 1.16455 11.951 1.12856 11.9193 1.09788C11.8875 1.0672 11.848 1.04256 11.8035 1.02566C11.759 1.00876 11.7106 1 11.6616 1C11.6126 1 11.5642 1.00876 11.5197 1.02566C11.4752 1.04256 11.4357 1.0672 11.4039 1.09788C11.3722 1.12856 11.3489 1.16455 11.3357 1.20335C11.3225 1.24216 11.3197 1.28286 11.3276 1.32264C11.3193 1.49325 11.2643 1.66014 11.1666 1.81084C11.069 1.96154 10.9312 2.09216 10.7636 2.19298C10.5263 2.34065 10.3339 2.53152 10.2014 2.7506C10.0689 2.96968 10 3.21102 10 3.45569C10 3.70035 10.0689 3.94168 10.2014 4.16076C10.3339 4.37984 10.5263 4.57071 10.7636 4.71839C10.9372 4.81515 11.0793 4.9454 11.1775 5.09774C11.2757 5.25007 11.3271 5.41987 11.3271 5.5923C11.3271 5.76472 11.2757 5.93453 11.1775 6.08687C11.0793 6.23921 10.9372 6.36945 10.7636 6.46621V6.46621Z" stroke="#000" stroke-width="0.15" fill="#000"/>
<path d="M20.7652 6.45641C20.5303 6.60724 20.3396 6.79978 20.2071 7.01977C20.0747 7.23975 20.0039 7.48153 20 7.72718C20 7.79953 20.0348 7.86893 20.0968 7.92009C20.1587 7.97126 20.2428 8 20.3304 8C20.4181 8 20.5021 7.97126 20.5641 7.92009C20.6261 7.86893 20.6609 7.79953 20.6609 7.72718C20.6672 7.55514 20.7215 7.38662 20.8196 7.23471C20.9176 7.08281 21.0567 6.9516 21.2261 6.85128C21.4655 6.70279 21.6598 6.51035 21.7936 6.28918C21.9274 6.068 21.9971 5.82416 21.9971 5.57692C21.9971 5.32969 21.9274 5.08585 21.7936 4.86467C21.6598 4.6435 21.4655 4.45106 21.2261 4.30257C21.0521 4.20602 20.9096 4.07563 20.811 3.92289C20.7125 3.77015 20.6609 3.59974 20.6609 3.42667C20.6609 3.2536 20.7125 3.08319 20.811 2.93045C20.9096 2.77771 21.0521 2.64732 21.2261 2.55077C21.4607 2.39926 21.6518 2.20674 21.7856 1.98703C21.9194 1.76731 21.9926 1.52585 22 1.28C22 1.20574 21.9643 1.13452 21.9007 1.08201C21.8371 1.0295 21.7508 1 21.6609 1C21.6167 0.999987 21.573 1.00727 21.5324 1.02143C21.4917 1.03559 21.4549 1.05633 21.4241 1.08243C21.3933 1.10852 21.3691 1.13946 21.353 1.1734C21.337 1.20733 21.3293 1.24357 21.3304 1.28C21.3221 1.45171 21.267 1.61966 21.1691 1.77132C21.0713 1.92298 20.9332 2.05444 20.7652 2.1559C20.5303 2.30673 20.3396 2.49928 20.2071 2.71926C20.0747 2.93924 20.0039 3.18102 20 3.42667C20.0057 3.67204 20.0773 3.91329 20.2097 4.13304C20.342 4.35279 20.5317 4.54556 20.7652 4.69743C20.9392 4.79481 21.0816 4.92589 21.18 5.0792C21.2785 5.23252 21.33 5.4034 21.33 5.57692C21.33 5.75045 21.2785 5.92134 21.18 6.07465C21.0816 6.22797 20.9392 6.35904 20.7652 6.45641V6.45641Z" stroke="#000" stroke-width="0.15" fill="#000"/>
<path d="M27 20.5051C27 21.8841 26.7282 23.2497 26.2002 24.5237C25.6721 25.7976 24.8981 26.955 23.9225 27.9297C22.9469 28.9044 21.7888 29.6772 20.5143 30.204C19.2398 30.7308 17.874 31.0013 16.4949 31C15.1163 31.0013 13.751 30.7308 12.4771 30.2038C11.2032 29.6769 10.0457 28.9039 9.07092 27.9291C8.09611 26.9543 7.32311 25.7968 6.79616 24.5229C6.26922 23.249 5.99867 21.8837 6 20.5051V12.9057C6 12.135 6.30614 11.396 6.85106 10.851C7.39597 10.3061 8.13504 10 8.90567 10H24.0943C24.4759 10 24.8538 10.0752 25.2063 10.2212C25.5588 10.3672 25.8792 10.5812 26.149 10.851C26.4188 11.1209 26.6328 11.4412 26.7788 11.7937C26.9249 12.1462 27 12.5241 27 12.9057V16.5412" stroke="#000" stroke-width="0.75" stroke-linecap="round" stroke-linejoin="round" fill="none" />
</svg>
