<svg width="36" height="36" viewBox="0 0 36 36" fill="none" xmlns="http://www.w3.org/2000/svg">
  <path
    d="M23.0769 0C26.0932 0 36 16.4253 36 22.7368C36 30.0619 30.2141 36 23.0769 36C21.3938 36 19.7539 35.6691 18.2258 35.0336C17.7534 34.8371 17.5256 34.2847 17.717 33.7998C17.9085 33.3148 18.4467 33.0811 18.9192 33.2776C20.2279 33.8219 21.6325 34.1053 23.0769 34.1053C29.1945 34.1053 34.1538 28.939 34.1538 22.7368C33.9489 16.1332 24.8676 2.92924 23.0049 1.90895C21.0892 2.99305 15.1704 12.8845 13.6825 16.5093C13.4777 16.9884 12.9332 17.2065 12.4663 16.9963C11.9995 16.7862 11.787 16.2274 11.9918 15.7482C13.6825 11.3429 20.4456 0.233363 23.0769 0ZM18.4615 29.3684C18.9713 29.3684 19.3846 29.7926 19.3846 30.3158C19.3846 30.8016 19.0235 31.2632 18.4615 31.2632C17.0427 31.2632 15.9476 33.1579 13.8486 33.1579C11.7496 33.1579 10.6831 31.2632 9.23077 31.2632C7.77846 31.2631 6.74005 33.1579 4.61538 33.1579C3.1391 33.1579 1.69165 32.4152 0.277011 30.9924C-0.0871072 30.6262 -0.0930301 30.0264 0.263782 29.6527C0.620594 29.279 1.20502 29.2729 1.56914 29.6391C2.66646 30.7427 3.68062 31.2632 4.61538 31.2632C5.90969 31.2632 7.09324 29.3682 9.23077 29.3684C11.3683 29.3686 12.4579 31.2632 13.8437 31.2632C15.2295 31.2632 16.1974 29.3686 18.4615 29.3684ZM1.56914 25.8497C2.66645 26.9533 3.68061 27.4737 4.61538 27.4737C5.12519 27.4737 5.53846 27.8978 5.53846 28.4211C5.53846 28.9443 5.12519 29.3684 4.61538 29.3684C3.13902 29.3684 1.69164 28.6257 0.277011 27.203C-0.0871072 26.8368 -0.0930301 26.2369 0.263782 25.8632C0.620594 25.4895 1.20502 25.4835 1.56914 25.8497ZM18.4615 25.5789C20.6844 25.5789 21.7571 27.4737 23.0859 27.4737C24.015 27.483 25.0249 26.9648 26.12 25.8528C26.4825 25.4849 27.0669 25.4881 27.4255 25.86C27.784 26.232 27.7808 26.8318 27.4184 27.1998C26.0017 28.6382 24.5519 29.3684 23.0679 29.3684C20.9315 29.3684 19.9252 27.4737 18.4615 27.4737C16.9979 27.4737 15.9636 29.3686 13.8486 29.3684C11.7336 29.3682 10.6894 27.4738 9.23077 27.4737C8.72097 27.4737 8.30769 27.0495 8.30769 26.5263C8.30769 26.0031 8.72097 25.5789 9.23077 25.5789C11.4404 25.5791 12.4905 27.4736 13.8437 27.4737C15.1969 27.4738 16.2386 25.579 18.4615 25.5789ZM9.23077 21.7895C9.74057 21.7895 10.1538 22.2136 10.1538 22.7368C10.1538 23.2227 9.78751 23.6842 9.23077 23.6842C7.76876 23.6842 6.72163 25.5789 4.61538 25.5789C3.13902 25.5789 1.69164 24.8362 0.277011 23.4135C-0.0871072 23.0473 -0.0930301 22.4475 0.263782 22.0738C0.620594 21.7001 1.20502 21.694 1.56914 22.0602C2.66645 23.1638 3.68061 23.6842 4.61538 23.6842C6.1182 23.6842 6.92134 21.7895 9.23077 21.7895ZM18.4615 21.7895C20.6014 21.7895 21.7085 23.6778 23.0859 23.6843C24.015 23.6935 25.0249 23.1753 26.12 22.0634C26.4825 21.6954 27.0669 21.6986 27.4255 22.0706C27.784 22.4425 27.7808 23.0424 27.4184 23.4103C26.0017 24.8488 24.5511 25.5789 23.0679 25.5789C20.9752 25.5789 19.9247 23.6906 18.4615 23.6842C16.9984 23.6778 15.9905 25.5789 13.8486 25.5789C13.3388 25.5803 12.9244 25.1573 12.923 24.6341C12.9217 24.1109 13.3339 23.6856 13.8437 23.6842C15.177 23.6778 16.3217 21.7895 18.4615 21.7895ZM18.4615 18C18.9713 18 19.3846 18.4242 19.3846 18.9474C19.3846 19.4332 18.9949 19.8948 18.4615 19.8947C16.9295 19.8947 16.0093 21.7836 13.8486 21.7895C11.6879 21.7954 10.7039 19.8947 9.23077 19.8947C7.75764 19.8947 6.78167 21.7895 4.61538 21.7895C3.13903 21.7895 1.69165 21.0467 0.277011 19.624C-0.0871072 19.2578 -0.0930301 18.658 0.263782 18.2843C0.620594 17.9106 1.20502 17.9045 1.56914 18.2707C2.66646 19.3743 3.68062 19.8948 4.61538 19.8948C5.95445 19.8884 7.05182 18 9.23077 18C11.4097 18 12.4663 19.8985 13.8437 19.8948C15.221 19.891 16.2504 18 18.4615 18Z"
    fill="currentColor" />
</svg>