<svg width="32" height="32" viewBox="0 0 32 32" fill="none" xmlns="http://www.w3.org/2000/svg">
<path d="M13.5333 17.2C13.8279 17.2 14.0667 16.9612 14.0667 16.6667V16.5333C14.0667 16.2388 13.8279 16 13.5333 16C13.2388 16 13 16.2388 13 16.5333V16.6667C13 16.9612 13.2388 17.2 13.5333 17.2Z" fill="#000"/>
<path d="M21.5333 20.2C21.8279 20.2 22.0667 19.9612 22.0667 19.6667V19.5333C22.0667 19.2388 21.8279 19 21.5333 19C21.2388 19 21 19.2388 21 19.5333V19.6667C21 19.9612 21.2388 20.2 21.5333 20.2Z" fill="#000"/>
<path d="M13.7326 4.20002C14.0271 4.20002 14.2659 3.96121 14.2659 3.66668V3.53334C14.2659 3.2388 14.0271 3 13.7326 3C13.438 3 13.1992 3.2388 13.1992 3.53334V3.66668C13.1992 3.96121 13.438 4.20002 13.7326 4.20002Z" fill="#000"/>
<path d="M22.5333 6.20002C22.8279 6.20002 23.0667 5.96121 23.0667 5.66668V5.53334C23.0667 5.2388 22.8279 5 22.5333 5C22.2388 5 22 5.2388 22 5.53334V5.66668C22 5.96121 22.2388 6.20002 22.5333 6.20002Z" fill="#000"/>
<path d="M10.5333 3C10.2388 3 10 3.2388 10 3.53334V3.66668C10 3.96121 10.2388 4.20002 10.5333 4.20002C10.8279 4.20002 11.0667 3.96121 11.0667 3.66668V3.53334C11.0667 3.2388 10.8279 3 10.5333 3Z" fill="#000"/>
<path d="M20.5333 7C20.2388 7 20 7.2388 20 7.53334V7.66668C20 7.96121 20.2388 8.20002 20.5333 8.20002C20.8279 8.20002 21.0667 7.96121 21.0667 7.66668V7.53334C21.0667 7.2388 20.8279 7 20.5333 7Z" fill="#000"/>
<path d="M15.5333 20.2C15.8279 20.2 16.0667 19.9612 16.0667 19.6667V19.5333C16.0667 19.2388 15.8279 19 15.5333 19C15.2388 19 15 19.2388 15 19.5333V19.6667C15 19.9612 15.2388 20.2 15.5333 20.2Z" fill="#000"/>
<path d="M23.5333 23.2C23.8279 23.2 24.0667 22.9612 24.0667 22.6667V22.5333C24.0667 22.2388 23.8279 22 23.5333 22C23.2388 22 23 22.2388 23 22.5333V22.6667C23 22.9612 23.2388 23.2 23.5333 23.2Z" fill="#000"/>
<path d="M13.5333 23.2C13.8279 23.2 14.0667 22.9612 14.0667 22.6667V22.5333C14.0667 22.2388 13.8279 22 13.5333 22C13.2388 22 13 22.2388 13 22.5333V22.6667C13 22.9612 13.2388 23.2 13.5333 23.2Z" fill="#000"/>
<path d="M27.5333 10.2C27.8279 10.2 28.0667 9.96121 28.0667 9.66668V9.53334C28.0667 9.2388 27.8279 9 27.5333 9C27.2388 9 27 9.2388 27 9.53334V9.66668C27 9.96121 27.2388 10.2 27.5333 10.2Z" fill="#000"/>
<path d="M11 19.6667C11 19.9612 11.2388 20.2 11.5333 20.2C11.8279 20.2 12.0667 19.9612 12.0667 19.6667V19.5333C12.0667 19.2388 11.8279 19 11.5333 19C11.2388 19 11 19.2388 11 19.5333V19.6667Z" fill="#000"/>
<path d="M19 22.6667C19 22.9612 19.2388 23.2 19.5333 23.2C19.8279 23.2 20.0667 22.9612 20.0667 22.6667V22.5333C20.0667 22.2388 19.8279 22 19.5333 22C19.2388 22 19 22.2388 19 22.5333V22.6667Z" fill="#000"/>
<path d="M21 25.6667C21 25.9612 21.2388 26.2 21.5333 26.2C21.8279 26.2 22.0667 25.9612 22.0667 25.6667V25.5333C22.0667 25.2388 21.8279 25 21.5333 25C21.2388 25 21 25.2388 21 25.5333V25.6667Z" fill="#000"/>
<path d="M13.1992 10.3332C13.1992 10.6277 13.438 10.8665 13.7326 10.8665C14.0271 10.8665 14.2659 10.6277 14.2659 10.3332V10.1998C14.2659 9.90531 14.0271 9.6665 13.7326 9.6665C13.438 9.6665 13.1992 9.90531 13.1992 10.1998V10.3332Z" fill="#000"/>
<path d="M21 12.6667C21 12.9612 21.2388 13.2 21.5333 13.2C21.8279 13.2 22.0667 12.9612 22.0667 12.6667V12.5333C22.0667 12.2388 21.8279 12 21.5333 12C21.2388 12 21 12.2388 21 12.5333V12.6667Z" fill="#000"/>
<path d="M11.0667 10.1998C11.0667 9.90531 10.8279 9.6665 10.5333 9.6665C10.2388 9.6665 10 9.90531 10 10.1998V10.3332C10 10.6277 10.2388 10.8665 10.5333 10.8665C10.8279 10.8665 11.0667 10.6277 11.0667 10.3332V10.1998Z" fill="#000"/>
<path d="M19.0667 13.1998C19.0667 12.9053 18.8279 12.6665 18.5333 12.6665C18.2388 12.6665 18 12.9053 18 13.1998V13.3332C18 13.6277 18.2388 13.8665 18.5333 13.8665C18.8279 13.8665 19.0667 13.6277 19.0667 13.3332V13.1998Z" fill="#000"/>
<path d="M11 28.6667C11 28.9612 11.2388 29.2 11.5333 29.2C11.8279 29.2 12.0667 28.9612 12.0667 28.6667V28.5333C12.0667 28.2388 11.8279 28 11.5333 28C11.2388 28 11 28.2388 11 28.5333V28.6667Z" fill="#000"/>
<path d="M27 20.6667C27 20.9612 27.2388 21.2 27.5333 21.2C27.8279 21.2 28.0667 20.9612 28.0667 20.6667V20.5333C28.0667 20.2388 27.8279 20 27.5333 20C27.2388 20 27 20.2388 27 20.5333V20.6667Z" fill="#000"/>
<path d="M13 26.6667C13 26.9612 13.2388 27.2 13.5333 27.2C13.8279 27.2 14.0667 26.9612 14.0667 26.6667V26.5333C14.0667 26.2388 13.8279 26 13.5333 26C13.2388 26 13 26.2388 13 26.5333V26.6667Z" fill="#000"/>
<path d="M27 15.6667C27 15.9612 27.2388 16.2 27.5333 16.2C27.8279 16.2 28.0667 15.9612 28.0667 15.6667V15.5333C28.0667 15.2388 27.8279 15 27.5333 15C27.2388 15 27 15.2388 27 15.5333V15.6667Z" fill="#000"/>
<path d="M15.0861 7.53351C15.3806 7.53351 15.6194 7.29471 15.6194 7.00017V6.86684C15.6194 6.5723 15.3806 6.3335 15.0861 6.3335C14.7915 6.3335 14.5527 6.5723 14.5527 6.86684V7.00017C14.5527 7.29471 14.7915 7.53351 15.0861 7.53351Z" fill="#000"/>
<path d="M23.0861 10.5335C23.3806 10.5335 23.6194 10.2947 23.6194 10.0002V9.86684C23.6194 9.5723 23.3806 9.3335 23.0861 9.3335C22.7915 9.3335 22.5527 9.5723 22.5527 9.86684V10.0002C22.5527 10.2947 22.7915 10.5335 23.0861 10.5335Z" fill="#000"/>
<path d="M12.1331 6.86684C12.1331 6.5723 11.8943 6.3335 11.5997 6.3335C11.3052 6.3335 11.0664 6.5723 11.0664 6.86684V7.00017C11.0664 7.29471 11.3052 7.53351 11.5997 7.53351C11.8943 7.53351 12.1331 7.29471 12.1331 7.00017V6.86684Z" fill="#000"/>
<path d="M19.0667 9.53334C19.0667 9.2388 18.8279 9 18.5333 9C18.2388 9 18 9.2388 18 9.53334V9.66668C18 9.96121 18.2388 10.2 18.5333 10.2C18.8279 10.2 19.0667 9.96121 19.0667 9.66668V9.53334Z" fill="#000"/>
<path d="M15.5333 25.2C15.8279 25.2 16.0667 24.9612 16.0667 24.6667V24.5333C16.0667 24.2388 15.8279 24 15.5333 24C15.2388 24 15 24.2388 15 24.5333V24.6667C15 24.9612 15.2388 25.2 15.5333 25.2Z" fill="#000"/>
<path d="M26.5333 13.2C26.8279 13.2 27.0667 12.9612 27.0667 12.6667V12.5333C27.0667 12.2388 26.8279 12 26.5333 12C26.2388 12 26 12.2388 26 12.5333V12.6667C26 12.9612 26.2388 13.2 26.5333 13.2Z" fill="#000"/>
<path d="M11.5333 24C11.2388 24 11 24.2388 11 24.5333V24.6667C11 24.9612 11.2388 25.2 11.5333 25.2C11.8279 25.2 12.0667 24.9612 12.0667 24.6667V24.5333C12.0667 24.2388 11.8279 24 11.5333 24Z" fill="#000"/>
<path d="M26.5333 18C26.2388 18 26 18.2388 26 18.5333V18.6667C26 18.9612 26.2388 19.2 26.5333 19.2C26.8279 19.2 27.0667 18.9612 27.0667 18.6667V18.5333C27.0667 18.2388 26.8279 18 26.5333 18Z" fill="#000"/>
<path d="M14.5527 13.6667C14.5527 13.9612 14.7915 14.2 15.0861 14.2C15.3806 14.2 15.6194 13.9612 15.6194 13.6667V13.5333C15.6194 13.2388 15.3806 13 15.0861 13C14.7915 13 14.5527 13.2388 14.5527 13.5333V13.6667Z" fill="#000"/>
<path d="M22.5527 16.6667C22.5527 16.9612 22.7915 17.2 23.0861 17.2C23.3806 17.2 23.6194 16.9612 23.6194 16.6667V16.5333C23.6194 16.2388 23.3806 16 23.0861 16C22.7915 16 22.5527 16.2388 22.5527 16.5333V16.6667Z" fill="#000"/>
<path d="M11.5333 14.2C11.8279 14.2 12.0667 13.9612 12.0667 13.6667V13.5333C12.0667 13.2388 11.8279 13 11.5333 13C11.2388 13 11 13.2388 11 13.5333V13.6667C11 13.9612 11.2388 14.2 11.5333 14.2Z" fill="#000"/>
<path d="M19.5333 17.2C19.8279 17.2 20.0667 16.9612 20.0667 16.6667V16.5333C20.0667 16.2388 19.8279 16 19.5333 16C19.2388 16 19 16.2388 19 16.5333V16.6667C19 16.9612 19.2388 17.2 19.5333 17.2Z" fill="#000"/>
<path d="M19 4.66668C19 4.96121 19.2388 5.20002 19.5333 5.20002C19.8279 5.20002 20.0667 4.96121 20.0667 4.66668V4.53334C20.0667 4.2388 19.8279 4 19.5333 4C19.2388 4 19 4.2388 19 4.53334V4.66668Z" fill="#000"/>
<path d="M26 5.66668C26 5.96121 26.2388 6.20002 26.5333 6.20002C26.8279 6.20002 27.0667 5.96121 27.0667 5.66668V5.53334C27.0667 5.2388 26.8279 5 26.5333 5C26.2388 5 26 5.2388 26 5.53334V5.66668Z" fill="#000"/>
<path d="M29.3377 7.68384L29.4074 5.46387C29.424 4.93985 29.2447 4.42818 28.9038 4.02698C28.5629 3.62579 28.0844 3.36331 27.5601 3.28989L15.3958 1.5415" stroke="#000" fill="none" stroke-linecap="round" stroke-linejoin="round"/>
<path d="M25.0391 24.2244L27.6416 23.0742C28.002 22.9071 28.3088 22.6446 28.5282 22.3158C28.7475 21.987 28.8709 21.6046 28.8847 21.2108L29.2333 10.709" stroke="#000" fill="none" stroke-linecap="round" stroke-linejoin="round"/>
<path d="M9.02905 10.6626L9.48216 31.4246L19.5087 26.7891" stroke="#000" fill="none" stroke-linecap="round" stroke-linejoin="round"/>
<path d="M11.8755 1.0353L8.63403 0.575195L8.83154 9.01804" stroke="#000" fill="none" stroke-linecap="round" stroke-linejoin="round"/>
<path d="M3.02247 18.9217L2.58097 3.66937C2.56653 3.1714 2.72809 2.68405 3.03775 2.29138C3.34741 1.8987 3.78578 1.62532 4.27724 1.51839L8.63409 0.575195" stroke="#000" fill="none" stroke-linecap="round" stroke-linejoin="round"/>
<path d="M9.47056 31.4251L4.40502 28.745C4.06563 28.5687 3.77937 28.3067 3.57533 27.9855C3.37128 27.6643 3.2567 27.2953 3.24319 26.9161L3.10376 22.1426" stroke="#000" fill="none" stroke-linecap="round" stroke-linejoin="round"/>
<path d="M25.0391 24.2245V2.92188" stroke="#000" fill="none" stroke-linecap="round" stroke-linejoin="round"/>
<path d="M17.092 27.8936L16.5808 1.71387" stroke="#000" fill="none" stroke-linecap="round" stroke-linejoin="round"/>
<path d="M6.67052 5.92383L4.70703 6.33792" stroke="#000" fill="none" stroke-linecap="round" stroke-linejoin="round"/>
<path d="M6.67043 3.56592L4.95093 3.91099" stroke="#000" fill="none" stroke-linecap="round" stroke-linejoin="round"/>
<path d="M7.65798 27.8934L4.95093 26.3521" stroke="#000" fill="none" stroke-linecap="round" stroke-linejoin="round"/>
</svg>
