<svg width="20" height="32" viewBox="0 0 20 32" fill="none" xmlns="http://www.w3.org/2000/svg">
<path d="M19.133 14.8495C19.4275 14.8495 19.6663 14.6107 19.6663 14.3161V2.20513C19.6663 0.9892 18.6771 0 17.4612 0H2.53814C1.32221 0 0.333008 0.9892 0.333008 2.20513V29.7949C0.333008 31.0108 1.32221 32 2.53814 32H17.4612C18.6771 32 19.6663 31.0108 19.6663 29.7949V17.3333C19.6663 17.0388 19.4275 16.8 19.133 16.8H3.94161C3.64707 16.8 3.40827 17.0388 3.40827 17.3333C3.40827 17.6279 3.64707 17.8667 3.94161 17.8667H18.5997V29.7949C18.5997 30.4227 18.0889 30.9333 17.4612 30.9333H2.53814C1.91034 30.9333 1.39967 30.4226 1.39967 29.7949V2.20513C1.39967 1.5774 1.91041 1.06667 2.53814 1.06667H17.4612C18.0889 1.06667 18.5997 1.5774 18.5997 2.20513V14.3161C18.5997 14.6107 18.8385 14.8495 19.133 14.8495Z" fill="#000"  stroke="#000" stroke-width="0.01" stroke-linecap="round"/>
<path d="M11.2646 24.3797C11.1363 24.1571 10.3398 22.9346 9.86247 22.2011C9.82123 22.139 9.76634 22.0883 9.70245 22.0533C9.63857 22.0183 9.56758 22 9.49553 22C9.42347 22 9.35249 22.0183 9.2886 22.0533C9.22472 22.0883 9.16982 22.139 9.12858 22.2011C8.96961 22.438 8.19782 23.7033 8 24M7.70197 24.5C7.3702 25.0046 7.04275 25.6707 7.00149 26.2824C6.9899 26.6348 7.04595 26.986 7.16629 27.3152C7.28664 27.6443 7.46881 27.9447 7.70197 28.1983C7.93512 28.4518 8.21447 28.6535 8.52338 28.7913C8.83229 28.929 9.16443 29 9.5 29C9.83557 29 10.1677 28.929 10.4766 28.7913C10.7855 28.6535 11.0649 28.4518 11.298 28.1983C11.5312 27.9447 11.7134 27.6443 11.8337 27.3152C11.9541 26.986 12.0101 26.6348 11.9985 26.2824" stroke="#000" stroke-miterlimit="10" stroke-linecap="round" fill="none"/>
<path d="M6.5 22.5L13 29" stroke="#000" stroke-linecap="round" fill="none"/>
</svg>
