<svg width="32" height="32" viewBox="0 0 32 32" fill="none" xmlns="http://www.w3.org/2000/svg">
<path d="M2.66222 7.68385L2.5809 5.46387C2.56423 4.93985 2.74354 4.42818 3.08445 4.02698C3.42536 3.62579 3.90386 3.36331 4.4282 3.28989L16.6041 1.5415" fill="none" stroke="#000" stroke-linecap="round" stroke-linejoin="round"/>
<path d="M6.96093 24.2704L4.34682 23.0627C3.98797 22.8935 3.68255 22.6305 3.46349 22.3021C3.24442 21.9738 3.12002 21.5925 3.10368 21.1993L2.75513 10.709" fill="none" stroke="#000" stroke-linecap="round" stroke-linejoin="round"/>
<path d="M23.0057 13.4233L22.5178 31.4248L12.4912 26.7893" stroke="#000" stroke-linecap="round" stroke-linejoin="round" fill="none"/>
<path d="M20.1245 1.0353L23.366 0.575195L23.1569 9.01804" stroke="#000" stroke-linecap="round" stroke-linejoin="round" fill="none"/>
<path d="M28.9659 18.9217L29.419 3.66937C29.4306 3.17033 29.2666 2.68283 28.955 2.29039C28.6434 1.89796 28.2037 1.62504 27.7111 1.5184L23.4124 0.575195" fill="none" stroke="#000" stroke-linecap="round" stroke-linejoin="round"/>
<path d="M22.5178 31.4251L27.5834 28.745C27.9228 28.5687 28.209 28.3067 28.4131 27.9855C28.6171 27.6643 28.7317 27.2953 28.7452 26.9161L28.8846 22.1426" fill="none" stroke="#000" stroke-linecap="round" stroke-linejoin="round"/>
<path d="M3.21997 11.5485L9.07557 2.62256" stroke="#000" stroke-linecap="round" stroke-linejoin="round" fill="none"/>
<path d="M3.21997 17.1272L15.454 1.71387" stroke="#000" stroke-linecap="round" stroke-linejoin="round" fill="none"/>
<path d="M3.70776 22.1423L23.0057 2.62256" stroke="#000" stroke-linecap="round" stroke-linejoin="round" fill="none"/>
<path d="M6.96094 24.2242L23.0058 13.4233" stroke="#000" stroke-linecap="round" stroke-linejoin="round" fill="none"/>
<path d="M11.0971 14.3434L10.644 13.7568L9.47059 12.2729L3.21997 4.32471" stroke="#000" stroke-linecap="round" stroke-linejoin="round" fill="none"/>
<path d="M22.5177 28.8483L11 14.5" stroke="#000" stroke-linecap="round" stroke-linejoin="round" fill="none"/>
<path d="M22.518 20.5895L7.85571 3.14014" stroke="#000" stroke-linecap="round" stroke-linejoin="round" fill="none"/>
<path d="M23.0058 13.4236L13.8506 1.93262" stroke="#000" stroke-linecap="round" stroke-linejoin="round" fill="none"/>
<path d="M14.8962 27.8934L2.75513 10.6626" stroke="#000" stroke-linecap="round" stroke-linejoin="round" fill="none"/>
<path d="M3.42896 15.7812L6.96091 24.2241" stroke="#000" stroke-linecap="round" stroke-linejoin="round" fill="none"/>
<path d="M13.5369 27.2722L22.5178 21.8315" stroke="#000" stroke-linecap="round" stroke-linejoin="round" fill="none"/>
<path d="M25.3293 5.92383L27.2928 6.33792" stroke="#000" stroke-linecap="round" stroke-linejoin="round" fill="none"/>
<path d="M25.3293 3.56592L27.0488 3.91099" stroke="#000" stroke-linecap="round" stroke-linejoin="round" fill="none"/>
<path d="M24.3418 27.8934L27.0489 26.3521" stroke="#000" stroke-linecap="round" stroke-linejoin="round" fill="none"/>
<path d="M12.4912 16.2529L13.0257 16.8511" stroke="#000" stroke-linecap="round" stroke-linejoin="round" fill="none"/>
</svg>
