<svg width="32" height="32" viewBox="0 0 32 32" fill="none" xmlns="http://www.w3.org/2000/svg">
<path d="M30.5938 7.32812H4.21875C3.95987 7.32812 3.75 7.53799 3.75 7.79688C3.75 8.05576 3.95987 8.26562 4.21875 8.26562H30.5938C30.8522 8.26562 31.0625 8.47588 31.0625 8.73438V9.20312H0.9375V8.73438C0.9375 8.47594 1.14781 8.26562 1.40625 8.26562H2.34375C2.60263 8.26562 2.8125 8.05576 2.8125 7.79688C2.8125 7.53799 2.60263 7.32812 2.34375 7.32812H1.40625C0.630813 7.32812 0 7.95894 0 8.73438V16.2344C0 16.4933 0.209867 16.7031 0.46875 16.7031C0.727633 16.7031 0.9375 16.4933 0.9375 16.2344V15.7656H1.92219C2.13994 16.8341 3.08694 17.6406 4.21875 17.6406H23.0938C23.3526 17.6406 23.5625 17.4308 23.5625 17.1719C23.5625 16.913 23.3526 16.7031 23.0938 16.7031H4.21875C3.44338 16.7031 2.8125 16.0723 2.8125 15.2969V13.4219C2.8125 12.6465 3.44338 12.0156 4.21875 12.0156H27.7812C28.5566 12.0156 29.1874 12.6464 29.1874 13.4219V15.2969C29.1874 16.0723 28.5566 16.7032 27.7812 16.7032H26.8438C26.5849 16.7032 26.375 16.9131 26.375 17.1719C26.375 17.4308 26.5849 17.6407 26.8438 17.6407H27.7812C28.9131 17.6407 29.86 16.8342 30.0777 15.7657H31.0625V16.2344C31.0625 16.4933 31.2724 16.7032 31.5312 16.7032C31.7901 16.7032 32 16.4933 32 16.2344V8.73444C32 7.959 31.3691 7.32812 30.5938 7.32812ZM0.9375 13.8906H1.875V14.8281H0.9375V13.8906ZM27.7812 11.0781H4.21875C3.08687 11.0781 2.13994 11.8846 1.92219 12.9531H0.9375V10.1406H31.0625V12.9531H30.0777C29.86 11.8847 28.9131 11.0781 27.7812 11.0781ZM30.1249 14.8282V13.8907H31.0625V14.8282H30.1249Z" fill="#000"/>
<path d="M24.5 17.1719C24.5 16.913 24.7099 16.7031 24.9688 16.7031C25.2276 16.7031 25.4375 16.913 25.4375 17.1719C25.4375 17.4308 25.2276 17.6406 24.9688 17.6406C24.7099 17.6406 24.5 17.4308 24.5 17.1719Z" fill="#000"/>
<path d="M24.9688 13.4219C24.9688 13.163 25.1786 12.9531 25.4375 12.9531C25.6964 12.9531 25.9062 13.163 25.9062 13.4219C25.9062 13.6808 25.6964 13.8906 25.4375 13.8906C25.1786 13.8906 24.9688 13.6808 24.9688 13.4219Z" fill="#000"/>
<path d="M26.8438 13.4219C26.8438 13.163 27.0536 12.9531 27.3125 12.9531C27.5714 12.9531 27.7812 13.163 27.7812 13.4219C27.7812 13.6808 27.5714 13.8906 27.3125 13.8906C27.0536 13.8906 26.8438 13.6808 26.8438 13.4219Z" fill="#000"/>
<path d="M9.904 24.1935C9.64771 24.157 9.46953 23.9197 9.50604 23.6634L9.8412 21.3101C9.8777 21.0538 10.1151 20.8756 10.3714 20.9121C10.6277 20.9486 10.8058 21.186 10.7693 21.4423L10.4342 23.7956C10.3977 24.0519 10.1603 24.23 9.904 24.1935Z" fill="#000"/>
<path d="M13.6562 21.3906C13.6562 21.1317 13.8661 20.9219 14.125 20.9219C14.3839 20.9219 14.5938 21.1317 14.5938 21.3906V24.2031C14.5938 24.462 14.3839 24.6719 14.125 24.6719C13.8661 24.6719 13.6562 24.462 13.6562 24.2031V21.3906Z" fill="#000"/>
<path d="M5.20837 23.732C4.97693 23.6163 4.88312 23.3348 4.99884 23.1034L5.98534 21.1304C6.10106 20.8989 6.38249 20.8051 6.61393 20.9209C6.84537 21.0366 6.93918 21.318 6.82346 21.5494L5.83696 23.5225C5.72124 23.7539 5.43981 23.8477 5.20837 23.732Z" fill="#000"/>
<path d="M17.4062 21.3906C17.4062 21.1317 17.6161 20.9219 17.875 20.9219C18.1339 20.9219 18.3438 21.1317 18.3438 21.3906V24.2031C18.3438 24.462 18.1339 24.6719 17.875 24.6719C17.6161 24.6719 17.4062 24.462 17.4062 24.2031V21.3906Z" fill="#000"/>
<path d="M25.1497 21.547C25.034 21.3156 25.1278 21.0341 25.3592 20.9184C25.5907 20.8027 25.8721 20.8965 25.9878 21.1279L26.9744 23.101C27.0901 23.3324 26.9963 23.6139 26.7648 23.7296C26.5334 23.8453 26.252 23.7515 26.1362 23.5201L25.1497 21.547Z" fill="#000"/>
<path d="M21.2192 21.4621C21.1827 21.2058 21.3608 20.9685 21.6171 20.932C21.8734 20.8955 22.1108 21.0736 22.1473 21.3299L22.4825 23.6832C22.519 23.9395 22.3408 24.1769 22.0845 24.2134C21.8282 24.2499 21.5908 24.0717 21.5543 23.8154L21.2192 21.4621Z" fill="#000"/>
</svg>
