<svg width="20" height="20" viewBox="0 0 20 20" fill="none" xmlns="http://www.w3.org/2000/svg">
<path d="M15.7 5.6473C15.4 5.6473 15.16 5.70539 14.86 5.76349C14.86 5.70539 14.86 5.70539 14.86 5.6473C14.86 3.09129 12.64 1 9.94 1C8.08 1 6.52 1.98755 5.68 3.38174C5.5 3.38174 5.32 3.32365 5.08 3.32365C2.86 3.32365 1 5.06639 1 7.21577C1 9.13278 2.5 10.7012 4.42 11.0498C4.96 13.3154 7.06 15 9.58 15C11.86 15 13.84 13.6058 14.56 11.6888C14.92 11.805 15.28 11.9212 15.7 11.9212C17.5 11.9212 19 10.527 19 8.84232C19 7.04149 17.56 5.6473 15.7 5.6473Z" stroke="currentColor" stroke-width="2" stroke-linecap="round" stroke-linejoin="round"/>
<path d="M2.5 19C3.32843 19 4 18.3284 4 17.5C4 16.6716 3.32843 16 2.5 16C1.67157 16 1 16.6716 1 17.5C1 18.3284 1.67157 19 2.5 19Z" stroke="currentColor" stroke-width="2" stroke-linecap="round" stroke-linejoin="round"/>
<path d="M8.125 6.25H10.625L8.125 10.625H11.875" stroke="currentColor" stroke-width="2" stroke-linecap="round" stroke-linejoin="round"/>
</svg>
