<svg width="18" height="18" viewBox="0 0 18 18" fill="none" xmlns="http://www.w3.org/2000/svg">
<path d="M8.99992 11.182C10.2049 11.182 11.1817 10.2051 11.1817 9.00017C11.1817 7.79519 10.2049 6.81836 8.99992 6.81836C7.79494 6.81836 6.81812 7.79519 6.81812 9.00017C6.81812 10.2051 7.79494 11.182 8.99992 11.182Z" stroke="#339FD9" stroke-width="1.5" stroke-linecap="round" stroke-linejoin="round"/>
<path d="M7.53171 7.39564C6.70626 6.23201 6.48226 4.98911 7.30553 3.01967C8.35134 0.519319 5.25463 0.528045 3.64955 2.02331C2.99911 2.55756 2.58027 3.32248 2.48052 4.15827C2.38078 4.99405 2.60784 5.83606 3.11428 6.50838C4.08638 7.62708 5.39804 8.39671 6.8488 8.69964" stroke="#339FD9" stroke-width="1.5" stroke-linecap="round" stroke-linejoin="round"/>
<path d="M7.39564 10.4683C6.23201 11.2937 4.98911 11.5177 3.01967 10.6944C0.519319 9.64863 0.528045 12.7453 2.02331 14.3504C2.55756 15.0009 3.32248 15.4197 4.15827 15.5194C4.99405 15.6192 5.83606 15.3921 6.50838 14.8857C7.62708 13.9136 8.39671 12.6019 8.69964 11.1512" stroke="#339FD9" stroke-width="1.5" stroke-linecap="round" stroke-linejoin="round"/>
<path d="M10.4683 10.6043C11.2937 11.7679 11.5177 13.0108 10.6944 14.9803C9.64863 17.4806 12.7453 17.4719 14.3504 15.9766C15.0009 15.4424 15.4197 14.6774 15.5194 13.8417C15.6192 13.0059 15.3921 12.1639 14.8857 11.4916C13.9136 10.3729 12.6019 9.60322 11.1512 9.30029" stroke="#339FD9" stroke-width="1.5" stroke-linecap="round" stroke-linejoin="round"/>
<path d="M10.6043 7.53171C11.7679 6.70626 13.0108 6.48226 14.9803 7.30553C17.4806 8.35134 17.4719 5.25463 15.9766 3.64955C15.4424 2.99911 14.6774 2.58027 13.8417 2.48052C13.0059 2.38078 12.1639 2.60784 11.4916 3.11428C10.3729 4.08638 9.60322 5.39804 9.30029 6.8488" stroke="#339FD9" stroke-width="1.5" stroke-linecap="round" stroke-linejoin="round"/>
</svg>
