<svg width="38" height="38" viewBox="0 0 38 38" fill="none" xmlns="http://www.w3.org/2000/svg">
<rect x="0.25" y="0.25" width="37.5" height="37.5" rx="1.75" stroke="#89B05F" stroke-width="0.5"/>
<rect x="2.5" y="2.5" width="33" height="33" rx="1.5" stroke="#89B05F"/>
<circle cx="19" cy="19" r="9.5" stroke="#89B05F"/>
<g clip-path="url(#clip0_227_9401)">
<path d="M24.82 14.8889C24.4867 14.5417 24.0667 14.2778 23.6133 14.1319C23.34 14.0417 23.0467 14 22.76 14C21.98 14 21.2467 14.3194 20.7 14.8889L18.9933 16.6667L17.2867 14.8889L17.2133 14.8125C16.76 14.375 16.1867 14.0972 15.58 14.0208C15.46 14.0069 15.34 14 15.2267 14C14.4533 14 13.7267 14.3125 13.18 14.875C13.1667 14.8889 13.1533 14.9028 13.1333 14.9236L13.0133 15.1042L15.78 17.9861C15.7133 17.9722 15.6467 17.9583 15.58 17.9514C15.4667 17.9375 15.3467 17.9306 15.2267 17.9306C14.9733 17.9306 14.7133 17.9653 14.4733 18.0347C13.9933 18.1667 13.5533 18.4306 13.1933 18.7917C13.18 18.8056 13.1733 18.8125 13.16 18.8264L13 19L13.1533 19.1806C13.16 19.1875 13.1667 19.1944 13.1733 19.2014C13.1733 19.2014 13.18 19.2083 13.1867 19.2153C13.5467 19.5764 13.9867 19.8403 14.4667 19.9722C14.7133 20.0417 14.9667 20.0764 15.22 20.0764C15.4733 20.0764 15.46 20.0694 15.5733 20.0556C15.64 20.0486 15.7067 20.0347 15.7733 20.0208L13.2067 22.6944C13.1933 22.7083 13.1733 22.7292 13.16 22.7431L13 22.9167L13.1467 23.0972C13.1533 23.1111 13.1667 23.1181 13.1733 23.1319C13.72 23.6944 14.4467 24.0069 15.22 24.0069C15.9933 24.0069 15.46 24 15.5733 23.9861C16.2133 23.9028 16.82 23.5972 17.28 23.1181L19.1533 21.1667L19.1667 21.1528C19.1667 21.1528 19.1733 21.1389 19.18 21.1389L25 15.0764L24.82 14.8889ZM15.5133 19.5347C15.42 19.5486 15.32 19.5556 15.22 19.5556C15.0067 19.5556 14.8 19.5278 14.5933 19.4722C14.2733 19.3819 13.9667 19.2222 13.7067 19.0069C13.9667 18.7917 14.2667 18.6319 14.5933 18.5417C14.7933 18.4861 15.0067 18.4583 15.22 18.4583C15.4333 18.4583 15.42 18.4583 15.5133 18.4792C15.96 18.5347 16.38 18.7222 16.7267 19.0139C16.38 19.3056 15.9533 19.4931 15.5067 19.5486L15.5133 19.5347ZM17.5533 21.6181C17.5467 21.6458 17.54 21.6736 17.5267 21.7014C17.5133 21.75 17.5 21.7917 17.48 21.8333C17.36 22.1736 17.1667 22.4792 16.9267 22.7361C16.5467 23.1319 16.0467 23.3889 15.5133 23.4514C15.42 23.4653 15.32 23.4722 15.22 23.4722C14.66 23.4722 14.1267 23.2778 13.7 22.9097L17.0933 19.375C17.1133 19.4028 17.14 19.4306 17.16 19.4653C17.18 19.4931 17.2 19.5278 17.2267 19.5556C17.2267 19.5625 17.24 19.5764 17.24 19.5833C17.2533 19.6042 17.2667 19.6319 17.2867 19.6528C17.2867 19.6667 17.3 19.6736 17.3067 19.6875C17.32 19.7083 17.3333 19.7292 17.3467 19.7569C17.3467 19.7708 17.36 19.7847 17.3667 19.7917C17.38 19.8125 17.3867 19.8333 17.4 19.8611C17.4 19.875 17.4133 19.8889 17.42 19.8958C17.4333 19.9167 17.44 19.9444 17.4533 19.9653C17.4533 19.9792 17.46 19.9861 17.4667 20C17.48 20.0278 17.4867 20.0556 17.5 20.0833C17.5 20.0903 17.5 20.0972 17.5067 20.1042C17.52 20.1389 17.5333 20.1736 17.54 20.2153C17.54 20.2292 17.54 20.2361 17.5467 20.25C17.5533 20.2778 17.56 20.2986 17.5667 20.3264C17.5667 20.3403 17.5733 20.3542 17.58 20.375C17.58 20.3958 17.5867 20.4167 17.5933 20.4444C17.5933 20.4583 17.5933 20.4792 17.6 20.4931C17.6 20.5139 17.6067 20.5347 17.6133 20.5556C17.6133 20.5694 17.6133 20.5903 17.62 20.6042C17.62 20.625 17.62 20.6458 17.6267 20.6667C17.6267 20.6806 17.6267 20.7014 17.6267 20.7153C17.6267 20.7361 17.6267 20.7639 17.6267 20.7847C17.6267 20.7986 17.6267 20.8194 17.6267 20.8333C17.6267 20.8611 17.6267 20.8958 17.6267 20.9306C17.6267 20.9375 17.6267 20.9444 17.6267 20.9514C17.6267 21.1736 17.6 21.3889 17.5467 21.6042L17.5533 21.6181ZM19.4733 19.4931C19.38 19.9722 19.16 20.4167 18.82 20.7708L18.08 21.5417C18.0867 21.4861 18.1 21.4306 18.1067 21.375C18.1067 21.3611 18.1067 21.3472 18.1067 21.3403C18.1067 21.2917 18.12 21.2431 18.12 21.1944C18.12 21.1806 18.12 21.1597 18.12 21.1458C18.12 21.0833 18.12 21.0278 18.12 20.9653C18.12 20.6042 18.06 20.2569 17.9467 19.9236C17.8333 19.5972 17.6667 19.2917 17.4467 19.0208C17.4133 18.9861 17.1933 18.7361 17.16 18.7014H17.1533C17.1533 18.6944 17.0933 18.6319 17.0933 18.6319L13.7 15.0833C14.2 14.6597 14.8467 14.4583 15.5133 14.5417C16.0467 14.6111 16.5467 14.8611 16.9267 15.2569L18.8 17.2083L18.8133 17.2222C18.8133 17.2222 18.82 17.2292 18.8267 17.2361C19.2733 17.7083 19.52 18.3403 19.52 19C19.52 19.6597 19.5067 19.3333 19.4733 19.4931ZM19.9667 19.5764C19.9667 19.5486 19.9733 19.5278 19.98 19.5C19.98 19.4792 19.9867 19.4583 19.9867 19.4375C19.9867 19.4097 19.9933 19.375 20 19.3472C20 19.3264 20 19.3125 20 19.2917C20 19.2569 20 19.2292 20.0067 19.1944C20.0067 19.1806 20.0067 19.1597 20.0067 19.1458C20.0067 19.0972 20.0067 19.0486 20.0067 19C20.0067 18.9514 20.0067 18.9028 20.0067 18.8542C20.0067 18.8403 20.0067 18.8194 20.0067 18.8056C20.0067 18.7708 20.0067 18.7431 20.0067 18.7083C20.0067 18.6875 20.0067 18.6736 20.0067 18.6528C20.0067 18.625 20.0067 18.5972 20 18.5694C20 18.5486 20 18.5278 19.9933 18.5139C19.9933 18.4861 19.9867 18.4583 19.98 18.4306C19.98 18.4097 19.9733 18.3889 19.9667 18.375C19.9667 18.3472 19.9533 18.3194 19.9467 18.2986C19.9467 18.2778 19.94 18.2569 19.9333 18.2431C19.9333 18.2153 19.92 18.1875 19.9133 18.1667C19.9133 18.1458 19.9 18.1319 19.9 18.1111C19.8933 18.0833 19.8867 18.0556 19.8733 18.0278C19.8733 18.0069 19.86 17.9931 19.8533 17.9722C19.84 17.9444 19.8333 17.9167 19.82 17.8819C19.82 17.8681 19.8067 17.8542 19.8067 17.8403C19.7867 17.7986 19.7733 17.7569 19.7533 17.7153C19.7533 17.7153 19.7533 17.7153 19.7533 17.7083C19.7333 17.6667 19.72 17.6319 19.7 17.5903C19.6933 17.5764 19.6867 17.5625 19.68 17.5486C19.6667 17.5208 19.6533 17.4931 19.64 17.4653C19.6333 17.4514 19.62 17.4306 19.6133 17.4167C19.6 17.3958 19.5867 17.3681 19.5733 17.3472C19.56 17.3333 19.5533 17.3125 19.54 17.2986C19.5267 17.2778 19.5133 17.2569 19.4933 17.2292C19.48 17.2153 19.4733 17.1944 19.46 17.1806C19.4467 17.1597 19.4267 17.1389 19.4133 17.1181C19.4 17.1042 19.3867 17.0833 19.3733 17.0694C19.3733 17.0625 19.36 17.0556 19.3533 17.0417L21.0667 15.2569C21.52 14.7847 22.1267 14.5208 22.7733 14.5208C23.42 14.5208 23.2533 14.5556 23.48 14.6319C23.7733 14.7292 24.0533 14.8819 24.2933 15.0833L19.98 19.5694L19.9667 19.5764Z" fill="#89B05F"/>
</g>
<defs>
<clipPath id="clip0_227_9401">
<rect width="12" height="10" fill="white" transform="translate(13 14)"/>
</clipPath>
</defs>
</svg>
