<svg width="38" height="38" viewBox="0 0 38 38" fill="none" xmlns="http://www.w3.org/2000/svg">
<g clip-path="url(#clip0_252_2197)">
<path d="M24.4948 5.76849C24.375 6.09694 24.0117 6.26611 23.6832 6.14623C17.9088 4.03978 11.2733 6.03728 7.67919 11.3011C7.48233 11.5895 7.08868 11.6644 6.79948 11.467C6.51076 11.2699 6.43654 10.876 6.63364 10.5873C10.5573 4.84076 17.8038 2.65407 24.117 4.95691C24.4455 5.07671 24.6146 5.44005 24.4948 5.76849ZM5.58959 13.5003H15.8294C16.1245 12.0238 17.4304 10.9076 18.9924 10.9076C20.771 10.9076 22.218 12.3547 22.218 14.1333C22.218 15.912 20.771 17.3591 18.9924 17.3591C17.4304 17.3591 16.1244 16.2429 15.8294 14.7663H5.97501C3.09194 23.6131 9.72306 32.6987 18.9924 32.6987C27.7094 32.6987 34.2921 24.585 32.3434 15.9753C32.2663 15.6343 32.4802 15.2954 32.8211 15.2183C33.1621 15.1408 33.501 15.355 33.5782 15.6959C35.7058 25.0966 28.5198 33.9647 18.9923 33.9647C8.66627 33.9647 1.39369 23.667 4.92882 13.9137C5.0301 13.6345 5.30703 13.4707 5.58959 13.5003ZM17.0327 14.1333C17.0327 15.2139 17.9117 16.0931 18.9924 16.0931C20.073 16.0931 20.952 15.214 20.952 14.1333C20.952 13.0528 20.073 12.1736 18.9924 12.1736C17.9117 12.1736 17.0327 13.0528 17.0327 14.1333ZM22.7736 26.3673C22.7736 27.5333 21.8251 28.4819 20.6591 28.4819H17.3257C16.1597 28.4819 15.2111 27.5334 15.2111 26.3673C15.2111 25.2014 16.1597 24.2528 17.3257 24.2528H20.6591C21.8251 24.2528 22.7736 25.2014 22.7736 26.3673ZM21.5076 26.3673C21.5076 25.8995 21.127 25.5188 20.6591 25.5188H17.3257C16.8578 25.5188 16.4771 25.8995 16.4771 26.3673C16.4771 26.8352 16.8578 27.2159 17.3257 27.2159H20.6591C21.127 27.2159 21.5076 26.8352 21.5076 26.3673ZM23.7917 14.1333C23.7917 14.4829 24.0752 14.7663 24.4247 14.7663H28.7248C29.0743 14.7663 29.3578 14.4829 29.3578 14.1333C29.3578 13.7837 29.0743 13.5003 28.7248 13.5003H24.4247C24.0751 13.5003 23.7917 13.7837 23.7917 14.1333ZM36.3676 13.038C36.0332 13.1401 35.8449 13.4938 35.9469 13.8282C39.4272 25.2295 30.8492 36.734 18.9924 36.734C9.21935 36.734 1.26844 28.7831 1.26844 19.0101C1.26844 5.9273 15.0537 -2.67727 26.7971 3.09258C27.111 3.24663 27.4902 3.11734 27.6444 2.80354C27.7985 2.48981 27.6692 2.1104 27.3554 1.95627C14.8333 -4.19559 0.00244141 4.8929 0.00244141 19.0101C0.00244141 29.5056 8.49576 38 18.9924 38C31.7498 38 40.8829 25.6623 37.1578 13.4585C37.0557 13.1242 36.7018 12.9362 36.3676 13.038ZM31.7108 12.2768C31.2469 11.8131 31.2469 11.0622 31.7108 10.5983C32.1745 10.1344 32.9252 10.1344 33.3892 10.5983C33.3892 10.5983 33.3895 10.5987 33.3892 10.5983C33.853 11.0622 33.8531 11.8129 33.3892 12.2768C32.9264 12.7395 32.1735 12.7395 31.7108 12.2768ZM35.4593 9.42334C35.7065 9.17616 35.7066 8.77539 35.4593 8.52812C33.8513 6.92015 31.2487 6.91992 29.6405 8.5282C29.3934 8.77539 29.3934 9.17616 29.6405 9.42334C29.8877 9.67045 30.2885 9.67053 30.5358 9.42326C31.649 8.31006 33.4507 8.30998 34.5641 9.42334C34.8114 9.67053 35.2121 9.67045 35.4593 9.42334ZM27.2907 7.0735C27.5379 7.3206 27.9387 7.3206 28.1858 7.0735C30.5977 4.66146 34.5017 4.66107 36.914 7.0735C37.1613 7.32068 37.562 7.3206 37.8091 7.0735C38.0564 6.82623 38.0564 6.42555 37.8091 6.17828C34.9023 3.27148 30.1977 3.27124 27.2906 6.17828C27.0434 6.42547 27.0434 6.82631 27.2907 7.0735Z" fill="#89B05F"/>
</g>
<defs>
<clipPath id="clip0_252_2197">
<rect width="38" height="38" fill="white"/>
</clipPath>
</defs>
</svg>
