<svg width="38" height="38" viewBox="0 0 38 38" fill="none" xmlns="http://www.w3.org/2000/svg">
<path d="M15.2497 2.68115C13.9502 2.68115 12.8931 3.73832 12.8931 5.03775C12.8931 6.33724 13.9502 7.39434 15.2497 7.39434C16.5491 7.39434 17.6063 6.33717 17.6063 5.03775C17.6063 3.73832 16.5492 2.68115 15.2497 2.68115ZM15.2497 6.28106C14.5641 6.28106 14.0063 5.7233 14.0063 5.03775C14.0063 4.35219 14.5641 3.79443 15.2497 3.79443C15.9352 3.79443 16.493 4.35219 16.493 5.03775C16.493 5.7233 15.9353 6.28106 15.2497 6.28106Z" fill="#89B05F"/>
<path d="M8.87466 2.68115C7.57524 2.68115 6.51807 3.73832 6.51807 5.03775C6.51807 6.33724 7.57524 7.39434 8.87466 7.39434C10.1741 7.39434 11.2313 6.33717 11.2313 5.03775C11.2313 3.73832 10.1741 2.68115 8.87466 2.68115ZM8.87466 6.28106C8.1891 6.28106 7.63135 5.7233 7.63135 5.03775C7.63135 4.35219 8.1891 3.79443 8.87466 3.79443C9.56022 3.79443 10.118 4.35219 10.118 5.03775C10.118 5.7233 9.56022 6.28106 8.87466 6.28106Z" fill="#89B05F"/>
<path d="M29.3122 2.68115H22.9096C22.2099 2.68115 21.6406 3.25041 21.6406 3.95014V6.12542C21.6406 6.82516 22.2099 7.39441 22.9096 7.39441H29.3122C30.012 7.39441 30.5812 6.82516 30.5812 6.12542V3.95014C30.5812 3.25041 30.012 2.68115 29.3122 2.68115ZM29.468 6.12542C29.468 6.21129 29.3981 6.28113 29.3122 6.28113H22.9096C22.8237 6.28113 22.7539 6.21129 22.7539 6.12542V3.95014C22.7539 3.86427 22.8237 3.79443 22.9096 3.79443H29.3122C29.3981 3.79443 29.468 3.86427 29.468 3.95014V6.12542Z" fill="#89B05F"/>
<path d="M18.9996 11.4028C16.7165 11.4028 14.5561 12.139 12.7522 13.5319C12.5088 13.7197 12.4639 14.0693 12.6518 14.3127C12.8397 14.556 13.1893 14.6009 13.4326 14.4131C15.0398 13.1721 16.9649 12.5161 18.9996 12.5161C24.0274 12.5161 28.1179 16.6065 28.1179 21.6343C28.1179 26.6621 24.0274 30.7526 18.9996 30.7526C13.9718 30.7526 9.88142 26.6621 9.88142 21.6343C9.88142 19.5416 10.6085 17.4972 11.9286 15.8777C12.1228 15.6394 12.0871 15.2888 11.8488 15.0945C11.6105 14.9003 11.2599 14.936 11.0657 15.1743C9.5841 16.9918 8.76807 19.2861 8.76807 21.6343C8.76807 27.276 13.3579 31.8658 18.9996 31.8658C24.6412 31.8658 29.2311 27.276 29.2311 21.6343C29.2311 15.9927 24.6413 11.4028 18.9996 11.4028Z" fill="#89B05F"/>
<path d="M35.1997 33.6788V4.27812C35.1997 1.91915 33.2808 0 30.9223 0H7.07718C4.71866 0 2.7998 1.91915 2.7998 4.27812V33.7227C2.7998 36.0812 4.71866 38 7.0771 38H30.9222C33.2596 38 35.164 36.1151 35.198 33.7857C35.2004 33.765 35.2008 33.6934 35.1997 33.6788ZM34.0864 33.166H29.4782C29.1708 33.166 28.9215 33.4152 28.9215 33.7226C28.9215 34.03 29.1708 34.2793 29.4782 34.2793H34.0374C33.7736 35.7595 32.4771 36.8867 30.9223 36.8867H7.07718C5.52237 36.8867 4.22592 35.7595 3.96214 34.2793H27.2515C27.559 34.2793 27.8082 34.0301 27.8082 33.7227C27.8082 33.4153 27.559 33.1661 27.2515 33.1661H3.91316V10.0756H34.0864V33.166ZM34.0864 8.96243H3.91309V4.27812C3.91309 2.53301 5.33252 1.11328 7.07718 1.11328H30.9223C32.667 1.11328 34.0864 2.53301 34.0864 4.27812V8.96243Z" fill="#89B05F"/>
<path d="M19 13.9902C14.7851 13.9902 11.356 17.4194 11.356 21.6342C11.356 22.0051 11.3827 22.3761 11.4353 22.7368C11.4353 22.7371 11.4354 22.7374 11.4354 22.7377C11.6957 24.5381 12.5975 26.1919 13.975 27.3945C15.3664 28.6093 17.151 29.2783 19 29.2783C20.849 29.2783 22.6336 28.6093 24.025 27.3945C25.4024 26.192 26.3041 24.5384 26.5645 22.738C26.5646 22.7377 26.5646 22.7373 26.5647 22.7369C26.6173 22.3765 26.6441 22.0055 26.6441 21.6342C26.6441 17.4193 23.2149 13.9902 19 13.9902ZM23.2929 26.5558C22.1042 27.5935 20.5797 28.165 19 28.165C17.4202 28.165 15.8957 27.5935 14.7072 26.5558C13.6166 25.6038 12.8749 24.3213 12.595 22.9153L12.9382 22.6817C13.5118 22.2915 14.288 22.2912 14.8619 22.6817C15.8095 23.3265 17.0902 23.3267 18.0381 22.6817C18.6108 22.2923 19.3891 22.292 19.9618 22.6817C20.9098 23.3267 22.19 23.3266 23.1383 22.6815C23.7132 22.2905 24.487 22.2903 25.0616 22.6816L25.4048 22.9153C25.1251 24.3213 24.3835 25.6038 23.2929 26.5558ZM25.5307 21.6614C25.5268 21.6591 25.5226 21.6571 25.5186 21.6548C25.2198 21.481 24.8932 21.3691 24.5534 21.3094C24.128 21.2346 23.6801 21.2694 23.2681 21.3965C22.9995 21.4794 22.7439 21.603 22.5117 21.7612C21.9376 22.1518 21.1614 22.1513 20.588 21.7612C20.1174 21.4411 19.5683 21.2718 19 21.2718C18.4352 21.2718 17.8787 21.4437 17.4118 21.7612C16.8368 22.1523 16.0629 22.1521 15.4882 21.7612C15.0175 21.441 14.4684 21.2717 13.9001 21.2717C13.4069 21.2717 12.9071 21.4047 12.4813 21.6549C12.4774 21.6572 12.4732 21.6591 12.4693 21.6614C12.4692 21.6523 12.4692 21.6432 12.4692 21.6341C12.4693 18.0332 15.3989 15.1034 19 15.1034C22.6011 15.1034 25.5308 18.0332 25.5308 21.6342C25.5308 21.6432 25.5308 21.6524 25.5307 21.6614Z" fill="#89B05F"/>
</svg>
