<svg width="38" height="38" viewBox="0 0 38 38" fill="none" xmlns="http://www.w3.org/2000/svg">
<path d="M29.4634 4.27499C29.1316 4.27499 28.8628 4.54381 28.8628 4.87564V10.8416V13.9734H15.2564H9.13678V2.95479C9.13678 1.98795 9.92334 1.20123 10.8903 1.20123H27.1092C28.0761 1.20123 28.8628 1.9878 28.8628 2.95479C28.8628 3.28655 29.1316 3.55544 29.4634 3.55544C29.7952 3.55544 30.0641 3.28662 30.0641 2.95479C30.064 1.32547 28.7385 0 27.1092 0H10.8903C9.26102 0 7.93555 1.32547 7.93555 2.95479V14.5742V16.5763V32.4771C7.93555 33.6794 8.65769 34.7154 9.69059 35.1763V36.4383C9.69059 37.2994 10.3912 37.9999 11.2522 37.9999H12.5335C13.3946 37.9999 14.0951 37.2994 14.0951 36.4383V35.432H14.8865C15.2183 35.432 15.4871 35.1631 15.4871 34.8313C15.4871 34.4996 15.2183 34.2307 14.8865 34.2307H13.5007C13.4986 34.2307 13.4966 34.2304 13.4945 34.2304H10.8782C9.91689 34.2237 9.13685 33.4399 9.13685 32.4772V17.1769H14.2955C15.1566 17.1769 15.8571 16.4764 15.8571 15.6153V15.1748H28.8628V32.4771C28.8628 33.4398 28.0829 34.2236 27.1215 34.2303H24.5051C24.503 34.2303 24.501 34.2305 24.4989 34.2306H16.862C16.5302 34.2306 16.2613 34.4994 16.2613 34.8312C16.2613 35.1631 16.5301 35.4319 16.862 35.4319H23.9045V36.4382C23.9045 37.2993 24.6051 37.9998 25.4661 37.9998H26.7474C27.6085 37.9998 28.309 37.2993 28.309 36.4382V35.1763C29.342 34.7154 30.0641 33.6793 30.0641 32.4771V14.5742V10.8416V4.87564C30.064 4.54389 29.7952 4.27499 29.4634 4.27499ZM10.8918 35.4319H12.8938V36.4382C12.8938 36.6369 12.7321 36.7986 12.5334 36.7986H11.2522C11.0535 36.7986 10.8917 36.6369 10.8917 36.4382V35.4319H10.8918ZM14.6558 15.6152C14.6558 15.8139 14.4941 15.9756 14.2954 15.9756H9.13678V15.1748H14.6557V15.6152H14.6558ZM27.1076 36.4383C27.1076 36.637 26.9461 36.7987 26.7472 36.7987H25.466C25.2673 36.7987 25.1056 36.637 25.1056 36.4383V35.432H27.1076V36.4383H27.1076Z" fill="#89B05F"/>
<path d="M26.3682 3.40729V11.7135C26.3682 12.0452 26.637 12.3141 26.9688 12.3141C27.3006 12.3141 27.5694 12.0453 27.5694 11.7135V3.40729C27.5694 3.07553 27.3006 2.80664 26.9688 2.80664C26.6371 2.80664 26.3682 3.07553 26.3682 3.40729Z" fill="#89B05F"/>
<path d="M26.3682 31.3335C26.3682 31.6654 26.637 31.9342 26.9688 31.9342C27.3006 31.9342 27.5694 31.6654 27.5694 31.3335V30.9302C27.5694 30.5985 27.3006 30.3296 26.9688 30.3296C26.6371 30.3296 26.3682 30.5984 26.3682 30.9302V31.3335Z" fill="#89B05F"/>
<path d="M26.9688 29.5817C27.3006 29.5817 27.5694 29.3129 27.5694 28.9811V17.3956C27.5694 17.0637 27.3006 16.7949 26.9688 16.7949C26.6371 16.7949 26.3682 17.0637 26.3682 17.3956V28.9811C26.3682 29.3129 26.6371 29.5817 26.9688 29.5817Z" fill="#89B05F"/>
<path d="M11.4693 4.77734C11.1375 4.77734 10.8687 5.04616 10.8687 5.378V10.3216C10.8687 10.6534 11.1375 10.9223 11.4693 10.9223C11.8011 10.9223 12.07 10.6535 12.07 10.3216V5.97865H12.4304C12.7621 5.97865 13.031 5.70983 13.031 5.378C13.031 5.04616 12.7622 4.77734 12.4304 4.77734H11.4693Z" fill="#89B05F"/>
</svg>
