<svg width="38" height="38" viewBox="0 0 38 38" fill="none" xmlns="http://www.w3.org/2000/svg">
<g clip-path="url(#clip0_252_2200)">
<path d="M28.2861 12.3857V16.3757" stroke="#89B05F" stroke-miterlimit="10" stroke-linecap="round"/>
<path d="M9.19141 16.3756V2.52938C9.19141 2.01602 9.39534 1.52368 9.75834 1.16068C10.1213 0.797683 10.6137 0.59375 11.127 0.59375H26.3033C26.8166 0.59375 27.309 0.797683 27.672 1.16068C28.035 1.52368 28.2389 2.01602 28.2389 2.52938V10.3075" stroke="#89B05F" stroke-miterlimit="10" stroke-linecap="round"/>
<path d="M8.4313 23.0491C7.877 23.0491 7.3454 22.829 6.95345 22.437C6.5615 22.0451 6.34131 21.5135 6.34131 20.9592V18.9048" stroke="#89B05F" stroke-miterlimit="10" stroke-linecap="round"/>
<path d="M31.16 18.4536V20.9593C31.16 21.5136 30.9398 22.0452 30.5478 22.4371C30.1559 22.8291 29.6243 23.0492 29.07 23.0492H10.6162" stroke="#89B05F" stroke-miterlimit="10" stroke-linecap="round"/>
<path d="M14.1076 26.5879C14.3681 28.5513 14.2512 30.5464 13.7632 32.466C13.0507 34.6273 14.6301 37.3823 14.6301 37.3823" stroke="#89B05F" stroke-miterlimit="10" stroke-linecap="round"/>
<path d="M18.8933 26.5879C19.1537 28.5513 19.0368 30.5464 18.5489 32.466C17.8364 34.6273 19.4158 37.3823 19.4158 37.3823" stroke="#89B05F" stroke-miterlimit="10" stroke-linecap="round"/>
<path d="M23.6433 26.5645C23.9037 28.5279 23.7868 30.523 23.2989 32.4426C22.5864 34.6038 24.1658 37.3588 24.1658 37.3588" stroke="#89B05F" stroke-miterlimit="10" stroke-linecap="round"/>
<path d="M2.96875 21.161C7.35132 17.0989 13.0823 14.8027 19.0573 14.715C25.0322 14.6273 30.8282 16.7543 35.3281 20.686" stroke="#89B05F" stroke-miterlimit="10" stroke-linecap="round"/>
<path d="M12.7539 20.686H14.0364" stroke="#89B05F" stroke-miterlimit="10" stroke-linecap="round"/>
<path d="M23.4888 20.686H24.7713" stroke="#89B05F" stroke-miterlimit="10" stroke-linecap="round"/>
<path d="M18.1211 20.686H19.4036" stroke="#89B05F" stroke-miterlimit="10" stroke-linecap="round"/>
<path d="M11.875 2.96875V10.6875M11.875 13.6562V13.0625" stroke="#89B05F" stroke-linecap="round"/>
</g>
<defs>
<clipPath id="clip0_252_2200">
<rect width="33.5469" height="37.9881" fill="white" transform="translate(2.375)"/>
</clipPath>
</defs>
</svg>
