<svg width="38" height="38" viewBox="0 0 38 38" fill="none" xmlns="http://www.w3.org/2000/svg">
<path d="M8.33585 26.7266C6.1645 26.7266 4.39795 28.4931 4.39795 30.6645C4.39795 32.8359 6.1645 34.6024 8.33585 34.6024C10.5073 34.6024 12.2738 32.8359 12.2738 30.6645C12.2738 28.493 10.5073 26.7266 8.33585 26.7266ZM8.33585 33.4891C6.77837 33.4891 5.51123 32.2219 5.51123 30.6645C5.51123 29.107 6.77837 27.8398 8.33585 27.8398C9.8934 27.8398 11.1605 29.1069 11.1605 30.6645C11.1605 32.222 9.8934 33.4891 8.33585 33.4891Z" fill="#89B05F"/>
<path d="M31.2283 12.3081L30.7704 12.766L21.1957 3.19141C19.1378 1.13347 16.3976 7.42188e-05 13.4797 0C13.4795 0 13.4795 0 13.4793 0C10.5615 0 7.82122 1.13339 5.76366 3.19141C3.70245 5.25261 2.56728 7.99284 2.56728 10.9074C2.56728 13.822 3.70245 16.5623 5.76358 18.6234L6.09014 18.9501C5.47086 19.4482 4.90895 20.0233 4.41495 20.6686C3.13898 22.3349 2.43309 24.3162 2.36414 26.4083C1.50573 27.6094 1 29.0788 1 30.6643C1 34.7092 4.29079 38 8.33571 38C9.00382 38 9.65116 37.9097 10.2667 37.7416H28.6832C30.452 37.7416 31.8329 36.2004 31.6371 34.4333C31.2807 31.2254 30.2722 28.3407 28.6397 25.8594C24.92 20.2054 18.7552 17.8564 15.4115 16.9595C14.7811 16.7904 14.1332 16.6829 13.4857 16.64C13.4856 16.64 13.4855 16.64 13.4855 16.64C12.5444 16.5774 11.6072 16.6473 10.6915 16.8477L9.11552 15.2717C7.94999 14.1062 7.30807 12.5563 7.30807 10.9075C7.30807 9.25872 7.94992 7.7088 9.11545 6.54335C11.5221 4.1374 15.4373 4.1374 17.8432 6.54327L23.7582 12.4581C23.9756 12.6755 24.3281 12.6754 24.5454 12.4581C24.7628 12.2407 24.7628 11.8883 24.5454 11.6709L23.3735 10.4991L25.1515 8.72159L29.9832 13.5533L28.2057 15.3308L26.1061 13.2314C25.8887 13.014 25.5363 13.0141 25.319 13.2314C25.1016 13.4488 25.1016 13.8013 25.319 14.0187L27.4185 16.118L26.9604 16.5762C26.247 17.2896 25.8541 18.238 25.8541 19.2469C25.8541 20.2557 26.2469 21.2042 26.9604 21.9176C27.5337 22.491 28.4667 22.491 29.04 21.9176L36.5699 14.3878C37.1432 13.8144 37.1432 12.8815 36.5699 12.3081C35.0971 10.8354 32.7009 10.8355 31.2283 12.3081ZM14.0051 17.8104C14.3814 17.8611 14.7556 17.9361 15.1231 18.0347C18.2385 18.8704 23.9156 21.0201 27.4559 26.0968L26.9511 26.6016C25.9739 27.5788 24.3729 27.5843 23.3788 26.5734C21.2435 24.3983 18.5271 22.8524 15.6716 21.8241C14.6755 21.4652 14.0052 20.5158 14.0052 19.4632V17.8104H14.0051ZM12.8918 17.7312V19.4631C12.8918 20.9921 13.8654 22.3566 15.2942 22.8714C18.0164 23.8518 20.5828 25.3146 22.5846 27.3536C24.0011 28.7941 26.3113 28.8158 27.7383 27.3889L28.0749 27.0522C29.3959 29.252 30.2213 31.7728 30.5306 34.556C30.6503 35.6361 29.819 36.6282 28.6832 36.6282H12.6038C14.3071 35.4017 15.4439 33.4928 15.6405 31.3351C15.6405 31.3346 15.6405 31.3342 15.6406 31.3337C15.8202 29.3576 15.1934 27.4374 13.9776 25.9758C13.7808 25.7392 13.4298 25.7074 13.1936 25.9038C12.958 26.0998 12.9245 26.4506 13.1217 26.6878C14.0287 27.7784 14.5581 29.1831 14.5581 30.6642C14.5581 34.0664 11.7914 36.8866 8.33571 36.8866C4.90465 36.8866 2.11328 34.0953 2.11328 30.6642C2.11328 25.8091 7.48123 22.8189 11.6033 25.3682C11.8647 25.5298 12.2078 25.449 12.3695 25.1875C12.5312 24.9261 12.4503 24.583 12.1888 24.4213C9.55319 22.7913 6.07448 22.9807 3.63477 25.0281C3.89453 23.6959 4.45778 22.4438 5.29882 21.3454C7.39313 18.6104 10.1345 18.1826 10.3825 18.0729C11.1641 17.8492 12.0167 17.7251 12.8918 17.7312ZM8.32821 5.75604C6.95242 7.13183 6.19472 8.96132 6.19472 10.9074C6.19472 12.8535 6.95242 14.6831 8.32821 16.0589L9.45144 17.1821C9.40854 17.1951 9.18707 17.2646 8.96486 17.3444C8.2747 17.5914 7.62002 17.9094 7.00912 18.2948L6.55082 17.8363C4.69988 15.9854 3.68048 13.5247 3.68048 10.9075C3.68048 8.29031 4.6998 5.82959 6.55082 3.97864C8.39827 2.13075 10.859 1.11321 13.4797 1.11328C16.1002 1.11336 18.5609 2.13089 20.4085 3.97857L24.3642 7.93428L22.5862 9.71182L18.6304 5.75604C15.7905 2.91613 11.169 2.91613 8.32821 5.75604ZM35.7826 13.6005L28.2527 21.1304C28.1134 21.2696 27.8867 21.2696 27.7475 21.1304C27.2443 20.6272 26.9673 19.9583 26.9673 19.2469C26.9673 18.5354 27.2443 17.8665 27.7475 17.3633L32.0155 13.0953C32.5349 12.5759 33.2169 12.3164 33.899 12.3164C34.581 12.3164 35.2633 12.5761 35.7825 13.0953C35.9218 13.2345 35.9218 13.4612 35.7826 13.6005Z" fill="#89B05F"/>
</svg>
