<svg width="38" height="38" viewBox="0 0 38 38" fill="none" xmlns="http://www.w3.org/2000/svg">
<path d="M26.9175 0H11.0937C10.0572 0 9.07511 0.394577 8.32799 1.11096C8.10606 1.32405 8.0988 1.6763 8.3123 1.8978C8.52581 2.11958 8.87875 2.12654 9.10097 1.91374C9.63923 1.3974 10.3469 1.11328 11.0937 1.11328H26.9175C28.5036 1.11328 29.7939 2.40109 29.7939 3.98433V7.1337C29.7928 7.45898 29.7056 7.78021 29.5426 8.06114C29.3765 8.34526 29.1383 8.58067 28.8527 8.74274C27.8494 9.31329 27.2263 10.3837 27.2263 11.5364V13.5185C27.2263 13.8259 27.4758 14.0752 27.7841 14.0752C28.092 14.0752 28.3418 13.8259 28.3418 13.5185V11.5364C28.3418 10.7829 28.749 10.083 29.4047 9.71048C29.5415 9.63278 29.6716 9.54436 29.7939 9.44637V24.3603C29.6725 24.2629 29.5424 24.1744 29.4047 24.0962C29.0828 23.9132 28.8138 23.6471 28.627 23.3261C28.4403 23.0052 28.3415 22.6399 28.3415 22.27V15.7454C28.3415 15.4378 28.092 15.1888 27.7838 15.1888C27.4758 15.1888 27.226 15.4378 27.226 15.7454V22.27C27.226 22.8359 27.3771 23.3946 27.6623 23.8851C27.9479 24.3762 28.3598 24.7838 28.853 25.0639C29.4308 25.3921 29.7916 26.0085 29.7939 26.6727V29.3355C29.7939 30.9185 28.5036 32.2066 26.9175 32.2066H11.0937C9.50735 32.2066 8.21702 30.9185 8.21702 29.3355V26.6727C8.21964 26.0085 8.58013 25.3921 9.1579 25.0639C9.65143 24.7838 10.0631 24.3762 10.3486 23.8851C10.6341 23.3946 10.7849 22.8359 10.7849 22.27V11.5364C10.7849 10.3837 10.1615 9.31329 9.1579 8.74245C8.87294 8.58067 8.63445 8.34497 8.46945 8.06259C8.30562 7.78021 8.21848 7.45898 8.21702 7.1337V3.98433C8.21702 3.85532 8.22574 3.72572 8.24259 3.59932C8.28354 3.29462 8.06917 3.01456 7.76387 2.97368C7.45828 2.93309 7.17796 3.14676 7.137 3.45175C7.11347 3.62686 7.10156 3.80603 7.10156 3.98433V29.3353C7.10156 31.5322 8.8924 33.3196 11.0937 33.3196H12.9124V34.9399H11.9829C11.4603 34.9399 11.035 35.3641 11.035 35.8859V37.054C11.035 37.5756 11.46 38 11.9829 38H14.9577C15.4803 38 15.9056 37.5756 15.9056 37.054V35.8859C15.9056 35.3641 15.4803 34.9399 14.9577 34.9399H14.0279V33.3196H23.9831V34.9399H23.0532C22.5306 34.9399 22.1054 35.3641 22.1054 35.8859V37.054C22.1054 37.5756 22.5306 38 23.0532 38H26.0281C26.5507 38 26.9762 37.5756 26.9762 37.054V35.8859C26.9762 35.3641 26.5509 34.9399 26.0281 34.9399H25.0985V33.3196H26.9175C29.1185 33.3196 30.9094 31.5322 30.9094 29.3353V3.98433C30.9094 1.78734 29.1188 0 26.9175 0V0ZM8.60598 9.7099C9.2619 10.083 9.66944 10.7829 9.66944 11.5364V22.2697C9.66944 22.6396 9.57068 23.0049 9.3839 23.3259C9.19741 23.6468 8.92842 23.9129 8.60627 24.0959C8.46858 24.1741 8.33874 24.2626 8.21702 24.36V9.44637C8.33932 9.54407 8.46916 9.63249 8.60598 9.7099ZM14.7901 36.8867H12.1505V36.0532H14.7901V36.8867ZM25.8608 36.8867H23.2208V36.0532H25.8608V36.8867Z" fill="#89B05F"/>
<path d="M19.0059 30.131C20.9179 30.131 22.4734 28.5784 22.4734 26.6702C22.4734 24.762 20.9179 23.2095 19.0059 23.2095C17.0936 23.2095 15.5381 24.762 15.5381 26.6702C15.5381 28.5784 17.0936 30.131 19.0059 30.131ZM19.0059 24.3228C20.3029 24.3228 21.3579 25.3757 21.3579 26.6702C21.3579 27.9647 20.3029 29.0177 19.0059 29.0177C17.7089 29.0177 16.6535 27.9647 16.6535 26.6702C16.6535 25.3757 17.7089 24.3228 19.0059 24.3228Z" fill="#89B05F"/>
<path d="M17.8839 27.2271H18.2255C18.5334 27.2271 18.7832 26.9777 18.7832 26.6704C18.7832 26.3628 18.5334 26.1138 18.2255 26.1138H17.8839C17.576 26.1138 17.3262 26.3628 17.3262 26.6704C17.3262 26.9777 17.576 27.2271 17.8839 27.2271Z" fill="#89B05F"/>
<path d="M17.3145 12.3382C17.0345 12.2098 16.7033 12.3321 16.5746 12.6116C16.2966 13.2149 16.1558 13.8072 16.1558 14.372C16.1558 15.9405 17.4342 17.2164 19.0057 17.2164C20.5769 17.2164 21.8554 15.9405 21.8554 14.372C21.8554 12.0445 19.4635 10.0369 19.3618 9.95251C19.1553 9.78146 18.8558 9.78146 18.6493 9.95251C18.6371 9.96265 18.3414 10.2088 17.9608 10.6161C17.7508 10.8411 17.7633 11.1934 17.9887 11.403C18.2138 11.6126 18.5668 11.6001 18.7768 11.3751C18.8584 11.2879 18.9354 11.209 19.0051 11.14C19.6024 11.732 20.7399 13.0361 20.7399 14.372C20.7399 15.3267 19.962 16.1031 19.0057 16.1031C18.0494 16.1031 17.2712 15.3267 17.2712 14.372C17.2712 13.969 17.3778 13.5333 17.5881 13.0767C17.7168 12.7972 17.5942 12.4667 17.3145 12.3382Z" fill="#89B05F"/>
<path d="M23.5626 5.51367C23.5626 5.20636 23.3131 4.95703 23.0049 4.95703H15.0069C14.699 4.95703 14.4492 5.20636 14.4492 5.51367C14.4492 5.82127 14.699 6.07031 15.0069 6.07031H23.0051C23.3131 6.07031 23.5626 5.82127 23.5626 5.51367Z" fill="#89B05F"/>
</svg>
