<svg width="38" height="38" viewBox="0 0 38 38" fill="none" xmlns="http://www.w3.org/2000/svg">
<g clip-path="url(#clip0_252_2203)">
<path d="M26.9887 5.05006C24.4555 3.96887 21.731 3.41162 18.9782 3.41162C16.2255 3.41162 13.501 3.96887 10.9677 5.05006C9.79993 5.58452 8.81125 6.44687 8.12107 7.53298C7.43089 8.61909 7.06873 9.88253 7.07831 11.1707V12.955C7.07831 13.0898 7.13167 13.2191 7.22663 13.3144C7.3216 13.4097 7.45039 13.4633 7.58469 13.4633C7.71899 13.4633 7.84779 13.4097 7.94275 13.3144C8.03772 13.2191 8.09107 13.0898 8.09107 12.955V11.1707C8.08111 10.0781 8.38731 9.00601 8.97253 8.08463C9.55774 7.16325 10.3968 6.43215 11.3879 5.98005C13.7911 4.95931 16.3741 4.43334 18.9836 4.43334C21.5931 4.43334 24.1761 4.95931 26.5793 5.98005C27.5566 6.43796 28.3815 7.16928 28.9548 8.0862C29.5282 9.00311 29.8256 10.0666 29.8115 11.1491V22.4929C29.8115 22.6277 29.8649 22.7569 29.9598 22.8522C30.0548 22.9476 30.1836 23.0011 30.3179 23.0011C30.4522 23.0011 30.581 22.9476 30.676 22.8522C30.7709 22.7569 30.8243 22.6277 30.8243 22.4929V11.1383C30.8377 9.86036 30.4828 8.6058 29.8023 7.52564C29.1218 6.44548 28.1447 5.58578 26.9887 5.05006Z" fill="#89B05F"/>
<path d="M30.3181 24.0069C30.2516 24.0069 30.1857 24.0201 30.1243 24.0456C30.0629 24.0712 30.007 24.1086 29.96 24.1558C29.913 24.203 29.8757 24.259 29.8502 24.3207C29.8248 24.3824 29.8117 24.4485 29.8117 24.5152V28.8408C26.4378 30.5264 22.7203 31.4038 18.9515 31.4038C15.1827 31.4038 11.4652 30.5264 8.09125 28.8408V14.999C8.09125 14.8642 8.0379 14.7349 7.94293 14.6396C7.84797 14.5443 7.71917 14.4907 7.58487 14.4907C7.45057 14.4907 7.32178 14.5443 7.22681 14.6396C7.13185 14.7349 7.07849 14.8642 7.07849 14.999V30.3006C7.06507 31.5786 7.41998 32.8331 8.10048 33.9133C8.78097 34.9934 9.75804 35.8531 10.914 36.3889C13.4548 37.4776 16.1889 38.0388 18.9515 38.0388C21.7141 38.0388 24.4481 37.4776 26.9889 36.3889C28.1449 35.8531 29.122 34.9934 29.8025 33.9133C30.483 32.8331 30.8379 31.5786 30.8244 30.3006V24.5585C30.8304 24.4882 30.8218 24.4174 30.799 24.3507C30.7763 24.2839 30.7399 24.2226 30.6923 24.1708C30.6446 24.1189 30.5868 24.0775 30.5223 24.0493C30.4579 24.0211 30.3883 24.0067 30.3181 24.0069ZM26.5795 35.4264C24.1666 36.4537 21.5725 36.9831 18.9515 36.9831C16.3305 36.9831 13.7363 36.4537 11.3235 35.4264C10.3461 34.9685 9.5213 34.2372 8.94795 33.3203C8.3746 32.4033 8.07713 31.3398 8.09125 30.2574V29.9546C11.4911 31.55 15.1984 32.3769 18.9515 32.3769C22.7045 32.3769 26.4118 31.55 29.8117 29.9546V30.2574C29.8258 31.3398 29.5283 32.4033 28.955 33.3203C28.3817 34.2372 27.5568 34.9685 26.5795 35.4264Z" fill="#89B05F"/>
<path d="M25.7389 7.15864C25.7389 7.02385 25.6856 6.89458 25.5906 6.79926C25.4957 6.70394 25.3668 6.65039 25.2325 6.65039C25.0982 6.65039 24.9694 6.70394 24.8745 6.79926C24.7795 6.89458 24.7261 7.02385 24.7261 7.15864C24.7261 7.23434 24.4676 7.61283 23.2501 7.95888C20.4188 8.65464 17.4622 8.65464 14.6309 7.95888C13.4134 7.61283 13.1549 7.23434 13.1549 7.15864C13.1549 7.02385 13.1015 6.89458 13.0065 6.79926C12.9116 6.70394 12.7828 6.65039 12.6485 6.65039C12.5142 6.65039 12.3854 6.70394 12.2904 6.79926C12.1954 6.89458 12.1421 7.02385 12.1421 7.15864C12.1421 8.7591 15.6544 9.49445 18.9297 9.49445C22.205 9.49445 25.7389 8.80236 25.7389 7.15864Z" fill="#89B05F"/>
<path d="M17.3245 33.9663H16.9582V33.5986C16.9582 33.4638 16.9049 33.3345 16.8099 33.2392C16.7149 33.1439 16.5861 33.0903 16.4518 33.0903C16.3175 33.0903 16.1887 33.1439 16.0938 33.2392C15.9988 33.3345 15.9455 33.4638 15.9455 33.5986V33.9663H15.5791C15.4448 33.9663 15.316 34.0198 15.2211 34.1151C15.1261 34.2104 15.0728 34.3397 15.0728 34.4745C15.0728 34.6093 15.1261 34.7386 15.2211 34.8339C15.316 34.9292 15.4448 34.9828 15.5791 34.9828H15.9455V35.3504C15.9455 35.4852 15.9988 35.6145 16.0938 35.7098C16.1887 35.8052 16.3175 35.8587 16.4518 35.8587C16.5861 35.8587 16.7149 35.8052 16.8099 35.7098C16.9049 35.6145 16.9582 35.4852 16.9582 35.3504V34.9828H17.3245C17.4588 34.9828 17.5876 34.9292 17.6826 34.8339C17.7776 34.7386 17.8309 34.6093 17.8309 34.4745C17.8309 34.3397 17.7776 34.2104 17.6826 34.1151C17.5876 34.0198 17.4588 33.9663 17.3245 33.9663Z" fill="#89B05F"/>
<path d="M22.324 33.9663H20.5786C20.4443 33.9663 20.3156 34.0199 20.2206 34.1152C20.1256 34.2105 20.0723 34.3398 20.0723 34.4746C20.0723 34.6094 20.1256 34.7386 20.2206 34.8339C20.3156 34.9293 20.4443 34.9828 20.5786 34.9828H22.324C22.4583 34.9828 22.5871 34.9293 22.6821 34.8339C22.7771 34.7386 22.8304 34.6094 22.8304 34.4746C22.8304 34.3398 22.7771 34.2105 22.6821 34.1152C22.5871 34.0199 22.4583 33.9663 22.324 33.9663Z" fill="#89B05F"/>
<path d="M18.8006 25.1208L21.7311 22.958C21.8112 22.9061 21.877 22.8348 21.9225 22.7507C21.9681 22.6667 21.992 22.5725 21.992 22.4768C21.992 22.3811 21.9681 22.2869 21.9225 22.2029C21.877 22.1188 21.8112 22.0476 21.7311 21.9956L19.5763 20.7304L21.7311 19.4976C21.8089 19.4439 21.8725 19.3721 21.9165 19.2882C21.9604 19.2044 21.9833 19.1111 21.9833 19.0164C21.9833 18.9217 21.9604 18.8283 21.9165 18.7445C21.8725 18.6607 21.8089 18.5888 21.7311 18.5352L18.8006 16.3724C18.7143 16.3086 18.6121 16.2701 18.5054 16.2609C18.3986 16.2517 18.2914 16.2723 18.1956 16.3204C18.0998 16.3685 18.0191 16.4422 17.9623 16.5335C17.9056 16.6247 17.875 16.7298 17.874 16.8374V19.7571L16.7966 19.0975C16.6668 19.0399 16.5204 19.0319 16.3852 19.0751C16.2499 19.1183 16.135 19.2097 16.0621 19.332C15.9893 19.4543 15.9635 19.5991 15.9897 19.7391C16.0158 19.8792 16.0921 20.0048 16.2041 20.0924L17.2815 20.7628L16.2041 21.4225C16.074 21.5012 15.9799 21.6279 15.9416 21.7754C15.9034 21.9229 15.9241 22.0795 15.9993 22.2119C16.0372 22.2776 16.0877 22.335 16.1478 22.381C16.208 22.427 16.2767 22.4605 16.3498 22.4796C16.423 22.4987 16.4992 22.503 16.5741 22.4923C16.6489 22.4817 16.7209 22.4562 16.7859 22.4173L17.8633 21.7793V24.6774C17.8617 24.7848 17.8903 24.8904 17.9457 24.9823C18.001 25.0742 18.081 25.1485 18.1765 25.197C18.2719 25.2455 18.379 25.2661 18.4855 25.2564C18.5921 25.2468 18.6938 25.2073 18.7791 25.1424L18.8006 25.1208ZM19.0376 17.9728L20.3628 18.9677L19.0376 19.7463V17.9728ZM19.0376 21.7685L20.352 22.5579L19.0376 23.5203V21.7685Z" fill="#89B05F"/>
<path d="M33.3131 9.88395C33.2777 8.73275 32.9652 7.60725 32.4024 6.60356C31.8395 5.59988 31.043 4.74782 30.0809 4.12014C29.9549 4.03783 29.8017 4.00871 29.6545 4.03908C29.5072 4.06944 29.3779 4.15686 29.2944 4.28236C29.2524 4.34452 29.2232 4.4145 29.2086 4.48818C29.1939 4.56185 29.1941 4.63771 29.2092 4.7113C29.2243 4.78488 29.2539 4.85469 29.2963 4.9166C29.3387 4.97851 29.393 5.03128 29.456 5.07177C30.2645 5.60369 30.9328 6.32409 31.4037 7.17148C31.8746 8.01888 32.1342 8.96808 32.1603 9.93802C32.1675 10.09 32.2345 10.233 32.3466 10.3354C32.4588 10.4378 32.6068 10.4913 32.7583 10.4841C32.9097 10.4769 33.0521 10.4097 33.1541 10.2971C33.2562 10.1846 33.3095 10.036 33.3024 9.88395H33.3131Z" fill="#89B05F"/>
<path d="M36.8579 9.88391V9.97042C36.8606 10.0457 36.8782 10.1197 36.9095 10.1882C36.9408 10.2566 36.9852 10.3183 37.0402 10.3695C37.0953 10.4207 37.1598 10.4605 37.2302 10.4867C37.3006 10.5129 37.3755 10.5248 37.4505 10.5219C37.6 10.5135 37.7403 10.4465 37.8411 10.3352C37.9419 10.224 37.995 10.0774 37.9892 9.92716V9.88391C37.9808 9.73378 37.914 9.59297 37.8031 9.49182C37.6923 9.39068 37.5463 9.33731 37.3966 9.34322C37.247 9.35161 37.1067 9.41866 37.0059 9.52992C36.9051 9.64118 36.852 9.78774 36.8579 9.93798V9.88391Z" fill="#89B05F"/>
<path d="M31.8804 1.03829C34.2468 2.5888 35.9287 4.99314 36.5779 7.75371C36.5848 7.83433 36.609 7.91252 36.6488 7.9829C36.6886 8.05329 36.7431 8.11421 36.8085 8.16154C36.8739 8.20886 36.9487 8.24147 37.0278 8.25711C37.1069 8.27275 37.1884 8.27108 37.2668 8.25219C37.3452 8.23331 37.4186 8.19765 37.4821 8.14768C37.5455 8.0977 37.5974 8.03457 37.6343 7.96261C37.6712 7.89064 37.6921 7.81155 37.6958 7.73071C37.6994 7.64986 37.6856 7.56917 37.6553 7.49417C36.9442 4.45538 35.0965 1.80721 32.4946 0.0974737C32.3707 0.0348023 32.2283 0.0195376 32.0941 0.0545224C31.9598 0.0895072 31.8428 0.172344 31.7649 0.287578C31.6871 0.402812 31.6537 0.54256 31.671 0.680707C31.6882 0.818854 31.7551 0.945969 31.8589 1.03829H31.8804Z" fill="#89B05F"/>
<path d="M4.67585 9.88381C4.67297 9.95908 4.6849 10.0342 4.71097 10.1048C4.73703 10.1755 4.7767 10.2403 4.82774 10.2955C4.87877 10.3508 4.94016 10.3954 5.00838 10.4268C5.0766 10.4582 5.15031 10.4758 5.22532 10.4786C5.29891 10.4815 5.37234 10.4698 5.44142 10.4442C5.5105 10.4185 5.57388 10.3795 5.62791 10.3293C5.68195 10.2791 5.72559 10.2187 5.75634 10.1515C5.78709 10.0843 5.80435 10.0117 5.80713 9.93788C5.83531 8.96715 6.09694 8.01766 6.56969 7.17034C7.04244 6.32301 7.71231 5.60299 8.52219 5.07163C8.64722 4.98789 8.7343 4.85803 8.76456 4.71025C8.79481 4.56246 8.76579 4.40866 8.68379 4.28222C8.59836 4.15598 8.46709 4.06833 8.31808 4.03801C8.16908 4.00769 8.01416 4.03712 7.88651 4.12C6.92501 4.74835 6.12901 5.60057 5.56625 6.60411C5.00349 7.60765 4.69063 8.7328 4.6543 9.88381H4.67585Z" fill="#89B05F"/>
<path d="M1.13126 9.88393C1.11997 9.74516 1.05873 9.61526 0.958998 9.51849C0.859262 9.42172 0.727845 9.36469 0.589282 9.35807C0.450719 9.35145 0.314483 9.39568 0.206036 9.4825C0.0975899 9.56932 0.0243502 9.69279 -2.09775e-05 9.82986V9.92718C-0.00437483 10.0019 0.0061787 10.0768 0.0310339 10.1474C0.0558891 10.218 0.0945388 10.2829 0.144716 10.3383C0.194892 10.3937 0.255586 10.4384 0.323236 10.47C0.390886 10.5015 0.464138 10.5192 0.53868 10.5219C0.613681 10.5248 0.688506 10.5129 0.758892 10.4867C0.829278 10.4606 0.893835 10.4207 0.948871 10.3695C1.00391 10.3183 1.04834 10.2567 1.07963 10.1882C1.11093 10.1197 1.12848 10.0457 1.13126 9.97044V9.88393Z" fill="#89B05F"/>
<path d="M6.13019 1.03829C6.23402 0.945969 6.30082 0.818854 6.31811 0.680707C6.3354 0.54256 6.302 0.402812 6.22414 0.287578C6.14628 0.172344 6.02928 0.0895072 5.89501 0.0545224C5.76075 0.0195376 5.61838 0.0348023 5.49451 0.0974737C2.89313 1.81004 1.04289 4.4564 0.322986 7.49417C0.290547 7.64317 0.317466 7.799 0.398001 7.92833C0.478536 8.05767 0.606287 8.15023 0.75394 8.18626C0.901045 8.21855 1.05491 8.19123 1.18203 8.11022C1.30916 8.02921 1.39925 7.90107 1.43271 7.75371C2.08194 4.99314 3.7638 2.5888 6.13019 1.03829Z" fill="#89B05F"/>
</g>
<defs>
<clipPath id="clip0_252_2203">
<rect width="38" height="38" fill="white"/>
</clipPath>
</defs>
</svg>
