<svg width="38" height="38" viewBox="0 0 38 38" fill="none" xmlns="http://www.w3.org/2000/svg">
<g clip-path="url(#clip0_252_2204)">
<path d="M37.9999 20.4984C37.9999 20.191 37.7507 19.9418 37.4433 19.9418C37.1359 19.9418 36.8867 20.191 36.8867 20.4984V31.9855C33.294 30.8225 26.4462 30.0861 19 30.0861C11.5537 30.0861 4.7059 30.8225 1.11328 31.9855V19.8228L7.34957 13.5866C10.7117 14.0071 14.7587 14.246 19 14.246C21.4891 14.246 23.9218 14.1664 26.2303 14.0093C26.5371 13.9884 26.7688 13.7229 26.7479 13.4161C26.7271 13.1094 26.4625 12.8782 26.1548 12.8985C23.8712 13.0539 21.4639 13.1327 19 13.1327C14.6931 13.1327 10.6024 12.8875 7.25591 12.4577C7.23245 12.4529 7.2087 12.4501 7.18488 12.4484C4.43909 12.0924 2.19984 11.6117 0.762374 11.0399C0.591003 10.9717 0.396847 10.9929 0.244179 11.0965C0.0915115 11.2001 0 11.3726 0 11.5571V35.312C0 35.4965 0.0914373 35.6691 0.244179 35.7727C0.337695 35.8361 0.446796 35.8687 0.556714 35.8687C0.626182 35.8687 0.696022 35.8557 0.762374 35.8292C2.34175 35.201 5.04271 34.6507 8.36763 34.2795C8.67319 34.2454 8.89317 33.9701 8.8591 33.6645C8.82504 33.3589 8.54924 33.1388 8.24413 33.173C5.25423 33.5068 2.81444 33.9692 1.11328 34.5217V33.1604C4.4615 31.9645 11.3934 31.1994 19 31.1994C26.6066 31.1994 33.5384 31.9645 36.8867 33.1604V34.5221C33.294 33.3592 26.4461 32.6231 19 32.6231C16.1486 32.6231 13.3893 32.7268 10.7987 32.9312C10.4923 32.9554 10.2634 33.2235 10.2876 33.5299C10.3118 33.8363 10.5796 34.0653 10.8862 34.041C12.9565 33.8777 15.1379 33.7806 17.3879 33.7489V34.4732C17.3879 35.5894 15.574 36.178 14.7941 36.3792C14.7415 36.3928 14.6928 36.4138 14.6483 36.4403H5.71854C5.41113 36.4403 5.1619 36.6895 5.1619 36.9969C5.1619 37.3043 5.41113 37.5536 5.71854 37.5536H32.2814C32.5888 37.5536 32.838 37.3043 32.838 36.9969C32.838 36.6895 32.5888 36.4403 32.2814 36.4403H23.3593C23.3164 36.4156 23.2698 36.3957 23.2195 36.3828C22.4355 36.1818 20.6121 35.5933 20.6121 34.4732V33.7481C27.847 33.8515 34.2609 34.6452 37.2376 35.8293C37.3041 35.8557 37.3738 35.8687 37.4433 35.8687C37.5531 35.8687 37.6623 35.8362 37.7558 35.7728C37.9086 35.6692 38 35.4967 38 35.3121L37.9999 20.4984ZM1.11328 12.347C2.36987 12.7538 4.0251 13.1082 5.96443 13.3973L1.11328 18.2484V12.347ZM17.3899 36.4402C18.1174 35.9001 18.5012 35.233 18.5012 34.4732V33.7387C18.6675 33.738 18.833 33.7364 19 33.7364C19.1666 33.7364 19.3328 33.7369 19.4987 33.7377V34.4732C19.4987 35.2332 19.8825 35.9002 20.6099 36.4402H17.3899Z" fill="#89B05F"/>
<path d="M37.7561 11.096C37.6033 10.9924 37.4092 10.9712 37.2379 11.0395C35.4971 11.7319 32.4562 12.318 28.6751 12.6896C28.3691 12.7197 28.1455 12.9921 28.1756 13.2981C28.2056 13.6041 28.4771 13.8276 28.784 13.7977C32.2247 13.4594 34.9995 12.9617 36.887 12.3475V17.9614C36.887 18.2688 37.1362 18.518 37.4436 18.518C37.751 18.518 38.0002 18.2688 38.0002 17.9614V11.5567C38.0002 11.3722 37.9088 11.1996 37.7561 11.096Z" fill="#89B05F"/>
<path d="M18.7782 6.53688C19.3663 6.53529 19.9489 6.65039 20.4923 6.8755C21.0357 7.1006 21.529 7.43126 21.9437 7.84831C22.0157 7.92027 22.0561 8.01787 22.0561 8.11964C22.0561 8.22141 22.0157 8.31901 21.9437 8.39097C21.8717 8.46293 21.7741 8.50336 21.6724 8.50336C21.5706 8.50336 21.473 8.46293 21.401 8.39097C20.7054 7.69534 19.7619 7.30454 18.7782 7.30454C17.7944 7.30454 16.8509 7.69534 16.1553 8.39097C16.0833 8.46293 15.9857 8.50336 15.884 8.50336C15.7822 8.50336 15.6846 8.46293 15.6126 8.39097C15.5407 8.31901 15.5003 8.22141 15.5003 8.11964C15.5003 8.01787 15.5407 7.92027 15.6126 7.84831C16.0274 7.43126 16.5207 7.1006 17.064 6.8755C17.6074 6.65039 18.19 6.53529 18.7782 6.53688ZM13.442 5.67766C13.37 5.74962 13.3296 5.84722 13.3296 5.94899C13.3296 6.05076 13.37 6.14836 13.442 6.22032C13.514 6.29229 13.6116 6.33271 13.7133 6.33271C13.8151 6.33271 13.9127 6.29229 13.9847 6.22032C15.256 4.94901 16.9803 4.23479 18.7782 4.23479C20.5761 4.23479 22.3004 4.94901 23.5717 6.22032C23.6436 6.29229 23.7412 6.33271 23.843 6.33271C23.9448 6.33271 24.0424 6.29229 24.1143 6.22032C24.1863 6.14836 24.2267 6.05076 24.2267 5.94899C24.2267 5.84722 24.1863 5.74962 24.1143 5.67766C22.6991 4.26242 20.7796 3.46735 18.7782 3.46735C16.7767 3.46735 14.8572 4.26242 13.442 5.67766ZM18.7782 0.397567C17.3835 0.393785 16.0019 0.666659 14.7133 1.2004C13.4248 1.73413 12.2549 2.51813 11.2714 3.50702C11.1994 3.57898 11.159 3.67658 11.159 3.77835C11.159 3.88012 11.1994 3.97772 11.2714 4.04968C11.3433 4.12164 11.4409 4.16207 11.5427 4.16207C11.6445 4.16207 11.7421 4.12164 11.814 4.04968C12.7265 3.13236 13.8118 2.40512 15.0072 1.91004C16.2026 1.41496 17.4843 1.16188 18.7782 1.16543C20.072 1.16188 21.3537 1.41496 22.5491 1.91004C23.7445 2.40512 24.8299 3.13236 25.7423 4.04968C25.8143 4.12164 25.9119 4.16207 26.0137 4.16207C26.1154 4.16207 26.213 4.12164 26.285 4.04968C26.357 3.97772 26.3974 3.88012 26.3974 3.77835C26.3974 3.67658 26.357 3.57898 26.285 3.50702C25.3015 2.51813 24.1316 1.73413 22.843 1.2004C21.5545 0.666659 20.1729 0.393785 18.7782 0.397567ZM18.326 10.1998C18.2365 10.2893 18.1756 10.4032 18.1509 10.5273C18.1263 10.6513 18.1389 10.7799 18.1873 10.8968C18.2357 11.0137 18.3177 11.1135 18.4229 11.1838C18.528 11.2541 18.6517 11.2916 18.7782 11.2916C18.9047 11.2916 19.0283 11.2541 19.1335 11.1838C19.2386 11.1135 19.3206 11.0137 19.369 10.8968C19.4174 10.7799 19.4301 10.6513 19.4054 10.5273C19.3807 10.4032 19.3198 10.2893 19.2304 10.1998C19.1105 10.0799 18.9478 10.0125 18.7782 10.0125C18.6086 10.0125 18.4459 10.0799 18.326 10.1998Z" fill="#89B05F"/>
</g>
<defs>
<clipPath id="clip0_252_2204">
<rect width="38" height="38" fill="white"/>
</clipPath>
</defs>
</svg>
