<svg width="38" height="38" viewBox="0 0 38 38" fill="none" xmlns="http://www.w3.org/2000/svg">
<g clip-path="url(#clip0_344_2009)">
<path d="M15.0026 13.8094L11.9091 16.9028C11.6748 17.1372 11.6748 17.5171 11.9091 17.7514C12.0262 17.8685 12.1799 17.9271 12.3334 17.9271C12.4868 17.9271 12.6405 17.8685 12.7576 17.7514L15.851 14.658C16.0853 14.4236 16.0853 14.0437 15.851 13.8094C15.6167 13.5752 15.2368 13.5752 15.0026 13.8094Z" fill="#89B05F"/>
<path d="M19.5453 13.3197L13.1186 19.7463C12.8843 19.9807 12.8843 20.3605 13.1186 20.5948C13.2357 20.7119 13.3894 20.7705 13.5428 20.7705C13.6963 20.7705 13.85 20.7119 13.9671 20.5948L20.3938 14.1683C20.6281 13.9339 20.6281 13.5541 20.3938 13.3197C20.1596 13.0856 19.7797 13.0854 19.5453 13.3197Z" fill="#89B05F"/>
<path d="M11.577 22.1366C11.6941 22.2538 11.8477 22.3123 12.0013 22.3123C12.1548 22.3123 12.3083 22.2538 12.4255 22.1367L12.639 21.9233C12.8734 21.689 12.8735 21.309 12.6391 21.0747C12.4049 20.8404 12.025 20.8403 11.7907 21.0746L11.5771 21.288C11.3428 21.5223 11.3428 21.9022 11.577 22.1366Z" fill="#89B05F"/>
<path d="M19.9235 16.995L15.8168 21.1018C15.5825 21.3361 15.5825 21.716 15.8168 21.9503C15.934 22.0674 16.0876 22.126 16.2411 22.126C16.3946 22.126 16.5482 22.0674 16.6653 21.9503L20.772 17.8436C21.0063 17.6092 21.0063 17.2293 20.772 16.995C20.5378 16.7608 20.158 16.7608 19.9235 16.995Z" fill="#89B05F"/>
<path d="M34.643 5.21484H28.4956C28.1642 5.21484 27.8956 5.48337 27.8956 5.81483C27.8956 6.14629 28.1642 6.41481 28.4956 6.41481H34.643C35.8324 6.41481 36.8 7.3824 36.8 8.57168V26.863C36.8 28.0523 35.8324 29.02 34.643 29.02H34.2393H28.7194H9.28046H3.76074H3.35699C2.16763 29.0199 1.20004 28.0522 1.20004 26.8629V8.57168C1.20004 7.3824 2.16763 6.41481 3.35699 6.41481H26.5224C26.8538 6.41481 27.1224 6.14629 27.1224 5.81483C27.1224 5.48337 26.8538 5.21484 26.5224 5.21484H3.35699C1.5059 5.21484 0 6.72067 0 8.57168V26.863C0 28.6482 1.40073 30.1117 3.16075 30.2139V31.2256C3.16075 32.0858 3.86049 32.7856 4.72076 32.7856H8.32052C9.18079 32.7856 9.88052 32.0858 9.88052 31.2256V30.22H28.1195V31.2256C28.1195 32.0858 28.8193 32.7856 29.6795 32.7856H33.2793C34.1395 32.7856 34.8393 32.0858 34.8393 31.2256V30.2138C36.5993 30.1118 38 28.6481 38 26.8629V8.57168C38 6.72067 36.4941 5.21484 34.643 5.21484ZM8.68048 31.2255C8.68048 31.424 8.51905 31.5856 8.32044 31.5856H4.72076C4.5223 31.5856 4.36072 31.4241 4.36072 31.2255V30.22H8.68048V31.2255ZM33.2793 31.5856H29.6795C29.4809 31.5856 29.3194 31.4241 29.3194 31.2255V30.22H33.6393V31.2255C33.6393 31.424 33.4779 31.5856 33.2793 31.5856Z" fill="#89B05F"/>
<path d="M10.2692 26.7059C10.2692 27.0374 10.5379 27.3059 10.8692 27.3059H27.5997C28.4599 27.3059 29.1597 26.6061 29.1597 25.7459V9.66694C29.1597 8.80682 28.4599 8.10693 27.5997 8.10693H4.56098C3.70071 8.10693 3.00098 8.80674 3.00098 9.66694V25.746C3.00098 26.6062 3.70071 27.306 4.56098 27.306H8.94924C9.28062 27.306 9.54922 27.0374 9.54922 26.706C9.54922 26.3746 9.28055 26.106 8.94924 26.106H4.56098C4.36252 26.106 4.20095 25.9445 4.20095 25.746V9.66694C4.20095 9.46848 4.36245 9.3069 4.56098 9.3069H27.5997C27.7981 9.3069 27.9597 9.4684 27.9597 9.66694V25.746C27.9597 25.9444 27.7982 26.106 27.5997 26.106H10.8692C10.5378 26.1059 10.2692 26.3746 10.2692 26.7059Z" fill="#89B05F"/>
<path d="M32.9643 12.9564C34.3013 12.9564 35.389 11.8686 35.389 10.5317C35.389 9.19468 34.3013 8.10693 32.9643 8.10693C31.6273 8.10693 30.5396 9.19468 30.5396 10.5317C30.5396 11.8686 31.6273 12.9564 32.9643 12.9564ZM32.9643 9.30705C33.6396 9.30705 34.189 9.85642 34.189 10.5318C34.189 11.2072 33.6396 11.7565 32.9643 11.7565C32.289 11.7565 31.7396 11.2071 31.7396 10.5318C31.7395 9.85642 32.2889 9.30705 32.9643 9.30705Z" fill="#89B05F"/>
<path d="M32.9643 18.8084C34.3013 18.8084 35.389 17.7207 35.389 16.3837C35.389 15.0467 34.3013 13.959 32.9643 13.959C31.6273 13.959 30.5396 15.0467 30.5396 16.3837C30.5396 17.7207 31.6273 18.8084 32.9643 18.8084ZM32.9643 15.159C33.6396 15.159 34.189 15.7083 34.189 16.3836C34.189 17.059 33.6396 17.6084 32.9643 17.6084C32.289 17.6084 31.7396 17.059 31.7396 16.3836C31.7395 15.7083 32.2889 15.159 32.9643 15.159Z" fill="#89B05F"/>
<path d="M30.9642 26.426H34.9643C35.2957 26.426 35.5642 26.1575 35.5642 25.8261C35.5642 25.4946 35.2957 25.2261 34.9643 25.2261H30.9642C30.6328 25.2261 30.3643 25.4946 30.3643 25.8261C30.3643 26.1574 30.6329 26.426 30.9642 26.426Z" fill="#89B05F"/>
<path d="M30.9642 23.971H34.9643C35.2957 23.971 35.5642 23.7024 35.5642 23.371C35.5642 23.0396 35.2957 22.771 34.9643 22.771H30.9642C30.6328 22.771 30.3643 23.0396 30.3643 23.371C30.3643 23.7024 30.6329 23.971 30.9642 23.971Z" fill="#89B05F"/>
<path d="M30.9642 21.5164H34.9643C35.2957 21.5164 35.5642 21.2479 35.5642 20.9164C35.5642 20.5849 35.2957 20.3164 34.9643 20.3164H30.9642C30.6328 20.3164 30.3643 20.5849 30.3643 20.9164C30.3643 21.2479 30.6329 21.5164 30.9642 21.5164Z" fill="#89B05F"/>
</g>
<defs>
<clipPath id="clip0_344_2009">
<rect width="38" height="38" fill="white"/>
</clipPath>
</defs>
</svg>
