<svg width="38" height="38" viewBox="0 0 38 38" fill="none" xmlns="http://www.w3.org/2000/svg">
<rect x="0.25" y="0.25" width="37.5" height="37.5" rx="18.75" stroke="#89B05F" stroke-width="0.5"/>
<rect x="2.5" y="2.5" width="33" height="33" rx="16.5" stroke="#89B05F"/>
<path d="M20.1805 14.1108C20.1805 13.8577 19.9753 13.6525 19.7222 13.6525C19.469 13.6525 19.2638 13.8577 19.2638 14.1108H20.1805ZM19.2638 14.1108V24.4995H20.1805V14.1108H19.2638Z" fill="#89B05F"/>
<mask id="path-4-inside-1_247_1313" fill="white">
<path fill-rule="evenodd" clip-rule="evenodd" d="M19.7232 8C18.0357 8 16.6677 9.36798 16.6677 11.0555V22.728C15.9116 23.4995 15.4453 24.5563 15.4453 25.722C15.4453 28.0844 17.3605 29.9996 19.723 29.9996C22.0855 29.9996 24.0006 28.0844 24.0006 25.722C24.0006 24.5565 23.5346 23.4999 22.7787 22.7284V11.0555C22.7787 9.36798 21.4107 8 19.7232 8Z"/>
</mask>
<path d="M16.6677 22.728L17.3224 23.3696L17.5844 23.1023V22.728H16.6677ZM22.7787 22.7284H21.862V23.1026L22.1239 23.3699L22.7787 22.7284ZM17.5844 11.0555C17.5844 9.87423 18.5419 8.91664 19.7232 8.91664V7.08336C17.5295 7.08336 15.7511 8.86173 15.7511 11.0555H17.5844ZM17.5844 22.728V11.0555H15.7511V22.728H17.5844ZM16.362 25.722C16.362 24.8058 16.7273 23.9768 17.3224 23.3696L16.0131 22.0864C15.0958 23.0223 14.5287 24.3068 14.5287 25.722H16.362ZM19.723 29.083C17.8667 29.083 16.362 27.5782 16.362 25.722H14.5287C14.5287 28.5907 16.8542 30.9163 19.723 30.9163V29.083ZM23.084 25.722C23.084 27.5782 21.5792 29.083 19.723 29.083V30.9163C22.5917 30.9163 24.9173 28.5907 24.9173 25.722H23.084ZM22.1239 23.3699C22.7188 23.9771 23.084 24.8059 23.084 25.722H24.9173C24.9173 24.3071 24.3504 23.0228 23.4334 22.0869L22.1239 23.3699ZM21.862 11.0555V22.7284H23.6953V11.0555H21.862ZM19.7232 8.91664C20.9044 8.91664 21.862 9.87423 21.862 11.0555H23.6953C23.6953 8.86174 21.9169 7.08336 19.7232 7.08336V8.91664Z" fill="#89B05F" mask="url(#path-4-inside-1_247_1313)"/>
<circle cx="19.7229" cy="25.722" r="1.37496" stroke="#89B05F" stroke-width="0.916643"/>
<path d="M13 11.6665H15.4444" stroke="#89B05F" stroke-width="0.916643" stroke-linecap="round"/>
<path d="M13 16.5552H15.4444" stroke="#89B05F" stroke-width="0.916643" stroke-linecap="round"/>
<path d="M13 21.4443H15.4444" stroke="#89B05F" stroke-width="0.916643" stroke-linecap="round"/>
<path d="M14.2222 14.1108L15.4444 14.1108" stroke="#89B05F" stroke-width="0.916643" stroke-linecap="round"/>
<path d="M14.2222 19L15.4444 19" stroke="#89B05F" stroke-width="0.916643" stroke-linecap="round"/>
</svg>
