<svg width="38" height="38" viewBox="0 0 38 38" fill="none" xmlns="http://www.w3.org/2000/svg">
<path d="M30.2635 6.27783C30.2635 6.02471 30.0583 5.81951 29.8052 5.81951C29.5521 5.81951 29.3469 6.02471 29.3469 6.27783H30.2635ZM29.3469 6.27783V15.25H30.2635V6.27783H29.3469Z" fill="#89B05F"/>
<mask id="path-2-inside-1_247_1315" fill="white">
<path fill-rule="evenodd" clip-rule="evenodd" d="M29.8061 1C28.3487 1 27.1673 2.18146 27.1673 3.63886V13.7197C26.5141 14.386 26.1113 15.2988 26.1113 16.3056C26.1113 18.346 27.7654 20 29.8057 20C31.8461 20 33.5002 18.346 33.5002 16.3056C33.5002 15.2992 33.0977 14.3868 32.445 13.7205V3.63887C32.445 2.18146 31.2635 1 29.8061 1Z"/>
</mask>
<path d="M27.1673 13.7197L27.8219 14.3613L28.0839 14.094V13.7197H27.1673ZM32.445 13.7205H31.5284V14.0947L31.7902 14.3619L32.445 13.7205ZM28.0839 3.63886C28.0839 2.68771 28.855 1.91664 29.8061 1.91664V0.0833569C27.8425 0.0833569 26.2506 1.67521 26.2506 3.63886H28.0839ZM28.0839 13.7197V3.63886H26.2506V13.7197H28.0839ZM27.028 16.3056C27.028 15.5483 27.3298 14.8633 27.8219 14.3613L26.5127 13.078C25.6983 13.9088 25.1947 15.0493 25.1947 16.3056H27.028ZM29.8057 19.0834C28.2716 19.0834 27.028 17.8397 27.028 16.3056H25.1947C25.1947 18.8522 27.2591 20.9167 29.8057 20.9167V19.0834ZM32.5835 16.3056C32.5835 17.8397 31.3399 19.0834 29.8057 19.0834V20.9167C32.3524 20.9167 34.4168 18.8522 34.4168 16.3056H32.5835ZM31.7902 14.3619C32.2819 14.8639 32.5835 15.5486 32.5835 16.3056H34.4168C34.4168 15.0498 33.9136 13.9097 33.0998 13.079L31.7902 14.3619ZM31.5284 3.63887V13.7205H33.3617V3.63887H31.5284ZM29.8061 1.91664C30.7573 1.91664 31.5284 2.68771 31.5284 3.63887H33.3617C33.3617 1.67521 31.7698 0.0833569 29.8061 0.0833569V1.91664Z" fill="#89B05F" mask="url(#path-2-inside-1_247_1315)"/>
<circle cx="29.8065" cy="16.3055" r="1.125" stroke="#89B05F" stroke-width="0.916643"/>
<path d="M24 4.1665H26.1111" stroke="#89B05F" stroke-width="0.916643" stroke-linecap="round"/>
<path d="M24 8.38867H26.1111" stroke="#89B05F" stroke-width="0.916643" stroke-linecap="round"/>
<path d="M24 12.6113H26.1111" stroke="#89B05F" stroke-width="0.916643" stroke-linecap="round"/>
<path d="M25.0562 6.27783L26.1117 6.27783" stroke="#89B05F" stroke-width="0.916643" stroke-linecap="round"/>
<path d="M25.0562 10.5L26.1117 10.5" stroke="#89B05F" stroke-width="0.916643" stroke-linecap="round"/>
<path d="M26.25 27C26.25 32.1086 22.1086 36.25 17 36.25C11.8914 36.25 7.75 32.1086 7.75 27C7.75 25.1362 8.33728 22.8623 9.26251 20.4567C10.183 18.0633 11.4154 15.5966 12.6556 13.3642C13.8947 11.1338 15.1349 9.14942 16.0657 7.7222C16.4316 7.16111 16.7494 6.68669 17 6.31791C17.2506 6.68669 17.5684 7.16111 17.9343 7.7222C18.8651 9.14942 20.1053 11.1338 21.3444 13.3642C22.5846 15.5966 23.8169 18.0633 24.7375 20.4567C25.6627 22.8623 26.25 25.1362 26.25 27Z" stroke="#89B05F" stroke-width="1.5"/>
<path d="M9.4 13.1875C9.4 14.3735 8.36255 15.4 7 15.4C5.63745 15.4 4.6 14.3735 4.6 13.1875C4.6 12.9364 4.73723 12.4587 5.0198 11.8028C5.28984 11.1759 5.65419 10.4705 6.02474 9.8022C6.3756 9.16938 6.72715 8.57849 7 8.13185C7.27285 8.57849 7.6244 9.16938 7.97526 9.8022C8.34581 10.4705 8.71016 11.1759 8.9802 11.8028C9.26277 12.4587 9.4 12.9364 9.4 13.1875Z" stroke="#89B05F" stroke-width="1.2"/>
<path d="M19 32.7153C21.288 32.0465 23.0857 30.2597 23.7365 28" stroke="#89B05F" stroke-width="1.5" stroke-linecap="round"/>
</svg>
