<svg width="38" height="38" viewBox="0 0 38 38" fill="none" xmlns="http://www.w3.org/2000/svg">
<path d="M7.80812 30.8372C8.49049 31.4405 9.03145 32.1581 9.3997 32.9485C9.76795 33.7389 9.95617 34.5864 9.95346 35.4419C9.95346 35.5899 9.88731 35.7319 9.76955 35.8365C9.6518 35.9412 9.49209 36 9.32556 36C9.15903 36 8.99932 35.9412 8.88156 35.8365C8.76381 35.7319 8.69765 35.5899 8.69765 35.4419C8.69765 34.0109 8.05816 32.6386 6.91986 31.6268C5.78157 30.615 4.2377 30.0465 2.62791 30.0465C2.46137 30.0465 2.30166 29.9877 2.18391 29.8831C2.06615 29.7784 2 29.6364 2 29.4884C2 29.3404 2.06615 29.1984 2.18391 29.0937C2.30166 28.9891 2.46137 28.9303 2.62791 28.9303C3.59033 28.9279 4.54373 29.0952 5.43291 29.4225C6.3221 29.7498 7.12942 30.2307 7.80812 30.8372ZM2.62791 24.4652C2.46137 24.4652 2.30166 24.524 2.18391 24.6286C2.06615 24.7333 2 24.8753 2 25.0233C2 25.1713 2.06615 25.3133 2.18391 25.418C2.30166 25.5226 2.46137 25.5814 2.62791 25.5814C5.56995 25.5814 8.39149 26.6203 10.4718 28.4695C12.5522 30.3187 13.7209 32.8267 13.7209 35.4419C13.7209 35.5899 13.787 35.7319 13.9048 35.8365C14.0226 35.9412 14.1823 36 14.3488 36C14.5153 36 14.675 35.9412 14.7928 35.8365C14.9105 35.7319 14.9767 35.5899 14.9767 35.4419C14.9767 32.5307 13.6757 29.7387 11.3598 27.6802C9.04397 25.6216 5.90301 24.4652 2.62791 24.4652ZM14.9118 24.5228C13.3024 23.0845 11.388 21.9441 9.2795 21.1678C7.17097 20.3914 4.91015 19.9945 2.62791 20.0001C2.46137 20.0001 2.30166 20.0589 2.18391 20.1635C2.06615 20.2682 2 20.4102 2 20.5582C2 20.7062 2.06615 20.8482 2.18391 20.9529C2.30166 21.0575 2.46137 21.1163 2.62791 21.1163C4.74512 21.1113 6.84243 21.4796 8.79844 22.1999C10.7545 22.9202 12.5303 23.9782 14.0233 25.3126C15.5245 26.6397 16.7148 28.2183 17.5251 29.9569C18.3354 31.6956 18.7497 33.5599 18.7441 35.4419C18.7441 35.5899 18.8103 35.7319 18.928 35.8365C19.0458 35.9412 19.2055 36 19.372 36C19.5386 36 19.6983 35.9412 19.816 35.8365C19.9338 35.7319 19.9999 35.5899 19.9999 35.4419C20.0061 33.4132 19.5596 31.4036 18.6863 29.5293C17.8129 27.6551 16.53 25.9534 14.9118 24.5228ZM3.04651 34.1395C2.83953 34.1395 2.6372 34.1941 2.4651 34.2963C2.293 34.3985 2.15887 34.5438 2.07966 34.7138C2.00045 34.8838 1.97973 35.0708 2.02011 35.2512C2.06049 35.4317 2.16016 35.5974 2.30652 35.7275C2.45287 35.8576 2.63934 35.9462 2.84234 35.9821C3.04535 36.018 3.25577 35.9996 3.44699 35.9292C3.63821 35.8588 3.80166 35.7396 3.91665 35.5866C4.03164 35.4336 4.09302 35.2538 4.09302 35.0698C4.09302 34.8231 3.98276 34.5865 3.7865 34.412C3.59024 34.2375 3.32406 34.1395 3.04651 34.1395Z" fill="#89B05F"/>
<path d="M24.9996 19.7448C23.6656 19.7448 22.3616 19.3493 21.2524 18.6081C20.1433 17.867 19.2788 16.8136 18.7683 15.5812C18.2578 14.3488 18.1242 12.9926 18.3845 11.6843C18.6447 10.3759 19.2871 9.17413 20.2304 8.23086C21.1736 7.28759 22.3754 6.64522 23.6838 6.38497C24.9921 6.12473 26.3483 6.25829 27.5807 6.76879C28.8132 7.27928 29.8665 8.14377 30.6077 9.25293C31.3488 10.3621 31.7444 11.6661 31.7444 13.0001C31.7414 14.788 31.0299 16.5019 29.7656 17.7661C28.5014 19.0304 26.7875 19.7419 24.9996 19.7448ZM24.9996 7.36288C23.8847 7.36288 22.7948 7.6935 21.8677 8.31293C20.9407 8.93235 20.2182 9.81277 19.7915 10.8428C19.3648 11.8729 19.2532 13.0064 19.4707 14.0999C19.6882 15.1934 20.2251 16.1978 21.0135 16.9862C21.8019 17.7746 22.8063 18.3115 23.8999 18.529C24.9934 18.7465 26.1268 18.6349 27.1569 18.2082C28.187 17.7816 29.0674 17.059 29.6868 16.132C30.3062 15.2049 30.6368 14.115 30.6368 13.0001C30.6339 11.5059 30.0391 10.0738 28.9825 9.01722C27.926 7.96067 26.4938 7.36581 24.9996 7.36288Z" fill="#89B05F"/>
<path d="M24.4443 2.55424V4.32626C24.4443 4.47312 24.5027 4.61397 24.6065 4.71782C24.7104 4.82167 24.8512 4.88001 24.9981 4.88001C25.145 4.88001 25.2858 4.82167 25.3897 4.71782C25.4935 4.61397 25.5518 4.47312 25.5518 4.32626V2.55424C25.5518 2.40738 25.4935 2.26653 25.3897 2.16268C25.2858 2.05883 25.145 2.00049 24.9981 2.00049C24.8512 2.00049 24.7104 2.05883 24.6065 2.16268C24.5027 2.26653 24.4443 2.40738 24.4443 2.55424Z" fill="#89B05F"/>
<path d="M25.5518 23.4464V21.6744C25.5518 21.5275 25.4935 21.3866 25.3897 21.2828C25.2858 21.1789 25.145 21.1206 24.9981 21.1206C24.8512 21.1206 24.7104 21.1789 24.6065 21.2828C24.5027 21.3866 24.4443 21.5275 24.4443 21.6744V23.4464C24.4443 23.5932 24.5027 23.7341 24.6065 23.8379C24.7104 23.9418 24.8512 24.0001 24.9981 24.0001C25.145 24.0001 25.2858 23.9418 25.3897 23.8379C25.4935 23.7341 25.5518 23.5932 25.5518 23.4464Z" fill="#89B05F"/>
<path d="M35.4464 12.4473H33.6744C33.5275 12.4473 33.3866 12.5056 33.2828 12.6095C33.1789 12.7133 33.1206 12.8542 33.1206 13.001C33.1206 13.1479 33.1789 13.2887 33.2828 13.3926C33.3866 13.4964 33.5275 13.5548 33.6744 13.5548H35.4464C35.5932 13.5548 35.7341 13.4964 35.8379 13.3926C35.9418 13.2887 36.0001 13.1479 36.0001 13.001C36.0001 12.8542 35.9418 12.7133 35.8379 12.6095C35.7341 12.5056 35.5932 12.4473 35.4464 12.4473Z" fill="#89B05F"/>
<path d="M14.5538 13.5548H16.3258C16.4726 13.5548 16.6135 13.4964 16.7173 13.3926C16.8212 13.2887 16.8795 13.1479 16.8795 13.001C16.8795 12.8542 16.8212 12.7133 16.7173 12.6095C16.6135 12.5056 16.4726 12.4473 16.3258 12.4473H14.5538C14.4069 12.4473 14.266 12.5056 14.1622 12.6095C14.0583 12.7133 14 12.8542 14 13.001C14 13.1479 14.0583 13.2887 14.1622 13.3926C14.266 13.4964 14.4069 13.5548 14.5538 13.5548Z" fill="#89B05F"/>
<path d="M31.9946 5.22189L30.896 6.32054L30.7398 6.47669C30.6377 6.5814 30.5798 6.72139 30.5781 6.86764C30.5788 7.01442 30.6368 7.15511 30.7398 7.2597C30.7913 7.31109 30.8525 7.35183 30.9198 7.37957C30.987 7.40732 31.0591 7.42153 31.1319 7.4214C31.2781 7.41961 31.4181 7.36173 31.5228 7.2597L32.6215 6.16105L32.7776 6.0049C32.8803 5.90002 32.9386 5.7596 32.9404 5.61284C32.9392 5.46629 32.8808 5.32603 32.7776 5.22189C32.674 5.11796 32.5334 5.05941 32.3867 5.05908C32.2401 5.06167 32.0999 5.11986 31.9946 5.22189Z" fill="#89B05F"/>
<path d="M18.0059 20.7786L19.1045 19.68L19.2607 19.5238C19.3628 19.4191 19.4207 19.2791 19.4224 19.1329C19.4217 18.9861 19.3637 18.8454 19.2607 18.7408C19.2092 18.6894 19.148 18.6487 19.0807 18.6209C19.0135 18.5932 18.9414 18.579 18.8686 18.5791C18.7224 18.5809 18.5824 18.6388 18.4777 18.7408L17.379 19.8394L17.2229 19.9956C17.1202 20.1005 17.0619 20.2409 17.0601 20.3877C17.0613 20.5342 17.1197 20.6745 17.2229 20.7786C17.3265 20.8825 17.4671 20.9411 17.6138 20.9414C17.7604 20.9388 17.9006 20.8806 18.0059 20.7786Z" fill="#89B05F"/>
<path d="M32.7776 19.9956L31.679 18.897L31.5228 18.7408C31.4181 18.6387 31.2781 18.5808 31.1319 18.5791C30.9851 18.5798 30.8444 18.6378 30.7398 18.7408C30.6884 18.7923 30.6477 18.8535 30.62 18.9207C30.5922 18.988 30.578 19.0601 30.5781 19.1329C30.5799 19.2791 30.6378 19.419 30.7398 19.5238L31.8385 20.6225L31.9946 20.7786C32.0995 20.8813 32.2399 20.9396 32.3867 20.9414C32.5332 20.9401 32.6735 20.8817 32.7776 20.7786C32.8816 20.675 32.9401 20.5344 32.9404 20.3877C32.9379 20.2411 32.8797 20.1009 32.7776 19.9956Z" fill="#89B05F"/>
<path d="M17.2229 6.0049L18.3215 7.10354L18.4777 7.2597C18.5824 7.36182 18.7224 7.41973 18.8686 7.4214C19.0154 7.4207 19.1561 7.36268 19.2607 7.2597C19.3121 7.20818 19.3528 7.14704 19.3805 7.07977C19.4083 7.01249 19.4225 6.94041 19.4224 6.86764C19.4206 6.72142 19.3627 6.58146 19.2607 6.47669L18.162 5.37804L18.0059 5.22189C17.901 5.11919 17.7606 5.06088 17.6138 5.05908C17.4673 5.06036 17.327 5.11877 17.2229 5.22189C17.1189 5.32548 17.0604 5.4661 17.0601 5.61284C17.0626 5.75944 17.1208 5.89958 17.2229 6.0049Z" fill="#89B05F"/>
</svg>
