<svg width="39" height="38" viewBox="0 0 39 38" fill="none" xmlns="http://www.w3.org/2000/svg">
<g clip-path="url(#clip0_247_1311)">
<path d="M2.45752 21.159V2.22339C2.45752 1.78885 2.63014 1.37211 2.9374 1.06485C3.24467 0.75758 3.66141 0.584961 4.09595 0.584961H34.524C34.9586 0.584961 35.3753 0.75758 35.6826 1.06485C35.9899 1.37211 36.1625 1.78885 36.1625 2.22339V37.4146H2.45752V24.5412" stroke="#89B05F" stroke-miterlimit="10" stroke-linecap="round"/>
<path d="M16.7119 12.3115V36.537" stroke="#89B05F" stroke-miterlimit="10" stroke-linecap="round"/>
<path d="M5.40674 36.5371V5.03237C5.40674 4.67232 5.54978 4.32701 5.80437 4.07242C6.05896 3.81783 6.40426 3.6748 6.7643 3.6748H15.3544C15.7144 3.6748 16.0597 3.81783 16.3143 4.07242C16.5689 4.32701 16.7119 4.67232 16.7119 5.03237V9.6434" stroke="#89B05F" stroke-miterlimit="10" stroke-linecap="round"/>
<path d="M22.0371 26.8119V5.03242C22.0371 4.67237 22.1802 4.32706 22.4348 4.07247C22.6894 3.81788 23.0346 3.67486 23.3947 3.67486H31.9848C32.164 3.67331 32.3418 3.70729 32.5079 3.77482C32.6739 3.84235 32.825 3.94209 32.9523 4.06831C33.0796 4.19453 33.1806 4.3447 33.2496 4.51018C33.3186 4.67565 33.354 4.85315 33.354 5.03242V36.5372" stroke="#89B05F" stroke-miterlimit="10" stroke-linecap="round"/>
<path d="M22.0371 36.537V29.5386" stroke="#89B05F" stroke-miterlimit="10" stroke-linecap="round"/>
<path d="M19.3101 0.584961V36.7827" stroke="#89B05F" stroke-miterlimit="10" stroke-linecap="round"/>
<path d="M0.584961 37.415H38.0349" stroke="#89B05F" stroke-miterlimit="10" stroke-linecap="round"/>
<path d="M30.8027 16.1855V24.3075" stroke="#89B05F" stroke-miterlimit="10" stroke-linecap="round"/>
<path d="M7.80615 16.1855V24.3075" stroke="#89B05F" stroke-miterlimit="10" stroke-linecap="round"/>
</g>
<defs>
<clipPath id="clip0_247_1311">
<rect width="38.6203" height="38" fill="white"/>
</clipPath>
</defs>
</svg>
