<svg width="38" height="38" viewBox="0 0 38 38" fill="none" xmlns="http://www.w3.org/2000/svg">
<path d="M21.9688 9.35156C21.5591 9.35156 21.2266 9.68406 21.2266 10.0938C21.2266 10.5034 21.5591 10.8359 21.9688 10.8359C22.3784 10.8359 22.7109 10.5034 22.7109 10.0938C22.7109 9.68406 22.3784 9.35156 21.9688 9.35156Z" fill="#89B05F"/>
<path d="M37.2578 4.89844H0.742188C0.332277 4.89844 0 5.23079 0 5.64062V10.0938C0 12.04 1.50627 13.6398 3.41406 13.7918V17.5156C3.41406 23.2704 6.53771 28.315 11.2064 31.0157C11.2122 31.0191 11.218 31.0223 11.2239 31.0257C11.2241 31.0258 11.2243 31.026 11.2245 31.026C13.5783 32.3838 16.2664 33.1016 19 33.1016C21.829 33.1016 24.5292 32.3309 26.7936 31.0157L26.7936 31.0158C29.1199 29.6701 31.0711 27.7349 32.436 25.4194C33.8425 23.0333 34.5859 20.3003 34.5859 17.5156V13.7918C36.4937 13.6399 38 12.04 38 10.0938V5.64062C38 5.23079 37.6677 4.89844 37.2578 4.89844ZM25.6797 29.9372C23.6375 31.0372 21.3375 31.6172 19 31.6172C16.6626 31.6172 14.3626 31.0372 12.3203 29.9372V23.4531C12.3203 19.7699 15.3168 16.7734 19 16.7734C22.6832 16.7734 25.6797 19.7699 25.6797 23.4531V29.9372ZM33.1016 17.5156C33.1016 22.0905 30.8557 26.3835 27.1641 29.013V23.4531C27.1641 18.9515 23.5017 15.2891 19 15.2891C14.4983 15.2891 10.8359 18.9515 10.8359 23.4531V29.013C7.1443 26.3835 4.89844 22.0905 4.89844 17.5156V13.8047H33.1016V17.5156ZM36.5156 9.35156H24.9375C24.5276 9.35156 24.1953 9.68391 24.1953 10.0938C24.1953 10.5036 24.5276 10.8285 24.9375 10.8285H36.388C36.0816 11.6923 35.2566 12.3203 34.2891 12.3203C31.5753 12.3203 7.46641 12.3203 3.71094 12.3203C2.48321 12.3203 1.48438 11.3215 1.48438 10.0938V6.38281H36.5156V9.35156Z" fill="#89B05F"/>
<path d="M19 18.2578C16.1353 18.2578 13.8047 20.5884 13.8047 23.4531C13.8047 26.3178 16.1353 28.6484 19 28.6484C21.8647 28.6484 24.1953 26.3178 24.1953 23.4531C24.1953 20.5884 21.8647 18.2578 19 18.2578ZM19 27.1641C16.9538 27.1641 15.2891 25.4993 15.2891 23.4531C15.2891 21.4069 16.9538 19.7422 19 19.7422C21.0462 19.7422 22.7109 21.4069 22.7109 23.4531C22.7109 25.4993 21.0462 27.1641 19 27.1641Z" fill="#89B05F"/>
<path d="M19 21.2266C17.7723 21.2266 16.7734 22.2254 16.7734 23.4531C16.7734 24.6809 17.7723 25.6797 19 25.6797C20.2277 25.6797 21.2266 24.6809 21.2266 23.4531C21.2266 22.2254 20.2277 21.2266 19 21.2266ZM19 24.1953C18.5908 24.1953 18.2578 23.8624 18.2578 23.4531C18.2578 23.0439 18.5908 22.7109 19 22.7109C19.4092 22.7109 19.7422 23.0439 19.7422 23.4531C19.7422 23.8624 19.4092 24.1953 19 24.1953Z" fill="#89B05F"/>
</svg>
