<svg width="38" height="38" viewBox="0 0 38 38" fill="none" xmlns="http://www.w3.org/2000/svg">
<path d="M33.5471 23.695C33.4193 23.3055 33.0002 23.0937 32.6105 23.2211C32.0413 23.4079 31.4456 23.5025 30.84 23.5025H29.811C29.4012 23.5025 29.0688 23.8349 29.0688 24.2447C29.0688 24.6546 29.4012 24.9869 29.811 24.9869H30.84C31.6031 24.9869 32.3544 24.8673 33.0732 24.6316C33.4626 24.5038 33.6749 24.0845 33.5471 23.695Z" fill="#89B05F"/>
<path d="M35.8971 21.8457C35.6072 21.556 35.1374 21.556 34.8475 21.8457L34.8176 21.8753C34.525 22.1625 34.5206 22.6324 34.8077 22.9249C34.953 23.0729 35.1452 23.1472 35.3375 23.1472C35.5251 23.1472 35.7128 23.0766 35.8573 22.9348L35.8971 22.8954C36.187 22.6055 36.187 22.1356 35.8971 21.8457Z" fill="#89B05F"/>
<path d="M30.8402 10.6673C30.3783 10.6673 29.9202 10.7112 29.4709 10.7983C28.8755 8.75718 27.6633 6.91826 26.0044 5.55991C24.1195 4.01653 21.7373 3.1665 19.2969 3.1665C17.1121 3.1665 15.0144 3.82631 13.2303 5.07445C11.6932 6.14988 10.4827 7.59143 9.69668 9.27382C9.18331 9.11262 8.64871 9.03127 8.09957 9.03127C5.15449 9.03127 2.75849 11.4273 2.75849 14.3724C2.75849 14.5655 2.76925 14.7593 2.79048 14.9525C1.07758 15.8799 0 17.6632 0 19.6458C0 22.5909 3.45156 24.9869 6.39663 24.9869H7.71053C8.12036 24.9869 8.45271 24.6546 8.45271 24.2447C8.45271 23.8349 8.12036 23.5025 7.71053 23.5025H6.39663C4.27004 23.5025 1.48438 21.7724 1.48438 19.6458C1.48438 18.068 2.42963 16.665 3.89263 16.0714C4.22891 15.935 4.4172 15.5753 4.33779 15.2212C4.27478 14.9406 4.24286 14.655 4.24286 14.3724C4.24286 12.2458 5.97298 10.5156 8.09957 10.5156C8.68649 10.5156 9.24988 10.644 9.77409 10.8971C9.9609 10.9872 10.1769 10.9951 10.37 10.9188C10.563 10.8424 10.715 10.6887 10.7896 10.4949C12.1328 6.99938 15.5516 4.65088 19.2969 4.65088C23.3552 4.65088 26.939 7.38295 28.0511 11.2323C27.36 11.5257 26.7127 11.9282 26.1453 12.4215C25.5074 12.9759 24.9774 13.631 24.5697 14.3686C24.3715 14.7274 24.5017 15.179 24.8605 15.3772C24.9742 15.4401 25.0973 15.4699 25.2187 15.4699C25.48 15.4699 25.7336 15.3315 25.869 15.0865C26.1922 14.5014 26.6128 13.9817 27.119 13.5418C27.7165 13.0225 28.425 12.6301 29.178 12.3992C29.2342 12.382 29.2906 12.3656 29.3472 12.3501C29.3515 12.3489 29.3557 12.3476 29.36 12.3465C29.8403 12.2171 30.3372 12.1517 30.8402 12.1517C33.9696 12.1517 36.5156 14.6977 36.5156 17.8271C36.5156 18.4943 36.4011 19.1473 36.1753 19.7679C36.0352 20.1531 36.2338 20.579 36.6191 20.7191C37.0044 20.8591 37.4302 20.6605 37.5703 20.2753C37.8554 19.4915 38 18.6678 38 17.827C38 13.8791 34.7882 10.6673 30.8402 10.6673Z" fill="#89B05F"/>
<path d="M19 21.2432C17.893 21.2433 16.8133 21.5872 15.9102 22.2274C15.007 22.8676 14.325 23.7725 13.9583 24.817C13.5917 25.8616 13.5585 26.9943 13.8634 28.0585C14.1682 29.1227 14.7961 30.066 15.6602 30.758C15.7835 30.8504 15.938 30.8912 16.0908 30.8718C16.2437 30.8524 16.3831 30.7743 16.4794 30.6541C16.5758 30.5338 16.6216 30.3808 16.6073 30.2273C16.5929 30.0739 16.5194 29.9321 16.4024 29.8318C15.7367 29.299 15.251 28.5743 15.0112 27.756C14.7714 26.9378 14.7891 26.0656 15.0618 25.2577C15.3345 24.4498 15.8491 23.7454 16.5358 23.2399C17.2225 22.7344 18.048 22.4524 18.9004 22.432C19.7529 22.4117 20.5909 22.654 21.3009 23.1261C22.011 23.5982 22.5586 24.2773 22.8696 25.0712C23.1806 25.8651 23.2399 26.7355 23.0394 27.5643C22.839 28.393 22.3885 29.1401 21.749 29.7041C21.6309 29.8083 21.559 29.9552 21.5492 30.1124C21.5394 30.2696 21.5924 30.4242 21.6966 30.5423C21.8008 30.6604 21.9477 30.7323 22.1049 30.7421C22.2621 30.752 22.4167 30.6989 22.5348 30.5947C23.3489 29.8768 23.9251 28.9279 24.1866 27.8744C24.4481 26.821 24.3826 25.7128 23.9988 24.6975C23.6151 23.6822 22.9312 22.8078 22.0382 22.1907C21.1452 21.5736 20.0855 21.2431 19 21.2432Z" fill="#89B05F"/>
<path d="M19.5938 24.9081V24.2119C19.5938 24.0544 19.5312 23.9034 19.4199 23.7921C19.3085 23.6807 19.1575 23.6182 19 23.6182C18.8425 23.6182 18.6915 23.6807 18.5802 23.7921C18.4688 23.9034 18.4063 24.0544 18.4063 24.2119V24.9081C18.0101 25.0481 17.6762 25.3238 17.4636 25.6862C17.251 26.0486 17.1734 26.4745 17.2444 26.8887C17.3155 27.3028 17.5306 27.6785 17.8519 27.9493C18.1732 28.2202 18.5798 28.3687 19 28.3687C19.4202 28.3687 19.8269 28.2202 20.1481 27.9493C20.4694 27.6785 20.6846 27.3028 20.7556 26.8887C20.8267 26.4745 20.749 26.0486 20.5364 25.6862C20.3238 25.3238 19.9899 25.0481 19.5938 24.9081ZM19 27.1807C18.8826 27.1807 18.7678 27.1458 18.6701 27.0806C18.5725 27.0154 18.4964 26.9226 18.4515 26.8141C18.4065 26.7056 18.3948 26.5863 18.4177 26.4711C18.4406 26.3559 18.4971 26.2501 18.5802 26.1671C18.6632 26.084 18.769 26.0275 18.8842 26.0046C18.9993 25.9817 19.1187 25.9934 19.2272 26.0384C19.3357 26.0833 19.4285 26.1594 19.4937 26.257C19.5589 26.3547 19.5938 26.4695 19.5938 26.5869C19.5935 26.7443 19.5309 26.8952 19.4196 27.0065C19.3083 27.1178 19.1574 27.1804 19 27.1807Z" fill="#89B05F"/>
<circle cx="19.0001" cy="26.3888" r="7.69444" stroke="#89B05F" stroke-width="1.5"/>
</svg>
