<svg width="34" height="34" viewBox="0 0 34 34" fill="none" xmlns="http://www.w3.org/2000/svg">
    <g clip-path="url(#clip0_256_2243)">
        <path
            d="M29.4759 21.4369C29.3649 21.0986 29.001 20.9147 28.6626 21.0253C28.1683 21.1875 27.6509 21.2697 27.125 21.2697H26.2314C25.8755 21.2697 25.5869 21.5583 25.5869 21.9143C25.5869 22.2702 25.8755 22.5588 26.2314 22.5588H27.125C27.7877 22.5588 28.4402 22.4549 29.0644 22.2502C29.4025 22.1392 29.5869 21.7751 29.4759 21.4369Z"
            fill="#44A093" />
        <path
            d="M31.5164 19.8308C31.2645 19.5792 30.8565 19.5792 30.6048 19.8308L30.5789 19.8565C30.3247 20.1059 30.3209 20.5139 30.5702 20.7679C30.6964 20.8965 30.8634 20.9611 31.0304 20.9611C31.1932 20.9611 31.3563 20.8997 31.4817 20.7766L31.5164 20.7424C31.768 20.4906 31.768 20.0825 31.5164 19.8308Z"
            fill="#44A093" />
        <path
            d="M27.125 10.1232C26.7239 10.1232 26.3261 10.1614 25.9359 10.237C25.4188 8.46444 24.3661 6.86748 22.9255 5.68786C21.2886 4.34756 19.2199 3.60938 17.1006 3.60938C15.2033 3.60938 13.3816 4.18236 11.8323 5.26627C10.4974 6.2002 9.44613 7.45207 8.76357 8.9131C8.31775 8.77311 7.8535 8.70247 7.37661 8.70247C4.81904 8.70247 2.7383 10.7832 2.7383 13.3408C2.7383 13.5085 2.74765 13.6768 2.76608 13.8446C1.27857 14.6499 0.342773 16.1986 0.342773 17.9204C0.342773 20.4779 3.34018 22.5587 5.89774 22.5587H7.03876C7.39467 22.5587 7.68329 22.2701 7.68329 21.9141C7.68329 21.5582 7.39467 21.2696 7.03876 21.2696H5.89774C4.05097 21.2696 1.63184 19.7671 1.63184 17.9204C1.63184 16.5502 2.45271 15.3317 3.72321 14.8163C4.01525 14.6978 4.17877 14.3854 4.1098 14.0779C4.05508 13.8342 4.02737 13.5862 4.02737 13.3408C4.02737 11.494 5.52983 9.99153 7.37661 9.99153C7.8863 9.99153 8.37557 10.103 8.8308 10.3228C8.99303 10.4011 9.18065 10.4079 9.34829 10.3416C9.51587 10.2753 9.64794 10.1418 9.71265 9.97355C10.8792 6.93793 13.8482 4.89844 17.1006 4.89844C20.6249 4.89844 23.7371 7.27102 24.703 10.6139C24.1028 10.8687 23.5407 11.2182 23.0479 11.6466C22.494 12.128 22.0337 12.697 21.6797 13.3376C21.5075 13.6491 21.6206 14.0413 21.9321 14.2134C22.0309 14.268 22.1378 14.2939 22.2432 14.2939C22.4702 14.2939 22.6904 14.1737 22.808 13.9609C23.0887 13.4529 23.4539 13.0016 23.8935 12.6195C24.4124 12.1685 25.0277 11.8277 25.6816 11.6273C25.7303 11.6123 25.7793 11.598 25.8285 11.5846C25.8322 11.5836 25.8359 11.5824 25.8397 11.5815C26.2567 11.4691 26.6882 11.4123 27.125 11.4123C29.8427 11.4123 32.0537 13.6233 32.0537 16.3409C32.0537 16.9204 31.9543 17.4874 31.7582 18.0264C31.6365 18.3609 31.809 18.7307 32.1436 18.8524C32.4782 18.974 32.848 18.8016 32.9696 18.4671C33.2172 17.7864 33.3428 17.0711 33.3428 16.3409C33.3428 12.9124 30.5536 10.1232 27.125 10.1232Z"
            fill="#44A093" />
        <path
            d="M16.8424 19.3076C15.881 19.3077 14.9434 19.6064 14.1591 20.1623C13.3748 20.7183 12.7825 21.5041 12.4641 22.4113C12.1457 23.3184 12.1168 24.302 12.3816 25.2262C12.6463 26.1504 13.1916 26.9696 13.942 27.5705C14.0491 27.6507 14.1832 27.6862 14.316 27.6693C14.4487 27.6525 14.5698 27.5847 14.6534 27.4802C14.7371 27.3758 14.7769 27.2429 14.7644 27.1097C14.752 26.9764 14.6881 26.8533 14.5865 26.7662C14.0084 26.3035 13.5867 25.6741 13.3784 24.9635C13.1702 24.253 13.1855 23.4955 13.4223 22.7939C13.6592 22.0924 14.1061 21.4806 14.7024 21.0416C15.2987 20.6027 16.0156 20.3577 16.7559 20.3401C17.4961 20.3224 18.2239 20.5328 18.8405 20.9428C19.4571 21.3528 19.9327 21.9425 20.2028 22.632C20.4729 23.3214 20.5244 24.0773 20.3503 24.797C20.1762 25.5167 19.785 26.1655 19.2296 26.6553C19.1271 26.7458 19.0647 26.8733 19.0561 27.0098C19.0476 27.1463 19.0936 27.2806 19.1841 27.3832C19.2746 27.4858 19.4022 27.5482 19.5387 27.5567C19.6752 27.5653 19.8095 27.5192 19.9121 27.4287C20.619 26.8052 21.1194 25.9812 21.3465 25.0664C21.5736 24.1515 21.5167 23.1892 21.1835 22.3074C20.8502 21.4257 20.2563 20.6664 19.4808 20.1305C18.7053 19.5946 17.785 19.3076 16.8424 19.3076Z"
            fill="#44A093" />
        <path
            d="M17.3584 22.4898V21.8853C17.3584 21.7485 17.3041 21.6174 17.2074 21.5207C17.1107 21.424 16.9795 21.3696 16.8428 21.3696C16.706 21.3696 16.5749 21.424 16.4782 21.5207C16.3815 21.6174 16.3272 21.7485 16.3272 21.8853V22.4898C15.9831 22.6115 15.6932 22.8508 15.5085 23.1655C15.3239 23.4803 15.2565 23.8502 15.3182 24.2098C15.3799 24.5695 15.5667 24.8957 15.8457 25.1309C16.1247 25.3661 16.4779 25.4951 16.8428 25.4951C17.2077 25.4951 17.5608 25.3661 17.8398 25.1309C18.1188 24.8957 18.3057 24.5695 18.3674 24.2098C18.4291 23.8502 18.3617 23.4803 18.177 23.1655C17.9924 22.8508 17.7024 22.6115 17.3584 22.4898ZM16.8428 24.4634C16.7408 24.4634 16.6411 24.4331 16.5563 24.3765C16.4715 24.3198 16.4054 24.2393 16.3664 24.1451C16.3274 24.0509 16.3172 23.9472 16.3371 23.8472C16.357 23.7471 16.4061 23.6553 16.4782 23.5832C16.5503 23.511 16.6422 23.4619 16.7422 23.442C16.8422 23.4221 16.9459 23.4324 17.0401 23.4714C17.1343 23.5104 17.2149 23.5765 17.2715 23.6613C17.3282 23.7461 17.3584 23.8458 17.3584 23.9478C17.3582 24.0844 17.3038 24.2155 17.2072 24.3121C17.1105 24.4088 16.9795 24.4632 16.8428 24.4634Z"
            fill="#44A093" />
        <circle cx="16.8431" cy="23.7762" r="6.69117" stroke="#44A093" stroke-width="1.28434" />
    </g>
    <defs>
        <clipPath id="clip0_256_2243">
            <rect width="33" height="33" fill="white" transform="translate(0.342773 0.818359)" />
        </clipPath>
    </defs>
</svg>
    