<svg width="33" height="34" viewBox="0 0 33 34" fill="none" xmlns="http://www.w3.org/2000/svg">
    <path
        d="M29.1331 21.4188C29.0221 21.0805 28.6582 20.8966 28.3198 21.0072C27.8255 21.1695 27.3081 21.2517 26.7823 21.2517H25.8887C25.5328 21.2517 25.2441 21.5403 25.2441 21.8962C25.2441 22.2521 25.5328 22.5407 25.8887 22.5407H26.7823C27.4449 22.5407 28.0974 22.4368 28.7216 22.2321C29.0598 22.1211 29.2441 21.757 29.1331 21.4188Z"
        fill="#44A093" />
    <path
        d="M31.1736 19.8127C30.9218 19.5611 30.5138 19.5611 30.262 19.8127L30.2361 19.8384C29.982 20.0878 29.9782 20.4959 30.2275 20.7499C30.3537 20.8785 30.5206 20.943 30.6876 20.943C30.8505 20.943 31.0135 20.8816 31.139 20.7585L31.1736 20.7243C31.4253 20.4725 31.4253 20.0644 31.1736 19.8127Z"
        fill="#44A093" />
    <path
        d="M26.7823 10.1051C26.3811 10.1051 25.9833 10.1433 25.5932 10.2189C25.0761 8.44637 24.0234 6.84942 22.5828 5.66979C20.9458 4.32949 18.8772 3.59131 16.7578 3.59131C14.8605 3.59131 13.0388 4.1643 11.4895 5.24821C10.1546 6.18213 9.10336 7.43401 8.4208 8.89503C7.97498 8.75504 7.51072 8.6844 7.03383 8.6844C4.47627 8.6844 2.39553 10.7651 2.39553 13.3227C2.39553 13.4904 2.40488 13.6587 2.42331 13.8265C0.935795 14.6319 0 16.1806 0 17.9023C0 20.4599 2.08074 22.5406 4.6383 22.5406H5.77932C6.13523 22.5406 6.42385 22.252 6.42385 21.8961C6.42385 21.5402 6.13523 21.2515 5.77932 21.2515H4.6383C2.79153 21.2515 1.28906 19.7491 1.28906 17.9023C1.28906 16.5321 2.10994 15.3137 3.38044 14.7982C3.67247 14.6797 3.83599 14.3674 3.76703 14.0599C3.71231 13.8162 3.68459 13.5681 3.68459 13.3227C3.68459 11.4759 5.18706 9.97346 7.03383 9.97346C7.54353 9.97346 8.03279 10.0849 8.48802 10.3047C8.65025 10.383 8.83788 10.3898 9.00552 10.3236C9.1731 10.2572 9.30516 10.1237 9.36987 9.95548C10.5364 6.91986 13.5054 4.88037 16.7578 4.88037C20.2822 4.88037 23.3944 7.25296 24.3602 10.5958C23.76 10.8506 23.1979 11.2001 22.7051 11.6286C22.1512 12.11 21.6909 12.6789 21.3369 13.3195C21.1647 13.6311 21.2778 14.0232 21.5893 14.1953C21.6882 14.2499 21.795 14.2758 21.9005 14.2758C22.1274 14.2758 22.3476 14.1556 22.4652 13.9429C22.7459 13.4348 23.1111 12.9835 23.5507 12.6014C24.0696 12.1504 24.6849 11.8097 25.3388 11.6092C25.3876 11.5943 25.4366 11.58 25.4857 11.5666C25.4895 11.5655 25.4931 11.5644 25.4969 11.5634C25.914 11.4511 26.3455 11.3942 26.7823 11.3942C29.4999 11.3942 31.7109 13.6052 31.7109 16.3229C31.7109 16.9023 31.6115 17.4694 31.4154 18.0083C31.2937 18.3428 31.4662 18.7127 31.8008 18.8344C32.1354 18.9559 32.5052 18.7835 32.6268 18.449C32.8744 17.7683 33 17.053 33 16.3228C33 12.8944 30.2108 10.1051 26.7823 10.1051Z"
        fill="#44A093" />
    <path
        d="M17.0085 6.15649C14.2049 6.05175 11.625 7.73236 10.5887 10.341C10.4573 10.6717 10.6189 11.0465 10.9497 11.1779C11.0278 11.2089 11.1083 11.2237 11.1875 11.2237C11.4439 11.2237 11.6863 11.0697 11.7867 10.8169C12.6219 8.71463 14.6998 7.36021 16.9599 7.44465C17.3153 7.45863 17.6148 7.18058 17.6283 6.82486C17.6417 6.46915 17.3642 6.16989 17.0085 6.15649Z"
        fill="#44A093" />
    <path
        d="M19.2092 6.62261L19.1906 6.61527C18.8599 6.48346 18.4851 6.64504 18.3535 6.97582C18.2219 7.30652 18.3832 7.68132 18.714 7.81293L18.7326 7.82028C18.8108 7.85141 18.8914 7.86617 18.9707 7.86617C19.2269 7.86617 19.4692 7.71232 19.5697 7.45973C19.7013 7.12902 19.5399 6.75423 19.2092 6.62261Z"
        fill="#44A093" />
    <path
        d="M12.3508 26.1833H10.3426C9.79885 26.1833 9.35645 25.7409 9.35645 25.197V22.1996C9.35645 21.6558 9.79885 21.2134 10.3426 21.2134H12.3508C12.7067 21.2134 12.9953 20.9248 12.9953 20.5688C12.9953 20.2129 12.7067 19.9243 12.3508 19.9243H10.3426C9.08806 19.9243 8.06738 20.945 8.06738 22.1996V25.197C8.06738 26.4517 9.08806 27.4724 10.3426 27.4724H12.3508C12.7068 27.4724 12.9953 27.1837 12.9953 26.8278C12.9953 26.4719 12.7067 26.1833 12.3508 26.1833Z"
        fill="#44A093" />
    <path
        d="M17.4533 19.9243H15.9643C14.8812 19.9243 14 20.8055 14 21.8887V25.508C14 26.5912 14.8812 27.4724 15.9643 27.4724H17.4533C18.5364 27.4724 19.4176 26.5912 19.4176 25.508V21.8887C19.4176 20.8055 18.5364 19.9243 17.4533 19.9243ZM18.1286 25.508C18.1286 25.8804 17.8256 26.1833 17.4533 26.1833H15.9644C15.5921 26.1833 15.2891 25.8803 15.2891 25.508V21.8887C15.2891 21.5163 15.5921 21.2134 15.9644 21.2134H17.4533C17.8257 21.2134 18.1286 21.5164 18.1286 21.8887V25.508Z"
        fill="#44A093" />
    <path
        d="M24.2887 27.0761H23.3191C23.9522 26.4361 24.5518 25.6296 24.5518 24.8701C24.5518 23.7836 23.8218 23.0537 22.7354 23.0537C21.7338 23.0537 20.9189 23.8686 20.9189 24.8701C20.9189 25.226 21.2076 25.5147 21.5635 25.5147C21.9194 25.5147 22.208 25.226 22.208 24.8701C22.208 24.5793 22.4446 24.3428 22.7354 24.3428C23.1988 24.3428 23.2627 24.5963 23.2627 24.8701C23.2627 25.3796 22.1912 26.4836 21.1907 27.1949C20.9618 27.3572 20.8643 27.6489 20.9494 27.9162C21.0346 28.1836 21.2829 28.3651 21.5635 28.3651H24.2887C24.6447 28.3651 24.9333 28.0765 24.9333 27.7206C24.9333 27.3647 24.6447 27.0761 24.2887 27.0761Z"
        fill="#44A093" />
</svg>
    