<svg width="38" height="38" viewBox="0 0 38 38" fill="none" xmlns="http://www.w3.org/2000/svg">
<g clip-path="url(#clip0_247_1310)">
<path d="M19.0133 1.48459C18.704 1.48459 18.4188 1.28376 18.3153 0.992374C18.2132 0.704925 18.2996 0.374429 18.5332 0.17671C18.7769 -0.0294694 19.1339 -0.0550749 19.405 0.112585C19.6647 0.273269 19.8012 0.587437 19.7414 0.887132C19.6732 1.22958 19.3628 1.48459 19.0133 1.48459Z" fill="#89B05F"/>
<path d="M31.3171 0H22.3556C21.9456 0 21.6134 0.332277 21.6134 0.742188C21.6134 1.1521 21.9456 1.48438 22.3556 1.48438H30.575V2.28215C30.575 3.16365 29.8578 3.8809 28.9763 3.8809H9.02445C8.14288 3.8809 7.42578 3.16372 7.42578 2.28223V1.48438H15.6452C16.0551 1.48438 16.3874 1.1521 16.3874 0.742188C16.3874 0.332277 16.0551 0 15.6452 0H6.68359C6.27368 0 5.94141 0.332277 5.94141 0.742188V2.28223C5.94141 3.98221 7.32447 5.36527 9.02445 5.36527H9.63832V6.1183C9.63832 7.97458 11.1485 9.48479 13.0048 9.48479H24.9959C26.8522 9.48479 28.3624 7.97458 28.3624 6.1183V5.36527H28.9762C30.6762 5.36527 32.0593 3.98221 32.0593 2.28215V0.742188C32.0593 0.332277 31.727 0 31.3171 0V0ZM26.8781 6.1183C26.8781 7.1561 26.0338 8.00041 24.996 8.00041H13.0048C11.967 8.00041 11.1227 7.1561 11.1227 6.1183V5.36527H26.8781V6.1183Z" fill="#89B05F"/>
<path d="M19 17.6379C17.5418 17.6379 16.3555 16.4515 16.3555 14.9933C16.3555 13.7688 17.9436 11.7714 18.4303 11.1884C18.5713 11.0195 18.78 10.9219 19 10.9219C19.22 10.9219 19.4287 11.0195 19.5697 11.1884C20.0565 11.7714 21.6446 13.7687 21.6446 14.9933C21.6447 16.4515 20.4583 17.6379 19 17.6379ZM19 12.8699C18.3727 13.7259 17.8398 14.6335 17.8398 14.9933C17.8398 15.6331 18.3603 16.1535 19 16.1535C19.6398 16.1535 20.1602 15.633 20.1602 14.9933C20.1603 14.6336 19.6273 13.7259 19 12.8699Z" fill="#89B05F"/>
<path d="M27.2894 28.8113C27.212 28.1332 26.6921 26.7553 26.3891 25.9944C26.189 25.4918 25.9855 25.0124 25.8162 24.6447C25.5505 24.0678 25.3413 23.6118 24.7768 23.6565C24.3706 23.6883 24.0664 24.0408 24.0842 24.459C24.1015 24.8647 23.9695 25.4258 23.7907 25.9462C23.5583 23.8924 22.6522 23.3696 21.6585 22.998C21.2614 22.8495 21.1259 22.7865 21.0403 22.6076C20.9216 22.3597 20.8316 21.7723 21.0773 20.3821C21.1154 20.166 21.0561 19.9442 20.915 19.776C20.774 19.6078 20.5658 19.5107 20.3464 19.5107C16.4912 19.5107 15.9514 22.47 15.5943 24.4282C15.4279 25.3405 15.2895 25.9981 15.0367 26.235C14.8712 25.8392 14.6963 24.9078 14.7118 23.7438C14.7174 23.3298 14.4178 22.9888 14.0149 22.9506C13.5466 22.9061 13.2307 23.2699 12.9462 23.6464C12.7019 23.9698 12.4286 24.4014 12.1768 24.8615C11.6962 25.7401 11.0623 27.1305 10.7718 28.7653C10.3804 30.9682 10.9867 33.162 12.4788 34.9427C14.0658 36.8365 16.4783 37.9753 18.9462 37.9997C18.9641 38 18.982 38.0001 19 38.0001C19.0032 38.0001 19.0065 38 19.0098 38C19.0156 38 19.0214 38.0001 19.0271 38.0001C21.4004 38.0001 23.668 36.9841 25.2486 35.2128C26.8103 33.4627 27.5541 31.1295 27.2894 28.8113ZM16.98 34.4954C16.98 34.1516 17.2567 33.2664 17.875 32.0639C18.097 31.6321 18.309 31.2646 18.4959 30.9669C18.819 31.7387 19.4104 32.1393 19.882 32.4588C20.5429 32.9066 21.0204 33.2302 21.0204 34.4954C21.0204 35.6061 20.1194 36.5103 19.0099 36.5156C18.9957 36.5156 18.9816 36.5155 18.9673 36.5154C17.8684 36.4977 16.98 35.5984 16.98 34.4954ZM24.1412 34.2245C23.61 34.8198 22.9843 35.3112 22.2971 35.6843C22.4314 35.313 22.5047 34.9126 22.5047 34.4954C22.5047 32.4428 21.4701 31.7418 20.7145 31.2299C20.0877 30.8052 19.7423 30.5712 19.7423 29.6612C19.7423 28.9764 19.2948 28.6645 18.8789 28.6645C18.4057 28.6645 18.0423 29.0291 17.6422 29.5764C17.352 29.9735 17.0191 30.5146 16.7046 31.1001C16.3411 31.7771 15.4956 33.4631 15.4956 34.4954C15.4956 34.9081 15.5674 35.3043 15.6989 35.6722C14.9083 35.25 14.196 34.6805 13.6167 33.9893C12.4114 32.551 11.9201 30.7879 12.2334 29.0249C12.459 27.7552 12.9351 26.6089 13.3803 25.7623C13.5071 26.4642 13.7357 27.1502 14.1443 27.5123C14.4025 27.7413 14.7231 27.8433 15.0476 27.7999C16.5245 27.6014 16.8061 26.0571 17.0546 24.6946C17.4191 22.6965 17.7919 21.3797 19.4805 21.067C19.3804 22.0381 19.453 22.7295 19.7013 23.2485C20.0526 23.9823 20.6803 24.217 21.1386 24.3883C21.5305 24.5348 21.7612 24.6306 21.9465 24.8938C22.2233 25.287 22.3637 26.0172 22.3637 27.0643C22.3637 27.6652 22.4336 28.3184 22.9518 28.6078C23.2437 28.7709 23.6004 28.7559 23.9058 28.5677C24.3338 28.3042 24.7663 27.56 25.0829 26.7281C25.4334 27.6205 25.7682 28.5746 25.8145 28.9797C26.0314 30.878 25.4215 32.7897 24.1412 34.2245Z" fill="#89B05F"/>
<path d="M5.46204 34.8181C5.27211 34.8181 5.08219 34.7456 4.93724 34.6007C3.64709 33.3105 2.93652 31.5927 2.93652 29.7638C2.93652 27.9348 3.64702 26.217 4.93717 24.9268C5.22699 24.637 5.69694 24.637 5.98684 24.9268C6.27667 25.2167 6.27667 25.6866 5.98684 25.9765C4.97702 26.9863 4.4209 28.3313 4.4209 29.7638C4.4209 31.1963 4.97702 32.5413 5.98677 33.5511C6.27659 33.8409 6.27667 34.3108 5.98677 34.6007C5.84197 34.7455 5.65197 34.8181 5.46204 34.8181Z" fill="#89B05F"/>
<path d="M8.26203 33.0984C8.07211 33.0984 7.88211 33.0259 7.73723 32.881C6.90568 32.0494 6.44775 30.9424 6.44775 29.7638C6.44775 28.5851 6.90568 27.4781 7.7373 26.6465C8.02713 26.3568 8.49708 26.3567 8.78691 26.6466C9.07673 26.9364 9.07673 27.4064 8.78683 27.6962C8.23568 28.2474 7.93213 28.9816 7.93213 29.7638C7.93213 30.5459 8.23568 31.2802 8.78691 31.8314C9.07673 32.1212 9.07673 32.5912 8.78691 32.8811C8.64196 33.0259 8.45196 33.0984 8.26203 33.0984Z" fill="#89B05F"/>
<path d="M32.5381 34.8181C32.3481 34.8181 32.1581 34.7456 32.0133 34.6007C31.7234 34.3109 31.7234 33.8409 32.0133 33.551C34.1016 31.4627 34.1016 28.0648 32.0133 25.9764C31.7234 25.6866 31.7234 25.2166 32.0133 24.9268C32.3031 24.6371 32.773 24.637 33.0629 24.9269C35.7299 27.5939 35.7299 31.9336 33.0629 34.6007C32.9179 34.7456 32.728 34.8181 32.5381 34.8181Z" fill="#89B05F"/>
<path d="M29.7383 33.0984C29.5483 33.0984 29.3583 33.026 29.2135 32.8811C28.9236 32.5912 28.9236 32.1213 29.2135 31.8314C29.7647 31.2802 30.0682 30.5459 30.0682 29.7638C30.0682 28.9816 29.7647 28.2474 29.2135 27.6962C28.9237 27.4064 28.9236 26.9364 29.2135 26.6466C29.5034 26.3568 29.9733 26.3567 30.2631 26.6465C31.0947 27.4781 31.5526 28.5851 31.5526 29.7638C31.5526 30.9424 31.0947 32.0494 30.2631 32.881C30.1181 33.0259 29.9282 33.0984 29.7383 33.0984Z" fill="#89B05F"/>
</g>
<defs>
<clipPath id="clip0_247_1310">
<rect width="38" height="38" fill="white"/>
</clipPath>
</defs>
</svg>
