<svg width="33" height="34" viewBox="0 0 33 34" fill="none" xmlns="http://www.w3.org/2000/svg">
    <path
        d="M19.3077 4C21.5699 4 29 16.319 29 21.0526C29 26.5464 24.6606 31 19.3077 31C18.0453 31 16.8154 30.7518 15.6694 30.2752C15.315 30.1278 15.1442 29.7135 15.2878 29.3498C15.4314 28.9861 15.8351 28.8108 16.1894 28.9582C17.1709 29.3664 18.2243 29.5789 19.3077 29.5789C23.8959 29.5789 27.6154 25.7043 27.6154 21.0526C27.4617 16.0999 20.6507 6.19693 19.2537 5.43171C17.8169 6.24479 13.3778 13.6634 12.2618 16.382C12.1083 16.7413 11.6999 16.9049 11.3498 16.7473C10.9996 16.5896 10.8403 16.1705 10.9938 15.8112C12.2618 12.5072 17.3342 4.17502 19.3077 4ZM15.8462 26.0263C16.2285 26.0263 16.5385 26.3444 16.5385 26.7368C16.5385 27.1012 16.2677 27.4474 15.8462 27.4474C14.782 27.4474 13.9607 28.8684 12.3865 28.8684C10.8122 28.8684 10.0123 27.4474 8.92308 27.4474C7.83384 27.4473 7.05503 28.8684 5.46154 28.8684C4.35432 28.8684 3.26874 28.3114 2.20776 27.2443C1.93467 26.9697 1.93023 26.5198 2.19784 26.2395C2.46545 25.9593 2.90377 25.9547 3.17686 26.2294C3.99985 27.0571 4.76047 27.4474 5.46154 27.4474C6.43227 27.4474 7.31993 26.0262 8.92308 26.0263C10.5262 26.0264 11.3434 27.4474 12.3828 27.4474C13.4221 27.4474 14.148 26.0264 15.8462 26.0263ZM3.17686 23.3873C3.99984 24.2149 4.76046 24.6053 5.46154 24.6053C5.84389 24.6053 6.15385 24.9234 6.15385 25.3158C6.15385 25.7082 5.84389 26.0263 5.46154 26.0263C4.35427 26.0263 3.26873 25.4693 2.20776 24.4022C1.93467 24.1276 1.93023 23.6777 2.19784 23.3974C2.46545 23.1172 2.90377 23.1126 3.17686 23.3873ZM15.8462 23.1842C17.5133 23.1842 18.3179 24.6053 19.3144 24.6053C20.0112 24.6123 20.7686 24.2236 21.59 23.3896C21.8619 23.1136 22.3002 23.1161 22.5691 23.395C22.838 23.674 22.8356 24.1239 22.5638 24.3999C21.5012 25.4787 20.4139 26.0263 19.301 26.0263C17.6986 26.0263 16.9439 24.6053 15.8462 24.6053C14.7484 24.6053 13.9727 26.0264 12.3865 26.0263C10.8002 26.0262 10.017 24.6053 8.92308 24.6053C8.54073 24.6053 8.23077 24.2871 8.23077 23.8947C8.23077 23.5023 8.54073 23.1842 8.92308 23.1842C10.5803 23.1843 11.3679 24.6052 12.3828 24.6053C13.3976 24.6053 14.179 23.1842 15.8462 23.1842ZM8.92308 20.3421C9.30543 20.3421 9.61539 20.6602 9.61539 21.0526C9.61539 21.417 9.34063 21.7632 8.92308 21.7632C7.82657 21.7632 7.04122 23.1842 5.46154 23.1842C4.35427 23.1842 3.26873 22.6272 2.20776 21.5601C1.93467 21.2855 1.93023 20.8356 2.19784 20.5553C2.46545 20.2751 2.90377 20.2705 3.17686 20.5451C3.99984 21.3728 4.76046 21.7632 5.46154 21.7632C6.58865 21.7632 7.191 20.3421 8.92308 20.3421ZM15.8462 20.3421C17.451 20.3421 18.2814 21.7584 19.3144 21.7632C20.0112 21.7702 20.7686 21.3815 21.59 20.5475C21.8619 20.2715 22.3002 20.274 22.5691 20.5529C22.838 20.8319 22.8356 21.2818 22.5638 21.5578C21.5012 22.6366 20.4133 23.1842 19.301 23.1842C17.7314 23.1842 16.9435 21.7679 15.8462 21.7632C14.7488 21.7584 13.9929 23.1842 12.3865 23.1842C12.0041 23.1853 11.6933 22.868 11.6923 22.4756C11.6913 22.0832 12.0004 21.7642 12.3828 21.7632C13.3828 21.7584 14.2413 20.3421 15.8462 20.3421ZM15.8462 17.5C16.2285 17.5 16.5385 17.8181 16.5385 18.2105C16.5385 18.5749 16.2462 18.9211 15.8462 18.9211C14.6971 18.921 14.007 20.3377 12.3865 20.3421C10.766 20.3465 10.0279 18.9211 8.92308 18.9211C7.81823 18.9211 7.08625 20.3421 5.46154 20.3421C4.35427 20.3421 3.26874 19.7851 2.20776 18.718C1.93467 18.4434 1.93023 17.9935 2.19784 17.7132C2.46545 17.4329 2.90377 17.4284 3.17686 17.703C3.99985 18.5307 4.76047 18.9211 5.46154 18.9211C6.46584 18.9163 7.28886 17.5 8.92308 17.5C10.5573 17.5 11.3498 18.9239 12.3828 18.9211C13.4158 18.9182 14.1878 17.5 15.8462 17.5Z"
        fill="#44A093" />
</svg>
    