<svg width="38" height="38" viewBox="0 0 38 38" fill="none" xmlns="http://www.w3.org/2000/svg">
<path fill-rule="evenodd" clip-rule="evenodd" d="M20.5001 8.31829C22.5888 8.31829 24.2882 6.61898 24.2882 4.53016C24.2882 2.44135 22.5888 0.742188 20.5001 0.742188C18.4114 0.742188 16.7121 2.4415 16.7121 4.53024C16.7121 6.61898 18.4114 8.31829 20.5001 8.31829ZM20.5001 1.63281C22.0977 1.63281 23.3975 2.93261 23.3975 4.53024C23.3975 6.12787 22.0977 7.42774 20.5001 7.42774C18.9025 7.42774 17.6027 6.12795 17.6027 4.53024C17.6027 2.93253 18.9025 1.63281 20.5001 1.63281ZM31.1601 14.0478L25.1503 12.817L21.942 10.2958C21.2893 9.78292 20.6028 9.4882 19.7816 9.36826L18.0099 9.10954C17.1652 8.98618 16.4039 9.08 15.6142 9.40478L10.9035 11.3424C10.5331 11.4866 10.2178 11.7361 9.99155 12.0637L5.60366 18.4122C5.30234 18.8484 5.18908 19.376 5.28452 19.8975C5.38004 20.4191 5.67284 20.8722 6.10917 21.1734C7.00966 21.7953 8.2483 21.5685 8.87025 20.668L12.9237 14.8034L14.8503 14.0109L13.8852 19.0342C13.7711 19.6306 13.8418 20.2272 14.0624 20.7583L12.6961 27.6136L6.78701 32.8865C5.75641 33.8038 5.66423 35.3885 6.5815 36.4191C7.02577 36.9184 7.638 37.2148 8.3053 37.2536C8.35503 37.2565 8.40446 37.2579 8.45389 37.2579C9.06738 37.2579 9.65222 37.0359 10.1146 36.6243L16.5816 30.8536C17.0256 30.4879 17.3319 29.9758 17.4446 29.4106L17.9244 27.003L18.3064 27.7273L19.7256 35.2157C19.8484 35.8719 20.2194 36.441 20.7704 36.8181C21.1911 37.1061 21.678 37.2558 22.1771 37.2558C22.3315 37.2558 22.4872 37.2415 22.6424 37.2124C23.2987 37.0895 23.8678 36.7184 24.2449 36.1675C24.6221 35.6165 24.762 34.9518 24.639 34.2946L23.1608 26.494C23.1177 26.2265 23.0313 25.9685 22.904 25.7267L20.5284 21.2226C20.3481 20.8807 20.2981 20.5447 20.371 20.1651L21.3805 14.9106L23.0574 16.2284C23.331 16.4434 23.6563 16.5831 23.9994 16.6329L30.3663 17.9369C31.4383 18.1556 32.4888 17.4612 32.7076 16.3891C32.8136 15.8696 32.7109 15.34 32.4185 14.8978C32.1263 14.4556 31.6792 14.1537 31.1601 14.0478ZM16.5713 29.2365C16.4983 29.6029 16.2991 29.9345 16.0104 30.1703C16.0054 30.1744 16.0004 30.1786 15.9956 30.1829L9.52212 35.9594C9.2006 36.2456 8.7875 36.3897 8.35711 36.3644C7.92738 36.3395 7.53305 36.1486 7.24687 35.827C6.96075 35.5055 6.81684 35.0917 6.84186 34.662C6.86687 34.2322 7.05776 33.838 7.37972 33.5514L13.4003 28.1789C13.4725 28.1146 13.5217 28.0286 13.5405 27.9337L14.7663 21.7837C14.9595 21.9679 15.1791 22.1285 15.4222 22.2585L17.2654 25.7534L16.5713 29.2365ZM31.835 16.211C31.7145 16.8021 31.1355 17.1851 30.5447 17.0644L24.1647 15.7577C24.155 15.7557 24.1454 15.754 24.1357 15.7528C23.9436 15.7265 23.7611 15.6489 23.6077 15.5283L21.3562 13.759C21.2341 13.663 21.0709 13.6375 20.9252 13.6919C20.7798 13.7463 20.6731 13.8725 20.6437 14.0251L19.4964 19.9973C19.3848 20.5783 19.4647 21.115 19.7407 21.6382L22.1161 26.1421C22.1988 26.2993 22.2548 26.4669 22.2822 26.6404C22.2829 26.6449 22.2837 26.6494 22.2846 26.6537L23.7638 34.4595C23.9271 35.3315 23.3506 36.1738 22.4786 36.3371C22.056 36.4162 21.6282 36.326 21.2736 36.0833C20.919 35.8405 20.6802 35.4742 20.6009 35.0508L19.1692 27.4959C19.161 27.4523 19.1462 27.4102 19.1255 27.3711L16.1435 21.7172C16.0986 21.6318 16.0269 21.5633 15.9394 21.5221C15.0628 21.1091 14.5778 20.1549 14.76 19.202L15.8805 13.3697C15.9113 13.209 15.8516 13.0444 15.7249 12.9409C15.6441 12.8747 15.5441 12.8404 15.4431 12.8404C15.3859 12.8404 15.3284 12.8513 15.2738 12.8738L12.463 14.03C12.3835 14.0627 12.315 14.1179 12.2661 14.1886L8.13771 20.1617C8.13764 20.1617 8.13764 20.1617 8.13757 20.1618C7.79475 20.6583 7.11172 20.7834 6.61527 20.4405C6.37472 20.2744 6.21322 20.0246 6.1606 19.7371C6.10798 19.4495 6.17047 19.1588 6.33643 18.9184L10.7243 12.5698C10.8496 12.3883 11.0242 12.2505 11.2292 12.1713C11.2322 12.1701 11.2352 12.1689 11.2381 12.1677L15.9529 10.2284C16.5973 9.96335 17.192 9.89002 17.8812 9.99081L19.6528 10.2495C20.3229 10.3474 20.8592 10.5777 21.3917 10.9961L24.6827 13.5823C24.737 13.625 24.8007 13.6545 24.8685 13.6683L30.9817 14.9204C31.268 14.9788 31.5145 15.1452 31.6757 15.389C31.8368 15.6328 31.8934 15.9247 31.835 16.211ZM36.6641 5.49211C36.6641 5.738 36.4646 5.93743 36.2188 5.93743C33.927 5.93743 32.0625 4.07298 32.0625 1.78125C32.0625 1.53536 32.2619 1.33594 32.5078 1.33594C32.7537 1.33594 32.9531 1.53536 32.9531 1.78125C32.9531 3.58187 34.4181 5.04688 36.2187 5.04688C36.4646 5.0468 36.6641 5.24623 36.6641 5.49211ZM1.78125 5.0468C3.58195 5.0468 5.04688 3.58187 5.04688 1.78118C5.04688 1.53529 5.2463 1.33586 5.49219 1.33586C5.73807 1.33586 5.9375 1.53529 5.9375 1.78118C5.9375 4.0729 4.07305 5.93743 1.78125 5.93743C1.53536 5.93743 1.33594 5.738 1.33594 5.49211C1.33594 5.24623 1.53529 5.0468 1.78125 5.0468ZM36.6641 8.36512C36.6641 8.61108 36.4646 8.81043 36.2188 8.81043C32.3428 8.81043 29.1896 5.6571 29.1896 1.78125C29.1896 1.53536 29.389 1.33594 29.6349 1.33594C29.8808 1.33594 30.0802 1.53536 30.0802 1.78125C30.0802 5.166 32.834 7.91973 36.2188 7.91981C36.4646 7.91981 36.6641 8.11916 36.6641 8.36512ZM1.78125 8.81043C1.53536 8.81043 1.33594 8.61108 1.33594 8.36512C1.33594 8.11923 1.53536 7.91981 1.78125 7.91981C5.16607 7.91981 7.91988 5.166 7.91988 1.78125C7.91988 1.53536 8.11931 1.33594 8.3652 1.33594C8.61108 1.33594 8.81051 1.53536 8.81051 1.78125C8.81043 5.6571 5.65718 8.81036 1.78125 8.81043ZM35.7989 2.20111C35.567 1.96925 35.567 1.59325 35.7989 1.36139C36.0308 1.12954 36.4067 1.12954 36.6385 1.36139C36.8704 1.59325 36.8704 1.96917 36.6385 2.20111C36.4067 2.43296 36.0308 2.43296 35.7989 2.20111ZM1.36139 2.20111C1.12954 1.96925 1.12954 1.59325 1.36139 1.36139C1.59333 1.12954 1.96917 1.12954 2.20103 1.36139C2.43296 1.59325 2.43296 1.96917 2.20103 2.20111C1.96925 2.43296 1.59333 2.43296 1.36139 2.20111Z" fill="#89B05F"/>
</svg>
