<svg width="24" height="24" viewBox="0 0 24 24" fill="none" xmlns="http://www.w3.org/2000/svg">
<path d="M3.42916 7.85749C2.78182 7.46909 2.78182 6.53091 3.42915 6.14251L11.4855 1.3087C11.8022 1.11869 12.1978 1.11869 12.5145 1.3087L20.5708 6.14251C21.2182 6.53091 21.2182 7.46909 20.5708 7.85749L12.5145 12.6913C12.1978 12.8813 11.8022 12.8813 11.4855 12.6913L3.42916 7.85749Z" stroke="#2B5783" stroke-width="2" stroke-linecap="round" stroke-linejoin="round"/>
<path d="M22 12L12.5145 17.6913C12.1978 17.8813 11.8022 17.8813 11.4855 17.6913L2 12" stroke="#2B5783" stroke-width="2" stroke-linecap="round" stroke-linejoin="round"/>
<path d="M22 17L12.5145 22.6913C12.1978 22.8813 11.8022 22.8813 11.4855 22.6913L2 17" stroke="#2B5783" stroke-width="2" stroke-linecap="round" stroke-linejoin="round"/>
</svg>
