<svg width="24" height="24" viewBox="0 0 24 24" fill="none" xmlns="http://www.w3.org/2000/svg">
<path d="M12.5454 19L2.45446 19C1.70135 19 1.09082 18.3895 1.09082 17.6364L1.09082 5.36364C1.09082 4.6105 1.70135 4 2.45446 4L11.9999 4L21.5454 4M7 16.5L12.5454 16.5" stroke="#2B5783" stroke-width="1.5" stroke-linecap="round" stroke-linejoin="round"/>
<path d="M21.6667 7H16.3333C15.597 7 15 7.59695 15 8.33333V17.6667C15 18.4031 15.597 19 16.3333 19H21.6667C22.4031 19 23 18.4031 23 17.6667V8.33333C23 7.59695 22.4031 7 21.6667 7Z" stroke="#2B5783" stroke-width="1.5" stroke-linecap="round" stroke-linejoin="round"/>
<path d="M19 17.0067V17" stroke="#2B5783" stroke-width="1.5" stroke-linecap="round" stroke-linejoin="round"/>
</svg>
