<svg width="38" height="38" viewBox="0 0 38 38" fill="none" xmlns="http://www.w3.org/2000/svg">
<path d="M34.6473 6.13477H3.35276C1.50412 6.13477 0 7.63881 0 9.48753V17.1719C0 19.0206 1.50412 20.5246 3.35276 20.5246H34.6472C36.496 20.5246 38 19.0206 38 17.1719V9.48753C38.0001 7.63881 36.496 6.13477 34.6473 6.13477ZM36.8642 17.4508H14.7714C14.4627 17.4508 14.2125 17.7011 14.2125 18.0098C14.2125 18.3185 14.4627 18.5687 14.7714 18.5687H36.39C35.9801 19.0791 35.3514 19.4067 34.6473 19.4067H3.35276C2.64872 19.4067 2.02009 19.0792 1.6101 18.5687H12.5356C12.8443 18.5687 13.0945 18.3185 13.0945 18.0098C13.0945 17.7011 12.8443 17.4508 12.5356 17.4508H1.13592C1.10757 17.2242 1.12182 17.1172 1.11789 16.7526H23.1192C23.4279 16.7526 23.6781 16.5023 23.6781 16.1937C23.6781 15.885 23.4279 15.6347 23.1192 15.6347H1.11789V9.48753C1.11789 8.2552 2.12043 7.25265 3.35276 7.25265H34.6472C35.8796 7.25265 36.8821 8.2552 36.8821 9.48753V15.6347H25.355C25.0462 15.6347 24.796 15.885 24.796 16.1937C24.796 16.5023 25.0462 16.7526 25.355 16.7526H36.8821C36.8783 17.1109 36.8927 17.2228 36.8642 17.4508Z" fill="#89B05F"/>
<path d="M32.2801 14.5172C32.7045 14.5172 33.0485 14.1732 33.0485 13.7489C33.0485 13.3245 32.7045 12.9805 32.2801 12.9805C31.8557 12.9805 31.5117 13.3245 31.5117 13.7489C31.5117 14.1732 31.8557 14.5172 32.2801 14.5172Z" fill="#89B05F"/>
<path d="M35.241 14.5172C35.6654 14.5172 36.0094 14.1732 36.0094 13.7489C36.0094 13.3245 35.6654 12.9805 35.241 12.9805C34.8167 12.9805 34.4727 13.3245 34.4727 13.7489C34.4727 14.1732 34.8167 14.5172 35.241 14.5172Z" fill="#89B05F"/>
<path d="M10.6722 20C8.17193 22 13.6722 25 10.6722 27M5.67235 20C3.1721 22 8.67235 25 5.67235 27M15.6724 20C13.1721 22 18.6724 25 15.6724 27M20.6724 20C18.1721 22 23.6724 25 20.6724 27M25.6724 20C23.1721 22 28.6724 25 25.6724 27" stroke="#89B05F" stroke-linecap="round"/>
<path d="M20.7195 9.27246H17.3783C17.0695 9.27246 16.8193 9.52273 16.8193 9.8314C16.8193 10.1401 17.0695 10.3903 17.3783 10.3903H20.7195C21.0283 10.3903 21.2785 10.1401 21.2785 9.8314C21.2785 9.52273 21.0283 9.27246 20.7195 9.27246Z" fill="#89B05F"/>
</svg>
