<svg width="38" height="38" viewBox="0 0 38 38" fill="none" xmlns="http://www.w3.org/2000/svg">
<g clip-path="url(#clip0_252_2195)">
<path d="M33.4175 38H29.492H8.50799H4.58249C2.05571 38 0 35.9443 0 33.4175V29.4542V8.47014V4.58249C0 2.05571 2.05571 0 4.58249 0H10.498C10.8111 0 11.0648 0.253754 11.0648 0.566807C11.0648 0.879864 10.8111 1.13362 10.498 1.13362H9.07473V3.58551C9.07473 4.56349 9.87035 5.35911 10.8484 5.35911H27.1515C28.1296 5.35911 28.9252 4.56349 28.9252 3.58551V1.13362H12.992C12.6789 1.13362 12.4252 0.879864 12.4252 0.566807C12.4252 0.253754 12.6789 0 12.992 0H33.4175C35.9443 0 38 2.05571 38 4.58249V8.47014V29.4542V33.4175C38 35.9443 35.9443 38 33.4175 38ZM9.07473 36.8664H28.9253V34.3441C28.9253 33.3633 28.1273 32.5653 27.1465 32.5653H10.8535C9.87273 32.5653 9.07473 33.3632 9.07473 34.3441V36.8664ZM1.13362 28.8874H3.62069C4.60008 28.8874 5.39689 28.0906 5.39689 27.1112V10.8132C5.39689 9.83376 4.60008 9.03695 3.62069 9.03695H1.13362V28.8874ZM36.8665 30.021H34.3794C32.7749 30.021 31.4696 28.7157 31.4696 27.1112V10.8132C31.4696 9.20869 32.7749 7.90333 34.3794 7.90333H36.8665V4.58241C36.8664 2.68078 35.3192 1.13362 33.4175 1.13362H30.0588V3.58551C30.0588 5.18856 28.7546 6.49273 27.1515 6.49273H10.8484C9.24536 6.49273 7.94111 5.18856 7.94111 3.58551V1.13362H4.58249C2.68078 1.13362 1.13362 2.68078 1.13362 4.58249V7.90341H3.62069C5.22515 7.90341 6.53051 9.20877 6.53051 10.8132V27.1112C6.53051 28.7157 5.22515 30.021 3.62069 30.021H1.13362V33.4175C1.13362 35.3192 2.68078 36.8664 4.58249 36.8664H7.94118V34.3441C7.94118 32.7382 9.24773 31.4317 10.8536 31.4317H27.1465C28.7523 31.4317 30.0589 32.7382 30.0589 34.3441V36.8664H33.4176C35.3193 36.8664 36.8665 35.3192 36.8665 33.4175V30.021ZM36.8664 28.8874V9.03695H34.3793C33.3999 9.03695 32.6031 9.83376 32.6031 10.8132V27.1112C32.6031 28.0906 33.3999 28.8874 34.3793 28.8874H36.8664Z" fill="#89B05F"/>
<path d="M26.1903 28.5H16.0475C15.7807 28.5 15.5644 28.2837 15.5644 28.0169C15.5644 27.7501 15.7807 27.5339 16.0475 27.5339H26.1903C26.9309 27.5339 27.5334 26.9313 27.5334 26.1908V11.8092C27.5334 11.0686 26.9308 10.4661 26.1903 10.4661H11.8087C11.0681 10.4661 10.4656 11.0687 10.4656 11.8092V26.1908C10.4656 26.9314 11.0682 27.5339 11.8087 27.5339H13.8469C14.1137 27.5339 14.33 27.7501 14.33 28.0169C14.33 28.2837 14.1137 28.5 13.8469 28.5H11.8087C10.5354 28.5 9.49951 27.4641 9.49951 26.1908V11.8092C9.49951 10.5359 10.5354 9.5 11.8087 9.5H26.1903C27.4636 9.5 28.4995 10.5359 28.4995 11.8092V26.1908C28.4995 27.4641 27.4636 28.5 26.1903 28.5Z" fill="#89B05F"/>
<path d="M3.18644 27.1997C2.87338 27.1997 2.61963 26.946 2.61963 26.6329V11.5687C2.61963 11.2557 2.87338 11.0019 3.18644 11.0019C3.49949 11.0019 3.75325 11.2557 3.75325 11.5687V26.6329C3.75325 26.946 3.49949 27.1997 3.18644 27.1997Z" fill="#89B05F"/>
<path d="M26.5319 35.478H11.4677C11.1546 35.478 10.9009 35.2243 10.9009 34.9112C10.9009 34.5982 11.1546 34.3444 11.4677 34.3444H26.5319C26.8449 34.3444 27.0987 34.5982 27.0987 34.9112C27.0987 35.2243 26.8449 35.478 26.5319 35.478Z" fill="#89B05F"/>
<path d="M26.5324 3.81348H11.4682C11.1551 3.81348 10.9014 3.55972 10.9014 3.24667C10.9014 2.93361 11.1551 2.67986 11.4682 2.67986H26.5324C26.8454 2.67986 27.0992 2.93369 27.0992 3.24667C27.0992 3.55972 26.8454 3.81348 26.5324 3.81348Z" fill="#89B05F"/>
<path d="M34.7348 27.1997C34.4218 27.1997 34.168 26.9459 34.168 26.6329V11.5687C34.168 11.2557 34.4217 11.0019 34.7348 11.0019C35.0478 11.0019 35.3016 11.2557 35.3016 11.5687V26.6329C35.3016 26.946 35.0478 27.1997 34.7348 27.1997Z" fill="#89B05F"/>
<path d="M10.0938 13.0625C17.5137 13.0625 27.9062 13.0625 27.9062 13.0625" stroke="#89B05F" stroke-linecap="round"/>
<path d="M10.0938 17.021C10.0938 17.021 20.4863 17.021 27.9062 17.021" stroke="#89B05F" stroke-linecap="round"/>
<path d="M10.0938 20.979C10.0938 20.979 20.4863 20.979 27.9062 20.979" stroke="#89B05F" stroke-linecap="round"/>
<path d="M10.0938 24.9375C17.9775 24.9375 20.0225 24.9375 27.9062 24.9375" stroke="#89B05F" stroke-linecap="round"/>
<path d="M21.9687 10.0937L21.9687 27.9062" stroke="#89B05F" stroke-linecap="round"/>
<path d="M16.0312 10.0937L16.0312 27.9062" stroke="#89B05F" stroke-linecap="round"/>
</g>
<defs>
<clipPath id="clip0_252_2195">
<rect width="38" height="38" fill="white" transform="matrix(1 0 0 -1 0 38)"/>
</clipPath>
</defs>
</svg>
