<svg width="38" height="38" viewBox="0 0 38 38" fill="none" xmlns="http://www.w3.org/2000/svg">
<g clip-path="url(#clip0_252_2194)">
<path d="M24.7948 34.8096C26.6592 35.0821 27.8467 35.4908 27.8467 35.9449C27.8467 36.7624 24.1417 37.4322 19.5342 37.4322C14.9267 37.4322 11.2217 36.7624 11.2217 35.9449C11.2217 35.4794 12.4092 35.0707 14.2854 34.8096" stroke="#89B05F" stroke-miterlimit="10" stroke-linecap="round"/>
<path d="M16.9575 22.4573V4.67783C16.9575 4.37671 17.0826 4.08793 17.3053 3.87501C17.528 3.6621 17.8301 3.54248 18.145 3.54248H21.1494C21.4643 3.54248 21.7664 3.6621 21.9891 3.87501C22.2118 4.08793 22.3369 4.37671 22.3369 4.67783V29.2013C22.3369 29.5024 22.2118 29.7912 21.9891 30.0041C21.7664 30.217 21.4643 30.3366 21.1494 30.3366H18.145C17.8301 30.3366 17.528 30.217 17.3053 30.0041C17.0826 29.7912 16.9575 29.5024 16.9575 29.2013V25.1481" stroke="#89B05F" stroke-miterlimit="10" stroke-linecap="round"/>
<path d="M17.8125 7.125L21.375 7.125" stroke="#89B05F" stroke-miterlimit="10" stroke-linecap="round"/>
<path d="M17.8125 9.5L21.375 9.5" stroke="#89B05F" stroke-miterlimit="10" stroke-linecap="round"/>
<path d="M17.8125 11.875L21.375 11.875" stroke="#89B05F" stroke-miterlimit="10" stroke-linecap="round"/>
<path d="M17.8125 14.25L21.375 14.25" stroke="#89B05F" stroke-miterlimit="10" stroke-linecap="round"/>
<path d="M17.8125 16.625L21.375 16.625" stroke="#89B05F" stroke-miterlimit="10" stroke-linecap="round"/>
<path d="M17.8125 19L21.375 19" stroke="#89B05F" stroke-miterlimit="10" stroke-linecap="round"/>
<path d="M17.8125 21.375L21.375 21.375" stroke="#89B05F" stroke-miterlimit="10" stroke-linecap="round"/>
<path d="M17.8125 26.125L21.375 26.125" stroke="#89B05F" stroke-miterlimit="10" stroke-linecap="round"/>
<path d="M26.4218 12.0006L25.8399 31.4036C25.8029 32.503 25.3199 33.5454 24.4932 34.3104C23.6665 35.0753 22.561 35.5027 21.4105 35.5022H17.7055C16.5551 35.5027 15.4495 35.0753 14.6228 34.3104C13.7961 33.5454 13.3131 32.503 13.2761 31.4036L12.3855 4.92734C12.3648 4.35892 12.464 3.79233 12.6773 3.26138C12.8906 2.73042 13.2136 2.24599 13.627 1.83698C14.0404 1.42797 14.5357 1.10277 15.0834 0.880783C15.6311 0.658792 16.22 0.544577 16.8149 0.544923H22.313C22.9079 0.544577 23.4968 0.658792 24.0445 0.880783C24.5922 1.10277 25.0875 1.42797 25.5009 1.83698C25.9143 2.24599 26.2373 2.73042 26.4506 3.26138C26.6639 3.79233 26.7631 4.35892 26.7424 4.92734L26.5761 9.83204" stroke="#89B05F" stroke-miterlimit="10" stroke-linecap="round"/>
</g>
<defs>
<clipPath id="clip0_252_2194">
<rect width="17.7531" height="38" fill="white" transform="translate(10.6875)"/>
</clipPath>
</defs>
</svg>
