<svg width="38" height="38" viewBox="0 0 38 38" fill="none" xmlns="http://www.w3.org/2000/svg">
<g clip-path="url(#clip0_252_2196)">
<path d="M29.8455 17.6337C30.1953 17.6337 30.4788 17.3502 30.4788 17.0004V2.61859C30.4788 1.17467 29.3042 0 27.8602 0H10.1391C8.69518 0 7.52051 1.17467 7.52051 2.61859V35.3814C7.52051 36.8253 8.69518 38 10.1391 38H27.8602C29.3042 38 30.4788 36.8253 30.4788 35.3814V20.5833C30.4788 20.2336 30.1953 19.95 29.8455 19.95H11.8057C11.456 19.95 11.1724 20.2336 11.1724 20.5833C11.1724 20.9331 11.456 21.2167 11.8057 21.2167H29.2122V35.3814C29.2122 36.1269 28.6057 36.7333 27.8602 36.7333H10.1391C9.39359 36.7333 8.78717 36.1268 8.78717 35.3814V2.61859C8.78717 1.87316 9.39367 1.26667 10.1391 1.26667H27.8602C28.6057 1.26667 29.2122 1.87316 29.2122 2.61859V17.0004C29.2122 17.3502 29.4957 17.6337 29.8455 17.6337Z" fill="#89B05F"/>
<path d="M20.5017 28.9509C20.3494 28.6866 19.4035 27.2348 18.8367 26.3638C18.7877 26.2901 18.7225 26.2299 18.6467 26.1883C18.5708 26.1467 18.4865 26.125 18.4009 26.125C18.3154 26.125 18.2311 26.1467 18.1552 26.1883C18.0794 26.2299 18.0142 26.2901 17.9652 26.3638C17.7764 26.6452 16.8599 28.1476 16.625 28.5M16.2711 29.0938C15.8771 29.6929 15.4883 30.4839 15.4393 31.2104C15.4255 31.6288 15.4921 32.0459 15.635 32.4368C15.7779 32.8276 15.9942 33.1843 16.2711 33.4854C16.548 33.7866 16.8797 34.0261 17.2465 34.1896C17.6133 34.3532 18.0078 34.4375 18.4062 34.4375C18.8047 34.4375 19.1992 34.3532 19.566 34.1896C19.9328 34.0261 20.2646 33.7866 20.5414 33.4854C20.8183 33.1843 21.0346 32.8276 21.1775 32.4368C21.3204 32.0459 21.387 31.6288 21.3732 31.2104" stroke="#89B05F" stroke-miterlimit="10" stroke-linecap="round"/>
<path d="M14.8438 26.7188L22.5625 34.4375" stroke="#89B05F" stroke-linecap="round"/>
<path d="M13.0625 4.75H22.5625" stroke="#89B05F" stroke-linecap="round"/>
<path d="M15.4375 8.3125H24.9375" stroke="#89B05F" stroke-linecap="round"/>
<path d="M13.0625 11.875H22.5625" stroke="#89B05F" stroke-linecap="round"/>
<path d="M24.9375 11.875H25.2344" stroke="#89B05F" stroke-linecap="round"/>
<path d="M24.9375 4.75H25.2344" stroke="#89B05F" stroke-linecap="round"/>
<path d="M13.0625 8.3125H13.3594" stroke="#89B05F" stroke-linecap="round"/>
<path d="M13.0625 15.4375H13.3594" stroke="#89B05F" stroke-linecap="round"/>
<path d="M15.4375 15.4375L24.9375 15.4375" stroke="#89B05F" stroke-linecap="round"/>
</g>
<defs>
<clipPath id="clip0_252_2196">
<rect width="38" height="38" fill="white"/>
</clipPath>
</defs>
</svg>
