<svg width="32" height="33" viewBox="0 0 32 33" fill="none" xmlns="http://www.w3.org/2000/svg">
<g clip-path="url(#clip0_420_2807)">
<path d="M22.6676 0H9.34226C8.46946 0 7.64241 0.333548 7.01325 0.939131C6.82636 1.11926 6.82024 1.41703 7.00004 1.60427C7.17983 1.79175 7.47704 1.79763 7.66418 1.61775C8.11746 1.18127 8.71335 0.941092 9.34226 0.941092H22.6676C24.0032 0.941092 25.0898 2.02972 25.0898 3.36808V6.03034C25.0888 6.30532 25.0155 6.57686 24.8782 6.81434C24.7383 7.05451 24.5377 7.25352 24.2973 7.39051C23.4523 7.87282 22.9276 8.77764 22.9276 9.75206V11.4276C22.9276 11.6874 23.1378 11.8982 23.3973 11.8982C23.6566 11.8982 23.867 11.6874 23.867 11.4276V9.75206C23.867 9.11511 24.2099 8.5235 24.762 8.20858C24.8772 8.1429 24.9868 8.06815 25.0898 7.98531V20.5925C24.9876 20.5102 24.878 20.4354 24.762 20.3692C24.491 20.2146 24.2645 19.9896 24.1072 19.7183C23.9499 19.447 23.8667 19.1382 23.8667 18.8255V13.3101C23.8667 13.0501 23.6566 12.8395 23.3971 12.8395C23.1378 12.8395 22.9274 13.0501 22.9274 13.3101V18.8255C22.9274 19.3039 23.0546 19.7762 23.2948 20.1908C23.5353 20.606 23.8821 20.9506 24.2975 21.1873C24.784 21.4647 25.0879 21.9858 25.0898 22.5472V24.7983C25.0898 26.1364 24.0032 27.2253 22.6676 27.2253H9.34226C8.0064 27.2253 6.9198 26.1364 6.9198 24.7983V22.5472C6.92201 21.9858 7.22558 21.4647 7.71212 21.1873C8.12773 20.9506 8.47435 20.606 8.71481 20.1908C8.95527 19.7762 9.08223 19.3039 9.08223 18.8255V9.75206C9.08223 8.77764 8.55728 7.87282 7.71212 7.39027C7.47215 7.25351 7.27132 7.05427 7.13238 6.81556C6.99441 6.57686 6.92103 6.30532 6.9198 6.03034V3.36808C6.9198 3.25902 6.92714 3.14947 6.94133 3.04262C6.97582 2.78504 6.79529 2.5483 6.5382 2.51374C6.28086 2.47943 6.0448 2.66006 6.01031 2.91788C5.9905 3.0659 5.98047 3.21736 5.98047 3.36808V24.798C5.98047 26.6552 7.48854 28.1661 9.34226 28.1661H10.8738V29.5358H10.091C9.65097 29.5358 9.29285 29.8944 9.29285 30.3355V31.3229C9.29285 31.7638 9.65072 32.1226 10.091 32.1226H12.5962C13.0362 32.1226 13.3944 31.7638 13.3944 31.3229V30.3355C13.3944 29.8944 13.0362 29.5358 12.5962 29.5358H11.8132V28.1661H20.1965V29.5358H19.4134C18.9734 29.5358 18.6153 29.8944 18.6153 30.3355V31.3229C18.6153 31.7638 18.9734 32.1226 19.4134 32.1226H21.9186C22.3587 32.1226 22.717 31.7638 22.717 31.3229V30.3355C22.717 29.8944 22.3589 29.5358 21.9186 29.5358H21.1358V28.1661H22.6676C24.5211 28.1661 26.0292 26.6552 26.0292 24.798V3.36808C26.0292 1.51089 24.5213 0 22.6676 0V0ZM7.24735 8.20809C7.7997 8.5235 8.1429 9.11511 8.1429 9.75206V18.8253C8.1429 19.138 8.05973 19.4468 7.90244 19.7181C7.74539 19.9894 7.51887 20.2144 7.24759 20.369C7.13164 20.4352 7.0223 20.5099 6.9198 20.5923V7.98531C7.02279 8.0679 7.13213 8.14265 7.24735 8.20809ZM12.455 31.1815H10.2322V30.4769H12.455V31.1815ZM21.7777 31.1815H19.5546V30.4769H21.7777V31.1815Z" fill="#2B5783"/>
<path d="M16.005 25.4707C17.615 25.4707 18.925 24.1583 18.925 22.5452C18.925 20.9321 17.615 19.6198 16.005 19.6198C14.3946 19.6198 13.0847 20.9321 13.0847 22.5452C13.0847 24.1583 14.3946 25.4707 16.005 25.4707ZM16.005 20.5608C17.0972 20.5608 17.9856 21.451 17.9856 22.5452C17.9856 23.6395 17.0972 24.5296 16.005 24.5296C14.9128 24.5296 14.0241 23.6395 14.0241 22.5452C14.0241 21.451 14.9128 20.5608 16.005 20.5608Z" fill="#2B5783"/>
<path d="M15.0602 23.0158H15.3479C15.6072 23.0158 15.8176 22.805 15.8176 22.5453C15.8176 22.2852 15.6072 22.0747 15.3479 22.0747H15.0602C14.8009 22.0747 14.5906 22.2852 14.5906 22.5453C14.5906 22.805 14.8009 23.0158 15.0602 23.0158Z" fill="#2B5783"/>
<path d="M14.5808 10.43C14.345 10.3214 14.0661 10.4248 13.9577 10.6611C13.7236 11.1711 13.605 11.6718 13.605 12.1492C13.605 13.4751 14.6815 14.5536 16.0049 14.5536C17.3281 14.5536 18.4046 13.4751 18.4046 12.1492C18.4046 10.1817 16.3904 8.48457 16.3048 8.41326C16.1309 8.26866 15.8787 8.26866 15.7048 8.41326C15.6945 8.42183 15.4455 8.6299 15.125 8.97423C14.9482 9.16441 14.9587 9.46218 15.1485 9.63937C15.3381 9.81656 15.6353 9.80602 15.8122 9.61584C15.8809 9.54208 15.9457 9.47542 16.0044 9.41709C16.5074 9.91753 17.4653 11.0199 17.4653 12.1492C17.4653 12.9562 16.8102 13.6125 16.0049 13.6125C15.1996 13.6125 14.5443 12.9562 14.5443 12.1492C14.5443 11.8085 14.6341 11.4402 14.8112 11.0542C14.9196 10.8179 14.8163 10.5386 14.5808 10.43Z" fill="#2B5783"/>
<path d="M19.8419 4.66061C19.8419 4.40083 19.6318 4.19006 19.3722 4.19006H12.6371C12.3779 4.19006 12.1675 4.40083 12.1675 4.66061C12.1675 4.92063 12.3779 5.13116 12.6371 5.13116H19.3725C19.6318 5.13116 19.8419 4.92063 19.8419 4.66061Z" fill="#2B5783"/>
</g>
<defs>
<clipPath id="clip0_420_2807">
<rect width="32" height="32.1226" fill="white"/>
</clipPath>
</defs>
</svg>
