<svg width="32" height="32" viewBox="0 0 32 32" fill="none" xmlns="http://www.w3.org/2000/svg">
<g clip-path="url(#clip0_461_6033)">
<path d="M16.0114 1.25008C15.7509 1.25008 15.5108 1.08096 15.4236 0.835581C15.3376 0.593518 15.4104 0.315206 15.6071 0.148706C15.8123 -0.0249192 16.1129 -0.0464817 16.3412 0.0947058C16.56 0.230018 16.6749 0.494581 16.6245 0.746956C16.5671 1.03533 16.3057 1.25008 16.0114 1.25008Z" fill="#2B5783"/>
<path d="M26.3722 0H18.8256C18.4804 0 18.2006 0.279813 18.2006 0.625C18.2006 0.970187 18.4804 1.25 18.8256 1.25H25.7472V1.92181C25.7472 2.66412 25.1433 3.26813 24.401 3.26813H7.59942C6.85705 3.26813 6.25317 2.66419 6.25317 1.92188V1.25H13.1748C13.52 1.25 13.7998 0.970187 13.7998 0.625C13.7998 0.279813 13.52 0 13.1748 0H5.62817C5.28299 0 5.00317 0.279813 5.00317 0.625V1.92188C5.00317 3.35344 6.16786 4.51813 7.59942 4.51813H8.11636V5.15225C8.11636 6.71544 9.38811 7.98719 10.9513 7.98719H21.0491C22.6122 7.98719 23.884 6.71544 23.884 5.15225V4.51813H24.4009C25.8325 4.51813 26.9972 3.35344 26.9972 1.92181V0.625C26.9972 0.279813 26.7174 0 26.3722 0V0ZM22.6341 5.15225C22.6341 6.02619 21.9231 6.73719 21.0491 6.73719H10.9513C10.0774 6.73719 9.36636 6.02619 9.36636 5.15225V4.51813H22.6341V5.15225Z" fill="#2B5783"/>
<path d="M16.0002 14.8531C14.7722 14.8531 13.7732 13.8541 13.7732 12.6261C13.7732 11.5949 15.1106 9.91288 15.5204 9.42195C15.6392 9.27976 15.8149 9.19751 16.0002 9.19751C16.1854 9.19751 16.3612 9.2797 16.4799 9.42195C16.8898 9.91288 18.2272 11.5948 18.2272 12.6261C18.2273 13.8541 17.2282 14.8531 16.0002 14.8531ZM16.0002 10.8379C15.4719 11.5588 15.0232 12.3231 15.0232 12.6261C15.0232 13.1648 15.4615 13.6031 16.0002 13.6031C16.5389 13.6031 16.9772 13.1648 16.9772 12.6261C16.9773 12.3231 16.5284 11.5588 16.0002 10.8379Z" fill="#2B5783"/>
<path d="M22.9807 24.2622C22.9155 23.6912 22.4777 22.5309 22.2225 21.8901C22.054 21.4669 21.8827 21.0632 21.74 20.7535C21.5163 20.2677 21.3402 19.8837 20.8648 19.9213C20.5227 19.9481 20.2665 20.2449 20.2815 20.5971C20.2961 20.9388 20.185 21.4113 20.0343 21.8495C19.8387 20.12 19.0757 19.6797 18.2388 19.3668C17.9045 19.2418 17.7903 19.1887 17.7182 19.038C17.6183 18.8293 17.5425 18.3347 17.7494 17.164C17.7815 16.982 17.7315 16.7952 17.6128 16.6535C17.494 16.5119 17.3187 16.4302 17.1339 16.4302C13.8875 16.4302 13.4329 18.9222 13.1322 20.5712C12.992 21.3394 12.8755 21.8932 12.6626 22.0927C12.5232 21.7594 12.3759 20.975 12.389 19.9949C12.3937 19.6462 12.1414 19.359 11.8021 19.3269C11.4078 19.2894 11.1417 19.5958 10.9022 19.9129C10.6964 20.1852 10.4663 20.5486 10.2543 20.9361C9.84954 21.6759 9.31573 22.8468 9.0711 24.2235C8.74148 26.0786 9.25204 27.926 10.5086 29.4256C11.845 31.0203 13.8765 31.9793 15.9548 31.9998C15.9699 32 15.985 32.0002 16.0001 32.0002C16.0028 32.0002 16.0056 32.0001 16.0083 32.0001C16.0132 32.0001 16.0181 32.0002 16.023 32.0002C18.0215 32.0002 19.9311 31.1446 21.2621 29.653C22.5772 28.1792 23.2036 26.2144 22.9807 24.2622ZM14.299 29.0489C14.299 28.7593 14.5321 28.0139 15.0527 27.0012C15.2397 26.6376 15.4182 26.3282 15.5756 26.0774C15.8477 26.7274 16.3457 27.0647 16.7428 27.3338C17.2994 27.7109 17.7015 27.9834 17.7015 29.0489C17.7015 29.9842 16.9428 30.7456 16.0085 30.75C15.9965 30.75 15.9846 30.75 15.9726 30.7499C15.0472 30.735 14.299 29.9777 14.299 29.0489ZM20.3295 28.8207C19.8822 29.322 19.3553 29.7359 18.7766 30.0501C18.8897 29.7373 18.9515 29.4002 18.9515 29.0489C18.9515 27.3204 18.0802 26.73 17.4439 26.2989C16.916 25.9413 16.6252 25.7442 16.6252 24.9779C16.6252 24.4012 16.2483 24.1386 15.8982 24.1386C15.4997 24.1386 15.1937 24.4456 14.8567 24.9065C14.6123 25.2409 14.332 25.6966 14.0672 26.1897C13.761 26.7597 13.049 28.1796 13.049 29.0489C13.049 29.3964 13.1095 29.73 13.2202 30.0399C12.5545 29.6843 11.9546 29.2047 11.4668 28.6226C10.4518 27.4114 10.0381 25.9267 10.3019 24.4421C10.4919 23.3729 10.8929 22.4076 11.2677 21.6946C11.3745 22.2857 11.567 22.8634 11.9111 23.1684C12.1285 23.3612 12.3985 23.4471 12.6718 23.4105C13.9155 23.2434 14.1527 21.9429 14.3619 20.7955C14.6688 19.1129 14.9828 18.0041 16.4048 17.7407C16.3204 18.5585 16.3816 19.1407 16.5907 19.5777C16.8865 20.1957 17.4151 20.3933 17.801 20.5376C18.131 20.661 18.3253 20.7416 18.4814 20.9633C18.7145 21.2944 18.8327 21.9093 18.8327 22.791C18.8327 23.297 18.8915 23.8471 19.3279 24.0909C19.5738 24.2282 19.8741 24.2156 20.1313 24.0571C20.4917 23.8352 20.8559 23.2085 21.1226 22.508C21.4177 23.2594 21.6997 24.0629 21.7387 24.4041C21.9213 26.0026 21.4077 27.6124 20.3295 28.8207Z" fill="#2B5783"/>
<path d="M4.59965 29.3206C4.43971 29.3206 4.27978 29.2596 4.15771 29.1375C3.07128 28.0511 2.4729 26.6045 2.4729 25.0643C2.4729 23.5242 3.07121 22.0776 4.15765 20.9912C4.40171 20.7471 4.79746 20.7471 5.04159 20.9912C5.28565 21.2352 5.28565 21.631 5.04159 21.8751C4.19121 22.7254 3.7229 23.8581 3.7229 25.0644C3.7229 26.2707 4.19121 27.4033 5.04153 28.2537C5.28559 28.4977 5.28565 28.8935 5.04153 29.1375C4.91959 29.2595 4.75959 29.3206 4.59965 29.3206Z" fill="#2B5783"/>
<path d="M6.95774 27.8725C6.79781 27.8725 6.63781 27.8115 6.51581 27.6894C5.81556 26.9892 5.42993 26.0569 5.42993 25.0644C5.42993 24.0719 5.81556 23.1396 6.51587 22.4394C6.75993 22.1954 7.15568 22.1953 7.39974 22.4394C7.64381 22.6835 7.64381 23.0792 7.39968 23.3233C6.93556 23.7874 6.67993 24.4057 6.67993 25.0644C6.67993 25.723 6.93556 26.3414 7.39974 26.8055C7.64381 27.0496 7.64381 27.4454 7.39974 27.6895C7.27768 27.8114 7.11768 27.8725 6.95774 27.8725Z" fill="#2B5783"/>
<path d="M27.4006 29.3206C27.2407 29.3206 27.0807 29.2596 26.9587 29.1376C26.7146 28.8935 26.7146 28.4977 26.9587 28.2536C28.7172 26.4951 28.7172 23.6336 26.9587 21.875C26.7146 21.6309 26.7146 21.2352 26.9587 20.9911C27.2027 20.7471 27.5985 20.7471 27.8426 20.9912C30.0885 23.2371 30.0885 26.8916 27.8426 29.1376C27.7205 29.2596 27.5606 29.3206 27.4006 29.3206Z" fill="#2B5783"/>
<path d="M25.0427 27.8725C24.8828 27.8725 24.7228 27.8116 24.6008 27.6895C24.3567 27.4454 24.3567 27.0497 24.6008 26.8056C25.065 26.3414 25.3206 25.7231 25.3206 25.0644C25.3206 24.4057 25.065 23.7874 24.6008 23.3233C24.3568 23.0792 24.3567 22.6835 24.6008 22.4394C24.8449 22.1954 25.2406 22.1953 25.4847 22.4394C26.185 23.1396 26.5706 24.0719 26.5706 25.0644C26.5706 26.0569 26.185 26.9892 25.4847 27.6894C25.3626 27.8115 25.2026 27.8725 25.0427 27.8725Z" fill="#2B5783"/>
</g>
<defs>
<clipPath id="clip0_461_6033">
<rect width="32" height="32" fill="white"/>
</clipPath>
</defs>
</svg>
