<svg width="32" height="32" viewBox="0 0 32 32" fill="none" xmlns="http://www.w3.org/2000/svg">
<g clip-path="url(#clip0_461_5972)">
<path d="M31.9736 11.7804C31.9179 11.622 31.7819 11.5055 31.6169 11.4748L10.4359 7.53998C9.63863 7.39204 8.86944 7.92004 8.72125 8.71736L7.98919 12.658C7.84106 13.4554 8.36925 14.2245 9.16656 14.3727L9.19831 14.3786L9.10094 14.9029C8.95281 15.7002 9.481 16.4694 10.2784 16.6176L11.0223 16.7558V18.6967C10.7109 19.0454 10.5212 19.5049 10.5212 20.0081C10.5212 20.3872 10.6291 20.7415 10.8152 21.0424H2.9415V21.0101C2.9415 20.1991 2.28169 19.5394 1.47075 19.5394H0.46875C0.209875 19.5394 0 19.7492 0 20.0081V28.0242C0 28.2831 0.209875 28.493 0.46875 28.493H1.47075C2.28175 28.493 2.9415 27.8332 2.9415 27.0222V24.9859H10.4889C11.8524 24.9859 12.9616 23.8766 12.9616 22.5131V21.9231C13.8232 21.7122 14.4646 20.9338 14.4646 20.0081C14.4646 19.5049 14.2749 19.0454 13.9636 18.6967V17.3023L28.0111 19.9119C28.1016 19.9287 28.1916 19.9368 28.2804 19.9368C28.9749 19.9368 29.5944 19.4414 29.7257 18.7345L30.67 13.6517L31.8861 12.2419C31.9958 12.1147 32.0291 11.9387 31.9736 11.7804ZM2.004 27.0221C2.004 27.3162 1.76475 27.5554 1.47075 27.5554H0.9375V20.4767H1.47075C1.76481 20.4767 2.004 20.716 2.004 21.01V27.0221ZM12.0242 22.513C12.0242 23.3596 11.3354 24.0484 10.4889 24.0484H2.9415V21.9798H12.0242V22.513ZM12.4929 21.0422C11.9226 21.0422 11.4587 20.5783 11.4587 20.008C11.4587 19.4377 11.9226 18.9737 12.4929 18.9737C13.0632 18.9737 13.5272 19.4377 13.5272 20.008C13.5272 20.5783 13.0632 21.0422 12.4929 21.0422ZM11.9597 18.1101V16.9299L13.0262 17.128V18.11C12.8564 18.0623 12.6777 18.0362 12.4929 18.0362C12.3081 18.0362 12.1294 18.0623 11.9597 18.1101ZM27.194 16.2462C26.9547 16.5237 26.5822 16.6544 26.2219 16.5875L13.2785 14.183C13.0241 14.1358 12.7793 14.3037 12.732 14.5582C12.6848 14.8127 12.8527 15.0574 13.1073 15.1047L26.0506 17.5092C26.1696 17.5314 26.2891 17.5421 26.4081 17.5421C26.9757 17.5421 27.5266 17.2959 27.9039 16.8585L29.4548 15.0606L28.8041 18.5632C28.7504 18.8522 28.4714 19.0438 28.1824 18.99L10.4495 15.6958C10.3094 15.6698 10.1879 15.5908 10.1073 15.4734C10.0267 15.3559 9.99662 15.2141 10.0226 15.0741L10.12 14.5499L11.1369 14.7388C11.3917 14.7861 11.6361 14.6181 11.6834 14.3635C11.7307 14.109 11.5627 13.8644 11.3082 13.817L9.33781 13.451C9.19775 13.425 9.07625 13.346 8.99562 13.2285C8.915 13.1111 8.88494 12.9694 8.91094 12.8293L9.643 8.88861C9.669 8.74861 9.748 8.62704 9.86544 8.54642C9.98281 8.46573 10.1246 8.43567 10.2647 8.46173L30.6432 12.2475L27.194 16.2462Z" fill="#2B5783"/>
<path d="M9.988 5.51099C8.072 5.51099 6.51318 7.0698 6.51318 8.9858C6.51318 9.24467 6.72306 9.45455 6.98193 9.45455C7.24081 9.45455 7.45068 9.24467 7.45068 8.9858C7.45068 7.58674 8.58893 6.44849 9.988 6.44849C10.2469 6.44849 10.4567 6.23861 10.4567 5.97974C10.4567 5.72086 10.2469 5.51099 9.988 5.51099Z" fill="#2B5783"/>
<path d="M4.97778 9.4547C5.23666 9.4547 5.44653 9.24483 5.44653 8.98595C5.44653 6.48183 7.48378 4.44458 9.98791 4.44458C10.2468 4.44458 10.4567 4.23471 10.4567 3.97583C10.4567 3.71696 10.2468 3.50708 9.98791 3.50708C6.96685 3.50708 4.50903 5.96489 4.50903 8.98595C4.50903 9.24483 4.71891 9.4547 4.97778 9.4547Z" fill="#2B5783"/>
</g>
<defs>
<clipPath id="clip0_461_5972">
<rect width="32" height="32" fill="white"/>
</clipPath>
</defs>
</svg>
