<svg width="32" height="32" viewBox="0 0 32 32" fill="none" xmlns="http://www.w3.org/2000/svg">
<path d="M20.2917 32H11.7583C11.4639 32 11.2251 31.761 11.2251 31.4666V30.3999C11.2251 28.9297 12.4214 27.7334 13.8916 27.7334H18.1584C19.6287 27.7334 20.825 28.9297 20.825 30.3999V31.4666C20.825 31.761 20.5862 32 20.2917 32ZM12.2917 30.9333H19.7583V30.3999C19.7583 29.5178 19.0405 28.8 18.1584 28.8H13.8916C13.0095 28.8 12.2917 29.5178 12.2917 30.3999V30.9333Z" fill="#000"/>
<path d="M18.1584 28.8001H13.8916C13.5972 28.8001 13.3584 28.561 13.3584 28.2666V26.1333C13.3584 25.8389 13.5972 25.6001 13.8916 25.6001H18.1584C18.4526 25.6001 18.6917 25.8389 18.6917 26.1333V28.2666C18.6917 28.561 18.4526 28.8001 18.1584 28.8001ZM14.425 27.7334H17.625V26.6667H14.425V27.7334Z" fill="#000"/>
<path d="M17.625 26.6667H14.425C14.1658 26.6667 13.9438 26.48 13.8997 26.2246C13.498 23.9207 12.825 20.0122 12.825 19.7334C12.825 17.9685 14.2607 16.5334 16.0249 16.5334C17.7893 16.5334 19.2251 17.9685 19.2251 19.7334C19.2251 20.0122 18.552 23.9207 18.1504 26.2246C18.106 26.48 17.8843 26.6667 17.625 26.6667ZM14.8735 25.6001H17.1765C17.5706 23.3279 18.1279 20.0608 18.1584 19.72C18.1509 18.5498 17.1968 17.6001 16.0249 17.6001C14.8484 17.6001 13.8916 18.5569 13.8916 19.7334C13.9131 20.0076 14.4763 23.3093 14.8735 25.6001ZM18.6917 19.7334H18.697H18.6917Z" fill="#000"/>
<path d="M29.8916 32H2.15845C1.86401 32 1.625 31.761 1.625 31.4666C1.625 31.1724 1.86401 30.9333 2.15845 30.9333H29.8916C30.186 30.9333 30.4251 31.1724 30.4251 31.4666C30.4251 31.761 30.186 32 29.8916 32Z" fill="#000"/>
<path d="M16.0249 17.6001C15.7307 17.6001 15.4917 17.3611 15.4917 17.0667V14.3999C15.4917 14.1057 15.7307 13.8667 16.0249 13.8667C16.3193 13.8667 16.5583 14.1057 16.5583 14.3999V17.0667C16.5583 17.3611 16.3193 17.6001 16.0249 17.6001Z" fill="#000"/>
<path d="M24.6356 14.9333H7.41419C6.48255 14.9333 5.60779 14.5215 5.01429 13.8027C4.42054 13.0842 4.18103 12.1477 4.35706 11.2324L6.1012 2.1626C6.34266 0.909912 7.44397 0 8.72034 0H23.3295C24.6056 0 25.7069 0.909912 25.9481 2.16309L27.692 11.2332C27.868 12.1482 27.6285 13.0847 27.035 13.8032C26.442 14.5215 25.5673 14.9333 24.6356 14.9333ZM8.72034 1.06665C7.95447 1.06665 7.29358 1.6123 7.14905 2.36475L5.40516 11.4346C5.28943 12.0356 5.44666 12.6516 5.83704 13.1238C6.22693 13.5957 6.80188 13.8667 7.41419 13.8667H24.6356C25.2479 13.8667 25.8226 13.5957 26.2133 13.1238C26.6029 12.6516 26.7604 12.0356 26.6451 11.4346L24.9013 2.36475C24.756 1.6123 24.0953 1.06665 23.3295 1.06665H8.72034Z" fill="#000"/>
<path d="M8.02572 6.95728C7.99423 6.95728 7.96273 6.95459 7.93075 6.94873C7.6412 6.89648 7.44809 6.61914 7.49984 6.32959L7.88046 4.20752C8.11264 3.00269 9.16537 2.13281 10.3856 2.13281L13.8917 2.1333C14.1861 2.1333 14.4251 2.37231 14.4251 2.66675C14.4251 2.96118 14.1861 3.19995 13.8917 3.19995L10.3861 3.19946C9.67685 3.19946 9.06405 3.70508 8.93026 4.4021L8.55038 6.51782C8.50351 6.77661 8.2789 6.95728 8.02572 6.95728Z" fill="#000"/>
<path d="M9.09155 20.2666C8.79736 20.2666 8.55835 20.0278 8.55835 19.7334V14.3999C8.55835 14.1057 8.79736 13.8667 9.09155 13.8667C9.38599 13.8667 9.625 14.1057 9.625 14.3999V19.7334C9.625 20.0278 9.38599 20.2666 9.09155 20.2666Z" fill="#000"/>
<path d="M10.1584 20.2666H8.0249C7.73071 20.2666 7.4917 20.0278 7.4917 19.7334C7.4917 19.439 7.73071 19.2 8.0249 19.2H10.1584C10.4526 19.2 10.6917 19.439 10.6917 19.7334C10.6917 20.0278 10.4526 20.2666 10.1584 20.2666Z" fill="#000"/>
</svg>
