<svg width="32" height="32" viewBox="0 0 32 32" fill="none" xmlns="http://www.w3.org/2000/svg">
<path d="M29.1767 5.16626H2.82338C1.26663 5.16626 0 6.43282 0 7.98964V14.4607C0 16.0175 1.26663 17.284 2.82338 17.284H29.1766C30.7334 17.284 32 16.0175 32 14.4607V7.98964C32.0001 6.43282 30.7334 5.16626 29.1767 5.16626ZM31.0435 14.6956H12.4391C12.1791 14.6956 11.9684 14.9063 11.9684 15.1663C11.9684 15.4262 12.1791 15.637 12.4391 15.637H30.6442C30.299 16.0667 29.7696 16.3427 29.1767 16.3427H2.82338C2.2305 16.3427 1.70113 16.0668 1.35588 15.637H10.5563C10.8163 15.637 11.027 15.4262 11.027 15.1663C11.027 14.9063 10.8163 14.6956 10.5563 14.6956H0.956564C0.932689 14.5047 0.944689 14.4146 0.941377 14.1076H19.4688C19.7288 14.1076 19.9395 13.8968 19.9395 13.6369C19.9395 13.377 19.7288 13.1662 19.4688 13.1662H0.941377V7.98964C0.941377 6.95189 1.78563 6.10764 2.82338 6.10764H29.1766C30.2144 6.10764 31.0586 6.95189 31.0586 7.98964V13.1662H21.3515C21.0915 13.1662 20.8809 13.377 20.8809 13.6369C20.8809 13.8968 21.0915 14.1076 21.3515 14.1076H31.0586C31.0554 14.4093 31.0675 14.5035 31.0435 14.6956Z" fill="#2B5783"/>
<path d="M27.1832 12.2252C27.5406 12.2252 27.8303 11.9355 27.8303 11.5781C27.8303 11.2207 27.5406 10.931 27.1832 10.931C26.8258 10.931 26.5361 11.2207 26.5361 11.5781C26.5361 11.9355 26.8258 12.2252 27.1832 12.2252Z" fill="#2B5783"/>
<path d="M29.6769 12.2252C30.0342 12.2252 30.3239 11.9355 30.3239 11.5781C30.3239 11.2207 30.0342 10.931 29.6769 10.931C29.3195 10.931 29.0298 11.2207 29.0298 11.5781C29.0298 11.9355 29.3195 12.2252 29.6769 12.2252Z" fill="#2B5783"/>
<path d="M10.6722 20C8.17193 22 13.6722 25 10.6722 27M5.67235 20C3.1721 22 8.67235 25 5.67235 27M15.6724 20C13.1721 22 18.6724 25 15.6724 27M20.6724 20C18.1721 22 23.6724 25 20.6724 27M25.6724 20C23.1721 22 28.6724 25 25.6724 27" stroke="#2B5783" stroke-linecap="round"/>
<path d="M17.448 7.80859H14.6343C14.3743 7.80859 14.1636 8.01934 14.1636 8.27928C14.1636 8.53922 14.3743 8.74997 14.6343 8.74997H17.448C17.708 8.74997 17.9186 8.53922 17.9186 8.27928C17.9186 8.01934 17.708 7.80859 17.448 7.80859Z" fill="#2B5783"/>
</svg>
