<svg width="32" height="32" viewBox="0 0 32 32" fill="none" xmlns="http://www.w3.org/2000/svg">
<path d="M23.4198 1.09469C23.3062 0.460375 22.756 0 22.1116 0H9.88742C9.24292 0 8.6928 0.460375 8.57917 1.09462L7.43048 7.50675C7.38486 7.76156 7.55442 8.00513 7.8093 8.05081C8.0638 8.09663 8.30773 7.92694 8.35336 7.67206L9.50205 1.25994C9.53548 1.07313 9.69755 0.9375 9.88742 0.9375H22.1116C22.3014 0.9375 22.4635 1.07306 22.4969 1.26C25.3479 17.1736 25.1947 16.2996 25.1947 16.3546C25.1947 16.5695 25.0189 16.7443 24.803 16.7443C24.31 16.7443 7.65748 16.7443 7.19592 16.7443C6.95536 16.7443 6.76655 16.528 6.81061 16.2838L7.96761 9.82525C8.01323 9.57044 7.84367 9.32687 7.5888 9.28119C7.3343 9.2355 7.09036 9.40506 7.04474 9.65994C5.79474 16.6382 5.86674 16.1852 5.86674 16.3546C5.86674 17.0864 6.46305 17.6817 7.19598 17.6817H12.9629C12.9058 17.8362 12.8745 18.0032 12.8745 18.1774C12.8745 18.4009 12.926 18.6126 13.0177 18.8013C10.4172 19.7946 8.71586 22.0026 8.71586 24.4806C8.71586 26.5912 9.95142 28.5289 11.9835 29.6743C11.7996 29.9176 11.6903 30.2203 11.6903 30.5481C11.6903 31.3487 12.3416 32 13.1422 32H18.8568C19.6574 32 20.3087 31.3487 20.3087 30.5481C20.3087 30.22 20.1992 29.9171 20.0149 29.6737C20.3784 29.4683 20.6942 29.2519 20.9824 29.0212C21.1844 28.8594 21.217 28.5644 21.0551 28.3623C20.8932 28.1603 20.5982 28.1278 20.3962 28.2896C19.993 28.6129 19.5496 28.8824 19.0911 29.0963C18.4554 29.0963 13.6185 29.0963 12.9077 29.0963C10.8975 28.1593 9.6533 26.3988 9.6533 24.4807C9.6533 22.26 11.3151 20.2843 13.806 19.5198C14.1743 19.6578 14.1527 19.6106 17.6913 19.6106C17.8705 19.6106 18.047 19.5757 18.1928 19.5199C19.146 19.8124 19.9772 20.2828 20.6409 20.8759V24.8327C20.6409 25.0916 20.8507 25.3014 21.1097 25.3014C21.3686 25.3014 21.5784 25.0916 21.5784 24.8327V21.96C22.0712 22.7166 22.3455 23.5784 22.3455 24.4806C22.3455 25.2864 22.1329 26.06 21.7137 26.78C21.5834 27.0037 21.6592 27.2907 21.8829 27.4209C22.107 27.5514 22.3937 27.4752 22.5239 27.2517C23.0276 26.3866 23.283 25.4543 23.283 24.4806C23.283 22.9748 22.6546 21.5686 21.5784 20.4739V17.6817H24.8029C25.5359 17.6817 26.1321 17.0864 26.1321 16.3546C26.1322 16.178 26.3001 17.1729 23.4198 1.09469ZM18.8568 30.0337C19.1404 30.0337 19.3712 30.2644 19.3712 30.5481C19.3712 30.8317 19.1404 31.0624 18.8568 31.0624H13.1422C12.8585 31.0624 12.6278 30.8317 12.6278 30.5481C12.6278 30.2644 12.8585 30.0337 13.1422 30.0337H18.8568ZM14.0688 18.6114C13.9159 18.5269 13.812 18.3641 13.812 18.1774C13.812 17.9041 14.0344 17.6818 14.3076 17.6818H17.6914C17.9647 17.6818 18.187 17.9041 18.187 18.1774C18.187 18.4516 17.9632 18.6731 17.6914 18.6731C14.0463 18.673 14.2277 18.6992 14.0688 18.6114ZM20.641 19.6807C20.1433 19.3296 19.5868 19.0326 18.9814 18.8014C19.073 18.6126 19.1245 18.4009 19.1245 18.1774C19.1245 18.0033 19.0932 17.8364 19.0361 17.6818H20.641V19.6807Z" fill="white"/>
<path d="M17 3H20.383C20.4821 3 20.5663 3.07262 20.5808 3.17069L21 6" stroke="white" stroke-linecap="round"/>
</svg>
