<svg width="32" height="32" viewBox="0 0 32 32" fill="none" xmlns="http://www.w3.org/2000/svg">
<path d="M27.1288 28.3419L25.7954 26.0326C25.6499 25.7765 25.3243 25.6869 25.0682 25.8324C24.8122 25.978 24.7226 26.3036 24.8681 26.5596C24.8693 26.5617 24.8705 26.5638 24.8717 26.5658L26.205 28.8752C26.354 29.1292 26.6807 29.2144 26.9349 29.0654C27.1865 28.918 27.273 28.5956 27.1288 28.3419Z" fill="white"/>
<path d="M3.1647 22.9558C2.95803 22.7561 2.6303 22.7561 2.42364 22.9558L0.538302 24.8411C0.326436 25.0458 0.320569 25.3834 0.525236 25.5953C0.729902 25.8071 1.0675 25.813 1.27937 25.6083C1.28384 25.604 1.28817 25.5997 1.29244 25.5953L3.17777 23.7099C3.38244 23.498 3.37657 23.1604 3.1647 22.9558Z" fill="white"/>
<path d="M16.0001 28.2667C15.7056 28.2667 15.4668 28.5055 15.4668 28.8001V31.4667C15.4668 31.7613 15.7056 32.0001 16.0001 32.0001C16.2947 32.0001 16.5335 31.7613 16.5335 31.4667V28.8001C16.5335 28.5055 16.2947 28.2667 16.0001 28.2667Z" fill="white"/>
<path d="M11.3066 27.6491C11.0222 27.5731 10.7301 27.7419 10.6538 28.0261L9.96368 30.6016C9.87969 30.8839 10.0406 31.1809 10.3229 31.2649C10.6052 31.3489 10.9022 31.188 10.9862 30.9057C10.9889 30.8965 10.9914 30.8872 10.9936 30.8779L11.6838 28.3019C11.7597 28.0175 11.5909 27.7253 11.3066 27.6491Z" fill="white"/>
<path d="M31.4621 24.8411L29.5767 22.9558C29.3649 22.7511 29.0273 22.757 28.8226 22.9688C28.6229 23.1755 28.6229 23.5032 28.8226 23.7099L30.7079 25.5952C30.9198 25.7999 31.2574 25.794 31.4621 25.5822C31.6617 25.3755 31.6617 25.0478 31.4621 24.8411Z" fill="white"/>
<path d="M6.93411 25.8371C6.93391 25.837 6.93371 25.8369 6.93351 25.8368C6.67838 25.6897 6.35218 25.7772 6.20504 26.0324C6.20504 26.0325 6.20498 26.0325 6.20498 26.0325L4.87164 28.3418C4.72271 28.596 4.80791 28.9227 5.06204 29.0716C5.31618 29.2206 5.64291 29.1354 5.79184 28.8812C5.79304 28.8792 5.79418 28.8772 5.79538 28.8751L7.12871 26.5658C7.27618 26.3109 7.18911 25.9847 6.93411 25.8371Z" fill="white"/>
<path d="M22.0439 30.6294C22.0416 30.6201 22.0392 30.6108 22.0364 30.6016L21.3463 28.0261C21.2612 27.7441 20.9636 27.5845 20.6816 27.6696C20.4121 27.7509 20.2522 28.0277 20.3164 28.3019L21.0066 30.8779C21.0752 31.1643 21.363 31.3409 21.6494 31.2723C21.9359 31.2037 22.1125 30.9159 22.0439 30.6294Z" fill="white"/>
<path d="M29 18C29 18.9763 28.6704 19.9085 28.0714 20.7625M3 18C3 22.1027 8.8203 25.4286 16 25.4286C20.1047 25.4286 23.7651 24.3415 26.1476 22.6436" stroke="white" stroke-linecap="round"/>
<path d="M4.75 13H2C1.44772 13 1 13.4477 1 14V17C1 17.5523 1.44772 18 2 18H30C30.5523 18 31 17.5523 31 17V14C31 13.4477 30.5523 13 30 13H8.375" stroke="white" stroke-linecap="round"/>
<path d="M13 13C13.4367 11.8348 14.615 11 16 11C17.385 11 18.5633 11.8348 19 13" stroke="white"/>
<line x1="16" y1="4" x2="16" y2="11" stroke="white" stroke-width="2"/>
<path d="M19.392 1.86653C19.0066 3.38068 17.6334 4.5 16 4.5C14.3666 4.5 12.9934 3.38068 12.608 1.86653C12.5856 1.77863 12.6072 1.70218 12.6704 1.63388C12.7399 1.5589 12.8585 1.5 13 1.5H19C19.1415 1.5 19.2601 1.5589 19.3296 1.63388C19.3928 1.70218 19.4144 1.77863 19.392 1.86653Z" stroke="white"/>
</svg>
