<svg width="32" height="32" viewBox="0 0 32 32" fill="none" xmlns="http://www.w3.org/2000/svg">
<path d="M12.8419 2.25793C11.7477 2.25793 10.8574 3.14818 10.8574 4.24243C10.8574 5.33675 11.7477 6.22693 12.8419 6.22693C13.9362 6.22693 14.8264 5.33668 14.8264 4.24243C14.8265 3.14818 13.9362 2.25793 12.8419 2.25793ZM12.8419 5.28943C12.2646 5.28943 11.7949 4.81975 11.7949 4.24243C11.7949 3.66512 12.2646 3.19543 12.8419 3.19543C13.4192 3.19543 13.8889 3.66512 13.8889 4.24243C13.8889 4.81975 13.4193 5.28943 12.8419 5.28943Z" fill="#2B5783"/>
<path d="M7.47351 2.25793C6.37926 2.25793 5.48901 3.14818 5.48901 4.24243C5.48901 5.33675 6.37926 6.22693 7.47351 6.22693C8.56776 6.22693 9.45801 5.33668 9.45801 4.24243C9.45801 3.14818 8.56776 2.25793 7.47351 2.25793ZM7.47351 5.28943C6.8962 5.28943 6.42651 4.81975 6.42651 4.24243C6.42651 3.66512 6.8962 3.19543 7.47351 3.19543C8.05083 3.19543 8.52051 3.66512 8.52051 4.24243C8.52051 4.81975 8.05083 5.28943 7.47351 5.28943Z" fill="#2B5783"/>
<path d="M24.6839 2.25793H19.2923C18.703 2.25793 18.2236 2.73731 18.2236 3.32656V5.15837C18.2236 5.74762 18.703 6.227 19.2923 6.227H24.6839C25.2732 6.227 25.7526 5.74762 25.7526 5.15837V3.32656C25.7526 2.73731 25.2732 2.25793 24.6839 2.25793ZM24.8151 5.15837C24.8151 5.23068 24.7563 5.2895 24.6839 5.2895H19.2923C19.2199 5.2895 19.1611 5.23068 19.1611 5.15837V3.32656C19.1611 3.25425 19.2199 3.19543 19.2923 3.19543H24.6839C24.7563 3.19543 24.8151 3.25425 24.8151 3.32656V5.15837Z" fill="#2B5783"/>
<path d="M15.9999 9.60229C14.0772 9.60229 12.2579 10.2222 10.7389 11.3952C10.5339 11.5534 10.4961 11.8477 10.6543 12.0527C10.8125 12.2576 11.1069 12.2954 11.3118 12.1372C12.6653 11.0922 14.2864 10.5398 15.9999 10.5398C20.2338 10.5398 23.6784 13.9844 23.6784 18.2183C23.6784 22.4522 20.2338 25.8968 15.9999 25.8968C11.7659 25.8968 8.32135 22.4522 8.32135 18.2183C8.32135 16.456 8.9336 14.7344 10.0453 13.3706C10.2089 13.1699 10.1788 12.8747 9.9781 12.7111C9.77741 12.5475 9.48216 12.5776 9.3186 12.7782C8.07098 14.3088 7.38379 16.2408 7.38379 18.2183C7.38379 22.9692 11.2489 26.8343 15.9998 26.8343C20.7507 26.8343 24.6158 22.9692 24.6158 18.2183C24.6158 13.4674 20.7507 9.60229 15.9999 9.60229Z" fill="#2B5783"/>
<path d="M29.6418 28.3611V3.60262C29.6418 1.61612 28.0259 0 26.0398 0H5.95967C3.97354 0 2.35767 1.61612 2.35767 3.60262V28.3981C2.35767 30.3842 3.97354 32 5.9596 32H26.0397C28.008 32 29.6117 30.4127 29.6403 28.4511C29.6424 28.4337 29.6427 28.3734 29.6418 28.3611ZM28.7043 27.9293H24.8237C24.5648 27.9293 24.3549 28.1391 24.3549 28.398C24.3549 28.6569 24.5648 28.8668 24.8237 28.8668H28.663C28.4408 30.1133 27.3491 31.0625 26.0398 31.0625H5.95967C4.65035 31.0625 3.5586 30.1132 3.33648 28.8668H22.9486C23.2075 28.8668 23.4173 28.6569 23.4173 28.3981C23.4173 28.1392 23.2075 27.9293 22.9486 27.9293H3.29523V8.48475H28.7043V27.9293ZM28.7043 7.54731H3.29517V3.60262C3.29517 2.13306 4.49048 0.9375 5.95967 0.9375H26.0398C27.509 0.9375 28.7043 2.13306 28.7043 3.60262V7.54731Z" fill="#2B5783"/>
<path d="M15.9999 11.7814C12.4504 11.7814 9.56274 14.6691 9.56274 18.2184C9.56281 18.5307 9.58524 18.8432 9.62956 19.1469C9.62956 19.1472 9.62968 19.1474 9.62968 19.1476C9.84887 20.6638 10.6082 22.0565 11.7682 23.0692C12.9399 24.0921 14.4427 24.6555 15.9998 24.6555C17.5569 24.6555 19.0597 24.0921 20.2314 23.0692C21.3913 22.0566 22.1507 20.6641 22.3699 19.1479C22.37 19.1476 22.3701 19.1473 22.3701 19.147C22.4144 18.8435 22.4369 18.5311 22.4369 18.2184C22.4369 14.669 19.5492 11.7814 15.9999 11.7814ZM19.6149 22.3629C18.6139 23.2367 17.3301 23.718 15.9998 23.718C14.6695 23.718 13.3857 23.2367 12.3848 22.3629C11.4664 21.5612 10.8419 20.4812 10.6062 19.2972L10.8952 19.1005C11.3782 18.7719 12.0318 18.7716 12.5151 19.1005C13.3131 19.6435 14.3916 19.6436 15.1898 19.1005C15.6721 18.7726 16.3275 18.7723 16.8097 19.1005C17.6081 19.6437 18.6862 19.6436 19.4847 19.1004C19.9688 18.7711 20.6205 18.7709 21.1043 19.1004L21.3934 19.2972C21.1578 20.4812 20.5333 21.5612 19.6149 22.3629ZM21.4994 18.2413C21.4961 18.2394 21.4926 18.2377 21.4892 18.2357C21.2376 18.0894 20.9626 17.9952 20.6764 17.9449C20.3182 17.8819 19.941 17.9112 19.5941 18.0182C19.3679 18.0881 19.1526 18.1921 18.9571 18.3254C18.4736 18.6543 17.8199 18.6538 17.3371 18.3254C16.9408 18.0557 16.4784 17.9132 15.9998 17.9132C15.5242 17.9132 15.0556 18.0579 14.6624 18.3253C14.1782 18.6547 13.5265 18.6545 13.0425 18.3253C12.6462 18.0557 12.1837 17.9131 11.7052 17.9131C11.2899 17.9131 10.869 18.0251 10.5104 18.2358C10.5071 18.2377 10.5036 18.2394 10.5003 18.2413C10.5002 18.2336 10.5002 18.226 10.5002 18.2183C10.5003 15.1859 12.9674 12.7188 15.9999 12.7188C19.0324 12.7188 21.4994 15.1859 21.4994 18.2184C21.4994 18.226 21.4994 18.2337 21.4994 18.2413Z" fill="#2B5783"/>
</svg>
