<svg width="32" height="32" viewBox="0 0 32 32" fill="none" stroke-width="0" xmlns="http://www.w3.org/2000/svg">
<path d="M29.8667 2.12915H2.1333C1.83887 2.12915 1.6001 1.89014 1.6001 1.59595C1.6001 1.30151 1.83887 1.0625 2.1333 1.0625H29.8667C30.1611 1.0625 30.3999 1.30151 30.3999 1.59595C30.3999 1.89014 30.1611 2.12915 29.8667 2.12915Z" fill="#000" stroke-width="0"/>
<path d="M16 7.0625C15.7056 7.0625 15.4666 6.83865 15.4666 6.56261V1.56261C15.4666 1.28658 15.7056 1.0625 16 1.0625C16.2944 1.0625 16.5334 1.28658 16.5334 1.56261V6.56261C16.5334 6.83865 16.2944 7.0625 16 7.0625Z" fill="#000" stroke-width="0"/>
<path d="M3.40009 24C3.17926 24 3 23.8207 3 23.5999C3 20.512 5.51202 18 8.6001 18C8.82074 18 9 18.1793 9 18.4001C9 18.6207 8.82074 18.8 8.6001 18.8C5.95331 18.8 3.79999 20.9531 3.79999 23.5999C3.79999 23.8207 3.62091 24 3.40009 24Z" fill="#000" stroke-width="0"/>
<path d="M20.2666 30.9292H11.7334C10.2629 30.9292 9.06665 29.7329 9.06665 28.2625C9.06665 27.968 9.30566 27.7292 9.6001 27.7292H22.3999C22.6943 27.7292 22.9333 27.968 22.9333 28.2625C22.9333 29.7329 21.7371 30.9292 20.2666 30.9292ZM10.2246 28.7959C10.4448 29.4167 11.0378 29.8626 11.7334 29.8626H20.2666C20.9622 29.8626 21.5552 29.4167 21.7754 28.7959H10.2246Z" fill="#000" stroke-width="0"/>
<path d="M16.1875 16H9.30769C4.71948 16 1 19.7195 1 24.3077V24.3077C1 26.3469 2.6531 28 4.69231 28H5M19.2812 16H22.6923C27.2805 16 31 19.7195 31 24.3077V24.3077C31 26.3469 29.3469 28 27.3077 28H8" stroke="#000" stroke-linecap="round" stroke-width="1"/>
<path d="M23 16V16C23 13.7909 21.2091 12 19 12H13C10.7909 12 9 13.7909 9 16V16" stroke="#000" stroke-width="1"/>
<path d="M20 12V11C20 8.79086 18.2091 7 16 7V7C13.7909 7 12 8.79086 12 11V12" stroke="#000" stroke-width="1"/>
</svg>
