<svg width="32" height="32" viewBox="0 0 32 32" fill="none" xmlns="http://www.w3.org/2000/svg">
<path d="M29.6732 1.13925H2.32666C2.01182 1.13958 1.70996 1.2648 1.48734 1.48743C1.26471 1.71006 1.13949 2.01191 1.13916 2.32675V3.90175C1.13913 3.95921 1.15042 4.01612 1.1724 4.06921C1.19437 4.12231 1.2266 4.17055 1.26723 4.21118C1.30786 4.25182 1.3561 4.28404 1.4092 4.30602C1.46229 4.32799 1.5192 4.33928 1.57666 4.33925H2.81466V29.77C2.81461 29.833 2.82819 29.8953 2.85447 29.9525C2.88075 30.0098 2.91911 30.0607 2.96691 30.1018C3.66235 30.6179 4.51118 30.8853 5.37691 30.8608C5.83248 30.8626 6.2855 30.7928 6.71941 30.654C6.99318 30.5666 7.25592 30.4478 7.50241 30.3C8.14681 30.676 8.88139 30.8696 9.62741 30.86C10.3726 30.8693 11.1063 30.6757 11.7499 30.3C12.3942 30.6763 13.1288 30.87 13.8749 30.8605C14.6792 30.8744 15.4692 30.6468 16.1429 30.2073H28.7472C28.8046 30.2073 28.8615 30.196 28.9146 30.174C28.9677 30.152 29.016 30.1198 29.0566 30.0792C29.0972 30.0386 29.1295 29.9903 29.1514 29.9372C29.1734 29.8841 29.1847 29.8272 29.1847 29.7698V4.33925H30.4227C30.4801 4.33928 30.537 4.32799 30.5901 4.30602C30.6432 4.28404 30.6915 4.25182 30.7321 4.21118C30.7727 4.17055 30.805 4.12231 30.8269 4.06921C30.8489 4.01612 30.8602 3.95921 30.8602 3.90175V2.32675C30.8598 2.01202 30.7346 1.71028 30.5121 1.48768C30.2896 1.26508 29.9879 1.13978 29.6732 1.13925ZM6.44991 29.8215C6.10307 29.9322 5.74098 29.9876 5.37691 29.9858C4.78449 29.9974 4.20044 29.8446 3.68966 29.5443V4.33925H7.06466V29.542C6.87166 29.6594 6.66527 29.7533 6.44991 29.8215ZM7.93891 29.5438V4.33925H11.3139V12.2805C10.516 13.3135 10.0831 14.582 10.0831 15.8873C10.0831 17.1926 10.516 18.461 11.3139 19.494V29.544C10.8035 29.8451 10.2194 29.9982 9.62691 29.9863C9.03409 29.9982 8.44963 29.845 7.93891 29.5438ZM15.5624 4.33925V9.9875C14.3199 10.0783 13.1383 10.5609 12.1874 11.3658V4.33925H15.5624ZM26.4124 4.33925V27.435H16.4374V21.787C17.9277 21.678 19.3216 21.0091 20.3389 19.9147C21.3563 18.8202 21.9218 17.3813 21.9218 15.887C21.9218 14.3927 21.3563 12.9538 20.3389 11.8593C19.3216 10.7649 17.9277 10.096 16.4374 9.987V4.33925H26.4124ZM10.9572 15.8873C10.9572 14.8899 11.2529 13.9149 11.807 13.0857C12.3611 12.2564 13.1487 11.61 14.0701 11.2284C14.9916 10.8467 16.0055 10.7468 16.9837 10.9414C17.9619 11.136 18.8604 11.6162 19.5657 12.3215C20.2709 13.0267 20.7512 13.9253 20.9458 14.9035C21.1403 15.8817 21.0405 16.8956 20.6588 17.817C20.2771 18.7385 19.6308 19.526 18.8015 20.0801C17.9722 20.6343 16.9973 20.93 15.9999 20.93C14.663 20.9285 13.3812 20.3967 12.4358 19.4513C11.4905 18.506 10.9587 17.2242 10.9572 15.8873ZM12.1882 29.5438V20.4088C13.1391 21.2135 14.3207 21.6961 15.5632 21.787V29.544C15.048 29.8338 14.4668 29.9861 13.8757 29.9861C13.2845 29.9861 12.7034 29.8338 12.1882 29.544V29.5438ZM28.3102 29.3325H16.4374V28.31H26.8499C26.9074 28.31 26.9643 28.2987 27.0174 28.2768C27.0705 28.2548 27.1187 28.2226 27.1593 28.1819C27.2 28.1413 27.2322 28.0931 27.2542 28.04C27.2762 27.9869 27.2874 27.93 27.2874 27.8725V4.33925H28.3099L28.3102 29.3325ZM29.9852 3.46425H2.01416V2.32675C2.01416 2.24387 2.04708 2.16439 2.10569 2.10578C2.16429 2.04718 2.24378 2.01425 2.32666 2.01425H29.6732C29.756 2.01425 29.8355 2.04718 29.8941 2.10578C29.9527 2.16439 29.9857 2.24387 29.9857 2.32675L29.9852 3.46425Z" fill="#2B5783"/>
<path d="M19 16C19 15.7929 18.8321 15.625 18.625 15.625H14.4362L16.2662 13.795C16.4131 13.6481 16.4127 13.4098 16.2653 13.2634C16.1186 13.1178 15.8818 13.1182 15.7356 13.2644L13.7071 15.2929C13.3166 15.6834 13.3166 16.3166 13.7071 16.7071L15.7355 18.7355C15.8816 18.8816 16.1184 18.8816 16.2645 18.7355C16.4105 18.5895 16.4106 18.3529 16.2647 18.2068L14.4362 16.375H18.625C18.8321 16.375 19 16.2071 19 16Z" fill="#2B5783"/>
</svg>
