<svg width="32" height="32" viewBox="0 0 32 32" fill="none" xmlns="http://www.w3.org/2000/svg">
<path d="M30.5566 3.84106H30.9136C31.5127 3.84106 32 3.35376 32 2.75464V1.14868C32 0.549805 31.5127 0.0625 30.9136 0.0625H1.08643C0.487305 0.0625 0 0.549805 0 1.14868V2.75464C0 3.35352 0.487305 3.84082 1.08643 3.84082H1.46753V28.2141H1.08643C0.487305 28.2141 0 28.7014 0 29.3003V30.9062C0 31.5051 0.487305 31.9924 1.08643 31.9924H30.9136C31.5127 31.9924 32 31.5051 32 30.9062V29.3003C32 28.7014 31.5127 28.2141 30.9136 28.2141H30.5566V3.84106ZM16.4807 28.2141V22.8882C17.3496 22.677 17.9966 21.8923 17.9966 20.9595C17.9966 20.0266 17.3496 19.2422 16.4807 19.031V18.0876H27.5632V28.2141H16.4807ZM16.012 19.9126C16.5894 19.9126 17.0591 20.3821 17.0591 20.9595C17.0591 21.5369 16.5894 22.0066 16.012 22.0066C15.4348 22.0066 14.9651 21.5369 14.9651 20.9595C14.9651 20.3823 15.4348 19.9126 16.012 19.9126ZM2.40503 17.1501V15.7134H29.6191V17.1501H2.40503ZM2.40503 10.9644H29.6191V12.4014H2.40503V10.9644ZM2.40503 13.3389H29.6191V14.7759H2.40503V13.3389ZM29.6191 10.0269H2.40503V8.58984H29.6191V10.0269ZM0.9375 2.75464V1.14868C0.9375 1.06665 1.00415 1 1.08643 1H30.9136C30.9958 1 31.0625 1.06665 31.0625 1.14868V2.75464C31.0625 2.83667 30.9958 2.90332 30.9136 2.90332H1.08643C1.00415 2.90356 0.9375 2.83667 0.9375 2.75464ZM29.6191 3.84106V5.27783H26.7207C26.4617 5.27783 26.252 5.48779 26.252 5.74658C26.252 6.00561 26.4617 6.21533 26.7207 6.21533H29.6191V7.65234H2.40503V6.21533H24.8455C25.1042 6.21533 25.3142 6.00561 25.3142 5.74658C25.3142 5.48779 25.1042 5.27783 24.8455 5.27783H2.40503V3.84106H29.6191ZM2.40503 18.0876H3.52344V20.3081C3.52344 20.5671 3.7334 20.7769 3.99219 20.7769C4.25122 20.7769 4.46094 20.5671 4.46094 20.3081V18.0876H15.5432V19.031C14.6746 19.2422 14.0276 20.0266 14.0276 20.9595C14.0276 21.8923 14.6746 22.677 15.5432 22.8882V28.2141H4.46094V22.1833C4.46094 21.9243 4.25122 21.7146 3.99219 21.7146C3.7334 21.7146 3.52344 21.9243 3.52344 22.1833V28.2141H2.40503V18.0876ZM31.0625 29.3003V30.9062C31.0625 30.9883 30.9958 31.0549 30.9136 31.0549H1.08643C1.00415 31.0549 0.9375 30.9883 0.9375 30.9062V29.3003C0.9375 29.2183 1.00415 29.1516 1.08643 29.1516H30.9136C30.9958 29.1516 31.0625 29.2183 31.0625 29.3003ZM28.5007 28.2141V18.0876H29.6191V28.2141H28.5007Z" fill="#2B5783"/>
</svg>
