<svg width="32" height="32" viewBox="0 0 32 32" fill="none" xmlns="http://www.w3.org/2000/svg">
<g clip-path="url(#clip0_356_1465)">
<path d="M31.9845 1.47066C31.8852 0.728744 31.289 0.133469 30.547 0.0350819C29.6857 -0.0791602 28.928 0.463599 28.704 1.23152H3.29591C3.07908 0.488039 2.36204 -0.0443173 1.53496 0.0261205C0.729065 0.0948036 0.0773272 0.744724 0.00663872 1.5505C-0.0679351 2.40039 0.494189 3.13541 1.26869 3.33175V14.2284C1.26869 14.4858 1.46697 14.7102 1.72422 14.7179C1.99036 14.7259 2.2087 14.5125 2.2087 14.2481V4.96441H4.245V30.6887C3.59132 30.4306 2.86244 30.4306 2.2087 30.6887V16.1479C2.2087 15.8905 2.01036 15.6661 1.75317 15.6584C1.48702 15.6503 1.26869 15.8638 1.26869 16.1282V31.4967C1.26869 31.6435 1.33017 31.7869 1.44547 31.8778C1.62614 32.0202 1.87374 32.0109 2.0415 31.8696C2.72833 31.2912 3.72543 31.2912 4.41226 31.8696C4.49868 31.9424 4.60634 31.9802 4.71513 31.9801C4.78231 31.9801 4.84999 31.9657 4.91328 31.9363C4.95094 31.9187 4.9851 31.8961 5.01606 31.8701C5.01662 31.8698 5.01725 31.8701 5.01781 31.8696C5.70464 31.2911 6.70174 31.2911 7.38857 31.8696C7.38863 31.8696 7.38876 31.869 7.38882 31.869C7.42015 31.8954 7.45481 31.9185 7.4931 31.9363C7.65891 32.0134 7.85431 31.9873 7.99412 31.8696C8.68095 31.2911 9.67805 31.2911 10.3649 31.8696C10.4514 31.9424 10.559 31.9801 10.6678 31.9801C10.735 31.9801 10.8027 31.9656 10.866 31.9362C10.9041 31.9185 10.9387 31.8955 10.97 31.8691C10.9702 31.8691 10.9703 31.8696 10.9705 31.8695C11.6573 31.291 12.6544 31.291 13.3413 31.8695C13.4277 31.9423 13.5353 31.98 13.6441 31.98C13.7391 31.98 13.8349 31.9512 13.9181 31.892C14.0454 31.8014 14.1141 31.6489 14.1141 31.4926V23.7821H17.9431V31.4965C17.9431 31.6433 18.0046 31.7867 18.1199 31.8776C18.3005 32.02 18.5482 32.0107 18.7158 31.8694C19.4027 31.291 21.2807 31.98 21.3895 31.98C21.4567 31.98 21.5244 31.9656 21.5877 31.9361C21.6258 31.9184 21.6604 31.8955 21.6917 31.8691C21.6919 31.869 21.6921 31.8696 21.6922 31.8694C22.379 31.291 23.3761 31.291 24.063 31.8694C24.1511 31.9437 24.2586 31.98 24.3655 31.98C24.472 31.98 24.5776 31.9434 24.6633 31.873C24.665 31.8718 24.667 31.8708 24.6686 31.8694C25.3554 31.291 26.3525 31.291 27.0393 31.8694C27.1257 31.9422 27.2334 31.98 27.3422 31.9799C27.4094 31.9799 27.4771 31.9655 27.5404 31.9361C27.5785 31.9183 27.6131 31.8954 27.6444 31.869C27.6446 31.8689 27.6447 31.8695 27.6449 31.8694C28.3317 31.2909 29.3289 31.2909 30.0157 31.8694C30.1021 31.9421 30.2098 31.9799 30.3186 31.9799C30.3858 31.9799 30.4534 31.9655 30.5167 31.936C30.6825 31.8589 30.7885 31.6927 30.7885 31.5099L30.7965 3.31332C31.5608 3.08647 32.0996 2.32989 31.9845 1.47066ZM29.8564 4.0244H27.818V2.17153H28.704C28.8652 2.72413 29.3027 3.15966 29.8563 3.31815V4.0244H29.8564ZM18.883 2.17153H20.9214V4.0244H18.883V2.17153ZM21.8614 2.17153H23.8997V4.0244H21.8614V2.17153ZM24.8397 2.17153H26.878V4.0244H24.8397V2.17153ZM13.174 4.0244H11.1377V2.17153H13.174V4.0244ZM5.18501 2.17153H7.22137V4.0244H5.18501V2.17153ZM8.16132 2.17153H10.1977V4.0244H8.16132V2.17153ZM0.946143 1.79816C0.884604 1.31374 1.29388 0.904462 1.77836 0.966064C2.10855 1.00805 2.3752 1.2747 2.41713 1.60495C2.47867 2.08937 2.06939 2.49865 1.58491 2.43705C1.25472 2.395 0.988068 2.12835 0.946143 1.79816ZM2.2087 4.0244V3.29809C2.73147 3.12507 3.14118 2.70225 3.29597 2.17153H4.245V4.0244H2.2087ZM5.18501 30.6887V4.96441H7.22137V30.6887C6.56763 30.4306 5.83869 30.4306 5.18501 30.6887ZM10.1977 30.6887C9.544 30.4306 8.81506 30.4306 8.16132 30.6887V4.96441H10.1977V30.6887ZM13.174 30.6887C12.5203 30.4306 11.7914 30.4306 11.1377 30.6887V4.96441H13.174V30.6887ZM14.114 22.8422V4.49441V2.17153H17.943V22.8422H14.114ZM20.9193 30.6887C20.2656 30.4306 19.5367 30.4306 18.883 30.6887V4.96441H20.9193V30.6887ZM26.872 30.6887C26.2183 30.4306 25.4894 30.4306 24.8356 30.6887V16.6914C24.8356 16.4318 24.6252 16.2214 24.3656 16.2214C24.1061 16.2214 23.8956 16.4318 23.8956 16.6914V30.69C23.2418 30.4317 22.5131 30.4304 21.8593 30.6887V4.96441H23.8956V14.6977C23.8956 14.955 24.0939 15.1795 24.3511 15.1872C24.6172 15.1952 24.8356 14.9817 24.8356 14.7173V4.96441H26.8719V30.6887H26.872ZM29.8484 30.6887C29.1946 30.4306 28.4658 30.4306 27.812 30.6887V4.96441H29.8484V30.6887ZM30.4151 2.43699C29.9307 2.49859 29.5213 2.08937 29.5829 1.60489C29.6248 1.2747 29.8914 1.00805 30.2216 0.966001C30.706 0.904399 31.1154 1.31362 31.0538 1.79809C31.0119 2.12835 30.7453 2.395 30.4151 2.43699Z" fill="#2B5783"/>
</g>
<defs>
<clipPath id="clip0_356_1465">
<rect width="32" height="32" fill="white"/>
</clipPath>
</defs>
</svg>
