<svg width="32" height="32" viewBox="0 0 32 32" fill="none" xmlns="http://www.w3.org/2000/svg">
<path d="M31.9999 12.8181C31.9999 12.5592 31.7901 12.3493 31.5312 12.3493C31.2723 12.3493 31.0624 12.5592 31.0624 12.8181V22.4914C28.0371 21.512 22.2705 20.8919 16 20.8919C9.72942 20.8919 3.96287 21.5121 0.937498 22.4914V12.2491L6.18911 6.99759C9.02042 7.35172 12.4284 7.55291 16 7.55291C18.0961 7.55291 20.1446 7.48584 22.0887 7.35353C22.347 7.33597 22.5421 7.11234 22.5246 6.85403C22.507 6.59578 22.2842 6.4011 22.0251 6.41816C20.1021 6.54903 18.0749 6.61541 16 6.61541C12.3731 6.61541 8.9283 6.40891 6.11024 6.04691C6.09049 6.04291 6.07049 6.04053 6.05043 6.0391C3.73818 5.73935 1.8525 5.33453 0.641999 4.85304C0.497687 4.7956 0.334187 4.81341 0.205625 4.90066C0.0770624 4.98791 0 5.13316 0 5.28853V25.2927C0 25.4481 0.0769998 25.5934 0.205625 25.6806C0.284374 25.7341 0.376249 25.7614 0.468812 25.7614C0.527312 25.7614 0.586124 25.7505 0.641999 25.7282C1.972 25.1992 4.24649 24.7358 7.04642 24.4232C7.30374 24.3945 7.48899 24.1626 7.4603 23.9053C7.43161 23.648 7.19936 23.4626 6.94242 23.4914C4.42462 23.7725 2.37006 24.1619 0.937498 24.6271V23.4808C3.75706 22.4737 9.59442 21.8294 16 21.8294C22.4055 21.8294 28.2429 22.4737 31.0624 23.4808V24.6275C28.0371 23.6483 22.2704 23.0284 16 23.0284C13.5988 23.0284 11.2752 23.1156 9.09367 23.2878C8.83561 23.3082 8.64286 23.5339 8.66323 23.7919C8.68361 24.05 8.90917 24.2428 9.16736 24.2224C10.9107 24.0848 12.7477 24.0031 14.6424 23.9764V24.5863C14.6424 25.5263 13.115 26.0219 12.4582 26.1914C12.4139 26.2028 12.3729 26.2205 12.3354 26.2428H4.81562C4.55674 26.2428 4.34687 26.4527 4.34687 26.7116C4.34687 26.9704 4.55674 27.1803 4.81562 27.1803H27.1843C27.4432 27.1803 27.6531 26.9704 27.6531 26.7116C27.6531 26.4527 27.4432 26.2428 27.1843 26.2428H19.671C19.6349 26.222 19.5956 26.2052 19.5533 26.1944C18.8931 26.0251 17.3575 25.5296 17.3575 24.5863V23.9757C23.4501 24.0628 28.8513 24.7312 31.358 25.7283C31.4139 25.7506 31.4727 25.7615 31.5312 25.7615C31.6237 25.7615 31.7156 25.7341 31.7944 25.6807C31.923 25.5934 32 25.4482 32 25.2927L31.9999 12.8181ZM0.937498 5.95372C1.99568 6.29628 3.38956 6.59472 5.02268 6.83816L0.937498 10.9233V5.95372ZM14.6441 26.2427C15.2568 25.7879 15.58 25.2261 15.58 24.5863V23.9678C15.72 23.9672 15.8594 23.9659 16 23.9659C16.1403 23.9659 16.2802 23.9663 16.42 23.9669V24.5863C16.42 25.2263 16.7432 25.788 17.3557 26.2427H14.6441Z" fill="#2B5783"/>
<path d="M31.7942 4.90044C31.6656 4.81319 31.5021 4.79532 31.3578 4.85282C29.892 5.43588 27.3311 5.92944 24.147 6.24244C23.8894 6.26775 23.7011 6.49713 23.7264 6.75482C23.7517 7.0125 23.9803 7.20069 24.2388 7.1755C27.1362 6.89063 29.4729 6.4715 31.0623 5.95432V10.6818C31.0623 10.9407 31.2722 11.1506 31.5311 11.1506C31.7899 11.1506 31.9998 10.9407 31.9998 10.6818V5.28838C31.9998 5.13301 31.9228 4.98769 31.7942 4.90044Z" fill="#2B5783"/>
</svg>
