<svg width="32" height="32" viewBox="0 0 32 32" fill="none" xmlns="http://www.w3.org/2000/svg">
<path d="M24.8113 3.59999C24.5319 3.59999 24.3055 3.82637 24.3055 4.1058V9.12973V11.7671H12.8475H7.69418V2.48825C7.69418 1.67406 8.35655 1.01156 9.17086 1.01156H22.8288C23.6431 1.01156 24.3055 1.67393 24.3055 2.48825C24.3055 2.76762 24.5319 2.99406 24.8113 2.99406C25.0907 2.99406 25.3172 2.76768 25.3172 2.48825C25.3171 1.11619 24.2009 0 22.8288 0H9.17086C7.7988 0 6.68262 1.11619 6.68262 2.48825V12.273V13.959V27.3491C6.68262 28.3616 7.29074 29.234 8.16055 29.6222V30.6849C8.16055 31.41 8.75055 31.9999 9.47561 31.9999H10.5545C11.2797 31.9999 11.8696 31.41 11.8696 30.6849V29.8374H12.536C12.8154 29.8374 13.0419 29.6111 13.0419 29.3316C13.0419 29.0523 12.8155 28.8258 12.536 28.8258H11.369C11.3673 28.8258 11.3656 28.8256 11.3639 28.8256H9.16061C8.35111 28.8199 7.69424 28.1599 7.69424 27.3492V14.4648H12.0384C12.7635 14.4648 13.3534 13.8748 13.3534 13.1497V12.7788H24.3056V27.3491C24.3056 28.1598 23.6488 28.8199 22.8392 28.8255H20.6359C20.6342 28.8255 20.6325 28.8257 20.6307 28.8258H14.1996C13.9202 28.8258 13.6938 29.0521 13.6938 29.3316C13.6938 29.611 13.9202 29.8374 14.1996 29.8374H20.1302V30.6848C20.1302 31.4099 20.7202 31.9999 21.4452 31.9999H22.5242C23.2493 31.9999 23.8392 31.4099 23.8392 30.6848V29.6222C24.7091 29.234 25.3172 28.3615 25.3172 27.3491V12.273V9.12979V4.1058C25.3171 3.82643 25.0907 3.59999 24.8113 3.59999ZM9.17211 29.8374H10.858V30.6848C10.858 30.8521 10.7218 30.9883 10.5545 30.9883H9.47555C9.30824 30.9883 9.17205 30.8521 9.17205 30.6848V29.8374H9.17211ZM12.3418 13.1497C12.3418 13.317 12.2056 13.4532 12.0383 13.4532H7.69418V12.7788H12.3417V13.1497H12.3418ZM22.8275 30.6849C22.8275 30.8523 22.6915 30.9884 22.524 30.9884H21.4451C21.2778 30.9884 21.1416 30.8522 21.1416 30.6849V29.8374H22.8275V30.6849H22.8275Z" fill="#2B5783"/>
<path d="M22.2046 2.86946V9.86413C22.2046 10.1435 22.431 10.3699 22.7104 10.3699C22.9898 10.3699 23.2162 10.1436 23.2162 9.86413V2.86946C23.2162 2.59008 22.9898 2.36365 22.7104 2.36365C22.431 2.36365 22.2046 2.59008 22.2046 2.86946Z" fill="#2B5783"/>
<path d="M22.2046 26.3861C22.2046 26.6655 22.431 26.8919 22.7104 26.8919C22.9898 26.8919 23.2162 26.6655 23.2162 26.3861V26.0465C23.2162 25.7671 22.9898 25.5406 22.7104 25.5406C22.431 25.5406 22.2046 25.767 22.2046 26.0465V26.3861Z" fill="#2B5783"/>
<path d="M22.7104 24.9109C22.9898 24.9109 23.2162 24.6845 23.2162 24.4051V14.6489C23.2162 14.3694 22.9898 14.1431 22.7104 14.1431C22.431 14.1431 22.2046 14.3694 22.2046 14.6489V24.4051C22.2046 24.6845 22.431 24.9109 22.7104 24.9109Z" fill="#2B5783"/>
<path d="M9.65864 4.02283C9.37927 4.02283 9.15283 4.2492 9.15283 4.52864V8.69169C9.15283 8.97107 9.37921 9.1975 9.65864 9.1975C9.93808 9.1975 10.1645 8.97113 10.1645 8.69169V5.03445H10.468C10.7473 5.03445 10.9738 4.80808 10.9738 4.52864C10.9738 4.2492 10.7474 4.02283 10.468 4.02283H9.65864Z" fill="#2B5783"/>
</svg>
