<svg width="32" height="32" viewBox="0 0 32 32" fill="none" xmlns="http://www.w3.org/2000/svg">
<g clip-path="url(#clip0_2529_1038)">
<path d="M31.3758 6.16681C31.7207 6.16637 32 5.88669 32 5.54181V2.98706C32 2.64187 31.7202 2.36206 31.375 2.36206H24.1025C22.9884 2.36206 22.0298 2.65844 21.3304 3.21919C20.7484 3.68587 20.0548 4.58075 20.0548 6.19381V7.97469H19.8984C19.5532 7.97469 19.2734 8.2545 19.2734 8.59969V11.2647H18.0981V11.0942C18.0981 10.4379 17.566 9.90581 16.9097 9.90581H15.1824C14.5261 9.90581 13.994 10.4379 13.994 11.0942V11.2646H12.3775V10.4103C12.3775 9.25094 11.4335 8.30769 10.2732 8.30769H8.70887C7.54856 8.30769 6.60456 9.25094 6.60456 10.4103V11.2915C2.91012 11.6069 0 14.7143 0 18.4891C0 22.2631 2.90737 25.3701 6.59925 25.6881V28.3878H0.646438C0.313563 28.3878 0.0229375 28.639 0.001375 28.9711C-0.02225 29.3351 0.266062 29.6378 0.625 29.6378H7.22425H11.2671H31.3536C31.6864 29.6378 31.9771 29.3866 31.9986 29.0544C32.0223 28.6904 31.7339 28.3878 31.375 28.3878H11.8921V25.7154H13.994V25.8859C13.994 26.5422 14.5261 27.0742 15.1824 27.0742H16.9097C17.5661 27.0742 18.0981 26.5422 18.0981 25.8859V25.7154H26.8521C27.1973 25.7154 27.4771 25.4356 27.4771 25.0904V22.4962H31.375C31.7202 22.4962 32 22.2164 32 21.8712V15.1087C32 14.7636 31.7202 14.4837 31.375 14.4837H27.4771V11.8896C27.4771 11.5444 27.1973 11.2646 26.8521 11.2646H24.8764V8.59962C24.8764 8.25444 24.5966 7.97462 24.2514 7.97462H24.0951C24.0951 7.97462 24.0945 6.37287 24.0961 6.335C24.0993 6.25412 24.1603 6.17712 24.2412 6.17662C24.4027 6.17569 31.3758 6.16681 31.3758 6.16681ZM7.85456 10.4103C7.85456 9.94019 8.23781 9.55769 8.70887 9.55769H10.2732C10.7443 9.55769 11.1275 9.94012 11.1275 10.4103V11.2646H7.85456V10.4103ZM10.6421 28.3878H7.84925V25.7154H10.6421V28.3878ZM7.22425 24.4654C3.93 24.4654 1.25 21.7844 1.25 18.4891C1.25 15.1947 3.93006 12.5146 7.22425 12.5146H7.22956H11.7525H13.994V24.4654H7.22425ZM30.75 15.7337V21.2462H27.4771V15.7337H30.75ZM26.2271 21.8712V24.4654H18.0981V21.2937C18.0981 20.9486 17.8182 20.6687 17.4731 20.6687C17.1279 20.6687 16.8481 20.9486 16.8481 21.2937V25.8242H15.244V25.0904V11.8896V11.1558H16.8481V15.681C16.8481 16.0261 17.1279 16.306 17.4731 16.306C17.8182 16.306 18.0981 16.0261 18.0981 15.681V12.5146H26.227V21.8712H26.2271ZM20.5234 11.2646V9.22462H20.6798H23.4701H23.6264V11.2646H20.5234ZM23.2048 5.31675C22.8765 5.65119 22.8382 6.09681 22.845 6.48987V7.97469H21.3047V6.19381C21.3047 4.05994 22.8261 3.61206 24.1024 3.61206H30.75V4.91762L24.4019 4.92569C24.0233 4.92569 23.5451 4.97006 23.2048 5.31675Z" fill="#000"/>
<path d="M11.7881 17.864H10.144C9.79886 17.864 9.51904 18.1439 9.51904 18.489C9.51904 18.8341 9.79886 19.114 10.144 19.114H11.7881C12.1333 19.114 12.4131 18.8341 12.4131 18.489C12.4131 18.1439 12.1333 17.864 11.7881 17.864Z" fill="#000"/>
<path d="M11.7881 14.7407H10.144C9.79886 14.7407 9.51904 15.0206 9.51904 15.3657C9.51904 15.7108 9.79886 15.9907 10.144 15.9907H11.7881C12.1333 15.9907 12.4131 15.7108 12.4131 15.3657C12.4131 15.0206 12.1333 14.7407 11.7881 14.7407Z" fill="#000"/>
<path d="M11.7881 20.9893H10.144C9.79886 20.9893 9.51904 21.2691 9.51904 21.6143C9.51904 21.9594 9.79886 22.2393 10.144 22.2393H11.7881C12.1333 22.2393 12.4131 21.9594 12.4131 21.6143C12.4131 21.2691 12.1333 20.9893 11.7881 20.9893Z" fill="#000"/>
<path d="M17.4731 17.8623C17.128 17.8623 16.8481 18.1422 16.8481 18.4873V18.4891C16.8481 18.8342 17.128 19.1132 17.4731 19.1132C17.8183 19.1132 18.0981 18.8324 18.0981 18.4872C18.0981 18.1421 17.8183 17.8623 17.4731 17.8623Z" fill="#000"/>
</g>
<defs>
<clipPath id="clip0_2529_1038">
<rect width="32" height="32" fill="white"/>
</clipPath>
</defs>
</svg>
