<svg width="32" height="32" viewBox="0 0 32 32" fill="none" xmlns="http://www.w3.org/2000/svg">
<g clip-path="url(#clip0_2529_1053)">
<path d="M31.9162 12.3663C31.7436 12.0674 31.3614 11.9649 31.0624 12.1375L21.7907 17.4906C21.9055 15.5481 21.1879 13.6043 19.7918 12.2082C18.3957 10.812 16.4521 10.0938 14.5095 10.2093L19.8625 0.937574C20.0351 0.638643 19.9326 0.256452 19.6337 0.0838382C19.3346 -0.088776 18.9525 0.0137256 18.78 0.312593L13.1566 10.0525C12.8498 9.86836 12.4767 9.80212 12.1074 9.8749C11.6018 9.97442 11.182 10.3154 10.9844 10.787L9.98203 13.1791L4.3238 18.8373C1.88694 21.2742 1.88694 25.2393 4.3238 27.6761C4.92147 28.2738 5.7091 28.724 6.2432 28.9725V30.7499H0.62498C0.279879 30.7499 0 31.0297 0 31.3748C0 31.7199 0.279879 31.9998 0.62498 31.9998H16.8613C17.2064 31.9998 17.4863 31.7199 17.4863 31.3748C17.4863 31.0297 17.2064 30.7499 16.8613 30.7499H11.2432V28.9823C11.9599 28.6721 12.6043 28.2342 13.1626 27.676L18.8208 22.0178L21.2129 21.0154C21.6846 20.8178 22.0256 20.398 22.125 19.8923C22.1977 19.5229 22.1315 19.15 21.9474 18.8432L31.6873 13.2198C31.9863 13.0474 32.0888 12.6652 31.9162 12.3663ZM18.9079 13.0921C20.0422 14.2263 20.6284 15.8025 20.5446 17.3806L14.6193 11.4553C16.1975 11.3715 17.7736 11.9578 18.9079 13.0921ZM7.49329 30.7499V23.8817C7.49329 23.1924 8.05406 22.6317 8.74325 22.6317C9.43244 22.6317 9.99321 23.1925 9.99321 23.8817V30.7499L7.49329 30.7499ZM12.2787 26.7922C11.9662 27.1048 11.6193 27.369 11.2432 27.5852V23.8817C11.2432 22.5032 10.1217 21.3817 8.74325 21.3817C7.36475 21.3817 6.24326 22.5032 6.24326 23.8817V27.5627C5.88717 27.355 5.50467 27.0891 5.20777 26.7922C4.26779 25.8523 3.75014 24.5967 3.75014 23.2568C3.75014 21.9168 4.26779 20.6612 5.20777 19.7213L7.85928 17.0698L14.9303 24.1408L12.2787 26.7922ZM20.8986 19.6511C20.8895 19.6973 20.8549 19.8103 20.73 19.8627L18.6113 20.7505L16.919 19.0582C16.6749 18.8142 16.2793 18.8142 16.0351 19.0582C15.791 19.3023 15.791 19.698 16.0351 19.9421L17.582 21.489L15.8142 23.2568L8.74319 16.1858L10.511 14.418L12.0576 15.9646C12.1797 16.0866 12.3396 16.1476 12.4995 16.1476C12.6595 16.1476 12.8194 16.0866 12.9415 15.9645C13.1856 15.7205 13.1856 15.3248 12.9415 15.0806L11.2495 13.3887L12.1374 11.2699C12.1898 11.1449 12.3027 11.1103 12.3488 11.1012C12.3862 11.0939 12.48 11.0836 12.5438 11.1475L20.8523 19.456C20.9162 19.5199 20.9059 19.6137 20.8986 19.6511Z" fill="currentColor" />
<path d="M23.5498 9.07503C23.7098 9.07503 23.8697 9.014 23.9918 8.892L27.04 5.84376C27.2841 5.59969 27.2841 5.20398 27.04 4.95985C26.7959 4.71586 26.4003 4.71586 26.1561 4.95985L23.1079 8.0081C22.8638 8.25216 22.8638 8.64788 23.1079 8.892C23.2299 9.01407 23.3898 9.07503 23.5498 9.07503Z" fill="#000"/>
<path d="M14.9682 17.111C14.7471 16.8457 14.3531 16.8103 14.0881 17.0311C13.8229 17.2521 13.7872 17.6465 14.0082 17.9115C14.1319 18.0599 14.3095 18.1365 14.4887 18.1365C14.6298 18.1365 14.7716 18.089 14.8884 17.9917C15.1536 17.7707 15.1894 17.3765 14.9685 17.1115L14.9682 17.111Z" fill="#000"/>
</g>
<defs>
<clipPath id="clip0_2529_1053">
<rect width="32" height="32" fill="white"/>
</clipPath>
</defs>
</svg>
