<svg width="32" height="32" viewBox="0 0 32 32" fill="none" xmlns="http://www.w3.org/2000/svg">
<g clip-path="url(#clip0_2529_1137)">
<path d="M29.1345 14.5583H27.5659C27.2208 14.5583 26.9409 14.2785 26.9409 13.9333C26.9409 13.5882 27.2208 13.3083 27.5659 13.3083H29.1345C29.4797 13.3083 29.7595 13.5882 29.7595 13.9333C29.7595 14.2785 29.4797 14.5583 29.1345 14.5583Z" fill="#000"/>
<path d="M25.8652 10.4527C25.7052 10.4527 25.5453 10.3917 25.4233 10.2696C25.1792 10.0256 25.1792 9.6298 25.4233 9.38568L26.5324 8.27655C26.7765 8.03249 27.1722 8.03249 27.4163 8.27655C27.6604 8.52062 27.6604 8.91637 27.4163 9.16043L26.3072 10.2696C26.1852 10.3917 26.0252 10.4527 25.8652 10.4527Z" fill="#000"/>
<path d="M26.9743 19.773C26.8143 19.773 26.6545 19.712 26.5324 19.5899L25.4233 18.4808C25.1792 18.2367 25.1792 17.841 25.4233 17.5969C25.6674 17.3528 26.063 17.3528 26.3072 17.5969L27.4163 18.706C27.6604 18.9501 27.6604 19.3458 27.4163 19.5899C27.2942 19.7119 27.1343 19.773 26.9743 19.773Z" fill="#000"/>
<path d="M4.4338 14.5583H2.86523C2.52005 14.5583 2.24023 14.2785 2.24023 13.9333C2.24023 13.5882 2.52005 13.3083 2.86523 13.3083H4.4338C4.77898 13.3083 5.0588 13.5882 5.0588 13.9333C5.0588 14.2785 4.77898 14.5583 4.4338 14.5583Z" fill="#000"/>
<path d="M5.02537 19.7729C4.86537 19.7729 4.70549 19.7119 4.58343 19.5898C4.33937 19.3458 4.33937 18.95 4.58349 18.706L5.69262 17.5968C5.93668 17.3528 6.33237 17.3528 6.57649 17.5968C6.82055 17.8409 6.82055 18.2367 6.57643 18.4807L5.4673 19.5898C5.3453 19.7118 5.18537 19.7729 5.02537 19.7729Z" fill="#000"/>
<path d="M6.1345 10.4529C5.97456 10.4529 5.81456 10.3919 5.69256 10.2698L4.58344 9.16067C4.33938 8.91661 4.33938 8.52086 4.58344 8.2768C4.8275 8.03273 5.22325 8.03273 5.46737 8.2768L6.5765 9.38592C6.82056 9.62998 6.82056 10.0257 6.5765 10.2699C6.45438 10.3919 6.29444 10.4529 6.1345 10.4529Z" fill="#000"/>
<path d="M17.4682 24.6126C17.2073 24.6126 16.9679 24.4441 16.8804 24.1981C16.7944 23.9563 16.8671 23.6773 17.0641 23.5112C17.2697 23.338 17.5694 23.3158 17.7981 23.4572C18.017 23.5926 18.1319 23.8576 18.0814 24.1101C18.0236 24.3988 17.7623 24.6126 17.4682 24.6126Z" fill="#000"/>
<path d="M24.2998 6.89294L20.9325 3.52619C20.4241 3.01781 19.7481 2.73787 19.0291 2.73787H18.9307C18.8277 1.21081 17.5526 0 16 0C14.4474 0 13.1722 1.21081 13.0692 2.73781H12.9709C12.2519 2.73781 11.5759 3.01775 11.0674 3.52612L7.70018 6.89288C7.52143 7.07163 7.46793 7.34044 7.56468 7.574C7.66137 7.80756 7.88931 7.95981 8.14212 7.95981H9.047L10.501 17.0334H10.2201C9.99762 17.0334 9.79193 17.1517 9.68 17.3439C9.568 17.5361 9.56668 17.7734 9.67643 17.9668L11.2289 20.7033C11.605 21.3662 12.3122 21.7781 13.0744 21.7781H13.9067V31.375C13.9067 31.7202 14.1865 32 14.5317 32H17.4684C17.8136 32 18.0934 31.7202 18.0934 31.375V26.8016C18.0934 26.4564 17.8136 26.1766 17.4684 26.1766C17.1233 26.1766 16.8434 26.4564 16.8434 26.8016V30.75H15.1567V21.7782H18.9258C19.688 21.7782 20.3952 21.3664 20.7713 20.7034L22.3237 17.9669C22.4335 17.7734 22.4321 17.5362 22.3202 17.344C22.2082 17.1518 22.0026 17.0336 21.7801 17.0336H21.4991L22.9531 7.95994H23.8579C24.1107 7.95994 24.3386 7.80769 24.4354 7.57412C24.5321 7.3405 24.4786 7.07169 24.2998 6.89294ZM16 1.25C16.863 1.25 17.5767 1.90106 17.6757 2.73781H14.3242C14.4233 1.90106 15.137 1.25 16 1.25ZM11.9512 4.41012C12.2236 4.13781 12.5857 3.98781 12.9709 3.98781H19.0291C19.4142 3.98781 19.7763 4.13775 20.0487 4.41012L22.3489 6.70988H9.65112L11.9512 4.41012ZM10.3129 7.95988H15.375V17.0335H11.7669L10.3129 7.95988ZM19.684 20.0866C19.5294 20.3589 19.2389 20.5282 18.9257 20.5282H13.0742C12.7611 20.5282 12.4705 20.3589 12.316 20.0866L11.2931 18.2836H20.7069L19.684 20.0866ZM20.2331 17.0336H16.625V7.95988H21.6871L20.2331 17.0336Z" fill="#000"/>
</g>
<defs>
<clipPath id="clip0_2529_1137">
<rect width="32" height="32" fill="white"/>
</clipPath>
</defs>
</svg>
