<svg width="32" height="32" viewBox="0 0 32 32" fill="none" xmlns="http://www.w3.org/2000/svg">
<path d="M26.6026 16.6139C26.342 16.6139 26.1026 16.4453 26.0147 16.2004C25.9316 15.9692 25.9944 15.7005 26.175 15.5328C26.375 15.347 26.6776 15.3115 26.9147 15.4474C27.1408 15.577 27.2639 15.8447 27.2169 16.1007C27.1631 16.3936 26.9011 16.6139 26.6026 16.6139Z" fill="#000"/>
<path d="M24.0228 32H7.97764C6.21057 32 4.77295 30.5624 4.77295 28.7952V3.20475C4.77289 1.43763 6.21051 0 7.97764 0H24.0228C25.7899 0 27.2275 1.43763 27.2275 3.20475V13.1746C27.2275 13.5198 26.9476 13.7996 26.6025 13.7996C26.2574 13.7996 25.9775 13.5198 25.9775 13.1746V3.20475C25.9775 2.12687 25.1006 1.25 24.0228 1.25H7.97764C6.89982 1.25 6.02295 2.12687 6.02295 3.20475V28.7952C6.02295 29.8731 6.89982 30.75 7.97764 30.75H24.0228C25.1006 30.75 25.9775 29.8731 25.9775 28.7952V18.8254C25.9775 18.4802 26.2574 18.2004 26.6025 18.2004C26.9476 18.2004 27.2275 18.4802 27.2275 18.8254V28.7952C27.2275 30.5624 25.7899 32 24.0228 32Z" fill="#000"/>
<path d="M16.0003 26.1537C14.7854 26.1537 13.7969 25.1653 13.7969 23.9503C13.7969 22.7353 14.7853 21.7468 16.0003 21.7468C17.2153 21.7468 18.2038 22.7353 18.2038 23.9503C18.2038 25.1653 17.2153 26.1537 16.0003 26.1537ZM16.0003 22.9968C15.4746 22.9968 15.0469 23.4245 15.0469 23.9502C15.0469 24.4759 15.4746 24.9036 16.0003 24.9036C16.526 24.9036 16.9538 24.4759 16.9538 23.9502C16.9538 23.4245 16.526 22.9968 16.0003 22.9968Z" fill="#000"/>
<path d="M16.0003 28.9037C13.269 28.9037 11.0469 26.6816 11.0469 23.9503C11.0469 21.219 13.269 18.9968 16.0003 18.9968C18.7316 18.9968 20.9538 21.219 20.9538 23.9503C20.9538 26.6816 18.7316 28.9037 16.0003 28.9037ZM16.0003 20.2468C13.9583 20.2468 12.2969 21.9081 12.2969 23.9502C12.2969 25.9923 13.9583 27.6536 16.0003 27.6536C18.0424 27.6536 19.7038 25.9923 19.7038 23.9502C19.7038 21.9081 18.0424 20.2468 16.0003 20.2468Z" fill="#000"/>
<path d="M16.0002 17.2786C12.0902 17.2786 8.90918 14.0976 8.90918 10.1876C8.90918 6.2775 12.0902 3.09644 16.0002 3.09644C19.9103 3.09644 23.0913 6.2775 23.0913 10.1876C23.0913 14.0976 19.9103 17.2786 16.0002 17.2786ZM16.0002 4.34644C12.7795 4.34644 10.1592 6.96675 10.1592 10.1876C10.1592 13.4083 12.7795 16.0286 16.0002 16.0286C19.221 16.0286 21.8413 13.4083 21.8413 10.1876C21.8413 6.96675 19.221 4.34644 16.0002 4.34644Z" fill="#000"/>
<path d="M16.0002 14.5286C13.6066 14.5286 11.6592 12.5812 11.6592 10.1876C11.6592 7.79387 13.6066 5.84644 16.0002 5.84644C18.3939 5.84644 20.3413 7.79387 20.3413 10.1876C20.3413 12.5812 18.3939 14.5286 16.0002 14.5286ZM16.0002 7.09644C14.2958 7.09644 12.9092 8.48312 12.9092 10.1876C12.9092 11.892 14.2959 13.2786 16.0002 13.2786C17.7046 13.2786 19.0913 11.8919 19.0913 10.1876C19.0913 8.48312 17.7047 7.09644 16.0002 7.09644Z" fill="#000"/>
</svg>
