<svg width="32" height="32" viewBox="0 0 32 32" fill="none" xmlns="http://www.w3.org/2000/svg">
<g clip-path="url(#clip0_2529_1154)">
<path d="M21 26.9375C21.3452 26.9375 21.625 26.6577 21.625 26.3125C21.625 25.9673 21.3452 25.6875 21 25.6875C20.6548 25.6875 20.375 25.9673 20.375 26.3125C20.375 26.6577 20.6548 26.9375 21 26.9375Z" fill="#000"/>
<path d="M16 16.625C16.3452 16.625 16.625 16.3452 16.625 16C16.625 15.6548 16.3452 15.375 16 15.375C15.6548 15.375 15.375 15.6548 15.375 16C15.375 16.3452 15.6548 16.625 16 16.625Z" fill="#000"/>
<path d="M14.75 14.125C15.0952 14.125 15.375 13.8452 15.375 13.5C15.375 13.1548 15.0952 12.875 14.75 12.875C14.4048 12.875 14.125 13.1548 14.125 13.5C14.125 13.8452 14.4048 14.125 14.75 14.125Z" fill="#000"/>
<path d="M17.25 14.125C17.5952 14.125 17.875 13.8452 17.875 13.5C17.875 13.1548 17.5952 12.875 17.25 12.875C16.9048 12.875 16.625 13.1548 16.625 13.5C16.625 13.8452 16.9048 14.125 17.25 14.125Z" fill="#000"/>
<path d="M14.75 11.625C15.0952 11.625 15.375 11.3452 15.375 11C15.375 10.6548 15.0952 10.375 14.75 10.375C14.4048 10.375 14.125 10.6548 14.125 11C14.125 11.3452 14.4048 11.625 14.75 11.625Z" fill="#000"/>
<path d="M5.3125 8.25C5.65768 8.25 5.9375 7.97018 5.9375 7.625C5.9375 7.27982 5.65768 7 5.3125 7C4.96732 7 4.6875 7.27982 4.6875 7.625C4.6875 7.97018 4.96732 8.25 5.3125 8.25Z" fill="#000"/>
<path d="M4.5625 19.5C4.90768 19.5 5.1875 19.2202 5.1875 18.875C5.1875 18.5298 4.90768 18.25 4.5625 18.25C4.21732 18.25 3.9375 18.5298 3.9375 18.875C3.9375 19.2202 4.21732 19.5 4.5625 19.5Z" fill="#000"/>
<path d="M7.125 19.875C7.47018 19.875 7.75 19.5952 7.75 19.25C7.75 18.9048 7.47018 18.625 7.125 18.625C6.77982 18.625 6.5 18.9048 6.5 19.25C6.5 19.5952 6.77982 19.875 7.125 19.875Z" fill="#000"/>
<path d="M2.8125 7.625C3.15768 7.625 3.4375 7.34518 3.4375 7C3.4375 6.65482 3.15768 6.375 2.8125 6.375C2.46732 6.375 2.1875 6.65482 2.1875 7C2.1875 7.34518 2.46732 7.625 2.8125 7.625Z" fill="#000"/>
<path d="M7.8125 7.625C8.15768 7.625 8.4375 7.34518 8.4375 7C8.4375 6.65482 8.15768 6.375 7.8125 6.375C7.46732 6.375 7.1875 6.65482 7.1875 7C7.1875 7.34518 7.46732 7.625 7.8125 7.625Z" fill="#000"/>
<path d="M1.9375 18.9375C2.28268 18.9375 2.5625 18.6577 2.5625 18.3125C2.5625 17.9673 2.28268 17.6875 1.9375 17.6875C1.59232 17.6875 1.3125 17.9673 1.3125 18.3125C1.3125 18.6577 1.59232 18.9375 1.9375 18.9375Z" fill="#000"/>
<path d="M3.75 24.375C4.09518 24.375 4.375 24.0952 4.375 23.75C4.375 23.4048 4.09518 23.125 3.75 23.125C3.40482 23.125 3.125 23.4048 3.125 23.75C3.125 24.0952 3.40482 24.375 3.75 24.375Z" fill="#000"/>
<path d="M6.25 25.625C6.59518 25.625 6.875 25.3452 6.875 25C6.875 24.6548 6.59518 24.375 6.25 24.375C5.90482 24.375 5.625 24.6548 5.625 25C5.625 25.3452 5.90482 25.625 6.25 25.625Z" fill="#000"/>
<path d="M1.25 24.9375C1.59518 24.9375 1.875 24.6577 1.875 24.3125C1.875 23.9673 1.59518 23.6875 1.25 23.6875C0.904822 23.6875 0.625 23.9673 0.625 24.3125C0.625 24.6577 0.904822 24.9375 1.25 24.9375Z" fill="#000"/>
<path d="M1.25 13.6875C1.59518 13.6875 1.875 13.4077 1.875 13.0625C1.875 12.7173 1.59518 12.4375 1.25 12.4375C0.904822 12.4375 0.625 12.7173 0.625 13.0625C0.625 13.4077 0.904822 13.6875 1.25 13.6875Z" fill="#000"/>
<path d="M6.25 13.9375C6.59518 13.9375 6.875 13.6577 6.875 13.3125C6.875 12.9673 6.59518 12.6875 6.25 12.6875C5.90482 12.6875 5.625 12.9673 5.625 13.3125C5.625 13.6577 5.90482 13.9375 6.25 13.9375Z" fill="#000"/>
<path d="M3.8125 13.1875C4.15768 13.1875 4.4375 12.9077 4.4375 12.5625C4.4375 12.2173 4.15768 11.9375 3.8125 11.9375C3.46732 11.9375 3.1875 12.2173 3.1875 12.5625C3.1875 12.9077 3.46732 13.1875 3.8125 13.1875Z" fill="#000"/>
<path d="M17.25 11.625C17.5952 11.625 17.875 11.3452 17.875 11C17.875 10.6548 17.5952 10.375 17.25 10.375C16.9048 10.375 16.625 10.6548 16.625 11C16.625 11.3452 16.9048 11.625 17.25 11.625Z" fill="#000"/>
<path d="M16 21.625C16.3452 21.625 16.625 21.3452 16.625 21C16.625 20.6548 16.3452 20.375 16 20.375C15.6548 20.375 15.375 20.6548 15.375 21C15.375 21.3452 15.6548 21.625 16 21.625Z" fill="#000"/>
<path d="M14.75 19.125C15.0952 19.125 15.375 18.8452 15.375 18.5C15.375 18.1548 15.0952 17.875 14.75 17.875C14.4048 17.875 14.125 18.1548 14.125 18.5C14.125 18.8452 14.4048 19.125 14.75 19.125Z" fill="#000"/>
<path d="M17.25 19.125C17.5952 19.125 17.875 18.8452 17.875 18.5C17.875 18.1548 17.5952 17.875 17.25 17.875C16.9048 17.875 16.625 18.1548 16.625 18.5C16.625 18.8452 16.9048 19.125 17.25 19.125Z" fill="#000"/>
<path d="M29.3706 18.5669C29.4926 18.689 29.6525 18.75 29.8125 18.75C29.9725 18.75 30.1324 18.689 30.2544 18.5669L31.8169 17.0044C32.061 16.7604 32.061 16.3646 31.8169 16.1205L30.2544 14.558C30.0103 14.3139 29.6147 14.3139 29.3705 14.558C29.1264 14.8021 29.1264 15.1978 29.3705 15.4419L29.8661 15.9375H29.0937C28.0207 15.9375 27.1211 15.4564 27.1139 15.4525C27.0664 15.4264 25.9353 14.8125 24.5312 14.8125C23.8989 14.8125 23.3225 14.937 22.8749 15.0763V10.7767C23.2319 10.6336 23.846 10.4375 24.5312 10.4375C25.6042 10.4375 26.5038 10.9186 26.511 10.9225C26.5585 10.9486 27.6896 11.5625 29.0937 11.5625H29.866L29.3704 12.0581C29.1264 12.3021 29.1264 12.6979 29.3704 12.942C29.4926 13.064 29.6525 13.125 29.8125 13.125C29.9725 13.125 30.1324 13.064 30.2544 12.9419L31.8169 11.3794C32.061 11.1354 32.061 10.7396 31.8169 10.4955L30.2544 8.933C30.0103 8.68894 29.6147 8.68894 29.3705 8.933C29.1264 9.17706 29.1264 9.57281 29.3705 9.81694L29.8661 10.3125H29.0938C28.0208 10.3125 27.1211 9.83144 27.1139 9.8275C27.0664 9.80138 25.9354 9.1875 24.5312 9.1875C23.899 9.1875 23.3226 9.312 22.875 9.45125V9.125C22.875 8.78 22.595 8.5 22.25 8.5H21.625V2.25C21.625 2.08562 21.5581 1.92438 21.4419 1.80813C21.3256 1.69188 21.1644 1.625 21 1.625H11C10.8356 1.625 10.6744 1.69188 10.5581 1.80813C10.4419 1.92438 10.375 2.08562 10.375 2.25V8.5H9.75C9.405 8.5 9.125 8.78 9.125 9.125V9.97331C8.768 10.1164 8.15394 10.3125 7.46875 10.3125C6.39575 10.3125 5.49612 9.83144 5.48894 9.8275C5.44144 9.80138 4.31038 9.1875 2.90625 9.1875C1.50213 9.1875 0.371063 9.80138 0.323563 9.8275C0.116875 9.94131 -0.000187275 10.1547 2.24894e-07 10.375C0.000125225 10.4762 0.0254377 10.579 0.0774377 10.6742C0.242563 10.9764 0.622063 11.0877 0.92475 10.9234C0.933625 10.9186 1.83325 10.4375 2.90625 10.4375C3.97925 10.4375 4.87888 10.9186 4.88606 10.9225C4.93356 10.9486 6.06462 11.5625 7.46875 11.5625C8.101 11.5625 8.67744 11.438 9.125 11.2987V15.5983C8.768 15.7414 8.15394 15.9375 7.46875 15.9375C6.39575 15.9375 5.49612 15.4564 5.48894 15.4525C5.44144 15.4264 4.31038 14.8125 2.90625 14.8125C1.50213 14.8125 0.371063 15.4264 0.323563 15.4525C0.116875 15.5663 -0.000187275 15.7797 2.24894e-07 16C0.000125225 16.1012 0.0254377 16.204 0.0774377 16.2992C0.242563 16.6014 0.622063 16.7127 0.92475 16.5484C0.933625 16.5436 1.83325 16.0625 2.90625 16.0625C3.97925 16.0625 4.87888 16.5436 4.88606 16.5475C4.93356 16.5736 6.06462 17.1875 7.46875 17.1875C8.101 17.1875 8.67744 17.063 9.125 16.9237V21.2233C8.768 21.3664 8.15394 21.5625 7.46875 21.5625C6.39575 21.5625 5.49612 21.0814 5.48894 21.0775C5.44144 21.0514 4.31038 20.4375 2.90625 20.4375C1.50213 20.4375 0.371063 21.0514 0.323563 21.0775C0.118688 21.1902 2.24894e-07 21.3919 2.24894e-07 21.6191C2.24894e-07 21.7223 0.0244377 21.8272 0.0774377 21.9242C0.242563 22.2265 0.622063 22.3377 0.92475 22.1735C0.933625 22.1686 1.83325 21.6875 2.90625 21.6875C3.97925 21.6875 4.87888 22.1686 4.88606 22.1725C4.93356 22.1986 6.06462 22.8125 7.46875 22.8125C8.101 22.8125 8.67744 22.688 9.125 22.5487V22.875C9.125 23.22 9.405 23.5 9.75 23.5H10.375V29.75C10.375 29.9144 10.4419 30.0756 10.5581 30.1919C10.6744 30.3081 10.8356 30.375 11 30.375H21C21.1644 30.375 21.3256 30.3081 21.4419 30.1919C21.5581 30.0756 21.625 29.9144 21.625 29.75V29.125C21.625 28.7806 21.3444 28.5 21 28.5C20.6556 28.5 20.375 28.7806 20.375 29.125H11.625V23.5H12.25C12.595 23.5 12.875 23.22 12.875 22.875V9.125C12.875 8.78 12.595 8.5 12.25 8.5H11.625V2.875H20.375V8.5H19.75C19.405 8.5 19.125 8.78 19.125 9.125V22.875C19.125 23.22 19.405 23.5 19.75 23.5H20.375C20.375 23.8444 20.6556 24.125 21 24.125C21.345 24.125 21.625 23.8444 21.625 23.5H22.25C22.595 23.5 22.875 23.22 22.875 22.875V22.0267C23.232 21.8836 23.8461 21.6875 24.5312 21.6875C25.6042 21.6875 26.5039 22.1686 26.5111 22.1725C26.5586 22.1986 27.6896 22.8125 29.0938 22.8125H29.8661L29.3706 23.3081C29.1265 23.5521 29.1265 23.9479 29.3706 24.192C29.4926 24.314 29.6525 24.375 29.8125 24.375C29.9725 24.375 30.1324 24.314 30.2544 24.1919L31.8169 22.6294C32.061 22.3854 32.061 21.9896 31.8169 21.7455L30.2544 20.183C30.0103 19.9389 29.6147 19.9389 29.3705 20.183C29.1264 20.4271 29.1264 20.8228 29.3705 21.0669L29.8661 21.5625H29.0937C28.0207 21.5625 27.1211 21.0814 27.1139 21.0775C27.0664 21.0514 25.9353 20.4375 24.5312 20.4375C23.8989 20.4375 23.3225 20.562 22.8749 20.7013V16.4017C23.2319 16.2586 23.846 16.0625 24.5312 16.0625C25.6042 16.0625 26.5038 16.5436 26.511 16.5475C26.5585 16.5736 27.6896 17.1875 29.0937 17.1875H29.866L29.3705 17.6831C29.1264 17.9271 29.1264 18.3229 29.3706 18.5669ZM11.625 22.25H10.375V9.75H11.625V22.25ZM21.625 22.25H20.375V9.75H21.625V22.25Z" fill="#000"/>
</g>
<defs>
<clipPath id="clip0_2529_1154">
<rect width="32" height="32" fill="white"/>
</clipPath>
</defs>
</svg>
