<svg width="32" height="32" viewBox="0 0 32 32" fill="none" xmlns="http://www.w3.org/2000/svg">
<path d="M24.0601 4.9186C24.1722 4.91875 24.2829 4.89366 24.384 4.84519C24.4851 4.79672 24.574 4.72611 24.6441 4.6386L25.5841 3.4701C25.6495 3.39384 25.6989 3.30522 25.7293 3.2095C25.7598 3.11378 25.7708 3.01292 25.7615 2.91289C25.7523 2.81286 25.723 2.71571 25.6755 2.6272C25.628 2.53869 25.5632 2.46063 25.4849 2.39765C25.4067 2.33467 25.3166 2.28805 25.2199 2.26056C25.1233 2.23307 25.0222 2.22527 24.9225 2.23763C24.8228 2.24998 24.7266 2.28224 24.6396 2.33248C24.5526 2.38272 24.4766 2.44992 24.4161 2.5301L23.4761 3.6985C23.3875 3.80869 23.3318 3.94168 23.3155 4.08214C23.2993 4.2226 23.323 4.36479 23.3841 4.49233C23.4451 4.61987 23.541 4.72755 23.6606 4.80295C23.7802 4.87836 23.9187 4.91842 24.0601 4.9185V4.9186Z" fill="#000"/>
<path d="M20.5968 9.21734C20.7088 9.21735 20.8194 9.19227 20.9205 9.14394C21.0215 9.09561 21.1105 9.02525 21.1808 8.93804L22.6651 7.09574C22.7269 7.01905 22.773 6.93094 22.8008 6.83644C22.8285 6.74194 22.8374 6.64289 22.8269 6.54496C22.8164 6.44702 22.7867 6.35212 22.7395 6.26567C22.6923 6.17921 22.6285 6.1029 22.5518 6.04109C22.4751 5.97927 22.387 5.93317 22.2925 5.90541C22.198 5.87765 22.099 5.86877 22.001 5.87929C21.9031 5.8898 21.8082 5.91951 21.7218 5.9667C21.6353 6.01389 21.559 6.07765 21.4972 6.15434L20.0128 7.99664C19.924 8.10682 19.8681 8.23988 19.8517 8.38044C19.8353 8.52101 19.859 8.66335 19.9201 8.79101C19.9812 8.91868 20.0771 9.02645 20.1969 9.10189C20.3166 9.17733 20.4553 9.21736 20.5968 9.21734Z" fill="#000"/>
<path d="M17.6777 12.8419C17.7898 12.842 17.9004 12.8168 18.0015 12.7684C18.1026 12.7199 18.1915 12.6493 18.2617 12.5619L19.2017 11.3939C19.2672 11.3177 19.3168 11.229 19.3474 11.1333C19.3781 11.0375 19.3891 10.9365 19.38 10.8364C19.3708 10.7362 19.3416 10.639 19.2941 10.5504C19.2465 10.4617 19.1817 10.3836 19.1033 10.3205C19.025 10.2575 18.9348 10.2108 18.8381 10.1833C18.7413 10.1559 18.6401 10.1481 18.5403 10.1605C18.4405 10.173 18.3442 10.2054 18.2572 10.2558C18.1702 10.3062 18.0942 10.3735 18.0338 10.4539L17.0938 11.6219C17.0052 11.7321 16.9495 11.8651 16.9332 12.0055C16.9169 12.146 16.9407 12.2882 17.0017 12.4157C17.0628 12.5432 17.1586 12.6509 17.2782 12.7263C17.3978 12.8017 17.5363 12.8418 17.6777 12.8419Z" fill="#000"/>
<path d="M29.6046 6.5566C29.5465 6.47711 29.4733 6.40987 29.3891 6.35872C29.305 6.30757 29.2115 6.27352 29.1142 6.25851C29.0169 6.2435 28.9175 6.24783 28.8219 6.27125C28.7262 6.29467 28.6361 6.33672 28.5567 6.395L27.3467 7.2817C27.1863 7.39928 27.0791 7.57579 27.0488 7.77239C27.0185 7.969 27.0675 8.16959 27.1851 8.33004C27.3027 8.4905 27.4792 8.59768 27.6758 8.62799C27.8724 8.65831 28.073 8.60928 28.2334 8.4917L29.4434 7.605C29.5229 7.54674 29.5901 7.47342 29.6411 7.3892C29.6922 7.30499 29.7262 7.21154 29.7412 7.11418C29.7562 7.01683 29.7518 6.91748 29.7284 6.82181C29.705 6.72614 29.6629 6.63602 29.6046 6.5566Z" fill="#000"/>
<path d="M25.002 9.00004L23.2432 10.2886C23.1638 10.3469 23.0966 10.4202 23.0455 10.5044C22.9943 10.5885 22.9603 10.682 22.9453 10.7793C22.9303 10.8767 22.9346 10.976 22.958 11.0717C22.9814 11.1674 23.0234 11.2575 23.0816 11.337C23.1398 11.4164 23.2131 11.4836 23.2973 11.5348C23.3815 11.5859 23.4749 11.6199 23.5723 11.6349C23.6696 11.6499 23.769 11.6456 23.8647 11.6222C23.9603 11.5989 24.0505 11.5569 24.1299 11.4986L25.8887 10.21C25.9682 10.1518 26.0354 10.0785 26.0865 9.99432C26.1376 9.91013 26.1717 9.81669 26.1867 9.71934C26.2017 9.62199 26.1974 9.52264 26.174 9.42696C26.1506 9.33128 26.1086 9.24114 26.0504 9.16169C25.9922 9.08224 25.9189 9.01503 25.8347 8.96391C25.7505 8.91279 25.657 8.87875 25.5597 8.86374C25.4623 8.84873 25.363 8.85304 25.2673 8.87643C25.1716 8.89981 25.0815 8.94181 25.002 9.00004Z" fill="#000"/>
<path d="M20.1339 14.2491C20.293 14.249 20.4479 14.1982 20.5763 14.1041L21.7863 13.2174C21.8657 13.1591 21.9329 13.0858 21.984 13.0016C22.0352 12.9175 22.0692 12.824 22.0842 12.7267C22.0992 12.6293 22.0949 12.53 22.0715 12.4343C22.0481 12.3386 22.0061 12.2485 21.9479 12.169C21.8897 12.0896 21.8164 12.0224 21.7322 11.9712C21.648 11.9201 21.5546 11.8861 21.4572 11.8711C21.3599 11.8561 21.2605 11.8604 21.1648 11.8838C21.0691 11.9071 20.979 11.9491 20.8996 12.0074L19.6896 12.8941C19.5619 12.9876 19.4671 13.119 19.4188 13.2697C19.3704 13.4203 19.3708 13.5824 19.4201 13.7327C19.4694 13.8831 19.565 14.014 19.6932 14.1067C19.8214 14.1995 19.9756 14.2493 20.1339 14.2491Z" fill="#000"/>
<path d="M7.35637 4.6388C7.41723 4.71812 7.49333 4.78446 7.5802 4.83394C7.66707 4.88342 7.76295 4.91503 7.86221 4.92692C7.96147 4.93881 8.06211 4.93073 8.1582 4.90317C8.2543 4.8756 8.34391 4.8291 8.42178 4.7664C8.49964 4.70371 8.56419 4.62607 8.61162 4.53807C8.65905 4.45007 8.6884 4.35347 8.69796 4.25396C8.70752 4.15444 8.69709 4.05402 8.66728 3.9586C8.63747 3.86318 8.58888 3.77468 8.52437 3.6983L7.58397 2.5301C7.52346 2.44992 7.44745 2.38272 7.36046 2.33248C7.27347 2.28224 7.17728 2.24998 7.07759 2.23763C6.97789 2.22527 6.87674 2.23307 6.78012 2.26056C6.6835 2.28805 6.59338 2.33467 6.51512 2.39765C6.43687 2.46063 6.37206 2.53869 6.32454 2.6272C6.27703 2.71571 6.24778 2.81286 6.23854 2.91289C6.22929 3.01292 6.24023 3.11378 6.27071 3.2095C6.30119 3.30522 6.35059 3.39384 6.41597 3.4701L7.35637 4.6388Z" fill="#000"/>
<path d="M10.8193 8.93804C10.9442 9.09292 11.1254 9.19187 11.3232 9.21312C11.521 9.23437 11.7191 9.17617 11.874 9.05134C12.0289 8.9265 12.1279 8.74525 12.1491 8.54745C12.1704 8.34966 12.1122 8.15152 11.9873 7.99664L10.5029 6.15434C10.4411 6.07765 10.3648 6.01389 10.2784 5.9667C10.1919 5.91951 10.097 5.8898 9.99906 5.87929C9.90113 5.86877 9.80208 5.87765 9.70758 5.90541C9.61308 5.93317 9.52497 5.97927 9.44828 6.04109C9.3716 6.1029 9.30784 6.17921 9.26064 6.26567C9.21345 6.35212 9.18375 6.44702 9.17323 6.54496C9.16272 6.64289 9.17159 6.74194 9.19935 6.83644C9.22712 6.93094 9.27322 7.01905 9.33503 7.09574L10.8193 8.93804Z" fill="#000"/>
<path d="M13.7381 12.5619C13.7986 12.6423 13.8746 12.7096 13.9616 12.76C14.0486 12.8104 14.1449 12.8428 14.2447 12.8553C14.3445 12.8677 14.4457 12.86 14.5424 12.8325C14.6392 12.805 14.7294 12.7583 14.8077 12.6953C14.8861 12.6322 14.9509 12.5541 14.9984 12.4655C15.046 12.3768 15.0752 12.2796 15.0844 12.1794C15.0935 12.0793 15.0825 11.9783 15.0518 11.8826C15.0212 11.7868 14.9716 11.6981 14.906 11.6219L13.966 10.4539C13.9056 10.3735 13.8296 10.3062 13.7426 10.2558C13.6556 10.2054 13.5593 10.173 13.4595 10.1605C13.3597 10.1481 13.2585 10.1559 13.1617 10.1833C13.065 10.2108 12.9748 10.2575 12.8964 10.3205C12.8181 10.3836 12.7533 10.4617 12.7057 10.5504C12.6582 10.639 12.629 10.7362 12.6198 10.8364C12.6107 10.9365 12.6217 11.0375 12.6523 11.1333C12.683 11.229 12.7326 11.3177 12.7981 11.3939L13.7381 12.5619Z" fill="#000"/>
<path d="M3.44349 6.39509C3.36404 6.33686 3.2739 6.29485 3.17821 6.27146C3.08253 6.24806 2.98317 6.24375 2.88582 6.25876C2.78846 6.27376 2.69502 6.3078 2.61082 6.35891C2.52662 6.41003 2.45331 6.47724 2.39509 6.55669C2.33686 6.63614 2.29485 6.72628 2.27146 6.82196C2.24807 6.91765 2.24375 7.017 2.25875 7.11435C2.28906 7.31097 2.39623 7.48749 2.55669 7.60509L3.76669 8.49179C3.92714 8.60937 4.12774 8.6584 4.32434 8.62808C4.52094 8.59777 4.69745 8.49059 4.81504 8.33014C4.93262 8.16968 4.98165 7.96909 4.95133 7.77248C4.92102 7.57588 4.81384 7.39937 4.65339 7.28179L3.44349 6.39509Z" fill="#000"/>
<path d="M8.31259 11.6436C8.47081 11.6439 8.62505 11.594 8.75324 11.5013C8.88143 11.4086 8.97701 11.2777 9.02631 11.1273C9.0756 10.977 9.07609 10.8149 9.0277 10.6643C8.97931 10.5136 8.88452 10.3821 8.75689 10.2886L6.99809 9.00004C6.91864 8.94181 6.8285 8.89981 6.73282 8.87643C6.63714 8.85304 6.53779 8.84873 6.44044 8.86374C6.34309 8.87875 6.24965 8.91279 6.16546 8.96391C6.08127 9.01503 6.00797 9.08224 5.94974 9.16169C5.89152 9.24114 5.84952 9.33128 5.82613 9.42696C5.80275 9.52264 5.79844 9.62199 5.81345 9.71934C5.82846 9.81669 5.8625 9.91013 5.91362 9.99432C5.96474 10.0785 6.03194 10.1518 6.11139 10.21L7.87009 11.4985C7.99831 11.5929 8.15338 11.6438 8.31259 11.6436Z" fill="#000"/>
<path d="M10.0525 12.169C9.99423 12.2484 9.95218 12.3385 9.92875 12.4342C9.90532 12.5299 9.90097 12.6292 9.91594 12.7266C9.93091 12.8239 9.96491 12.9174 10.016 13.0016C10.0671 13.0858 10.1343 13.1591 10.2137 13.2174L11.4237 14.1041C11.5841 14.2217 11.7847 14.2707 11.9813 14.2404C12.1779 14.2101 12.3545 14.1029 12.472 13.9424C12.5896 13.782 12.6386 13.5814 12.6083 13.3848C12.578 13.1882 12.4708 13.0117 12.3104 12.8941L11.1004 12.0074C11.021 11.9491 10.9309 11.907 10.8353 11.8836C10.7396 11.8601 10.6403 11.8558 10.5429 11.8708C10.4456 11.8858 10.3522 11.9199 10.268 11.971C10.1838 12.0222 10.1106 12.0895 10.0525 12.169Z" fill="#000"/>
<path d="M25 28.25H19.75V27C19.7488 26.5803 19.5966 26.175 19.3211 25.8584C19.0457 25.5417 18.6655 25.3347 18.25 25.2753V16.75H19C19.1989 16.75 19.3897 16.671 19.5303 16.5303C19.671 16.3897 19.75 16.1989 19.75 16C19.75 15.8011 19.671 15.6103 19.5303 15.4697C19.3897 15.329 19.1989 15.25 19 15.25H13C12.8011 15.25 12.6103 15.329 12.4697 15.4697C12.329 15.6103 12.25 15.8011 12.25 16C12.25 16.1989 12.329 16.3897 12.4697 16.5303C12.6103 16.671 12.8011 16.75 13 16.75H13.75V25.2753C13.3345 25.3347 12.9543 25.5417 12.6789 25.8584C12.4034 26.175 12.2512 26.5803 12.25 27V28.25H7C6.80109 28.25 6.61032 28.329 6.46967 28.4697C6.32902 28.6103 6.25 28.8011 6.25 29C6.25 29.1989 6.32902 29.3897 6.46967 29.5303C6.61032 29.671 6.80109 29.75 7 29.75H25C25.1989 29.75 25.3897 29.671 25.5303 29.5303C25.671 29.3897 25.75 29.1989 25.75 29C25.75 28.8011 25.671 28.6103 25.5303 28.4697C25.3897 28.329 25.1989 28.25 25 28.25ZM16.75 16.75V25.25H15.25V16.75H16.75ZM13.75 28.25V27C13.75 26.9337 13.7763 26.8701 13.8232 26.8232C13.8701 26.7763 13.9337 26.75 14 26.75H18C18.0663 26.75 18.1299 26.7763 18.1768 26.8232C18.2237 26.8701 18.25 26.9337 18.25 27V28.25H13.75Z" fill="#000"/>
</svg>
