<svg width="32" height="32" viewBox="0 0 32 32" fill="none" xmlns="http://www.w3.org/2000/svg">
<g clip-path="url(#clip0_461_5985)">
<path d="M25.7968 32H6.20315C5.94377 32 5.73346 31.7897 5.73346 31.5303V13.4387C5.73346 13.1794 5.94377 12.9691 6.20315 12.9691C6.46252 12.9691 6.67284 13.1793 6.67284 13.4387V31.0607H25.3271V0.939375H24.2673V7.28875C24.2673 7.54812 24.057 7.75844 23.7976 7.75844C23.5382 7.75844 23.3279 7.54812 23.3279 7.28875V0.939375H8.67202V29.0614H23.3279V9.16738C23.3279 8.908 23.5381 8.69769 23.7976 8.69769C24.057 8.69769 24.2673 8.908 24.2673 9.16738V29.5311C24.2673 29.7905 24.057 30.0008 23.7976 30.0008H8.20234C7.94296 30.0008 7.73265 29.7906 7.73265 29.5311V0.939312H6.67277V11.5601C6.67277 11.8194 6.46246 12.0298 6.20309 12.0298C5.94371 12.0298 5.7334 11.8195 5.7334 11.5601V0.469688C5.7334 0.210314 5.94371 0 6.20309 0H25.7967C26.0561 0 26.2664 0.210314 26.2664 0.469688V31.5303C26.2665 31.7897 26.0561 32 25.7968 32V32Z" fill="#000"/>
<path d="M10.8122 21.525C10.5528 21.525 10.3425 21.3147 10.3425 21.0553V16.5621C10.3425 16.3027 10.5528 16.0924 10.8122 16.0924H21.1879C21.4473 16.0924 21.6576 16.3027 21.6576 16.5621V26.9834C21.6576 27.2428 21.4473 27.4531 21.1879 27.4531H10.8122C10.5528 27.4531 10.3425 27.2429 10.3425 26.9834V22.934C10.3425 22.6746 10.5528 22.4643 10.8122 22.4643C11.0716 22.4643 11.2819 22.6746 11.2819 22.934V26.5138H20.7182V17.0317H11.2818V21.0554C11.2818 21.3148 11.0716 21.525 10.8122 21.525Z" fill="#000"/>
<path d="M10.3425 3.01739C10.3425 2.75801 10.5528 2.5477 10.8122 2.5477H21.1879C21.4473 2.5477 21.6576 2.75795 21.6576 3.01739V13.4388C21.6576 13.6981 21.4473 13.9084 21.1879 13.9084H10.8122C10.5528 13.9084 10.3425 13.6982 10.3425 13.4388V3.01739ZM11.2818 12.9691H20.7182V3.48707H11.2818V12.9691Z" fill="#000"/>
<path d="M22.8949 15.0003C22.8949 15.4892 22.4972 15.887 22.0083 15.887C21.692 15.887 21.4147 15.72 21.2577 15.47H20.1369C19.8775 15.47 19.6672 15.2598 19.6672 15.0003C19.6672 14.741 19.8775 14.5307 20.1369 14.5307H21.2577C21.4147 14.2807 21.692 14.1137 22.0083 14.1137C22.4972 14.1137 22.8949 14.5115 22.8949 15.0003Z" fill="#000"/>
</g>
<defs>
<clipPath id="clip0_461_5985">
<rect width="32" height="32" fill="white" transform="matrix(1 0 0 -1 0 32)"/>
</clipPath>
</defs>
</svg>
