<svg width="36" height="36" viewBox="0 0 36 36" fill="none" xmlns="http://www.w3.org/2000/svg">
<path d="M31.7816 23.935C31.6605 23.566 31.2635 23.3654 30.8943 23.486C30.3551 23.663 29.7907 23.7527 29.217 23.7527H28.2422C27.8539 23.7527 27.5391 24.0675 27.5391 24.4558C27.5391 24.8441 27.8539 25.1589 28.2422 25.1589H29.217C29.9399 25.1589 30.6517 25.0456 31.3326 24.8223C31.7016 24.7012 31.9027 24.304 31.7816 23.935Z" fill="white"/>
<path d="M34.0078 22.1832C33.7331 21.9087 33.288 21.9087 33.0134 22.1832L32.9851 22.2111C32.7079 22.4832 32.7037 22.9284 32.9757 23.2055C33.1134 23.3458 33.2955 23.4161 33.4777 23.4161C33.6553 23.4161 33.8332 23.3492 33.9701 23.2149L34.0078 23.1776C34.2824 22.9029 34.2824 22.4577 34.0078 22.1832Z" fill="white"/>
<path d="M29.217 11.593C28.7794 11.593 28.3454 11.6346 27.9198 11.7171C27.3557 9.7834 26.2073 8.04127 24.6357 6.75441C22.85 5.29226 20.5933 4.48697 18.2812 4.48697C16.2115 4.48697 14.2241 5.11205 12.534 6.29449C11.0777 7.31332 9.93094 8.679 9.18633 10.2728C8.69998 10.1201 8.19352 10.0431 7.67327 10.0431C4.8832 10.0431 2.6133 12.313 2.6133 15.103C2.6133 15.286 2.6235 15.4696 2.64361 15.6527C1.02087 16.5312 0 18.2207 0 20.099C0 22.889 2.2699 25.1589 5.05997 25.1589H6.30471C6.69298 25.1589 7.00784 24.8441 7.00784 24.4558C7.00784 24.0675 6.69298 23.7527 6.30471 23.7527H5.05997C3.0453 23.7527 1.40625 22.1136 1.40625 20.099C1.40625 18.6042 2.30175 17.275 3.68775 16.7127C4.00634 16.5834 4.18472 16.2427 4.10948 15.9072C4.04979 15.6414 4.01955 15.3708 4.01955 15.103C4.01955 13.0884 5.65861 11.4493 7.67327 11.4493C8.2293 11.4493 8.76305 11.5709 9.25966 11.8107C9.43664 11.8961 9.64132 11.9035 9.8242 11.8313C10.007 11.7589 10.1511 11.6132 10.2217 11.4297C11.4943 8.11812 14.7331 5.89322 18.2812 5.89322C22.126 5.89322 25.5211 8.48149 26.5747 12.1283C25.92 12.4062 25.3068 12.7875 24.7692 13.2549C24.1649 13.78 23.6628 14.4007 23.2766 15.0995C23.0888 15.4394 23.2121 15.8672 23.552 16.055C23.6598 16.1146 23.7764 16.1428 23.8914 16.1428C24.139 16.1428 24.3792 16.0117 24.5075 15.7796C24.8137 15.2253 25.2121 14.733 25.6917 14.3162C26.2578 13.8242 26.929 13.4525 27.6423 13.2338C27.6955 13.2175 27.749 13.2019 27.8026 13.1872C27.8067 13.1861 27.8107 13.1848 27.8148 13.1838C28.2698 13.0612 28.7405 12.9992 29.217 12.9992C32.1818 12.9992 34.5938 15.4112 34.5938 18.3759C34.5938 19.0081 34.4853 19.6267 34.2714 20.2146C34.1386 20.5795 34.3268 20.983 34.6918 21.1157C35.0568 21.2484 35.4602 21.0603 35.5929 20.6953C35.863 19.9528 36 19.1724 36 18.3759C36 14.6357 32.9572 11.593 29.217 11.593Z" fill="white"/>
<path d="M18.5543 7.2859C15.4959 7.17165 12.6814 9.00505 11.5508 11.8508C11.4075 12.2116 11.5838 12.6204 11.9447 12.7638C12.0299 12.7976 12.1177 12.8137 12.2041 12.8137C12.4838 12.8137 12.7483 12.6458 12.8578 12.37C13.7688 10.0766 16.0357 8.59906 18.5012 8.69117C18.889 8.70643 19.2158 8.4031 19.2304 8.01505C19.245 7.62699 18.9423 7.30053 18.5543 7.2859Z" fill="white"/>
<path d="M20.9557 7.79448L20.9354 7.78646C20.5747 7.64267 20.1658 7.81895 20.0222 8.17979C19.8786 8.54056 20.0547 8.94943 20.4155 9.09301L20.4358 9.10102C20.5211 9.13498 20.609 9.15109 20.6955 9.15109C20.975 9.15109 21.2393 8.98325 21.349 8.7077C21.4926 8.34692 21.3165 7.93806 20.9557 7.79448Z" fill="white"/>
<path d="M13.4731 29.1328H11.2824C10.6892 29.1328 10.2065 28.6502 10.2065 28.0569V24.787C10.2065 24.1937 10.6892 23.7111 11.2824 23.7111H13.4731C13.8614 23.7111 14.1762 23.3962 14.1762 23.0079C14.1762 22.6197 13.8614 22.3048 13.4731 22.3048H11.2824C9.91376 22.3048 8.80029 23.4183 8.80029 24.787V28.0569C8.80029 29.4256 9.91376 30.5391 11.2824 30.5391H13.4731C13.8615 30.5391 14.1762 30.2242 14.1762 29.8359C14.1762 29.4477 13.8614 29.1328 13.4731 29.1328Z" fill="white"/>
<path d="M19.0397 22.3048H17.4154C16.2338 22.3048 15.2725 23.2661 15.2725 24.4477V28.3961C15.2725 29.5777 16.2338 30.5391 17.4154 30.5391H19.0397C20.2213 30.5391 21.1826 29.5777 21.1826 28.3961V24.4477C21.1826 23.2661 20.2213 22.3048 19.0397 22.3048ZM19.7764 28.3961C19.7764 28.8023 19.4459 29.1328 19.0397 29.1328H17.4154C17.0093 29.1328 16.6788 28.8023 16.6788 28.3961V24.4477C16.6788 24.0415 17.0093 23.7111 17.4154 23.7111H19.0397C19.4459 23.7111 19.7764 24.0416 19.7764 24.4477V28.3961Z" fill="white"/>
<path d="M26.4965 30.1068H25.4387C26.1293 29.4087 26.7834 28.5289 26.7834 27.7003C26.7834 26.5151 25.987 25.7188 24.8019 25.7188C23.7093 25.7188 22.8203 26.6077 22.8203 27.7003C22.8203 28.0886 23.1352 28.4035 23.5234 28.4035C23.9117 28.4035 24.2266 28.0886 24.2266 27.7003C24.2266 27.3831 24.4846 27.125 24.8019 27.125C25.3075 27.125 25.3772 27.4016 25.3772 27.7003C25.3772 28.2561 24.2082 29.4605 23.1168 30.2364C22.8671 30.4135 22.7607 30.7317 22.8536 31.0234C22.9465 31.315 23.2174 31.513 23.5235 31.513H26.4965C26.8847 31.513 27.1996 31.1982 27.1996 30.81C27.1996 30.4217 26.8847 30.1068 26.4965 30.1068Z" fill="white"/>
</svg>
