<svg width="36" height="36" viewBox="0 0 36 36" fill="none" xmlns="http://www.w3.org/2000/svg">
<path d="M31.7816 22.4481C31.6605 22.0791 31.2635 21.8785 30.8943 21.9991C30.3551 22.1761 29.7907 22.2658 29.217 22.2658H28.2422C27.8539 22.2658 27.5391 22.5806 27.5391 22.9689C27.5391 23.3571 27.8539 23.672 28.2422 23.672H29.217C29.9399 23.672 30.6517 23.5587 31.3326 23.3354C31.7016 23.2143 31.9027 22.8171 31.7816 22.4481Z" fill="white"/>
<path d="M34.0078 20.6962C33.7331 20.4217 33.288 20.4217 33.0134 20.6962L32.9851 20.7242C32.7079 20.9963 32.7037 21.4415 32.9757 21.7186C33.1134 21.8588 33.2955 21.9292 33.4777 21.9292C33.6553 21.9292 33.8332 21.8623 33.9701 21.728L34.0078 21.6907C34.2824 21.416 34.2824 20.9708 34.0078 20.6962Z" fill="white"/>
<path d="M29.217 10.106C28.7794 10.106 28.3454 10.1476 27.9198 10.2301C27.3557 8.29643 26.2073 6.5543 24.6357 5.26744C22.85 3.80529 20.5933 3 18.2812 3C16.2115 3 14.2241 3.62508 12.534 4.80752C11.0777 5.82635 9.93094 7.19203 9.18633 8.78588C8.69998 8.63316 8.19352 8.5561 7.67327 8.5561C4.8832 8.5561 2.6133 10.826 2.6133 13.6161C2.6133 13.799 2.6235 13.9826 2.64361 14.1657C1.02087 15.0443 0 16.7337 0 18.612C0 21.4021 3.2699 23.672 6.05997 23.672H7.30471C7.69298 23.672 8.00784 23.3571 8.00784 22.9688C8.00784 22.5806 7.69298 22.2657 7.30471 22.2657H6.05997C4.0453 22.2657 1.40625 20.6267 1.40625 18.612C1.40625 17.1172 2.30175 15.788 3.68775 15.2257C4.00634 15.0964 4.18472 14.7557 4.10948 14.4202C4.04979 14.1544 4.01955 13.8838 4.01955 13.6161C4.01955 11.6014 5.65861 9.96235 7.67327 9.96235C8.2293 9.96235 8.76305 10.0839 9.25966 10.3237C9.43664 10.4091 9.64132 10.4166 9.8242 10.3443C10.007 10.2719 10.1511 10.1262 10.2217 9.94273C11.4943 6.63115 14.7331 4.40625 18.2812 4.40625C22.126 4.40625 25.5211 6.99453 26.5747 10.6413C25.92 10.9192 25.3068 11.3005 24.7692 11.7679C24.1649 12.2931 23.6628 12.9137 23.2766 13.6126C23.0888 13.9524 23.2121 14.3802 23.552 14.568C23.6598 14.6276 23.7764 14.6559 23.8914 14.6559C24.139 14.6559 24.3792 14.5247 24.5075 14.2926C24.8137 13.7383 25.2121 13.246 25.6917 12.8292C26.2578 12.3372 26.929 11.9655 27.6423 11.7468C27.6955 11.7305 27.749 11.7149 27.8026 11.7003C27.8067 11.6991 27.8107 11.6979 27.8148 11.6968C28.2698 11.5743 28.7405 11.5122 29.217 11.5122C32.1818 11.5122 34.5938 13.9242 34.5938 16.889C34.5938 17.5211 34.4853 18.1397 34.2714 18.7277C34.1386 19.0926 34.3268 19.496 34.6918 19.6288C35.0568 19.7614 35.4602 19.5733 35.5929 19.2084C35.863 18.4658 36 17.6855 36 16.8889C36 13.1488 32.9572 10.106 29.217 10.106Z" fill="white"/>
<path d="M18 20.125C16.9513 20.1251 15.9284 20.4509 15.0728 21.0574C14.2172 21.6639 13.5711 22.5212 13.2237 23.5108C12.8764 24.5004 12.8449 25.5734 13.1337 26.5816C13.4225 27.5898 14.0174 28.4835 14.836 29.1391C14.9528 29.2266 15.0991 29.2652 15.244 29.2469C15.3888 29.2285 15.5208 29.1545 15.6121 29.0406C15.7034 28.9267 15.7468 28.7817 15.7332 28.6363C15.7196 28.491 15.65 28.3566 15.5391 28.2616C14.9085 27.7568 14.4484 27.0703 14.2212 26.2951C13.994 25.5199 14.0107 24.6936 14.2691 23.9283C14.5275 23.1629 15.015 22.4955 15.6655 22.0167C16.3161 21.5378 17.0981 21.2706 17.9057 21.2513C18.7133 21.232 19.5072 21.4616 20.1799 21.9088C20.8525 22.3561 21.3714 22.9994 21.666 23.7515C21.9606 24.5037 22.0168 25.3283 21.8269 26.1134C21.6369 26.8985 21.2101 27.6063 20.6043 28.1406C20.4925 28.2393 20.4244 28.3785 20.4151 28.5274C20.4057 28.6763 20.456 28.8228 20.5547 28.9347C20.6534 29.0466 20.7926 29.1147 20.9415 29.124C21.0904 29.1333 21.2369 29.0831 21.3488 28.9844C22.1201 28.3042 22.6659 27.4053 22.9136 26.4073C23.1614 25.4092 23.0994 24.3594 22.7358 23.3975C22.3722 22.4356 21.7243 21.6073 20.8783 21.0227C20.0323 20.4381 19.0284 20.125 18 20.125Z" fill="white"/>
<path d="M18.5625 23.597V22.9375C18.5625 22.7883 18.5032 22.6452 18.3978 22.5398C18.2923 22.4343 18.1492 22.375 18 22.375C17.8508 22.375 17.7077 22.4343 17.6023 22.5398C17.4968 22.6452 17.4375 22.7883 17.4375 22.9375V23.597C17.0622 23.7297 16.7459 23.9908 16.5445 24.3342C16.343 24.6775 16.2695 25.081 16.3368 25.4734C16.4041 25.8657 16.608 26.2216 16.9123 26.4782C17.2167 26.7348 17.6019 26.8755 18 26.8755C18.3981 26.8755 18.7833 26.7348 19.0877 26.4782C19.392 26.2216 19.5959 25.8657 19.6632 25.4734C19.7305 25.081 19.657 24.6775 19.4556 24.3342C19.2541 23.9908 18.9378 23.7297 18.5625 23.597ZM18 25.75C17.8888 25.75 17.78 25.717 17.6875 25.6552C17.595 25.5934 17.5229 25.5055 17.4803 25.4028C17.4377 25.3 17.4266 25.1869 17.4483 25.0778C17.47 24.9686 17.5236 24.8684 17.6023 24.7898C17.6809 24.7111 17.7812 24.6575 17.8903 24.6358C17.9994 24.6141 18.1125 24.6252 18.2153 24.6678C18.3181 24.7104 18.4059 24.7825 18.4677 24.875C18.5295 24.9675 18.5625 25.0762 18.5625 25.1875C18.5623 25.3366 18.503 25.4796 18.3975 25.585C18.2921 25.6905 18.1491 25.7498 18 25.75Z" fill="white"/>
<circle cx="18" cy="25" r="7.25" stroke="white" stroke-width="1.5"/>
</svg>
